<svg width="24" height="24" viewBox="0 0 24 24" fill="none" xmlns="http://www.w3.org/2000/svg">
<path d="M20.25 2.75H3.75C3.48478 2.75 3.23043 2.85536 3.04289 3.04289C2.85536 3.23043 2.75 3.48478 2.75 3.75V20.25C2.75 20.5152 2.85536 20.7696 3.04289 20.9571C3.23043 21.1446 3.48478 21.25 3.75 21.25H20.25C20.5152 21.25 20.7696 21.1446 20.9571 20.9571C21.1446 20.7696 21.25 20.5152 21.25 20.25V3.75C21.25 3.48478 21.1446 3.23043 20.9571 3.04289C20.7696 2.85536 20.5152 2.75 20.25 2.75Z" stroke="black" stroke-width="2" stroke-linecap="round" stroke-linejoin="round"/>
<path d="M12.7895 18.071C12.7685 15.6765 13.3205 13.698 16.3295 13.8225C20.623 2.88152 3.118 3.29852 7.7845 13.757C9.1995 13.669 11.5445 14.5115 11.1445 18.33M21.25 16.7395L2.75 19.6515M2.75 5.52002L8.9225 6.66502M16.1775 7.76502L21.25 8.50552" stroke="black" stroke-width="2" stroke-linecap="round" stroke-linejoin="round"/>
</svg>
