<svg width="24" height="24" viewBox="0 0 24 24" fill="none" xmlns="http://www.w3.org/2000/svg">
<g clip-path="url(#clip0_2612_297)">
<path d="M8.95762 1.47265V1.94531L8.45671 1.94875L7.95409 1.9539L7.95066 6.46562L7.94551 10.9773L7.46519 10.9825L6.98486 10.9859V10.4789V9.97187H5.49243H4V11.4672V12.9625H4.47175H4.94349V13.4695V13.9766H5.44955H5.9556V14.982V15.9892L6.45308 15.9841L6.95055 15.9789V16.9792V17.9812L7.44803 17.9847L7.94551 17.9898L7.95066 18.9867L7.95409 19.9836L8.45671 19.9887L8.95762 19.9922V21.4961V23H13.9753H18.9929V21.4961V19.9922H19.499H20.005V18.4883V16.9844H20.5025H21V13.4781V9.97187H20.5025H20.005V9.47344V8.975H19.499H18.9929V8.47141V7.96953L17.998 7.97469L17.003 7.97812V7.47109V6.96406H15.502H14.001V6.46562V5.96719H12.9975H11.9939V3.95625V1.94531H11.4965H10.999V1.47265V0.999999H9.9783H8.95762V1.47265Z" fill="black"/>
</g>
<defs>
<clipPath id="clip0_2612_297">
<rect width="17" height="22" fill="white" transform="translate(4 1)"/>
</clipPath>
</defs>
</svg>
