<svg width="24" height="24" viewBox="0 0 24 24" fill="none" xmlns="http://www.w3.org/2000/svg">
<path d="M17.125 0.875V23.125H14.4688V14.8506H12.6748L8.89453 23.0527L8.86133 23.125H5.80273L5.88672 22.9463L10.0244 14.1904C9.06997 13.6893 8.26718 12.9947 7.7002 12.0195C7.11243 11.0084 6.78128 9.70719 6.78125 8.0332C6.78125 5.6818 7.53311 3.88908 8.74414 2.68457C9.95438 1.48102 11.6127 0.875062 13.4062 0.875H17.125ZM13.3057 3.20703C12.3654 3.20704 11.4488 3.52626 10.7656 4.28516C10.0814 5.04529 9.61719 6.26261 9.61719 8.08594C9.61722 9.84938 10.0433 10.9909 10.7051 11.6914C11.3657 12.3906 12.2809 12.6709 13.3057 12.6709H14.4619V3.20703H13.3057Z" fill="black" stroke="black" stroke-width="0.25"/>
</svg>
