<svg width="24" height="24" viewBox="0 0 24 24" fill="none" xmlns="http://www.w3.org/2000/svg">
<path fill-rule="evenodd" clip-rule="evenodd" d="M2.66545 2.53926C3.34066 2.16605 4.13244 2.15822 4.88353 2.16683C6.81449 2.18954 8.74388 2.28577 10.6701 2.41017C12.6113 2.551 14.5563 2.69338 16.4779 3.01027C17.434 3.18787 18.39 3.36077 19.3438 3.54542C20.109 3.71442 20.9305 3.90688 21.5016 4.48273C22.0736 5.06795 22.2269 5.91921 22.2833 6.70475C22.3771 8.19599 22.2934 9.69192 22.187 11.1808C22.0524 12.9052 21.8545 14.6257 21.5462 16.3282C21.4484 16.8352 21.342 17.3406 21.1863 17.8335C21.5118 18.7959 21.8201 19.77 21.9797 20.7761C22.0219 21.1212 22.0806 21.4866 21.9672 21.8238C21.9171 21.9904 21.7324 22.0874 21.5681 22.0248C21.1386 21.9004 20.7638 21.6415 20.4039 21.3856C19.5222 20.7339 18.7335 19.9687 17.9746 19.1808C16.1305 19.6064 14.284 20.0266 12.4313 20.4123C11.2804 20.647 10.1248 20.8888 8.94887 20.9522C8.16257 20.9905 7.34417 20.8457 6.68069 20.4014C6.05088 19.9883 5.58926 19.3647 5.25597 18.6981C4.64569 17.4815 4.17782 16.2007 3.71623 14.9222C2.89781 12.5797 2.15766 10.2075 1.57557 7.79462C1.3291 6.69847 1.04434 5.55696 1.2947 4.43501C1.45351 3.64635 1.93938 2.91011 2.66545 2.53926ZM6.55317 5.88635C7.75101 8.18268 8.97077 10.4696 10.1561 12.7714C10.1866 14.1258 10.16 15.4832 10.1694 16.8391C11.433 16.8399 12.6973 16.8391 13.9609 16.8391C13.9617 15.5443 13.9632 14.2502 13.9601 12.9553C13.9382 12.7441 14.0767 12.5719 14.1643 12.3935C15.3027 10.2247 16.4403 8.05593 17.5779 5.88635C16.4771 5.88477 15.3763 5.88635 14.2754 5.88557C13.5384 7.448 12.8045 9.01045 12.0659 10.5721C11.3281 9.01045 10.5927 7.4488 9.85722 5.88713C8.75561 5.88477 7.65478 5.88635 6.55317 5.88635Z" fill="black"/>
</svg>
