<svg width="140" height="140" viewBox="0 0 140 140" fill="none" xmlns="http://www.w3.org/2000/svg">
<g opacity="0.1">
<path d="M125.976 90.1744C125.614 90.1744 125.266 90.3184 125.009 90.5748C124.753 90.8312 124.609 91.179 124.609 91.5416V96.2149H109.313C108.95 96.2149 108.602 96.359 108.346 96.6154C108.09 96.8717 107.946 97.2195 107.946 97.5821C107.946 97.9447 108.09 98.2924 108.346 98.5488C108.602 98.8052 108.95 98.9493 109.313 98.9493H124.609V104.436H109.312C108.949 104.436 108.602 104.58 108.345 104.837C108.089 105.093 107.945 105.441 107.945 105.803C107.945 106.166 108.089 106.514 108.345 106.77C108.602 107.026 108.949 107.17 109.312 107.17H125.976C126.339 107.17 126.686 107.026 126.943 106.77C127.199 106.514 127.343 106.166 127.343 105.803V91.5416C127.343 91.179 127.199 90.8312 126.943 90.5748C126.686 90.3184 126.339 90.1744 125.976 90.1744ZM120.709 64.9137H124.609V65.8836C124.609 66.2462 124.753 66.5939 125.009 66.8503C125.266 67.1067 125.614 67.2508 125.976 67.2508C126.339 67.2508 126.686 67.1067 126.943 66.8503C127.199 66.5939 127.343 66.2462 127.343 65.8836V63.5465C127.343 63.1839 127.199 62.8362 126.943 62.5798C126.686 62.3234 126.339 62.1793 125.976 62.1793H120.709C120.346 62.1793 119.998 62.3234 119.742 62.5798C119.485 62.8362 119.341 63.1839 119.341 63.5465C119.341 63.9091 119.485 64.2569 119.742 64.5133C119.998 64.7697 120.346 64.9137 120.709 64.9137ZM128.443 85.99L124.36 84.6529C124.019 84.5504 123.65 84.5855 123.334 84.7507C123.018 84.9159 122.779 85.1981 122.668 85.5372C122.557 85.8763 122.582 86.2453 122.74 86.5656C122.897 86.8859 123.173 87.1321 123.509 87.2516L127.592 88.5887C127.936 88.7015 128.311 88.6729 128.635 88.509C128.958 88.3452 129.203 88.0596 129.316 87.7151C129.372 87.5445 129.394 87.3645 129.381 87.1854C129.367 87.0064 129.318 86.8317 129.237 86.6715C129.156 86.5113 129.044 86.3686 128.908 86.2517C128.771 86.1347 128.613 86.0458 128.443 85.99ZM128.443 80.8707L124.36 79.5336C124.016 79.4207 123.64 79.4493 123.317 79.6132C122.993 79.7771 122.748 80.0627 122.635 80.4073C122.523 80.752 122.551 81.1273 122.715 81.4508C122.879 81.7743 123.165 82.0194 123.509 82.1323L127.592 83.4694C127.936 83.5822 128.311 83.5536 128.635 83.3897C128.958 83.2259 129.203 82.9403 129.316 82.5958C129.372 82.4252 129.394 82.2452 129.381 82.0661C129.367 81.8871 129.318 81.7124 129.237 81.5522C129.156 81.392 129.044 81.2493 128.908 81.1324C128.771 81.0154 128.613 80.9265 128.443 80.8707ZM128.443 75.7514L124.36 74.4143C124.016 74.3014 123.64 74.33 123.317 74.4939C122.993 74.6578 122.748 74.9434 122.635 75.2881C122.523 75.6327 122.551 76.008 122.715 76.3315C122.879 76.655 123.165 76.9002 123.509 77.013L127.592 78.3501C127.936 78.4629 128.311 78.4343 128.635 78.2704C128.958 78.1066 129.203 77.821 129.316 77.4765C129.372 77.3059 129.394 77.1259 129.38 76.9469C129.367 76.7678 129.318 76.5932 129.237 76.433C129.156 76.2727 129.044 76.1301 128.908 76.0131C128.771 75.8962 128.613 75.8072 128.443 75.7514ZM122.636 70.1689C122.58 70.3395 122.558 70.5195 122.572 70.6986C122.585 70.8776 122.634 71.0522 122.715 71.2124C122.796 71.3726 122.908 71.5153 123.045 71.6322C123.181 71.7492 123.339 71.8381 123.509 71.894L127.592 73.2311C127.936 73.344 128.312 73.3153 128.635 73.1514C128.959 72.9875 129.204 72.7018 129.317 72.3572C129.43 72.0126 129.401 71.6373 129.237 71.3138C129.073 70.9903 128.787 70.7452 128.443 70.6324L124.36 69.2953C124.016 69.1825 123.641 69.2111 123.317 69.375C122.994 69.5388 122.749 69.8244 122.636 70.1689ZM30.7004 104.436H15.4035V98.9496H30.6998C31.0624 98.9496 31.4102 98.8055 31.6666 98.5491C31.923 98.2927 32.067 97.945 32.067 97.5824C32.067 97.2198 31.923 96.872 31.6666 96.6156C31.4102 96.3592 31.0624 96.2152 30.6998 96.2152H15.4035V91.5416C15.4035 91.179 15.2594 90.8312 15.003 90.5748C14.7466 90.3184 14.3989 90.1744 14.0363 90.1744C13.6737 90.1744 13.3259 90.3184 13.0695 90.5748C12.8131 90.8312 12.6691 91.179 12.6691 91.5416V105.803C12.6691 106.166 12.8131 106.514 13.0695 106.77C13.3259 107.026 13.6737 107.17 14.0363 107.17H30.7004C30.8815 107.173 31.0614 107.14 31.2295 107.072C31.3976 107.004 31.5506 106.904 31.6796 106.777C31.8086 106.65 31.911 106.498 31.981 106.331C32.0509 106.164 32.0869 105.985 32.0869 105.803C32.0869 105.622 32.0509 105.443 31.981 105.276C31.911 105.109 31.8086 104.957 31.6796 104.83C31.5506 104.703 31.3976 104.602 31.2295 104.535C31.0614 104.467 30.8815 104.434 30.7004 104.436ZM14.0363 67.2508C14.3989 67.2508 14.7466 67.1067 15.003 66.8503C15.2594 66.5939 15.4035 66.2462 15.4035 65.8836V64.9137H19.3038C19.6664 64.9137 20.0141 64.7697 20.2705 64.5133C20.5269 64.2569 20.671 63.9091 20.671 63.5465C20.671 63.1839 20.5269 62.8362 20.2705 62.5798C20.0141 62.3234 19.6664 62.1793 19.3038 62.1793H14.0363C13.6737 62.1793 13.3259 62.3234 13.0695 62.5798C12.8131 62.8362 12.6691 63.1839 12.6691 63.5465V65.8836C12.6691 66.2462 12.8131 66.5939 13.0695 66.8503C13.3259 67.1067 13.6737 67.2508 14.0363 67.2508ZM17.3766 85.5265C17.2637 85.1819 17.0186 84.8963 16.6951 84.7325C16.3716 84.5686 15.9963 84.54 15.6517 84.6529L11.5693 85.99C11.3987 86.0459 11.2407 86.1348 11.1045 86.2517C10.9682 86.3686 10.8563 86.5112 10.7751 86.6714C10.694 86.8316 10.6452 87.0062 10.6315 87.1852C10.6178 87.3642 10.6395 87.5442 10.6954 87.7148C10.7513 87.8855 10.8402 88.0434 10.9571 88.1797C11.0741 88.316 11.2167 88.4279 11.3768 88.509C11.537 88.5902 11.7116 88.639 11.8906 88.6526C12.0696 88.6663 12.2496 88.6446 12.4203 88.5887L16.5027 87.2516C16.6733 87.1958 16.8313 87.1068 16.9676 86.9899C17.1039 86.873 17.2158 86.7303 17.297 86.5701C17.3782 86.4099 17.427 86.2353 17.4406 86.0562C17.4543 85.8772 17.4325 85.6972 17.3766 85.5265ZM11.9948 83.5375C12.1359 83.5375 12.2794 83.5157 12.4205 83.4694L16.5029 82.1323C16.8476 82.0194 17.1332 81.7743 17.2971 81.4508C17.461 81.1273 17.4896 80.752 17.3767 80.4073C17.2638 80.0627 17.0187 79.7771 16.6952 79.6132C16.3717 79.4493 15.9964 79.4207 15.6517 79.5336L11.5693 80.8707C11.2599 80.9717 10.9968 81.1798 10.8271 81.4575C10.6574 81.7352 10.5923 82.0644 10.6436 82.3857C10.6949 82.7071 10.8591 82.9997 11.1068 83.2108C11.3545 83.4219 11.6693 83.5378 11.9948 83.5375ZM11.9948 78.4182C12.1359 78.4182 12.2794 78.3964 12.4205 78.3501L16.5029 77.013C16.6736 76.9571 16.8315 76.8682 16.9678 76.7513C17.1041 76.6343 17.216 76.4917 17.2971 76.3315C17.3782 76.1713 17.427 75.9967 17.4407 75.8177C17.4543 75.6387 17.4326 75.4587 17.3767 75.2881C17.3208 75.1174 17.2319 74.9595 17.1149 74.8232C16.998 74.6869 16.8554 74.575 16.6952 74.4939C16.535 74.4128 16.3604 74.364 16.1814 74.3503C16.0023 74.3367 15.8224 74.3584 15.6517 74.4143L11.5693 75.7514C11.2599 75.8524 10.9968 76.0605 10.8271 76.3382C10.6574 76.6159 10.5923 76.9451 10.6436 77.2664C10.6949 77.5878 10.8591 77.8804 11.1068 78.0915C11.3545 78.3026 11.6693 78.4185 11.9948 78.4182ZM11.9948 73.2989C12.1359 73.2989 12.2794 73.2771 12.4205 73.2308L16.5029 71.8937C16.6736 71.8378 16.8316 71.7489 16.9678 71.6319C17.1041 71.515 17.216 71.3723 17.2971 71.2121C17.3782 71.0519 17.427 70.8773 17.4406 70.6983C17.4543 70.5192 17.4325 70.3393 17.3766 70.1686C17.2637 69.824 17.0186 69.5384 16.6951 69.3746C16.3716 69.2107 15.9963 69.1821 15.6517 69.295L11.5693 70.6321C11.2599 70.7331 10.9968 70.9412 10.8271 71.2189C10.6574 71.4966 10.5923 71.8258 10.6436 72.1471C10.6949 72.4685 10.8591 72.7611 11.1068 72.9722C11.3545 73.1833 11.6693 73.2992 11.9948 73.2989Z" fill="#2626BB"/>
</g>
<path d="M36.8443 28.2079L31.0769 33.9755C30.9399 34.1125 30.8312 34.2751 30.7571 34.4541C30.683 34.6331 30.6448 34.8249 30.6448 35.0187C30.6448 35.2124 30.683 35.4042 30.7571 35.5832C30.8312 35.7622 30.9399 35.9248 31.0769 36.0618L35.2881 40.2728C33.7546 43.0024 32.5508 45.9046 31.702 48.9183H25.7514C25.5577 48.9183 25.3658 48.9565 25.1868 49.0306C25.0078 49.1048 24.8452 49.2135 24.7082 49.3505C24.5712 49.4875 24.4626 49.6502 24.3885 49.8292C24.3143 50.0082 24.2762 50.2 24.2762 50.3938V69.043C24.2762 69.4343 24.4317 69.8095 24.7083 70.0862C24.985 70.3628 25.3602 70.5182 25.7514 70.5182H31.7017C32.5506 73.5319 33.7544 76.4341 35.2878 79.1638L31.0766 83.375C30.9396 83.512 30.831 83.6746 30.7568 83.8536C30.6827 84.0326 30.6445 84.2244 30.6445 84.4182C30.6445 84.6119 30.6827 84.8037 30.7568 84.9827C30.831 85.1617 30.9396 85.3243 31.0766 85.4613L44.2637 98.6484C44.4007 98.7854 44.5633 98.8941 44.7423 98.9682C44.9213 99.0423 45.1131 99.0805 45.3069 99.0805C45.5006 99.0805 45.6924 99.0423 45.8714 98.9682C46.0504 98.8941 46.213 98.7854 46.35 98.6484L50.5612 94.4375C53.291 95.9709 56.1931 97.1747 59.2068 98.0236V103.974C59.2068 104.365 59.3622 104.74 59.6388 105.017C59.9155 105.294 60.2907 105.449 60.682 105.449H79.3312C79.525 105.449 79.7168 105.411 79.8958 105.337C80.0748 105.263 80.2375 105.154 80.3745 105.017C80.5115 104.88 80.6201 104.717 80.6942 104.538C80.7683 104.359 80.8065 104.168 80.8064 103.974V98.0236C83.8201 97.1746 86.7222 95.9708 89.452 94.4375L93.6629 98.6484C93.7999 98.7854 93.9625 98.8941 94.1415 98.9682C94.3205 99.0423 94.5124 99.0805 94.7061 99.0805C94.8998 99.0805 95.0917 99.0423 95.2707 98.9682C95.4496 98.8941 95.6123 98.7854 95.7493 98.6484L108.936 85.4613C109.073 85.3243 109.182 85.1617 109.256 84.9827C109.33 84.8037 109.368 84.6119 109.368 84.4182C109.368 84.2244 109.33 84.0326 109.256 83.8536C109.182 83.6746 109.073 83.512 108.936 83.375L104.725 79.1638C106.259 76.4341 107.462 73.5319 108.311 70.5182H114.262C114.653 70.5182 115.028 70.3628 115.305 70.0862C115.581 69.8095 115.737 69.4343 115.737 69.043V50.3938C115.737 50.0025 115.581 49.6273 115.305 49.3506C115.028 49.0739 114.653 48.9184 114.262 48.9183H108.311C107.462 45.9047 106.258 43.0025 104.725 40.2728L108.936 36.0618C109.073 35.9248 109.182 35.7622 109.256 35.5832C109.33 35.4042 109.368 35.2124 109.368 35.0187C109.368 34.8249 109.33 34.6331 109.256 34.4541C109.182 34.2751 109.073 34.1125 108.936 33.9755L95.7493 20.7884C95.6123 20.6514 95.4496 20.5428 95.2707 20.4686C95.0917 20.3945 94.8998 20.3563 94.7061 20.3563C94.5124 20.3563 94.3205 20.3945 94.1415 20.4686C93.9625 20.5428 93.7999 20.6514 93.6629 20.7884L89.452 24.9994C86.7223 23.4659 83.8201 22.2621 80.8064 21.4132V15.4632C80.8064 15.072 80.651 14.6968 80.3744 14.4201C80.0977 14.1435 79.7225 13.988 79.3312 13.988H60.682C60.2907 13.988 59.9155 14.1435 59.6389 14.4201C59.3622 14.6968 59.2068 15.072 59.2068 15.4632V21.4135C56.1932 22.2625 53.291 23.4663 50.5612 24.9996L46.35 20.7887C46.213 20.6517 46.0504 20.543 45.8714 20.4689C45.6924 20.3947 45.5006 20.3566 45.3069 20.3566C45.1131 20.3566 44.9213 20.3947 44.7423 20.4689C44.5633 20.543 44.4007 20.6517 44.2637 20.7887L41.3218 23.7303" stroke="#00EAFF" stroke-width="2.38281" stroke-miterlimit="10" stroke-linecap="round" stroke-linejoin="round"/>
<path d="M70.0064 90.1171C86.7952 90.1171 100.405 76.507 100.405 59.7182C100.405 42.9294 86.7952 29.3193 70.0064 29.3193C53.2176 29.3193 39.6075 42.9294 39.6075 59.7182C39.6075 76.507 53.2176 90.1171 70.0064 90.1171Z" fill="white"/>
<path d="M70.0064 86.4542C84.7722 86.4542 96.7423 74.4841 96.7423 59.7183C96.7423 44.9525 84.7722 32.9824 70.0064 32.9824C55.2406 32.9824 43.2705 44.9525 43.2705 59.7183C43.2705 74.4841 55.2406 86.4542 70.0064 86.4542Z" fill="#11A2AA"/>
<path d="M57.8046 82.5038H82.2084" stroke="#00EAFF" stroke-width="2.38281" stroke-miterlimit="10" stroke-linecap="round" stroke-linejoin="round"/>
<path d="M77.2223 84.1228L78.4229 77.7927C78.9105 75.2218 80.1614 72.8711 81.9571 70.968C84.7328 68.0263 86.4344 64.0607 86.4344 59.6971C86.4344 50.6242 79.0795 43.2693 70.0065 43.2693C60.9339 43.2693 53.5787 50.6242 53.5787 59.6971C53.5787 64.0607 55.2803 68.0266 58.0559 70.968C59.8516 72.8711 61.1026 75.2218 61.5901 77.7927L62.7905 84.1228H77.2223Z" fill="white"/>
<path d="M67.419 84.1228C67.419 84.1228 67.419 72.9318 64.832 68.2921M72.7811 84.1228C72.7811 84.1228 72.7811 72.9318 75.3681 68.2921M66.1253 71.4277H74.1816M62.4427 61.7089V62.6252M67.6325 61.7089V62.6252M72.8224 61.7089V62.6252M78.0122 61.7089V62.6252" stroke="#11A2AA" stroke-width="2.38281" stroke-miterlimit="10" stroke-linecap="round" stroke-linejoin="round"/>
<path d="M77.2223 84.1228L78.4229 77.7927C78.9105 75.2218 80.1614 72.8711 81.9571 70.968C84.7328 68.0263 86.4344 64.0607 86.4344 59.6971C86.4344 50.6242 79.0794 43.2693 70.0065 43.2693C60.9339 43.2693 53.5787 50.6242 53.5787 59.6971C53.5787 64.0607 55.2803 68.0266 58.0559 70.968C59.8516 72.8711 61.1026 75.2218 61.5901 77.7927L62.7905 84.1228" stroke="#00EAFF" stroke-width="2.38281" stroke-miterlimit="10" stroke-linecap="round" stroke-linejoin="round"/>
<path d="M106.023 121.447H94.4097L93.0288 119.777L91.6698 121.447H48.3436L47.8433 120.129L45.6038 121.447H33.9909L36.9659 95.2247C37.5483 90.1196 41.3327 85.9606 46.3612 84.9052L57.8046 82.5044C58.7698 88.3751 63.864 91.7001 70.0081 91.7001C76.1522 91.7001 81.2464 88.3751 82.2089 82.5044L93.6522 84.9052C98.6807 85.9606 102.468 90.1196 103.045 95.2247L106.023 121.447Z" fill="#11A2AA"/>
<path d="M64.3119 103.31L60.819 107.171L64.3119 111.031M75.688 103.31L79.1809 107.171L75.688 111.031M68.5748 111.031L71.4251 103.31" stroke="white" stroke-width="2.38281" stroke-miterlimit="10" stroke-linecap="round" stroke-linejoin="round"/>
<path d="M70.0086 97.6395C79.271 97.6395 86.956 92.6418 88.4479 83.8134L82.208 82.5042C81.2458 88.3765 76.1511 91.7012 70.0078 91.7012C63.8645 91.7012 58.7698 88.3762 57.8045 82.5042L51.5647 83.8134C53.0612 92.6416 60.7462 97.6395 70.0086 97.6395Z" fill="#11A2AA"/>
<path d="M94.4097 121.447H91.6698L89.9335 99.4384C89.8761 98.6864 90.4366 98.0274 91.1886 97.97C91.3676 97.9558 91.5477 97.9769 91.7185 98.0323C91.8893 98.0877 92.0476 98.1762 92.1842 98.2927C92.3208 98.4093 92.4331 98.5516 92.5147 98.7116C92.5963 98.8716 92.6456 99.0461 92.6597 99.2251L94.4042 121.338C94.4069 121.374 94.4097 121.412 94.4097 121.447ZM50.08 99.4384L48.3437 121.447H45.6038C45.6038 121.412 45.6066 121.374 45.6093 121.338L47.3538 99.2251C47.414 98.4704 48.0702 97.9126 48.8249 97.97C49.0038 97.9838 49.1782 98.0328 49.3382 98.1141C49.4981 98.1954 49.6404 98.3075 49.757 98.4439C49.8736 98.5803 49.9621 98.7383 50.0175 98.9089C50.073 99.0796 50.0942 99.2595 50.08 99.4384Z" fill="#00EAFF"/>
<path d="M106.022 121.447L104.984 112.298M104.285 106.139L103.046 95.2255C102.468 90.119 98.681 85.9598 93.6519 84.9051L82.2083 82.5038C81.2461 88.3762 76.1514 91.7009 70.0081 91.7009C63.8648 91.7009 58.7701 88.3759 57.8048 82.5038L46.3612 84.9051C41.3321 85.9598 37.5483 90.119 36.9673 95.2255L33.9909 121.447M125.976 88.8071V101.975H109.312M120.709 59.7183H125.976V63.1494M125.976 93.7538H109.313M123.935 83.2178L128.018 84.5546M123.935 78.0985L128.018 79.4356M123.935 72.9794L128.018 74.3163M123.935 67.8601L128.018 69.1972M14.0365 88.8071V101.975H30.7006M19.304 59.7183H14.0365V63.1494M14.0365 93.7538H30.7001M16.0777 83.2178L11.9953 84.5546M16.0777 78.0985L11.9953 79.4356M16.0777 72.9794L11.9953 74.3163M16.0777 67.8601L11.9953 69.1972" stroke="#00EAFF" stroke-width="2.38281" stroke-miterlimit="10" stroke-linecap="round" stroke-linejoin="round"/>
<path d="M86.5744 46.6572L87.1669 44.8936M92.051 54.7195L90.2876 54.1273M89.668 49.9256L91.496 49.017M53.4255 46.6572L52.833 44.8936M47.9489 54.7195L49.7122 54.1273M50.3319 49.9256L48.5039 49.017" stroke="white" stroke-width="2.38281" stroke-miterlimit="10" stroke-linecap="round" stroke-linejoin="round"/>
<path d="M22.336 111.434C22.336 113.019 21.0506 114.305 19.4649 114.305C21.0506 114.305 22.336 115.59 22.336 117.176C22.336 115.59 23.6214 114.305 25.2071 114.305C23.6214 114.305 22.336 113.019 22.336 111.434ZM122.568 36.189C122.568 37.7746 121.282 39.0601 119.697 39.0601C121.282 39.0601 122.568 40.3455 122.568 41.9312C122.568 40.3455 123.853 39.0601 125.439 39.0601C123.853 39.0601 122.568 37.7746 122.568 36.189Z" stroke="#11A2AA" stroke-width="2.38281" stroke-miterlimit="10" stroke-linecap="round" stroke-linejoin="round"/>
<path d="M115.737 22.2885L118.608 25.1595L115.736 28.0305L112.865 25.1595L115.737 22.2885Z" stroke="#11A2AA" stroke-width="2.38281" stroke-miterlimit="10" stroke-linecap="round" stroke-linejoin="round"/>
<path d="M119.342 114.364L122.213 117.235L119.342 120.106L116.471 117.235L119.342 114.364Z" stroke="#11A2AA" stroke-width="2.38281" stroke-miterlimit="10" stroke-linecap="round" stroke-linejoin="round"/>
<path d="M22.2039 28.7712L25.0749 31.6423L22.2038 34.5133L19.3328 31.6422L22.2039 28.7712Z" stroke="#11A2AA" stroke-width="2.38281" stroke-miterlimit="10" stroke-linecap="round" stroke-linejoin="round"/>
</svg>
