<svg width="32" height="32" viewBox="0 0 32 32" fill="none" xmlns="http://www.w3.org/2000/svg">
<g clip-path="url(#clip0_246_17)">
<path fill-rule="evenodd" clip-rule="evenodd" d="M22.472 26.9302C23.3764 26.9302 24.1097 26.1953 24.1097 25.2914V10.8977C24.1097 10.4456 23.8501 9.81963 23.5302 9.4995L20.2207 6.18995C19.9005 5.86978 19.2714 5.61023 18.8238 5.61023H10.1688C9.26334 5.61023 8.5293 6.34427 8.5293 7.24792V25.2927C8.5293 26.1971 9.25992 26.9302 10.1673 26.9302L22.472 26.9302ZM22.4712 24.4671C22.4704 24.9219 22.1016 25.2904 21.6533 25.2904H10.9865C10.5355 25.2904 10.1702 24.9216 10.1707 24.4682L10.1846 8.07154C10.1851 7.6176 10.5547 7.24966 11.0094 7.24938L17.9561 7.24805C18.4111 7.24805 18.7801 7.61548 18.7801 8.06727V9.2991C18.7801 10.2054 19.5136 10.94 20.4192 10.94H21.6686C22.1236 10.94 22.4918 11.309 22.4913 11.763L22.4712 24.4671ZM19.3376 18.1105C19.6594 17.7888 19.662 17.2646 19.3432 16.9399L16.9039 14.4322C16.584 14.1061 16.0624 14.1048 15.7412 14.4292L13.2608 16.9369C12.9406 17.26 12.9406 17.7843 13.2608 18.1076C13.581 18.4307 14.1 18.4307 14.4205 18.1076L15.4998 17.0141V20.7389C15.4998 21.196 15.8667 21.5666 16.3196 21.5666C16.7725 21.5666 17.1396 21.196 17.1396 20.7389V17.0232L18.1779 18.1047C18.4964 18.4294 19.0158 18.432 19.3376 18.1105Z" fill="#00EAFF" stroke="#00EAFF" stroke-width="0.390625"/>
</g>
<defs>
<clipPath id="clip0_246_17">
<rect width="32" height="32" fill="white"/>
</clipPath>
</defs>
</svg>
