<svg width="32" height="32" viewBox="0 0 32 32" fill="none" xmlns="http://www.w3.org/2000/svg">
<path fill-rule="evenodd" clip-rule="evenodd" d="M18.5857 16.6359C18.3464 17.3674 17.8084 17.9633 17.105 18.2758C16.4017 18.5883 15.5989 18.5883 14.8956 18.2758C14.1922 17.9633 13.6542 17.3674 13.4149 16.6359C13.1641 15.5557 13.3635 14.42 13.967 13.4896C14.7031 12.996 15.2733 12.2917 15.6029 11.4691C16.1783 12.3684 16.4751 13.4178 16.4561 14.4855C16.4497 14.7779 16.5895 15.0541 16.829 15.2222C17.0684 15.3902 17.3757 15.4276 17.6485 15.3222C17.9914 15.1945 18.3076 15.0043 18.5815 14.7616C18.725 15.3779 18.7264 16.0189 18.5856 16.6359L18.5857 16.6359ZM18.3806 11.8999C18.1802 11.9535 18.0053 12.0767 17.8872 12.2472C17.4514 10.8547 16.6026 9.6276 15.4534 8.7286C15.2659 8.58325 15.0274 8.51997 14.7924 8.55287C14.5574 8.58594 14.3457 8.71266 14.2056 8.90401C14.0653 9.09535 14.0084 9.33537 14.0477 9.56951C14.2278 10.6449 13.8469 11.4563 12.8471 12.1258V12.1256C12.7565 12.1856 12.6784 12.2623 12.6168 12.3517C11.6507 13.723 11.3225 15.4443 11.7163 17.0748C11.72 17.0948 11.7255 17.1145 11.7329 17.1334C12.1161 18.353 13.0027 19.3507 14.1689 19.8744C15.3351 20.3982 16.6696 20.3982 17.8358 19.8744C19.0022 19.3507 19.8886 18.353 20.2718 17.1334C20.2758 17.1126 20.2843 17.0918 20.2884 17.0748H20.2885C20.686 15.3982 20.3354 13.6318 19.3273 12.2344C19.2221 12.0896 19.0754 11.98 18.9065 11.9202C18.7376 11.8605 18.5545 11.8534 18.3816 11.8999L18.3806 11.8999ZM18.7615 24.8941C18.7615 25.1271 18.669 25.3506 18.5043 25.5153C18.3395 25.6801 18.1161 25.7728 17.883 25.7728H14.1177C13.8038 25.7728 13.5136 25.6053 13.3566 25.3333C13.1997 25.0616 13.1997 24.7266 13.3566 24.4547C13.5136 24.1829 13.8038 24.0154 14.1177 24.0154H17.883C18.1161 24.0154 18.3395 24.1079 18.5043 24.2727C18.669 24.4375 18.7615 24.661 18.7615 24.8941ZM24.9533 20.409V8.40183C24.9524 8.17104 24.7656 7.98422 24.5348 7.98338H7.4655C7.23471 7.98422 7.0479 8.17104 7.04723 8.40183V20.409C7.04773 20.6398 7.23471 20.8268 7.4655 20.8275H24.5348C24.7656 20.8268 24.9526 20.6398 24.9533 20.409ZM24.5348 6.22632H7.4655C6.88861 6.22665 6.33538 6.45594 5.92752 6.86398C5.51966 7.27184 5.29038 7.82506 5.29004 8.40196V20.4091C5.29021 20.9862 5.51948 21.5394 5.92735 21.9475C6.33539 22.3555 6.88861 22.5848 7.4655 22.5851H24.5348C25.1119 22.5848 25.6651 22.3555 26.073 21.9475C26.481 21.5394 26.7101 20.9862 26.7103 20.4091V8.40196C26.7101 7.82506 26.4807 7.27183 26.0728 6.86398C25.665 6.45594 25.1117 6.22666 24.5348 6.22632Z" fill="#00EAFF"/>
<path fill-rule="evenodd" clip-rule="evenodd" d="M18.5857 16.6359C18.3464 17.3674 17.8084 17.9633 17.105 18.2758C16.4017 18.5883 15.5989 18.5883 14.8956 18.2758C14.1922 17.9633 13.6542 17.3674 13.4149 16.6359C13.1641 15.5557 13.3635 14.42 13.967 13.4896C14.7031 12.996 15.2733 12.2917 15.6029 11.4691C16.1783 12.3684 16.4751 13.4178 16.4561 14.4855C16.4497 14.7779 16.5895 15.0541 16.829 15.2222C17.0684 15.3902 17.3757 15.4276 17.6485 15.3222C17.9914 15.1945 18.3076 15.0043 18.5815 14.7616C18.725 15.3779 18.7264 16.0189 18.5856 16.6359L18.5857 16.6359ZM18.3806 11.8999C18.1802 11.9535 18.0053 12.0767 17.8872 12.2472C17.4514 10.8547 16.6026 9.6276 15.4534 8.7286C15.2659 8.58325 15.0274 8.51997 14.7924 8.55287C14.5574 8.58594 14.3457 8.71266 14.2056 8.90401C14.0653 9.09535 14.0084 9.33537 14.0477 9.56951C14.2278 10.6449 13.8469 11.4563 12.8471 12.1258V12.1256C12.7565 12.1856 12.6784 12.2623 12.6168 12.3517C11.6507 13.723 11.3225 15.4443 11.7163 17.0748C11.72 17.0948 11.7255 17.1145 11.7329 17.1334C12.1161 18.353 13.0027 19.3507 14.1689 19.8744C15.3351 20.3982 16.6696 20.3982 17.8358 19.8744C19.0022 19.3507 19.8886 18.353 20.2718 17.1334C20.2758 17.1126 20.2843 17.0918 20.2884 17.0748H20.2885C20.686 15.3982 20.3354 13.6318 19.3273 12.2344C19.2221 12.0896 19.0754 11.98 18.9065 11.9202C18.7376 11.8605 18.5545 11.8534 18.3816 11.8999L18.3806 11.8999ZM18.7615 24.8941C18.7615 25.1271 18.669 25.3506 18.5043 25.5153C18.3395 25.6801 18.1161 25.7728 17.883 25.7728H14.1177C13.8038 25.7728 13.5136 25.6053 13.3566 25.3333C13.1997 25.0616 13.1997 24.7266 13.3566 24.4547C13.5136 24.1829 13.8038 24.0154 14.1177 24.0154H17.883C18.1161 24.0154 18.3395 24.1079 18.5043 24.2727C18.669 24.4375 18.7615 24.661 18.7615 24.8941ZM24.9533 20.409V8.40183C24.9524 8.17104 24.7656 7.98422 24.5348 7.98338H7.4655C7.23471 7.98422 7.0479 8.17104 7.04723 8.40183V20.409C7.04773 20.6398 7.23471 20.8268 7.4655 20.8275H24.5348C24.7656 20.8268 24.9526 20.6398 24.9533 20.409ZM24.5348 6.22632H7.4655C6.88861 6.22665 6.33538 6.45594 5.92752 6.86398C5.51966 7.27184 5.29038 7.82506 5.29004 8.40196V20.4091C5.29021 20.9862 5.51948 21.5394 5.92735 21.9475C6.33539 22.3555 6.88861 22.5848 7.4655 22.5851H24.5348C25.1119 22.5848 25.6651 22.3555 26.073 21.9475C26.481 21.5394 26.7101 20.9862 26.7103 20.4091V8.40196C26.7101 7.82506 26.4807 7.27183 26.0728 6.86398C25.665 6.45594 25.1117 6.22666 24.5348 6.22632Z" fill="#00EAFF"/>
</svg>
