<svg width="32" height="32" viewBox="0 0 32 32" fill="none" xmlns="http://www.w3.org/2000/svg">
<path d="M16.749 14.3145V25.249L24.6924 22.2334V11.2979L16.749 14.3145ZM26.1504 22.8213C26.1503 23.1277 25.9609 23.4416 25.6582 23.5498L25.6572 23.5488L16.2393 27.1191L16.2139 27.1289H16.2129C16.2085 27.131 16.2035 27.1336 16.1982 27.1357C16.1838 27.1415 16.159 27.1503 16.1279 27.1504H16.0098C15.9245 27.1504 15.8258 27.1221 15.7627 27.0996L15.7607 27.0986L6.3418 23.5283V23.5293C6.04148 23.422 5.84961 23.1304 5.84961 22.7998V10.2002C5.84961 9.93174 5.99501 9.65726 6.23438 9.52051L6.3418 9.4707L15.7607 5.90137C16.1569 5.74437 16.5738 5.95878 16.6992 6.36719H16.7002C16.8465 6.75856 16.6513 7.20112 16.2617 7.35742L16.2588 7.3584L7.32715 10.7441V22.2549L15.2715 25.291V13.7695L15.2803 13.6484C15.3151 13.4094 15.4513 13.2022 15.6553 13.0889L15.7627 13.041L23.2422 10.1992L20.6807 9.22559L12.2344 12.4238V14.1895C12.2344 14.6196 11.921 14.9697 11.4951 14.9697C11.0695 14.9695 10.7568 14.6194 10.7568 14.1895V11.8799C10.7568 11.5741 10.9446 11.2604 11.2461 11.1514L20.4316 7.68652C20.6025 7.61189 20.7834 7.63507 20.916 7.67676H20.9443L20.9697 7.68652L25.6807 9.47168H25.6797C25.9365 9.55742 26.101 9.79791 26.1475 10.0459L26.1504 10.0596V22.8213Z" fill="#00EAFF" stroke="#00EAFF" stroke-width="0.3"/>
</svg>
