<svg width="32" height="32" viewBox="0 0 32 32" fill="none" xmlns="http://www.w3.org/2000/svg">
<path fill-rule="evenodd" clip-rule="evenodd" d="M14.8926 15.631V16.7379C14.8926 17.1294 15.048 17.5047 15.3249 17.7816C15.6016 18.0585 15.9771 18.2139 16.3686 18.2139H17.8446C18.6598 18.2139 19.3206 17.5531 19.3206 16.7379V11.5718C19.3206 10.7566 18.6598 10.0958 17.8446 10.0958H16.3686C15.9771 10.0958 15.6018 10.2513 15.3249 10.5281C15.048 10.805 14.8926 11.1804 14.8926 11.5719V12.6787C14.8926 12.8823 15.0579 13.0479 15.2615 13.0479C15.4652 13.0479 15.6305 12.8825 15.6305 12.6787V11.5719C15.6305 11.3761 15.7083 11.1884 15.8466 11.05C15.9852 10.9116 16.1727 10.8338 16.3684 10.8338H17.8444C18.252 10.8338 18.5823 11.1643 18.5823 11.5718V16.7379C18.5823 17.1455 18.2518 17.476 17.8444 17.476H16.3684C16.1727 17.476 15.985 17.3982 15.8466 17.2598C15.7081 17.1215 15.6305 16.9337 15.6305 16.7379V15.6311C15.6305 15.4274 15.4652 15.2619 15.2615 15.2619C15.0579 15.2619 14.8926 15.4272 14.8926 15.631Z" fill="#00EAFF"/>
<path fill-rule="evenodd" clip-rule="evenodd" d="M20.4276 11.941C20.5255 11.941 20.6194 11.9799 20.6885 12.0491C20.7577 12.1183 20.7967 12.212 20.7967 12.31C20.7967 12.5138 20.6313 12.679 20.4276 12.679C20.2238 12.679 20.0586 12.5138 20.0586 12.31C20.0586 12.212 20.0976 12.1183 20.1666 12.0491C20.2358 11.9799 20.3298 11.941 20.4276 11.941Z" fill="#00EAFF"/>
<path fill-rule="evenodd" clip-rule="evenodd" d="M24.4869 18.9521C24.4869 18.8543 24.4481 18.7604 24.3789 18.6912C24.3097 18.6219 24.2158 18.5831 24.118 18.5831C23.9142 18.5831 23.749 18.7483 23.749 18.9521C23.749 19.1559 23.9142 19.321 24.118 19.321C24.2158 19.321 24.3097 19.2822 24.3789 19.213C24.4481 19.1438 24.4869 19.05 24.4869 18.9521Z" fill="#00EAFF"/>
<path fill-rule="evenodd" clip-rule="evenodd" d="M23.0114 18.9521C23.0114 18.8543 22.9725 18.7604 22.9033 18.6912C22.8341 18.6219 22.7402 18.5831 22.6424 18.5831C22.4386 18.5831 22.2734 18.7483 22.2734 18.9521C22.2734 19.1559 22.4386 19.321 22.6424 19.321C22.7402 19.321 22.8341 19.2822 22.9033 19.213C22.9725 19.1438 23.0114 19.05 23.0114 18.9521Z" fill="#00EAFF"/>
<path fill-rule="evenodd" clip-rule="evenodd" d="M21.7195 18.9521C21.7195 18.8543 21.6805 18.7604 21.6115 18.6912C21.5423 18.6219 21.4484 18.5831 21.3506 18.5831C21.1468 18.5831 20.9814 18.7483 20.9814 18.9521C20.9814 19.1559 21.1468 19.321 21.3506 19.321C21.4484 19.321 21.5423 19.2822 21.6115 19.213C21.6805 19.1438 21.7195 19.05 21.7195 18.9521Z" fill="#00EAFF"/>
<path fill-rule="evenodd" clip-rule="evenodd" d="M20.7965 15.2622V13.7862C20.7965 13.5826 20.6312 13.4172 20.4276 13.4172C20.2239 13.4172 20.0586 13.5826 20.0586 13.7862V15.2622C20.0586 15.4658 20.2239 15.6312 20.4276 15.6312C20.6312 15.6312 20.7965 15.4658 20.7965 15.2622Z" fill="#00EAFF"/>
<path fill-rule="evenodd" clip-rule="evenodd" d="M17.1067 16.3688V15.2618C17.1067 14.8703 16.9513 14.495 16.6744 14.2181C16.3978 13.9412 16.0222 13.7858 15.6307 13.7858H14.1547C13.3395 13.7858 12.6787 14.4468 12.6787 15.2618V20.4279C12.6787 21.2431 13.3396 21.9039 14.1547 21.9039H15.6307C16.0222 21.9039 16.3975 21.7484 16.6744 21.4715C16.9513 21.1947 17.1067 20.8193 17.1067 20.4278V19.321C17.1067 19.1174 16.9414 18.9518 16.7378 18.9518C16.5342 18.9518 16.3688 19.1172 16.3688 19.321V20.4278C16.3688 20.6236 16.291 20.8112 16.1528 20.9499C16.0142 21.0881 15.8267 21.1659 15.6309 21.1659H14.1549C13.7473 21.1659 13.417 20.8354 13.417 20.4278V15.2618C13.417 14.8542 13.7475 14.5237 14.1549 14.5237H15.6309C15.8266 14.5237 16.0143 14.6015 16.1528 14.7399C16.2912 14.8781 16.3688 15.066 16.3688 15.2618V16.3686C16.3688 16.5722 16.5342 16.7378 16.7378 16.7378C16.9414 16.7378 17.1067 16.5724 17.1067 16.3686V16.3688Z" fill="#00EAFF"/>
<path fill-rule="evenodd" clip-rule="evenodd" d="M25.2255 20.0588V18.2145C25.2255 18.1168 25.1867 18.023 25.1175 17.9536C25.0484 17.8846 24.9543 17.8456 24.8565 17.8456H20.4285C20.2249 17.8456 20.0595 17.6802 20.0595 17.4766C20.0595 17.273 20.2249 17.1077 20.4285 17.1077H24.8565C25.1502 17.1077 25.4318 17.2243 25.6391 17.4319C25.847 17.6394 25.9634 17.9212 25.9634 18.2145V25.5941C25.9634 25.8878 25.8468 26.1694 25.6391 26.3766C25.4317 26.5845 25.1502 26.7009 24.8565 26.7009H16.0014C15.7077 26.7009 15.4261 26.5843 15.2188 26.3766C15.011 26.1692 14.8945 25.8877 14.8945 25.5941V23.011C14.8945 22.8074 15.0599 22.6421 15.2635 22.6421C15.4671 22.6421 15.6324 22.8074 15.6324 23.011V25.5941C15.6324 25.6918 15.6713 25.786 15.7405 25.855C15.8095 25.9244 15.9036 25.963 16.0014 25.963H24.8566C24.9543 25.963 25.0485 25.9242 25.1175 25.855C25.1869 25.786 25.2255 25.6918 25.2255 25.5941V20.7969L18.2144 20.7967C18.0108 20.7967 17.8455 20.6313 17.8455 20.4277C17.8455 20.2241 18.0108 20.0588 18.2144 20.0588L25.2255 20.0588Z" fill="#00EAFF"/>
<path fill-rule="evenodd" clip-rule="evenodd" d="M6.77519 8.98885V13.786C6.77519 13.8838 6.81401 13.9779 6.88323 14.047C6.95226 14.1164 7.04638 14.155 7.14415 14.155H11.9413C12.145 14.155 12.3103 14.3203 12.3103 14.524C12.3103 14.7276 12.145 14.8929 11.9413 14.8929H7.14415C6.85045 14.8929 6.56885 14.7763 6.36157 14.5686C6.15375 14.3614 6.03711 14.0797 6.03711 13.7861V6.40605C6.03711 6.11235 6.15375 5.83076 6.36139 5.62348C6.56885 5.41565 6.8503 5.29919 7.14397 5.29919H15.9991C16.2928 5.29919 16.5744 5.41583 16.7817 5.62348C16.9895 5.83093 17.106 6.11238 17.106 6.40605V8.9891C17.106 9.19272 16.9406 9.35806 16.737 9.35806C16.5334 9.35806 16.3681 9.19272 16.3681 8.9891L6.77519 8.98885ZM16.3686 8.25095V6.40599C16.3686 6.30822 16.3298 6.2141 16.2606 6.14507C16.1916 6.07567 16.0974 6.03703 15.9997 6.03703H7.14452C7.04674 6.03703 6.95262 6.07585 6.88359 6.14507C6.81419 6.21392 6.77556 6.30803 6.77556 6.40581V8.25076L16.3686 8.25095Z" fill="#00EAFF"/>
<path fill-rule="evenodd" clip-rule="evenodd" d="M15.6305 7.1438C15.6305 7.24158 15.5917 7.33551 15.5225 7.40472C15.4532 7.47376 15.3595 7.51276 15.2615 7.51276C15.0577 7.51276 14.8926 7.3476 14.8926 7.1438C14.8926 6.94 15.0577 6.77466 15.2615 6.77466C15.3595 6.77466 15.4532 6.81366 15.5225 6.88287C15.5917 6.95191 15.6305 7.04584 15.6305 7.1438Z" fill="#00EAFF"/>
<path fill-rule="evenodd" clip-rule="evenodd" d="M14.1549 7.1438C14.1549 7.24158 14.1161 7.33551 14.0469 7.40472C13.9777 7.47376 13.8839 7.51276 13.7859 7.51276C13.5822 7.51276 13.417 7.3476 13.417 7.1438C13.417 6.94 13.5822 6.77466 13.7859 6.77466C13.8839 6.77466 13.9777 6.81366 14.0469 6.88287C14.1161 6.95191 14.1549 7.04584 14.1549 7.1438Z" fill="#00EAFF"/>
<path fill-rule="evenodd" clip-rule="evenodd" d="M12.6793 7.1438C12.6793 7.24158 12.6405 7.33551 12.5713 7.40472C12.5021 7.47376 12.4083 7.51276 12.3104 7.51276C12.1066 7.51276 11.9414 7.3476 11.9414 7.1438C11.9414 6.94 12.1066 6.77466 12.3104 6.77466C12.4083 6.77466 12.5021 6.81366 12.5713 6.88287C12.6405 6.95191 12.6793 7.04584 12.6793 7.1438Z" fill="#00EAFF"/>
<path fill-rule="evenodd" clip-rule="evenodd" d="M14.8926 15.631V16.7379C14.8926 17.1294 15.048 17.5047 15.3249 17.7816C15.6016 18.0585 15.9771 18.2139 16.3686 18.2139H17.8446C18.6598 18.2139 19.3206 17.5531 19.3206 16.7379V11.5718C19.3206 10.7566 18.6598 10.0958 17.8446 10.0958H16.3686C15.9771 10.0958 15.6018 10.2513 15.3249 10.5281C15.048 10.805 14.8926 11.1804 14.8926 11.5719V12.6787C14.8926 12.8823 15.0579 13.0479 15.2615 13.0479C15.4652 13.0479 15.6305 12.8825 15.6305 12.6787V11.5719C15.6305 11.3761 15.7083 11.1884 15.8466 11.05C15.9852 10.9116 16.1727 10.8338 16.3684 10.8338H17.8444C18.252 10.8338 18.5823 11.1643 18.5823 11.5718V16.7379C18.5823 17.1455 18.2518 17.476 17.8444 17.476H16.3684C16.1727 17.476 15.985 17.3982 15.8466 17.2598C15.7081 17.1215 15.6305 16.9337 15.6305 16.7379V15.6311C15.6305 15.4274 15.4652 15.2619 15.2615 15.2619C15.0579 15.2619 14.8926 15.4272 14.8926 15.631Z" fill="#00EAFF" stroke="#00EAFF" stroke-width="0.390625"/>
<path fill-rule="evenodd" clip-rule="evenodd" d="M20.4276 11.941C20.5255 11.941 20.6194 11.9799 20.6885 12.0491C20.7577 12.1183 20.7967 12.212 20.7967 12.31C20.7967 12.5138 20.6313 12.679 20.4276 12.679C20.2238 12.679 20.0586 12.5138 20.0586 12.31C20.0586 12.212 20.0976 12.1183 20.1666 12.0491C20.2358 11.9799 20.3298 11.941 20.4276 11.941Z" fill="#00EAFF" stroke="#00EAFF" stroke-width="0.390625"/>
<path fill-rule="evenodd" clip-rule="evenodd" d="M24.4869 18.9521C24.4869 18.8543 24.4481 18.7604 24.3789 18.6912C24.3097 18.6219 24.2158 18.5831 24.118 18.5831C23.9142 18.5831 23.749 18.7483 23.749 18.9521C23.749 19.1559 23.9142 19.321 24.118 19.321C24.2158 19.321 24.3097 19.2822 24.3789 19.213C24.4481 19.1438 24.4869 19.05 24.4869 18.9521Z" fill="#00EAFF" stroke="#00EAFF" stroke-width="0.390625"/>
<path fill-rule="evenodd" clip-rule="evenodd" d="M23.0114 18.9521C23.0114 18.8543 22.9725 18.7604 22.9033 18.6912C22.8341 18.6219 22.7402 18.5831 22.6424 18.5831C22.4386 18.5831 22.2734 18.7483 22.2734 18.9521C22.2734 19.1559 22.4386 19.321 22.6424 19.321C22.7402 19.321 22.8341 19.2822 22.9033 19.213C22.9725 19.1438 23.0114 19.05 23.0114 18.9521Z" fill="#00EAFF" stroke="#00EAFF" stroke-width="0.390625"/>
<path fill-rule="evenodd" clip-rule="evenodd" d="M21.7195 18.9521C21.7195 18.8543 21.6805 18.7604 21.6115 18.6912C21.5423 18.6219 21.4484 18.5831 21.3506 18.5831C21.1468 18.5831 20.9814 18.7483 20.9814 18.9521C20.9814 19.1559 21.1468 19.321 21.3506 19.321C21.4484 19.321 21.5423 19.2822 21.6115 19.213C21.6805 19.1438 21.7195 19.05 21.7195 18.9521Z" fill="#00EAFF" stroke="#00EAFF" stroke-width="0.390625"/>
<path fill-rule="evenodd" clip-rule="evenodd" d="M20.7965 15.2622V13.7862C20.7965 13.5826 20.6312 13.4172 20.4276 13.4172C20.2239 13.4172 20.0586 13.5826 20.0586 13.7862V15.2622C20.0586 15.4658 20.2239 15.6312 20.4276 15.6312C20.6312 15.6312 20.7965 15.4658 20.7965 15.2622Z" fill="#00EAFF" stroke="#00EAFF" stroke-width="0.390625"/>
<path fill-rule="evenodd" clip-rule="evenodd" d="M17.1067 16.3688V15.2618C17.1067 14.8703 16.9513 14.495 16.6744 14.2181C16.3978 13.9412 16.0222 13.7858 15.6307 13.7858H14.1547C13.3395 13.7858 12.6787 14.4468 12.6787 15.2618V20.4279C12.6787 21.2431 13.3396 21.9039 14.1547 21.9039H15.6307C16.0222 21.9039 16.3975 21.7484 16.6744 21.4715C16.9513 21.1947 17.1067 20.8193 17.1067 20.4278V19.321C17.1067 19.1174 16.9414 18.9518 16.7378 18.9518C16.5342 18.9518 16.3688 19.1172 16.3688 19.321V20.4278C16.3688 20.6236 16.291 20.8112 16.1528 20.9499C16.0142 21.0881 15.8267 21.1659 15.6309 21.1659H14.1549C13.7473 21.1659 13.417 20.8354 13.417 20.4278V15.2618C13.417 14.8542 13.7475 14.5237 14.1549 14.5237H15.6309C15.8266 14.5237 16.0143 14.6015 16.1528 14.7399C16.2912 14.8781 16.3688 15.066 16.3688 15.2618V16.3686C16.3688 16.5722 16.5342 16.7378 16.7378 16.7378C16.9414 16.7378 17.1067 16.5724 17.1067 16.3686V16.3688Z" fill="#00EAFF" stroke="#00EAFF" stroke-width="0.390625"/>
<path fill-rule="evenodd" clip-rule="evenodd" d="M25.2255 20.0588V18.2145C25.2255 18.1168 25.1867 18.023 25.1175 17.9536C25.0484 17.8846 24.9543 17.8456 24.8565 17.8456H20.4285C20.2249 17.8456 20.0595 17.6802 20.0595 17.4766C20.0595 17.273 20.2249 17.1077 20.4285 17.1077H24.8565C25.1502 17.1077 25.4318 17.2243 25.6391 17.4319C25.847 17.6394 25.9634 17.9212 25.9634 18.2145V25.5941C25.9634 25.8878 25.8468 26.1694 25.6391 26.3766C25.4317 26.5845 25.1502 26.7009 24.8565 26.7009H16.0014C15.7077 26.7009 15.4261 26.5843 15.2188 26.3766C15.011 26.1692 14.8945 25.8877 14.8945 25.5941V23.011C14.8945 22.8074 15.0599 22.6421 15.2635 22.6421C15.4671 22.6421 15.6324 22.8074 15.6324 23.011V25.5941C15.6324 25.6918 15.6713 25.786 15.7405 25.855C15.8095 25.9244 15.9036 25.963 16.0014 25.963H24.8566C24.9543 25.963 25.0485 25.9242 25.1175 25.855C25.1869 25.786 25.2255 25.6918 25.2255 25.5941V20.7969L18.2144 20.7967C18.0108 20.7967 17.8455 20.6313 17.8455 20.4277C17.8455 20.2241 18.0108 20.0588 18.2144 20.0588L25.2255 20.0588Z" fill="#00EAFF" stroke="#00EAFF" stroke-width="0.390625"/>
<path fill-rule="evenodd" clip-rule="evenodd" d="M6.77519 8.98885V13.786C6.77519 13.8838 6.81401 13.9779 6.88323 14.047C6.95226 14.1164 7.04638 14.155 7.14415 14.155H11.9413C12.145 14.155 12.3103 14.3203 12.3103 14.524C12.3103 14.7276 12.145 14.8929 11.9413 14.8929H7.14415C6.85045 14.8929 6.56885 14.7763 6.36157 14.5686C6.15375 14.3614 6.03711 14.0797 6.03711 13.7861V6.40605C6.03711 6.11235 6.15375 5.83076 6.36139 5.62348C6.56885 5.41565 6.8503 5.29919 7.14397 5.29919H15.9991C16.2928 5.29919 16.5744 5.41583 16.7817 5.62348C16.9895 5.83093 17.106 6.11238 17.106 6.40605V8.9891C17.106 9.19272 16.9406 9.35806 16.737 9.35806C16.5334 9.35806 16.3681 9.19272 16.3681 8.9891L6.77519 8.98885ZM16.3686 8.25095V6.40599C16.3686 6.30822 16.3298 6.2141 16.2606 6.14507C16.1916 6.07567 16.0974 6.03703 15.9997 6.03703H7.14452C7.04674 6.03703 6.95262 6.07585 6.88359 6.14507C6.81419 6.21392 6.77556 6.30803 6.77556 6.40581V8.25076L16.3686 8.25095Z" fill="#00EAFF" stroke="#00EAFF" stroke-width="0.390625"/>
<path fill-rule="evenodd" clip-rule="evenodd" d="M15.6305 7.1438C15.6305 7.24158 15.5917 7.33551 15.5225 7.40472C15.4532 7.47376 15.3595 7.51276 15.2615 7.51276C15.0577 7.51276 14.8926 7.3476 14.8926 7.1438C14.8926 6.94 15.0577 6.77466 15.2615 6.77466C15.3595 6.77466 15.4532 6.81366 15.5225 6.88287C15.5917 6.95191 15.6305 7.04584 15.6305 7.1438Z" fill="#00EAFF" stroke="#00EAFF" stroke-width="0.390625"/>
<path fill-rule="evenodd" clip-rule="evenodd" d="M14.1549 7.1438C14.1549 7.24158 14.1161 7.33551 14.0469 7.40472C13.9777 7.47376 13.8839 7.51276 13.7859 7.51276C13.5822 7.51276 13.417 7.3476 13.417 7.1438C13.417 6.94 13.5822 6.77466 13.7859 6.77466C13.8839 6.77466 13.9777 6.81366 14.0469 6.88287C14.1161 6.95191 14.1549 7.04584 14.1549 7.1438Z" fill="#00EAFF" stroke="#00EAFF" stroke-width="0.390625"/>
<path fill-rule="evenodd" clip-rule="evenodd" d="M12.6793 7.1438C12.6793 7.24158 12.6405 7.33551 12.5713 7.40472C12.5021 7.47376 12.4083 7.51276 12.3104 7.51276C12.1066 7.51276 11.9414 7.3476 11.9414 7.1438C11.9414 6.94 12.1066 6.77466 12.3104 6.77466C12.4083 6.77466 12.5021 6.81366 12.5713 6.88287C12.6405 6.95191 12.6793 7.04584 12.6793 7.1438Z" fill="#00EAFF" stroke="#00EAFF" stroke-width="0.390625"/>
</svg>
