<svg width="32" height="32" viewBox="0 0 32 32" fill="none" xmlns="http://www.w3.org/2000/svg">
<g clip-path="url(#clip0_232_22)">
<path d="M21.0839 9.3009H10.9158C10.4877 9.30143 10.0774 9.47166 9.77462 9.77427C9.47188 10.0769 9.30148 10.4872 9.30078 10.9152V21.084C9.30131 21.5121 9.47165 21.9225 9.77443 22.2252C10.0772 22.5278 10.4877 22.698 10.9158 22.6984H21.0839C21.512 22.698 21.9225 22.5278 22.2253 22.2252C22.528 21.9225 22.6984 21.5121 22.6989 21.084V10.9152C22.6982 10.4872 22.5278 10.0769 22.2251 9.77427C21.9223 9.47166 21.512 9.30143 21.0839 9.3009ZM21.8104 21.084C21.8093 21.2764 21.7325 21.4606 21.5965 21.5966C21.4604 21.7326 21.2763 21.8095 21.0839 21.8105H10.9158C10.7234 21.8095 10.5393 21.7326 10.4032 21.5966C10.2672 21.4606 10.1903 21.2764 10.1893 21.084V10.9152C10.1903 10.7229 10.2672 10.5387 10.4032 10.4027C10.5393 10.2667 10.7234 10.1898 10.9158 10.1888H21.0839C21.2763 10.1898 21.4604 10.2667 21.5965 10.4027C21.7325 10.5387 21.8093 10.7229 21.8104 10.9152V21.084Z" fill="#00EAFF"/>
<path d="M16.2744 17.4151C16.2906 17.4027 16.3053 17.3884 16.3182 17.3726C16.3841 17.2998 16.4207 17.2052 16.4211 17.107C16.4207 17.0136 16.3918 16.9225 16.3381 16.846C16.2788 16.7597 16.1896 16.6984 16.0878 16.674L16.0698 16.67L15.605 15.2463C15.4987 14.9302 15.4044 14.6424 15.3221 14.383C15.2336 14.1174 15.1494 13.8892 15.0698 13.6983C15.0007 13.5299 14.9103 13.371 14.8008 13.2255C14.6481 13.0343 14.486 12.9938 14.3765 12.9938C14.2224 12.9938 14.081 13.0728 13.9548 13.2282C13.8437 13.3756 13.7509 13.5359 13.6785 13.7056C13.5922 13.8965 13.5037 14.122 13.4129 14.3823C13.3222 14.6426 13.229 14.9227 13.1334 15.2224L12.0762 18.5008C12.0693 18.5341 12.0657 18.5679 12.0655 18.6018C12.0641 18.6602 12.0764 18.7182 12.1013 18.7711C12.1262 18.824 12.163 18.8704 12.209 18.9066C12.2852 18.9649 12.3786 18.9962 12.4746 18.9956C12.5928 18.9956 12.7648 18.9517 12.9129 18.7432C12.9274 18.7232 12.9382 18.7007 12.9448 18.6768L13.306 17.4988H15.3892L15.7 18.7226C15.735 18.8003 15.7922 18.8658 15.8644 18.911C15.9366 18.9561 16.0206 18.9789 16.1057 18.9763C16.3713 18.9763 16.5486 18.8176 16.5705 18.5633C16.5731 18.5369 16.5707 18.5103 16.5632 18.4849L16.2744 17.4151ZM14.5319 14.9581C14.6036 15.1644 14.6769 15.3791 14.7517 15.6022L14.9728 16.2723C15.0107 16.3871 15.0459 16.4987 15.0797 16.6043H13.6095L14.3466 14.4228C14.4024 14.5862 14.4628 14.7642 14.5319 14.9594V14.9581Z" fill="#00EAFF"/>
<path d="M18.8484 17.0293C18.8595 16.7291 18.8703 16.4115 18.8809 16.0763L18.9341 14.2747C18.9372 14.1379 18.9398 14.0191 18.942 13.9181L19.0496 13.9221C19.2096 13.9281 19.3498 13.9361 19.4686 13.9447C19.7103 13.9566 19.8996 13.8165 19.9335 13.5297C19.935 13.4222 19.898 13.3178 19.829 13.2354C19.76 13.153 19.6637 13.0981 19.5576 13.0807C19.4912 13.0714 19.3916 13.0608 19.2535 13.0495C19.201 13.0449 19.0416 13.0316 17.7414 13.0648C17.2825 13.0529 16.8449 13.0847 16.7666 13.3968C16.7002 13.6718 16.7931 13.8079 16.8854 13.873C16.9842 13.9427 17.1057 13.9721 17.2254 13.9553C17.3008 13.9461 17.3766 13.9413 17.4525 13.9407L17.8995 13.9341H18.0595C18.0595 13.9739 18.0595 14.0171 18.0595 14.0669C18.0595 14.2196 18.0551 14.3967 18.0462 14.5981L17.9798 16.4701C17.9572 17.0299 17.9426 17.443 17.934 17.7066C17.9287 17.8607 17.924 17.9955 17.9187 18.1104C17.5251 18.1037 17.2715 18.1004 17.1577 18.1004C17.0695 18.1005 16.9828 18.1234 16.906 18.1668C16.823 18.2126 16.7241 18.3129 16.7241 18.5201C16.7187 18.6363 16.7586 18.8481 17.08 18.9584C17.1014 18.9655 17.1238 18.9696 17.1464 18.9703L19.4753 19.0102C19.5297 19.013 19.5841 19.005 19.6354 18.9867C19.6867 18.9684 19.7339 18.9401 19.7741 18.9034C19.8144 18.8667 19.847 18.8224 19.87 18.773C19.893 18.7236 19.906 18.6701 19.9082 18.6157C19.9156 18.5575 19.9109 18.4984 19.8944 18.4421C19.878 18.3858 19.8501 18.3334 19.8126 18.2883C19.7654 18.2389 19.7085 18.1998 19.6454 18.1736C19.5823 18.1475 19.5144 18.1347 19.4461 18.1363L18.7953 18.127C18.8032 18.042 18.8099 17.9443 18.8152 17.8341C18.8265 17.597 18.8378 17.3281 18.8484 17.0293Z" fill="#00EAFF"/>
<path d="M27.5708 14.5443C27.6886 14.5443 27.8016 14.4975 27.8849 14.4142C27.9683 14.3309 28.0151 14.2179 28.0151 14.1001C28.0151 13.9822 27.9683 13.8692 27.8849 13.7859C27.8016 13.7026 27.6886 13.6558 27.5708 13.6558H24.9033V10.7452H27.5708C27.6291 10.7452 27.6869 10.7337 27.7408 10.7114C27.7947 10.6891 27.8437 10.6564 27.8849 10.6151C27.9262 10.5739 27.9589 10.5249 27.9812 10.471C28.0036 10.4171 28.0151 10.3593 28.0151 10.301C28.0151 10.2426 28.0036 10.1849 27.9812 10.131C27.9589 10.0771 27.9262 10.0281 27.8849 9.98683C27.8437 9.94558 27.7947 9.91285 27.7408 9.89053C27.6869 9.8682 27.6291 9.85671 27.5708 9.85671H24.8661C24.7839 9.1631 24.4706 8.51735 23.9767 8.02346C23.4828 7.52957 22.837 7.21628 22.1434 7.13405V4.42933C22.1434 4.3115 22.0966 4.1985 22.0133 4.11519C21.93 4.03187 21.817 3.98507 21.6992 3.98507C21.5813 3.98507 21.4683 4.03187 21.385 4.11519C21.3017 4.1985 21.2549 4.3115 21.2549 4.42933V7.09554H18.343V4.42933C18.3453 4.36958 18.3355 4.30999 18.3143 4.25411C18.293 4.19824 18.2607 4.14723 18.2192 4.10415C18.1778 4.06106 18.128 4.02679 18.073 4.00337C18.018 3.97996 17.9589 3.9679 17.8991 3.9679C17.8393 3.9679 17.7801 3.97996 17.7251 4.00337C17.6701 4.02679 17.6204 4.06106 17.5789 4.10415C17.5375 4.14723 17.5051 4.19824 17.4839 4.25411C17.4626 4.30999 17.4528 4.36958 17.4551 4.42933V7.09554H14.5439V4.42933C14.5462 4.36958 14.5364 4.30999 14.5152 4.25411C14.4939 4.19824 14.4616 4.14723 14.4201 4.10415C14.3787 4.06106 14.3289 4.02679 14.2739 4.00337C14.2189 3.97996 14.1598 3.9679 14.1 3.9679C14.0402 3.9679 13.981 3.97996 13.926 4.00337C13.871 4.02679 13.8213 4.06106 13.7798 4.10415C13.7384 4.14723 13.706 4.19824 13.6848 4.25411C13.6635 4.30999 13.6537 4.36958 13.656 4.42933V7.09554H10.7448V4.42933C10.7448 4.37099 10.7333 4.31322 10.711 4.25932C10.6886 4.20542 10.6559 4.15644 10.6147 4.11519C10.5734 4.07394 10.5244 4.04121 10.4705 4.01889C10.4166 3.99656 10.3589 3.98507 10.3005 3.98507C10.2422 3.98507 10.1844 3.99656 10.1305 4.01889C10.0766 4.04121 10.0276 4.07394 9.9864 4.11519C9.94514 4.15644 9.91242 4.20542 9.89009 4.25932C9.86777 4.31322 9.85628 4.37099 9.85628 4.42933V7.13272C9.16266 7.21495 8.51691 7.52824 8.02302 8.02213C7.52913 8.51602 7.21585 9.16177 7.13362 9.85538H4.42823C4.3104 9.85538 4.1974 9.90219 4.11409 9.9855C4.03078 10.0688 3.98397 10.1818 3.98397 10.2996C3.98397 10.4175 4.03078 10.5305 4.11409 10.6138C4.1974 10.6971 4.3104 10.7439 4.42823 10.7439H7.09577V13.6558H4.42823C4.3104 13.6558 4.1974 13.7026 4.11409 13.7859C4.03078 13.8692 3.98397 13.9822 3.98397 14.1001C3.98397 14.2179 4.03078 14.3309 4.11409 14.4142C4.1974 14.4975 4.3104 14.5443 4.42823 14.5443H7.09577V17.4549H4.42823C4.3104 17.4549 4.1974 17.5017 4.11409 17.585C4.03078 17.6683 3.98397 17.7813 3.98397 17.8992C3.98397 18.017 4.03078 18.13 4.11409 18.2133C4.1974 18.2966 4.3104 18.3434 4.42823 18.3434H7.09577V21.2547H4.42823C4.36849 21.2524 4.30889 21.2621 4.25302 21.2834C4.19714 21.3047 4.14613 21.337 4.10305 21.3785C4.05996 21.4199 4.02569 21.4696 4.00228 21.5246C3.97886 21.5796 3.9668 21.6388 3.9668 21.6986C3.9668 21.7584 3.97886 21.8176 4.00228 21.8726C4.02569 21.9276 4.05996 21.9773 4.10305 22.0188C4.14613 22.0602 4.19714 22.0925 4.25302 22.1138C4.30889 22.1351 4.36849 22.1448 4.42823 22.1425H7.13295C7.21507 22.8362 7.52832 23.482 8.02223 23.9759C8.51614 24.4698 9.16196 24.7831 9.85561 24.8652V27.5693C9.85561 27.6871 9.90242 27.8001 9.98573 27.8834C10.069 27.9667 10.182 28.0135 10.2999 28.0135C10.4177 28.0135 10.5307 27.9667 10.614 27.8834C10.6973 27.8001 10.7441 27.6871 10.7441 27.5693V24.9037H13.6554V27.5706C13.6531 27.6303 13.6628 27.6899 13.6841 27.7458C13.7054 27.8017 13.7377 27.8527 13.7792 27.8958C13.8206 27.9388 13.8703 27.9731 13.9253 27.9965C13.9803 28.0199 14.0395 28.032 14.0993 28.032C14.1591 28.032 14.2183 28.0199 14.2733 27.9965C14.3283 27.9731 14.378 27.9388 14.4195 27.8958C14.4609 27.8527 14.4932 27.8017 14.5145 27.7458C14.5358 27.6899 14.5455 27.6303 14.5432 27.5706V24.9037H17.4545V27.5706C17.4522 27.6303 17.4619 27.6899 17.4832 27.7458C17.5045 27.8017 17.5368 27.8527 17.5783 27.8958C17.6197 27.9388 17.6694 27.9731 17.7244 27.9965C17.7794 28.0199 17.8386 28.032 17.8984 28.032C17.9582 28.032 18.0174 28.0199 18.0724 27.9965C18.1274 27.9731 18.1771 27.9388 18.2186 27.8958C18.26 27.8527 18.2923 27.8017 18.3136 27.7458C18.3349 27.6899 18.3446 27.6303 18.3423 27.5706V24.9037H21.2536V27.5706C21.2536 27.6289 21.2651 27.6867 21.2874 27.7406C21.3097 27.7945 21.3424 27.8435 21.3837 27.8847C21.425 27.926 21.4739 27.9587 21.5278 27.981C21.5817 28.0033 21.6395 28.0148 21.6978 28.0148C21.7562 28.0148 21.8139 28.0033 21.8678 27.981C21.9217 27.9587 21.9707 27.926 22.012 27.8847C22.0532 27.8435 22.086 27.7945 22.1083 27.7406C22.1306 27.6867 22.1421 27.6289 22.1421 27.5706V24.8665C22.8358 24.7844 23.4816 24.4712 23.9755 23.9772C24.4694 23.4833 24.7826 22.8375 24.8648 22.1439H27.5695C27.6292 22.1462 27.6888 22.1364 27.7447 22.1151C27.8006 22.0939 27.8516 22.0615 27.8947 22.0201C27.9377 21.9786 27.972 21.9289 27.9954 21.8739C28.0188 21.8189 28.0309 21.7597 28.0309 21.6999C28.0309 21.6401 28.0188 21.581 27.9954 21.526C27.972 21.471 27.9377 21.4212 27.8947 21.3798C27.8516 21.3383 27.8006 21.306 27.7447 21.2847C27.6888 21.2635 27.6292 21.2537 27.5695 21.256H24.9033V18.3434H27.5708C27.6886 18.3434 27.8016 18.2966 27.8849 18.2133C27.9683 18.13 28.0151 18.017 28.0151 17.8992C28.0151 17.7813 27.9683 17.6683 27.8849 17.585C27.8016 17.5017 27.6886 17.4549 27.5708 17.4549H24.9033V14.5443H27.5708ZM24.0154 21.7773C24.0145 22.3707 23.7784 22.9395 23.3587 23.359C22.9391 23.7785 22.3702 24.0145 21.7769 24.0152H10.2222C9.6288 24.0145 9.05993 23.7785 8.64029 23.359C8.22065 22.9395 7.9845 22.3707 7.98362 21.7773V10.2226C7.9845 9.62918 8.22063 9.0603 8.64025 8.64068C9.05987 8.22106 9.62874 7.98493 10.2222 7.98405H21.7769C22.3703 7.98493 22.9392 8.22106 23.3588 8.64068C23.7784 9.0603 24.0145 9.62918 24.0154 10.2226V21.7773Z" fill="#00EAFF"/>
</g>
<defs>
<clipPath id="clip0_232_22">
<rect width="32" height="32" fill="white"/>
</clipPath>
</defs>
</svg>
