<svg width="32" height="32" viewBox="0 0 32 32" fill="none" xmlns="http://www.w3.org/2000/svg">
<path d="M16.2812 5.25977C18.3348 5.25977 20.0438 6.77173 20.0439 8.67969C20.0439 9.10158 19.9714 9.46594 19.8066 9.81445C19.6477 10.1505 19.4224 10.464 19.1504 10.8623V10.8633C18.8001 11.3758 18.8705 11.6291 18.8818 11.6514L18.8965 11.6709C18.9043 11.6775 18.9165 11.6839 18.9365 11.6904C18.9889 11.7076 19.0897 11.7206 19.2764 11.7012L20.6533 11.5635C21.198 11.5108 21.7963 11.4543 22.3516 11.4023C22.9072 11.3503 23.4207 11.302 23.7949 11.2676C23.9816 11.2504 24.1337 11.2372 24.2393 11.2275C24.2919 11.2227 24.3334 11.2184 24.3613 11.2158C24.3753 11.2145 24.3864 11.2135 24.3936 11.2129C24.397 11.2126 24.3996 11.2121 24.4014 11.2119H24.4053L24.5312 11.2109C24.5742 11.214 24.6178 11.2209 24.6611 11.2324H24.6621L24.9219 11.3145C25.1845 11.4103 25.4532 11.5512 25.6846 11.7686C25.9999 12.0649 26.2001 12.4949 26.2002 12.9922V24.8945C26.2002 25.3458 26.0712 25.7869 25.7744 26.1348L25.6367 26.2783C25.2458 26.64 24.6882 26.8203 24.0938 26.8203H8.07812C7.65525 26.8202 7.2666 26.6603 6.9873 26.4316L6.875 26.3301C6.66522 26.1202 6.5303 25.8761 6.44238 25.6318L6.36914 25.3887C6.32057 25.1931 6.25337 25.003 6.16504 24.5225C6.09881 24.1622 6.0187 23.6342 5.9209 22.7979L5.81738 21.8535L5.81641 21.8496C5.81605 21.8454 5.81566 21.8407 5.81543 21.8359V21.8125C5.77586 21.5634 5.77194 21.3316 5.91113 21.0186H5.91211C6.05846 20.6882 6.3922 20.4272 6.74316 20.3574C7.07874 20.2908 7.37 20.3493 7.62695 20.4365H7.62793L7.81543 20.5078C8.24737 20.6877 8.64396 20.9566 8.97656 21.1963H8.97754L9.21484 21.3623C9.43914 21.512 9.62878 21.6157 9.81641 21.6865C10.0633 21.7796 10.3174 21.8203 10.6562 21.8203C12.0028 21.8203 13.0352 20.8594 13.0352 19.7197C13.035 18.5802 12.0027 17.6201 10.6562 17.6201C10.0785 17.6202 9.56811 17.8355 9 18.2061L8.99902 18.2051C8.5721 18.4845 8.1311 18.7741 7.66211 18.9424L7.45996 19.0068C7.22135 19.0727 6.92168 19.1188 6.6123 19.0195L6.47949 18.9668C6.11301 18.7982 5.90735 18.4431 5.83594 18.1084L5.83496 18.1025C5.83104 18.0809 5.82253 18.0069 5.82129 17.9072H5.79492L5.81738 17.6875L5.82129 17.6582C5.82282 17.6487 5.82426 17.6362 5.82812 17.623C5.82916 17.6195 5.83164 17.6162 5.83301 17.6123C5.99016 15.7139 6.12163 14.5385 6.21484 13.834C6.2588 13.5018 6.29411 13.2723 6.32031 13.1201H6.30762L6.35059 12.8848L6.36328 12.8506L6.36426 12.8369C6.41296 12.4619 6.51006 12.0701 6.78223 11.7314L6.9043 11.6016C7.16312 11.364 7.53773 11.2215 7.92578 11.2158V11.1885L8.14648 11.2119H8.14746L8.14941 11.2129C8.15128 11.2131 8.15454 11.2135 8.1582 11.2139C8.16557 11.2146 8.1764 11.2153 8.19043 11.2168C8.21922 11.2198 8.26201 11.2247 8.31641 11.2305C8.42515 11.2419 8.58175 11.2584 8.77344 11.2783C9.15729 11.3182 9.68185 11.3724 10.2441 11.4287C11.3707 11.5416 12.6441 11.6627 13.2471 11.7002L13.3945 11.7041C13.5267 11.7027 13.6159 11.6868 13.6729 11.668C13.7498 11.6425 13.7545 11.6181 13.7461 11.6338C13.7372 11.6506 13.763 11.61 13.7285 11.4814C13.7036 11.3886 13.6481 11.2577 13.5361 11.0859L13.4043 10.9004C12.8666 10.2023 12.5039 9.54251 12.5039 8.67969C12.5041 6.77081 14.2291 5.26 16.2812 5.25977ZM16.2812 6.58008C14.935 6.58031 13.9035 7.54032 13.9033 8.67969C13.9033 8.94855 13.9444 9.15342 14.0381 9.36328C14.1104 9.52516 14.2163 9.69441 14.3672 9.90234L14.5342 10.125L14.7236 10.3906C15.1347 11.0131 15.3094 11.6501 15.0049 12.2236C14.7025 12.7931 14.0626 13.0101 13.4297 13.0254L13.1602 13.0195C12.5004 12.9788 11.2072 12.8561 10.083 12.7441C9.52019 12.6881 8.99835 12.6342 8.61719 12.5947C8.42662 12.575 8.27088 12.5592 8.16309 12.5479C8.10949 12.5422 8.06757 12.5382 8.03906 12.5352L8.00586 12.5312H7.96973L7.95508 12.5293C7.9315 12.5258 7.9124 12.5226 7.89648 12.5205L7.8916 12.5273C7.87748 12.5455 7.84887 12.5988 7.81836 12.6953C7.80378 12.7415 7.7896 12.7941 7.77734 12.8525L7.74609 13.0449L7.74512 13.0527L7.74316 13.0596C7.73803 13.0856 7.72973 13.1095 7.72363 13.1289L7.72559 13.1299C7.72541 13.1306 7.72506 13.1319 7.72461 13.1338C7.7235 13.1385 7.72139 13.1468 7.71875 13.1592C7.71344 13.1841 7.70453 13.226 7.69336 13.2891C7.67101 13.4153 7.63759 13.6266 7.59375 13.9629C7.50755 14.6241 7.38237 15.7653 7.22461 17.6865C7.31081 17.6486 7.41662 17.5969 7.53711 17.5303C7.73817 17.4191 7.9686 17.2767 8.20312 17.123L8.46484 16.96C9.088 16.5893 9.81067 16.2999 10.6562 16.2998C12.7086 16.2998 14.4344 17.8107 14.4346 19.7197C14.4346 21.6289 12.7087 23.1396 10.6562 23.1396C9.68552 23.1395 8.90946 22.8258 8.11816 22.2539H8.11719C7.79922 22.0229 7.4544 21.7988 7.21484 21.7002C7.36404 23.1281 7.46102 23.8484 7.53516 24.2744C7.60885 24.6979 7.65823 24.8215 7.72559 25.0898L7.75879 25.1914C7.79882 25.2895 7.85647 25.3771 7.9082 25.4297L7.95312 25.4697C7.9652 25.4785 7.97445 25.484 7.98242 25.4873C7.99852 25.494 8.02437 25.5 8.07812 25.5H24.0938C24.4126 25.5 24.5597 25.418 24.6455 25.3379C24.7297 25.2592 24.8008 25.137 24.8008 24.8945V12.9922C24.8008 12.8795 24.7868 12.8186 24.7725 12.7822C24.7661 12.766 24.7586 12.7516 24.748 12.7373L24.707 12.6924C24.6908 12.6771 24.6535 12.6529 24.582 12.623C24.5218 12.5979 24.4496 12.574 24.3672 12.5479C24.0378 12.5779 22.1728 12.7485 20.7227 12.8887L19.4277 13.0186C18.7187 13.0932 17.9456 12.8565 17.6191 12.2217C17.2957 11.5926 17.4909 10.8583 17.9756 10.1484L18.3203 9.63379C18.4099 9.4943 18.4758 9.38228 18.5225 9.28418C18.6095 9.10095 18.6445 8.95997 18.6445 8.67969C18.6444 7.53869 17.626 6.58008 16.2812 6.58008ZM5.8252 21.7588C5.82403 21.7626 5.82329 21.7672 5.82227 21.7715C5.82321 21.7677 5.82416 21.7641 5.8252 21.7607C5.82609 21.7578 5.82656 21.7546 5.82715 21.7529L5.8252 21.7588Z" fill="#00EAFF" stroke="#00EAFF" stroke-width="0.4"/>
</svg>
