<svg width="32" height="32" viewBox="0 0 32 32" fill="none" xmlns="http://www.w3.org/2000/svg">
<path d="M25.9648 15.4441V14.7425C25.9635 13.5499 25.4891 12.4065 24.6459 11.5633C23.8026 10.7201 22.6593 10.2457 21.4667 10.2443H19.6674C19.6667 9.52869 19.3821 8.84283 18.8761 8.33674C18.3702 7.83083 17.6842 7.54627 16.9686 7.54541H7.97236C7.25689 7.54625 6.57085 7.83084 6.06477 8.33674C5.55886 8.84283 5.27429 9.52865 5.27344 10.2443V19.2406C5.27545 19.8195 5.46378 20.3822 5.81063 20.8455C6.15749 21.3089 6.64448 21.6481 7.19925 21.8131C7.41403 22.5445 7.92998 23.1498 8.61816 23.478C9.30621 23.8059 10.1014 23.8257 10.805 23.5321C11.5084 23.2386 12.0538 22.6594 12.3046 21.9395H18.9335C19.1794 22.645 19.7084 23.2158 20.3929 23.5147C21.0775 23.8136 21.8557 23.8136 22.5402 23.5147C23.2248 23.2158 23.7537 22.645 23.9997 21.9395H24.1654C24.8811 21.9389 25.5671 21.6543 26.073 21.1482C26.5789 20.6423 26.8637 19.9563 26.8643 19.2406V17.4415C26.8623 16.678 26.5353 15.9515 25.9648 15.4441ZM24.1656 14.7425H23.266C23.0276 14.7422 22.7989 14.6473 22.6301 14.4787C22.4616 14.3099 22.3667 14.0813 22.3663 13.8429V12.9433C22.3628 12.6804 22.2404 12.1695 22.2404 12.1695C22.2404 12.1695 23.282 12.674 23.6287 13.1374C23.9756 13.6008 24.1637 14.1636 24.1656 14.7425ZM7.07257 10.2444C7.0729 10.0058 7.16782 9.77717 7.33639 9.60857C7.50497 9.43983 7.73365 9.34508 7.9722 9.34474H16.9685C17.2069 9.34508 17.4355 9.43983 17.6043 9.60857C17.7729 9.77715 17.8678 10.0058 17.8681 10.2444V19.2407C17.8678 19.4792 17.7729 19.7079 17.6043 19.8765C17.4355 20.0452 17.2069 20.1401 16.9685 20.1403H12.3045C12.0693 19.4657 11.5744 18.9127 10.9298 18.6042C10.2853 18.2955 9.54432 18.257 8.87119 18.4967C8.19788 18.7366 7.6483 19.2351 7.34411 19.8816C7.17084 19.7134 7.07291 19.4822 7.07258 19.2406L7.07257 10.2444ZM9.77149 21.9393C9.53294 21.9393 9.30411 21.8445 9.13534 21.6758C8.9666 21.5072 8.87185 21.2784 8.87185 21.0396C8.87185 20.8011 8.9666 20.5723 9.13534 20.4035C9.30409 20.2349 9.53293 20.14 9.77149 20.14C10.01 20.14 10.2389 20.2349 10.4076 20.4035C10.5764 20.5722 10.6711 20.8011 10.6711 21.0396C10.6708 21.2782 10.5759 21.5069 10.4073 21.6755C10.2386 21.8442 10.01 21.9391 9.77149 21.9393ZM21.4667 21.9393C21.2281 21.9393 20.9993 21.8445 20.8305 21.6758C20.6619 21.5072 20.567 21.2784 20.567 21.0396C20.567 20.8011 20.6619 20.5723 20.8305 20.4035C20.9993 20.2349 21.2281 20.14 21.4667 20.14C21.7054 20.14 21.9342 20.2349 22.1028 20.4035C22.2716 20.5722 22.3663 20.8011 22.3663 21.0396C22.3661 21.2782 22.2712 21.5069 22.1025 21.6755C21.9339 21.8442 21.7052 21.9391 21.4667 21.9393ZM25.0654 19.2404C25.065 19.4789 24.9701 19.7076 24.8014 19.8762C24.6328 20.0449 24.4041 20.1398 24.1656 20.14H23.9998C23.7055 19.2891 23.0026 18.6436 22.1298 18.4224C21.2569 18.2013 20.3315 18.4345 19.6674 19.0425V12.0433C19.9059 12.0436 20.1346 12.1384 20.3032 12.3071C20.4719 12.4757 20.5669 12.7044 20.567 12.9429V13.8426C20.5679 14.558 20.8525 15.2441 21.3585 15.75C21.8644 16.2561 22.5504 16.5406 23.266 16.5415H24.1656C24.4041 16.5417 24.6328 16.6366 24.8014 16.8053C24.9701 16.9739 25.0649 17.2026 25.0652 17.4411L25.0654 19.2404Z" fill="#00EAFF"/>
<path d="M7.30041 17.5498H15.5006C15.8668 17.5498 16.2052 17.3543 16.3883 17.0373C16.5714 16.7201 16.5714 16.3292 16.3883 16.0123C16.2052 15.6951 15.8668 15.4998 15.5006 15.4998H7.30041C6.9342 15.4998 6.59583 15.6951 6.41272 16.0123C6.22961 16.3293 6.22961 16.7201 6.41272 17.0373C6.59583 17.3543 6.9342 17.5498 7.30041 17.5498Z" fill="#00EAFF"/>
</svg>
