<svg width="32" height="32" viewBox="0 0 32 32" fill="none" xmlns="http://www.w3.org/2000/svg">
<path d="M15.9998 4.80676C9.82789 4.80676 4.80664 9.82776 4.80664 16C4.80664 22.1719 9.82764 27.1932 15.9998 27.1932C22.1718 27.1932 27.193 22.1722 27.193 16C27.1928 9.82801 22.1718 4.80676 15.9998 4.80676ZM15.9998 25.5936C10.7095 25.5936 6.40574 21.2901 6.40574 15.9995C6.40574 10.7091 10.7093 6.40536 15.9998 6.40536C21.2902 6.40536 25.5939 10.7089 25.5939 15.9995C25.5937 21.2898 21.2902 25.5936 15.9998 25.5936Z" fill="#00EAFF" stroke="#00EAFF" stroke-width="0.390625"/>
<path d="M23.1567 14.3176C23.0623 14.028 22.8123 13.8171 22.511 13.7735L18.5072 13.1911L16.717 9.56357C16.4484 9.01706 15.552 9.01706 15.2834 9.56357L13.4932 13.1911L9.48936 13.7735C9.18804 13.8171 8.93813 14.028 8.84368 14.3176C8.75005 14.6064 8.82801 14.9242 9.04581 15.1367L11.9433 17.9608L11.2594 21.9481C11.2078 22.2478 11.3312 22.5509 11.5771 22.7297C11.8247 22.9092 12.1502 22.9334 12.4196 22.7906L16.0003 20.9079L19.581 22.7904C19.698 22.8521 19.8262 22.8824 19.9533 22.8824C20.1187 22.8824 20.2836 22.8308 20.4232 22.7295C20.6692 22.5507 20.7926 22.2476 20.741 21.9479L20.057 17.9606L22.9546 15.1365C23.1724 14.9242 23.2503 14.6064 23.1567 14.3176ZM18.6399 17.1088C18.4517 17.2923 18.3658 17.5569 18.4104 17.8162L18.8915 20.6214L16.3726 19.2974C16.2556 19.2355 16.1282 19.2051 16.0003 19.2051C15.8721 19.2051 15.745 19.2357 15.628 19.2972L13.1091 20.6212L13.5901 17.816C13.6346 17.5567 13.5487 17.2921 13.3606 17.1086L11.3228 15.1224L14.139 14.7126C14.3999 14.6751 14.6246 14.5112 14.741 14.2754L16.0002 11.7238L17.2597 14.2754C17.3759 14.5112 17.6009 14.6751 17.8617 14.7126L20.6779 15.1224L18.6399 17.1088Z" fill="#00EAFF" stroke="#00EAFF" stroke-width="0.2"/>
</svg>
