<svg width="32" height="32" viewBox="0 0 32 32" fill="none" xmlns="http://www.w3.org/2000/svg">
<mask id="mask0_246_143" style="mask-type:luminance" maskUnits="userSpaceOnUse" x="5" y="5" width="22" height="22">
<path d="M27 5H5V27H27V5Z" fill="white"/>
</mask>
<g mask="url(#mask0_246_143)">
<path d="M8.35156 24.0371C8.50437 24.0371 8.6537 24.0989 8.76172 24.207L8.83301 24.2949C8.89614 24.3896 8.93164 24.5024 8.93164 24.6172C8.93158 24.7318 8.89597 24.8439 8.83301 24.9385L8.76172 25.0264C8.6537 25.1345 8.50437 25.1963 8.35156 25.1963C8.23701 25.1963 8.12485 25.1615 8.03027 25.0986L7.94141 25.0264C7.83358 24.9184 7.77156 24.7697 7.77148 24.6172C7.77148 24.4644 7.83349 24.315 7.94141 24.207L8.03027 24.1348C8.12485 24.0719 8.2371 24.0371 8.35156 24.0371ZM24.9844 12.3613C25.0956 12.3836 25.1987 12.4383 25.2803 12.5195L25.3525 12.6074C25.4159 12.7022 25.4512 12.8149 25.4512 12.9297C25.4512 13.0824 25.3887 13.2309 25.2803 13.3389L25.2812 13.3398C25.1733 13.4478 25.0244 13.5097 24.8711 13.5098H24.8701C24.7553 13.5093 24.644 13.4747 24.5498 13.4121L24.4609 13.3398C24.3529 13.2319 24.291 13.0825 24.291 12.9297C24.291 12.7769 24.353 12.6275 24.4609 12.5195L24.5488 12.4473C24.6435 12.3843 24.7565 12.3496 24.8711 12.3496L24.9844 12.3613Z" fill="#00EAFF" stroke="#00EAFF" stroke-width="0.3"/>
<mask id="path-3-outside-1_246_143" maskUnits="userSpaceOnUse" x="4.00098" y="4" width="24" height="24" fill="black">
<rect fill="white" x="4.00098" y="4" width="24" height="24"/>
<path d="M26.8746 5.12586C26.7939 5.04528 26.6846 5.00001 26.5706 5L16.0006 5.00056C15.7633 5.00056 15.571 5.19297 15.571 5.43025V6.65903L11.498 7.75039C11.2687 7.81183 11.1327 8.04743 11.1941 8.27662L13.3051 16.1546L11.479 17.9807C11.2465 17.6414 10.8563 17.4182 10.4149 17.4182H6.29C5.57921 17.4182 5.00098 17.9964 5.00098 18.7072V25.7109C5.00098 26.4217 5.57921 27 6.29 27H10.4149C11.0187 27 11.5267 26.5825 11.666 26.0212L12.1769 26.4667C12.5711 26.8106 13.0767 27.0001 13.5999 27.0001H26.5708C26.808 27.0001 27.0004 26.8076 27.0004 26.5704V5.42969C27.0003 5.31574 26.9551 5.20646 26.8746 5.12586ZM10.8445 25.711C10.8445 25.9479 10.6518 26.1406 10.4148 26.1406H6.28995C6.05303 26.1406 5.86027 25.9479 5.86027 25.711V18.7072C5.86027 18.4703 6.05303 18.2776 6.28995 18.2776H7.92272V22.2969C7.92272 22.5341 8.11514 22.7266 8.35241 22.7266C8.58968 22.7266 8.7821 22.5341 8.7821 22.2969V18.2776H10.4149C10.6518 18.2776 10.8446 18.4703 10.8446 18.7072L10.8445 25.711ZM12.1354 8.46925L15.571 7.54869V9.1409L15.283 9.21807C15.2285 9.23266 15.1774 9.25785 15.1326 9.29219C15.0878 9.32654 15.0503 9.36937 15.022 9.41824C14.9938 9.46711 14.9755 9.52106 14.9682 9.57701C14.9608 9.63295 14.9645 9.6898 14.9792 9.74431C15.1443 10.3605 14.7773 10.9962 14.1611 11.1613C14.1065 11.1759 14.0553 11.2011 14.0105 11.2355C13.9657 11.27 13.9281 11.3129 13.8999 11.3618C13.8717 11.4108 13.8534 11.4649 13.8462 11.5209C13.8388 11.5769 13.8427 11.6338 13.8574 11.6884L15.5323 17.8904H14.6699L14.2255 16.1517C14.2116 16.0973 14.1872 16.0461 14.1535 16.001L12.1354 8.46925ZM15.5 10L15.571 14.7371L14.3203 11.6884C14.7969 11.6884 15.5 10.5 15.5 10ZM21.744 26.1406H13.5998C13.2843 26.1406 12.9794 26.0264 12.7416 25.819L11.7039 24.914V18.9712L13.5798 17.0952L13.9201 18.4264C13.9437 18.5189 13.9974 18.6008 14.0728 18.6593C14.1482 18.7179 14.2409 18.7497 14.3363 18.7497L22.7842 18.7502C23.1159 18.7502 23.3857 19.02 23.3857 19.3518C23.3857 19.6834 23.1159 19.9533 22.7842 19.9533H18.4555C18.2182 19.9533 18.0258 20.1457 18.0258 20.383C18.0258 20.6203 18.2182 20.8127 18.4555 20.8127H24.1291C24.4608 20.8127 24.7307 21.0825 24.7307 21.4143C24.7307 21.7459 24.4608 22.0158 24.1291 22.0158H18.4555C18.2182 22.0158 18.0258 22.2082 18.0258 22.4455C18.0258 22.6828 18.2182 22.8752 18.4555 22.8752H23.2097C23.5414 22.8752 23.8113 23.145 23.8113 23.4768C23.8113 23.8084 23.5414 24.0783 23.2097 24.0783H18.4555C18.2182 24.0783 18.0258 24.2707 18.0258 24.508C18.0258 24.7453 18.2182 24.9377 18.4555 24.9377H21.744C22.0757 24.9377 22.3456 25.2075 22.3456 25.5393C22.3455 25.8708 22.0757 26.1406 21.744 26.1406ZM26.1411 26.1406H23.0748C23.1581 25.957 23.2049 25.7535 23.2049 25.5391C23.2049 25.3246 23.1581 25.1211 23.0748 24.9375H23.2097C24.0152 24.9375 24.6705 24.2822 24.6705 23.4766C24.6707 23.2495 24.6176 23.0256 24.5155 22.8228C25.1341 22.6529 25.59 22.0859 25.59 21.4141C25.5903 21.1005 25.4891 20.7952 25.3016 20.5438V15.0979C25.3016 14.8607 25.1091 14.6683 24.8718 14.6683C24.6346 14.6683 24.4422 14.8607 24.4422 15.0979V19.9874C24.3393 19.9648 24.2343 19.9533 24.129 19.9533H24.1149C24.2008 19.7644 24.2451 19.5593 24.245 19.3518C24.245 18.5462 23.5896 17.8908 22.7841 17.8908H22.0934C22.8268 17.5763 23.3419 16.8473 23.3419 16C23.3419 14.8661 22.4195 13.9436 21.2856 13.9436C20.1517 13.9436 19.2292 14.8661 19.2292 16C19.2292 16.8473 19.7444 17.5763 20.4777 17.8908H18.129V9.72068C18.8966 9.5534 19.5022 8.94775 19.6695 8.18012H22.9016C23.0689 8.94775 23.6745 9.5534 24.4421 9.72068V11.0566C24.4421 11.2939 24.6346 11.4862 24.8718 11.4862C25.1091 11.4862 25.3015 11.2939 25.3015 11.0566V9.33705C25.3015 9.09978 25.1091 8.90736 24.8718 8.90736C24.2338 8.90736 23.715 8.38834 23.715 7.75043C23.715 7.51316 23.5225 7.32074 23.2853 7.32074H19.2859C19.0486 7.32074 18.8562 7.51316 18.8562 7.75043C18.8562 8.38839 18.3373 8.90736 17.6993 8.90736C17.4621 8.90736 17.2696 9.09978 17.2696 9.33705V17.8908H16.4304V5.85985L26.1411 5.85937V26.1406ZM21.2857 17.197C20.6256 17.197 20.0887 16.6601 20.0887 16.0001C20.0887 15.3401 20.6257 14.803 21.2857 14.803C21.9457 14.803 22.4826 15.34 22.4826 16C22.4826 16.66 21.9457 17.197 21.2857 17.197Z"/>
</mask>
<path d="M26.8746 5.12586C26.7939 5.04528 26.6846 5.00001 26.5706 5L16.0006 5.00056C15.7633 5.00056 15.571 5.19297 15.571 5.43025V6.65903L11.498 7.75039C11.2687 7.81183 11.1327 8.04743 11.1941 8.27662L13.3051 16.1546L11.479 17.9807C11.2465 17.6414 10.8563 17.4182 10.4149 17.4182H6.29C5.57921 17.4182 5.00098 17.9964 5.00098 18.7072V25.7109C5.00098 26.4217 5.57921 27 6.29 27H10.4149C11.0187 27 11.5267 26.5825 11.666 26.0212L12.1769 26.4667C12.5711 26.8106 13.0767 27.0001 13.5999 27.0001H26.5708C26.808 27.0001 27.0004 26.8076 27.0004 26.5704V5.42969C27.0003 5.31574 26.9551 5.20646 26.8746 5.12586ZM10.8445 25.711C10.8445 25.9479 10.6518 26.1406 10.4148 26.1406H6.28995C6.05303 26.1406 5.86027 25.9479 5.86027 25.711V18.7072C5.86027 18.4703 6.05303 18.2776 6.28995 18.2776H7.92272V22.2969C7.92272 22.5341 8.11514 22.7266 8.35241 22.7266C8.58968 22.7266 8.7821 22.5341 8.7821 22.2969V18.2776H10.4149C10.6518 18.2776 10.8446 18.4703 10.8446 18.7072L10.8445 25.711ZM12.1354 8.46925L15.571 7.54869V9.1409L15.283 9.21807C15.2285 9.23266 15.1774 9.25785 15.1326 9.29219C15.0878 9.32654 15.0503 9.36937 15.022 9.41824C14.9938 9.46711 14.9755 9.52106 14.9682 9.57701C14.9608 9.63295 14.9645 9.6898 14.9792 9.74431C15.1443 10.3605 14.7773 10.9962 14.1611 11.1613C14.1065 11.1759 14.0553 11.2011 14.0105 11.2355C13.9657 11.27 13.9281 11.3129 13.8999 11.3618C13.8717 11.4108 13.8534 11.4649 13.8462 11.5209C13.8388 11.5769 13.8427 11.6338 13.8574 11.6884L15.5323 17.8904H14.6699L14.2255 16.1517C14.2116 16.0973 14.1872 16.0461 14.1535 16.001L12.1354 8.46925ZM15.5 10L15.571 14.7371L14.3203 11.6884C14.7969 11.6884 15.5 10.5 15.5 10ZM21.744 26.1406H13.5998C13.2843 26.1406 12.9794 26.0264 12.7416 25.819L11.7039 24.914V18.9712L13.5798 17.0952L13.9201 18.4264C13.9437 18.5189 13.9974 18.6008 14.0728 18.6593C14.1482 18.7179 14.2409 18.7497 14.3363 18.7497L22.7842 18.7502C23.1159 18.7502 23.3857 19.02 23.3857 19.3518C23.3857 19.6834 23.1159 19.9533 22.7842 19.9533H18.4555C18.2182 19.9533 18.0258 20.1457 18.0258 20.383C18.0258 20.6203 18.2182 20.8127 18.4555 20.8127H24.1291C24.4608 20.8127 24.7307 21.0825 24.7307 21.4143C24.7307 21.7459 24.4608 22.0158 24.1291 22.0158H18.4555C18.2182 22.0158 18.0258 22.2082 18.0258 22.4455C18.0258 22.6828 18.2182 22.8752 18.4555 22.8752H23.2097C23.5414 22.8752 23.8113 23.145 23.8113 23.4768C23.8113 23.8084 23.5414 24.0783 23.2097 24.0783H18.4555C18.2182 24.0783 18.0258 24.2707 18.0258 24.508C18.0258 24.7453 18.2182 24.9377 18.4555 24.9377H21.744C22.0757 24.9377 22.3456 25.2075 22.3456 25.5393C22.3455 25.8708 22.0757 26.1406 21.744 26.1406ZM26.1411 26.1406H23.0748C23.1581 25.957 23.2049 25.7535 23.2049 25.5391C23.2049 25.3246 23.1581 25.1211 23.0748 24.9375H23.2097C24.0152 24.9375 24.6705 24.2822 24.6705 23.4766C24.6707 23.2495 24.6176 23.0256 24.5155 22.8228C25.1341 22.6529 25.59 22.0859 25.59 21.4141C25.5903 21.1005 25.4891 20.7952 25.3016 20.5438V15.0979C25.3016 14.8607 25.1091 14.6683 24.8718 14.6683C24.6346 14.6683 24.4422 14.8607 24.4422 15.0979V19.9874C24.3393 19.9648 24.2343 19.9533 24.129 19.9533H24.1149C24.2008 19.7644 24.2451 19.5593 24.245 19.3518C24.245 18.5462 23.5896 17.8908 22.7841 17.8908H22.0934C22.8268 17.5763 23.3419 16.8473 23.3419 16C23.3419 14.8661 22.4195 13.9436 21.2856 13.9436C20.1517 13.9436 19.2292 14.8661 19.2292 16C19.2292 16.8473 19.7444 17.5763 20.4777 17.8908H18.129V9.72068C18.8966 9.5534 19.5022 8.94775 19.6695 8.18012H22.9016C23.0689 8.94775 23.6745 9.5534 24.4421 9.72068V11.0566C24.4421 11.2939 24.6346 11.4862 24.8718 11.4862C25.1091 11.4862 25.3015 11.2939 25.3015 11.0566V9.33705C25.3015 9.09978 25.1091 8.90736 24.8718 8.90736C24.2338 8.90736 23.715 8.38834 23.715 7.75043C23.715 7.51316 23.5225 7.32074 23.2853 7.32074H19.2859C19.0486 7.32074 18.8562 7.51316 18.8562 7.75043C18.8562 8.38839 18.3373 8.90736 17.6993 8.90736C17.4621 8.90736 17.2696 9.09978 17.2696 9.33705V17.8908H16.4304V5.85985L26.1411 5.85937V26.1406ZM21.2857 17.197C20.6256 17.197 20.0887 16.6601 20.0887 16.0001C20.0887 15.3401 20.6257 14.803 21.2857 14.803C21.9457 14.803 22.4826 15.34 22.4826 16C22.4826 16.66 21.9457 17.197 21.2857 17.197Z" fill="#00EAFF"/>
<path d="M26.8746 5.12586C26.7939 5.04528 26.6846 5.00001 26.5706 5L16.0006 5.00056C15.7633 5.00056 15.571 5.19297 15.571 5.43025V6.65903L11.498 7.75039C11.2687 7.81183 11.1327 8.04743 11.1941 8.27662L13.3051 16.1546L11.479 17.9807C11.2465 17.6414 10.8563 17.4182 10.4149 17.4182H6.29C5.57921 17.4182 5.00098 17.9964 5.00098 18.7072V25.7109C5.00098 26.4217 5.57921 27 6.29 27H10.4149C11.0187 27 11.5267 26.5825 11.666 26.0212L12.1769 26.4667C12.5711 26.8106 13.0767 27.0001 13.5999 27.0001H26.5708C26.808 27.0001 27.0004 26.8076 27.0004 26.5704V5.42969C27.0003 5.31574 26.9551 5.20646 26.8746 5.12586ZM10.8445 25.711C10.8445 25.9479 10.6518 26.1406 10.4148 26.1406H6.28995C6.05303 26.1406 5.86027 25.9479 5.86027 25.711V18.7072C5.86027 18.4703 6.05303 18.2776 6.28995 18.2776H7.92272V22.2969C7.92272 22.5341 8.11514 22.7266 8.35241 22.7266C8.58968 22.7266 8.7821 22.5341 8.7821 22.2969V18.2776H10.4149C10.6518 18.2776 10.8446 18.4703 10.8446 18.7072L10.8445 25.711ZM12.1354 8.46925L15.571 7.54869V9.1409L15.283 9.21807C15.2285 9.23266 15.1774 9.25785 15.1326 9.29219C15.0878 9.32654 15.0503 9.36937 15.022 9.41824C14.9938 9.46711 14.9755 9.52106 14.9682 9.57701C14.9608 9.63295 14.9645 9.6898 14.9792 9.74431C15.1443 10.3605 14.7773 10.9962 14.1611 11.1613C14.1065 11.1759 14.0553 11.2011 14.0105 11.2355C13.9657 11.27 13.9281 11.3129 13.8999 11.3618C13.8717 11.4108 13.8534 11.4649 13.8462 11.5209C13.8388 11.5769 13.8427 11.6338 13.8574 11.6884L15.5323 17.8904H14.6699L14.2255 16.1517C14.2116 16.0973 14.1872 16.0461 14.1535 16.001L12.1354 8.46925ZM15.5 10L15.571 14.7371L14.3203 11.6884C14.7969 11.6884 15.5 10.5 15.5 10ZM21.744 26.1406H13.5998C13.2843 26.1406 12.9794 26.0264 12.7416 25.819L11.7039 24.914V18.9712L13.5798 17.0952L13.9201 18.4264C13.9437 18.5189 13.9974 18.6008 14.0728 18.6593C14.1482 18.7179 14.2409 18.7497 14.3363 18.7497L22.7842 18.7502C23.1159 18.7502 23.3857 19.02 23.3857 19.3518C23.3857 19.6834 23.1159 19.9533 22.7842 19.9533H18.4555C18.2182 19.9533 18.0258 20.1457 18.0258 20.383C18.0258 20.6203 18.2182 20.8127 18.4555 20.8127H24.1291C24.4608 20.8127 24.7307 21.0825 24.7307 21.4143C24.7307 21.7459 24.4608 22.0158 24.1291 22.0158H18.4555C18.2182 22.0158 18.0258 22.2082 18.0258 22.4455C18.0258 22.6828 18.2182 22.8752 18.4555 22.8752H23.2097C23.5414 22.8752 23.8113 23.145 23.8113 23.4768C23.8113 23.8084 23.5414 24.0783 23.2097 24.0783H18.4555C18.2182 24.0783 18.0258 24.2707 18.0258 24.508C18.0258 24.7453 18.2182 24.9377 18.4555 24.9377H21.744C22.0757 24.9377 22.3456 25.2075 22.3456 25.5393C22.3455 25.8708 22.0757 26.1406 21.744 26.1406ZM26.1411 26.1406H23.0748C23.1581 25.957 23.2049 25.7535 23.2049 25.5391C23.2049 25.3246 23.1581 25.1211 23.0748 24.9375H23.2097C24.0152 24.9375 24.6705 24.2822 24.6705 23.4766C24.6707 23.2495 24.6176 23.0256 24.5155 22.8228C25.1341 22.6529 25.59 22.0859 25.59 21.4141C25.5903 21.1005 25.4891 20.7952 25.3016 20.5438V15.0979C25.3016 14.8607 25.1091 14.6683 24.8718 14.6683C24.6346 14.6683 24.4422 14.8607 24.4422 15.0979V19.9874C24.3393 19.9648 24.2343 19.9533 24.129 19.9533H24.1149C24.2008 19.7644 24.2451 19.5593 24.245 19.3518C24.245 18.5462 23.5896 17.8908 22.7841 17.8908H22.0934C22.8268 17.5763 23.3419 16.8473 23.3419 16C23.3419 14.8661 22.4195 13.9436 21.2856 13.9436C20.1517 13.9436 19.2292 14.8661 19.2292 16C19.2292 16.8473 19.7444 17.5763 20.4777 17.8908H18.129V9.72068C18.8966 9.5534 19.5022 8.94775 19.6695 8.18012H22.9016C23.0689 8.94775 23.6745 9.5534 24.4421 9.72068V11.0566C24.4421 11.2939 24.6346 11.4862 24.8718 11.4862C25.1091 11.4862 25.3015 11.2939 25.3015 11.0566V9.33705C25.3015 9.09978 25.1091 8.90736 24.8718 8.90736C24.2338 8.90736 23.715 8.38834 23.715 7.75043C23.715 7.51316 23.5225 7.32074 23.2853 7.32074H19.2859C19.0486 7.32074 18.8562 7.51316 18.8562 7.75043C18.8562 8.38839 18.3373 8.90736 17.6993 8.90736C17.4621 8.90736 17.2696 9.09978 17.2696 9.33705V17.8908H16.4304V5.85985L26.1411 5.85937V26.1406ZM21.2857 17.197C20.6256 17.197 20.0887 16.6601 20.0887 16.0001C20.0887 15.3401 20.6257 14.803 21.2857 14.803C21.9457 14.803 22.4826 15.34 22.4826 16C22.4826 16.66 21.9457 17.197 21.2857 17.197Z" stroke="#00EAFF" stroke-width="0.6" mask="url(#path-3-outside-1_246_143)"/>
</g>
</svg>
