<svg width="32" height="32" viewBox="0 0 32 32" fill="none" xmlns="http://www.w3.org/2000/svg">
<path d="M7.26234 7.7345C6.228 7.7345 5.37305 8.5894 5.37305 9.62379V22.3766C5.37305 23.411 6.22795 24.2659 7.26234 24.2659H24.7383C25.7726 24.2659 26.6276 23.411 26.6276 22.3766V12.9304C26.6276 11.896 25.7727 11.0411 24.7383 11.0411H16.6205L15.4102 9.22559C15.2327 8.95954 15.0276 8.6292 14.7239 8.32526C14.4199 8.02131 13.9598 7.73492 13.4027 7.73492H7.26258L7.26234 7.7345ZM7.26234 9.15153H13.4025C13.4997 9.15153 13.5695 9.17826 13.7198 9.32859C13.8701 9.47892 14.0435 9.73673 14.229 10.0149L15.6461 12.1404H15.6459C15.777 12.3383 15.9987 12.4575 16.2362 12.4577H24.7379C25.0119 12.4577 25.2103 12.6562 25.2103 12.9301V22.3764C25.2103 22.6503 25.0119 22.8488 24.7379 22.8488H7.262C6.98807 22.8488 6.78959 22.6503 6.78959 22.3764V9.62355C6.78959 9.34962 6.98808 9.15114 7.262 9.15114L7.26234 9.15153ZM16.9448 14.5834C16.7639 14.5832 16.5814 14.6517 16.443 14.7901C16.1663 15.0668 16.1663 15.5173 16.443 15.7937L17.5943 16.9451H12.694C12.3027 16.9451 11.9856 17.2624 11.9856 17.6535C11.9856 18.0448 12.3027 18.3619 12.694 18.3619H17.5943L16.443 19.5133C16.1663 19.7899 16.1663 20.2404 16.443 20.5169C16.7196 20.7935 17.158 20.7917 17.4465 20.5169L19.7786 18.1848C19.9245 18.055 20.0148 17.864 20.0148 17.6534C20.0148 17.4429 19.9245 17.2519 19.7786 17.1221L17.4465 14.79C17.3046 14.6525 17.1256 14.5837 16.9447 14.5833L16.9448 14.5834Z" fill="#00EAFF" stroke="#00EAFF" stroke-width="0.390625"/>
</svg>
