<svg width="62" height="62" viewBox="0 0 62 62" fill="none" xmlns="http://www.w3.org/2000/svg">
<path d="M56.1611 19.9648C55.0301 19.742 53.5721 20.3596 52.8698 22.7572L50.3777 31.2641C49.7528 31.304 49.0771 31.5753 48.4281 32.1807C47.6991 32.8613 46.9665 33.5188 46.2569 34.1546C41.6698 38.2693 37.3383 42.1564 37.2184 49.8471V54.4753H36.6965C35.8416 54.4753 35.1453 55.1716 35.1453 56.0265V60.4477C35.1453 61.3038 35.8416 61.9989 36.6965 61.9989H48.5189C49.375 61.9989 50.0701 61.3026 50.0701 60.4477V56.0265C50.0701 55.1704 49.3738 54.4753 48.5189 54.4753H48.0394L48.0563 53.3395C48.066 52.6662 48.307 52.114 48.7914 51.649L53.1507 47.4676C55.2226 45.4793 56.3706 43.1264 56.6625 40.2771L58.3783 23.5128C58.5564 21.8018 57.5828 20.2433 56.1611 19.9648ZM48.135 60.0626H37.0828V56.4104H48.135V60.0626ZM56.4542 23.3143L54.7383 40.0785C54.4949 42.4519 53.537 44.4124 51.8114 46.069L47.4521 50.2503C46.5983 51.0689 46.1382 52.1273 46.1212 53.3104L46.1043 54.4741H39.1571V49.8689C39.2661 43.0283 42.9232 39.7479 47.5526 35.5944C48.2682 34.9526 49.0081 34.2878 49.7516 33.5951C50.2033 33.1737 50.655 33.078 50.9274 33.3481C51.206 33.623 51.2483 34.2042 50.6816 34.8291L44.6984 41.419C44.3387 41.815 44.369 42.4265 44.765 42.7861C45.161 43.1458 45.7725 43.1155 46.1321 42.7195L52.1154 36.1284C53.4753 34.628 53.2319 32.9 52.2873 31.9688C52.2631 31.9446 52.2377 31.9216 52.2123 31.8974L54.731 23.2997C55.0434 22.2305 55.5 21.8066 55.7906 21.8636C56.1151 21.9277 56.5401 22.4811 56.4542 23.3143ZM25.3052 54.4741H24.7797V49.8459C24.7252 46.3184 23.8242 43.3964 21.9461 40.65C20.2931 38.2342 18.0796 36.2483 15.7364 34.1473C15.0292 33.5128 14.299 32.8577 13.5712 32.1795C12.9222 31.5741 12.2465 31.3016 11.6216 31.2628L9.13315 22.7572C8.43202 20.3608 6.97284 19.7432 5.84303 19.9648C4.42139 20.2433 3.44538 21.8006 3.61975 23.5128L5.33928 40.2771C5.63112 43.1288 6.77909 45.4805 8.84858 47.4676L13.208 51.6478C13.6923 52.1128 13.9333 52.6662 13.943 53.3382L13.9599 54.4741H13.4804C12.6243 54.4741 11.9292 55.1704 11.9292 56.0253V60.4464C11.9292 61.3026 12.6255 61.9977 13.4804 61.9977H25.3052C26.1614 61.9977 26.8564 61.3014 26.8564 60.4464V56.0253C26.8564 55.1704 26.1614 54.4741 25.3052 54.4741ZM15.8793 53.3104C15.8623 52.1273 15.401 51.0689 14.5485 50.2503L10.1891 46.0702C8.46592 44.4148 7.50928 42.4555 7.26588 40.0797L5.54635 23.3155C5.46159 22.4823 5.88784 21.9289 6.216 21.8648C6.50784 21.8078 6.96315 22.2329 7.27557 23.3009L9.79069 31.8998C9.76526 31.9228 9.74104 31.9458 9.71682 31.97C8.77229 32.9025 8.52768 34.6305 9.88999 36.1296L15.8696 42.7195C16.0421 42.9095 16.283 43.0232 16.5394 43.0357C16.7957 43.0482 17.0465 42.9584 17.2367 42.7861C17.6327 42.4265 17.663 41.815 17.3033 41.419L11.3237 34.8278C10.7558 34.203 10.797 33.6218 11.0767 33.3469C11.3492 33.078 11.7996 33.1725 12.2513 33.5939C12.9924 34.2854 13.7311 34.9477 14.4443 35.5871C19.0774 39.7418 22.7368 43.0235 22.8458 49.8677V54.4729H15.8974L15.8793 53.3104ZM24.9214 60.0626H13.8655V56.4104H24.9214V60.0626ZM37.44 33.801C38.3192 34.0371 39.1862 33.9027 39.9491 33.4135C40.7132 32.9255 41.1988 32.1916 41.3501 31.2919L41.573 29.9599C41.6541 29.4743 41.9738 29.1243 42.4485 28.9984L44.5192 28.4498C45.3971 28.2198 46.0825 27.67 46.5027 26.8611C46.9192 26.057 46.9725 25.1815 46.6565 24.3266L46.1818 23.0551C46.0098 22.5974 46.1103 22.136 46.4579 21.7897L47.9824 20.2784C48.6279 19.6366 48.9464 18.8168 48.9028 17.9123C48.8628 17.0041 48.4705 16.2169 47.7681 15.6381L46.7219 14.7771C46.3441 14.4659 46.2012 14.013 46.3295 13.5396L46.8926 11.4677C47.1299 10.5897 46.9955 9.72148 46.5063 8.95738C46.0159 8.19085 45.2833 7.70648 44.3908 7.55996L43.0539 7.33351C42.5683 7.25238 42.2184 6.9339 42.0924 6.46164L41.5427 4.38488C41.3102 3.50695 40.7616 2.82156 39.9564 2.40378C39.1511 1.98359 38.2732 1.93152 37.4194 2.25242L36.1564 2.72468C35.6939 2.89542 35.2289 2.79371 34.8825 2.44617L33.3725 0.927651C32.7343 0.284643 31.9145 -0.0338334 31.0003 0.0037057C30.0884 0.0485104 29.3037 0.443276 28.7322 1.14078L27.8688 2.18581C27.5576 2.56363 27.1083 2.70652 26.6312 2.57574L24.5653 2.01749C23.691 1.77652 22.8216 1.90851 22.0526 2.40015C21.2837 2.893 20.7993 3.62683 20.6528 4.51929L20.4264 5.85617C20.3452 6.33933 20.0267 6.68929 19.5545 6.81402L17.4777 7.36378C16.5998 7.59507 15.9144 8.14484 15.493 8.95617C15.0789 9.76628 15.0268 10.6418 15.3453 11.4858L15.8187 12.7549C15.9895 13.215 15.8878 13.6776 15.539 14.0239L14.0181 15.534C13.3751 16.1734 13.0554 16.9907 13.0953 17.905C13.1401 18.8168 13.5337 19.6015 14.2324 20.1731L15.275 21.0341C15.6553 21.3477 15.7982 21.7982 15.6674 22.2741L15.1091 24.3399C14.8694 25.213 15.0001 26.0812 15.493 26.8587C15.9846 27.6203 16.716 28.1035 17.6121 28.2561L18.9466 28.4789C19.4298 28.56 19.7785 28.8797 19.9044 29.3544L20.4542 31.4263C20.6855 32.3043 21.2353 32.9896 22.043 33.4086C22.847 33.8252 23.7225 33.8785 24.5774 33.5624L25.8489 33.0877C26.3067 32.9158 26.768 33.0163 27.1144 33.3638L28.628 34.8908C29.2335 35.4963 29.9928 35.8123 30.8283 35.8123C30.8828 35.8123 30.9373 35.8111 30.993 35.8087C31.9036 35.7687 32.6907 35.3752 33.2659 34.6716L34.1257 33.6302C34.4405 33.2512 34.8934 33.1071 35.3657 33.2355L37.44 33.801ZM32.6362 32.3975L31.7716 33.445C31.5464 33.7198 31.2642 33.8615 30.9046 33.8773C30.5462 33.8942 30.2567 33.7828 30.0024 33.5273L28.4912 32.0015C27.8869 31.3936 27.0974 31.0715 26.2849 31.0715C25.9143 31.0715 25.5389 31.1381 25.1732 31.275L23.9054 31.7472C23.5639 31.8732 23.2551 31.855 22.9366 31.6891C22.6182 31.5244 22.4196 31.2762 22.3287 30.931L21.779 28.8579C21.4593 27.6518 20.4978 26.7751 19.2699 26.5693L17.9379 26.3464C17.5794 26.2859 17.3203 26.1139 17.1265 25.8136C16.9304 25.5036 16.8832 25.1985 16.98 24.8485L17.5383 22.7826C17.8689 21.5802 17.4753 20.339 16.5102 19.5422L15.4627 18.6776C15.1854 18.4511 15.0486 18.175 15.0304 17.8166C15.0147 17.4521 15.1273 17.1627 15.384 16.9084L16.9049 15.3971C17.7877 14.5192 18.0674 13.2477 17.6339 12.0792L17.1592 10.8065C17.0333 10.4698 17.0515 10.1623 17.2149 9.84136C17.3796 9.52289 17.6279 9.32429 17.973 9.23347L20.0498 8.68371C21.2534 8.36523 22.1289 7.40374 22.3348 6.17706L22.5624 4.83777C22.6206 4.48296 22.7913 4.22624 23.0965 4.03007C23.398 3.83753 23.7104 3.7891 24.0555 3.88476L26.1226 4.443C27.3287 4.77238 28.5711 4.37882 29.3619 3.41492L30.2265 2.36746C30.4529 2.09015 30.729 1.95332 31.0874 1.93515C31.4532 1.91941 31.7414 2.03203 31.9957 2.28874L33.5069 3.80968C34.3848 4.69246 35.6563 4.97218 36.8285 4.53867L38.0964 4.06398C38.4318 3.93804 38.7466 3.95621 39.0615 4.11968C39.38 4.28437 39.5785 4.53261 39.6694 4.87773L40.2191 6.9557C40.5388 8.15816 41.5003 9.03488 42.7294 9.24074L44.0687 9.46839C44.4235 9.52652 44.679 9.69605 44.874 10C45.0701 10.3052 45.1162 10.6115 45.0229 10.9603L44.4598 13.0322C44.1353 14.2371 44.5301 15.4771 45.4903 16.269L46.5366 17.13C46.8115 17.3564 46.9519 17.6386 46.9677 17.9982C46.9858 18.3603 46.8744 18.6473 46.6177 18.9016L45.0919 20.4128C44.2067 21.2932 43.9282 22.5659 44.3666 23.7308L44.8389 24.9987C44.9648 25.3402 44.9466 25.6477 44.7807 25.9674C44.6136 26.2907 44.3726 26.4833 44.0227 26.5753L41.9496 27.1251C40.7447 27.4448 39.8667 28.4075 39.6609 29.6378L39.4381 30.9686C39.3775 31.3282 39.2068 31.5862 38.9016 31.7811C38.5965 31.9761 38.2901 32.0233 37.9414 31.9301L35.8707 31.367C34.673 31.0449 33.433 31.4384 32.6362 32.3975ZM37.0501 27.0452C37.7198 26.5632 37.9958 25.7131 37.7379 24.9321L36.263 20.4201L40.1041 17.6398C40.7701 17.1615 41.0486 16.3138 40.7955 15.5267C40.672 15.1477 40.4316 14.8175 40.1087 14.5836C39.7859 14.3497 39.3972 14.2242 38.9985 14.225L34.254 14.2346L32.7949 9.71542L32.7924 9.70937C32.6684 9.33131 32.4281 9.00211 32.1058 8.76877C31.7835 8.53543 31.3957 8.40988 30.9978 8.41003C30.1768 8.41003 29.4551 8.93558 29.2044 9.71542L27.7453 14.2346L22.996 14.225C22.1774 14.225 21.4557 14.7481 21.1989 15.5316C20.9471 16.3138 21.2256 17.1615 21.8892 17.6386L25.7327 20.4201L24.259 24.9296C24.001 25.7095 24.2759 26.5596 24.9407 27.0415C25.608 27.5283 26.5028 27.5271 27.1628 27.0415L30.9978 24.2455L34.8292 27.0391C35.1635 27.2849 35.5546 27.4072 35.9445 27.4072C36.3369 27.4072 36.7232 27.2861 37.0501 27.0452ZM32.1131 22.6591C31.4459 22.1723 30.551 22.1735 29.891 22.6591L26.1505 25.3862L27.5878 20.988C27.847 20.2034 27.5709 19.3533 26.9037 18.8737L23.1546 16.16L27.7852 16.1697C28.6038 16.1697 29.3243 15.6454 29.581 14.8607L31.0027 10.4565L32.4231 14.8571C32.6738 15.6418 33.3955 16.1697 34.2226 16.1697L38.8471 16.16L35.0969 18.8737C34.4308 19.3581 34.156 20.207 34.4127 20.9844L35.8501 25.3825L32.1131 22.6591Z" fill="#00EAFF"/>
<path d="M37.4398 33.801C38.319 34.0371 39.186 33.9027 39.9489 33.4135C40.713 32.9255 41.1986 32.1916 41.3499 31.2919L41.5728 29.9599C41.6539 29.4743 41.9736 29.1243 42.4483 28.9984L44.519 28.4498C45.3969 28.2198 46.0823 27.67 46.5025 26.8611C46.919 26.057 46.9723 25.1815 46.6563 24.3266L46.1816 23.0551C46.0096 22.5974 46.1101 22.136 46.4577 21.7897L47.9822 20.2784C48.6277 19.6366 48.9462 18.8168 48.9026 17.9123C48.8626 17.0041 48.4702 16.2169 47.7679 15.6381L46.7217 14.7771C46.3438 14.4659 46.201 14.013 46.3293 13.5396L46.8924 11.4677C47.1297 10.5897 46.9953 9.72148 46.5061 8.95738C46.0157 8.19085 45.2831 7.70648 44.3906 7.55996L43.0537 7.33351C42.5681 7.25238 42.2182 6.9339 42.0922 6.46164L41.5425 4.38488C41.31 3.50695 40.7614 2.82156 39.9562 2.40378C39.1509 1.98359 38.2729 1.93152 37.4192 2.25242L36.1562 2.72468C35.6936 2.89542 35.2287 2.79371 34.8823 2.44617L33.3723 0.927651C32.7341 0.284643 31.9143 -0.0338334 31.0001 0.0037057C30.0882 0.0485104 29.3035 0.443276 28.732 1.14078L27.8686 2.18581C27.5574 2.56363 27.1081 2.70652 26.631 2.57574L24.5651 2.01749C23.6908 1.77652 22.8214 1.90851 22.0524 2.40015C21.2835 2.893 20.7991 3.62683 20.6526 4.51929L20.4261 5.85617C20.345 6.33933 20.0265 6.68929 19.5543 6.81402L17.4775 7.36378C16.5996 7.59507 15.9142 8.14484 15.4928 8.95617C15.0787 9.76628 15.0266 10.6418 15.3451 11.4858L15.8185 12.7549C15.9893 13.215 15.8876 13.6776 15.5388 14.0239L14.0179 15.534C13.3749 16.1734 13.0552 16.9907 13.0951 17.905C13.1399 18.8168 13.5335 19.6015 14.2322 20.1731L15.2748 21.0341C15.6551 21.3477 15.7979 21.7982 15.6672 22.2741L15.1089 24.3399C14.8692 25.213 14.9999 26.0812 15.4928 26.8587C15.9844 27.6203 16.7158 28.1035 17.6119 28.2561L18.9464 28.4789C19.4295 28.56 19.7783 28.8797 19.9042 29.3544L20.454 31.4263C20.6853 32.3043 21.2351 32.9896 22.0428 33.4086C22.8468 33.8252 23.7223 33.8785 24.5772 33.5624L25.8487 33.0877C26.3065 32.9158 26.7678 33.0163 27.1142 33.3638L28.6278 34.8908C29.2333 35.4963 29.9926 35.8123 30.8281 35.8123C30.8826 35.8123 30.9371 35.8111 30.9928 35.8087C31.9034 35.7687 32.6905 35.3752 33.2657 34.6716L34.1255 33.6302C34.4403 33.2512 34.8932 33.1071 35.3655 33.2355L37.4398 33.801ZM32.636 32.3975L31.7714 33.445C31.5462 33.7198 31.264 33.8615 30.9044 33.8773C30.546 33.8942 30.2565 33.7828 30.0022 33.5273L28.491 32.0015C27.8867 31.3936 27.0972 31.0715 26.2847 31.0715C25.9141 31.0715 25.5387 31.1381 25.173 31.275L23.9052 31.7472C23.5637 31.8732 23.2549 31.855 22.9364 31.6891C22.6179 31.5244 22.4194 31.2762 22.3285 30.931L21.7788 28.8579C21.4591 27.6518 20.4976 26.7751 19.2697 26.5693L17.9377 26.3464C17.5792 26.2859 17.3201 26.1139 17.1263 25.8136C16.9302 25.5036 16.8829 25.1985 16.9798 24.8485L17.5381 22.7826C17.8686 21.5802 17.4751 20.339 16.51 19.5422L15.4625 18.6776C15.1852 18.4511 15.0484 18.175 15.0302 17.8166C15.0145 17.4521 15.1271 17.1627 15.3838 16.9084L16.9047 15.3971C17.7875 14.5192 18.0672 13.2477 17.6337 12.0792L17.159 10.8065C17.0331 10.4698 17.0513 10.1623 17.2147 9.84136C17.3794 9.52288 17.6277 9.32429 17.9728 9.23347L20.0495 8.68371C21.2532 8.36523 22.1287 7.40374 22.3346 6.17706L22.5622 4.83777C22.6204 4.48296 22.7911 4.22624 23.0963 4.03007C23.3978 3.83753 23.7102 3.7891 24.0553 3.88476L26.1224 4.443C27.3285 4.77238 28.5709 4.37882 29.3617 3.41492L30.2263 2.36746C30.4527 2.09015 30.7288 1.95332 31.0872 1.93515C31.4529 1.91941 31.7411 2.03203 31.9954 2.28874L33.5067 3.80968C34.3846 4.69246 35.6561 4.97218 36.8283 4.53867L38.0961 4.06398C38.4316 3.93804 38.7464 3.95621 39.0613 4.11968C39.3797 4.28437 39.5783 4.53261 39.6692 4.87773L40.2189 6.9557C40.5386 8.15816 41.5001 9.03488 42.7292 9.24074L44.0685 9.46839C44.4233 9.52652 44.6788 9.69605 44.8738 10C45.0699 10.3052 45.116 10.6115 45.0227 10.9603L44.4596 13.0322C44.1351 14.2371 44.5299 15.4771 45.4901 16.269L46.5364 17.13C46.8113 17.3564 46.9517 17.6386 46.9675 17.9982C46.9856 18.3603 46.8742 18.6473 46.6175 18.9016L45.0917 20.4128C44.2065 21.2932 43.928 22.5659 44.3664 23.7308L44.8386 24.9987C44.9646 25.3402 44.9464 25.6477 44.7805 25.9674C44.6134 26.2907 44.3724 26.4833 44.0225 26.5753L41.9494 27.1251C40.7445 27.4448 39.8665 28.4075 39.6607 29.6378L39.4379 30.9686C39.3773 31.3282 39.2066 31.5862 38.9014 31.7811C38.5963 31.9761 38.2899 32.0233 37.9412 31.9301L35.8704 31.367C34.6728 31.0449 33.4328 31.4384 32.636 32.3975ZM37.0499 27.0452C37.7195 26.5632 37.9956 25.7131 37.7377 24.9321L36.2628 20.4201L40.1039 17.6398C40.7699 17.1615 41.0484 16.3138 40.7953 15.5267C40.6718 15.1477 40.4314 14.8175 40.1085 14.5836C39.7856 14.3497 39.397 14.2242 38.9983 14.225L34.2538 14.2346L32.7947 9.71542L32.7922 9.70937C32.6682 9.33131 32.4279 9.00211 32.1056 8.76877C31.7833 8.53543 31.3955 8.40988 30.9976 8.41003C30.1766 8.41003 29.4549 8.93558 29.2042 9.71542L27.7451 14.2346L22.9958 14.225C22.1772 14.225 21.4554 14.7481 21.1987 15.5316C20.9469 16.3138 21.2254 17.1615 21.889 17.6386L25.7325 20.4201L24.2588 24.9296C24.0008 25.7095 24.2757 26.5596 24.9405 27.0415C25.6078 27.5283 26.5026 27.5271 27.1626 27.0415L30.9976 24.2455L34.829 27.0391C35.1633 27.2849 35.5544 27.4072 35.9443 27.4072C36.3367 27.4072 36.7229 27.2861 37.0499 27.0452ZM32.1129 22.6591C31.4457 22.1723 30.5508 22.1735 29.8908 22.6591L26.1503 25.3862L27.5876 20.988C27.8468 20.2034 27.5707 19.3533 26.9035 18.8737L23.1544 16.16L27.785 16.1697C28.6036 16.1697 29.3241 15.6454 29.5808 14.8607L31.0025 10.4565L32.4229 14.8571C32.6736 15.6418 33.3953 16.1697 34.2224 16.1697L38.8469 16.16L35.0967 18.8737C34.4306 19.3581 34.1558 20.207 34.4125 20.9844L35.8499 25.3825L32.1129 22.6591Z" fill="white"/>
</svg>
