<svg width="116" height="116" viewBox="0 0 150 150" fill="none" xmlns="http://www.w3.org/2000/svg">
<path d="M109.532 108.25H42.019V46.6764C42.0191 46.4724 41.9789 46.2703 41.9009 46.0818C41.8229 45.8934 41.7085 45.7221 41.5642 45.5778C41.42 45.4336 41.2487 45.3192 41.0602 45.2411C40.8717 45.1631 40.6697 45.123 40.4657 45.123C40.2617 45.123 40.0597 45.1632 39.8712 45.2412C39.6827 45.3193 39.5115 45.4337 39.3672 45.5779C39.223 45.7222 39.1086 45.8934 39.0305 46.0819C38.9525 46.2704 38.9123 46.4724 38.9124 46.6764V109.804C38.9123 110.008 38.9524 110.21 39.0304 110.398C39.1085 110.587 39.2229 110.758 39.3671 110.902C39.5114 111.046 39.6827 111.161 39.8712 111.239C40.0596 111.317 40.2617 111.357 40.4657 111.357H109.532C110.391 111.357 111.086 110.661 111.086 109.804C111.086 108.946 110.391 108.25 109.532 108.25ZM49.6423 126.798C48.7839 126.798 48.089 127.494 48.089 128.351C48.089 129.209 48.7836 129.905 49.6423 129.905C86.7269 129.26 89.6217 131.335 89.6217 128.351C89.6217 125.374 86.7829 127.444 49.6423 126.798Z" fill="white"/>
<path d="M51.6674 103.967H60.656C62.6276 103.967 64.2325 102.362 64.2325 100.39V89.54C64.2325 87.5675 62.6276 85.9626 60.656 85.9626H51.6674C49.6957 85.9626 48.0908 87.5675 48.0908 89.54V100.39C48.0908 102.362 49.6954 103.967 51.6674 103.967ZM51.1972 89.54C51.1972 89.2808 51.4081 89.0689 51.6674 89.0689H60.656C60.9152 89.0689 61.1262 89.2805 61.1262 89.54V100.39C61.1262 100.65 60.9152 100.861 60.656 100.861H51.6674C51.4081 100.861 51.1972 100.65 51.1972 100.39V89.54ZM56.1539 79.9503C60.1945 79.9503 63.4831 76.6626 63.4831 72.6211C63.4831 71.202 63.0583 69.8871 62.3546 68.7644L70.9632 60.3703C72.1192 61.1391 73.5023 61.5926 74.9909 61.5926C76.7613 61.5926 78.3653 60.936 79.6339 59.8869L87.2622 65.8301C86.7981 66.7898 86.5154 67.8527 86.5154 68.9883C86.5154 73.0298 89.7961 76.3175 93.8294 76.3175C97.87 76.3175 101.157 73.0298 101.157 68.9883C101.157 64.9559 97.87 61.6752 93.8294 61.6752C92.0563 61.6752 90.45 62.3347 89.1823 63.3885L81.5602 57.4503C82.0318 56.4829 82.3201 55.4109 82.3201 54.2643C82.3201 50.2318 79.0318 46.9512 74.9909 46.9512C70.9594 46.9512 67.6784 50.2318 67.6784 54.2643C67.6784 55.6881 68.1032 57.0076 68.8069 58.1341L60.1957 66.5306C58.9984 65.7337 57.5922 65.3086 56.1539 65.3089C52.1224 65.3089 48.8414 68.589 48.8414 72.6214C48.8414 76.6626 52.1224 79.9503 56.1539 79.9503ZM93.8294 64.7818C96.1576 64.7818 98.0505 66.6688 98.0505 68.9886C98.0505 71.3168 96.1576 73.2114 93.8294 73.2114C91.5088 73.2114 89.6218 71.3171 89.6218 68.9886C89.6218 66.6686 91.5088 64.7818 93.8294 64.7818ZM74.9909 50.0575C77.3191 50.0575 79.2138 51.9445 79.2138 54.2643C79.2138 56.5925 77.3194 58.4862 74.9909 58.4862C72.6346 58.4862 70.7848 56.5374 70.7848 54.2643C70.7848 51.9445 72.6718 50.0575 74.9909 50.0575ZM56.1539 68.4152C58.519 68.4152 60.3768 70.3608 60.3768 72.6214C60.3768 74.9496 58.4824 76.8442 56.1539 76.8442C53.8348 76.8442 51.9478 74.9499 51.9478 72.6214C51.948 70.302 53.8348 68.4152 56.1539 68.4152Z" fill="white"/>
<path d="M70.5043 67.2993C68.5326 67.2993 66.9277 68.9042 66.9277 70.8759V100.39C66.9277 102.362 68.5326 103.967 70.5043 103.967H79.4929C81.4663 103.967 83.0709 102.362 83.0709 100.39V70.8759C83.0709 68.9042 81.466 67.2993 79.4929 67.2993H70.5043ZM79.9643 70.8759V100.39C79.9643 100.649 79.7519 100.86 79.4926 100.86H70.504C70.2447 100.86 70.0338 100.649 70.0338 100.39V70.8759C70.0338 70.6166 70.2447 70.4057 70.504 70.4057H79.4926C79.7519 70.4057 79.9643 70.6166 79.9643 70.8759ZM98.331 79.7414H89.3425C87.369 79.7414 85.7645 81.3463 85.7645 83.3188V100.39C85.7645 102.362 87.3693 103.967 89.3425 103.967H98.331C100.303 103.967 101.908 102.362 101.908 100.39V83.3188C101.908 81.3463 100.303 79.7414 98.331 79.7414ZM98.8013 100.39C98.8013 100.649 98.5903 100.86 98.331 100.86H89.3425C89.0832 100.86 88.8708 100.649 88.8708 100.39V83.3188C88.8708 83.0596 89.0832 82.8478 89.3425 82.8478H98.331C98.5903 82.8478 98.8013 83.0593 98.8013 83.3188V100.39Z" fill="white"/>
<path d="M107.807 17.0182C107.547 13.4167 104.566 10.5573 100.899 10.5573H86.5655C85.8026 4.85791 80.9033 0.44873 74.9923 0.44873C69.089 0.44873 64.1958 4.85791 63.4344 10.5573H49.0992C45.4324 10.5573 42.4511 13.4167 42.1907 17.0182H33.4599C28.1329 17.0182 23.7996 21.3591 23.7996 26.6946V139.891C23.7996 145.218 28.1332 149.552 33.4599 149.552H116.54C121.867 149.552 126.2 145.218 126.2 139.891V26.6943C126.2 21.3591 121.867 17.0179 116.54 17.0179L107.807 17.0182ZM45.2466 17.5165C45.2466 15.3922 46.9743 13.664 49.0992 13.664H64.8843C65.0883 13.664 65.2903 13.6239 65.4788 13.5458C65.6673 13.4678 65.8385 13.3533 65.9828 13.2091C66.127 13.0648 66.2414 12.8936 66.3195 12.7051C66.3975 12.5166 66.4377 12.3146 66.4376 12.1106C66.4376 7.39356 70.2752 3.55537 74.9923 3.55537C79.717 3.55537 83.5623 7.39356 83.5623 12.1106C83.5622 12.3147 83.6023 12.5167 83.6803 12.7052C83.7584 12.8937 83.8728 13.0649 84.017 13.2092C84.1613 13.3534 84.3326 13.4678 84.5211 13.5459C84.7095 13.6239 84.9116 13.664 85.1156 13.664H100.899C103.024 13.664 104.752 15.3925 104.752 17.5165V26.9357C104.752 29.0601 103.024 30.7883 100.899 30.7883H49.0995C46.9746 30.7883 45.2469 29.0598 45.2469 26.9357L45.2466 17.5165ZM123.094 26.6943V139.89C123.094 143.505 120.154 146.445 116.54 146.445H33.4599C29.8456 146.445 26.9059 143.505 26.9059 139.89V26.6943C26.9059 23.0715 29.8456 20.1245 33.4599 20.1245H42.1406V26.9357C42.1406 30.7733 45.2622 33.8946 49.0995 33.8946H100.899C104.737 33.8946 107.858 30.773 107.858 26.9357V20.1245H116.54C120.155 20.1245 123.094 23.0715 123.094 26.6943Z" fill="#00EAFF"/>
<path d="M102.728 119.994H47.2701C42.662 119.994 38.9126 123.744 38.9126 128.352C38.9126 132.96 42.662 136.709 47.2701 136.709H102.728C107.336 136.709 111.086 132.96 111.086 128.352C111.086 123.744 107.336 119.994 102.728 119.994ZM102.728 133.603H47.2701C44.3747 133.603 42.0189 131.247 42.0189 128.352C42.0189 125.456 44.3744 123.1 47.2701 123.1H102.728C105.624 123.1 107.979 125.456 107.979 128.352C107.979 131.247 105.624 133.603 102.728 133.603ZM74.9923 18.1778C78.3383 18.1778 81.0594 15.4559 81.0594 12.1107C81.0594 8.77295 78.3383 6.05713 74.9923 6.05713C71.6539 6.05713 68.9387 8.77295 68.9387 12.1107C68.939 15.4559 71.6539 18.1778 74.9923 18.1778ZM74.9923 9.16348C76.6244 9.16348 77.953 10.4854 77.953 12.1104C77.953 13.7432 76.6244 15.0712 74.9923 15.0712C73.3678 15.0712 72.0453 13.7432 72.0453 12.1104C72.0453 10.4854 73.3678 9.16348 74.9923 9.16348Z" fill="#00EAFF"/>
</svg>
