<svg width="116" height="116" viewBox="0 0 116 116" fill="none" xmlns="http://www.w3.org/2000/svg">
<path d="M75.6459 67.1715H36.7791C36.1139 67.1715 35.5756 67.7098 35.5756 68.375C35.5756 69.0401 36.1139 69.5785 36.7791 69.5785H75.6459C76.311 69.5785 76.8493 69.0401 76.8493 68.375C76.8493 67.7098 76.311 67.1715 75.6459 67.1715ZM64.4677 76.4105H36.7791C36.1139 76.4105 35.5756 76.9488 35.5756 77.614C35.5756 78.2791 36.1139 78.8175 36.7791 78.8175H64.4677C64.6258 78.8175 64.7823 78.7864 64.9283 78.726C65.0744 78.6655 65.2071 78.5769 65.3188 78.4651C65.4306 78.3533 65.5193 78.2206 65.5797 78.0746C65.6402 77.9285 65.6713 77.772 65.6712 77.614C65.6713 77.4559 65.6403 77.2993 65.5798 77.1533C65.5194 77.0072 65.4308 76.8745 65.319 76.7627C65.2072 76.6509 65.0745 76.5623 64.9284 76.5018C64.7823 76.4414 64.6258 76.4103 64.4677 76.4105ZM64.4677 85.6492H36.7791C36.1139 85.6492 35.5756 86.1875 35.5756 86.8527C35.5756 87.5179 36.1139 88.0562 36.7791 88.0562H64.4677C65.1329 88.0562 65.6712 87.5179 65.6712 86.8527C65.6712 86.1875 65.1329 85.6492 64.4677 85.6492ZM64.4677 94.8882H36.7791C36.1139 94.8882 35.5756 95.4265 35.5756 96.0917C35.5756 96.7569 36.1139 97.2952 36.7791 97.2952H64.4677C65.1329 97.2952 65.6712 96.7569 65.6712 96.0917C65.6712 95.4265 65.1329 94.8882 64.4677 94.8882ZM12.2002 57.6681H14.9844C17.1823 57.6681 18.9699 55.8805 18.9699 53.6826V14.9733C18.9699 14.858 18.8931 14.5319 18.829 14.4114L15.9364 8.93358C15.6727 8.43446 15.2572 8.06154 14.7726 7.81889C14.7132 7.20898 14.2171 6.72754 13.5917 6.72754C12.9662 6.72754 12.4696 7.20944 12.4107 7.81934C11.927 8.06199 11.5121 8.43491 11.2493 8.93358L8.35589 14.4116C8.29132 14.5344 8.21497 14.8575 8.21497 14.9735V53.6828C8.21474 55.8805 10.0023 57.6681 12.2002 57.6681ZM13.3779 10.0571C13.4665 9.88786 13.7164 9.88446 13.8081 10.0571L15.7686 13.7698H11.4163L13.3779 10.0571ZM10.6217 16.1768H16.5629V48.3081H10.6217V16.1768ZM10.6217 50.7151H16.5629V53.6826C16.5626 54.1012 16.3962 54.5025 16.1002 54.7984C15.8043 55.0944 15.403 55.2608 14.9844 55.2611H12.2002C11.7817 55.2608 11.3803 55.0944 11.0844 54.7984C10.7884 54.5025 10.622 54.1012 10.6217 53.6826V50.7151ZM58.261 19.7814C58.103 19.7813 57.9464 19.8124 57.8004 19.8729C57.6544 19.9333 57.5217 20.022 57.4099 20.1338C57.2981 20.2455 57.2095 20.3782 57.149 20.5243C57.0886 20.6703 57.0575 20.8268 57.0575 20.9849V38.4039C57.0575 38.562 57.0886 38.7185 57.149 38.8645C57.2095 39.0106 57.2981 39.1433 57.4099 39.2551C57.5217 39.3668 57.6544 39.4555 57.8004 39.5159C57.9464 39.5764 58.103 39.6075 58.261 39.6074H75.6764C76.3416 39.6074 76.8799 39.0657 76.8799 38.4003C76.8799 28.1343 68.527 19.7814 58.261 19.7814ZM59.4645 37.2004V22.233C67.447 22.8219 73.8417 29.2166 74.4294 37.2004H59.4645Z" fill="white"/>
<path d="M54.1639 61.1236C64.4287 61.1236 72.7816 52.7696 72.7839 42.5011C72.7837 42.182 72.6569 41.876 72.4312 41.6503C72.2055 41.4246 71.8995 41.2978 71.5804 41.2976H55.3674V25.0809C55.3674 24.9229 55.3363 24.7664 55.2759 24.6203C55.2154 24.4743 55.1268 24.3416 55.015 24.2298C54.9032 24.118 54.7705 24.0294 54.6245 23.9689C54.4785 23.9085 54.3219 23.8774 54.1639 23.8774C43.8965 23.8774 35.5438 32.2301 35.5438 42.4975C35.5438 52.7685 43.8965 61.1236 54.1639 61.1236ZM52.9604 26.3293V42.5013C52.9603 42.6594 52.9914 42.8159 53.0519 42.962C53.1123 43.108 53.201 43.2407 53.3127 43.3525C53.4245 43.4642 53.5572 43.5529 53.7032 43.6133C53.8493 43.6738 54.0058 43.7049 54.1639 43.7048H70.3323C69.7129 52.0858 62.6964 58.7169 54.1639 58.7169C45.2235 58.7169 37.9508 51.4406 37.9508 42.4979C37.9508 33.9626 44.5805 26.9462 52.9604 26.3293ZM82.3274 93.5533H81.44C80.7748 93.5533 80.2365 94.0917 80.2365 94.7568C80.2365 95.422 80.7748 95.9603 81.44 95.9603H82.3274C82.9926 95.9603 83.5309 95.422 83.5309 94.7568C83.5309 94.0917 82.9926 93.5533 82.3274 93.5533ZM88.1603 93.5533H87.2728C86.6076 93.5533 86.0693 94.0917 86.0693 94.7568C86.0693 95.422 86.6076 95.9603 87.2728 95.9603H88.1603C88.8254 95.9603 89.3638 95.422 89.3638 94.7568C89.3638 94.0917 88.8254 93.5533 88.1603 93.5533ZM93.9933 93.5533H93.1059C92.4407 93.5533 91.9024 94.0917 91.9024 94.7568C91.9024 95.422 92.4407 95.9603 93.1059 95.9603H93.9933C94.6585 95.9603 95.1968 95.422 95.1968 94.7568C95.1968 94.0917 94.6585 93.5533 93.9933 93.5533ZM99.8273 93.5533H98.9387C98.2736 93.5533 97.7352 94.0917 97.7352 94.7568C97.7352 95.422 98.2736 95.9603 98.9387 95.9603H99.8273C100.493 95.9603 101.031 95.422 101.031 94.7568C101.031 94.0917 100.493 93.5533 99.8273 93.5533ZM82.3274 98.5565H81.44C80.7748 98.5565 80.2365 99.0948 80.2365 99.76C80.2365 100.425 80.7748 100.964 81.44 100.964H82.3274C82.9926 100.964 83.5309 100.425 83.5309 99.76C83.5309 99.0948 82.9926 98.5565 82.3274 98.5565ZM88.1603 98.5565H87.2728C86.6076 98.5565 86.0693 99.0948 86.0693 99.76C86.0693 100.425 86.6076 100.964 87.2728 100.964H88.1603C88.8254 100.964 89.3638 100.425 89.3638 99.76C89.3638 99.0948 88.8254 98.5565 88.1603 98.5565ZM93.9933 98.5565H93.1059C92.4407 98.5565 91.9024 99.0948 91.9024 99.76C91.9024 100.425 92.4407 100.964 93.1059 100.964H93.9933C94.6585 100.964 95.1968 100.425 95.1968 99.76C95.1968 99.0948 94.6585 98.5565 93.9933 98.5565ZM99.8273 98.5565H98.9387C98.2736 98.5565 97.7352 99.0948 97.7352 99.76C97.7352 100.425 98.2736 100.964 98.9387 100.964H99.8273C100.493 100.964 101.031 100.425 101.031 99.76C101.031 99.0948 100.493 98.5565 99.8273 98.5565ZM82.3274 103.56H81.44C80.7748 103.56 80.2365 104.098 80.2365 104.763C80.2365 105.428 80.7748 105.967 81.44 105.967H82.3274C82.9926 105.967 83.5309 105.428 83.5309 104.763C83.5309 104.098 82.9926 103.56 82.3274 103.56ZM88.1603 103.56H87.2728C86.6076 103.56 86.0693 104.098 86.0693 104.763C86.0693 105.428 86.6076 105.967 87.2728 105.967H88.1603C88.8254 105.967 89.3638 105.428 89.3638 104.763C89.3638 104.098 88.8254 103.56 88.1603 103.56ZM93.9933 103.56H93.1059C92.4407 103.56 91.9024 104.098 91.9024 104.763C91.9024 105.428 92.4407 105.967 93.1059 105.967H93.9933C94.6585 105.967 95.1968 105.428 95.1968 104.763C95.1968 104.098 94.6585 103.56 93.9933 103.56ZM82.3274 108.563H81.44C80.7748 108.563 80.2365 109.101 80.2365 109.766C80.2365 110.432 80.7748 110.97 81.44 110.97H82.3274C82.9926 110.97 83.5309 110.432 83.5309 109.766C83.5309 109.101 82.9926 108.563 82.3274 108.563ZM88.1603 108.563H87.2728C86.6076 108.563 86.0693 109.101 86.0693 109.766C86.0693 110.432 86.6076 110.97 87.2728 110.97H88.1603C88.8254 110.97 89.3638 110.432 89.3638 109.766C89.3638 109.101 88.8254 108.563 88.1603 108.563ZM93.9933 108.563H93.1059C92.4407 108.563 91.9024 109.101 91.9024 109.766C91.9024 110.432 92.4407 110.97 93.1059 110.97H93.9933C94.6585 110.97 95.1968 110.432 95.1968 109.766C95.1968 109.101 94.6585 108.563 93.9933 108.563ZM99.383 103.56C99.225 103.56 99.0684 103.591 98.9224 103.651C98.7764 103.712 98.6437 103.8 98.5319 103.912C98.4201 104.024 98.3315 104.157 98.271 104.303C98.2106 104.449 98.1795 104.605 98.1795 104.763V109.766C98.1795 110.432 98.7178 110.97 99.383 110.97C100.048 110.97 100.587 110.432 100.587 109.766V104.763C100.587 104.605 100.555 104.449 100.495 104.303C100.435 104.157 100.346 104.024 100.234 103.912C100.122 103.8 99.9897 103.712 99.8437 103.651C99.6976 103.591 99.5411 103.56 99.383 103.56Z" fill="white"/>
<path d="M101.285 71.5694H91.0727V63.5183L103.097 26.4041C104.245 22.8723 102.333 19.0445 98.7602 17.8951L91.0727 15.4086V13.4914C91.0727 9.76223 88.044 6.72765 84.3218 6.72765H64.305L45.2799 0.564468C41.7317 -0.588508 37.9107 1.36242 36.7566 4.91424L36.1714 6.72765H28.1065C24.3772 6.72765 21.3427 9.76223 21.3427 13.4914V52.4867L9.31717 89.6044C8.17711 93.1397 10.1269 96.9559 13.6669 98.1112L21.3427 100.596V102.514C21.3427 106.237 24.3772 109.266 28.1065 109.266H48.0868L67.1531 115.442C69.9684 116.348 72.9887 115.305 74.6771 113.01C75.8552 114.675 77.7921 115.767 79.9827 115.767H101.285C104.869 115.767 107.785 112.85 107.785 109.266V78.0699C107.785 74.4852 104.869 71.5694 101.285 71.5694ZM91.0727 17.9377L98.0209 20.1857C100.295 20.9161 101.555 23.361 100.807 25.6601L91.0725 55.7086V17.9377H91.0727ZM21.3427 98.067L14.4108 95.8229C12.1306 95.0777 10.8743 92.6202 11.6077 90.3448L21.3427 60.2963V98.067ZM39.0474 5.65578C39.7901 3.36863 42.2535 2.10872 44.5361 2.85388L56.4947 6.72765H38.7014L39.0474 5.65578ZM73.3668 110.353C72.6335 112.629 70.1737 113.887 67.8924 113.151L55.8975 109.266H73.4822C73.4822 109.481 73.4026 110.082 73.3668 110.353ZM73.4822 78.0699V106.859H28.1065C25.7042 106.859 23.7497 104.91 23.7497 102.514V13.4914C23.7497 11.0892 25.7042 9.13465 28.1065 9.13465H84.3216C86.7168 9.13465 88.6655 11.0892 88.6655 13.4914V71.5696H79.9825C76.398 71.5694 73.4822 74.4852 73.4822 78.0699ZM105.378 109.266C105.378 111.523 103.542 113.36 101.285 113.36H79.9827C77.725 113.36 75.8892 111.523 75.8892 109.266V78.0699C75.8892 75.8122 77.725 73.9764 79.9827 73.9764H101.285C103.542 73.9764 105.378 75.8122 105.378 78.0699V109.266Z" fill="#00EAFF"/>
<path d="M99.261 75.7148H82.0066C80.0591 75.7148 78.475 77.2992 78.475 79.2454V87.5265C78.475 89.474 80.0593 91.0581 82.0066 91.0581H99.261C101.208 91.0581 102.793 89.4738 102.793 87.5265V79.2454C102.793 77.299 101.208 75.7148 99.261 75.7148ZM100.386 87.5265C100.385 87.8247 100.267 88.1106 100.056 88.3215C99.8451 88.5324 99.5592 88.6509 99.261 88.6511H82.0066C81.7084 88.6509 81.4225 88.5324 81.2116 88.3215C81.0007 88.1106 80.8822 87.8247 80.882 87.5265V79.2454C80.8824 78.9473 81.0011 78.6616 81.2119 78.451C81.4228 78.2403 81.7086 78.122 82.0066 78.1218H99.261C99.559 78.122 99.8448 78.2403 100.056 78.451C100.267 78.6616 100.385 78.9473 100.386 79.2454V87.5265Z" fill="white"/>
</svg>
