<svg width="32" height="32" viewBox="0 0 32 32" fill="none" xmlns="http://www.w3.org/2000/svg">
<path d="M27.2489 14.5481C26.5677 13.4518 25.1877 12.1481 22.3755 12.1481C21.1878 12.1481 20.3144 11.9259 19.8602 11.4963C19.3887 11.037 19.4585 10.4593 19.4585 10.4444C19.4585 10.4 19.4759 10.3555 19.4759 10.3111V6.02962C19.4759 5.99998 19.4759 5.95555 19.4759 5.92591C19.3712 5.15554 18.62 4 16.9956 4H15.0567C13.4323 4 12.5938 5.11111 12.3668 5.7778C12.3318 5.86667 12.3144 5.94075 12.3144 6.02967V10.3112C12.3144 10.3704 12.3144 10.4149 12.3318 10.4741C12.3318 10.4741 12.4192 11.0667 12 11.4963C11.5633 11.926 10.7074 12.1482 9.50217 12.1482C6.67247 12.1482 5.31004 13.4667 4.68122 14.563C4.03495 15.6741 4 16.7556 4 16.8741C4 17.1111 4.10478 17.3333 4.29697 17.5111C4.48909 17.6741 4.76855 17.7778 5.04808 17.7778H5.48478V27.1111C5.48478 27.6 5.95637 28 6.5328 28H25.5546C26.131 28 26.6201 27.6 26.6201 27.1111V17.7778H26.952C27.5284 17.7778 28 17.3778 28 16.8889C28 16.8445 28 16.8001 27.9826 16.7704C27.9651 16.4593 27.8428 15.5111 27.2489 14.5481ZM24.524 26.2222H22.7772V21.1852C22.7772 20.6963 22.3056 20.2963 21.7292 20.2963C21.1528 20.2963 20.6812 20.6963 20.6812 21.1852V26.2222H19.1091V22.8148C19.1091 22.3259 18.6375 21.926 18.0611 21.926C17.4847 21.926 17.0131 22.3259 17.0131 22.8148V26.2222H15.2664V22.5185C15.2664 22.0296 14.7948 21.6297 14.2183 21.6297C13.6419 21.6297 13.1703 22.0296 13.1703 22.5185V26.2222H11.2489V21.1852C11.2489 20.6963 10.7773 20.2963 10.2009 20.2963C9.62446 20.2963 9.15287 20.6963 9.15287 21.1852V26.2222H7.58075V17.7778H24.524V26.2222ZM6.56768 15.363C7.12661 14.4 8.08735 13.9259 9.50217 13.9259C11.3711 13.9259 12.7336 13.4963 13.5895 12.637C14.5153 11.6889 14.4454 10.5926 14.393 10.2519V6.19262C14.4804 6.04447 14.6725 5.7778 15.0218 5.7778H16.9607C17.048 5.7778 17.2751 5.7778 17.345 6.10375V10.2519C17.3101 10.5779 17.2577 11.689 18.2359 12.6371C19.1092 13.4963 20.4891 13.926 22.3582 13.926C23.773 13.926 24.7512 14.3852 25.345 15.3334C25.4848 15.5556 25.5896 15.7927 25.6769 16.0001H6.27072C6.34061 15.7926 6.42795 15.5704 6.56768 15.363Z" fill="#00EAFF"/>
</svg>
