<svg width="49" height="43" viewBox="0 0 49 43" fill="none" xmlns="http://www.w3.org/2000/svg">
<path fill-rule="evenodd" clip-rule="evenodd" d="M39.27 21.08V39.08C39.27 40.74 40.61 42.08 42.27 42.08C43.93 42.08 45.27 40.74 45.27 39.08V21.08C45.27 19.42 43.93 18.08 42.27 18.08C40.61 18.08 39.27 19.42 39.27 21.08ZM30.27 24.08C28.61 24.08 27.27 25.42 27.27 27.08V39.08C27.27 40.74 28.61 42.08 30.27 42.08C31.93 42.08 33.27 40.74 33.27 39.08V27.08C33.27 25.42 31.93 24.08 30.27 24.08ZM3.26999 30.08V39.08C3.26999 40.74 4.60999 42.08 6.26999 42.08C7.92999 42.08 9.26999 40.74 9.26999 39.08V30.08C9.26999 28.42 7.92999 27.08 6.26999 27.08C4.60999 27.08 3.26999 28.42 3.26999 30.08ZM15.27 21.08V39.08C15.27 40.74 16.61 42.08 18.27 42.08C19.93 42.08 21.27 40.74 21.27 39.08V21.08C21.27 19.42 19.93 18.08 18.27 18.08C16.61 18.08 15.27 19.42 15.27 21.08ZM47.14 5.41997C48.43 4.38997 48.64 2.5 47.61 1.2C46.58 -0.0900028 44.68 -0.300035 43.39 0.729965L30.21 11.28L20.07 3.67998C18.97 2.84998 17.46 2.87998 16.4 3.73998L1.39999 15.74C0.109991 16.77 -0.10001 18.67 0.92999 19.96C1.95999 21.25 3.84999 21.46 5.14999 20.43L18.33 9.87999L28.47 17.48C29.57 18.31 31.08 18.28 32.15 17.42L47.15 5.41997H47.14Z" fill="#00EAFF"/>
</svg>
