<svg width="62" height="62" viewBox="0 0 62 62" fill="none" xmlns="http://www.w3.org/2000/svg">
<path d="M57.1527 0.939453H4.84721C2.79933 0.939453 1.146 2.60218 1.146 4.64067V57.3595C1.146 59.3979 2.80872 61.0607 4.84721 61.0607H57.1621C59.2005 61.0607 60.8633 59.3979 60.8633 57.3595V4.64067C60.8593 3.65864 60.4668 2.71811 59.7715 2.02458C59.0762 1.33106 58.1347 0.940935 57.1527 0.939453ZM4.84721 2.75248H57.1621C58.2048 2.75248 59.0502 3.59794 59.0502 4.64067V8.50157H2.94963V4.64067C2.94963 3.59794 3.80448 2.75248 4.84721 2.75248ZM57.1527 59.2476H4.84721C3.80448 59.2476 2.95903 58.4022 2.95903 57.3595V10.3146H59.0502V57.3595C59.0502 58.4022 58.1954 59.2476 57.1527 59.2476Z" fill="#00EAFF"/>
<path d="M51.103 7.02678H53.1979C53.437 7.02678 53.6664 6.93177 53.8355 6.76264C54.0047 6.59352 54.0997 6.36414 54.0997 6.12496C54.0997 5.88579 54.0047 5.6564 53.8355 5.48728C53.6664 5.31816 53.437 5.22314 53.1979 5.22314H51.103C50.8638 5.22314 50.6345 5.31816 50.4653 5.48728C50.2962 5.6564 50.2012 5.88579 50.2012 6.12496C50.2012 6.36414 50.2962 6.59352 50.4653 6.76264C50.6345 6.93177 50.8638 7.02678 51.103 7.02678ZM45.57 7.02678H47.6648C47.904 7.02678 48.1334 6.93177 48.3025 6.76264C48.4716 6.59352 48.5667 6.36414 48.5667 6.12496C48.5667 5.88579 48.4716 5.6564 48.3025 5.48728C48.1334 5.31816 47.904 5.22314 47.6648 5.22314H45.57C45.3308 5.22314 45.1014 5.31816 44.9323 5.48728C44.7632 5.6564 44.6682 5.88579 44.6682 6.12496C44.6682 6.36414 44.7632 6.59352 44.9323 6.76264C45.1014 6.93177 45.3308 7.02678 45.57 7.02678ZM40.0464 7.02678H42.1412C42.3804 7.02678 42.6098 6.93177 42.7789 6.76264C42.948 6.59352 43.043 6.36414 43.043 6.12496C43.043 5.88579 42.948 5.6564 42.7789 5.48728C42.6098 5.31816 42.3804 5.22314 42.1412 5.22314H40.0464C39.8072 5.22314 39.5778 5.31816 39.4087 5.48728C39.2395 5.6564 39.1445 5.88579 39.1445 6.12496C39.1445 6.36414 39.2395 6.59352 39.4087 6.76264C39.5778 6.93177 39.8072 7.02678 40.0464 7.02678Z" fill="white"/>
<path fill-rule="evenodd" clip-rule="evenodd" d="M10.6142 40.7196H20.9006C21.1398 40.7196 21.3691 40.8146 21.5383 40.9837C21.7074 41.1528 21.8024 41.3822 21.8024 41.6214V51.222C21.8024 51.7199 21.3985 52.1238 20.9006 52.1238H10.6142C10.1163 52.1238 9.7124 51.7199 9.7124 51.222V41.6214C9.7124 41.3822 9.80742 41.1528 9.97654 40.9837C10.1457 40.8146 10.375 40.7196 10.6142 40.7196ZM11.5254 50.3202H19.9988V42.5326H11.5254V50.3202ZM25.8606 40.7196H36.1376C36.6448 40.7196 37.0488 41.1235 37.0488 41.6214V51.222C37.0488 51.7199 36.6448 52.1238 36.1469 52.1238H25.8606C25.3627 52.1238 24.9588 51.7199 24.9588 51.222V41.6214C24.9588 41.3822 25.0538 41.1528 25.2229 40.9837C25.392 40.8146 25.6214 40.7196 25.8606 40.7196ZM26.7624 50.3202H35.2357V42.5326H26.7624V50.3202ZM41.0976 40.7196H51.3839C51.6231 40.7196 51.8525 40.8146 52.0216 40.9837C52.1907 41.1528 52.2857 41.3822 52.2857 41.6214V51.222C52.2857 51.7199 51.8818 52.1238 51.3839 52.1238H41.0976C40.5997 52.1238 40.1957 51.7199 40.1957 51.222V41.6214C40.1957 41.3822 40.2907 41.1528 40.4599 40.9837C40.629 40.8146 40.8584 40.7196 41.0976 40.7196ZM42.0088 50.3202H50.4821V42.5326H42.0088V50.3202Z" fill="white"/>
<rect x="7" y="15" width="48" height="22" rx="1" stroke="#00EAFF" stroke-width="1.5"/>
<path d="M30.9237 18.5C28.293 21.5253 24.0844 28.5576 24 36.5" stroke="#00EAFF" stroke-width="1.5"/>
<path d="M30.4238 18C33.1099 21.1183 37.4235 28.4085 37.4238 36.6137" stroke="#00EAFF" stroke-width="1.5"/>
<mask id="path-7-inside-1_1076_238" fill="white">
<path d="M31.1211 17.3418C41.1427 17.342 49.2673 25.4657 49.2676 35.4873C49.2676 35.9966 49.2452 36.5013 49.2041 37H13.0381C12.9969 36.5013 12.9746 35.9966 12.9746 35.4873C12.9748 25.4656 21.0993 17.3418 31.1211 17.3418Z"/>
</mask>
<path d="M31.1211 17.3418L31.1211 15.8418H31.1211V17.3418ZM49.2676 35.4873H50.7676V35.4873L49.2676 35.4873ZM49.2041 37V38.5H50.5854L50.699 37.1233L49.2041 37ZM13.0381 37L11.5432 37.1233L11.6568 38.5H13.0381V37ZM12.9746 35.4873L11.4746 35.4873V35.4873H12.9746ZM31.1211 17.3418L31.1211 18.8418C40.3144 18.842 47.7674 26.2942 47.7676 35.4873L49.2676 35.4873L50.7676 35.4873C50.7673 24.6371 41.9711 15.842 31.1211 15.8418L31.1211 17.3418ZM49.2676 35.4873H47.7676C47.7676 35.9528 47.7472 36.4163 47.7092 36.8767L49.2041 37L50.699 37.1233C50.7433 36.5864 50.7676 36.0404 50.7676 35.4873H49.2676ZM49.2041 37V35.5H13.0381V37V38.5H49.2041V37ZM13.0381 37L14.533 36.8767C14.495 36.4163 14.4746 35.9528 14.4746 35.4873H12.9746H11.4746C11.4746 36.0404 11.4989 36.5864 11.5432 37.1233L13.0381 37ZM12.9746 35.4873L14.4746 35.4873C14.4748 26.2941 21.9277 18.8418 31.1211 18.8418V17.3418V15.8418C20.2709 15.8418 11.4749 24.6371 11.4746 35.4873L12.9746 35.4873Z" fill="#00EAFF" mask="url(#path-7-inside-1_1076_238)"/>
<path d="M16 27H46" stroke="#00EAFF" stroke-width="1.5"/>
<path d="M12 55H19" stroke="white" stroke-width="1.5" stroke-linecap="round"/>
<path d="M27 55H35" stroke="white" stroke-width="1.5" stroke-linecap="round"/>
<path d="M43 55H50" stroke="white" stroke-width="1.5" stroke-linecap="round"/>
</svg>
