<svg width="62" height="62" viewBox="0 0 114 114" fill="none" xmlns="http://www.w3.org/2000/svg">
<path d="M105.094 5.34375H8.90625C7.48951 5.3454 6.13126 5.90893 5.12947 6.91072C4.12768 7.91251 3.56415 9.27076 3.5625 10.6875V103.312C3.56415 104.729 4.12768 106.087 5.12947 107.089C6.13126 108.091 7.48951 108.655 8.90625 108.656H105.094C106.51 108.655 107.869 108.091 108.871 107.089C109.872 106.087 110.436 104.729 110.438 103.312V10.6875C110.436 9.27076 109.872 7.91251 108.871 6.91072C107.869 5.90893 106.51 5.3454 105.094 5.34375ZM8.90625 8.90625H105.094C105.566 8.90678 106.019 9.09462 106.353 9.42855C106.687 9.76249 106.874 10.2152 106.875 10.6875V19.5938H7.125V10.6875C7.12553 10.2152 7.31337 9.76249 7.6473 9.42855C7.98124 9.09462 8.434 8.90678 8.90625 8.90625ZM105.094 105.094H8.90625C8.434 105.093 7.98124 104.905 7.6473 104.571C7.31337 104.238 7.12553 103.785 7.125 103.312V23.1562H106.875V103.312C106.874 103.785 106.687 104.238 106.353 104.571C106.019 104.905 105.566 105.093 105.094 105.094Z" fill="#00EAFF"/>
<path d="M26.7188 16.0312C27.7025 16.0312 28.5 15.2338 28.5 14.25C28.5 13.2662 27.7025 12.4688 26.7188 12.4688C25.735 12.4688 24.9375 13.2662 24.9375 14.25C24.9375 15.2338 25.735 16.0312 26.7188 16.0312Z" fill="white"/>
<path d="M19.5938 16.0312C20.5775 16.0312 21.375 15.2338 21.375 14.25C21.375 13.2662 20.5775 12.4688 19.5938 12.4688C18.61 12.4688 17.8125 13.2662 17.8125 14.25C17.8125 15.2338 18.61 16.0312 19.5938 16.0312Z" fill="white"/>
<path d="M12.4688 16.0312C13.4525 16.0312 14.25 15.2338 14.25 14.25C14.25 13.2662 13.4525 12.4688 12.4688 12.4688C11.485 12.4688 10.6875 13.2662 10.6875 14.25C10.6875 15.2338 11.485 16.0312 12.4688 16.0312Z" fill="white"/>
<path d="M97.9688 30.2812H16.0312C15.5588 30.2812 15.1058 30.4689 14.7717 30.803C14.4377 31.137 14.25 31.5901 14.25 32.0625V60.5625C14.25 61.0349 14.4377 61.488 14.7717 61.822C15.1058 62.1561 15.5588 62.3438 16.0312 62.3438H97.9688C98.4412 62.3438 98.8942 62.1561 99.2283 61.822C99.5623 61.488 99.75 61.0349 99.75 60.5625V32.0625C99.75 31.5901 99.5623 31.137 99.2283 30.803C98.8942 30.4689 98.4412 30.2812 97.9688 30.2812ZM68.7672 56.6582L73.0312 52.3939L79.4186 58.7812H70.3594L68.7672 56.6582ZM65.9062 58.7812H51.6562L58.7812 49.2812L65.9062 58.7812ZM47.2031 58.7812H33.7024L42.75 45.8561L49.5795 55.6126L47.2031 58.7812ZM96.1875 58.7812H84.4564L74.2908 48.6154C74.1254 48.45 73.929 48.3188 73.7129 48.2293C73.4968 48.1398 73.2652 48.0937 73.0312 48.0937C72.7973 48.0937 72.5657 48.1398 72.3496 48.2293C72.1335 48.3188 71.9371 48.45 71.7717 48.6154L66.6078 53.7793L60.2062 45.2437C60.0403 45.0225 59.8252 44.843 59.5778 44.7193C59.3305 44.5956 59.0578 44.5312 58.7812 44.5312C58.5047 44.5312 58.232 44.5956 57.9847 44.7193C57.7373 44.843 57.5222 45.0225 57.3563 45.2437L51.8288 52.6137L44.2093 41.7285C44.0451 41.4938 43.8267 41.3022 43.5726 41.17C43.3186 41.0377 43.0364 40.9686 42.75 40.9686C42.4636 40.9686 42.1814 41.0377 41.9274 41.17C41.6733 41.3022 41.4549 41.4938 41.2907 41.7285L29.3539 58.7812H17.8125V33.8438H96.1875V58.7812Z" fill="#00EAFF"/>
<path d="M67.6875 44.5312C68.6713 44.5312 69.4688 43.7338 69.4688 42.75C69.4688 41.7662 68.6713 40.9688 67.6875 40.9688C66.7037 40.9688 65.9062 41.7662 65.9062 42.75C65.9062 43.7338 66.7037 44.5312 67.6875 44.5312Z" fill="white"/>
<path d="M64.125 69.4688C65.1088 69.4688 65.9062 68.6713 65.9062 67.6875C65.9062 66.7037 65.1088 65.9062 64.125 65.9062C63.1412 65.9062 62.3438 66.7037 62.3438 67.6875C62.3438 68.6713 63.1412 69.4688 64.125 69.4688Z" fill="white"/>
<path d="M57 69.4688C57.9838 69.4688 58.7812 68.6713 58.7812 67.6875C58.7812 66.7037 57.9838 65.9062 57 65.9062C56.0162 65.9062 55.2188 66.7037 55.2188 67.6875C55.2188 68.6713 56.0162 69.4688 57 69.4688Z" fill="white"/>
<path d="M49.875 69.4688C50.8588 69.4688 51.6562 68.6713 51.6562 67.6875C51.6562 66.7037 50.8588 65.9062 49.875 65.9062C48.8912 65.9062 48.0938 66.7037 48.0938 67.6875C48.0938 68.6713 48.8912 69.4688 49.875 69.4688Z" fill="white"/>
<path d="M37.4062 73.0312H16.0312C15.5588 73.0312 15.1058 73.2189 14.7717 73.553C14.4377 73.887 14.25 74.3401 14.25 74.8125V89.0625C14.25 89.5349 14.4377 89.988 14.7717 90.322C15.1058 90.6561 15.5588 90.8438 16.0312 90.8438H37.4062C37.8787 90.8438 38.3317 90.6561 38.6658 90.322C38.9998 89.988 39.1875 89.5349 39.1875 89.0625V74.8125C39.1875 74.3401 38.9998 73.887 38.6658 73.553C38.3317 73.2189 37.8787 73.0312 37.4062 73.0312ZM35.625 76.5938V86.7814L27.832 80.547C27.5161 80.2941 27.1235 80.1562 26.7188 80.1562C26.314 80.1562 25.9214 80.2941 25.6055 80.547L17.8125 86.7814V76.5938H35.625ZM30.5471 87.2812H22.8904L26.7188 84.2186L30.5471 87.2812ZM67.6875 73.0312H46.3125C45.8401 73.0312 45.387 73.2189 45.053 73.553C44.7189 73.887 44.5312 74.3401 44.5312 74.8125V89.0625C44.5312 89.5349 44.7189 89.988 45.053 90.322C45.387 90.6561 45.8401 90.8438 46.3125 90.8438H67.6875C68.1599 90.8438 68.613 90.6561 68.947 90.322C69.2811 89.988 69.4688 89.5349 69.4688 89.0625V74.8125C69.4688 74.3401 69.2811 73.887 68.947 73.553C68.613 73.2189 68.1599 73.0312 67.6875 73.0312ZM65.9062 76.5938V86.7814L58.1133 80.547C57.7974 80.2941 57.4047 80.1562 57 80.1562C56.5953 80.1562 56.2026 80.2941 55.8867 80.547L48.0938 86.7814V76.5938H65.9062ZM60.8284 87.2812H53.1716L57 84.2186L60.8284 87.2812ZM97.9688 73.0312H76.5938C76.1213 73.0312 75.6683 73.2189 75.3342 73.553C75.0002 73.887 74.8125 74.3401 74.8125 74.8125V89.0625C74.8125 89.5349 75.0002 89.988 75.3342 90.322C75.6683 90.6561 76.1213 90.8438 76.5938 90.8438H97.9688C98.4412 90.8438 98.8942 90.6561 99.2283 90.322C99.5623 89.988 99.75 89.5349 99.75 89.0625V74.8125C99.75 74.3401 99.5623 73.887 99.2283 73.553C98.8942 73.2189 98.4412 73.0312 97.9688 73.0312ZM96.1875 76.5938V86.7814L88.3945 80.547C88.0786 80.2941 87.686 80.1562 87.2812 80.1562C86.8765 80.1562 86.4839 80.2941 86.168 80.547L78.375 86.7814V76.5938H96.1875ZM91.1096 87.2812H83.4529L87.2812 84.2186L91.1096 87.2812ZM33.8438 94.4062H19.5938C19.1213 94.4062 18.6683 94.5939 18.3342 94.928C18.0002 95.262 17.8125 95.7151 17.8125 96.1875C17.8125 96.6599 18.0002 97.113 18.3342 97.447C18.6683 97.7811 19.1213 97.9688 19.5938 97.9688H33.8438C34.3162 97.9688 34.7692 97.7811 35.1033 97.447C35.4373 97.113 35.625 96.6599 35.625 96.1875C35.625 95.7151 35.4373 95.262 35.1033 94.928C34.7692 94.5939 34.3162 94.4062 33.8438 94.4062ZM64.125 94.4062H49.875C49.4026 94.4062 48.9495 94.5939 48.6155 94.928C48.2814 95.262 48.0938 95.7151 48.0938 96.1875C48.0938 96.6599 48.2814 97.113 48.6155 97.447C48.9495 97.7811 49.4026 97.9688 49.875 97.9688H64.125C64.5974 97.9688 65.0505 97.7811 65.3845 97.447C65.7186 97.113 65.9062 96.6599 65.9062 96.1875C65.9062 95.7151 65.7186 95.262 65.3845 94.928C65.0505 94.5939 64.5974 94.4062 64.125 94.4062ZM94.4062 94.4062H80.1562C79.6838 94.4062 79.2308 94.5939 78.8967 94.928C78.5627 95.262 78.375 95.7151 78.375 96.1875C78.375 96.6599 78.5627 97.113 78.8967 97.447C79.2308 97.7811 79.6838 97.9688 80.1562 97.9688H94.4062C94.8787 97.9688 95.3317 97.7811 95.6658 97.447C95.9998 97.113 96.1875 96.6599 96.1875 96.1875C96.1875 95.7151 95.9998 95.262 95.6658 94.928C95.3317 94.5939 94.8787 94.4062 94.4062 94.4062Z" fill="white"/>
</svg>
