<svg width="62" height="62" viewBox="0 0 62 62" fill="none" xmlns="http://www.w3.org/2000/svg">
<path d="M40.9701 58.95H20.9633C20.8343 58.9547 20.7057 58.9333 20.5852 58.8872C20.4646 58.8411 20.3546 58.7711 20.2617 58.6815C20.1688 58.5919 20.0949 58.4845 20.0444 58.3657C19.994 58.2469 19.9679 58.1191 19.9679 57.99C19.9679 57.861 19.994 57.7332 20.0444 57.6144C20.0949 57.4956 20.1688 57.3882 20.2617 57.2986C20.3546 57.209 20.4646 57.139 20.5852 57.0929C20.7057 57.0468 20.8343 57.0254 20.9633 57.0301H40.9701C41.2186 57.0391 41.454 57.1441 41.6267 57.3232C41.7994 57.5022 41.8959 57.7413 41.8959 57.99C41.8959 58.2388 41.7994 58.4779 41.6267 58.6569C41.454 58.8359 41.2186 58.941 40.9701 58.95ZM56.3059 45.8476H5.69421C5.42708 45.8476 5.1709 45.7415 4.98201 45.5526C4.79313 45.3638 4.68701 45.1076 4.68701 44.8404C4.68701 44.5733 4.79313 44.3171 4.98201 44.1283C5.1709 43.9394 5.42708 43.8333 5.69421 43.8333H56.3059C56.573 43.8333 56.8292 43.9394 57.0181 44.1283C57.207 44.3171 57.3131 44.5733 57.3131 44.8404C57.3131 45.1076 57.207 45.3638 57.0181 45.5526C56.8292 45.7415 56.573 45.8476 56.3059 45.8476ZM41.2458 48.8516H39.8269C39.5598 48.8516 39.3036 48.7455 39.1147 48.5566C38.9258 48.3677 38.8197 48.1115 38.8197 47.8444C38.8197 47.5773 38.9258 47.3211 39.1147 47.1322C39.3036 46.9433 39.5598 46.8372 39.8269 46.8372H41.2458C41.5129 46.8372 41.7691 46.9433 41.958 47.1322C42.1469 47.3211 42.253 47.5773 42.253 47.8444C42.253 48.1115 42.1469 48.3677 41.958 48.5566C41.7691 48.7455 41.5129 48.8516 41.2458 48.8516ZM46.3951 48.8516H44.9749C44.7078 48.8516 44.4516 48.7455 44.2627 48.5566C44.0738 48.3677 43.9677 48.1115 43.9677 47.8444C43.9677 47.5773 44.0738 47.3211 44.2627 47.1322C44.4516 46.9433 44.7078 46.8372 44.9749 46.8372H46.3938C46.6609 46.8372 46.9171 46.9433 47.106 47.1322C47.2949 47.3211 47.401 47.5773 47.401 47.8444C47.401 48.1115 47.2949 48.3677 47.106 48.5566C46.9171 48.7455 46.6609 48.8516 46.3938 48.8516H46.3951ZM51.5444 48.8516H50.026C49.7589 48.8516 49.5027 48.7455 49.3138 48.5566C49.1249 48.3677 49.0188 48.1115 49.0188 47.8444C49.0188 47.5773 49.1249 47.3211 49.3138 47.1322C49.5027 46.9433 49.7589 46.8372 50.026 46.8372H51.5444C51.8115 46.8372 52.0677 46.9433 52.2566 47.1322C52.4454 47.3211 52.5516 47.5773 52.5516 47.8444C52.5516 48.1115 52.4454 48.3677 52.2566 48.5566C52.0677 48.7455 51.8115 48.8516 51.5444 48.8516Z" fill="#00EAFF"/>
<path d="M25.1011 59.0001C24.9489 59.0003 24.7985 58.966 24.6614 58.8996C24.5243 58.8333 24.4041 58.7368 24.3097 58.6173C24.2153 58.4978 24.1492 58.3585 24.1164 58.2098C24.0836 58.0611 24.085 57.9069 24.1204 57.7588L25.8301 50.6165C25.8609 50.4878 25.9168 50.3665 25.9945 50.2595C26.0722 50.1525 26.1703 50.0618 26.283 49.9926C26.3958 49.9235 26.521 49.8772 26.6517 49.8565C26.7823 49.8357 26.9158 49.8409 27.0444 49.8718C27.173 49.9026 27.2943 49.9585 27.4014 50.0362C27.5084 50.1139 27.5991 50.2119 27.6682 50.3247C27.7374 50.4375 27.7837 50.5627 27.8044 50.6934C27.8251 50.824 27.8199 50.9574 27.7891 51.0861L26.0794 58.2271C26.0268 58.4471 25.9017 58.643 25.7242 58.7832C25.5468 58.9234 25.3273 58.9998 25.1011 59.0001ZM36.8979 59.0001C36.6655 59.0005 36.4402 58.9204 36.26 58.7736C36.0799 58.6267 35.9561 58.4221 35.9096 58.1944L34.4555 51.0521C34.4291 50.9225 34.4285 50.7889 34.4538 50.6591C34.479 50.5292 34.5296 50.4056 34.6026 50.2953C34.75 50.0725 34.9799 49.9175 35.2417 49.8642C35.5035 49.811 35.7757 49.8639 35.9985 50.0113C36.2213 50.1588 36.3763 50.3887 36.4296 50.6505L37.8863 57.7915C37.9161 57.938 37.9131 58.0892 37.8772 58.2343C37.8414 58.3795 37.7737 58.5148 37.6791 58.6305C37.5845 58.7462 37.4653 58.8394 37.3302 58.9034C37.1951 58.9673 37.0474 59.0003 36.8979 59.0001Z" fill="#00EAFF"/>
<path d="M54.543 51.859H7.45654C7.09007 51.8663 6.72593 51.7993 6.38604 51.6621C6.04614 51.5249 5.73752 51.3203 5.47875 51.0608C5.21998 50.8012 5.01642 50.4919 4.8803 50.1516C4.74419 49.8112 4.67835 49.4469 4.68675 49.0804V20.267C4.68675 18.6794 5.90546 17.4355 7.46284 17.4355H12.9873C13.2544 17.4355 13.5106 17.5417 13.6995 17.7305C13.8884 17.9194 13.9945 18.1756 13.9945 18.4427C13.9945 18.7099 13.8884 18.9661 13.6995 19.1549C13.5106 19.3438 13.2544 19.4499 12.9873 19.4499H7.45654C6.85474 19.4499 6.69485 19.9636 6.69485 20.267V49.0804C6.69485 49.3096 6.76913 49.8447 7.45654 49.8447H54.543C54.6442 49.848 54.7449 49.8305 54.839 49.7933C54.9331 49.756 55.0186 49.6998 55.09 49.6281C55.1614 49.5564 55.2174 49.4708 55.2543 49.3766C55.2912 49.2824 55.3084 49.1816 55.3047 49.0804V20.267C55.3047 19.8717 54.9988 19.4499 54.543 19.4499H49.0173C48.7502 19.4499 48.494 19.3438 48.3051 19.1549C48.1162 18.9661 48.0101 18.7099 48.0101 18.4427C48.0101 18.1756 48.1162 17.9194 48.3051 17.7305C48.494 17.5417 48.7502 17.4355 49.0173 17.4355H54.543C55.2852 17.4455 55.9933 17.749 56.5124 18.2796C57.0314 18.8102 57.3192 19.5248 57.3128 20.267V49.0804C57.3169 49.4457 57.248 49.8081 57.1104 50.1465C56.9727 50.4848 56.769 50.7923 56.5111 51.0511C56.2532 51.3098 55.9463 51.5145 55.6084 51.6532C55.2705 51.7919 54.9083 51.8619 54.543 51.859Z" fill="#00EAFF"/>
<path d="M46.0196 38.3552H15.98C14.9179 38.3536 13.8998 37.9308 13.149 37.1795C12.3983 36.4283 11.9761 35.4099 11.9751 34.3479V11.662C11.9751 11.3949 12.0812 11.1387 12.2701 10.9498C12.459 10.7609 12.7152 10.6548 12.9823 10.6548H49.0173C49.2844 10.6548 49.5406 10.7609 49.7295 10.9498C49.9184 11.1387 50.0245 11.3949 50.0245 11.662V34.3479C50.0235 35.4099 49.6013 36.4283 48.8506 37.1795C48.0998 37.9308 47.0817 38.3536 46.0196 38.3552ZM13.9895 12.6717V34.3479C13.9898 34.8759 14.1996 35.3822 14.5727 35.7559C14.9458 36.1295 15.4519 36.3398 15.98 36.3408H46.0196C46.5477 36.3398 47.0538 36.1295 47.4269 35.7559C47.8 35.3822 48.0098 34.8759 48.0101 34.3479V12.6692L13.9895 12.6717Z" fill="#00EAFF"/>
<path d="M49.0173 12.6691C48.7502 12.6691 48.494 12.563 48.3051 12.3741C48.1162 12.1852 48.0101 11.929 48.0101 11.6619V7.00361C48.0088 6.47623 47.7986 5.97085 47.4256 5.59805C47.0525 5.22525 46.547 5.01539 46.0196 5.0144H15.98C15.4519 5.0154 14.9458 5.22577 14.5727 5.59939C14.1996 5.973 13.9898 6.47935 13.9895 7.00739V11.6657C13.9895 11.9328 13.8834 12.189 13.6945 12.3779C13.5056 12.5668 13.2494 12.6729 12.9823 12.6729C12.7152 12.6729 12.459 12.5668 12.2701 12.3779C12.0812 12.189 11.9751 11.9328 11.9751 11.6657V7.00739C11.9761 5.94531 12.3983 4.92697 13.149 4.17573C13.8998 3.42449 14.9179 3.00167 15.98 3H46.0196C47.0817 3.00167 48.0998 3.42449 48.8506 4.17573C49.6013 4.92697 50.0235 5.94531 50.0245 7.00739V11.6657C50.0235 11.9321 49.917 12.1874 49.7282 12.3754C49.5394 12.5635 49.2838 12.6691 49.0173 12.6691Z" fill="#00EAFF"/>
<path d="M45.4643 8.84154H42.9123C42.6451 8.84154 42.389 8.73543 42.2001 8.54654C42.0112 8.35766 41.9051 8.10147 41.9051 7.83435C41.9051 7.56722 42.0112 7.31104 42.2001 7.12215C42.389 6.93326 42.6451 6.82715 42.9123 6.82715H45.4643C45.7314 6.82715 45.9876 6.93326 46.1765 7.12215C46.3653 7.31104 46.4715 7.56722 46.4715 7.83435C46.4715 8.10147 46.3653 8.35766 46.1765 8.54654C45.9876 8.73543 45.7314 8.84154 45.4643 8.84154ZM39.7409 8.84154H37.1901C36.923 8.84154 36.6668 8.73543 36.4779 8.54654C36.2891 8.35766 36.1829 8.10147 36.1829 7.83435C36.1829 7.56722 36.2891 7.31104 36.4779 7.12215C36.6668 6.93326 36.923 6.82715 37.1901 6.82715H39.7409C40.008 6.82715 40.2642 6.93326 40.4531 7.12215C40.6419 7.31104 40.7481 7.56722 40.7481 7.83435C40.7481 8.10147 40.6419 8.35766 40.4531 8.54654C40.2642 8.73543 40.008 8.84154 39.7409 8.84154ZM32.2448 8.84154H16.535C16.2679 8.84154 16.0117 8.73543 15.8228 8.54654C15.6339 8.35766 15.5278 8.10147 15.5278 7.83435C15.5278 7.56722 15.6339 7.31104 15.8228 7.12215C16.0117 6.93326 16.2679 6.82715 16.535 6.82715H32.2448C32.5119 6.82715 32.7681 6.93326 32.957 7.12215C33.1459 7.31104 33.252 7.56722 33.252 7.83435C33.252 8.10147 33.1459 8.35766 32.957 8.54654C32.7681 8.73543 32.5119 8.84154 32.2448 8.84154ZM36.6425 33.8276C36.3265 33.8276 36.2157 33.7495 34.8635 33.4008C34.5366 33.3146 34.2515 33.1137 34.0606 32.8346C33.8696 32.5556 33.7855 32.2172 33.8236 31.8812L33.9381 30.8173C33.6651 30.636 33.4051 30.4357 33.1601 30.2181L32.1529 30.6058C31.8377 30.7291 31.4886 30.7346 31.1697 30.6213C30.8508 30.508 30.5835 30.2835 30.4167 29.9889L29.6915 28.7299C29.5193 28.4382 29.4589 28.0938 29.5214 27.7608C29.5839 27.4279 29.7652 27.1289 30.0315 26.9195L30.8624 26.2484C30.7978 25.9261 30.7558 25.5996 30.7365 25.2715L29.7583 24.8384C29.4486 24.7035 29.198 24.4614 29.0525 24.1565C28.907 23.8517 28.8764 23.5046 28.9664 23.179L29.3441 21.7714C29.4306 21.4452 29.6313 21.1609 29.9097 20.9701C30.1881 20.7793 30.5257 20.6946 30.8612 20.7315L31.925 20.8461C32.1061 20.5728 32.306 20.3124 32.523 20.0668L32.1365 19.0596C32.0132 18.7444 32.0077 18.3953 32.121 18.0764C32.2344 17.7575 32.4589 17.4901 32.7534 17.3234L34.0124 16.597C34.3044 16.4247 34.6489 16.3642 34.9821 16.4267C35.3153 16.4892 35.6145 16.6705 35.8241 16.9369L36.4927 17.7678C36.8142 17.7033 37.1398 17.6613 37.4671 17.6419L37.9002 16.6624C38.0353 16.3526 38.2776 16.1018 38.5826 15.9561C38.8876 15.8105 39.2349 15.7796 39.5608 15.8693L40.9659 16.247C41.2909 16.3334 41.5743 16.5331 41.765 16.8102C41.9557 17.0872 42.0411 17.4233 42.0058 17.7578L41.8912 18.8229C42.1642 19.0049 42.4246 19.2051 42.6705 19.4222L43.6689 19.0356C43.9859 18.911 44.3374 18.9061 44.6577 19.022C44.978 19.1379 45.2451 19.3665 45.4089 19.6651L46.1315 20.9153C46.3011 21.2078 46.36 21.5514 46.2977 21.8837C46.2353 22.2159 46.0557 22.5147 45.7916 22.7258L44.9607 23.3968C45.0251 23.7192 45.0672 24.0456 45.0866 24.3738L46.0661 24.8069C46.3764 24.9415 46.6279 25.1835 46.7742 25.4886C46.9206 25.7936 46.9521 26.1411 46.863 26.4675L46.4853 27.8738C46.3992 28.2003 46.1986 28.4849 45.9201 28.6758C45.6416 28.8667 45.3038 28.9512 44.9682 28.9137L43.9044 28.7992C43.7239 29.0729 43.524 29.3333 43.3063 29.5785L43.6941 30.5857C43.8184 30.9018 43.8237 31.2523 43.7091 31.5721C43.5945 31.8919 43.3677 32.1592 43.0709 32.3244L41.8207 33.0483C41.528 33.2181 41.184 33.277 40.8515 33.2144C40.5189 33.1517 40.2199 32.9717 40.009 32.7071L39.3392 31.8762C39.0181 31.9406 38.693 31.9826 38.366 32.0021L37.9241 32.9853C37.8152 33.2349 37.6361 33.4474 37.4085 33.597C37.1809 33.7465 36.9148 33.8266 36.6425 33.8276ZM35.8871 31.5891L36.3 31.6986L36.7847 30.6008C36.866 30.4163 37.0007 30.2604 37.1716 30.1534C37.3424 30.0463 37.5414 29.993 37.7428 30.0002C38.3128 30.021 38.8822 29.9461 39.4274 29.7787C39.6197 29.7202 39.8251 29.7206 40.0171 29.7799C40.2092 29.8391 40.3791 29.9544 40.5051 30.111L41.2605 31.0465L41.6319 30.8312L41.1975 29.7056C41.1251 29.5182 41.1103 29.3134 41.1552 29.1176C41.2001 28.9217 41.3025 28.7437 41.4493 28.6065C41.8666 28.2188 42.216 27.7639 42.483 27.2607C42.5772 27.0828 42.7225 26.9372 42.9003 26.8428C43.078 26.7483 43.2799 26.7092 43.4801 26.7306L44.6736 26.8565L44.7844 26.4411L43.6815 25.9639C43.4973 25.8825 43.3417 25.7476 43.2349 25.5768C43.128 25.406 43.0749 25.2071 43.0822 25.0058C43.1028 24.435 43.0279 23.8649 42.8607 23.3188C42.8023 23.1268 42.8027 22.9217 42.8617 22.7299C42.9207 22.5381 43.0356 22.3683 43.1918 22.2423L44.1285 21.4869L43.9132 21.1092L42.7939 21.5423C42.6065 21.6148 42.4017 21.6295 42.2058 21.5846C42.01 21.5398 41.832 21.4373 41.6948 21.2905C41.3065 20.8729 40.8512 20.5232 40.3477 20.2556C40.1694 20.1615 40.0234 20.016 39.9287 19.838C39.834 19.66 39.7949 19.4577 39.8164 19.2572L39.9423 18.0612L39.5294 17.9504L39.0434 19.0495C38.962 19.2335 38.8274 19.389 38.6568 19.4958C38.4863 19.6026 38.2876 19.6559 38.0865 19.6488C37.5166 19.6288 36.9474 19.7037 36.402 19.8704C36.2098 19.9289 36.0045 19.9287 35.8125 19.8697C35.6204 19.8107 35.4504 19.6956 35.3243 19.5392L34.5689 18.6038L34.1912 18.8191L34.6256 19.9434C34.6983 20.131 34.7132 20.336 34.6683 20.5322C34.6234 20.7283 34.5208 20.9065 34.3738 21.0437C33.9568 21.4303 33.6082 21.8844 33.3426 22.3871C33.2485 22.5654 33.1031 22.7114 32.9251 22.8061C32.7471 22.9008 32.5447 22.9399 32.3443 22.9184L31.1495 22.7925L31.0387 23.208L32.1453 23.6977C32.3291 23.7793 32.4843 23.914 32.5909 24.0845C32.6975 24.2551 32.7506 24.4536 32.7434 24.6545C32.7234 25.2253 32.7983 25.7954 32.9649 26.3416C33.0233 26.5336 33.0229 26.7386 32.9639 26.9304C32.9049 27.1222 32.79 27.292 32.6338 27.418L31.6984 28.1734L31.9137 28.5511L33.0354 28.1168C33.2232 28.0438 33.4285 28.0288 33.6249 28.0736C33.8213 28.1185 33.9997 28.2213 34.1371 28.3686C34.5244 28.7855 34.9789 29.1345 35.4817 29.401C35.6593 29.4954 35.8046 29.6408 35.8989 29.8185C35.9931 29.9962 36.032 30.1981 36.0105 30.3981L35.8871 31.5891Z" fill="white"/>
<path d="M34.6175 26.7294C32.9443 23.8274 35.5995 20.2619 38.8981 21.1482C39.3814 21.2772 39.8345 21.5003 40.2315 21.8047C40.6285 22.1091 40.9615 22.4888 41.2114 22.9222C41.4613 23.3555 41.6233 23.8339 41.688 24.3299C41.7527 24.8259 41.719 25.3299 41.5886 25.8128C40.7199 29.0673 36.3096 29.6628 34.6175 26.7294ZM36.185 24.3587C36.123 24.5866 36.1068 24.8246 36.1372 25.0588C36.1677 25.293 36.2443 25.5189 36.3625 25.7234C37.1594 27.1083 39.2342 26.8238 39.6434 25.2916C39.7052 25.0638 39.7213 24.826 39.6906 24.5919C39.6599 24.3579 39.5831 24.1323 39.4646 23.9281C38.6803 22.5571 36.5966 22.8164 36.185 24.3587ZM26.0475 18.0322H16.1014C15.8343 18.0322 15.5781 17.9261 15.3892 17.7372C15.2004 17.5483 15.0942 17.2921 15.0942 17.025C15.0942 16.7579 15.2004 16.5017 15.3892 16.3128C15.5781 16.1239 15.8343 16.0178 16.1014 16.0178H26.0475C26.3146 16.0178 26.5708 16.1239 26.7597 16.3128C26.9486 16.5017 27.0547 16.7579 27.0547 17.025C27.0547 17.2921 26.9486 17.5483 26.7597 17.7372C26.5708 17.9261 26.3146 18.0322 26.0475 18.0322ZM26.0475 21.7689H16.1014C15.8343 21.7689 15.5781 21.6628 15.3892 21.4739C15.2004 21.285 15.0942 21.0288 15.0942 20.7617C15.0942 20.4946 15.2004 20.2384 15.3892 20.0495C15.5781 19.8606 15.8343 19.7545 16.1014 19.7545H26.0475C26.3146 19.7545 26.5708 19.8606 26.7597 20.0495C26.9486 20.2384 27.0547 20.4946 27.0547 20.7617C27.0547 21.0288 26.9486 21.285 26.7597 21.4739C26.5708 21.6628 26.3146 21.7689 26.0475 21.7689ZM26.0475 25.5119H16.1014C15.8343 25.5119 15.5781 25.4058 15.3892 25.2169C15.2004 25.028 15.0942 24.7718 15.0942 24.5047C15.0942 24.2376 15.2004 23.9814 15.3892 23.7925C15.5781 23.6036 15.8343 23.4975 16.1014 23.4975H26.0475C26.3146 23.4975 26.5708 23.6036 26.7597 23.7925C26.9486 23.9814 27.0547 24.2376 27.0547 24.5047C27.0547 24.7718 26.9486 25.028 26.7597 25.2169C26.5708 25.4058 26.3146 25.5119 26.0475 25.5119ZM26.0475 29.2549H16.1014C15.8343 29.2549 15.5781 29.1488 15.3892 28.9599C15.2004 28.771 15.0942 28.5148 15.0942 28.2477C15.0942 27.9806 15.2004 27.7244 15.3892 27.5355C15.5781 27.3466 15.8343 27.2405 16.1014 27.2405H26.0475C26.3146 27.2405 26.5708 27.3466 26.7597 27.5355C26.9486 27.7244 27.0547 27.9806 27.0547 28.2477C27.0547 28.5148 26.9486 28.771 26.7597 28.9599C26.5708 29.1488 26.3146 29.2549 26.0475 29.2549ZM26.0475 32.9992H16.1014C15.8343 32.9992 15.5781 32.8931 15.3892 32.7042C15.2004 32.5153 15.0942 32.2591 15.0942 31.992C15.0942 31.7249 15.2004 31.4687 15.3892 31.2798C15.5781 31.0909 15.8343 30.9848 16.1014 30.9848H26.0475C26.3146 30.9848 26.5708 31.0909 26.7597 31.2798C26.9486 31.4687 27.0547 31.7249 27.0547 31.992C27.0547 32.2591 26.9486 32.5153 26.7597 32.7042C26.5708 32.8931 26.3146 32.9992 26.0475 32.9992Z" fill="white"/>
</svg>
