<svg width="129" height="50" viewBox="0 0 129 50" fill="none" xmlns="http://www.w3.org/2000/svg">
<g clip-path="url(#clip0_3315_53)">
<path d="M-0.5 -0.400024H129.4V50H-0.5V-0.400024Z" fill="url(#paint0_linear_3315_53)"/>
<rect x="12" y="4" width="105" height="41" fill="black" fill-opacity="0.25"/>
<path d="M80.4677 15.5583V12H62.7344V15.5583H66.2927V19.1167H76.9093V22.675H66.2927V26.175H62.7344V29.7333V36.85H66.2927H69.851V29.7333H80.4677V26.175H84.026V22.675V19.1167V15.5583H80.4677Z" fill="black"/>
<path d="M62.7333 15.5583V12H45V15.5583V19.1167H59.175V22.675H48.5583H45V36.8501H48.5583H52.1167V29.7334H62.7333V26.175H66.2916V22.675V19.1167V15.5583H62.7333Z" fill="black"/>
</g>
<defs>
<linearGradient id="paint0_linear_3315_53" x1="1.13955e-06" y1="50" x2="129" y2="1.03725e-06" gradientUnits="userSpaceOnUse">
<stop stop-color="#00EAFF"/>
<stop offset="1" stop-color="#007492"/>
</linearGradient>
<clipPath id="clip0_3315_53">
<rect width="129" height="50" fill="white"/>
</clipPath>
</defs>
</svg>
