<svg width="49" height="49" viewBox="0 0 49 49" fill="none" xmlns="http://www.w3.org/2000/svg">
<path fill-rule="evenodd" clip-rule="evenodd" d="M6.13017 27.29C6.13017 23.98 8.82017 21.29 12.1302 21.29C15.4402 21.29 18.1302 23.98 18.1302 27.29C18.1302 30.6 15.4402 33.29 12.1302 33.29C8.82017 33.29 6.13017 30.6 6.13017 27.29ZM10.3702 15.44C9.43016 15.06 8.35017 15.35 7.74017 16.14L6.76016 17.41C6.64016 17.57 6.46017 17.66 6.27017 17.69L4.69017 17.91C3.69017 18.05 2.90017 18.84 2.77017 19.83L2.55017 21.41C2.52017 21.61 2.42017 21.79 2.27017 21.9L0.990172 22.89C0.190172 23.51 -0.0998398 24.59 0.29016 25.52L0.890166 27C0.960166 27.18 0.960166 27.38 0.890166 27.57L0.29016 29.04C-0.0898398 29.98 0.200172 31.06 0.990172 31.67L2.26016 32.65C2.42016 32.77 2.51016 32.95 2.54016 33.14L2.76016 34.72C2.90016 35.72 3.69016 36.51 4.68016 36.65L6.14017 36.85V46.77C6.14017 47.32 6.44017 47.83 6.94017 48.09C7.44017 48.35 8.02016 48.32 8.48016 48.01L12.1502 45.56L15.8202 48.01C16.2802 48.32 16.8702 48.35 17.3602 48.09C17.8502 47.83 18.1602 47.32 18.1602 46.77V36.85L19.6102 36.65C20.6102 36.51 21.4002 35.72 21.5302 34.72L21.7502 33.14C21.7802 32.94 21.8802 32.76 22.0302 32.65L23.3002 31.67C24.1002 31.05 24.3902 29.97 24.0002 29.04L23.4102 27.56C23.3302 27.38 23.3302 27.18 23.4102 26.99L24.0202 25.51C24.4002 24.57 24.1102 23.49 23.3202 22.88L22.0502 21.9C21.8902 21.78 21.8002 21.6 21.7702 21.41L21.5502 19.83C21.4102 18.83 20.6202 18.04 19.6302 17.91L18.0502 17.69C17.8502 17.66 17.6702 17.56 17.5602 17.41L16.5802 16.14C15.9602 15.34 14.8802 15.05 13.9502 15.44L12.4502 16.04C12.2702 16.12 12.0702 16.12 11.8802 16.04L10.4002 15.43L10.3702 15.44ZM42.1302 43.79H21.1302V46.79C21.1302 47.31 21.0402 47.81 20.8802 48.29H42.1302C45.4402 48.29 48.1302 45.6 48.1302 42.29V14.77C48.1302 13.18 47.5002 11.65 46.3802 10.52L37.8902 2.03998C36.7702 0.919978 35.2502 0.289978 33.6502 0.289978H18.1302C14.8202 0.289978 12.1302 2.97998 12.1302 6.28998V12.96C12.2702 12.88 12.5102 12.76 12.7502 12.67C14.0302 12.15 15.4002 12.16 16.6202 12.62V6.28998C16.6202 5.46998 17.2902 4.78998 18.1202 4.78998H33.1202V12.29C33.1202 13.95 34.4602 15.29 36.1202 15.29H43.6202V42.29C43.6202 43.12 42.9402 43.79 42.1202 43.79H42.1302Z" fill="#00EAFF"/>
</svg>
