<svg width="62" height="62" viewBox="0 0 62 62" fill="none" xmlns="http://www.w3.org/2000/svg">
<path d="M4.57226 9.57747C4.57226 8.79157 5.21321 8.15062 5.99898 8.15062C6.78476 8.15062 7.42571 8.79157 7.42571 9.57747C7.42571 10.3634 6.78476 11.0043 5.99898 11.0043C5.21321 11.0043 4.57226 10.3634 4.57226 9.57747ZM10.6179 11.0043C11.4036 11.0043 12.0446 10.3634 12.0446 9.57747C12.0446 8.79157 11.4036 8.15062 10.6179 8.15062C9.83209 8.15062 9.19102 8.79157 9.19102 9.57747C9.19102 10.3634 9.83196 11.0043 10.6179 11.0043ZM32.644 10.6068H47.8233C48.0963 10.6068 48.3581 10.4983 48.5511 10.3053C48.7442 10.1123 48.8526 9.85046 48.8526 9.57747C48.8526 9.30449 48.7442 9.04268 48.5511 8.84965C48.3581 8.65662 48.0963 8.54818 47.8233 8.54818H32.644C32.3737 8.55232 32.1159 8.66259 31.9263 8.85517C31.7366 9.04775 31.6303 9.30719 31.6303 9.57747C31.6303 9.84776 31.7366 10.1072 31.9263 10.2998C32.1159 10.4924 32.3737 10.6026 32.644 10.6068ZM15.2365 11.0043C16.0224 11.0043 16.6633 10.3634 16.6633 9.57747C16.6633 8.79157 16.0224 8.15062 15.2365 8.15062C14.4507 8.15062 13.8098 8.79157 13.8098 9.57747C13.8098 10.3634 14.4507 11.0043 15.2365 11.0043ZM12.4138 35.4705C12.4138 27.4038 18.9767 20.8408 27.0435 20.8408C35.1103 20.8408 41.6732 27.4037 41.6732 35.4705C41.6732 43.5374 35.1103 50.1003 27.0435 50.1003C18.9767 50.1003 12.4138 43.5374 12.4138 35.4705ZM38.0894 29.4731H34.499C34.872 31.0009 35.1047 32.6734 35.1701 34.4412H39.5723C39.4313 32.6996 38.9261 31.007 38.0894 29.4731ZM22.4254 43.5267C22.5816 43.8999 22.7481 44.2602 22.9273 44.6026C23.8044 46.2788 24.8912 47.4057 26.0143 47.8406V43.5267H22.4254ZM26.0142 41.4681V36.4998H20.9788C21.0502 38.2565 21.3029 39.9397 21.7213 41.4681H26.0142ZM31.1598 44.6026C31.3391 44.2602 31.5056 43.8999 31.6618 43.5267H28.0729V47.8406C29.1959 47.4057 30.2828 46.2788 31.1598 44.6026ZM32.3657 41.4681C32.7841 39.9397 33.0368 38.2565 33.1082 36.4998H28.0728V41.4681H32.3657ZM34.499 41.4681H38.0894C38.9261 39.9341 39.4313 38.2414 39.5723 36.4998H35.1701C35.1046 38.2677 34.872 39.9402 34.499 41.4681ZM32.3657 29.4731H28.0728V34.4412H33.1082C33.0368 32.6846 32.7841 31.0014 32.3657 29.4731ZM31.6617 27.4145C31.5054 27.0413 31.3389 26.681 31.1597 26.3385C30.2826 24.6624 29.1958 23.5355 28.0727 23.1006V27.4145H31.6617ZM22.9272 26.3385C22.7479 26.681 22.5814 27.0413 22.4252 27.4145H26.0141V23.1006C24.8912 23.5353 23.8044 24.6624 22.9272 26.3385ZM21.7213 29.4731C21.3029 31.0014 21.0502 32.6846 20.9788 34.4412H26.0142V29.4731H21.7213ZM19.5881 29.4731H15.9977C15.161 31.007 14.6558 32.6996 14.5148 34.4412H18.917C18.9824 32.6733 19.2152 31.0009 19.5881 29.4731ZM14.5148 36.4998C14.6558 38.2414 15.161 39.9341 15.9977 41.4681H19.5881C19.2152 39.9402 18.9824 38.2676 18.917 36.4998H14.5148ZM21.9449 46.9602C21.2665 45.9948 20.6792 44.8363 20.2059 43.5267H17.4011C18.6266 44.9913 20.1789 46.1736 21.9449 46.9602ZM36.6861 43.5267H33.8812C33.4079 44.8362 32.8206 45.9948 32.1423 46.9602C33.9082 46.1736 35.4604 44.9913 36.6861 43.5267ZM32.1423 23.981C32.8208 24.9463 33.4081 26.1048 33.8812 27.4145H36.6861C35.4604 25.9498 33.9082 24.7676 32.1423 23.981ZM17.4009 27.4145H20.2058C20.6791 26.105 21.2664 24.9463 21.9447 23.981C20.1789 24.7676 18.6266 25.9498 17.4009 27.4145ZM61.8789 46.8098C61.8789 52.9374 56.8938 57.9223 50.7663 57.9223H4.63801C2.14736 57.9222 0.121094 55.8961 0.121094 53.4053V8.59455C0.121094 6.1039 2.14736 4.07764 4.63813 4.07764H49.4489C51.9395 4.07764 53.9659 6.10378 53.9659 8.59455V36.1672C58.5385 37.5447 61.8789 41.7941 61.8789 46.8098ZM2.17969 8.59455V13.0187H51.9072V8.59455C51.9072 7.23915 50.8044 6.13623 49.4488 6.13623H4.63813C3.28249 6.13623 2.17969 7.23903 2.17969 8.59455ZM44.3299 55.8636C43.2848 55.1182 42.3756 54.1986 41.642 53.1452H5.92742C5.65443 53.1452 5.39263 53.0367 5.19959 52.8437C5.00656 52.6507 4.89812 52.3889 4.89812 52.1159V18.825C4.89812 18.2567 5.359 17.7957 5.92742 17.7957H48.1596C48.728 17.7957 49.1889 18.2567 49.1889 18.825V35.8095C50.0894 35.6807 51.0023 35.6625 51.9072 35.7552V15.0773H2.17969V53.4054C2.17969 54.7611 3.28249 55.8637 4.63813 55.8637H44.3299V55.8636ZM47.1303 19.8543H6.95672V51.0866H40.5101C39.9588 49.7695 39.6537 48.3246 39.6537 46.8098C39.6537 41.9552 42.7831 37.8181 47.1303 36.3087V19.8543ZM59.8203 46.8098C59.8203 41.8172 55.7587 37.7556 50.7663 37.7556C45.7738 37.7556 41.7122 41.8172 41.7122 46.8098C41.7122 51.8021 45.7738 55.8637 50.7663 55.8637C55.7587 55.8637 59.8203 51.802 59.8203 46.8098ZM57.9655 43.3456C57.9655 43.9593 57.7265 44.5361 57.2925 44.9701L50.3646 51.8983C49.9307 52.332 49.3538 52.571 48.7401 52.571C48.1264 52.571 47.5495 52.332 47.1156 51.8983C47.0287 51.8111 46.9487 51.7173 46.8765 51.6176L44.0655 48.0801C43.2782 47.0895 43.4435 45.6431 44.434 44.8555C44.8402 44.5335 45.3431 44.358 45.8614 44.3572C46.207 44.3562 46.5483 44.4338 46.8597 44.5839C47.171 44.734 47.4442 44.9529 47.6586 45.224L48.9348 46.8299L54.0435 41.7212C54.4773 41.2872 55.0543 41.0483 55.668 41.0483C56.2817 41.0483 56.8587 41.2872 57.2926 41.7212C57.5066 41.934 57.6763 42.1871 57.7918 42.466C57.9073 42.7448 57.9663 43.0438 57.9655 43.3456ZM55.9069 43.3456C55.9069 43.3006 55.8948 43.2346 55.8371 43.1769C55.7792 43.1189 55.7133 43.1069 55.6681 43.1069C55.623 43.1069 55.5571 43.119 55.4994 43.1766L49.5747 49.1015C49.4718 49.2036 49.3487 49.283 49.2132 49.3346C49.0778 49.3862 48.933 49.4089 48.7883 49.4012C48.6435 49.393 48.5021 49.3542 48.3733 49.2875C48.2445 49.2208 48.1313 49.1276 48.041 49.0141L46.0471 46.5049C46.025 46.4768 45.9968 46.4542 45.9646 46.4387C45.9324 46.4233 45.8971 46.4154 45.8614 46.4158C45.817 46.416 45.7736 46.4287 45.7361 46.4525C45.6986 46.4762 45.6685 46.51 45.6493 46.55C45.6301 46.59 45.6225 46.6346 45.6274 46.6787C45.6323 46.7228 45.6495 46.7646 45.677 46.7994L48.5051 50.358C48.5183 50.3746 48.5309 50.3915 48.543 50.4088C48.5628 50.4377 48.5888 50.4619 48.619 50.4796C48.6493 50.4973 48.6831 50.5082 48.718 50.5114C48.7529 50.5147 48.7881 50.5102 48.821 50.4983C48.854 50.4864 48.884 50.4674 48.9088 50.4426L55.8368 43.5145C55.8592 43.4925 55.877 43.4662 55.889 43.4371C55.9011 43.4081 55.9072 43.377 55.9069 43.3456Z" fill="#00EAFF"/>
<path d="M12.4141 35.4705C12.4141 27.4039 18.977 20.8408 27.0438 20.8408C35.1105 20.8408 41.6735 27.4037 41.6735 35.4705C41.6735 43.5374 35.1105 50.1003 27.0438 50.1003C18.977 50.1003 12.4141 43.5374 12.4141 35.4705ZM38.0897 29.4731H34.4993C34.8722 31.001 35.105 32.6735 35.1704 34.4412H39.5726C39.4315 32.6996 38.9263 31.0071 38.0897 29.4731ZM22.4256 43.5268C22.5818 43.9 22.7483 44.2602 22.9275 44.6027C23.8046 46.2789 24.8914 47.4058 26.0146 47.8406V43.5268H22.4256ZM26.0145 41.4682V36.4998H20.979C21.0505 38.2565 21.3032 39.9397 21.7216 41.4682H26.0145ZM31.1601 44.6027C31.3393 44.2602 31.5058 43.9 31.662 43.5268H28.0732V47.8406C29.1962 47.4058 30.283 46.2789 31.1601 44.6027ZM32.366 41.4682C32.7843 39.9397 33.0371 38.2565 33.1085 36.4998H28.0731V41.4682H32.366ZM34.4993 41.4682H38.0897C38.9264 39.9341 39.4316 38.2415 39.5726 36.4998H35.1704C35.1049 38.2678 34.8722 39.9402 34.4993 41.4682ZM32.366 29.4731H28.0731V34.4412H33.1085C33.0371 32.6846 32.7843 31.0014 32.366 29.4731ZM31.6619 27.4145C31.5057 27.0413 31.3392 26.6811 31.16 26.3386C30.2829 24.6624 29.1961 23.5355 28.0729 23.1007V27.4145H31.6619ZM22.9274 26.3386C22.7482 26.6811 22.5817 27.0413 22.4255 27.4145H26.0143V23.1007C24.8914 23.5354 23.8046 24.6624 22.9274 26.3386ZM21.7216 29.4731C21.3032 31.0014 21.0505 32.6846 20.979 34.4412H26.0145V29.4731H21.7216ZM19.5884 29.4731H15.998C15.1613 31.0071 14.6561 32.6996 14.515 34.4412H18.9173C18.9827 32.6734 19.2154 31.001 19.5884 29.4731ZM14.515 36.4998C14.6561 38.2415 15.1613 39.9341 15.998 41.4682H19.5884C19.2154 39.9402 18.9827 38.2677 18.9173 36.4998H14.515ZM21.9451 46.9603C21.2667 45.9949 20.6794 44.8364 20.2062 43.5268H17.4013C18.6269 44.9914 20.1792 46.1736 21.9451 46.9603ZM36.6863 43.5268H33.8814C33.4082 44.8363 32.8209 45.9949 32.1425 46.9603C33.9084 46.1736 35.4606 44.9914 36.6863 43.5268ZM32.1425 23.981C32.821 24.9464 33.4083 26.1049 33.8814 27.4145H36.6863C35.4606 25.9499 33.9084 24.7677 32.1425 23.981ZM17.4012 27.4145H20.2061C20.6793 26.105 21.2666 24.9464 21.945 23.981C20.1792 24.7677 18.6269 25.9499 17.4012 27.4145ZM57.9658 43.3456C57.9658 43.9593 57.7267 44.5362 57.2927 44.9702L50.3648 51.8983C49.931 52.3321 49.3541 52.571 48.7404 52.571C48.1267 52.571 47.5498 52.3321 47.1159 51.8983C47.029 51.8112 46.949 51.7173 46.8767 51.6176L44.0658 48.0801C43.2784 47.0896 43.4437 45.6431 44.4343 44.8555C44.8404 44.5336 45.3433 44.358 45.8616 44.3572C46.2072 44.3563 46.5486 44.4338 46.8599 44.584C47.1712 44.7341 47.4444 44.953 47.6589 45.224L48.9351 46.83L54.0438 41.7213C54.4776 41.2873 55.0546 41.0483 55.6683 41.0483C56.282 41.0483 56.859 41.2873 57.2929 41.7213C57.5069 41.9341 57.6765 42.1872 57.792 42.466C57.9076 42.7448 57.9666 43.0438 57.9658 43.3456ZM55.9072 43.3456C55.9072 43.3007 55.8951 43.2347 55.8373 43.1769C55.7794 43.1189 55.7136 43.1069 55.6684 43.1069C55.6232 43.1069 55.5573 43.119 55.4997 43.1767L49.575 49.1016C49.4721 49.2037 49.3489 49.2831 49.2135 49.3347C49.0781 49.3863 48.9333 49.409 48.7886 49.4013C48.6438 49.393 48.5023 49.3543 48.3736 49.2876C48.2448 49.2208 48.1315 49.1277 48.0413 49.0141L46.0474 46.5049C46.0253 46.4769 45.9971 46.4542 45.9649 46.4388C45.9327 46.4233 45.8973 46.4155 45.8616 46.4158C45.8172 46.4161 45.7738 46.4288 45.7363 46.4525C45.6989 46.4763 45.6688 46.51 45.6496 46.55C45.6304 46.59 45.6228 46.6346 45.6277 46.6787C45.6326 46.7228 45.6498 46.7646 45.6773 46.7994L48.5053 50.358C48.5185 50.3746 48.5311 50.3916 48.5432 50.4089C48.5631 50.4378 48.5891 50.4619 48.6193 50.4797C48.6496 50.4974 48.6833 50.5083 48.7182 50.5115C48.7531 50.5147 48.7883 50.5102 48.8213 50.4983C48.8543 50.4864 48.8842 50.4674 48.9091 50.4427L55.8371 43.5145C55.8595 43.4925 55.8773 43.4662 55.8893 43.4372C55.9013 43.4082 55.9074 43.377 55.9072 43.3456Z" fill="white"/>
</svg>
