<svg width="62" height="62" viewBox="0 0 62 62" fill="none" xmlns="http://www.w3.org/2000/svg">
<path d="M58.6715 2.90625H4.9235C4.13185 2.90717 3.37288 3.22206 2.8131 3.78185C2.25331 4.34163 1.93842 5.1006 1.9375 5.89225V57.6496C1.93842 58.4412 2.25331 59.2002 2.8131 59.76C3.37288 60.3198 4.13185 60.6347 4.9235 60.6356H58.6715C59.4632 60.6347 60.2221 60.3198 60.7819 59.76C61.3417 59.2002 61.6566 58.4412 61.6575 57.6496V5.89225C61.6566 5.1006 61.3417 4.34163 60.7819 3.78185C60.2221 3.22206 59.4632 2.90717 58.6715 2.90625ZM4.9235 4.89692H58.6715C58.9354 4.89721 59.1884 5.00217 59.375 5.18877C59.5616 5.37537 59.6665 5.62836 59.6668 5.89225V10.8689H3.92817V5.89225C3.92846 5.62836 4.03342 5.37537 4.22002 5.18877C4.40662 5.00217 4.65961 4.89721 4.9235 4.89692ZM58.6715 58.6449H4.9235C4.65961 58.6446 4.40662 58.5397 4.22002 58.3531C4.03342 58.1665 3.92846 57.9135 3.92817 57.6496V12.8596H59.6668V57.6496C59.6665 57.9135 59.5616 58.1665 59.375 58.3531C59.1884 58.5397 58.9354 58.6446 58.6715 58.6449Z" fill="#00EAFF"/>
<path d="M14.8767 8.87836C15.4264 8.87836 15.872 8.43274 15.872 7.88303C15.872 7.33332 15.4264 6.8877 14.8767 6.8877C14.327 6.8877 13.8813 7.33332 13.8813 7.88303C13.8813 8.43274 14.327 8.87836 14.8767 8.87836Z" fill="white"/>
<path d="M10.8957 8.87836C11.4454 8.87836 11.8911 8.43274 11.8911 7.88303C11.8911 7.33332 11.4454 6.8877 10.8957 6.8877C10.346 6.8877 9.90039 7.33332 9.90039 7.88303C9.90039 8.43274 10.346 8.87836 10.8957 8.87836Z" fill="white"/>
<path d="M6.91428 8.87836C7.46399 8.87836 7.90961 8.43274 7.90961 7.88303C7.90961 7.33332 7.46399 6.8877 6.91428 6.8877C6.36457 6.8877 5.91895 7.33332 5.91895 7.88303C5.91895 8.43274 6.36457 8.87836 6.91428 8.87836Z" fill="white"/>
<path d="M42.7463 18.8315H46.7276C46.9916 18.8315 47.2448 18.7266 47.4315 18.54C47.6181 18.3533 47.723 18.1001 47.723 17.8362C47.723 17.5722 47.6181 17.319 47.4315 17.1323C47.2448 16.9457 46.9916 16.8408 46.7276 16.8408H42.7463C42.4823 16.8408 42.2292 16.9457 42.0425 17.1323C41.8558 17.319 41.751 17.5722 41.751 17.8362C41.751 18.1001 41.8558 18.3533 42.0425 18.54C42.2292 18.7266 42.4823 18.8315 42.7463 18.8315ZM54.6903 20.8222H42.7463C42.4823 20.8222 42.2292 20.927 42.0425 21.1137C41.8558 21.3003 41.751 21.5535 41.751 21.8175C41.751 22.0815 41.8558 22.3346 42.0425 22.5213C42.2292 22.708 42.4823 22.8128 42.7463 22.8128H54.6903C54.9543 22.8128 55.2075 22.708 55.3941 22.5213C55.5808 22.3346 55.6856 22.0815 55.6856 21.8175C55.6856 21.5535 55.5808 21.3003 55.3941 21.1137C55.2075 20.927 54.9543 20.8222 54.6903 20.8222ZM42.7463 26.7942H46.7276C46.9916 26.7942 47.2448 26.6893 47.4315 26.5026C47.6181 26.316 47.723 26.0628 47.723 25.7988C47.723 25.5348 47.6181 25.2817 47.4315 25.095C47.2448 24.9084 46.9916 24.8035 46.7276 24.8035H42.7463C42.4823 24.8035 42.2292 24.9084 42.0425 25.095C41.8558 25.2817 41.751 25.5348 41.751 25.7988C41.751 26.0628 41.8558 26.316 42.0425 26.5026C42.2292 26.6893 42.4823 26.7942 42.7463 26.7942ZM54.6903 28.7848H46.7276C46.4637 28.7848 46.2105 28.8897 46.0238 29.0763C45.8372 29.263 45.7323 29.5162 45.7323 29.7802C45.7323 30.0441 45.8372 30.2973 46.0238 30.484C46.2105 30.6706 46.4637 30.7755 46.7276 30.7755H54.6903C54.9543 30.7755 55.2075 30.6706 55.3941 30.484C55.5808 30.2973 55.6856 30.0441 55.6856 29.7802C55.6856 29.5162 55.5808 29.263 55.3941 29.0763C55.2075 28.8897 54.9543 28.7848 54.6903 28.7848ZM46.7276 40.7288H42.7463C42.4823 40.7288 42.2292 40.8337 42.0425 41.0203C41.8558 41.207 41.751 41.4602 41.751 41.7242V45.7055C41.751 45.9695 41.8558 46.2226 42.0425 46.4093C42.2292 46.596 42.4823 46.7008 42.7463 46.7008H46.7276C46.9916 46.7008 47.2448 46.596 47.4315 46.4093C47.6181 46.2226 47.723 45.9695 47.723 45.7055V41.7242C47.723 41.4602 47.6181 41.207 47.4315 41.0203C47.2448 40.8337 46.9916 40.7288 46.7276 40.7288ZM45.7323 44.7102H43.7416V42.7195H45.7323V44.7102ZM54.6903 40.7288H50.709C50.445 40.7288 50.1918 40.8337 50.0052 41.0203C49.8185 41.207 49.7136 41.4602 49.7136 41.7242C49.7136 41.9881 49.8185 42.2413 50.0052 42.428C50.1918 42.6146 50.445 42.7195 50.709 42.7195H54.6903C54.9543 42.7195 55.2075 42.6146 55.3941 42.428C55.5808 42.2413 55.6856 41.9881 55.6856 41.7242C55.6856 41.4602 55.5808 41.207 55.3941 41.0203C55.2075 40.8337 54.9543 40.7288 54.6903 40.7288ZM46.7276 48.6915H42.7463C42.4823 48.6915 42.2292 48.7964 42.0425 48.983C41.8558 49.1697 41.751 49.4228 41.751 49.6868V53.6682C41.751 53.9321 41.8558 54.1853 42.0425 54.372C42.2292 54.5586 42.4823 54.6635 42.7463 54.6635H46.7276C46.9916 54.6635 47.2448 54.5586 47.4315 54.372C47.6181 54.1853 47.723 53.9321 47.723 53.6682V49.6868C47.723 49.4228 47.6181 49.1697 47.4315 48.983C47.2448 48.7964 46.9916 48.6915 46.7276 48.6915ZM45.7323 52.6728H43.7416V50.6822H45.7323V52.6728ZM54.6903 52.6728H50.709C50.445 52.6728 50.1918 52.7777 50.0052 52.9643C49.8185 53.151 49.7136 53.4042 49.7136 53.6682C49.7136 53.9321 49.8185 54.1853 50.0052 54.372C50.1918 54.5586 50.445 54.6635 50.709 54.6635H54.6903C54.9543 54.6635 55.2075 54.5586 55.3941 54.372C55.5808 54.1853 55.6856 53.9321 55.6856 53.6682C55.6856 53.4042 55.5808 53.151 55.3941 52.9643C55.2075 52.7777 54.9543 52.6728 54.6903 52.6728ZM54.6903 48.6915H50.709C50.445 48.6915 50.1918 48.7964 50.0052 48.983C49.8185 49.1697 49.7136 49.4228 49.7136 49.6868C49.7136 49.9508 49.8185 50.204 50.0052 50.3906C50.1918 50.5773 50.445 50.6822 50.709 50.6822H54.6903C54.9543 50.6822 55.2075 50.5773 55.3941 50.3906C55.5808 50.204 55.6856 49.9508 55.6856 49.6868C55.6856 49.4228 55.5808 49.1697 55.3941 48.983C55.2075 48.7964 54.9543 48.6915 54.6903 48.6915ZM46.7276 36.7475H42.7463C42.4823 36.7475 42.2292 36.8524 42.0425 37.039C41.8558 37.2257 41.751 37.4788 41.751 37.7428C41.751 38.0068 41.8558 38.26 42.0425 38.4466C42.2292 38.6333 42.4823 38.7382 42.7463 38.7382H46.7276C46.9916 38.7382 47.2448 38.6333 47.4315 38.4466C47.6181 38.26 47.723 38.0068 47.723 37.7428C47.723 37.4788 47.6181 37.2257 47.4315 37.039C47.2448 36.8524 46.9916 36.7475 46.7276 36.7475ZM54.6903 44.7102H50.709C50.445 44.7102 50.1918 44.815 50.0052 45.0017C49.8185 45.1883 49.7136 45.4415 49.7136 45.7055C49.7136 45.9695 49.8185 46.2226 50.0052 46.4093C50.1918 46.596 50.445 46.7008 50.709 46.7008H54.6903C54.9543 46.7008 55.2075 46.596 55.3941 46.4093C55.5808 46.2226 55.6856 45.9695 55.6856 45.7055C55.6856 45.4415 55.5808 45.1883 55.3941 45.0017C55.2075 44.815 54.9543 44.7102 54.6903 44.7102Z" fill="white"/>
<path d="M42.7463 30.7756C43.296 30.7756 43.7416 30.33 43.7416 29.7802C43.7416 29.2305 43.296 28.7849 42.7463 28.7849C42.1966 28.7849 41.751 29.2305 41.751 29.7802C41.751 30.33 42.1966 30.7756 42.7463 30.7756Z" fill="white"/>
<path d="M42.7463 34.757H50.709C50.973 34.757 51.2261 34.6522 51.4128 34.4655C51.5994 34.2788 51.7043 34.0257 51.7043 33.7617C51.7043 33.4977 51.5994 33.2445 51.4128 33.0579C51.2261 32.8712 50.973 32.7664 50.709 32.7664H42.7463C42.4823 32.7664 42.2292 32.8712 42.0425 33.0579C41.8558 33.2445 41.751 33.4977 41.751 33.7617C41.751 34.0257 41.8558 34.2788 42.0425 34.4655C42.2292 34.6522 42.4823 34.757 42.7463 34.757Z" fill="white"/>
<path d="M7.72943 17.7608C15.7403 15.6896 19.8919 18.287 22.0424 20.3163C22.2352 20.4983 22.3383 20.7529 22.3383 21.0181V34.3698C22.3383 35.2893 21.0708 35.8435 20.2556 35.4181C16.7593 33.5934 11.4933 33.7061 8.19184 34.1616C7.57042 34.2474 7 33.7743 7 33.147V18.7137C7 18.2672 7.29717 17.8726 7.72943 17.7608Z" stroke="#00EAFF" stroke-width="1.5" stroke-linecap="round"/>
<path d="M37.3783 17.7625C29.2505 15.6884 25.0385 18.2858 22.8567 20.3155C22.6607 20.4979 22.5558 20.7546 22.5558 21.0222V34.3972C22.5558 35.3133 23.8104 35.8651 24.6227 35.4415C28.175 33.5889 33.5607 33.7046 36.9219 34.1642C37.5423 34.2491 38.1113 33.7764 38.1113 33.1502V18.7166C38.1113 18.2687 37.8122 17.8733 37.3783 17.7625Z" stroke="#00EAFF" stroke-width="1.5" stroke-linecap="round"/>
<path fill-rule="evenodd" clip-rule="evenodd" d="M19.9393 42.7195C20.2033 42.7195 20.4565 42.6146 20.6431 42.428C20.8298 42.2413 20.9347 41.9881 20.9347 41.7242C20.9347 41.4602 20.8298 41.207 20.6431 41.0203C20.4565 40.8337 20.2033 40.7288 19.9393 40.7288H7.99533C7.73135 40.7288 7.47819 40.8337 7.29153 41.0203C7.10487 41.207 7 41.4602 7 41.7242C7 41.9881 7.10487 42.2413 7.29153 42.428C7.47819 42.6146 7.73135 42.7195 7.99533 42.7195H19.9393ZM7.99533 46.7008H13.9673C14.2313 46.7008 14.4845 46.596 14.6711 46.4093C14.8578 46.2226 14.9627 45.9695 14.9627 45.7055C14.9627 45.4415 14.8578 45.1883 14.6711 45.0017C14.4845 44.815 14.2313 44.7102 13.9673 44.7102H7.99533C7.73135 44.7102 7.47819 44.815 7.29153 45.0017C7.10487 45.1883 7 45.4415 7 45.7055C7 45.9695 7.10487 46.2226 7.29153 46.4093C7.47819 46.596 7.73135 46.7008 7.99533 46.7008ZM7.99533 50.6822H17.9487C18.2126 50.6822 18.4658 50.5773 18.6525 50.3906C18.8391 50.204 18.944 49.9508 18.944 49.6868C18.944 49.4228 18.8391 49.1697 18.6525 48.983C18.4658 48.7963 18.2126 48.6915 17.9487 48.6915H7.99533C7.73135 48.6915 7.47819 48.7963 7.29153 48.983C7.10487 49.1697 7 49.4228 7 49.6868C7 49.9508 7.10487 50.204 7.29153 50.3906C7.47819 50.5773 7.73135 50.6822 7.99533 50.6822ZM7.99533 52.6728C7.73135 52.6728 7.47819 52.7777 7.29153 52.9643C7.10487 53.151 7 53.4042 7 53.6682C7 53.9321 7.10487 54.1853 7.29153 54.372C7.47819 54.5586 7.73135 54.6635 7.99533 54.6635H35.8647C36.1286 54.6635 36.3818 54.5586 36.5685 54.372C36.7551 54.1853 36.86 53.9321 36.86 53.6682C36.86 53.4042 36.7551 53.151 36.5685 52.9643C36.3818 52.7777 36.1286 52.6728 35.8647 52.6728H7.99533ZM35.8647 40.7288H23.9207C23.6567 40.7288 23.4035 40.8337 23.2169 41.0203C23.0302 41.207 22.9253 41.4602 22.9253 41.7242C22.9253 41.9881 23.0302 42.2413 23.2169 42.428C23.4035 42.6146 23.6567 42.7195 23.9207 42.7195H35.8647C36.1286 42.7195 36.3818 42.6146 36.5685 42.428C36.7551 42.2413 36.86 41.9881 36.86 41.7242C36.86 41.4602 36.7551 41.207 36.5685 41.0203C36.3818 40.8337 36.1286 40.7288 35.8647 40.7288ZM16.9533 45.7055C16.9533 45.9695 17.0582 46.2226 17.2449 46.4093C17.4315 46.596 17.6847 46.7008 17.9487 46.7008H27.902C28.166 46.7008 28.4191 46.596 28.6058 46.4093C28.7925 46.2226 28.8973 45.9695 28.8973 45.7055C28.8973 45.4415 28.7925 45.1883 28.6058 45.0017C28.4191 44.815 28.166 44.7102 27.902 44.7102H17.9487C17.6847 44.7102 17.4315 44.815 17.2449 45.0017C17.0582 45.1883 16.9533 45.4415 16.9533 45.7055ZM35.8647 44.7102H31.8833C31.6194 44.7102 31.3662 44.815 31.1795 45.0017C30.9929 45.1883 30.888 45.4415 30.888 45.7055C30.888 45.9695 30.9929 46.2226 31.1795 46.4093C31.3662 46.596 31.6194 46.7008 31.8833 46.7008H35.8647C36.1286 46.7008 36.3818 46.596 36.5685 46.4093C36.7551 46.2226 36.86 45.9695 36.86 45.7055C36.86 45.4415 36.7551 45.1883 36.5685 45.0017C36.3818 44.815 36.1286 44.7102 35.8647 44.7102ZM21.93 48.6915C21.666 48.6915 21.4129 48.7963 21.2262 48.983C21.0395 49.1697 20.9347 49.4228 20.9347 49.6868C20.9347 49.9508 21.0395 50.204 21.2262 50.3906C21.4129 50.5773 21.666 50.6822 21.93 50.6822H35.8647C36.1286 50.6822 36.3818 50.5773 36.5685 50.3906C36.7551 50.204 36.86 49.9508 36.86 49.6868C36.86 49.4228 36.7551 49.1697 36.5685 48.983C36.3818 48.7963 36.1286 48.6915 35.8647 48.6915H21.93Z" fill="#00EAFF"/>
</svg>
