<svg width="190" height="190" viewBox="0 0 190 190" fill="none" xmlns="http://www.w3.org/2000/svg">
<path d="M19.7598 118.642L19.7598 116.238C19.7598 115.642 20.2702 115.16 20.8998 115.16C21.5294 115.16 22.0398 115.642 22.0398 116.238L22.0398 118.642C22.0398 119.237 21.5294 119.72 20.8998 119.72C20.2702 119.72 19.7598 119.237 19.7598 118.642Z" fill="#00EAFF"/>
<path d="M24.942 133.532L23.5945 131.541C23.2608 131.048 23.3899 130.377 23.883 130.044C24.3761 129.71 25.0463 129.839 25.3801 130.332L26.7276 132.323C27.0613 132.816 26.9321 133.486 26.4391 133.82C25.946 134.154 25.2758 134.025 24.942 133.532Z" fill="#00EAFF"/>
<path d="M29.9849 139.732L28.4069 137.918C28.016 137.469 28.0633 136.788 28.5125 136.397C28.9617 136.007 29.6426 136.054 30.0334 136.503L31.6115 138.317C32.0023 138.766 31.955 139.447 31.5059 139.838C31.0567 140.228 30.3758 140.181 29.9849 139.732Z" fill="#00EAFF"/>
<path d="M36.362 145.048L34.4296 143.618C33.951 143.264 33.8501 142.589 34.2043 142.11C34.5585 141.631 35.2336 141.531 35.7121 141.885L37.6446 143.315C38.1232 143.669 38.224 144.344 37.8698 144.823C37.5157 145.301 36.8406 145.402 36.362 145.048Z" fill="#00EAFF"/>
<path d="M43.3293 149.284L41.1845 148.198C40.6533 147.929 40.4407 147.28 40.7096 146.749C40.9786 146.218 41.6272 146.005 42.1584 146.274L44.3032 147.36C44.8344 147.629 45.047 148.278 44.778 148.809C44.5091 149.34 43.8604 149.553 43.3293 149.284Z" fill="#00EAFF"/>
<path d="M50.9812 152.841L48.7069 152.062C48.1436 151.869 47.8434 151.256 48.0364 150.693C48.2293 150.129 48.8423 149.829 49.4056 150.022L51.6799 150.801C52.2432 150.994 52.5434 151.607 52.3504 152.17C52.1575 152.734 51.5445 153.034 50.9812 152.841Z" fill="#00EAFF"/>
<path d="M59.03 155.673L56.2874 154.928C55.7129 154.772 55.3736 154.18 55.5297 153.605C55.6857 153.031 56.2781 152.691 56.8526 152.847L59.5952 153.592C60.1698 153.748 60.5091 154.341 60.353 154.915C60.1969 155.49 59.6046 155.829 59.03 155.673Z" fill="#00EAFF"/>
<path d="M66.9978 157.641L64.3486 157.17C63.7623 157.066 63.3715 156.507 63.4755 155.92C63.5796 155.334 64.1392 154.943 64.7254 155.047L67.3746 155.518C67.9609 155.622 68.3518 156.181 68.2477 156.768C68.1437 157.354 67.5841 157.745 66.9978 157.641Z" fill="#00EAFF"/>
<path d="M74.9175 159.155L72.5233 158.938C71.9304 158.884 71.4934 158.36 71.5472 157.767C71.6011 157.174 72.1254 156.737 72.7184 156.791L75.1126 157.008C75.7055 157.062 76.1425 157.586 76.0887 158.179C76.0348 158.772 75.5105 159.209 74.9175 159.155Z" fill="#00EAFF"/>
<path d="M82.8697 159.873L80.4674 159.781C79.8724 159.759 79.4085 159.258 79.4311 158.663C79.4537 158.068 79.9544 157.604 80.5494 157.627L82.9517 157.718C83.5466 157.741 84.0106 158.241 83.988 158.836C83.9653 159.431 83.4647 159.895 82.8697 159.873Z" fill="#00EAFF"/>
<path d="M106.019 158.72L103.635 159.027C103.045 159.103 102.504 158.686 102.428 158.096C102.352 157.505 102.769 156.965 103.359 156.889L105.744 156.581C106.334 156.505 106.875 156.922 106.951 157.513C107.027 158.103 106.61 158.644 106.019 158.72Z" fill="#00EAFF"/>
<path d="M109.842 156.628C109.686 156.053 110.026 155.461 110.6 155.306L112.828 154.702C113.403 154.546 113.995 154.886 114.151 155.46C114.306 156.035 113.967 156.627 113.392 156.783L111.164 157.387C110.59 157.542 109.998 157.203 109.842 156.628Z" fill="#00EAFF"/>
<path d="M120.267 153.877L118.413 154.879C117.889 155.162 117.235 154.967 116.952 154.443C116.669 153.919 116.864 153.265 117.388 152.982L119.242 151.98C119.766 151.697 120.42 151.892 120.703 152.416C120.986 152.94 120.791 153.594 120.267 153.877Z" fill="#00EAFF"/>
<path d="M131.052 144.453L130.168 145.768C129.836 146.262 129.166 146.393 128.672 146.061C128.178 145.729 128.047 145.059 128.379 144.565L129.263 143.25C129.595 142.756 130.265 142.624 130.759 142.957C131.253 143.289 131.384 143.958 131.052 144.453Z" fill="#00EAFF"/>
<path d="M126.451 149.542L124.769 150.986C124.317 151.374 123.637 151.322 123.249 150.871C122.861 150.419 122.913 149.738 123.364 149.35L125.046 147.906C125.498 147.518 126.179 147.57 126.566 148.022C126.954 148.474 126.903 149.154 126.451 149.542Z" fill="#00EAFF"/>
<path d="M98.4562 159.72L96.0616 159.933C95.4686 159.986 94.9451 159.548 94.8924 158.954C94.8398 158.361 95.2778 157.838 95.8709 157.785L98.2655 157.573C98.8586 157.52 99.382 157.958 99.4347 158.551C99.4874 159.144 99.0493 159.668 98.4562 159.72Z" fill="#00EAFF"/>
<path d="M90.6261 160.177L88.2238 160.086C87.6288 160.063 87.1648 159.563 87.1875 158.968C87.2101 158.373 87.7108 157.909 88.3057 157.931L90.708 158.023C91.303 158.045 91.767 158.546 91.7443 159.141C91.7217 159.736 91.221 160.2 90.6261 160.177Z" fill="#00EAFF"/>
<path d="M21.2451 126.516L20.5598 124.212C20.39 123.641 20.7151 123.041 21.2858 122.871C21.8564 122.702 22.4567 123.027 22.6264 123.597L23.3118 125.902C23.4815 126.472 23.1565 127.073 22.5858 127.242C22.0151 127.412 21.4149 127.087 21.2451 126.516Z" fill="#00EAFF"/>
<path d="M153.519 111.36H154.25L154.279 109.08L153.519 111.36Z" fill="#00EAFF"/>
<path d="M154.279 109.104L154.253 111.36H153.519L154.205 109.08L154.279 109.104ZM153.638 111.246H154.178L154.199 109.381L153.638 111.246Z" fill="#00EAFF"/>
<path d="M151.999 83.9998H152.696L152.759 86.2798L151.999 83.9998Z" fill="#00EAFF"/>
<path d="M152.759 86.2534L152.703 83.9998H151.999L152.689 86.2798L152.759 86.2534ZM152.115 84.1137H152.632L152.678 85.9767L152.115 84.1137Z" fill="#00EAFF"/>
<path d="M164.159 84V86.28H152.759V84H164.159Z" fill="#00EAFF"/>
<path d="M164.159 109.08V111.36H154.279V109.08H164.159Z" fill="#00EAFF"/>
<path d="M34.6408 97.6797C35.2368 97.6797 35.72 98.0199 35.72 98.4397C35.72 98.8594 35.2368 99.1997 34.6408 99.1997H27.6794C27.0833 99.1997 26.6001 98.8594 26.6001 98.4397C26.6001 98.0199 27.0833 97.6797 27.6794 97.6797H34.6408Z" fill="#00EAFF"/>
<path d="M48.3204 97.6797C48.9165 97.6797 49.3997 98.0199 49.3997 98.4397C49.3997 98.8594 48.9165 99.1997 48.3204 99.1997H41.3591C40.763 99.1997 40.2798 98.8594 40.2798 98.4397C40.2798 98.0199 40.763 97.6797 41.3591 97.6797H48.3204Z" fill="#00EAFF"/>
<path d="M67.2432 97.6797C67.8818 97.6797 68.3995 98.0199 68.3995 98.4397C68.3995 98.8594 67.8818 99.1997 67.2432 99.1997H61.1958C60.5572 99.1997 60.0396 98.8594 60.0396 98.4397C60.0396 98.0199 60.5572 97.6797 61.1958 97.6797H67.2432Z" fill="#00EAFF"/>
<path d="M78.6436 97.6797C79.2822 97.6797 79.7999 98.0199 79.7999 98.4397C79.7999 98.8594 79.2822 99.1997 78.6436 99.1997H72.5962C71.9576 99.1997 71.4399 98.8594 71.4399 98.4397C71.4399 98.0199 71.9576 97.6797 72.5962 97.6797H78.6436Z" fill="#00EAFF"/>
<path d="M112.955 97.6797C113.532 97.6797 114 98.1901 114 98.8197C114 99.4493 113.532 99.9597 112.955 99.9597H105.164C104.587 99.9597 104.12 99.4493 104.12 98.8197C104.12 98.1901 104.587 97.6797 105.164 97.6797H112.955Z" fill="#00EAFF"/>
<path d="M128.181 97.6797C128.743 97.6797 129.199 98.1901 129.199 98.8197C129.199 99.4493 128.743 99.9597 128.181 99.9597H120.338C119.775 99.9597 119.319 99.4493 119.319 98.8197C119.319 98.1901 119.775 97.6797 120.338 97.6797H128.181Z" fill="#00EAFF"/>
<path d="M144.844 104.871L145.459 104.957C145.909 105.02 145.909 105.02 145.908 105.02C145.908 105.02 145.908 105.021 145.908 105.021C145.908 105.021 145.908 105.021 145.908 105.022C145.908 105.022 145.908 105.023 145.908 105.023C145.908 105.025 145.908 105.026 145.907 105.028C145.907 105.031 145.906 105.034 145.906 105.038C145.904 105.047 145.903 105.057 145.901 105.07C145.896 105.095 145.891 105.129 145.883 105.169C145.867 105.247 145.843 105.356 145.807 105.48C145.746 105.694 145.617 106.081 145.353 106.405C144.951 106.897 144.505 107.137 144.045 107.319C143.689 107.46 143.28 107.511 143.036 107.533C142.899 107.546 142.779 107.552 142.692 107.556C142.648 107.558 142.612 107.559 142.586 107.559C142.573 107.559 142.562 107.559 142.554 107.56C142.55 107.56 142.547 107.56 142.544 107.56C142.543 107.56 142.541 107.56 142.54 107.56C142.54 107.56 142.539 107.56 142.539 107.56C142.539 107.56 142.539 107.56 142.538 107.56C142.538 107.56 142.538 107.56 142.538 107.56C142.538 107.56 142.538 107.56 142.533 106.497L142.538 107.56L142.535 107.56H101.08V105.435H142.528C142.53 105.435 142.535 105.434 142.542 105.434C142.556 105.434 142.578 105.433 142.607 105.432C142.665 105.43 142.746 105.426 142.836 105.417C143.046 105.398 143.194 105.367 143.246 105.346C143.511 105.241 143.591 105.179 143.679 105.07C143.663 105.091 143.698 105.045 143.738 104.902C143.752 104.855 143.762 104.812 143.769 104.777V95.146L143.769 95.1432C143.769 95.1432 143.769 95.1432 143.769 95.1432C143.769 95.143 143.769 95.1428 143.769 95.1425C143.769 95.1419 143.769 95.1409 143.769 95.1396C143.769 95.1369 143.769 95.1327 143.769 95.1272C143.769 95.1162 143.769 95.0997 143.769 95.0784C143.769 95.0358 143.769 94.9743 143.769 94.8992C143.769 94.7487 143.767 94.5455 143.763 94.333C143.759 94.1189 143.752 93.903 143.742 93.7245C143.731 93.5249 143.719 93.454 143.723 93.4654L143.724 93.4688L143.722 93.4605C143.678 93.2873 143.586 93.1541 143.373 93.03C143.361 93.0228 143.285 92.9898 143.09 92.9765C143 92.9704 142.904 92.9693 142.797 92.9706C142.717 92.9715 142.553 92.9757 142.458 92.9757C142.218 92.9757 131.942 92.973 121.726 92.9704L103.1 92.9655C102.544 92.9653 102.107 92.9652 101.81 92.9651C101.661 92.9651 101.547 92.9651 101.47 92.9651C101.432 92.965 101.402 92.965 101.383 92.965C101.373 92.965 101.366 92.965 101.361 92.965H101.354C101.354 92.965 101.353 92.965 101.354 91.9024C101.354 90.8398 101.354 90.8398 101.354 90.8398H101.361C101.366 90.8398 101.374 90.8399 101.383 90.8399C101.403 90.8399 101.432 90.8399 101.471 90.8399C101.547 90.8399 101.662 90.8399 101.81 90.84C102.108 90.84 102.545 90.8402 103.101 90.8403L121.727 90.8452C131.943 90.8479 142.218 90.8505 142.457 90.8505C142.561 90.8505 142.929 90.8353 143.238 90.8564C143.567 90.8789 144.032 90.9468 144.466 91.1999C145.137 91.5914 145.616 92.1813 145.809 92.9531L145.814 92.9713L145.818 92.9898C145.863 93.1827 145.879 93.4324 145.889 93.6077C145.901 93.823 145.908 94.0678 145.913 94.293C145.917 94.5198 145.919 94.7345 145.919 94.892C145.919 94.9709 145.919 95.0359 145.919 95.0814C145.919 95.1042 145.919 95.1221 145.919 95.1344C145.919 95.1406 145.919 95.1454 145.919 95.1487C145.919 95.1504 145.919 95.1517 145.919 95.1526V104.946L145.909 105.02L144.844 104.871Z" fill="#00EAFF"/>
<path d="M166.912 107.459L167.823 107.554C167.954 107.568 167.954 107.568 167.954 107.568C167.954 107.568 167.954 107.569 167.954 107.569C167.954 107.569 167.954 107.569 167.954 107.569C167.954 107.57 167.953 107.57 167.953 107.571C167.953 107.572 167.953 107.574 167.953 107.575C167.953 107.579 167.952 107.583 167.952 107.588C167.951 107.598 167.949 107.612 167.947 107.63C167.943 107.664 167.938 107.712 167.93 107.77C167.915 107.885 167.891 108.045 167.856 108.225C167.794 108.551 167.674 109.073 167.443 109.497C167.047 110.222 166.589 110.612 166.044 110.934C165.627 111.181 165.141 111.272 164.848 111.313C164.685 111.335 164.542 111.347 164.439 111.353C164.387 111.356 164.344 111.358 164.312 111.359C164.296 111.359 164.283 111.359 164.273 111.36C164.268 111.36 164.264 111.36 164.261 111.36C164.259 111.36 164.258 111.36 164.256 111.36C164.256 111.36 164.255 111.36 164.255 111.36H164.253C164.253 111.36 164.253 111.356 164.246 110.263C164.239 109.181 164.239 109.167 164.239 109.167H164.238C164.237 109.167 164.237 109.167 164.237 109.167C164.236 109.167 164.236 109.167 164.236 109.167C164.236 109.167 164.236 109.167 164.237 109.167C164.239 109.167 164.244 109.167 164.252 109.166C164.266 109.166 164.29 109.165 164.322 109.163C164.386 109.159 164.475 109.152 164.574 109.138C164.806 109.106 164.961 109.056 165.015 109.024C165.307 108.852 165.455 108.72 165.625 108.408C165.679 108.31 165.748 108.084 165.804 107.794C165.828 107.667 165.845 107.551 165.856 107.468C165.86 107.439 165.863 107.415 165.865 107.396V90.6851L165.865 90.6831V90.6828C165.865 90.6825 165.865 90.6821 165.865 90.6815C165.865 90.6803 165.865 90.6784 165.865 90.6759C165.865 90.671 165.865 90.6635 165.865 90.6536C165.865 90.6339 165.865 90.6048 165.865 90.5673C165.866 90.4925 165.866 90.3846 165.865 90.2531C165.865 89.99 165.863 89.6338 165.858 89.2601C165.848 88.4572 165.824 87.7342 165.793 87.5447C165.694 86.9332 165.469 86.5525 165.176 86.2965C165.143 86.2676 165.066 86.2226 164.872 86.2029C164.778 86.1933 164.674 86.1913 164.553 86.1934C164.47 86.1949 164.269 86.2023 164.159 86.2023L164.159 84.0091C164.26 84.0091 164.71 83.9826 165.076 84.02C165.487 84.0621 166.034 84.1912 166.516 84.6113C167.251 85.2533 167.688 86.1347 167.857 87.1758C167.923 87.5778 167.942 88.5182 167.952 89.2309C167.956 89.615 167.958 89.9796 167.959 90.2478C167.959 90.3821 167.959 90.4925 167.959 90.5695C167.959 90.6081 167.959 90.6382 167.959 90.6589C167.959 90.6692 167.959 90.6772 167.959 90.6826C167.959 90.6844 167.959 90.6859 167.959 90.6871V107.514L167.954 107.568L166.912 107.459ZM165.871 107.348C165.871 107.348 165.871 107.348 165.871 107.349C165.871 107.348 165.871 107.348 165.871 107.348C165.871 107.348 165.871 107.348 165.871 107.348Z" fill="#00EAFF"/>
<path d="M99.2197 104.871L98.5442 104.957C98.0512 105.019 98.0513 105.019 98.0513 105.02C98.0513 105.02 98.0513 105.02 98.0513 105.02C98.0514 105.02 98.0514 105.02 98.0515 105.021C98.0516 105.021 98.0516 105.022 98.0517 105.023C98.0519 105.024 98.0522 105.025 98.0524 105.027C98.0529 105.03 98.0535 105.033 98.0542 105.038C98.0557 105.046 98.0575 105.057 98.0599 105.069C98.0645 105.094 98.071 105.128 98.0797 105.168C98.0969 105.247 98.1235 105.356 98.1622 105.479C98.2294 105.693 98.3711 106.08 98.6611 106.404C99.1025 106.897 99.5917 107.137 100.097 107.319C100.488 107.46 100.936 107.511 101.204 107.533C101.354 107.546 101.487 107.552 101.582 107.556C101.63 107.558 101.67 107.559 101.698 107.559C101.713 107.559 101.725 107.56 101.733 107.56C101.738 107.56 101.742 107.56 101.744 107.56C101.746 107.56 101.747 107.56 101.748 107.56C101.749 107.56 101.749 107.56 101.75 107.56C101.75 107.56 101.75 107.56 101.75 107.56C101.751 107.56 101.751 107.56 101.751 107.56C101.751 107.56 101.751 107.56 101.757 106.497C101.762 105.435 101.763 105.434 101.763 105.434C101.763 105.434 101.763 105.434 101.763 105.434C101.763 105.434 101.763 105.434 101.763 105.434H101.764C101.764 105.434 101.764 105.434 101.762 105.434C101.76 105.434 101.754 105.434 101.747 105.434C101.731 105.433 101.707 105.433 101.676 105.432C101.612 105.429 101.523 105.425 101.424 105.417C101.193 105.397 101.031 105.366 100.974 105.345C100.683 105.24 100.595 105.178 100.498 105.069C100.516 105.09 100.478 105.044 100.433 104.901C100.419 104.854 100.408 104.811 100.4 104.777V95.142L100.4 95.1392C100.4 95.1392 100.4 95.1392 100.4 95.1392C100.4 95.1391 100.4 95.1388 100.4 95.1385C100.4 95.1379 100.4 95.1369 100.4 95.1356C100.4 95.1329 100.4 95.1287 100.4 95.1232C100.4 95.1122 100.4 95.0957 100.399 95.0744C100.399 95.0318 100.399 94.9702 100.4 94.8951C100.4 94.7446 100.402 94.5413 100.406 94.3288C100.411 94.1146 100.418 93.8986 100.429 93.7201C100.441 93.5204 100.454 93.4495 100.45 93.4609L100.45 93.4643L100.452 93.456C100.5 93.2827 100.601 93.1494 100.834 93.0254C100.848 93.0181 100.931 92.9852 101.145 92.9718C101.243 92.9657 101.349 92.9646 101.467 92.9659C101.555 92.9668 101.735 92.971 101.839 92.971L101.839 90.8452C101.726 90.8452 101.321 90.8299 100.983 90.851C100.622 90.8735 100.111 90.9415 99.6346 91.1947C98.8923 91.5894 98.3637 92.1857 98.155 92.9667C98.1028 93.1619 98.0835 93.4222 98.0724 93.6032C98.0593 93.8186 98.0515 94.0634 98.0468 94.2887C98.042 94.5156 98.0402 94.7304 98.0396 94.8879C98.0393 94.9669 98.0393 95.0319 98.0394 95.0774C98.0395 95.1002 98.0395 95.1181 98.0396 95.1304C98.0396 95.1366 98.0396 95.1414 98.0396 95.1447C98.0396 95.1454 98.0396 95.1461 98.0396 95.1467V104.945L98.0512 105.019L99.2197 104.871Z" fill="#00EAFF"/>
<path d="M140.343 97.6797C140.904 97.6797 141.359 98.1901 141.359 98.8197C141.359 99.4493 140.904 99.9597 140.343 99.9597H135.536C134.975 99.9597 134.52 99.4493 134.52 98.8197C134.52 98.1901 134.975 97.6797 135.536 97.6797H140.343Z" fill="#00EAFF"/>
<path d="M89.6797 97.6797V99.9597H89.0136C88.542 99.9597 88.1597 99.4493 88.1597 98.8197C88.1597 98.1901 88.542 97.6797 89.0136 97.6797H89.6797Z" fill="#00EAFF"/>
<path d="M56.2397 85.52V110.6H54.7197V85.52H56.2397Z" fill="#00EAFF"/>
<path d="M85.1198 86.2798V111.36H82.8398V86.2798H85.1198Z" fill="#00EAFF"/>
<path d="M103.359 72.6001V74.8772H55.0253L55.0127 74.8773C55.001 74.8775 54.983 74.8777 54.9595 74.8781C54.9123 74.8788 54.843 74.8802 54.7571 74.8826C54.5847 74.8875 54.349 74.8967 54.0942 74.9135C53.5245 74.951 53.0566 75.0167 52.8819 75.0818C52.4806 75.2313 52.2757 75.3382 52.1171 75.452C51.956 75.5677 51.787 75.7305 51.5061 76.0668C51.1691 76.4703 50.9226 77.1724 50.9226 77.7345C50.9226 79.2065 50.9226 81.1528 50.9226 82.7312V85.52C50.9224 85.52 50.9087 85.52 49.7811 85.52C48.6444 85.52 48.6397 85.52 48.6396 85.52V82.7312C48.6396 81.1528 48.6396 79.2064 48.6397 77.7344C48.6397 76.6773 49.05 75.4499 49.752 74.6093C50.0788 74.2181 50.3918 73.8851 50.7833 73.604C51.1772 73.3211 51.5952 73.1304 52.0832 72.9486C52.6209 72.7483 53.4223 72.6757 53.9437 72.6413C54.2344 72.6221 54.4998 72.6119 54.692 72.6065C54.7884 72.6037 54.8673 72.6021 54.9228 72.6012C54.9506 72.6008 54.9725 72.6005 54.9879 72.6004C54.9957 72.6003 55.0018 72.6002 55.0061 72.6002C55.0083 72.6002 55.0101 72.6001 55.0114 72.6001C55.012 72.6001 55.0126 72.6001 55.013 72.6001C55.0133 72.6001 55.0134 72.6001 55.0136 72.6001C55.0137 72.6001 55.0138 72.6001 55.0138 72.6001C55.0139 72.6001 55.014 72.6054 55.021 73.7387L55.014 72.6001L55.0175 72.6001H103.359Z" fill="#00EAFF"/>
<path d="M49.9547 46.191C50.5501 46.1931 51.031 46.6775 51.0289 47.2729C51.0268 47.8683 50.5424 48.3492 49.947 48.347L34.7788 48.2928C34.1834 48.2906 33.7025 47.8062 33.7046 47.2109C33.7068 46.6155 34.1912 46.1345 34.7865 46.1367L49.9547 46.191Z" fill="#00EAFF"/>
<path d="M49.9547 46.191C50.5501 46.1931 51.031 46.6775 51.0289 47.2729C51.0268 47.8683 50.5424 48.3492 49.947 48.347L34.7788 48.2928C34.1834 48.2906 33.7025 47.8062 33.7046 47.2109C33.7068 46.6155 34.1912 46.1345 34.7865 46.1367L49.9547 46.191Z" fill="#00EAFF"/>
<path d="M50.7741 39.917C51.3694 39.9192 51.8504 40.4035 51.8482 40.9989C51.8461 41.5943 51.3617 42.0753 50.7663 42.0731L35.5982 42.0188C35.0028 42.0167 34.5218 41.5323 34.524 40.9369C34.5261 40.3415 35.0105 39.8606 35.6059 39.8627L50.7741 39.917Z" fill="#00EAFF"/>
<path d="M68.5636 43.413C69.159 43.413 69.6417 43.8956 69.6417 44.491C69.6417 45.0864 69.1591 45.5691 68.5637 45.5691L59.7938 45.5695C59.1984 45.5696 58.7157 45.0869 58.7157 44.4915C58.7157 43.8961 59.1983 43.4134 59.7937 43.4134L68.5636 43.413ZM84.6265 43.4131C85.2219 43.4131 85.7046 43.8957 85.7046 44.4911C85.7046 45.0865 85.222 45.5692 84.6266 45.5692L75.8567 45.5696C75.2613 45.5697 74.7786 45.087 74.7786 44.4916C74.7786 43.8963 75.2612 43.4136 75.8566 43.4135L84.6265 43.4131ZM100.625 43.413C101.22 43.4129 101.703 43.8956 101.703 44.491C101.703 45.0864 101.22 45.569 100.625 45.5691L91.8551 45.5695C91.2597 45.5695 90.777 45.0869 90.777 44.4915C90.777 43.8961 91.2596 43.4134 91.855 43.4134L100.625 43.413ZM116.483 43.4133C117.078 43.4133 117.561 43.8959 117.561 44.4913C117.561 45.0867 117.079 45.5693 116.483 45.5694L107.713 45.5698C107.118 45.5698 106.635 45.0872 106.635 44.4918C106.635 43.8964 107.118 43.4137 107.713 43.4137L116.483 43.4133ZM132.126 43.4126C132.721 43.4125 133.204 43.8952 133.204 44.4906C133.204 45.0859 132.721 45.5686 132.126 45.5687L123.356 45.5691C122.76 45.5691 122.278 45.0865 122.278 44.4911C122.278 43.8957 122.76 43.413 123.356 43.413L132.126 43.4126ZM146.9 43.4128C147.496 43.4128 147.978 43.8954 147.978 44.4908C147.978 45.0862 147.496 45.5689 146.9 45.5689L139.527 45.5689C138.931 45.5689 138.448 45.0862 138.448 44.4908C138.448 43.8954 138.931 43.4128 139.527 43.4128L146.9 43.4128Z" fill="#00EAFF"/>
<path d="M148.39 129.071C148.985 128.672 149.811 128.803 150.234 129.364C150.657 129.925 150.518 130.703 149.923 131.102L141.168 136.969C140.573 137.368 139.747 137.237 139.324 136.676C138.901 136.115 139.04 135.337 139.635 134.938L148.39 129.071Z" fill="#00EAFF"/>
<path d="M141.454 135.675C141.455 135.676 141.455 135.677 141.456 135.678C141.457 135.68 141.46 135.684 141.463 135.688C141.469 135.698 141.478 135.712 141.49 135.73C141.514 135.767 141.55 135.821 141.596 135.892C141.689 136.034 141.826 136.243 142 136.509C142.349 137.041 142.848 137.803 143.449 138.721C144.652 140.556 146.265 143.015 147.905 145.511C151.211 150.54 154.563 155.618 154.969 156.159C155.193 156.458 155.399 156.76 155.582 157.025C155.77 157.3 155.934 157.537 156.101 157.754C156.434 158.185 156.719 158.456 157.037 158.624C157.495 158.865 157.806 158.962 158.103 159.008C158.431 159.059 158.801 159.06 159.436 159.037C160.24 159.007 161.008 158.724 161.952 158.237C162.278 158.069 162.679 157.751 163.072 157.35C163.46 156.953 163.763 156.552 163.919 156.287C164.106 155.968 164.181 155.792 164.238 155.598C164.308 155.363 164.362 155.071 164.464 154.466C164.502 154.246 164.461 153.895 164.229 153.309C163.997 152.72 163.663 152.105 163.266 151.324C163.266 151.325 163.251 151.296 163.208 151.226C163.168 151.16 163.115 151.075 163.047 150.97C162.91 150.76 162.727 150.486 162.501 150.154C162.05 149.491 161.442 148.619 160.73 147.607C159.306 145.585 157.474 143.022 155.664 140.502C153.854 137.983 152.067 135.509 150.732 133.665C150.065 132.743 149.51 131.978 149.123 131.444C148.929 131.177 148.778 130.968 148.674 130.825C148.622 130.754 148.583 130.699 148.556 130.663C148.543 130.644 148.533 130.63 148.526 130.621C148.522 130.616 148.52 130.613 148.518 130.611C148.517 130.609 148.517 130.609 148.516 130.608C148.516 130.608 148.516 130.607 148.516 130.607C148.516 130.607 148.526 130.599 149.606 129.815C150.696 129.023 150.696 129.023 150.696 129.023C150.696 129.024 150.697 129.024 150.697 129.024C150.697 129.025 150.698 129.026 150.699 129.027C150.701 129.029 150.703 129.033 150.706 129.037C150.713 129.047 150.723 129.061 150.737 129.079C150.764 129.116 150.803 129.171 150.855 129.242C150.959 129.385 151.111 129.595 151.305 129.862C151.693 130.397 152.247 131.162 152.915 132.085C154.251 133.931 156.04 136.407 157.852 138.93C159.664 141.452 161.502 144.022 162.933 146.055C163.649 147.071 164.266 147.957 164.729 148.637C165.164 149.276 165.527 149.824 165.668 150.103C166.014 150.783 166.442 151.575 166.736 152.318C167.031 153.064 167.282 153.971 167.121 154.917C167.026 155.476 166.947 155.943 166.822 156.364C166.685 156.827 166.503 157.207 166.244 157.65C165.954 158.145 165.503 158.718 164.999 159.235C164.498 159.747 163.866 160.282 163.187 160.632C162.121 161.182 160.931 161.678 159.536 161.73C158.907 161.753 158.3 161.767 157.687 161.671C157.042 161.57 156.447 161.359 155.78 161.007C154.973 160.582 154.408 159.972 153.967 159.399C153.747 159.115 153.544 158.819 153.36 158.551C153.169 158.273 152.997 158.022 152.814 157.777C152.341 157.147 148.91 151.948 145.653 146.991C144.012 144.494 142.398 142.034 141.195 140.198C140.593 139.28 140.094 138.518 139.745 137.986C139.571 137.719 139.434 137.511 139.341 137.368C139.295 137.297 139.259 137.243 139.235 137.206C139.223 137.187 139.214 137.174 139.208 137.164C139.205 137.16 139.202 137.156 139.201 137.154C139.2 137.152 139.199 137.152 139.199 137.151C139.199 137.151 139.199 137.15 139.199 137.15C139.199 137.15 139.205 137.146 140.326 136.412C141.454 135.674 141.454 135.674 141.454 135.675C141.454 135.675 141.454 135.675 141.454 135.675ZM139.588 135.285C140.211 134.877 141.046 135.052 141.454 135.674L140.326 136.412L139.198 137.15C138.791 136.527 138.965 135.692 139.588 135.285ZM148.814 128.725C149.416 128.287 150.259 128.421 150.696 129.023L148.516 130.607C148.078 130.005 148.212 129.162 148.814 128.725Z" fill="#00EAFF"/>
<path d="M134.985 125.15C135.469 124.826 136.126 124.953 136.452 125.433L142.306 134.043C142.633 134.523 142.505 135.175 142.022 135.5C141.538 135.824 140.881 135.697 140.555 135.217L134.701 126.607C134.374 126.127 134.501 125.475 134.985 125.15ZM141.457 120.659C141.941 120.335 142.598 120.461 142.924 120.942L148.778 129.552C149.105 130.032 148.978 130.684 148.494 131.008C148.01 131.333 147.353 131.206 147.027 130.726L141.173 122.116C140.846 121.636 140.974 120.984 141.457 120.659Z" fill="#00EAFF"/>
<path d="M150.704 99.5799C150.704 84.5933 138.233 72.3566 122.739 72.3566C107.245 72.3566 94.7744 84.5933 94.7744 99.5799C94.7744 114.566 107.245 126.803 122.739 126.803V129.6C105.74 129.6 91.9595 116.159 91.9595 99.5799C91.9595 83.0004 105.74 69.5601 122.739 69.5601C139.739 69.5601 153.519 83.0004 153.519 99.5799C153.519 116.159 139.739 129.6 122.739 129.6V126.803C138.233 126.803 150.704 114.566 150.704 99.5799Z" fill="#00EAFF"/>
<path d="M136.847 59.05V61.1998H41.6461V59.05H136.847ZM154.414 52.4875V49.2413C154.414 49.2413 154.421 49.2413 155.487 49.2413C156.552 49.2413 156.559 49.2413 156.559 49.2413V52.4875C156.559 53.769 155.974 55.4645 155.417 56.4744C155.006 57.2201 154.791 57.6568 154.116 58.3946C153.461 59.1116 152.904 59.6794 151.908 60.2013C150.903 60.7282 150.411 60.8097 149.426 60.9844C148.372 61.1715 147.496 61.1998 146.494 61.1998H136.847C136.847 61.1998 136.847 61.1998 136.847 60.1249C136.847 59.05 136.847 59.05 136.847 59.05H146.494C147.448 59.05 148.18 59.0223 149.052 58.8675C149.973 58.7042 150.204 58.6681 150.914 58.2962C151.574 57.9506 151.928 57.6065 152.535 56.9427C153.016 56.4156 153.123 56.1892 153.54 55.434C153.988 54.6218 154.414 53.2882 154.414 52.4875ZM154.296 34.6492C154.296 34.6552 154.27 34.4318 154.134 34.0106C154.011 33.6302 153.831 33.1912 153.609 32.7973C153.174 32.0251 152.736 31.5604 151.998 30.8864C151.648 30.5679 151.42 30.3944 151.189 30.2553C150.947 30.1098 150.668 29.9815 150.181 29.7768C149.355 29.4296 148.459 29.28 147.866 29.28C147.498 29.28 119.19 29.2478 90.9752 29.2155C76.8674 29.1994 62.7826 29.1833 52.2248 29.1712L35.8996 29.1525C35.4875 29.152 35.1717 29.1517 34.9588 29.1514C34.8523 29.1513 34.7717 29.1512 34.7176 29.1512C34.6906 29.1511 34.6702 29.1511 34.6565 29.1511C34.6497 29.1511 34.6446 29.1511 34.6412 29.1511C34.6395 29.1511 34.6382 29.1511 34.6373 29.1511C34.6367 29.1511 34.6363 29.1511 34.6366 28.6976L34.6373 28.0761L34.636 29.1511L34.6273 29.151L34.6188 29.1509C34.6188 29.1509 34.6188 29.1509 34.6188 29.1509C34.6188 29.1509 34.6187 29.1509 34.6186 29.1509H34.6185C34.6181 29.1509 34.6174 29.1509 34.6162 29.1509C34.6139 29.1508 34.61 29.1508 34.6047 29.1507C34.5941 29.1506 34.5775 29.1504 34.5557 29.1502C34.5121 29.1499 34.4473 29.1496 34.366 29.15C34.2028 29.1508 33.9749 29.1541 33.717 29.1641C33.1829 29.1849 32.5884 29.2324 32.171 29.3247C31.3428 29.5078 30.9435 29.6268 30.269 29.9937C29.4724 30.427 29.1883 30.5595 28.6568 31.0587C28.1291 31.5543 27.874 31.8817 27.4519 32.5959C26.9839 33.3874 26.7231 34.0626 26.664 34.7003C26.5727 35.6857 26.4648 36.2471 26.4648 36.7991C26.4648 37.0994 26.4969 40.9204 26.5292 44.7673C26.5613 48.6035 26.5935 52.4654 26.5935 52.8262C26.5935 53.5857 26.7248 54.1089 27.0603 54.848C27.4967 55.8094 27.7784 56.2743 28.4713 56.9664C29.0717 57.566 29.4703 57.8044 30.3195 58.2565C30.6832 58.4501 31.2096 58.6563 31.7247 58.8149C31.9779 58.8928 32.2135 58.9546 32.4089 58.9959C32.5064 59.0165 32.5881 59.0308 32.6531 59.0396C32.6852 59.044 32.7108 59.0467 32.7302 59.0483C32.7397 59.0491 32.7471 59.0495 32.7524 59.0497C32.755 59.0498 32.757 59.0499 32.7584 59.0499C32.7598 59.05 32.7604 59.05 32.7604 59.05H41.646C41.646 59.05 41.6461 59.0565 41.6461 60.1249C41.6461 61.1933 41.646 61.1998 41.646 61.1998H32.7604C32.3038 61.1998 31.6544 61.0422 31.095 60.87C30.5005 60.687 29.8365 60.4337 29.3133 60.1551C28.3912 59.6643 27.7775 59.3085 26.9573 58.4892C26.0316 57.5648 25.6177 56.8614 25.1079 55.7383C24.668 54.7693 24.4485 53.9431 24.4485 52.8261C24.4485 52.4774 24.4164 48.6321 24.3842 44.7853C24.3521 40.9493 24.3198 37.1115 24.3198 36.7992C24.3198 36.1258 24.4604 35.2331 24.5282 34.5015C24.6282 33.4223 25.0555 32.432 25.6065 31.5C26.1151 30.6396 26.4922 30.1454 27.1901 29.49C27.9538 28.7726 28.4823 28.5195 29.2458 28.1042C30.1605 27.6066 30.7713 27.4326 31.7089 27.2253C32.3229 27.0895 33.077 27.0376 33.6338 27.0159C33.9213 27.0047 34.1743 27.0011 34.3557 27.0002C34.4467 26.9998 34.5201 27 34.5716 27.0004C34.5974 27.0006 34.6177 27.0008 34.6319 27.001C34.6375 27.0011 34.6422 27.0012 34.6459 27.0012C34.6491 27.0012 34.6535 27.0012 34.659 27.0012C34.6726 27.0013 34.693 27.0013 34.72 27.0013C34.7741 27.0014 34.8548 27.0015 34.9612 27.0016C35.1741 27.0018 35.49 27.0022 35.9021 27.0027L52.2273 27.0214C62.7851 27.0334 76.8699 27.0496 90.9776 27.0657C119.194 27.0979 147.5 27.1302 147.866 27.1302C148.743 27.1302 149.921 27.3362 151.011 27.7943C151.502 28.0008 151.906 28.1797 152.292 28.4115C152.688 28.6497 153.033 28.9236 153.442 29.2967C154.254 30.0381 154.88 30.6813 155.476 31.7392C155.783 32.2832 156.017 32.86 156.174 33.3483C156.319 33.7957 156.441 34.2939 156.441 34.6492C156.441 34.817 156.47 37.0453 156.5 39.9599C156.53 42.863 156.559 46.4282 156.559 49.2413H154.414C154.414 46.4398 154.385 42.8837 154.355 39.9818C154.326 37.0913 154.296 34.8309 154.296 34.6492Z" fill="#00EAFF"/>
<path d="M46.6164 35.4951C46.7026 34.9182 47.2228 34.5232 47.7783 34.6128C48.3337 34.7023 48.7141 35.2425 48.6279 35.8194L46.1038 52.705C46.0175 53.2818 45.4973 53.6769 44.9419 53.5873C44.3864 53.4978 44.006 52.9575 44.0923 52.3807L46.6164 35.4951Z" fill="#00EAFF"/>
<path d="M39.801 35.4898C39.8878 34.9147 40.4028 34.5222 40.9513 34.6132C41.4997 34.7042 41.874 35.2443 41.7872 35.8194L39.2384 52.7103C39.1516 53.2854 38.6367 53.6779 38.0882 53.5869C37.5397 53.4959 37.1655 52.9558 37.2522 52.3807L39.801 35.4898Z" fill="#00EAFF"/>
<path d="M91.9597 60.4399V73.3599H89.6797V60.4399H91.9597Z" fill="#00EAFF"/>
<path d="M106.399 72.6001H103.359L103.451 74.1201L106.399 72.6001Z" fill="#00EAFF"/>
<path d="M106.399 72.6001L103.451 74.8801L103.359 72.6001H106.399ZM103.624 74.4864L105.783 72.8165H103.556L103.624 74.4864Z" fill="#00EAFF"/>
<path d="M23.1065 109.181C23.1066 109.181 23.1065 109.181 23.1062 109.181C23.1062 109.181 23.1061 109.181 23.1061 109.181C23.1063 109.181 23.1064 109.181 23.1065 109.181ZM19 89.7238H20.0721L21.1441 89.7238V107.381C21.1461 107.397 21.1487 107.417 21.1519 107.441C21.1621 107.516 21.178 107.621 21.2005 107.738C21.2516 108.002 21.3145 108.206 21.3617 108.294C21.4763 108.508 21.5577 108.62 21.6321 108.7C21.7041 108.777 21.8045 108.86 21.9966 108.973C22.0857 109.025 22.3135 109.093 22.6279 109.138C22.7646 109.157 22.8887 109.168 22.9783 109.174C23.0226 109.178 23.0573 109.179 23.0795 109.18C23.0867 109.181 23.0925 109.181 23.0969 109.181H90.0299V111.36H23.0666L23.0539 111.36L23.0792 110.27L23.057 111.223C23.0538 111.357 23.0537 111.359 23.0536 111.36C23.0536 111.36 23.0534 111.36 23.0533 111.36C23.053 111.36 23.0528 111.36 23.0525 111.36C23.052 111.359 23.0514 111.359 23.0507 111.359C23.0493 111.359 23.0477 111.359 23.0459 111.359C23.0421 111.359 23.0374 111.359 23.0316 111.359C23.0202 111.358 23.0047 111.358 22.9858 111.357C22.9479 111.355 22.8955 111.353 22.8318 111.348C22.7053 111.339 22.5297 111.324 22.3317 111.296C21.9767 111.245 21.3951 111.136 20.9242 110.86C20.6086 110.674 20.3294 110.469 20.0786 110.201C19.8301 109.936 19.6453 109.647 19.4792 109.338C19.2657 108.94 19.1544 108.457 19.0965 108.157C19.0644 107.991 19.0421 107.844 19.0278 107.738C19.0206 107.685 19.0152 107.641 19.0116 107.609C19.0097 107.593 19.0083 107.58 19.0073 107.571C19.0068 107.566 19.0064 107.562 19.0061 107.559C19.0059 107.557 19.0057 107.556 19.0056 107.555C19.0056 107.554 19.0055 107.554 19.0055 107.553C19.0055 107.553 19.0054 107.553 19.0054 107.553C19.0054 107.553 19.0054 107.553 19.0054 107.552C19.0054 107.552 19.0117 107.552 20.0721 107.443L19.0054 107.552L19 107.498V89.7238ZM23.4858 86.1821C23.4802 86.1819 23.4708 86.1816 23.4581 86.1812C23.4327 86.1805 23.3941 86.1797 23.3452 86.1792C23.2468 86.1783 23.1101 86.1789 22.9583 86.185C22.6212 86.1987 22.3307 86.236 22.1857 86.2852C21.92 86.3753 21.8131 86.4236 21.7394 86.4688C21.6803 86.5051 21.6021 86.5642 21.4576 86.732C21.2933 86.9226 21.1441 87.3357 21.1441 87.6649V89.7238C21.144 89.7238 21.1326 89.7238 20.0721 89.7238C19.0056 89.7238 19 89.7238 19 89.7238V87.6649C19 86.8859 19.2903 85.9397 19.8444 85.2967C20.0839 85.0187 20.3269 84.7903 20.6312 84.6036C20.9209 84.4258 21.2197 84.3158 21.507 84.2184C21.9619 84.0641 22.5157 84.0224 22.8728 84.0079C23.0681 84 23.2411 83.9993 23.3656 84.0005C23.4281 84.0011 23.4792 84.0022 23.5157 84.0032C23.5308 84.0036 23.5434 84.004 23.5533 84.0043H91.9596V86.1832H23.5129L23.4911 86.1823C23.4902 86.1822 23.4884 86.1822 23.4858 86.1821ZM23.4913 86.1823H23.4913L23.4913 86.1823L23.4913 86.1823Z" fill="#00EAFF"/>
<path d="M93.4795 84L91.9595 86.28L92.0792 84H93.4795Z" fill="#00EAFF"/>
<path d="M93.4795 84L92.2289 86.28L91.9595 86.2293L92.0558 84H93.4795ZM92.2664 85.6491L93.0453 84.2291H92.3278L92.2664 85.6491Z" fill="#00EAFF"/>
<path d="M91.1994 111.36H90.5273L90.4395 109.08L91.1994 111.36Z" fill="#00EAFF"/>
<path d="M91.1994 111.36H90.5107L90.4395 109.134L90.5685 109.08L91.1994 111.36ZM90.639 111.131H90.9868L90.5936 109.71L90.639 111.131Z" fill="#00EAFF"/>
<path d="M160.99 97.4519C161.586 97.4519 162.068 97.9345 162.068 98.5299C162.068 99.1253 161.586 99.608 160.99 99.608L155.665 99.608L155.665 97.4519L160.99 97.4519Z" fill="#00EAFF"/>
</svg>
