<svg width="49" height="43" viewBox="0 0 49 43" fill="none" xmlns="http://www.w3.org/2000/svg">
<path fill-rule="evenodd" clip-rule="evenodd" d="M20.9795 24.08C20.9795 22.27 22.4495 20.8 24.2595 20.8C26.0695 20.8 27.5395 22.27 27.5395 24.08C27.5395 25.89 26.0695 27.36 24.2595 27.36C22.4495 27.36 20.9795 25.89 20.9795 24.08ZM33.3795 21.84C33.9695 21.5 34.2695 20.79 34.0195 20.16C33.8595 19.76 33.6695 19.37 33.4695 19L33.2795 18.67C33.0595 18.29 32.7995 17.93 32.5395 17.59C32.1195 17.06 31.3595 16.95 30.7695 17.3L30.6595 17.37C29.9095 17.8 28.9795 17.7 28.2295 17.26C27.4795 16.82 26.9095 16.07 26.9095 15.21V15.08C26.9095 14.4 26.4495 13.79 25.7695 13.69C25.2795 13.62 24.7895 13.59 24.2895 13.59C23.7895 13.59 23.2895 13.63 22.8095 13.69C22.1395 13.78 21.6695 14.39 21.6695 15.08V15.21C21.6695 16.08 21.0995 16.83 20.3495 17.26C19.5995 17.69 18.6695 17.8 17.9195 17.37L17.8095 17.3C17.2195 16.96 16.4595 17.06 16.0395 17.59C15.7695 17.94 15.5195 18.29 15.2895 18.67L15.0995 18.99C14.8895 19.37 14.7095 19.76 14.5495 20.16C14.2995 20.8 14.5895 21.5 15.1895 21.84L15.2995 21.91C16.0495 22.34 16.4195 23.2 16.4195 24.08C16.4195 24.96 16.0395 25.81 15.2995 26.25L15.1895 26.32C14.5995 26.66 14.2995 27.37 14.5495 28C14.7095 28.4 14.8995 28.79 15.0995 29.16L15.2995 29.5C15.5295 29.88 15.7695 30.23 16.0395 30.58C16.4595 31.11 17.2195 31.22 17.8095 30.87L17.9195 30.8C18.6695 30.37 19.5995 30.47 20.3495 30.91C21.0995 31.35 21.6695 32.1 21.6695 32.96V33.09C21.6695 33.77 22.1295 34.38 22.8095 34.48C23.2995 34.55 23.7895 34.58 24.2895 34.58C24.7895 34.58 25.2895 34.54 25.7695 34.48C26.4395 34.39 26.9095 33.78 26.9095 33.09V32.96C26.9095 32.09 27.4795 31.34 28.2295 30.91C28.9795 30.48 29.9095 30.37 30.6595 30.8L30.7695 30.87C31.3595 31.21 32.1195 31.11 32.5395 30.58C32.8095 30.24 33.0595 29.88 33.2795 29.51L33.4795 29.17C33.6895 28.79 33.8695 28.41 34.0295 28.01C34.2795 27.37 33.9895 26.67 33.3895 26.33L33.2795 26.26C32.5295 25.83 32.1595 24.97 32.1595 24.09C32.1595 23.21 32.5395 22.36 33.2795 21.92L33.3895 21.85L33.3795 21.84ZM4.76953 6.08002C4.76953 5.26002 5.43953 4.58002 6.26953 4.58002H18.6495C19.2495 4.58002 19.8195 4.80999 20.2395 5.23999L24.4895 9.48999C25.1895 10.19 26.1495 10.59 27.1395 10.59H42.2595C43.0795 10.59 43.7595 11.27 43.7595 12.09V36.09C43.7595 36.92 43.0795 37.59 42.2595 37.59H6.25952C5.42952 37.59 4.75952 36.92 4.75952 36.09V6.09003L4.76953 6.08002ZM6.26953 0.0800171C2.95953 0.0800171 0.269531 2.77002 0.269531 6.08002V36.08C0.269531 39.39 2.95953 42.08 6.26953 42.08H42.2695C45.5795 42.08 48.2695 39.39 48.2695 36.08V12.08C48.2695 8.77002 45.5795 6.08002 42.2695 6.08002H27.4495L23.4295 2.06C22.1595 0.789998 20.4495 0.0800171 18.6595 0.0800171H6.27954H6.26953Z" fill="#00EAFF"/>
</svg>
