<svg width="32" height="32" viewBox="0 0 32 32" fill="none" xmlns="http://www.w3.org/2000/svg">
<path d="M4.00022 17.7439L7.52395 18.2874C7.90127 19.4437 8.51327 20.4852 9.29464 21.3816L7.95347 24.6948L11.8014 27L14.0716 24.2389C14.7125 24.3842 15.3765 24.4669 16.0613 24.4669C16.7463 24.4669 17.4101 24.3842 18.0509 24.2389L20.3211 27L24.1691 24.6948L22.8279 21.3816C23.6093 20.4851 24.2213 19.4436 24.5986 18.2874L28.1224 17.7439V13.2561L24.5986 12.7126C24.2215 11.5563 23.6093 10.5148 22.8279 9.61843L24.1691 6.30521L20.3211 4L18.0509 6.76106C17.41 6.61579 16.7461 6.53314 16.0613 6.53314C15.3762 6.53314 14.7125 6.61579 14.0716 6.76106L11.801 4.00022L7.95325 6.30543L9.2942 9.61866C8.51282 10.5151 7.90086 11.5566 7.52351 12.7129L4 13.2561V17.7439L4.00022 17.7439ZM11.0123 15.5C11.0123 12.7115 13.2727 10.4511 16.0612 10.4511C18.8496 10.4511 21.1101 12.7115 21.1101 15.5C21.1101 18.2884 18.8496 20.5489 16.0612 20.5489C13.2727 20.5489 11.0123 18.2884 11.0123 15.5Z" fill="#00EAFF"/>
</svg>
