<svg width="49" height="49" viewBox="0 0 49 49" fill="none" xmlns="http://www.w3.org/2000/svg">
<path fill-rule="evenodd" clip-rule="evenodd" d="M46.3701 33.25C43.5601 40.2 37.6001 45.52 30.2501 47.46C32.6401 44.25 34.4901 39.24 35.4301 33.25H46.3601H46.3701ZM12.8001 33.25C13.7401 39.24 15.5901 44.26 17.9801 47.46C10.6301 45.52 4.67011 40.19 1.86011 33.25H12.8001ZM18.3701 42.11C17.2801 39.67 16.4101 36.65 15.8401 33.24H32.4001C31.8301 36.65 30.9501 39.67 29.8701 42.11C28.8901 44.32 27.7901 45.93 26.7301 46.94C25.6801 47.94 24.8101 48.24 24.1201 48.24C23.4301 48.24 22.5601 47.94 21.5101 46.95C20.4501 45.94 19.3501 44.33 18.3701 42.12V42.11ZM0.880127 18.25H12.4201C12.2201 20.18 12.1201 22.19 12.1201 24.25C12.1201 26.31 12.2201 28.32 12.4201 30.25H0.880127C0.380127 28.33 0.120117 26.32 0.120117 24.25C0.120117 22.18 0.380127 20.17 0.880127 18.25ZM12.8001 15.25H1.86011C4.67011 8.3 10.6301 2.98 17.9801 1.04C15.5901 4.25 13.7301 9.26 12.8001 15.25ZM32.3901 15.25H15.8301C16.4001 11.84 17.2801 8.82 18.3601 6.37C19.3401 4.16 20.4401 2.55 21.5001 1.54C22.5501 0.550001 23.4201 0.25 24.1101 0.25C24.8001 0.25 25.6701 0.550001 26.7201 1.54C27.7801 2.55 28.8801 4.16 29.8601 6.37C30.9501 8.81 31.8201 11.83 32.3901 15.25ZM46.3701 15.25H35.4301C34.4901 9.26 32.6401 4.24 30.2501 1.04C37.5901 2.98 43.5601 8.31 46.3701 15.25ZM35.8201 18.25H47.3601C47.8601 20.17 48.1201 22.18 48.1201 24.25C48.1201 26.32 47.8601 28.33 47.3601 30.25H35.8201C36.0201 28.32 36.1201 26.31 36.1201 24.25C36.1201 22.19 36.0201 20.18 35.8201 18.25ZM33.1201 24.25C33.1201 26.33 33.0101 28.34 32.8101 30.25H15.4301C15.2201 28.34 15.1201 26.33 15.1201 24.25C15.1201 22.17 15.2301 20.16 15.4301 18.25H32.8101C33.0201 20.16 33.1201 22.17 33.1201 24.25Z" fill="#00EAFF"/>
</svg>
