<svg width="49" height="30" viewBox="0 0 49 30" fill="none" xmlns="http://www.w3.org/2000/svg">
<path fill-rule="evenodd" clip-rule="evenodd" d="M44.5299 22.49C45.1899 22.49 45.7299 21.95 45.7299 21.29C45.7299 20.63 45.1899 20.09 44.5299 20.09C43.8699 20.09 43.3299 20.63 43.3299 21.29C43.3299 21.95 43.8699 22.49 44.5299 22.49ZM4.9299 21.29C4.9299 20.63 4.38992 20.09 3.72992 20.09C3.06992 20.09 2.52991 20.63 2.52991 21.29C2.52991 21.95 3.06992 22.49 3.72992 22.49C4.38992 22.49 4.9299 21.95 4.9299 21.29ZM40.9299 20.09V9.28998H37.3299C36.8899 9.28998 36.4599 9.13002 36.1399 8.83002L33.3699 6.37C32.0099 5.15 30.2399 4.48999 28.4099 4.48999C26.5799 4.48999 24.6699 5.22002 23.2899 6.52002L18.0299 11.48C17.2599 12.21 17.2699 13.45 18.0699 14.16C18.7699 14.78 19.8299 14.77 20.5099 14.14L25.8999 9.15997C26.6299 8.48997 27.7699 8.53002 28.4399 9.27002C29.1099 10 29.0699 11.14 28.3299 11.81L28.2699 11.87L33.8499 17.45C34.5999 18.2 35.0899 19.12 35.3099 20.08H40.9299V20.09ZM20.5499 0.940002L16.7199 4.77002C15.5699 5.09002 14.5099 5.66002 13.6099 6.46002L11.6199 8.23999C10.8599 8.91999 9.85989 9.29999 8.8299 9.29999H7.3399V18.9C8.8699 18.94 10.3299 19.57 11.4099 20.66L14.0799 23.33L14.6099 23.86L16.6299 25.88C17.0899 26.35 17.8599 26.35 18.3299 25.88C18.4599 25.75 18.5499 25.6 18.6099 25.45C18.8199 24.87 19.3099 24.44 19.9099 24.3C20.5099 24.17 21.1399 24.35 21.5799 24.79L22.3899 25.58C23.2599 26.45 24.6699 26.45 25.5299 25.58C25.9299 25.17 26.1499 24.66 26.1799 24.12C26.2099 23.46 26.5999 22.88 27.1999 22.59C27.7999 22.3 28.4999 22.36 29.0299 22.75C29.7299 23.25 30.7199 23.18 31.3499 22.55C32.0599 21.85 32.0599 20.71 31.3499 20.01L25.6699 14.33L22.9899 16.8C20.9399 18.69 17.7999 18.72 15.7199 16.87C13.3399 14.76 13.2899 11.07 15.5999 8.88L20.8599 3.90997C22.9099 1.97997 25.6299 0.900024 28.4599 0.900024C31.2899 0.900024 33.7799 1.9 35.7999 3.69L38.0599 5.70001H46.9799C47.6399 5.70001 48.1799 6.24002 48.1799 6.90002V22.5C48.1799 23.83 47.1099 24.9 45.7799 24.9H43.3799C42.4999 24.9 41.7099 24.42 41.2999 23.7H34.9299C34.6799 24.2 34.3399 24.68 33.9199 25.1C32.6399 26.38 30.8599 26.89 29.1899 26.61C28.9199 27.16 28.5499 27.67 28.0899 28.13C26.0399 30.18 22.8399 30.38 20.5599 28.74C18.6799 30.3 15.8699 30.2 14.1099 28.43L12.0899 26.41L11.5699 25.88L8.8999 23.21C8.4899 22.8 7.9499 22.56 7.3699 22.51C7.3699 23.83 6.28991 24.9 4.96991 24.9H2.56992C1.23992 24.9 0.169922 23.83 0.169922 22.5V6.90002C0.169922 6.24002 0.709904 5.70001 1.3699 5.70001H8.85989C9.00989 5.70001 9.14992 5.64999 9.25992 5.54999L11.2499 3.78003C13.3399 1.93003 16.0399 0.900024 18.8299 0.900024H19.5999C19.9299 0.900024 20.2699 0.910002 20.5899 0.940002H20.5499Z" fill="#00EAFF"/>
</svg>
