<svg width="49" height="49" viewBox="0 0 49 49" fill="none" xmlns="http://www.w3.org/2000/svg">
<path fill-rule="evenodd" clip-rule="evenodd" d="M10.6201 17.98C10.6201 19.5 11.2301 20.96 12.3001 22.04L20.0501 29.79C20.6301 30.37 21.5901 30.37 22.1701 29.79L29.9201 22.04C31.0001 20.96 31.6001 19.5 31.6001 17.98C31.6001 14.81 29.0301 12.23 25.8501 12.23C24.3301 12.23 22.8701 12.84 21.7901 13.91L21.1001 14.6L20.4101 13.91C19.3301 12.83 17.8701 12.23 16.3501 12.23C13.1801 12.23 10.6001 14.8 10.6001 17.98H10.6201ZM0.120117 21.26C0.120117 9.67001 9.51012 0.23999 21.1201 0.23999H23.3701C32.2901 0.23999 40.3601 6.74001 41.8701 15.26C42.0901 16.48 42.5101 17.67 43.2901 18.64L47.2301 23.57C47.8101 24.3 48.1301 25.2 48.1301 26.14C48.1301 28.41 46.2901 30.25 44.0201 30.25H42.1301V36.25C42.1301 39.56 39.4401 42.25 36.1301 42.25H30.1301V45.25C30.1301 46.91 28.7901 48.25 27.1301 48.25H9.13013C7.47013 48.25 6.13013 46.91 6.13013 45.25V38.43C6.13013 36.86 5.48012 35.38 4.53012 34.14C1.69012 30.47 0.130127 25.95 0.130127 21.27L0.120117 21.26Z" fill="#00EAFF"/>
</svg>
