<svg width="48" height="49" viewBox="0 0 48 49" fill="none" xmlns="http://www.w3.org/2000/svg">
<path fill-rule="evenodd" clip-rule="evenodd" d="M15.0492 17.2154C15.7944 16.5625 16.8656 16.577 17.4794 16.7664C17.0781 16.2729 16.1389 15.8669 15.8637 15.818C15.6531 15.8966 15.0492 16.5171 15.0492 17.2154Z" fill="#00EAFF"/>
<path fill-rule="evenodd" clip-rule="evenodd" d="M33.3747 15.2748C34.2242 15.4036 34.4929 15.9784 34.5442 16.1539C34.8327 15.9111 35.0993 15.0663 34.995 14.5119C34.5054 11.8916 28.4174 13.6274 25.3508 12.5146C25.2922 13.2783 26.2947 14.502 27.2537 14.9555C25.6142 16.3778 24.1424 19.2448 23.846 22.747C23.5497 19.2448 22.0778 16.3778 20.4383 14.9555C21.3974 14.502 22.4005 13.2783 22.3412 12.5146C19.2747 13.6274 13.1867 11.8916 12.6956 14.5119C12.5926 15.0663 12.8593 15.9111 13.1477 16.1539C13.1992 15.9784 13.4685 15.4036 14.3173 15.2748C18.6067 14.6267 22.188 21.2374 18.9553 23.9106C18.9058 23.9515 18.9335 24.0261 19.0001 24.0261H28.6926C28.7585 24.0261 28.7862 23.9515 28.7374 23.9106C25.5039 21.2374 29.0853 14.6267 33.3747 15.2748Z" fill="#00EAFF"/>
<path fill-rule="evenodd" clip-rule="evenodd" d="M27.4833 31.186C27.6484 29.9934 26.8425 29.6501 25.9997 29.7901C25.8947 29.3796 25.8089 29.0212 25.7112 28.666C25.6333 28.3789 25.6049 27.8391 25.9376 27.8391C26.1171 27.8391 26.0453 28.3413 26.028 28.5572C26.0128 28.7473 26.0814 28.862 26.2354 28.8674C26.3317 28.8713 26.4518 28.7486 26.5231 28.6674C27.0055 28.1216 27.1177 27.2768 26.5522 26.8694C26.0796 26.5269 24.8948 26.7817 24.5687 27.2688C24.5199 27.0853 24.285 26.7824 24.1721 26.6504C24.0625 26.5217 24.0341 26.4331 24.186 26.3203C24.2573 26.2655 24.473 26.0511 24.473 25.8293C24.473 25.698 24.3713 25.4557 24.0479 25.4557C23.7931 25.4557 23.5101 25.6319 23.5101 26.0259C23.5101 26.1131 23.5312 26.2069 23.588 26.3078C23.4268 26.2814 22.9894 26.2919 22.7643 26.3475L25.8709 34.8729C26.7607 34.434 27.412 33.739 27.412 32.9932C27.412 32.3576 26.4761 32.5681 26.0214 33.0644C25.875 32.2579 25.7448 31.5141 25.6029 30.7722C25.5641 30.5676 25.6676 30.4944 25.832 30.4322C26.3837 30.2276 27.2485 30.3933 27.2187 31.19C27.2121 31.3701 27.4649 31.3701 27.4833 31.186Z" fill="#00EAFF"/>
<path fill-rule="evenodd" clip-rule="evenodd" d="M36.0386 8.49846C35.9613 8.2516 38.4767 8.24501 38.4767 9.81909C38.4767 10.8745 36.9724 11.3741 36.9724 12.4691C36.9724 12.9786 37.5211 13.3528 37.6894 13.3528C37.3019 11.5953 38.9037 12.5146 39.3368 12.8434C38.4767 10.4797 40.4126 10.495 40.2218 9.41054C40.0892 8.65357 38.4068 8.88184 37.7975 8.49846C36.7178 7.81854 35.4392 5.17186 34.5971 7.81854C36.1673 9.27654 35.2539 11.4224 33.2599 11.4224C33.2599 11.4224 33.2486 11.7372 33.2672 11.7622C35.6452 11.6454 36.4735 9.89834 36.0386 8.49846Z" fill="#00EAFF"/>
<path fill-rule="evenodd" clip-rule="evenodd" d="M31.804 15.818C31.5274 15.8676 30.5901 16.2729 30.1875 16.7671C30.802 16.577 31.8732 16.5625 32.6177 17.2154C32.6177 16.5171 32.0145 15.8973 31.804 15.818Z" fill="#00EAFF"/>
<path fill-rule="evenodd" clip-rule="evenodd" d="M22.5992 31.3701C22.4355 31.8586 22.5372 32.6994 22.8579 32.9892C22.3002 32.9892 21.6383 33.0935 21.3063 33.3298C21.2271 32.8955 21.8303 32.1193 22.5992 31.3701ZM20.3559 33.1311C20.2226 33.3317 20.1578 33.675 20.1578 33.8215C20.1578 34.6663 21.1644 34.8366 21.5491 34.6577C22.6606 35.7336 24.8439 35.4465 25.5745 35.0854L21.7306 24.5384C21.6522 24.339 21.3703 24.4339 21.4396 24.6413L22.0916 26.4543C21.5327 26.5876 20.6343 26.9949 20.6343 27.5348C20.6343 28.2529 21.9056 28.7208 22.6401 28.6647C22.6038 28.8284 22.646 28.9742 22.7602 29.1082C22.4936 29.1082 21.9906 29.2324 21.825 29.41C21.4356 29.0469 20.8258 28.9149 20.536 29.1359C20.2443 29.3591 20.2357 29.7359 20.54 30.1624C20.7518 30.4574 20.831 30.7483 20.5934 31.091C21.4791 31.091 21.1525 29.9392 21.4996 29.9392C21.4541 30.1624 21.4825 30.4204 21.5827 30.7075C21.6501 30.8975 21.6501 31.0329 21.5352 31.2164C21.2495 31.6731 20.8053 32.7226 20.8653 33.6716C20.575 33.6697 20.4272 33.5991 20.5294 33.2024C20.5677 33.0545 20.4767 32.9489 20.3559 33.1311Z" fill="#00EAFF"/>
<path fill-rule="evenodd" clip-rule="evenodd" d="M47.1296 21.2983C46.5355 21.5992 43.052 23.2307 38.5896 22.6275C38.6357 22.4143 38.6748 22.2005 38.707 21.9846C41.6764 21.6296 44.0908 21.1259 45.6301 20.2699C47.3838 19.2937 48.1507 16.9638 47.2648 15.23C47.2425 15.1865 47.1791 15.1785 47.1467 15.2148C46.6616 15.7733 43.6116 19.0918 38.8061 20.1228C38.7942 19.8739 38.7711 19.6257 38.7381 19.3788C41.0719 18.0548 43.3504 16.5302 44.436 15.1356C46.0761 13.0269 45.9251 10.338 44.3642 8.96632C44.3483 8.95247 44.3272 8.94588 44.3054 8.94926C44.2843 8.95179 44.2657 8.96447 44.2538 8.98221C43.7601 9.79662 39.1381 17.2674 34.0632 20.4923C34.0017 20.532 33.939 20.5709 33.8763 20.6086C33.7305 20.6969 33.7146 20.8857 33.8388 20.9985C34.4234 21.5286 34.7872 22.2664 34.7872 23.0856C34.7872 24.51 33.6896 25.6946 32.2382 25.9514C31.501 26.0945 30.4357 26.053 29.4133 25.715C29.3671 25.7 29.3195 25.7302 29.3195 25.7765V30.2877C29.3195 30.3604 29.4305 30.3781 29.4562 30.3089C30.078 28.6621 31.9385 28.3122 32.7524 28.3122C33.0453 30.0725 33.5688 31.5305 34.2479 32.3153C35.3548 33.5905 37.162 33.572 37.9453 32.6909C37.9585 32.6763 37.9639 32.6565 37.9606 32.6374C37.9573 32.6183 37.9453 32.6011 37.9283 32.5919C37.4675 32.3272 34.8333 30.7102 34.306 28.0601C34.5147 27.9883 34.7173 27.907 34.9119 27.8107C35.762 29.2179 36.9996 30.4712 37.9962 30.9498C39.67 31.753 41.202 31.3622 41.8817 30.1874C41.9062 30.1458 41.8765 30.0943 41.8263 30.0897C40.7907 30.0066 37.6133 29.0964 36.2609 26.8773C36.4155 26.7354 36.5673 26.5871 36.7085 26.4292C38.1243 27.5071 40.1255 28.4595 41.559 28.6542C43.2355 28.882 45.135 28.3473 45.1811 26.3975C45.1818 26.3579 45.1468 26.3263 45.1059 26.3289C44.51 26.3645 40.563 26.5362 37.7514 24.9224C37.849 24.7362 37.9394 24.5475 38.0239 24.3555C38.0239 24.3555 42.2732 25.3594 44.2863 25.0267C46.2873 24.6967 47.4589 23.205 47.2325 21.3496C47.2266 21.3035 47.1725 21.2765 47.1296 21.2983Z" fill="#00EAFF"/>
<path fill-rule="evenodd" clip-rule="evenodd" d="M9.60999 24.3555C9.69448 24.5475 9.78557 24.7369 9.88391 24.9224C7.07288 26.5355 3.12792 26.3652 2.52929 26.3289C2.48705 26.3263 2.45206 26.36 2.45272 26.3982C2.49959 28.3473 4.39913 28.8825 6.07557 28.6542C7.50783 28.46 9.51034 27.5071 10.9254 26.4299C11.0673 26.5876 11.2185 26.7354 11.3729 26.878C10.0199 29.0964 6.84318 30.0066 5.80761 30.0897C5.75811 30.0943 5.7284 30.1458 5.75217 30.1874C6.43199 31.3622 7.96456 31.753 9.63838 30.9504C10.6343 30.4712 11.8719 29.2179 12.722 27.8114C12.9174 27.907 13.1206 27.9883 13.3279 28.0601C12.8005 30.7102 10.1664 32.3279 9.70636 32.5925C9.68921 32.6018 9.67731 32.6183 9.67402 32.6374C9.67072 32.6565 9.67599 32.6763 9.68853 32.6909C10.472 33.5727 12.2798 33.5905 13.3866 32.3153C14.0665 31.5305 14.5885 30.0725 14.8816 28.3122C15.696 28.3122 17.5559 28.6621 18.1777 30.3089C18.2048 30.3781 18.3151 30.3604 18.3151 30.2877V25.7765C18.3151 25.7302 18.2668 25.7 18.2206 25.715C17.1982 26.053 16.1337 26.0945 15.3971 25.9514C13.945 25.6946 12.8468 24.51 12.8468 23.0856C12.8468 22.2664 13.2111 21.5279 13.7952 20.9973C13.9199 20.8857 13.9034 20.6969 13.7589 20.6086C13.6955 20.5702 13.6322 20.532 13.5701 20.4923C8.49852 17.2688 3.87836 9.80338 3.38071 8.98356C3.35761 8.9452 3.30217 8.93743 3.26784 8.967C1.70954 10.3392 1.55773 13.0276 3.19855 15.1356C4.28363 16.5296 6.56201 18.0548 8.89519 19.3788C8.86219 19.6257 8.83975 19.8739 8.82787 20.1228C4.02621 19.0918 0.978233 15.7792 0.488498 15.2174C0.456156 15.1792 0.390814 15.1871 0.368374 15.2307C-0.514737 16.9645 0.25221 19.2937 2.00457 20.2699C3.54309 21.1253 5.95743 21.6289 8.92753 21.9846C8.95921 22.1999 8.99815 22.4143 9.04435 22.6269C4.58657 23.2301 1.10496 21.6019 0.506317 21.2989C0.461436 21.2765 0.407974 21.3042 0.402035 21.351C0.176968 23.2064 1.34784 24.6967 3.34837 25.0267C5.36078 25.3594 9.60999 24.3555 9.60999 24.3555Z" fill="#00EAFF"/>
<path fill-rule="evenodd" clip-rule="evenodd" d="M8.29788 12.8434C8.73019 12.5146 10.3327 11.5953 9.94595 13.3528C10.1136 13.3528 10.6621 12.9786 10.6621 12.4691C10.6621 11.3741 9.15722 10.8745 9.15722 9.81909C9.15722 8.24501 11.6726 8.2516 11.5953 8.49846C11.161 9.89834 11.99 11.6461 14.3681 11.7622C14.3852 11.7372 14.374 11.4224 14.374 11.4224C12.3814 11.4224 11.468 9.27654 13.0375 7.81854C12.1946 5.17186 10.9168 7.81854 9.83637 8.49846C9.22719 8.88252 7.54478 8.65357 7.41278 9.41054C7.2227 10.495 9.15722 10.4797 8.29788 12.8434Z" fill="#00EAFF"/>
<path fill-rule="evenodd" clip-rule="evenodd" d="M30.1875 8.07993C30.1875 8.68196 30.5703 9.11755 30.7709 9.24698C30.9585 9.11755 31.3543 8.68196 31.3543 8.07993C31.3543 7.9282 31.1472 7.59348 30.7709 7.59348C30.3941 7.59348 30.1875 7.9282 30.1875 8.07993Z" fill="#00EAFF"/>
<path fill-rule="evenodd" clip-rule="evenodd" d="M22.7859 1.51207L23.4402 1.44077L23.3714 2.21429H24.2598L24.1912 1.44077L24.8453 1.51207V0.669272L24.1912 0.740575L24.2598 0H23.3714L23.4402 0.740575L22.7859 0.669272V1.51207Z" fill="#00EAFF"/>
<path fill-rule="evenodd" clip-rule="evenodd" d="M22.9853 3.59322C22.9853 4.44785 23.5292 5.06626 23.8137 5.25044C24.0797 5.06626 24.642 4.44785 24.642 3.59322C24.642 3.37796 24.3484 2.90283 23.8137 2.90283C23.279 2.90283 22.9853 3.37796 22.9853 3.59322Z" fill="#00EAFF"/>
<path fill-rule="evenodd" clip-rule="evenodd" d="M18.3948 11.7576C20.9822 11.7576 22.1452 10.1702 22.497 8.79347C23.0791 8.79347 23.5965 8.79347 25.1317 8.79347C25.4835 10.1702 26.6465 11.7576 29.2345 11.7576H32.3109C32.7431 11.3253 33.1537 10.5926 33.1537 9.84494C33.1537 8.76847 32.1226 8.75647 31.8369 8.75714C31.6375 9.58609 31.0891 9.97032 30.7809 10.1207C30.4534 9.97893 29.9011 9.61515 29.7024 8.75444C29.4067 8.75917 28.3902 8.77235 28.3902 9.84494C28.3902 10.0791 28.4431 10.3525 28.5598 10.6659C28.622 10.8322 28.7703 11.0772 28.9109 11.2916C27.8194 11.1418 26.426 10.3948 26.1205 8.79347C26.1205 8.79347 26.9269 7.51238 27.1297 6.99365C27.8569 5.12895 26.6755 4.33701 25.3172 4.33701C25.1278 5.2207 24.5053 5.85837 23.8131 6.16792C23.1213 5.85837 22.5009 5.2207 22.3115 4.33701C20.9532 4.33701 19.7724 5.12895 20.499 6.99365C20.7017 7.51238 21.5089 8.79347 21.5089 8.79347C21.2025 10.3948 19.8093 11.1418 18.7176 11.2916C18.8582 11.0772 19.0067 10.8322 19.0687 10.6659C19.1856 10.3525 19.2383 10.0791 19.2383 9.84494C19.2383 8.77235 18.222 8.75917 17.9263 8.75444C17.7276 9.61515 17.1751 9.97893 16.8484 10.1207C16.5402 9.97032 15.9917 9.58609 15.7924 8.75714C15.506 8.75647 14.475 8.76847 14.475 9.84494C14.475 10.5926 14.8856 11.3253 15.3179 11.7576H18.3948Z" fill="#00EAFF"/>
<path fill-rule="evenodd" clip-rule="evenodd" d="M31.563 5.8484L31.0548 5.90382L31.1082 5.29538H30.4363L30.4904 5.90382L29.9822 5.8484V6.48675L30.4904 6.43116L30.4363 7.03978H31.1082L31.0548 6.43116L31.563 6.48675V5.8484Z" fill="#00EAFF"/>
<path fill-rule="evenodd" clip-rule="evenodd" d="M17.1923 5.29538H16.5211L16.5739 5.90382L16.0663 5.8484V6.48675L16.5739 6.43116L16.5211 7.03978H17.1923L17.1389 6.43116L17.647 6.48675V5.8484L17.1389 5.90382L17.1923 5.29538Z" fill="#00EAFF"/>
<path fill-rule="evenodd" clip-rule="evenodd" d="M16.2742 8.07993C16.2742 8.68196 16.6703 9.11755 16.8577 9.24698C17.0583 9.11755 17.4419 8.68196 17.4419 8.07993C17.4419 7.9282 17.2346 7.59348 16.8577 7.59348C16.4815 7.59348 16.2742 7.9282 16.2742 8.07993Z" fill="#00EAFF"/>
<path fill-rule="evenodd" clip-rule="evenodd" d="M36.3713 35.49L36.9368 35.4286L36.8775 36.0966H37.6451L37.5856 35.4286L38.1506 35.49V34.7614L37.5856 34.8227L37.6451 34.1832H36.8775L36.9368 34.8227L36.3713 34.7614V35.49Z" fill="#00EAFF"/>
<path fill-rule="evenodd" clip-rule="evenodd" d="M37.6939 36.6814V38.6964H36.8287V36.6767C35.6557 36.8338 34.7113 37.6463 34.4393 38.7023C33.5027 38.8291 30.9769 38.2674 31.2231 37.8938C34.0057 33.9799 31.8771 31.6499 29.3195 31.7794V34.4082C29.3195 35.2524 28.583 35.9362 27.6755 35.9362H25.9093C24.642 35.9362 23.817 37.21 23.817 37.21C23.817 37.21 22.9919 35.9362 21.7253 35.9362H19.9585C19.0503 35.9362 18.3156 35.2524 18.3156 34.4082V31.7794C15.7574 31.6499 13.6269 33.9806 16.4109 37.8945C16.6551 38.2641 14.0453 38.8568 12.8217 38.707C12.4989 38.373 12.0336 38.1618 11.5128 38.1618C11.2917 38.1618 11.0719 38.2014 10.8647 38.2786C10.8647 38.2786 6.05445 33.7245 5.96602 33.6796L6.00562 33.5872C6.27953 33.075 5.86041 32.5166 5.59509 32.5562C5.90331 32.1866 5.91783 30.5696 4.20905 30.1953C4.2592 30.5201 4.28429 31.1834 4.28429 31.1834C4.28429 31.1834 2.96556 30.4706 2.30355 31.0858C1.72208 31.7741 2.52929 33.0235 2.52929 33.0235C2.52929 33.0235 1.85475 33.04 1.52209 33.0123C2.01116 34.6657 3.65132 34.5488 4.00575 34.2221C3.98265 34.4855 4.57601 34.8604 5.07829 34.5594L5.2994 34.4525C5.33834 34.5053 10.0232 38.9314 10.0232 38.9314C9.80801 39.2508 9.7057 39.6422 9.77633 40.0607C9.8872 40.7134 10.4311 41.2547 11.1261 41.3946C11.6165 41.4936 12.0778 41.3979 12.4474 41.1814L13.6876 42.3325C13.7985 42.4328 13.9477 42.4955 14.114 42.4836C14.4176 42.4631 14.6446 42.217 14.6215 41.9351C14.6116 41.8077 14.547 41.6989 14.4572 41.6163C14.4374 41.5939 13.1939 40.4402 13.1939 40.4402C14.2196 39.7208 16.1303 39.2139 17.717 39.2139C17.9956 39.2139 18.1262 38.9782 18.0306 38.7466C17.3118 37.0186 18.857 35.7672 20.4549 36.7863C21.1525 37.2305 21.8607 38.1057 22.3939 39.5657C19.7718 40.2013 16.4795 41.9503 15.8129 43.8591C15.5568 44.5963 16.4036 45.6015 17.4326 45.8042C17.451 45.8081 17.4703 45.8048 17.4853 45.7943C17.5012 45.7844 17.5125 45.7679 17.5157 45.75C18.0537 42.8994 21.1187 40.7755 22.7141 40.4151C22.7939 40.6296 22.7675 40.5603 22.8481 40.7742C21.1108 41.5959 19.4266 43.3284 18.9447 45.3884C18.7242 46.3315 19.7763 47.1823 20.645 47.4146C20.6884 47.4265 20.7313 47.3961 20.734 47.3539C20.8991 44.7488 22.0494 42.5364 23.0798 41.5299C23.1081 41.7266 23.1293 41.9246 23.1431 42.1226C23.1431 42.1226 22.0884 45.063 22.0884 47.208C22.0884 48.206 23.5714 48.9023 23.7906 49C24.0645 48.9023 25.5461 48.206 25.5461 47.208C25.5461 45.0623 24.4915 42.1226 24.4915 42.1226C24.5053 41.9246 24.5271 41.7266 24.5555 41.5299C25.5852 42.5364 26.7362 44.7481 26.9013 47.3532C26.9033 47.3955 26.9467 47.4265 26.9896 47.4146C27.8589 47.1823 28.9104 46.3315 28.6906 45.3884C28.208 43.3284 26.5243 41.5959 24.7872 40.7742C24.8671 40.5603 24.8407 40.6296 24.9205 40.4151C26.5165 40.7755 29.5809 42.8994 30.1189 45.75C30.1221 45.7679 30.1334 45.7844 30.1493 45.7943C30.1643 45.8042 30.1836 45.8081 30.202 45.8042C31.2296 45.6015 32.0785 44.5963 31.8203 43.8597C31.1565 41.9503 27.8628 40.2013 25.2407 39.5663C25.7753 38.1057 26.4834 37.2305 27.1804 36.7863C28.7776 35.7672 30.3228 37.0193 29.604 38.7472C29.5077 38.9782 29.6383 39.2139 29.9176 39.2139C31.6956 39.2139 33.8816 39.8508 34.7727 40.7082C35.2769 41.4863 36.195 42.0071 37.2438 42.0071C38.8365 42.0071 40.1274 40.8071 40.1274 39.328C40.1274 37.9902 39.072 36.882 37.6939 36.6814Z" fill="#00EAFF"/>
</svg>
