<svg width="62" height="62" viewBox="0 0 62 62" fill="none" xmlns="http://www.w3.org/2000/svg">
<path d="M56.9528 39.2596C58.9539 36.9786 60.0589 34.0487 60.0625 31.0143C60.066 27.9799 58.9679 25.0474 56.9722 22.7618C56.947 22.7304 56.9198 22.7006 56.8908 22.6726C55.7151 21.3334 54.2673 20.2602 52.6441 19.5246C51.0209 18.789 49.2595 18.4079 47.4774 18.4067C45.6953 18.4055 43.9334 18.7843 42.3092 19.5177C40.685 20.2511 39.2359 21.3224 38.0583 22.66C38.0238 22.6925 37.9917 22.7275 37.9624 22.7647C35.9841 25.0329 34.8883 27.9373 34.8751 30.9469C34.8619 33.9566 35.9324 36.8705 37.8907 39.1559C37.9346 39.2173 37.9857 39.2732 38.0428 39.3225C39.2186 40.6632 40.6668 41.7377 42.2909 42.4741C43.9149 43.2106 45.6773 43.5922 47.4606 43.5934C49.2438 43.5946 51.0068 43.2154 52.6318 42.4811C54.2568 41.7467 55.7065 40.6742 56.884 39.3351C56.9083 39.3112 56.9312 39.2859 56.9528 39.2596ZM36.8609 31.9688H40.4192C40.6047 33.5475 41.043 35.0862 41.7173 36.5257C40.7911 36.7692 39.8818 37.0727 38.9951 37.4344C37.7828 35.8501 37.043 33.9554 36.8609 31.9688ZM38.9825 24.5801C39.8008 24.8953 40.637 25.1618 41.4867 25.3783C40.824 26.8447 40.4466 28.4237 40.3746 30.0312H36.8609C37.042 28.051 37.7773 26.1618 38.9825 24.5801ZM58.0766 30.0312H54.5183C54.3329 28.4518 53.8946 26.9125 53.2202 25.4723C54.1483 25.2324 55.0596 24.9318 55.9482 24.5723C57.1568 26.1556 57.8951 28.0477 58.0766 30.0312ZM48.4375 21.7291C49.0802 22.4592 49.671 23.2335 50.2055 24.0463C49.6039 24.118 49.012 24.1684 48.4375 24.1878V21.7291ZM46.5 24.1693C45.8291 24.1345 45.16 24.0705 44.4947 23.9775C45.0913 23.1191 45.7623 22.3148 46.5 21.5741V24.1693ZM46.5 26.1388V30.0312H42.3073C42.3872 28.5584 42.7655 27.1171 43.4194 25.7949C44.438 25.974 45.4669 26.0888 46.5 26.1388ZM46.5 31.9688V35.8486C45.5555 35.8819 44.614 35.9741 43.6809 36.1247C43.019 34.8209 42.5771 33.4167 42.3731 31.9688H46.5ZM46.5 37.8123V40.2709C45.857 39.5408 45.2659 38.7665 44.7311 37.9537C45.3185 37.882 45.9086 37.8348 46.5 37.8123ZM48.4375 37.8316C49.1418 37.8694 49.8131 37.9353 50.4428 38.0244C49.846 38.8815 49.175 39.6845 48.4375 40.424V37.8316ZM48.4375 35.8651V31.9688H52.6302C52.5502 33.4431 52.1712 34.8857 51.5162 36.209C50.4982 36.0298 49.4699 35.9149 48.4375 35.8651ZM48.4375 30.0312V26.1504C49.382 26.1175 50.3235 26.0256 51.2566 25.8753C51.9185 27.1791 52.3604 28.5833 52.5644 30.0312H48.4375ZM52.2767 23.6888C51.6412 22.6293 50.9169 21.6256 50.1115 20.6886C51.7493 21.1092 53.2631 21.9146 54.5271 23.0378C53.7906 23.2996 53.0391 23.517 52.2767 23.6888ZM42.44 23.5939C41.7583 23.437 41.0843 23.2485 40.4201 23.0291C41.6357 21.951 43.0823 21.1659 44.6487 20.7342C43.8213 21.6134 43.0816 22.5712 42.44 23.5939ZM42.6599 38.3092C43.2952 39.3695 44.0196 40.3738 44.825 41.3114C43.1871 40.8905 41.6733 40.0848 40.4095 38.9612C41.1459 38.6994 41.8974 38.482 42.6599 38.3102V38.3092ZM52.4966 38.4061C53.2997 38.594 53.9807 38.7936 54.5164 38.9718C53.3007 40.0496 51.8541 40.8344 50.2878 41.2658C51.1151 40.3869 51.8549 39.4285 52.4966 38.4061ZM53.4498 36.6236C54.1134 35.1568 54.4915 33.577 54.5639 31.9688H58.0756C57.8943 33.9499 57.1583 35.8398 55.9521 37.4218C55.1345 37.1066 54.2989 36.84 53.4498 36.6236ZM23.25 14.5312V12.5938C23.2495 12.0801 23.0452 11.5875 22.682 11.2243C22.3187 10.8611 21.8262 10.6568 21.3125 10.6562H7.75C7.2363 10.6568 6.74379 10.8611 6.38055 11.2243C6.01731 11.5875 5.81301 12.0801 5.8125 12.5938V14.5312C5.81301 15.0449 6.01731 15.5375 6.38055 15.9007C6.74379 16.2639 7.2363 16.4682 7.75 16.4688H21.3125C21.8262 16.4682 22.3187 16.2639 22.682 15.9007C23.0452 15.5375 23.2495 15.0449 23.25 14.5312ZM7.75 12.5938H21.3125V14.5312H7.75V12.5938ZM33.9062 16.4688C37.7812 16.4688 37.7812 10.6562 33.9062 10.6562C30.0312 10.6562 30.0312 16.4688 33.9062 16.4688ZM33.9062 12.5938C34.1632 12.5938 34.4096 12.6958 34.5913 12.8775C34.7729 13.0592 34.875 13.3056 34.875 13.5625C34.875 13.8194 34.7729 14.0658 34.5913 14.2475C34.4096 14.4292 34.1632 14.5312 33.9062 14.5312C33.6493 14.5312 33.4029 14.4292 33.2212 14.2475C33.0396 14.0658 32.9375 13.8194 32.9375 13.5625C32.9375 13.3056 33.0396 13.0592 33.2212 12.8775C33.4029 12.6958 33.6493 12.5938 33.9062 12.5938Z" fill="white"/>
<path d="M27.125 16.4688C31 16.4688 31 10.6562 27.125 10.6562C23.25 10.6562 23.25 16.4688 27.125 16.4688ZM27.125 12.5938C27.3819 12.5938 27.6283 12.6958 27.81 12.8775C27.9917 13.0592 28.0938 13.3056 28.0938 13.5625C28.0938 13.8194 27.9917 14.0658 27.81 14.2475C27.6283 14.4292 27.3819 14.5312 27.125 14.5312C26.8681 14.5312 26.6217 14.4292 26.44 14.2475C26.2583 14.0658 26.1562 13.8194 26.1562 13.5625C26.1562 13.3056 26.2583 13.0592 26.44 12.8775C26.6217 12.6958 26.8681 12.5938 27.125 12.5938ZM27.125 33.9062C31 33.9062 31 28.0938 27.125 28.0938C23.25 28.0938 23.25 33.9062 27.125 33.9062ZM27.125 30.0312C27.3819 30.0312 27.6283 30.1333 27.81 30.315C27.9917 30.4967 28.0938 30.7431 28.0938 31C28.0938 31.2569 27.9917 31.5033 27.81 31.685C27.6283 31.8667 27.3819 31.9688 27.125 31.9688C26.8681 31.9688 26.6217 31.8667 26.44 31.685C26.2583 31.5033 26.1562 31.2569 26.1562 31C26.1562 30.7431 26.2583 30.4967 26.44 30.315C26.6217 30.1333 26.8681 30.0312 27.125 30.0312ZM33.9062 51.3438C37.7812 51.3438 37.7812 45.5312 33.9062 45.5312C30.0312 45.5312 30.0312 51.3438 33.9062 51.3438ZM33.9062 47.4688C34.1632 47.4688 34.4096 47.5708 34.5913 47.7525C34.7729 47.9342 34.875 48.1806 34.875 48.4375C34.875 48.6944 34.7729 48.9408 34.5913 49.1225C34.4096 49.3042 34.1632 49.4062 33.9062 49.4062C33.6493 49.4062 33.4029 49.3042 33.2212 49.1225C33.0396 48.9408 32.9375 48.6944 32.9375 48.4375C32.9375 48.1806 33.0396 47.9342 33.2212 47.7525C33.4029 47.5708 33.6493 47.4688 33.9062 47.4688Z" fill="white"/>
<path d="M27.125 51.3438C31 51.3438 31 45.5312 27.125 45.5312C23.25 45.5312 23.25 51.3438 27.125 51.3438ZM27.125 47.4688C27.3819 47.4688 27.6283 47.5708 27.81 47.7525C27.9917 47.9342 28.0938 48.1806 28.0938 48.4375C28.0938 48.6944 27.9917 48.9408 27.81 49.1225C27.6283 49.3042 27.3819 49.4062 27.125 49.4062C26.8681 49.4062 26.6217 49.3042 26.44 49.1225C26.2583 48.9408 26.1562 48.6944 26.1562 48.4375C26.1562 48.1806 26.2583 47.9342 26.44 47.7525C26.6217 47.5708 26.8681 47.4688 27.125 47.4688ZM7.75 28.0938C7.2363 28.0943 6.74379 28.2986 6.38055 28.6618C6.01731 29.025 5.81301 29.5176 5.8125 30.0312V31.9688C5.81301 32.4824 6.01731 32.975 6.38055 33.3382C6.74379 33.7014 7.2363 33.9057 7.75 33.9062H21.3125C21.8262 33.9057 22.3187 33.7014 22.682 33.3382C23.0452 32.975 23.2495 32.4824 23.25 31.9688V30.0312C23.2495 29.5176 23.0452 29.025 22.682 28.6618C22.3187 28.2986 21.8262 28.0943 21.3125 28.0938H7.75ZM21.3125 31.9688H7.75V30.0312H21.3125V31.9688ZM7.75 45.5312C7.2363 45.5318 6.74379 45.7361 6.38055 46.0993C6.01731 46.4625 5.81301 46.9551 5.8125 47.4688V49.4062C5.81301 49.9199 6.01731 50.4125 6.38055 50.7757C6.74379 51.1389 7.2363 51.3432 7.75 51.3438H21.3125C21.8262 51.3432 22.3187 51.1389 22.682 50.7757C23.0452 50.4125 23.2495 49.9199 23.25 49.4062V47.4688C23.2495 46.9551 23.0452 46.4625 22.682 46.0993C22.3187 45.7361 21.8262 45.5318 21.3125 45.5312H7.75ZM21.3125 49.4062H7.75V47.4688H21.3125V49.4062Z" fill="white"/>
<path d="M37.6224 41.6562H22.2812V37.7812H34.626C34.2989 37.1568 34.0178 36.5092 33.7852 35.8438H4.84375C4.5869 35.8435 4.34064 35.7413 4.15902 35.5597C3.9774 35.3781 3.87526 35.1318 3.875 34.875V27.125C3.87526 26.8682 3.9774 26.6219 4.15902 26.4403C4.34064 26.2587 4.5869 26.1565 4.84375 26.1562H33.7852C34.0182 25.4908 34.2995 24.8432 34.627 24.2188H22.2812V20.3438H37.6224C38.5118 19.5142 39.5015 18.7992 40.5683 18.2154C40.6436 17.9628 40.6837 17.701 40.6875 17.4375V9.6875C40.6867 8.91695 40.3803 8.17818 39.8354 7.63332C39.2906 7.08846 38.5518 6.78202 37.7812 6.78125H4.84375C4.0732 6.78202 3.33443 7.08846 2.78957 7.63332C2.24471 8.17818 1.93827 8.91695 1.9375 9.6875V17.4375C1.93827 18.208 2.24471 18.9468 2.78957 19.4917C3.33443 20.0365 4.0732 20.343 4.84375 20.3438H20.3438V24.2188H4.84375C4.0732 24.2195 3.33443 24.526 2.78957 25.0708C2.24471 25.6157 1.93827 26.3545 1.9375 27.125V34.875C1.93827 35.6455 2.24471 36.3843 2.78957 36.9292C3.33443 37.474 4.0732 37.7805 4.84375 37.7812H20.3438V41.6562H4.84375C4.0732 41.657 3.33443 41.9635 2.78957 42.5083C2.24471 43.0532 1.93827 43.792 1.9375 44.5625V52.3125C1.93827 53.083 2.24471 53.8218 2.78957 54.3667C3.33443 54.9115 4.0732 55.218 4.84375 55.2188H37.7812C38.5518 55.218 39.2906 54.9115 39.8354 54.3667C40.3803 53.8218 40.6867 53.083 40.6875 52.3125V44.5625C40.6837 44.299 40.6436 44.0372 40.5683 43.7846C39.5018 43.2007 38.5125 42.4857 37.6233 41.6562H37.6224ZM4.84375 18.4062C4.5869 18.406 4.34064 18.3038 4.15902 18.1222C3.9774 17.9406 3.87526 17.6943 3.875 17.4375V9.6875C3.87526 9.43065 3.9774 9.18439 4.15902 9.00277C4.34064 8.82115 4.5869 8.71901 4.84375 8.71875H37.7812C38.0381 8.71901 38.2844 8.82115 38.466 9.00277C38.6476 9.18439 38.7497 9.43065 38.75 9.6875V17.4375C38.7497 17.6943 38.6476 17.9406 38.466 18.1222C38.2844 18.3038 38.0381 18.406 37.7812 18.4062H4.84375ZM38.75 52.3125C38.7497 52.5694 38.6476 52.8156 38.466 52.9972C38.2844 53.1788 38.0381 53.281 37.7812 53.2812H4.84375C4.5869 53.281 4.34064 53.1788 4.15902 52.9972C3.9774 52.8156 3.87526 52.5694 3.875 52.3125V44.5625C3.87526 44.3056 3.9774 44.0594 4.15902 43.8778C4.34064 43.6962 4.5869 43.594 4.84375 43.5938H37.7812C38.0381 43.594 38.2844 43.6962 38.466 43.8778C38.6476 44.0594 38.7497 44.3056 38.75 44.5625V52.3125Z" fill="#00EAFF"/>
<path d="M31 31C31.0018 31.6493 31.2211 32.2793 31.6229 32.7894C32.0246 33.2995 32.5857 33.6603 33.2165 33.8142C32.8448 31.9565 32.8448 30.0435 33.2165 28.1858C32.5857 28.3397 32.0246 28.7005 31.6229 29.2106C31.2211 29.7207 31.0018 30.3507 31 31Z" fill="white"/>
</svg>
