<svg width="32" height="32" viewBox="0 0 32 32" fill="none" xmlns="http://www.w3.org/2000/svg">
<path d="M6.31 15.243C6.27307 15.0956 6.27023 14.9416 6.30171 14.7929C6.33319 14.6442 6.39815 14.5046 6.49167 14.3848C6.58518 14.265 6.70479 14.168 6.84139 14.1013C6.97799 14.0347 7.128 14 7.28 14H24.72C24.8719 14 25.0218 14.0347 25.1583 14.1013C25.2948 14.1679 25.4144 14.2648 25.5078 14.3845C25.6013 14.5042 25.6663 14.6436 25.6979 14.7922C25.7295 14.9408 25.7268 15.0946 25.69 15.242L23.879 22.485C23.7709 22.9177 23.5212 23.3018 23.1697 23.5763C22.8182 23.8508 22.385 23.9999 21.939 24H10.061C9.61501 23.9999 9.18184 23.8508 8.83033 23.5763C8.47883 23.3018 8.22916 22.9177 8.121 22.485L6.31 15.243Z" stroke="#00EAFF" stroke-width="2" stroke-linejoin="round"/>
<path d="M13 18V20M19 18V20M10 14L14 8M22 14L18 8" stroke="#00EAFF" stroke-width="2" stroke-linecap="round"/>
</svg>
