<svg width="32" height="32" viewBox="0 0 32 32" fill="none" xmlns="http://www.w3.org/2000/svg">
<g clip-path="url(#clip0_1_16)">
<path d="M24.963 9.61539H21.5L20.675 7.49506C20.618 7.34997 20.5136 7.22455 20.3759 7.13595C20.2383 7.04734 20.0742 6.99986 19.906 7H12.094C11.7502 7 11.4421 7.19849 11.3275 7.49506L10.5 9.61539H7.03704C5.91157 9.61539 5 10.4514 5 11.4835V22.1319C5 23.164 5.91157 24 7.03704 24H24.963C26.0884 24 27 23.164 27 22.1319V11.4835C27 10.4514 26.0884 9.61539 24.963 9.61539ZM25.1667 22.1319C25.1667 22.2346 25.075 22.3187 24.963 22.3187H7.03704C6.925 22.3187 6.83333 22.2346 6.83333 22.1319V11.4835C6.83333 11.3808 6.925 11.2967 7.03704 11.2967H11.791L12.2264 10.1805L12.8095 8.68132H19.188L19.7711 10.1805L20.2065 11.2967H24.963C25.075 11.2967 25.1667 11.3808 25.1667 11.4835V22.1319ZM16 12.7912C13.7491 12.7912 11.9259 14.4632 11.9259 16.5275C11.9259 18.5918 13.7491 20.2637 16 20.2637C18.2509 20.2637 20.0741 18.5918 20.0741 16.5275C20.0741 14.4632 18.2509 12.7912 16 12.7912ZM16 18.7692C14.6505 18.7692 13.5556 17.7651 13.5556 16.5275C13.5556 15.2898 14.6505 14.2857 16 14.2857C17.3495 14.2857 18.4444 15.2898 18.4444 16.5275C18.4444 17.7651 17.3495 18.7692 16 18.7692Z" fill="#00EAFF"/>
</g>
<defs>
<clipPath id="clip0_1_16">
<rect width="32" height="32" fill="white"/>
</clipPath>
</defs>
</svg>
