<svg xmlns="http://www.w3.org/2000/svg" width="2422" height="709" viewBox="0 0 2422 709" version="1.1"><path d="M 337.542 124.592 C 323.551 125.891, 308.588 128.535, 295.500 132.019 C 276.368 137.113, 247.696 149.699, 233.929 159.048 C 230.728 161.222, 227.836 163, 227.502 163 C 227.168 163, 222.583 166.262, 217.312 170.250 C 212.042 174.238, 206.553 178.372, 205.115 179.438 C 202.337 181.496, 180.211 203.667, 176 208.611 C 168.234 217.729, 153.769 238.610, 149.701 246.573 C 148.838 248.263, 147.432 250.226, 146.577 250.936 C 145.722 251.646, 145.237 252.575, 145.500 253 C 145.763 253.426, 144.446 256.863, 142.574 260.637 C 127.481 291.060, 119.776 325.706, 119.695 363.500 C 119.614 401.896, 126.682 433.595, 143.221 469 C 150.253 484.055, 161.742 502.052, 174.500 518 C 175.600 519.375, 182.350 526.368, 189.500 533.539 C 208.897 552.995, 222.165 563.053, 245.360 575.885 C 252.433 579.798, 258.756 583, 259.410 583 C 260.065 583, 261.028 583.360, 261.550 583.800 C 262.073 584.240, 264.975 585.572, 268 586.761 C 271.025 587.949, 274.850 589.466, 276.500 590.132 C 286.432 594.143, 313.276 600.701, 327 602.469 C 368.168 607.775, 404.241 603.980, 442.500 590.319 C 456.506 585.318, 460.654 583.475, 472.250 577.101 C 475.413 575.362, 478.007 574.291, 478.015 574.720 C 478.024 575.149, 478.361 575.034, 478.765 574.464 C 479.169 573.894, 483.100 571.225, 487.500 568.532 C 508.404 555.739, 530.456 536.270, 547.002 516 C 549.471 512.975, 552.058 509.902, 552.752 509.172 C 553.446 508.442, 554.521 506.895, 555.142 505.735 C 555.763 504.575, 556.666 503.148, 557.149 502.563 C 561.095 497.790, 571.429 479.985, 576.939 468.468 C 583.644 454.450, 584.858 451.393, 590.902 433.277 C 598.071 411.791, 601.874 376.300, 600.033 348.061 C 598.911 330.860, 597.259 320.805, 597.086 330.125 C 597.039 332.669, 596.781 336.269, 596.514 338.125 C 596.098 341.010, 596.156 341.137, 596.914 339 C 598.420 334.755, 598.164 349.572, 596.460 365.293 C 594.198 386.175, 590.298 404.404, 585.934 414.500 C 585.458 415.600, 584.122 419.425, 582.964 423 C 580.563 430.413, 569.239 454.330, 567.892 454.833 C 567.401 455.017, 567 455.597, 567 456.124 C 567 456.650, 566.171 458.300, 565.158 459.790 C 564.144 461.281, 561.654 465.104, 559.623 468.287 C 557.592 471.470, 555.501 473.810, 554.976 473.485 C 554.452 473.161, 554.255 473.502, 554.540 474.242 C 555.662 477.168, 529.111 505.931, 513.364 518.850 C 505.902 524.971, 485.012 539, 483.360 539 C 482.703 539, 482.017 539.369, 481.833 539.820 C 481.557 540.500, 476.261 543.363, 462.770 550.125 C 459.286 551.871, 439.317 559.290, 433 561.185 C 422.647 564.290, 407.287 567.664, 397 569.093 C 383.705 570.940, 348.289 570.702, 335.500 568.681 C 324.181 566.892, 312.709 564.468, 309 563.083 C 307.625 562.569, 303.125 561.156, 299 559.942 C 287.305 556.500, 261.111 544.910, 260.167 542.759 C 259.983 542.342, 259.355 542, 258.770 542 C 257.752 542, 251.622 538.240, 242 531.713 C 220.138 516.882, 192.516 486.828, 182.983 467.500 C 182.169 465.850, 181.218 464.275, 180.869 464 C 179.179 462.668, 168.738 439.237, 165.514 429.540 C 157.744 406.173, 155.016 389.010, 155.016 363.500 C 155.017 328.006, 162.460 296.896, 178.663 264.664 C 183.695 254.653, 198.483 231.838, 203.476 226.381 C 204.039 225.765, 206.463 222.941, 208.861 220.105 C 215.233 212.571, 222.559 205.247, 230.500 198.472 C 234.350 195.187, 237.950 192.011, 238.500 191.412 C 239.889 189.901, 251.903 181, 252.553 181 C 252.845 181, 253.977 180.167, 255.070 179.150 C 257.716 176.684, 279.711 164.254, 288.500 160.257 C 304.833 152.830, 329.851 145.010, 345.271 142.512 C 357.052 140.604, 374.926 139.016, 384.712 139.009 C 396.798 138.999, 422.709 141.962, 433.093 144.541 C 436.617 145.416, 441.300 146.573, 443.500 147.111 C 449.190 148.502, 460.254 152.283, 469 155.826 C 483.505 161.700, 508.731 175.886, 508.262 177.904 C 508.130 178.472, 508.764 178.644, 509.686 178.290 C 510.955 177.803, 511.191 178.060, 510.685 179.378 C 510.259 180.488, 510.410 180.865, 511.107 180.434 C 511.703 180.066, 513.479 180.717, 515.055 181.882 C 516.630 183.047, 518.275 183.991, 518.710 183.981 C 519.588 183.959, 512.765 177.699, 509.259 175.309 C 508.026 174.469, 507.308 173.311, 507.663 172.736 C 508.018 172.161, 507.863 171.967, 507.317 172.304 C 506.020 173.106, 501.797 170.138, 502.535 168.943 C 502.848 168.437, 502.490 168.259, 501.739 168.547 C 500.988 168.835, 499.545 168.155, 498.532 167.035 C 497.519 165.916, 496.155 165, 495.500 165 C 494.845 165, 493.593 164.213, 492.718 163.250 C 491.842 162.287, 489.410 160.622, 487.313 159.550 C 485.216 158.477, 482.825 157.047, 482 156.373 C 481.175 155.698, 476.450 153.135, 471.500 150.678 C 463.226 146.569, 459.791 144.977, 448.500 140.014 C 444.380 138.203, 429.085 133.304, 418.500 130.405 C 398.154 124.832, 362.512 122.273, 337.542 124.592 M 626.460 134.250 C 623.732 139.887, 621.269 144.725, 620.986 145 C 620.704 145.275, 618.693 148.122, 616.518 151.326 C 612.361 157.449, 597.919 171.916, 595.761 172.118 C 595.067 172.184, 594.050 172.146, 593.500 172.035 C 592.950 171.924, 592.829 172.162, 593.231 172.564 C 594.060 173.393, 587.165 178.930, 585.250 178.972 C 584.563 178.987, 584 179.477, 584 180.059 C 584 180.641, 583.588 180.864, 583.085 180.553 C 582.582 180.242, 582.020 180.377, 581.835 180.853 C 581.513 181.685, 567.263 189.158, 560 192.305 C 542.678 199.809, 512.207 209.344, 473 219.529 C 460.668 222.732, 449.881 226.020, 431.942 232.043 C 400.655 242.547, 380.292 253.372, 360.500 270.021 C 337.943 288.996, 320.215 316.383, 312.936 343.500 C 306.131 368.856, 304.755 379.419, 304.469 408.500 C 304.203 435.520, 306.719 466.769, 308.968 464.380 C 309.424 463.896, 311.026 460.350, 312.528 456.500 C 331.299 408.394, 354.392 383.083, 404 356.243 C 418.959 348.150, 421.309 346.976, 421.726 347.392 C 421.966 347.633, 423.754 346.749, 425.700 345.429 C 427.645 344.109, 429.634 343.274, 430.119 343.573 C 430.603 343.873, 431 343.728, 431 343.251 C 431 342.775, 432.913 341.574, 435.250 340.584 C 437.587 339.593, 441.300 337.999, 443.500 337.041 C 445.700 336.083, 449.525 334.511, 452 333.547 C 454.475 332.583, 457.281 331.391, 458.236 330.897 C 459.191 330.404, 460.599 330, 461.364 330 C 462.129 330, 463.279 329.369, 463.919 328.598 C 464.558 327.827, 466.201 326.915, 467.568 326.572 C 468.935 326.229, 472.629 324.787, 475.777 323.366 C 481.783 320.656, 485.530 319.031, 491.750 316.435 C 493.813 315.575, 497.188 313.971, 499.250 312.871 C 501.313 311.772, 503 311.196, 503 311.591 C 503 311.986, 503.788 311.639, 504.750 310.818 C 505.712 309.997, 511 307.122, 516.500 304.428 C 537.012 294.381, 563.806 276.962, 578.494 264.125 C 587.666 256.109, 588.474 255.325, 593.150 249.897 C 616.500 222.796, 627.577 199.570, 631.971 168.500 C 633.149 160.169, 633.343 124, 632.210 124 C 631.776 124, 629.188 128.613, 626.460 134.250 M 1443.500 150.672 C 1438.550 151.560, 1434.350 152.672, 1434.167 153.144 C 1433.983 153.615, 1433.119 154, 1432.245 154 C 1430.323 154, 1419.039 158.444, 1414.659 160.927 C 1412.922 161.911, 1409.602 163.793, 1407.281 165.109 C 1401.121 168.601, 1390.055 178.277, 1385.052 184.547 C 1382.659 187.546, 1380.318 190, 1379.851 190 C 1379.383 190, 1379 190.480, 1379 191.067 C 1379 191.653, 1377.908 193.566, 1376.574 195.317 C 1372.921 200.110, 1367.416 212.508, 1364.948 221.500 C 1363.263 227.638, 1362.637 233.280, 1362.259 245.736 C 1361.671 265.106, 1362.841 274.496, 1367.626 288.805 C 1370.929 298.680, 1376.674 311.133, 1378.250 311.833 C 1378.662 312.017, 1379.001 312.692, 1379.001 313.333 C 1379.003 315.368, 1389.072 326.449, 1397.001 333.143 C 1406.636 341.278, 1420.776 347.978, 1436.227 351.733 C 1441.967 353.127, 1447.717 353.494, 1463.500 353.472 C 1481.051 353.448, 1484.510 353.170, 1491.749 351.201 C 1496.286 349.967, 1501.236 348.464, 1502.749 347.860 C 1529.892 337.027, 1550.037 317.388, 1559.371 292.663 C 1565.643 276.050, 1566.500 270.738, 1566.500 248.500 C 1566.500 236.090, 1566.053 226.982, 1565.323 224.500 C 1558.152 200.137, 1552.914 189.896, 1541.629 178.172 C 1529.465 165.536, 1518.074 158.569, 1500.500 153.018 C 1491.042 150.030, 1489.471 149.837, 1471.500 149.458 C 1456.961 149.152, 1450.387 149.437, 1443.500 150.672 M 1302.953 150.899 C 1291.419 154.611, 1281.861 166.737, 1266.616 197 C 1256.262 217.552, 1251.077 226.076, 1245.168 232.260 C 1239.048 238.664, 1229.552 242.681, 1218.614 243.493 L 1212 243.983 1212 209.459 C 1212 171.593, 1212.287 169.454, 1217.743 166.633 C 1219.338 165.808, 1223.761 164.503, 1227.571 163.733 L 1234.500 162.333 1234.500 158.416 L 1234.500 154.500 1192.500 154 C 1169.400 153.725, 1149.964 153.651, 1149.308 153.835 C 1147.975 154.209, 1147.276 157.406, 1147.823 160.623 C 1148.121 162.373, 1149.111 162.855, 1153.454 163.366 C 1162.558 164.436, 1168.473 166.846, 1170.594 170.352 C 1172.414 173.357, 1172.514 176.762, 1172.812 245.500 C 1173.147 322.892, 1172.812 329.753, 1168.468 334.440 C 1166.085 337.012, 1160.693 338.846, 1152.500 339.873 C 1148.232 340.408, 1147.451 340.844, 1147.167 342.852 C 1146.984 344.145, 1147.077 346.170, 1147.374 347.352 L 1147.913 349.500 1192.707 349.408 L 1237.500 349.316 1237.818 345.526 C 1238.210 340.864, 1237.631 340.259, 1232.160 339.607 C 1224.751 338.724, 1217.510 336.171, 1215.081 333.587 C 1212.339 330.668, 1212.246 329.321, 1211.624 283.750 C 1211.255 256.667, 1211.366 254.002, 1212.859 254.022 C 1215.506 254.057, 1222.565 257.597, 1225.879 260.550 C 1228.721 263.082, 1237.830 275.576, 1239.330 279 C 1240.106 280.771, 1242.276 284.288, 1243.031 285 C 1244.544 286.426, 1251 298.366, 1251 299.738 C 1251 300.616, 1251.282 301.051, 1251.626 300.707 C 1252.152 300.182, 1260 311.222, 1260 312.486 C 1260 313.012, 1269.195 326.322, 1270.026 327 C 1270.364 327.275, 1272.535 330.087, 1274.851 333.250 C 1277.168 336.413, 1279.391 339, 1279.792 339 C 1280.193 339, 1281.641 340.028, 1283.010 341.284 C 1285.240 343.329, 1291.883 347.005, 1294.500 347.643 C 1301.470 349.340, 1311.194 349.989, 1329.705 349.994 L 1351.909 350 1352.565 346.508 C 1353.582 341.082, 1352.718 340.008, 1347.281 339.942 C 1339.660 339.850, 1329.741 336.804, 1324.876 333.060 C 1318.211 327.930, 1311.499 319.627, 1299.367 301.500 C 1295.686 296, 1292.406 291.275, 1292.079 291 C 1291.751 290.725, 1287.437 284.425, 1282.492 277 C 1271.730 260.843, 1263.958 250.768, 1259.994 247.837 C 1258.390 246.652, 1257.309 245.309, 1257.591 244.852 C 1257.873 244.396, 1257.478 244.263, 1256.712 244.557 C 1255.947 244.851, 1254.751 244.405, 1254.056 243.567 C 1252.997 242.291, 1253.438 241.310, 1256.771 237.523 C 1260.670 233.094, 1271.663 215.136, 1271.266 213.846 C 1271.155 213.486, 1271.725 212.644, 1272.532 211.973 C 1273.339 211.303, 1274 210.339, 1274 209.831 C 1274 208.656, 1282.575 193.624, 1285.884 189 C 1287.261 187.075, 1289.988 183.994, 1291.944 182.153 C 1295.329 178.968, 1295.789 178.829, 1301.512 179.269 C 1305.430 179.570, 1309.374 180.699, 1312.839 182.511 L 1318.154 185.290 1320.197 183.247 C 1322.034 181.410, 1323.258 178.021, 1326.062 167 C 1326.552 165.075, 1326.963 161.432, 1326.976 158.905 C 1327.012 151.964, 1324.910 150.552, 1314.146 150.289 C 1309.391 150.174, 1304.354 150.448, 1302.953 150.899 M 679.416 153.917 C 679.187 154.146, 679 156.219, 679 158.524 L 679 162.715 684.750 163.326 C 694.750 164.389, 700.291 166.539, 702.516 170.219 C 704.449 173.416, 704.500 175.480, 704.500 250.500 C 704.500 323.923, 704.412 327.676, 702.615 331.294 C 700.002 336.554, 695.841 338.372, 683.531 339.632 C 678.474 340.150, 677.792 340.895, 678.182 345.485 L 678.500 349.234 723.332 349.293 C 772.033 349.356, 769.952 349.600, 769.985 343.817 C 770.002 340.838, 770.212 340.938, 758.720 338.462 C 748.584 336.278, 745.444 333.404, 744.443 325.393 C 743.725 319.644, 745.207 312, 747.040 312 C 747.568 312, 748 311.518, 748 310.929 C 748 310.339, 748.715 309.143, 749.588 308.269 C 750.461 307.396, 752.961 304.317, 755.143 301.426 C 757.325 298.536, 759.761 295.922, 760.555 295.617 C 761.350 295.312, 762 294.474, 762 293.754 C 762 293.034, 762.788 291.743, 763.750 290.886 C 764.712 290.028, 769.550 284.091, 774.500 277.693 C 779.816 270.822, 784.033 266.247, 784.802 266.518 C 785.518 266.771, 785.817 266.513, 785.467 265.946 C 784.928 265.075, 788.824 259.516, 793.297 254.773 C 793.958 254.072, 796.285 251.248, 798.466 248.499 C 800.647 245.749, 802.673 243.275, 802.968 243 C 803.263 242.725, 806.203 239.126, 809.502 235.002 C 812.801 230.879, 817.862 224.685, 820.750 221.239 C 823.638 217.793, 826.017 214.642, 826.038 214.237 C 826.058 213.831, 827.643 211.700, 829.558 209.500 L 833.041 205.500 832.771 267.500 C 832.525 323.818, 832.343 329.787, 830.788 332.626 C 828.719 336.405, 822.893 338.989, 814.734 339.746 C 809.722 340.211, 808.890 340.589, 808.375 342.640 C 808.050 343.938, 808.037 346.013, 808.348 347.250 L 808.913 349.500 853.500 349.500 C 897.278 349.500, 898.095 349.464, 898.516 347.500 C 899.834 341.342, 899.395 340, 896.062 340 C 893.260 340, 881.843 337.644, 878.583 336.394 C 877.735 336.068, 876.019 334.159, 874.770 332.151 L 872.500 328.500 872.218 256.604 C 871.918 179.983, 872.269 172.203, 876.191 168.460 C 878.335 166.414, 889.376 163, 893.849 163 C 894.914 163, 896.059 162.288, 896.393 161.418 C 897.357 158.907, 897.098 154.003, 896 153.972 C 883.335 153.616, 810.705 154.065, 809.995 154.503 C 808.841 155.216, 808.687 159.986, 809.765 161.597 C 810.169 162.201, 812.750 162.958, 815.500 163.280 C 828.666 164.823, 833.558 169.320, 832.706 179.094 C 832.291 183.853, 831.431 185.791, 826.940 192.084 C 824.037 196.152, 821.063 200.080, 820.331 200.812 C 819.599 201.544, 818.998 202.448, 818.995 202.821 C 818.993 203.195, 817.755 204.850, 816.245 206.500 C 814.735 208.150, 812.168 211.300, 810.540 213.500 C 808.912 215.700, 806.103 219.075, 804.298 221 C 802.494 222.925, 801.013 225.025, 801.009 225.667 C 801.004 226.308, 800.663 226.983, 800.250 227.167 C 799.837 227.350, 797.477 229.975, 795.004 233 C 792.532 236.025, 790.057 238.983, 789.504 239.573 C 788.952 240.163, 787.150 242.363, 785.500 244.461 C 783.850 246.559, 781.502 249.451, 780.283 250.888 C 779.063 252.324, 773.733 258.881, 768.438 265.458 C 763.143 272.034, 757.973 278.334, 756.949 279.458 C 755.925 280.581, 752.752 284.345, 749.897 287.822 C 747.043 291.299, 744.435 293.705, 744.103 293.170 C 743.772 292.634, 743.725 265.244, 744 232.302 C 744.452 178.106, 744.662 172.162, 746.202 169.813 C 748.148 166.844, 758.185 163, 763.990 163 L 767.592 163 767.046 158.461 L 766.500 153.922 723.166 153.711 C 699.333 153.595, 679.645 153.688, 679.416 153.917 M 913.847 154.685 C 912.364 156.471, 913.231 162.454, 915 162.651 C 922.915 163.531, 931.996 165.678, 934.178 167.185 C 939.518 170.871, 939.496 170.537, 939.445 250 C 939.401 318.147, 939.267 323.858, 937.602 328.418 C 934.862 335.924, 930.859 338.324, 918.500 339.873 L 913.500 340.500 913.500 344.867 L 913.500 349.234 958.156 349.234 C 982.717 349.234, 1003.305 348.930, 1003.906 348.558 C 1004.508 348.186, 1005 346.109, 1005 343.941 C 1005 340.880, 1004.609 339.985, 1003.250 339.933 C 995.014 339.615, 984.152 336.374, 981.826 333.540 C 978.865 329.932, 977.875 317.114, 978.196 286.500 L 978.500 257.500 1022.750 257.279 L 1067 257.058 1066.989 290.779 C 1066.983 309.326, 1066.708 326.130, 1066.379 328.122 C 1065.258 334.898, 1062.606 336.896, 1052.316 338.715 C 1044.298 340.133, 1043.060 340.625, 1042.567 342.587 C 1042.257 343.823, 1042.371 345.828, 1042.819 347.041 L 1043.635 349.247 1088.068 349.274 L 1132.500 349.300 1132.800 344.779 L 1133.099 340.258 1125.300 339.100 C 1108.854 336.660, 1108.077 335.654, 1106.772 315.090 C 1106.262 307.066, 1106.037 272.150, 1106.272 237.500 C 1106.663 179.828, 1106.848 174.219, 1108.456 171.183 C 1110.645 167.050, 1119.683 163, 1126.714 163 C 1128.593 163, 1130.022 162.386, 1130.393 161.418 C 1131.249 159.188, 1131.149 154.003, 1130.250 153.986 C 1129.838 153.978, 1110.174 153.941, 1086.553 153.903 L 1043.606 153.834 1042.804 156 C 1042.364 157.191, 1042.276 159.253, 1042.610 160.583 C 1043.093 162.505, 1043.868 163, 1046.398 163 C 1048.148 163, 1052.236 163.692, 1055.483 164.537 C 1067.043 167.549, 1067 167.389, 1067 207.523 L 1067 239.803 1055.250 240.541 C 1039.302 241.544, 980.112 240.512, 978.808 239.208 C 977.220 237.620, 978.132 172.789, 979.750 172.250 C 980.438 172.021, 981 171.047, 981 170.086 C 981 169.124, 982.013 167.811, 983.250 167.168 C 986.652 165.398, 995.162 163.023, 998.143 163.011 C 999.623 163.005, 1001.053 162.304, 1001.393 161.418 C 1002.249 159.188, 1002.149 154.004, 1001.250 153.978 C 1000.837 153.966, 981.224 153.854, 957.665 153.728 C 925.637 153.558, 914.582 153.799, 913.847 154.685 M 1681.934 154.039 C 1680.797 154.744, 1680.394 160.210, 1681.363 161.779 C 1681.778 162.450, 1683.189 163, 1684.497 163 C 1687.992 163, 1700.005 165.918, 1703.691 167.662 C 1707.607 169.515, 1709.762 172.657, 1710.563 177.680 C 1711.345 182.593, 1706.371 251.849, 1703.034 282.500 C 1702.495 287.450, 1701.580 296.900, 1701 303.500 C 1698.573 331.130, 1695.383 336.442, 1679.667 339.027 C 1669.419 340.712, 1669.844 340.438, 1670.192 345.144 L 1670.500 349.306 1709 349.306 L 1747.500 349.306 1747.795 344.881 L 1748.091 340.456 1740.295 339.225 C 1724.293 336.697, 1719.424 333.455, 1717.899 324.312 C 1717.023 319.060, 1717.513 295.207, 1719.046 268.500 C 1719.583 259.150, 1720.241 247.450, 1720.510 242.500 C 1721.840 217.923, 1723.269 199.367, 1723.920 198.192 C 1724.719 196.750, 1724.971 197.271, 1733.043 217 C 1738.515 230.377, 1740.408 234.808, 1742.609 239.404 C 1743.374 241.001, 1744 242.693, 1744 243.165 C 1744 243.636, 1744.868 245.929, 1745.929 248.261 C 1748.619 254.173, 1755.917 271.510, 1760.973 284 C 1763.311 289.775, 1765.849 295.918, 1766.612 297.651 C 1767.375 299.384, 1768 301.077, 1768 301.412 C 1768 301.747, 1768.873 303.929, 1769.940 306.261 C 1771.008 308.592, 1773.293 314.325, 1775.018 319 C 1776.744 323.675, 1778.990 329.750, 1780.009 332.500 C 1781.029 335.250, 1782.699 339.975, 1783.720 343 L 1785.576 348.500 1791.429 348.500 C 1798.197 348.500, 1797.314 349.566, 1803.026 334.500 C 1806.931 324.198, 1812.762 310.018, 1817.109 300.250 C 1818.149 297.913, 1819.948 293.863, 1821.107 291.250 C 1822.266 288.637, 1824.560 283.575, 1826.206 280 C 1827.851 276.425, 1830.011 271.475, 1831.006 269 C 1832.001 266.525, 1834.657 260.572, 1836.908 255.772 C 1839.158 250.971, 1841 246.845, 1841 246.602 C 1841 246.359, 1843.499 240.837, 1846.553 234.330 C 1849.607 227.824, 1852.786 220.925, 1853.618 219 C 1854.450 217.075, 1857.094 211.450, 1859.494 206.500 L 1863.857 197.500 1863.928 263.316 C 1863.981 311.344, 1863.687 329.722, 1862.843 331.316 C 1860.292 336.132, 1855.698 338.334, 1845 339.871 C 1840.233 340.556, 1839.120 342.356, 1840.373 347.352 L 1840.913 349.500 1886.956 349.500 L 1933 349.500 1933 347.332 C 1933 346.139, 1933.220 344.564, 1933.489 343.832 C 1934.322 341.567, 1932.641 340.166, 1928.486 339.660 C 1915.281 338.055, 1909.490 335.362, 1906.965 329.653 C 1904.905 324.996, 1904.145 311.041, 1901.895 236.522 C 1900.576 192.863, 1901.018 175.148, 1903.521 171.328 C 1905.552 168.227, 1911.532 165.658, 1920.500 164.034 C 1924.350 163.336, 1928.063 162.608, 1928.750 162.414 C 1929.485 162.208, 1930 160.402, 1930 158.031 C 1930 155.528, 1929.526 153.961, 1928.750 153.897 C 1926.092 153.678, 1866.485 154.195, 1866.235 154.439 C 1866.089 154.581, 1865.307 157.240, 1864.497 160.348 C 1863.064 165.853, 1860.461 172.541, 1855.586 183.245 C 1852.326 190.402, 1848.726 198.319, 1845.466 205.500 C 1843.968 208.800, 1840.325 216.619, 1837.371 222.875 C 1834.417 229.131, 1832 234.643, 1832 235.125 C 1832 235.606, 1831.625 236, 1831.167 236 C 1830.708 236, 1830.323 236.563, 1830.310 237.250 C 1830.297 237.938, 1827.297 244.676, 1823.643 252.225 C 1819.989 259.773, 1817 266.373, 1817 266.891 C 1817 267.409, 1816.662 267.983, 1816.250 268.167 C 1815.838 268.350, 1813.816 271.988, 1811.758 276.250 C 1809.700 280.512, 1807.624 284, 1807.145 284 C 1806.665 284, 1805.111 281.413, 1803.692 278.250 C 1802.272 275.087, 1797.935 265.864, 1794.055 257.753 C 1790.175 249.643, 1787 242.759, 1787 242.455 C 1787 242.152, 1784.975 237.599, 1782.500 232.338 C 1780.025 227.077, 1778 222.622, 1778 222.437 C 1778 222.253, 1775.750 217.331, 1773 211.500 C 1770.250 205.669, 1768 200.714, 1768 200.487 C 1768 200.261, 1766.483 196.797, 1764.629 192.788 C 1756.455 175.113, 1751.950 164.057, 1751.127 159.652 C 1750.640 157.042, 1750.060 154.727, 1749.839 154.506 C 1749.217 153.884, 1682.919 153.429, 1681.934 154.039 M 1943.417 153.917 C 1943.188 154.146, 1943 156.283, 1943 158.667 L 1943 163 1946.953 163 C 1949.127 163, 1951.940 163.405, 1953.203 163.900 C 1954.466 164.394, 1957.413 165.312, 1959.750 165.940 C 1963.226 166.873, 1964.410 167.847, 1966.250 171.290 L 1968.500 175.500 1968.467 250 L 1968.435 324.500 1965.737 330.056 C 1963.186 335.307, 1962.751 335.686, 1957.801 336.954 C 1954.921 337.692, 1948.725 338.805, 1944.032 339.427 L 1935.500 340.558 1935.500 344.846 L 1935.500 349.135 2011.595 349.317 C 2095.885 349.520, 2089.406 350.045, 2093.150 342.705 C 2096.560 336.022, 2104.974 306.655, 2104.992 301.372 C 2105.002 298.757, 2103.218 297.186, 2099.405 296.454 C 2096.571 295.909, 2096.370 296.161, 2091.221 306.698 C 2084.348 320.761, 2075.738 331.397, 2069.761 333.209 C 2066.753 334.120, 2058.440 334.478, 2041.500 334.424 C 2020.510 334.358, 2017.024 334.122, 2013.706 332.539 C 2007.075 329.378, 2006.998 328.919, 2007.015 292.800 C 2007.024 275.035, 2007.415 259.894, 2007.884 259.153 C 2009.116 257.209, 2053.370 257.892, 2056.959 259.911 C 2059.900 261.565, 2062.921 265.010, 2062.967 266.764 C 2062.985 267.459, 2063.449 268.809, 2063.998 269.764 C 2064.548 270.719, 2065.343 273.750, 2065.766 276.500 C 2066.465 281.037, 2066.800 281.530, 2069.389 281.828 C 2070.958 282.009, 2073.249 281.903, 2074.479 281.595 L 2076.717 281.033 2076.222 262.170 C 2075.928 250.958, 2076.205 238.744, 2076.906 232.057 C 2077.680 224.659, 2077.747 220.400, 2077.100 219.621 C 2075.883 218.154, 2067.980 218.766, 2067.532 220.362 C 2067.356 220.988, 2066.428 224.581, 2065.469 228.346 C 2063.701 235.291, 2061.461 238.660, 2057.069 240.980 C 2053.519 242.855, 2010.639 243.775, 2008.526 242.021 C 2007.212 240.931, 2007 235.973, 2007 206.378 C 2007 172.776, 2007.047 171.953, 2009.102 169.898 C 2011.141 167.859, 2011.900 167.807, 2034.352 168.182 C 2053.852 168.507, 2058.066 168.844, 2061.090 170.322 C 2067.353 173.382, 2069.853 178.237, 2073.025 193.500 L 2074.688 201.500 2079.094 201.500 L 2083.500 201.500 2083.802 197.500 C 2084.134 193.099, 2087.769 162.570, 2088.623 157 L 2089.161 153.500 2016.497 153.500 C 1976.532 153.500, 1943.646 153.688, 1943.417 153.917 M 2203.462 155.061 C 2203.268 155.376, 2202.211 158.753, 2201.115 162.567 C 2199.201 169.219, 2191.598 191.250, 2189.059 197.500 C 2188.388 199.150, 2186.338 204.775, 2184.503 210 C 2180.985 220.017, 2177.846 228.684, 2168.566 254 C 2158.426 281.661, 2154.282 292.572, 2152.900 295.236 C 2152.405 296.191, 2152 297.473, 2152 298.085 C 2152 298.697, 2151.279 300.841, 2150.398 302.849 C 2147.918 308.500, 2147.296 310.071, 2145.068 316.296 C 2139.784 331.059, 2137.949 332.835, 2127.115 333.671 C 2122.614 334.018, 2118.775 334.571, 2118.584 334.901 C 2118.393 335.230, 2118.817 337.750, 2119.526 340.500 C 2120.235 343.250, 2121.048 346.850, 2121.331 348.500 C 2121.614 350.150, 2122.545 355.325, 2123.399 360 C 2126.324 376.007, 2126.996 380.513, 2127.997 390.856 C 2128.549 396.552, 2129 401.614, 2129 402.106 C 2129 403.176, 2137.027 403.283, 2138.606 402.235 C 2139.214 401.831, 2140.201 398.350, 2140.799 394.500 C 2144.676 369.550, 2148.600 354.400, 2152.089 350.911 C 2153.929 349.071, 2156.284 349, 2215.048 349 L 2276.095 349 2278.486 351.579 C 2281.947 355.314, 2285.857 374.197, 2287.589 395.548 C 2287.992 400.508, 2288.777 404.361, 2289.437 404.614 C 2290.069 404.857, 2292.366 404.687, 2294.543 404.238 C 2298.493 403.422, 2298.502 403.409, 2299.645 396.960 C 2303.708 374.032, 2311.443 341.778, 2314.043 336.920 C 2314.565 335.944, 2314.713 334.415, 2314.371 333.524 C 2313.840 332.142, 2312.404 331.974, 2304.624 332.388 C 2293.801 332.963, 2292.638 332.334, 2289.142 324 C 2283.358 310.213, 2267.619 270.354, 2260.515 251.500 C 2258.443 246, 2256.184 240.150, 2255.495 238.500 C 2251.821 229.696, 2249 222, 2249 220.779 C 2249 220.021, 2248.605 218.972, 2248.123 218.450 C 2247.641 217.928, 2246.475 215.025, 2245.534 212 C 2244.592 208.975, 2243.025 204.700, 2242.051 202.500 C 2241.077 200.300, 2237.929 191.975, 2235.056 184 C 2232.182 176.025, 2229.102 167.759, 2228.210 165.631 C 2227.319 163.503, 2226.569 160.102, 2226.545 158.073 L 2226.500 154.383 2215.158 154.436 C 2208.920 154.465, 2203.657 154.747, 2203.462 155.061 M 1446.895 162.307 C 1443.812 163.007, 1438.707 165.137, 1435.550 167.040 C 1430.055 170.353, 1418 182.142, 1418 184.204 C 1418 184.747, 1417.162 186.386, 1416.139 187.846 C 1415.115 189.306, 1413.707 192.300, 1413.008 194.500 C 1412.310 196.700, 1411.418 198.950, 1411.025 199.500 C 1410.336 200.463, 1409.601 203.163, 1406.801 215 C 1405.953 218.586, 1405.502 227.635, 1405.506 241 C 1405.513 261.808, 1405.823 264.385, 1410.493 282.500 C 1413.058 292.446, 1420.497 308.951, 1424.250 313.019 C 1425.213 314.063, 1426 315.403, 1426 315.999 C 1426 317.877, 1440.736 331.405, 1445.213 333.637 C 1459.144 340.579, 1458.666 340.459, 1472.500 340.480 C 1485.255 340.500, 1485.627 340.437, 1492.237 337.152 C 1521.478 322.619, 1533.157 265.983, 1517.734 213.500 C 1515.775 206.831, 1510.402 194.062, 1509.109 193 C 1508.774 192.725, 1507.825 191.308, 1507 189.850 C 1500.680 178.686, 1488.093 167.990, 1476.466 163.904 C 1469.060 161.301, 1454.730 160.527, 1446.895 162.307 M 2195.517 220.750 C 2192.811 228.863, 2190.238 235.928, 2189.799 236.450 C 2189.359 236.973, 2189 238.029, 2189 238.799 C 2189 239.568, 2188.381 241.616, 2187.625 243.349 C 2186.868 245.082, 2185.535 248.750, 2184.661 251.500 C 2183.788 254.250, 2181.460 261, 2179.489 266.500 C 2177.518 272, 2173.880 282.575, 2171.404 290 C 2168.928 297.425, 2166.503 304.400, 2166.014 305.500 C 2165.526 306.600, 2163.715 312, 2161.990 317.500 C 2160.265 323, 2158.456 328.249, 2157.971 329.165 C 2155.853 333.163, 2158.492 333.483, 2196.402 333.832 C 2237.956 334.213, 2247 333.720, 2247 331.071 C 2247 329.389, 2242.025 314.061, 2238.051 303.500 C 2237.016 300.750, 2234.971 295.125, 2233.505 291 C 2232.039 286.875, 2230.366 282.375, 2229.786 281 C 2229.207 279.625, 2228.358 277.600, 2227.901 276.500 C 2227.443 275.400, 2226.163 271.800, 2225.056 268.500 C 2221.261 257.190, 2219.945 253.498, 2218.993 251.500 C 2218.470 250.400, 2215.072 241.625, 2211.444 232 C 2201.909 206.708, 2201.625 206, 2201.002 206 C 2200.691 206, 2198.222 212.637, 2195.517 220.750 M 1636.500 272.115 C 1625.500 272.453, 1612.125 272.790, 1606.778 272.865 L 1597.056 273 1595.595 278.250 C 1593.559 285.566, 1592.651 293.666, 1593.788 294.369 C 1594.309 294.691, 1608.576 294.554, 1625.494 294.064 C 1648.962 293.386, 1656.551 292.858, 1657.509 291.837 C 1660.025 289.157, 1663.619 274.419, 1662.233 272.467 C 1661.396 271.286, 1662.827 271.306, 1636.500 272.115 M 566.573 286.487 C 562.787 289.026, 559.214 291.193, 558.633 291.302 C 558.053 291.411, 556.761 292.219, 555.763 293.099 C 551.917 296.485, 500.207 324, 497.688 324 C 497.352 324, 492.743 326.025, 487.446 328.500 C 482.149 330.975, 477.513 333, 477.143 333 C 476.773 333, 474.847 333.870, 472.862 334.934 C 470.878 335.997, 466.384 338.063, 462.877 339.525 C 459.370 340.986, 453.197 343.716, 449.161 345.591 C 445.124 347.466, 441.656 349, 441.452 349 C 440.997 349, 420.233 358.723, 417.569 360.184 C 416.507 360.767, 412.457 362.893, 408.569 364.910 C 404.681 366.927, 396.100 372.154, 389.500 376.527 C 382.900 380.899, 377.129 384.358, 376.676 384.213 C 376.222 384.069, 376.113 384.373, 376.432 384.890 C 376.751 385.406, 376.583 385.980, 376.058 386.165 C 374.447 386.731, 365.963 394.156, 359.059 401.042 C 351.212 408.869, 344.607 416.629, 339.778 423.697 C 337.825 426.555, 335.914 428.580, 335.530 428.197 C 335.147 427.814, 334.971 427.950, 335.140 428.500 C 335.308 429.050, 333.545 432.729, 331.223 436.674 C 328.900 440.620, 327 444.333, 327 444.924 C 327 445.516, 326.550 446, 326 446 C 325.450 446, 325 446.810, 325 447.800 C 325 448.790, 324.604 450.028, 324.121 450.550 C 323.637 451.072, 322.679 453.300, 321.990 455.500 C 321.302 457.700, 320.408 459.950, 320.003 460.500 C 318.770 462.176, 313.348 480.035, 311.654 488 C 308.842 501.222, 307 519.448, 307 534.043 C 307 546.112, 307.211 548.070, 308.402 547.081 C 309.173 546.442, 310.108 544.699, 310.480 543.209 C 311.431 539.401, 318.740 524.546, 322.850 518.066 C 331.127 505.017, 345.168 489.531, 354.333 483.343 C 356.625 481.796, 360.750 478.873, 363.500 476.847 C 366.250 474.822, 376.825 469.054, 387 464.030 C 397.175 459.006, 406.281 454.469, 407.236 453.948 C 408.191 453.427, 409.654 453, 410.486 453 C 411.319 453, 412 452.660, 412 452.244 C 412 451.828, 413.462 450.854, 415.250 450.079 C 431.076 443.217, 463.228 424.968, 483.750 411.199 C 491.587 405.940, 498 401.269, 498 400.819 C 498 400.368, 498.510 400, 499.133 400 C 499.756 400, 500.993 399.196, 501.883 398.214 C 502.772 397.232, 504.850 395.402, 506.500 394.147 C 519.348 384.375, 537.103 363.247, 548.223 344.500 C 550.138 341.272, 558.458 324.356, 561.749 317 C 565.295 309.075, 574.165 283.995, 573.805 282.915 C 573.614 282.341, 570.359 283.948, 566.573 286.487 M 777.500 376.084 C 766.346 377.225, 750.688 380.039, 749.550 381.108 C 749.027 381.598, 747.846 382, 746.924 382 C 745.437 382, 738.113 384.877, 731 388.255 C 717.264 394.779, 701.227 409.570, 693.406 422.931 C 683.707 439.501, 680.196 453.387, 680.073 475.678 C 679.988 491.041, 681.190 500.924, 684.598 512.888 C 686.692 520.236, 692.274 533.381, 693.989 535 C 694.280 535.275, 695.815 537.525, 697.400 540 C 701.664 546.658, 714.207 558.442, 721.823 562.945 C 739.936 573.654, 762.631 578.951, 790.500 578.974 C 812.279 578.993, 836.005 574.847, 841.031 570.145 C 847.211 564.363, 863.134 531.397, 861.634 527.489 C 861.034 525.926, 857.027 523.927, 855.859 524.609 C 855.507 524.815, 853.983 527.349, 852.473 530.241 C 844.824 544.888, 834.615 556.553, 825.684 560.851 C 816.529 565.256, 810.721 566.438, 798.500 566.380 C 773.381 566.260, 756.457 556.680, 743.431 535.208 C 733.313 518.527, 728.615 498.276, 728.654 471.500 C 728.682 452.420, 730.327 440.310, 734.677 427.173 C 740.329 410.105, 746.819 400.593, 757.990 393.007 C 766.249 387.398, 774.451 384.927, 786.446 384.433 C 801.365 383.818, 810.862 385.591, 822.700 391.202 C 836.117 397.562, 841.925 408.535, 843.929 431.310 C 843.968 431.756, 845.688 431.981, 847.750 431.810 C 851.357 431.512, 851.510 431.348, 851.752 427.500 C 852.296 418.867, 855.167 394.648, 856.434 387.997 C 857.175 384.109, 857.382 380.736, 856.897 380.437 C 855.943 379.847, 853.486 379.570, 835.500 378.029 C 828.900 377.463, 818.325 376.552, 812 376.004 C 798.966 374.874, 789.110 374.897, 777.500 376.084 M 1732.352 376.515 C 1713.694 378.659, 1705.097 380.949, 1690 387.795 C 1683.253 390.855, 1669.453 400.792, 1664.500 406.157 C 1656.866 414.426, 1654 417.896, 1654 418.869 C 1654 419.356, 1653.376 420.273, 1652.612 420.907 C 1648.792 424.077, 1641.089 445.142, 1639.047 458 C 1637.709 466.431, 1637.716 484.285, 1639.062 495.026 C 1641.211 512.167, 1647.254 529, 1655.064 539.603 C 1660.124 546.474, 1670.491 557.162, 1673.778 558.897 C 1675.113 559.602, 1675.771 560.597, 1675.368 561.300 C 1674.989 561.960, 1675.052 562.162, 1675.507 561.749 C 1675.963 561.336, 1678.622 562.285, 1681.418 563.857 C 1690.202 568.798, 1704.254 573.881, 1715.073 576.032 C 1728.588 578.718, 1752.855 579.658, 1767.500 578.062 C 1780.121 576.687, 1794.507 573.553, 1797.651 571.493 C 1799.861 570.045, 1804.345 563.812, 1806.998 558.500 C 1807.823 556.850, 1808.750 555.275, 1809.061 555 C 1810.125 554.055, 1820.001 530.500, 1820 528.905 C 1820 526.229, 1816.807 524.105, 1814.250 525.079 C 1813.013 525.550, 1812 526.526, 1812 527.247 C 1812 529.739, 1800.293 546.649, 1794.396 552.676 C 1784.327 562.966, 1774.661 566.447, 1756.500 566.320 C 1728.669 566.126, 1710.438 554.317, 1697.475 528.086 C 1685.211 503.272, 1682.706 458.583, 1691.946 429.477 C 1695.233 419.125, 1699.797 409, 1701.176 409 C 1701.694 409, 1701.844 408.557, 1701.509 408.015 C 1700.528 406.427, 1714.317 393.380, 1720.047 390.476 C 1728.455 386.216, 1733.838 384.900, 1744.500 384.498 C 1765.194 383.719, 1782.325 389.006, 1791.242 398.924 C 1796.516 404.790, 1800.297 414.665, 1801.567 425.888 L 1802.270 432.105 1805.878 431.802 L 1809.485 431.500 1810.642 417.388 C 1811.947 401.472, 1814.918 382.816, 1816.297 381.875 C 1818.495 380.376, 1815.160 379.800, 1794 378.022 C 1787.125 377.444, 1776.325 376.529, 1770 375.989 C 1755.600 374.759, 1746.527 374.886, 1732.352 376.515 M 1007.500 380.238 C 1003.650 380.715, 971.812 380.969, 936.750 380.803 L 872.999 380.500 873 383.621 C 873 386.703, 873.077 386.750, 879.176 387.440 C 886.268 388.243, 891.872 390.800, 893.917 394.167 C 895.928 397.476, 896.884 422.300, 896.858 470.500 C 896.828 526.753, 895.840 554.634, 893.735 558.615 C 891.474 562.893, 886.584 564.937, 875.190 566.368 C 867.101 567.383, 865.521 567.867, 865.625 569.292 C 866.017 574.649, 863.332 574.271, 898.250 573.885 C 915.987 573.689, 948.774 573.916, 971.109 574.389 C 1016.232 575.344, 1017.728 575.201, 1020.336 569.703 C 1023.723 562.563, 1028.559 545.160, 1031.047 531.167 C 1032.160 524.904, 1032.142 523.703, 1030.925 522.932 C 1027.866 520.997, 1026.054 521.992, 1023.971 526.750 C 1015.802 545.410, 1008.309 556.082, 1001.251 559.107 C 995.245 561.681, 978.472 562.499, 959.500 561.142 C 945.214 560.120, 944.392 559.945, 942.238 557.465 L 939.975 554.860 940.238 518.680 L 940.500 482.500 962 482.840 C 973.825 483.027, 985.096 483.582, 987.048 484.074 C 988.999 484.566, 991.770 486.213, 993.207 487.734 C 995.809 490.490, 999 499.275, 999 503.682 C 999 505.694, 999.495 506, 1002.750 505.999 L 1006.500 505.998 1006.500 475.999 L 1006.500 446 1003.450 446 C 1000.548 446, 1000.340 446.279, 999.158 451.750 C 997.550 459.189, 995.193 463.810, 991.679 466.412 C 989 468.394, 987.631 468.500, 964.679 468.500 L 940.500 468.500 940.237 432.708 C 940.078 410.977, 940.355 396.204, 940.944 395.105 C 942.326 392.523, 955.900 391.673, 973.993 393.034 C 986.885 394.004, 988.702 394.375, 991.925 396.692 C 996.400 399.908, 999.506 406.721, 1001.909 418.588 L 1003.713 427.500 1007.101 427.500 L 1010.490 427.500 1010.755 422 C 1011.154 413.740, 1013.928 390.107, 1015.086 385.102 C 1015.646 382.683, 1015.743 380.404, 1015.302 380.038 C 1014.861 379.671, 1011.350 379.762, 1007.500 380.238 M 1041 383.621 C 1041 386.693, 1041.094 386.752, 1046.996 387.420 C 1055.844 388.421, 1059.700 390.346, 1061.503 394.662 C 1063.792 400.140, 1064.992 429.270, 1064.915 477.500 C 1064.822 535.669, 1063.957 556.571, 1061.470 560.782 C 1059.533 564.061, 1055.322 565.976, 1050 566 C 1048.625 566.006, 1045.813 566.480, 1043.750 567.053 C 1040.529 567.947, 1040 568.499, 1040 570.967 L 1040 573.839 1087.556 573.816 L 1135.111 573.794 1134.806 570.647 C 1134.561 568.130, 1133.999 567.444, 1132 567.223 C 1115.196 565.357, 1111.500 563.428, 1109.374 555.413 C 1107.701 549.103, 1106.500 449.797, 1107.691 416.163 C 1108.636 389.480, 1108.449 389.981, 1117.441 390.024 C 1129.285 390.080, 1138.713 394.998, 1146.093 404.971 C 1153.245 414.638, 1156.100 424.172, 1156.751 440.566 C 1157.771 466.272, 1152.491 479.772, 1139.090 485.716 C 1134.560 487.726, 1132.285 488.081, 1125.090 487.904 C 1116.649 487.695, 1116.495 487.734, 1116.203 490.148 C 1115.621 494.950, 1118.932 496.432, 1131.175 496.851 C 1151.898 497.560, 1169.177 491.866, 1182.277 480.011 C 1190.188 472.852, 1195.435 464.606, 1198.660 454.261 C 1201.055 446.578, 1201.221 444.895, 1200.777 432.714 C 1200.244 418.068, 1198.669 412.695, 1191.777 402 C 1187.240 394.960, 1183.465 391.664, 1175.045 387.386 C 1163.399 381.469, 1159.021 381.100, 1096.750 380.783 L 1040.999 380.500 1041 383.621 M 1217 383.588 C 1217 386.673, 1217.080 386.723, 1222.994 387.342 C 1230.505 388.127, 1235.382 390.128, 1237.440 393.269 C 1240.698 398.240, 1241.186 411.448, 1240.717 481.844 C 1240.466 519.605, 1240.058 551.175, 1239.812 552 C 1239.565 552.825, 1239.024 554.950, 1238.608 556.723 C 1237.428 561.759, 1233.168 564.624, 1224.788 566.021 C 1215.805 567.517, 1214 568.421, 1214 571.424 L 1214 573.779 1235.250 574.451 C 1246.938 574.821, 1270 575.204, 1286.500 575.303 C 1311.456 575.451, 1318.097 575.185, 1326 573.717 C 1342.552 570.643, 1350.762 567.609, 1362 560.412 C 1379.299 549.334, 1386.735 534.127, 1385.732 511.879 C 1385.309 502.501, 1384.882 500.512, 1382.087 494.879 C 1380.346 491.371, 1377.252 486.700, 1375.211 484.500 C 1371.449 480.445, 1363.889 475, 1362.021 475 C 1361.460 475, 1361 474.550, 1361 474 C 1361 473.450, 1360.303 473, 1359.452 473 C 1358.600 473, 1356.013 472.076, 1353.702 470.947 C 1351.391 469.818, 1346.237 468.367, 1342.250 467.722 C 1338.263 467.077, 1335 466.257, 1335 465.900 C 1335 465.542, 1336.422 464.966, 1338.159 464.618 C 1344.462 463.358, 1355.612 457.115, 1360.956 451.854 C 1368.530 444.399, 1371.374 437.781, 1371.842 426.522 C 1372.639 407.375, 1366.390 395.698, 1351.273 388.086 C 1337.549 381.176, 1338.962 381.287, 1257.750 380.738 L 1217 380.462 1217 383.588 M 1401.417 380.917 C 1400.617 381.716, 1401.007 385.887, 1401.936 386.460 C 1402.451 386.778, 1405.938 387.430, 1409.686 387.909 C 1418.574 389.045, 1421.318 390.412, 1423.611 394.847 C 1425.405 398.316, 1425.508 401.995, 1425.660 468 C 1425.748 506.225, 1425.455 542.080, 1425.009 547.678 C 1423.809 562.749, 1422.056 564.874, 1409.500 566.476 C 1401.692 567.472, 1401 567.837, 1401 570.954 L 1401 573.774 1446.556 573.787 L 1492.112 573.801 1491.806 570.722 C 1491.507 567.715, 1491.301 567.600, 1483 565.821 C 1478.325 564.818, 1474.342 563.523, 1474.148 562.943 C 1473.954 562.363, 1472.840 560.997, 1471.671 559.909 C 1469.824 558.187, 1469.544 556.794, 1469.524 549.215 C 1469.500 540.657, 1469.572 540.398, 1473.477 534.831 C 1475.664 531.713, 1477.871 529.420, 1478.381 529.736 C 1478.892 530.051, 1479.023 529.846, 1478.673 529.279 C 1478.056 528.281, 1483.474 519.839, 1485.163 519.167 C 1485.623 518.983, 1486 518.233, 1486 517.500 C 1486 516.767, 1486.366 516.017, 1486.813 515.833 C 1487.260 515.650, 1489.663 512.575, 1492.153 509 C 1494.642 505.425, 1498.788 499.575, 1501.366 496 C 1503.943 492.425, 1507.864 486.902, 1510.079 483.727 C 1517.394 473.241, 1530.805 454.528, 1532.164 452.912 C 1532.899 452.039, 1533.950 450.643, 1534.500 449.809 C 1543.193 436.638, 1548.599 429.252, 1549.250 429.655 C 1549.694 429.929, 1549.929 458.356, 1549.774 492.826 C 1549.427 569.570, 1550.655 563.660, 1534.500 566.339 C 1527.674 567.471, 1527.492 567.578, 1527.195 570.634 L 1526.891 573.769 1571.695 573.634 L 1616.500 573.500 1616.813 570.785 C 1617.061 568.635, 1616.645 567.962, 1614.813 567.552 C 1613.541 567.268, 1609.429 566.351, 1605.676 565.515 C 1598.354 563.884, 1596.643 562.744, 1594.882 558.325 C 1593.095 553.841, 1592.460 519.170, 1593 455.500 C 1593.498 396.743, 1593.509 396.487, 1595.695 393.423 C 1597.415 391.012, 1599.147 390.064, 1603.695 389.045 C 1606.888 388.329, 1610.850 387.435, 1612.500 387.058 C 1614.959 386.496, 1615.500 385.866, 1615.500 383.562 L 1615.500 380.752 1572.155 380.721 C 1536.806 380.696, 1528.655 380.940, 1527.974 382.041 C 1526.315 384.726, 1528.739 386.694, 1534.545 387.376 C 1541.083 388.145, 1545.400 390.125, 1547.394 393.271 C 1549.582 396.721, 1550.319 403.487, 1548.969 407.729 C 1547.888 411.125, 1536.307 429.550, 1533.470 432.387 C 1532.838 433.019, 1532.137 434.067, 1531.911 434.717 C 1531.380 436.243, 1521.108 450.657, 1518.500 453.535 C 1517.400 454.749, 1516.396 456.224, 1516.270 456.812 C 1516.143 457.400, 1512.361 462.970, 1507.864 469.190 C 1503.367 475.411, 1498.745 481.850, 1497.594 483.500 C 1496.442 485.150, 1493.901 488.525, 1491.946 491 C 1489.991 493.475, 1486.193 498.650, 1483.506 502.500 C 1480.819 506.350, 1478.339 509.725, 1477.994 510 C 1477.650 510.275, 1475.929 512.615, 1474.171 515.199 C 1472.413 517.783, 1470.514 520.182, 1469.951 520.530 C 1469.257 520.959, 1469.020 501.139, 1469.214 458.831 C 1469.482 400.336, 1469.613 396.334, 1471.331 393.802 C 1473.230 391.003, 1478.601 388.603, 1485.498 387.472 C 1489.766 386.772, 1490.960 385.690, 1490.985 382.500 C 1491 380.530, 1490.338 380.500, 1446.417 380.500 C 1421.896 380.500, 1401.646 380.688, 1401.417 380.917 M 1288.064 390.957 C 1286.458 391.355, 1285.352 392.572, 1284.817 394.530 C 1284.371 396.163, 1283.707 412.429, 1283.342 430.675 L 1282.679 463.849 1286.475 464.561 C 1291.591 465.521, 1309.561 464.415, 1314.393 462.843 C 1319.660 461.130, 1325.426 455.532, 1328.150 449.487 C 1330.006 445.370, 1330.407 442.668, 1330.449 434 C 1330.534 416.490, 1325.663 405.426, 1314.298 397.318 C 1307.538 392.494, 1294.566 389.349, 1288.064 390.957 M 1283.339 476.560 C 1283.009 477.418, 1282.945 494.180, 1283.196 513.810 C 1283.726 555.239, 1283.891 556.090, 1292.476 561.776 C 1302.036 568.109, 1309.815 568.900, 1320.129 564.590 C 1323.684 563.105, 1333.560 553.227, 1332.526 552.192 C 1332.234 551.901, 1332.604 550.951, 1333.348 550.081 C 1337.710 544.983, 1340.615 519.757, 1338.159 508.305 C 1336.455 500.360, 1332.420 492.538, 1327.238 487.138 C 1319.061 478.614, 1309.100 475, 1293.787 475 C 1285.786 475, 1283.825 475.293, 1283.339 476.560" stroke="none" fill="#507cbc" fill-rule="evenodd"/><path d="" stroke="none" fill="#4c7cbc" fill-rule="evenodd"/></svg>