<svg width="62" height="62" viewBox="0 0 62 62" fill="none" xmlns="http://www.w3.org/2000/svg">
<path d="M57.1527 0.939453H4.84721C2.79933 0.939453 1.146 2.60218 1.146 4.64067V57.3595C1.146 59.3979 2.80872 61.0607 4.84721 61.0607H57.1621C59.2005 61.0607 60.8633 59.3979 60.8633 57.3595V4.64067C60.8593 3.65864 60.4668 2.71811 59.7715 2.02458C59.0762 1.33106 58.1347 0.940935 57.1527 0.939453ZM4.84721 2.75248H57.1621C58.2048 2.75248 59.0502 3.59794 59.0502 4.64067V8.50157H2.94963V4.64067C2.94963 3.59794 3.80448 2.75248 4.84721 2.75248ZM57.1527 59.2476H4.84721C3.80448 59.2476 2.95903 58.4022 2.95903 57.3595V10.3146H59.0502V57.3595C59.0502 58.4022 58.1954 59.2476 57.1527 59.2476Z" fill="#00EAFF"/>
<path d="M51.103 7.02678H53.1979C53.437 7.02678 53.6664 6.93177 53.8355 6.76264C54.0047 6.59352 54.0997 6.36414 54.0997 6.12496C54.0997 5.88579 54.0047 5.6564 53.8355 5.48728C53.6664 5.31816 53.437 5.22314 53.1979 5.22314H51.103C50.8638 5.22314 50.6345 5.31816 50.4653 5.48728C50.2962 5.6564 50.2012 5.88579 50.2012 6.12496C50.2012 6.36414 50.2962 6.59352 50.4653 6.76264C50.6345 6.93177 50.8638 7.02678 51.103 7.02678ZM45.57 7.02678H47.6648C47.904 7.02678 48.1334 6.93177 48.3025 6.76264C48.4716 6.59352 48.5667 6.36414 48.5667 6.12496C48.5667 5.88579 48.4716 5.6564 48.3025 5.48728C48.1334 5.31816 47.904 5.22314 47.6648 5.22314H45.57C45.3308 5.22314 45.1014 5.31816 44.9323 5.48728C44.7632 5.6564 44.6682 5.88579 44.6682 6.12496C44.6682 6.36414 44.7632 6.59352 44.9323 6.76264C45.1014 6.93177 45.3308 7.02678 45.57 7.02678ZM40.0464 7.02678H42.1412C42.3804 7.02678 42.6098 6.93177 42.7789 6.76264C42.948 6.59352 43.043 6.36414 43.043 6.12496C43.043 5.88579 42.948 5.6564 42.7789 5.48728C42.6098 5.31816 42.3804 5.22314 42.1412 5.22314H40.0464C39.8072 5.22314 39.5778 5.31816 39.4087 5.48728C39.2395 5.6564 39.1445 5.88579 39.1445 6.12496C39.1445 6.36414 39.2395 6.59352 39.4087 6.76264C39.5778 6.93177 39.8072 7.02678 40.0464 7.02678Z" fill="white"/>
<path d="M48 30.5C46.3515 22.7903 39.3666 17 31 17C22.6334 17 15.6485 22.7903 14 30.5M48 37.5C46.3515 45.2097 39.3666 51 31 51C22.6334 51 15.6485 45.2097 14 37.5" stroke="#00EAFF" stroke-width="1.5"/>
<path d="M23 30.5C23.7758 22.7903 27.0628 17 31 17C34.9372 17 38.2242 22.7903 39 30.5M23 37.5C23.7758 45.2097 27.0628 51 31 51C34.8677 51 38.1079 45.4125 38.9565 37.9068" stroke="#00EAFF" stroke-width="1.5"/>
<rect x="7.5" y="30.5" width="47" height="7" rx="0.5" stroke="#00EAFF"/>
<path d="M11 34H38" stroke="white" stroke-width="1.5" stroke-linecap="round"/>
<path d="M42.5 34H50.5" stroke="white" stroke-width="1.5" stroke-linecap="round"/>
</svg>
