<svg width="62" height="62" viewBox="0 0 62 62" fill="none" xmlns="http://www.w3.org/2000/svg">
<g clip-path="url(#clip0_824_177)">
<path fill-rule="evenodd" clip-rule="evenodd" d="M0.851074 50.1123V33.5246C0.851074 32.4298 1.74728 31.5336 2.84213 31.5336H24.1949C25.2901 31.5336 26.1848 32.4294 26.1848 33.5246V40.7157H35.8154V33.5246C35.8154 32.4298 36.7118 31.5336 37.8066 31.5336H59.1594C60.2546 31.5336 61.1491 32.4294 61.1491 33.5246V50.1123C61.1491 51.2053 60.2549 52.1022 59.1594 52.1022H44.2461V59.2945C44.2461 60.3874 43.352 61.2842 42.2564 61.2842H20.9036C19.8084 61.2842 18.9125 60.3871 18.9125 59.2945V52.1022H2.84213C1.74691 52.1022 0.851074 51.205 0.851074 50.1123ZM24.2397 35.1679V33.5246C24.2398 33.5126 24.2352 33.501 24.2268 33.4924C24.2184 33.4838 24.2069 33.4789 24.1949 33.4787H2.84213C2.82995 33.4787 2.81828 33.4836 2.80967 33.4922C2.80106 33.5008 2.7962 33.5125 2.79617 33.5246V35.1679H24.2397ZM24.2397 40.7157V37.113H2.79617V50.1123C2.79617 50.1372 2.8172 50.1571 2.84213 50.1571H18.9125V42.7067C18.9125 41.612 19.8087 40.7157 20.9036 40.7157H24.2397ZM42.2564 42.6608H20.9036C20.8914 42.6608 20.8797 42.6657 20.8711 42.6743C20.8625 42.6829 20.8577 42.6945 20.8576 42.7067V44.35H42.301V42.7067C42.3011 42.6947 42.2965 42.6832 42.2882 42.6746C42.2798 42.6659 42.2684 42.661 42.2564 42.6608ZM37.7605 37.113V40.7157H42.2564C43.3516 40.7157 44.2461 41.6116 44.2461 42.7067V50.1571H59.1594C59.1712 50.157 59.1826 50.1523 59.1909 50.1439C59.1993 50.1355 59.204 50.1241 59.204 50.1123V37.113H37.7605ZM59.204 35.1679V33.5246C59.2042 33.5126 59.1995 33.5011 59.1912 33.4925C59.1828 33.4839 59.1714 33.4789 59.1594 33.4787H37.8066C37.7944 33.4787 37.7827 33.4836 37.7741 33.4922C37.7655 33.5008 37.7606 33.5125 37.7605 33.5246V35.1679H59.204ZM20.8576 46.2951V59.2945C20.8576 59.3193 20.8787 59.3391 20.9036 59.3391H42.2564C42.2682 59.3391 42.2795 59.3343 42.2879 59.326C42.2962 59.3176 42.3009 59.3063 42.301 59.2945V46.2951H20.8576ZM41.8392 34.9175C41.5118 34.9175 41.2444 34.6515 41.2444 34.324C41.2444 33.9964 41.5118 33.7291 41.8392 33.7291C42.1667 33.7291 42.4327 33.9964 42.4327 34.324C42.4327 34.6515 42.1667 34.9175 41.8392 34.9175ZM44.1209 34.9175C43.7934 34.9175 43.526 34.6515 43.526 34.324C43.526 33.9964 43.7934 33.7291 44.1209 33.7291C44.4483 33.7291 44.7156 33.9964 44.7156 34.324C44.7156 34.6515 44.4483 34.9175 44.1209 34.9175ZM39.5562 34.9175C39.2287 34.9175 38.9614 34.6515 38.9614 34.324C38.9614 33.9964 39.2287 33.7291 39.5562 33.7291C39.8837 33.7291 40.1511 33.9964 40.1511 34.324C40.1511 34.6515 39.8837 34.9175 39.5562 34.9175ZM6.8748 34.9175C6.54729 34.9175 6.27996 34.6515 6.27996 34.324C6.27996 33.9964 6.54729 33.7291 6.8748 33.7291C7.20231 33.7291 7.4683 33.9964 7.4683 34.324C7.4683 34.6515 7.20231 34.9175 6.8748 34.9175ZM4.59186 34.9175C4.26436 34.9175 3.99703 34.6515 3.99703 34.324C3.99703 33.9964 4.26436 33.7291 4.59186 33.7291C4.91925 33.7291 5.18658 33.9964 5.18658 34.324C5.18658 34.6515 4.91925 34.9175 4.59186 34.9175ZM9.1564 34.9175C8.82902 34.9175 8.56169 34.6515 8.56169 34.324C8.56169 33.9964 8.82902 33.7291 9.1564 33.7291C9.48391 33.7291 9.75124 33.9964 9.75124 34.324C9.75124 34.6515 9.48391 34.9175 9.1564 34.9175ZM27.2179 44.0995C26.8903 44.0995 26.623 43.8335 26.623 43.506C26.623 43.1786 26.8903 42.9113 27.2179 42.9113C27.5454 42.9113 27.8127 43.1786 27.8127 43.506C27.8127 43.8335 27.5454 44.0995 27.2179 44.0995ZM22.6532 44.0995C22.3258 44.0995 22.0585 43.8335 22.0585 43.506C22.0588 43.3484 22.1216 43.1974 22.2331 43.0859C22.3445 42.9744 22.4956 42.9117 22.6532 42.9113C22.8108 42.9116 22.9619 42.9744 23.0734 43.0859C23.1849 43.1973 23.2477 43.3484 23.248 43.506C23.248 43.8335 22.9807 44.0995 22.6532 44.0995ZM24.9363 44.0995C24.6087 44.0995 24.3414 43.8335 24.3414 43.506C24.3418 43.3484 24.4046 43.1973 24.516 43.0859C24.6275 42.9744 24.7786 42.9116 24.9363 42.9113C25.2636 42.9113 25.5296 43.1786 25.5296 43.506C25.5295 43.6634 25.467 43.8143 25.3557 43.9255C25.2445 44.0368 25.0936 44.0994 24.9363 44.0995ZM22.0868 19.6509C19.0205 19.5872 16.5333 17.0605 16.5333 13.9826C16.5333 11.8592 17.7154 9.99941 19.453 9.02759C19.5435 4.42111 23.3049 0.715576 27.933 0.715576C30.0125 0.715576 31.916 1.46553 33.3905 2.70626C34.0583 2.52398 34.7475 2.43162 35.4398 2.43164C39.2187 2.43164 42.3662 5.13727 43.0533 8.71552C45.1402 9.55313 46.6253 11.6023 46.6253 13.9826C46.6253 17.1001 44.0737 19.6521 40.9532 19.6521H39.9134V19.7549C39.9134 19.9515 39.8538 20.1434 39.7426 20.3054C39.6314 20.4674 39.4736 20.592 39.2902 20.6626L38.4327 20.9926C38.292 21.4436 38.1105 21.8809 37.8906 22.2991L38.2636 23.141C38.3431 23.3205 38.3664 23.52 38.3304 23.713C38.2945 23.9061 38.2009 24.0837 38.062 24.2226L36.5431 25.7416C36.4043 25.8804 36.2266 25.974 36.0336 26.0099C35.8405 26.0459 35.6411 26.0226 35.4615 25.943L34.621 25.5706C34.2026 25.791 33.7647 25.9724 33.3131 26.1125L32.9831 26.9697C32.9125 27.1531 32.788 27.3108 32.626 27.4221C32.464 27.5334 32.272 27.5929 32.0755 27.5929H29.9269C29.7303 27.5929 29.5384 27.5334 29.3764 27.4221C29.2144 27.3108 29.0898 27.1531 29.0193 26.9697L28.6894 26.1125C28.2376 25.9719 27.7995 25.7904 27.3806 25.57L26.5386 25.943C26.3591 26.0226 26.1597 26.0459 25.9666 26.0099C25.7736 25.974 25.5959 25.8804 25.4571 25.7416L23.9382 24.2226C23.7992 24.0836 23.7055 23.9057 23.6697 23.7124C23.6338 23.519 23.6573 23.3194 23.7372 23.1398L24.1108 22.2997C23.8907 21.8815 23.7092 21.4441 23.5685 20.993L22.71 20.6626C22.5266 20.592 22.3688 20.4674 22.2576 20.3054C22.1463 20.1434 22.0868 19.9515 22.0868 19.7549V19.6509ZM39.9134 17.707H40.9532C43.0034 17.707 44.6802 16.0308 44.6802 13.9826C44.6802 12.2676 43.5063 10.815 41.9253 10.3853C41.7366 10.334 41.5677 10.227 41.4407 10.0783C41.3137 9.92955 41.2345 9.74598 41.2134 9.55155C40.8983 6.64229 38.4332 4.37674 35.4398 4.37674C34.7526 4.37674 34.0913 4.49782 33.4775 4.71616C33.3069 4.7768 33.1228 4.78862 32.9458 4.75029C32.7688 4.71195 32.606 4.62498 32.4758 4.49916C31.3001 3.36285 29.6989 2.66067 27.933 2.66067C24.3226 2.66067 21.3964 5.58683 21.3964 9.1973C21.3964 9.32628 21.401 9.45296 21.4077 9.57963C21.4183 9.78097 21.366 9.98062 21.2582 10.151C21.1503 10.3213 20.9922 10.454 20.8057 10.5305C19.446 11.0884 18.4784 12.4269 18.4784 13.9826C18.4784 15.9912 20.0909 17.6419 22.0868 17.7052V17.6064C22.0868 17.4099 22.1463 17.2179 22.2576 17.0559C22.3688 16.8939 22.5265 16.7693 22.71 16.6987L23.5681 16.3685C23.7089 15.9167 23.8906 15.4787 24.1109 15.0599L23.7372 14.2194C23.6573 14.0398 23.6338 13.8401 23.6697 13.6468C23.7055 13.4535 23.7992 13.2756 23.9382 13.1366L25.4571 11.6176C25.5961 11.4786 25.774 11.385 25.9673 11.3491C26.1606 11.3132 26.3602 11.3368 26.5399 11.4167L27.3804 11.7905C27.7986 11.5703 28.2362 11.389 28.6876 11.2488L29.0196 10.3887C29.0903 10.2054 29.2148 10.0479 29.3768 9.9368C29.5387 9.8257 29.7305 9.76624 29.9269 9.76624H32.0755C32.478 9.76624 32.8389 10.0142 32.9832 10.39L33.3133 11.249C33.7644 11.3892 34.2017 11.5704 34.6197 11.7905L35.4603 11.4167C35.64 11.3368 35.8396 11.3132 36.0329 11.3491C36.2262 11.385 36.4041 11.4786 36.5431 11.6176L38.062 13.1366C38.2009 13.2755 38.2944 13.4531 38.3304 13.6461C38.3664 13.8391 38.3431 14.0385 38.2636 14.2181L37.891 15.0592C38.1116 15.4782 38.2932 15.9167 38.4333 16.369L39.2902 16.6987C39.4736 16.7693 39.6314 16.8939 39.7426 17.0559C39.8539 17.2179 39.9134 17.4099 39.9134 17.6064V17.707ZM31.674 12.4054L31.4072 11.7113H30.5941L30.3258 12.4066C30.2689 12.5539 30.1771 12.6852 30.0582 12.789C29.9393 12.8929 29.7969 12.9663 29.6433 13.0028C29.0431 13.1453 28.4696 13.383 27.9445 13.7066C27.8099 13.7896 27.6571 13.8385 27.4993 13.8491C27.3416 13.8597 27.1836 13.8316 27.0391 13.7674L26.3601 13.4655L25.7859 14.0396L26.0879 14.7187C26.1521 14.8632 26.1802 15.0211 26.1696 15.1789C26.159 15.3366 26.1101 15.4894 26.0272 15.624C25.7029 16.1507 25.4644 16.7255 25.3205 17.3271C25.2837 17.4804 25.2102 17.6224 25.1064 17.741C25.0025 17.8596 24.8714 17.9511 24.7242 18.0077L24.0319 18.2742V19.0872L24.7242 19.3536C24.8712 19.4102 25.0023 19.5017 25.1062 19.6201C25.21 19.7385 25.2835 19.8804 25.3204 20.0336C25.4641 20.6342 25.7024 21.2081 26.0264 21.7338C26.1097 21.8685 26.1588 22.0215 26.1695 22.1795C26.1802 22.3375 26.1522 22.4958 26.0879 22.6405L25.7859 23.3196L26.3608 23.8945L27.0405 23.5933C27.1845 23.5296 27.3417 23.5018 27.4988 23.5122C27.6559 23.5227 27.8082 23.5711 27.9424 23.6534C28.469 23.9771 29.0436 24.2151 29.6448 24.3585C29.7987 24.3949 29.9414 24.4684 30.0604 24.5724C30.1795 24.6764 30.2714 24.8079 30.3282 24.9555L30.5947 25.6478H31.4077L31.6741 24.9555C31.7308 24.808 31.8227 24.6766 31.9417 24.5726C32.0606 24.4686 32.2032 24.3951 32.3569 24.3586C32.9567 24.2166 33.5298 23.9791 34.0544 23.6555C34.1889 23.5723 34.3416 23.5232 34.4994 23.5123C34.6571 23.5015 34.8151 23.5293 34.9597 23.5933L35.6394 23.8945L36.215 23.319L35.9139 22.6393C35.8501 22.4953 35.8223 22.338 35.8327 22.1809C35.8432 22.0237 35.8916 21.8715 35.9738 21.7372C36.2974 21.2111 36.5354 20.637 36.6792 20.0364C36.7157 19.8826 36.7891 19.7401 36.8931 19.6212C36.9971 19.5022 37.1285 19.4104 37.276 19.3536L37.9683 19.0872V18.2742L37.276 18.0077C37.1284 17.9509 36.9969 17.859 36.8929 17.7399C36.7888 17.6208 36.7154 17.4782 36.6789 17.3243C36.5367 16.7236 36.2991 16.1495 35.9752 15.624C35.8923 15.4896 35.8435 15.3371 35.8328 15.1795C35.8221 15.022 35.85 14.8643 35.9139 14.7199L36.2149 14.0402L35.6401 13.4655L34.961 13.7674C34.8166 13.8316 34.6586 13.8597 34.5009 13.8491C34.3431 13.8385 34.1903 13.7896 34.0557 13.7066C33.5306 13.383 32.9571 13.1453 32.3569 13.0028C32.2031 12.9662 32.0605 12.8927 31.9415 12.7886C31.8225 12.6845 31.7307 12.553 31.674 12.4054ZM31.0001 13.9595C33.608 13.9595 35.7223 16.0718 35.7223 18.6795C35.7223 21.2873 33.6079 23.4019 31.0001 23.4019C28.3922 23.4019 26.2801 21.2874 26.2801 18.6795C26.2801 16.0715 28.3921 13.9595 31.0001 13.9595ZM31.0001 15.9046C29.4669 15.9046 28.2252 17.1463 28.2252 18.6795C28.2252 20.213 29.4666 21.4568 31.0001 21.4568C32.5337 21.4568 33.7772 20.2131 33.7772 18.6795C33.7772 17.1462 32.5336 15.9046 31.0001 15.9046ZM28.7572 31.4727L30.1579 29.0467C30.2431 28.8987 30.3659 28.7759 30.5137 28.6905C30.6616 28.6051 30.8294 28.5603 31.0001 28.5604C31.1708 28.5603 31.3386 28.6051 31.4865 28.6905C31.6343 28.7759 31.7571 28.8987 31.8423 29.0467L33.243 31.4727C33.3719 31.6961 33.4068 31.9615 33.3401 32.2107C33.2733 32.4598 33.1104 32.6722 32.8871 32.8013C32.7489 32.8811 32.5932 32.9256 32.4337 32.931C32.2743 32.9364 32.1159 32.9025 31.9726 32.8322V38.8703C31.9726 39.407 31.5368 39.8428 31.0001 39.8428C30.4634 39.8428 30.0275 39.407 30.0275 38.8703V32.8322C29.8843 32.9025 29.7259 32.9364 29.5665 32.931C29.407 32.9256 29.2513 32.8811 29.1131 32.8013C28.8898 32.6722 28.7269 32.4598 28.6601 32.2107C28.5934 31.9615 28.6283 31.6961 28.7572 31.4727ZM40.5835 22.0826C40.6687 21.9371 40.7903 21.8163 40.9364 21.732L43.3624 20.3313C43.5858 20.2024 43.8512 20.1675 44.1003 20.2343C44.3495 20.301 44.5619 20.4639 44.6909 20.6872C44.7707 20.8254 44.8153 20.9811 44.8207 21.1406C44.8262 21.3001 44.7922 21.4584 44.7219 21.6017H48.4823C48.7402 21.6017 48.9876 21.7041 49.17 21.8865C49.3524 22.0689 49.4548 22.3163 49.4548 22.5742V28.8591C49.4548 29.3958 49.0191 29.8316 48.4823 29.8316C47.9455 29.8316 47.5097 29.3958 47.5097 28.8591V23.5468H44.7219C44.7922 23.69 44.8262 23.8484 44.8207 24.0079C44.8153 24.1674 44.7707 24.323 44.6909 24.4612C44.5619 24.6845 44.3495 24.8474 44.1003 24.9142C43.8512 24.9809 43.5858 24.946 43.3624 24.8172L40.9364 23.4165C40.7885 23.3312 40.6656 23.2085 40.5802 23.0606C40.4949 22.9127 40.45 22.745 40.4501 22.5742C40.4501 22.3949 40.4987 22.2269 40.5835 22.0826ZM16.5858 21.6017C16.5155 21.4584 16.4815 21.3001 16.4869 21.1406C16.4923 20.9811 16.5369 20.8254 16.6167 20.6872C16.7457 20.4639 16.9582 20.301 17.2073 20.2343C17.4564 20.1675 17.7218 20.2024 17.9452 20.3313L20.3714 21.732C20.5174 21.8163 20.6389 21.9371 20.7241 22.0826C20.809 22.2269 20.8576 22.3949 20.8576 22.5742C20.8576 22.7535 20.809 22.9215 20.7241 23.0658C20.639 23.2114 20.5174 23.3322 20.3714 23.4165L17.9452 24.8172C17.7218 24.946 17.4564 24.9809 17.2073 24.9142C16.9582 24.8474 16.7457 24.6845 16.6167 24.4612C16.5369 24.323 16.4923 24.1673 16.4869 24.0079C16.4815 23.8484 16.5155 23.69 16.5858 23.5468H13.7979V28.8591C13.7979 29.3958 13.3622 29.8316 12.8253 29.8316C12.2886 29.8316 11.8528 29.3958 11.8528 28.8591V22.5742C11.8528 22.3163 11.9553 22.0689 12.1376 21.8865C12.32 21.7041 12.5674 21.6017 12.8253 21.6017H16.5858Z" fill="white"/>
<path fill-rule="evenodd" clip-rule="evenodd" d="M0.851074 50.1124V33.5247C0.851074 32.4299 1.74728 31.5337 2.84213 31.5337H24.1949C25.2901 31.5337 26.1848 32.4295 26.1848 33.5247V40.7158H35.8154V33.5247C35.8154 32.4299 36.7118 31.5337 37.8066 31.5337H59.1594C60.2546 31.5337 61.1491 32.4295 61.1491 33.5247V50.1124C61.1491 51.2054 60.2549 52.1023 59.1594 52.1023H44.2461V59.2946C44.2461 60.3875 43.352 61.2843 42.2564 61.2843H20.9036C19.8084 61.2843 18.9125 60.3872 18.9125 59.2946V52.1023H2.84213C1.74691 52.1023 0.851074 51.2051 0.851074 50.1124ZM24.2397 35.168V33.5247C24.2398 33.5127 24.2352 33.5011 24.2268 33.4925C24.2184 33.4839 24.2069 33.479 24.1949 33.4788H2.84213C2.82995 33.4788 2.81828 33.4837 2.80967 33.4923C2.80106 33.5009 2.7962 33.5126 2.79617 33.5247V35.168H24.2397ZM24.2397 40.7158V37.1131H2.79617V50.1124C2.79617 50.1373 2.8172 50.1572 2.84213 50.1572H18.9125V42.7068C18.9125 41.6121 19.8087 40.7158 20.9036 40.7158H24.2397ZM42.2564 42.6609H20.9036C20.8914 42.6609 20.8797 42.6658 20.8711 42.6744C20.8625 42.683 20.8577 42.6946 20.8576 42.7068V44.3501H42.301V42.7068C42.3011 42.6948 42.2965 42.6833 42.2882 42.6747C42.2798 42.666 42.2684 42.6611 42.2564 42.6609ZM37.7605 37.1131V40.7158H42.2564C43.3516 40.7158 44.2461 41.6117 44.2461 42.7068V50.1572H59.1594C59.1712 50.1571 59.1826 50.1524 59.1909 50.144C59.1993 50.1356 59.204 50.1243 59.204 50.1124V37.1131H37.7605ZM59.204 35.168V33.5247C59.2041 33.5127 59.1995 33.5012 59.1912 33.4926C59.1828 33.484 59.1714 33.479 59.1594 33.4788H37.8066C37.7944 33.4788 37.7827 33.4837 37.7741 33.4923C37.7655 33.5009 37.7606 33.5126 37.7605 33.5247V35.168H59.204ZM20.8576 46.2952V59.2946C20.8576 59.3194 20.8787 59.3392 20.9036 59.3392H42.2564C42.2682 59.3392 42.2795 59.3344 42.2879 59.3261C42.2962 59.3177 42.3009 59.3064 42.301 59.2946V46.2952H20.8576ZM41.8392 34.9176C41.5118 34.9176 41.2444 34.6516 41.2444 34.3241C41.2444 33.9965 41.5118 33.7292 41.8392 33.7292C42.1667 33.7292 42.4327 33.9965 42.4327 34.3241C42.4327 34.6516 42.1667 34.9176 41.8392 34.9176ZM44.1209 34.9176C43.7934 34.9176 43.526 34.6516 43.526 34.3241C43.526 33.9965 43.7934 33.7292 44.1209 33.7292C44.4483 33.7292 44.7156 33.9965 44.7156 34.3241C44.7156 34.6516 44.4483 34.9176 44.1209 34.9176ZM39.5562 34.9176C39.2287 34.9176 38.9614 34.6516 38.9614 34.3241C38.9614 33.9965 39.2287 33.7292 39.5562 33.7292C39.8837 33.7292 40.1511 33.9965 40.1511 34.3241C40.1511 34.6516 39.8837 34.9176 39.5562 34.9176ZM6.8748 34.9176C6.54729 34.9176 6.27996 34.6516 6.27996 34.3241C6.27996 33.9965 6.54729 33.7292 6.8748 33.7292C7.20231 33.7292 7.4683 33.9965 7.4683 34.3241C7.4683 34.6516 7.20231 34.9176 6.8748 34.9176ZM4.59186 34.9176C4.26436 34.9176 3.99703 34.6516 3.99703 34.3241C3.99703 33.9965 4.26436 33.7292 4.59186 33.7292C4.91925 33.7292 5.18658 33.9965 5.18658 34.3241C5.18658 34.6516 4.91925 34.9176 4.59186 34.9176ZM9.1564 34.9176C8.82902 34.9176 8.56169 34.6516 8.56169 34.3241C8.56169 33.9965 8.82902 33.7292 9.1564 33.7292C9.48391 33.7292 9.75124 33.9965 9.75124 34.3241C9.75124 34.6516 9.48391 34.9176 9.1564 34.9176ZM27.2179 44.0996C26.8903 44.0996 26.623 43.8336 26.623 43.5061C26.623 43.1787 26.8903 42.9114 27.2179 42.9114C27.5454 42.9114 27.8127 43.1787 27.8127 43.5061C27.8127 43.8336 27.5454 44.0996 27.2179 44.0996ZM22.6532 44.0996C22.3258 44.0996 22.0585 43.8336 22.0585 43.5061C22.0588 43.3485 22.1216 43.1975 22.2331 43.086C22.3445 42.9745 22.4956 42.9118 22.6532 42.9114C22.8108 42.9117 22.9619 42.9745 23.0734 43.086C23.1849 43.1974 23.2477 43.3485 23.248 43.5061C23.248 43.8336 22.9807 44.0996 22.6532 44.0996ZM24.9363 44.0996C24.6087 44.0996 24.3414 43.8336 24.3414 43.5061C24.3418 43.3485 24.4046 43.1974 24.516 43.086C24.6275 42.9745 24.7786 42.9117 24.9363 42.9114C25.2636 42.9114 25.5296 43.1787 25.5296 43.5061C25.5295 43.6635 25.467 43.8144 25.3557 43.9256C25.2445 44.0369 25.0936 44.0995 24.9363 44.0996Z" fill="#00EAFF"/>
</g>
<defs>
<clipPath id="clip0_824_177">
<rect width="62" height="62" fill="white"/>
</clipPath>
</defs>
</svg>
