<svg width="62" height="62" viewBox="0 0 62 62" fill="none" xmlns="http://www.w3.org/2000/svg">
<path d="M51.7029 0H10.0466C8.04338 0 6.41382 1.62956 6.41382 3.63281V58.3672C6.41382 60.3704 8.04338 62 10.0466 62H51.7029C53.7061 62 55.3357 60.3704 55.3357 58.3672V3.63281C55.3357 1.62956 53.7061 0 51.7029 0ZM39.0334 31.4769L31.5763 24.0196L37.657 17.9394L51.1949 31.4767L39.0334 31.4769ZM35.6083 31.4769H16.7419L26.1752 22.0438L35.6083 31.4769ZM10.0466 2.42188H51.7029C52.3708 2.42188 52.9138 2.96486 52.9138 3.63281V8.22687H36.1423C35.4735 8.22687 34.9314 8.76888 34.9314 9.43781C34.9314 10.1067 35.4735 10.6487 36.1423 10.6487H52.9138V29.7707L38.5131 15.3704C38.0406 14.8973 37.2738 14.8973 36.8008 15.3704L29.8639 22.3073L27.0315 19.4749C26.5584 19.0018 25.7916 19.0018 25.3186 19.4749L13.3166 31.4769H8.83569V10.6487H25.5698C26.2387 10.6487 26.7807 10.1066 26.7807 9.43781C26.7807 8.769 26.2387 8.22687 25.5698 8.22687H8.83569V3.63281C8.83569 2.96486 9.37868 2.42188 10.0466 2.42188ZM51.7029 59.5781H10.0466C9.37868 59.5781 8.83569 59.0351 8.83569 58.3672V33.8986H52.9138V58.3672C52.9138 59.0351 52.3708 59.5781 51.7029 59.5781Z" fill="#00EAFF"/>
<path d="M40.1503 46.977H46.6894C47.3582 46.977 47.9003 46.4348 47.9003 45.766V39.227C47.9003 38.558 47.3582 38.016 46.6894 38.016H40.1503C39.4814 38.016 38.9394 38.558 38.9394 39.227V45.766C38.9394 46.4348 39.4814 46.977 40.1503 46.977ZM41.3612 40.4379H45.4784V44.5551H41.3612V40.4379ZM27.5243 46.977H34.0634C34.7322 46.977 35.2743 46.4348 35.2743 45.766V39.227C35.2743 38.558 34.7322 38.016 34.0634 38.016H27.5243C26.8555 38.016 26.3134 38.558 26.3134 39.227V45.766C26.3134 46.4348 26.8559 46.977 27.5243 46.977ZM28.7353 40.4379H32.8525V44.5551H28.7353V40.4379ZM21.5992 38.016H15.0602C14.3914 38.016 13.8492 38.558 13.8492 39.227V45.766C13.8492 46.4348 14.3914 46.977 15.0602 46.977H21.5992C22.2681 46.977 22.8102 46.4348 22.8102 45.766V39.227C22.8102 38.558 22.2681 38.016 21.5992 38.016ZM20.3883 44.5551H16.2711V40.4379H20.3883V44.5551ZM21.5992 49.8832H15.0602C14.3914 49.8832 13.8492 50.4252 13.8492 51.0941C13.8492 51.7631 14.3914 52.3051 15.0602 52.3051H21.5992C22.2681 52.3051 22.8102 51.7629 22.8102 51.0941C22.8102 50.4253 22.2681 49.8832 21.5992 49.8832ZM21.5992 54.727H15.0602C14.3914 54.727 13.8492 55.269 13.8492 55.9379C13.8492 56.6068 14.3914 57.1488 15.0602 57.1488H21.5992C22.2681 57.1488 22.8102 56.6067 22.8102 55.9379C22.8102 55.2691 22.2681 54.727 21.5992 54.727ZM34.1599 49.8832H27.6208C26.9519 49.8832 26.4099 50.4252 26.4099 51.0941C26.4099 51.7631 26.9519 52.3051 27.6208 52.3051H34.1599C34.8283 52.3051 35.3708 51.7629 35.3708 51.0941C35.3708 50.4253 34.8283 49.8832 34.1599 49.8832ZM34.1599 54.727H27.6208C26.9519 54.727 26.4099 55.269 26.4099 55.9379C26.4099 56.6068 26.9519 57.1488 27.6208 57.1488H34.1599C34.8283 57.1488 35.3708 56.6067 35.3708 55.9379C35.3708 55.2691 34.8283 54.727 34.1599 54.727ZM46.7201 49.8832H40.1811C39.5121 49.8832 38.9701 50.4252 38.9701 51.0941C38.9701 51.7631 39.5121 52.3051 40.1811 52.3051H46.7201C47.3889 52.3051 47.9311 51.7629 47.9311 51.0941C47.9311 50.4253 47.3889 49.8832 46.7201 49.8832ZM46.7201 54.727H40.1811C39.5121 54.727 38.9701 55.269 38.9701 55.9379C38.9701 56.6068 39.5121 57.1488 40.1811 57.1488H46.7201C47.3889 57.1488 47.9311 56.6067 47.9311 55.9379C47.9311 55.2691 47.3889 54.727 46.7201 54.727ZM15.3748 13.5551C13.1047 13.5551 11.2576 15.4021 11.2576 17.6723C11.2576 19.9428 13.1047 21.7895 15.3748 21.7895C17.6448 21.7895 19.4919 19.9428 19.4919 17.6723C19.4919 15.4021 17.6448 13.5551 15.3748 13.5551ZM15.3748 19.3676C14.44 19.3676 13.6794 18.6069 13.6794 17.6723C13.6794 16.7377 14.44 15.977 15.3748 15.977C16.3095 15.977 17.0701 16.7374 17.0701 17.6723C17.0701 18.6071 16.3095 19.3676 15.3748 19.3676ZM13.6392 6.5354H17.1108C17.7792 6.5354 18.3217 5.99326 18.3217 5.32446C18.3217 4.65566 17.7792 4.11353 17.1108 4.11353H13.6392C12.9704 4.11353 12.4283 4.65554 12.4283 5.32446C12.4283 5.99338 12.9704 6.5354 13.6392 6.5354ZM28.8346 6.5354H30.8932C31.5621 6.5354 32.1041 5.99326 32.1041 5.32446C32.1041 4.65566 31.5621 4.11353 30.8932 4.11353H28.8346C28.1658 4.11353 27.6236 4.65554 27.6236 5.32446C27.6236 5.99338 28.1658 6.5354 28.8346 6.5354ZM37.3622 6.5354H39.4208C40.0897 6.5354 40.6318 5.99326 40.6318 5.32446C40.6318 4.65566 40.0897 4.11353 39.4208 4.11353H37.3622C36.6938 4.11353 36.1513 4.65554 36.1513 5.32446C36.1513 5.99338 36.6938 6.5354 37.3622 6.5354ZM45.8904 6.5354H47.949C48.6178 6.5354 49.1599 5.99326 49.1599 5.32446C49.1599 4.65566 48.6178 4.11353 47.949 4.11353H45.8904C45.2216 4.11353 44.6794 4.65554 44.6794 5.32446C44.6794 5.99338 45.2216 6.5354 45.8904 6.5354ZM30.8927 8.22732C30.5716 8.22788 30.2639 8.35543 30.0365 8.58213C29.8103 8.80971 29.6828 9.11732 29.6817 9.43826C29.6817 9.75674 29.8113 10.0688 30.0365 10.2944C30.2642 10.5205 30.5718 10.648 30.8927 10.6492C31.2115 10.6492 31.5237 10.5196 31.7488 10.2944C31.9749 10.0667 32.1024 9.75916 32.1036 9.43826C32.1036 9.11954 31.974 8.80736 31.7488 8.58213C31.5216 8.35527 31.2138 8.2277 30.8927 8.22732Z" fill="white"/>
</svg>
