<svg width="62" height="62" viewBox="0 0 62 62" fill="none" xmlns="http://www.w3.org/2000/svg">
<path d="M56.9349 32.1613C56.2661 32.1613 55.724 32.7033 55.724 33.3722V58.1529C55.724 58.9386 55.0846 59.5781 54.2987 59.5781H6.84715C6.06137 59.5781 5.42188 58.9391 5.42188 58.1529V15.9735C5.42188 15.1878 6.06137 14.5482 6.84715 14.5482H9.78488V23.4922C9.78488 24.161 10.3274 24.7031 10.9958 24.7031C11.6647 24.7031 12.2068 24.161 12.2068 23.4922V14.5482H23.0652V22.7656C23.0652 23.4344 23.6074 23.9766 24.2762 23.9766H36.8699C37.5388 23.9766 38.0809 23.4344 38.0809 22.7656V14.5482H54.299C55.0846 14.5482 55.7242 15.1878 55.7242 15.9735V23.5329C55.7242 24.2013 56.2662 24.7438 56.9352 24.7438C57.604 24.7438 58.1461 24.2013 58.1461 23.5329V15.9735C58.1466 15.3036 57.9709 14.6453 57.6365 14.0648C57.6158 14.0207 57.5924 13.9779 57.5665 13.9367L49.8288 1.78129C49.1188 0.666016 47.9054 0 46.5835 0H14.4834C13.1538 0 11.9372 0.671707 11.2286 1.79655L3.57617 13.9414C3.55061 13.9821 3.52833 14.0237 3.50847 14.0658C3.17474 14.6461 2.99939 15.304 3 15.9735V58.1529C3 60.2739 4.72607 62 6.84715 62H54.2988C56.4199 62 58.146 60.2739 58.146 58.1529V33.3722C58.146 32.7033 57.6037 32.1613 56.9349 32.1613ZM35.659 21.5547H25.4871V14.5482H35.659V21.5547ZM47.7858 3.08184L53.5434 12.1263H37.8929L36.1924 2.42188H46.5835C46.8233 2.42121 47.0594 2.4814 47.2697 2.59682C47.48 2.71224 47.6576 2.87912 47.7858 3.08184ZM33.7336 2.42188L35.4279 12.0924H25.7177L27.4123 2.42188H33.7336ZM13.2772 3.08741C13.4052 2.88311 13.5831 2.71479 13.7942 2.59835C14.0052 2.4819 14.2425 2.42116 14.4836 2.42188H24.9535L23.2529 12.1263H7.58219L13.2772 3.08741Z" fill="#00EAFF"/>
<path d="M56.9349 27.3503C56.614 27.3515 56.3064 27.4789 56.0788 27.7051C55.8535 27.9301 55.724 28.2428 55.724 28.5613C55.724 28.8798 55.8535 29.1922 56.0788 29.4174C56.3064 29.6436 56.614 29.7711 56.9349 29.7722C57.2534 29.7722 57.5659 29.6426 57.791 29.4174C58.0163 29.1922 58.1459 28.8795 58.1459 28.5613C58.1459 28.243 58.0163 27.9301 57.791 27.7051C57.5634 27.4789 57.2558 27.3515 56.9349 27.3503ZM17.2734 40.6876C17.2734 48.0416 23.2567 54.0249 30.6107 54.0249C37.9653 54.0249 43.9481 48.0416 43.9481 40.6876C43.9481 33.3336 37.9653 27.3503 30.6108 27.3503C23.2563 27.3503 17.2734 33.3336 17.2734 40.6876ZM41.5262 40.6876C41.5262 46.7063 36.6295 51.603 30.6108 51.603C24.5921 51.603 19.6954 46.7063 19.6954 40.6876C19.6954 34.6689 24.5921 29.7722 30.6108 29.7722C36.63 29.7722 41.5262 34.6689 41.5262 40.6876Z" fill="white"/>
<path d="M29.4586 34.5589L26.7378 41.5908H26.1834C25.5146 41.5908 24.9725 42.133 24.9725 42.8017C24.9725 43.3443 25.3297 43.8041 25.8221 43.9579L25.0543 45.9418C24.8126 46.5657 25.1229 47.2667 25.7464 47.5084C26.3703 47.7496 27.0713 47.4399 27.3125 46.8159L28.3971 44.0128H32.7783L33.8629 46.8159C33.9512 47.0439 34.1064 47.2398 34.3081 47.3781C34.5097 47.5163 34.7485 47.5902 34.993 47.5903C35.1383 47.5903 35.2858 47.5637 35.4297 47.5084C36.053 47.2672 36.3633 46.5657 36.1216 45.9418L35.3539 43.9579C35.8463 43.8041 36.2034 43.3448 36.2034 42.8018C36.2034 42.1329 35.6614 41.5909 34.9925 41.5909H34.4381L31.7173 34.559C31.629 34.3312 31.4739 34.1355 31.2724 33.9974C31.0708 33.8594 30.8322 33.7855 30.588 33.7855C30.3437 33.7855 30.1051 33.8594 29.9036 33.9974C29.702 34.1355 29.5469 34.3311 29.4586 34.5589ZM31.8413 41.5908H29.3346L30.5877 38.3515L31.8413 41.5908ZM10.1393 26.9869C9.91285 27.2144 9.78523 27.522 9.78418 27.843C9.78418 28.1614 9.91375 28.4739 10.1395 28.6992C10.3669 28.9254 10.6743 29.0528 10.9951 29.054C11.3149 29.054 11.6261 28.9244 11.8527 28.6992C12.0785 28.4714 12.2055 28.1638 12.2061 27.843C12.2061 27.5245 12.0779 27.212 11.8527 26.9869C11.6245 26.7606 11.3165 26.6332 10.9951 26.6321C10.6768 26.6321 10.3641 26.7617 10.1393 26.9869Z" fill="white"/>
</svg>
