<svg width="32" height="32" viewBox="0 0 32 32" fill="none" xmlns="http://www.w3.org/2000/svg">
<path d="M26.4631 23.8707L21.8091 19.2167C22.7707 17.7675 23.3335 16.0322 23.3335 14.1668C23.3335 9.11221 19.2213 5 14.1668 5C9.11221 5 5 9.11221 5 14.1668C5 19.2213 9.11221 23.3335 14.1668 23.3335C16.0322 23.3335 17.7675 22.7707 19.2167 21.8091L23.8707 26.4631C24.5857 27.179 25.748 27.179 26.4631 26.4631C27.179 25.7471 27.179 24.5866 26.4631 23.8707ZM7.75003 14.1668C7.75003 10.6284 10.6284 7.75003 14.1668 7.75003C17.7051 7.75003 20.5835 10.6284 20.5835 14.1668C20.5835 17.7051 17.7051 20.5835 14.1668 20.5835C10.6284 20.5835 7.75003 17.7051 7.75003 14.1668Z" fill="#00EAFF"/>
</svg>
