<svg width="62" height="62" viewBox="0 0 62 62" fill="none" xmlns="http://www.w3.org/2000/svg">
<path d="M57.1527 0.939453H4.84721C2.79933 0.939453 1.146 2.60218 1.146 4.64067V57.3595C1.146 59.3979 2.80872 61.0607 4.84721 61.0607H57.1621C59.2005 61.0607 60.8633 59.3979 60.8633 57.3595V4.64067C60.8593 3.65864 60.4668 2.71811 59.7715 2.02458C59.0762 1.33106 58.1347 0.940935 57.1527 0.939453ZM4.84721 2.75248H57.1621C58.2048 2.75248 59.0502 3.59794 59.0502 4.64067V8.50157H2.94963V4.64067C2.94963 3.59794 3.80448 2.75248 4.84721 2.75248ZM57.1527 59.2476H4.84721C3.80448 59.2476 2.95903 58.4022 2.95903 57.3595V10.3146H59.0502V57.3595C59.0502 58.4022 58.1954 59.2476 57.1527 59.2476Z" fill="#00EAFF"/>
<path d="M51.103 7.02678H53.1979C53.437 7.02678 53.6664 6.93177 53.8355 6.76264C54.0047 6.59352 54.0997 6.36414 54.0997 6.12496C54.0997 5.88579 54.0047 5.6564 53.8355 5.48728C53.6664 5.31816 53.437 5.22314 53.1979 5.22314H51.103C50.8638 5.22314 50.6345 5.31816 50.4653 5.48728C50.2962 5.6564 50.2012 5.88579 50.2012 6.12496C50.2012 6.36414 50.2962 6.59352 50.4653 6.76264C50.6345 6.93177 50.8638 7.02678 51.103 7.02678ZM45.57 7.02678H47.6648C47.904 7.02678 48.1334 6.93177 48.3025 6.76264C48.4716 6.59352 48.5667 6.36414 48.5667 6.12496C48.5667 5.88579 48.4716 5.6564 48.3025 5.48728C48.1334 5.31816 47.904 5.22314 47.6648 5.22314H45.57C45.3308 5.22314 45.1014 5.31816 44.9323 5.48728C44.7632 5.6564 44.6682 5.88579 44.6682 6.12496C44.6682 6.36414 44.7632 6.59352 44.9323 6.76264C45.1014 6.93177 45.3308 7.02678 45.57 7.02678ZM40.0464 7.02678H42.1412C42.3804 7.02678 42.6098 6.93177 42.7789 6.76264C42.948 6.59352 43.043 6.36414 43.043 6.12496C43.043 5.88579 42.948 5.6564 42.7789 5.48728C42.6098 5.31816 42.3804 5.22314 42.1412 5.22314H40.0464C39.8072 5.22314 39.5778 5.31816 39.4087 5.48728C39.2395 5.6564 39.1445 5.88579 39.1445 6.12496C39.1445 6.36414 39.2395 6.59352 39.4087 6.76264C39.5778 6.93177 39.8072 7.02678 40.0464 7.02678Z" fill="white"/>
<path fill-rule="evenodd" clip-rule="evenodd" d="M10.6142 40.7196H20.9006C21.1398 40.7196 21.3691 40.8146 21.5383 40.9837C21.7074 41.1528 21.8024 41.3822 21.8024 41.6214V51.222C21.8024 51.7199 21.3985 52.1238 20.9006 52.1238H10.6142C10.1163 52.1238 9.7124 51.7199 9.7124 51.222V41.6214C9.7124 41.3822 9.80742 41.1528 9.97654 40.9837C10.1457 40.8146 10.375 40.7196 10.6142 40.7196ZM11.5254 50.3202H19.9988V42.5326H11.5254V50.3202ZM25.8606 40.7196H36.1376C36.6448 40.7196 37.0488 41.1235 37.0488 41.6214V51.222C37.0488 51.7199 36.6448 52.1238 36.1469 52.1238H25.8606C25.3627 52.1238 24.9588 51.7199 24.9588 51.222V41.6214C24.9588 41.3822 25.0538 41.1528 25.2229 40.9837C25.392 40.8146 25.6214 40.7196 25.8606 40.7196ZM26.7624 50.3202H35.2357V42.5326H26.7624V50.3202ZM41.0976 40.7196H51.3839C51.6231 40.7196 51.8525 40.8146 52.0216 40.9837C52.1907 41.1528 52.2857 41.3822 52.2857 41.6214V51.222C52.2857 51.7199 51.8818 52.1238 51.3839 52.1238H41.0976C40.5997 52.1238 40.1957 51.7199 40.1957 51.222V41.6214C40.1957 41.3822 40.2907 41.1528 40.4599 40.9837C40.629 40.8146 40.8584 40.7196 41.0976 40.7196ZM42.0088 50.3202H50.4821V42.5326H42.0088V50.3202Z" fill="white"/>
<rect x="8" y="15" width="22" height="21" rx="1" stroke="#00EAFF" stroke-width="1.5"/>
<rect x="33" y="15" width="22" height="21" rx="1" stroke="#00EAFF" stroke-width="1.5"/>
<path d="M40 29.1702V21.5584C40 20.8297 40.7543 20.3457 41.4167 20.6493L48.3365 23.8209C49.0554 24.1504 49.1254 25.1445 48.4599 25.5716L41.54 30.0118C40.8745 30.4389 40 29.961 40 29.1702Z" stroke="#00EAFF" stroke-width="1.5" stroke-linecap="round"/>
<path d="M11 24.3129C13.5 21.8129 20.1 18.3129 26.5 24.3129" stroke="#00EAFF" stroke-width="1.5" stroke-linecap="round"/>
<path d="M14 27.4295C15.5 25.5961 19.5 23.0295 23.5 27.4295" stroke="#00EAFF" stroke-width="1.5" stroke-linecap="round"/>
<circle cx="19" cy="30" r="2" fill="#00EAFF"/>
<path d="M12 55H19" stroke="white" stroke-width="1.5" stroke-linecap="round"/>
<path d="M27 55H35" stroke="white" stroke-width="1.5" stroke-linecap="round"/>
<path d="M43 55H50" stroke="white" stroke-width="1.5" stroke-linecap="round"/>
</svg>
