<svg id="Слой_1" data-name="Слой 1" xmlns="http://www.w3.org/2000/svg" viewBox="0 0 138.29 83.45"><defs><style>.cls-1{fill:#204693;}.cls-2{fill:#224793;}</style></defs><path class="cls-1" d="M71.24,55.69a6.26,6.26,0,0,0-2.49-2.29,7.64,7.64,0,0,0-3.63-.81l-7.39,0V71.44h4.33v-6h3.19a7.54,7.54,0,0,0,3.58-.83,6.08,6.08,0,0,0,2.43-2.28,6.37,6.37,0,0,0,.88-3.33A6.21,6.21,0,0,0,71.24,55.69ZM67,60.83a2.51,2.51,0,0,1-1.85.69H62.06v-5h3a2.88,2.88,0,0,1,1.41.33,2.26,2.26,0,0,1,.94.87A2.6,2.6,0,0,1,67,60.83Z"/><path class="cls-1" d="M85.38,64.37l.08,0A6.19,6.19,0,0,0,88,62.11a5.87,5.87,0,0,0,.91-3.25,6,6,0,0,0-.9-3.25,6.22,6.22,0,0,0-2.49-2.24,7.82,7.82,0,0,0-3.63-.78l-7.39,0V71.44h4.33V65.12H81.1l3.6,6.32h4.94ZM84,60a2.26,2.26,0,0,1-.93.82,3,3,0,0,1-1.34.29H78.81V56.57h2.85a2.9,2.9,0,0,1,2,.64,2.13,2.13,0,0,1,.74,1.65A2.08,2.08,0,0,1,84,60Z"/><path class="cls-1" d="M109.22,57a9.11,9.11,0,0,0-3.49-3.45,11,11,0,0,0-10.21,0A9.15,9.15,0,0,0,92,57a10.64,10.64,0,0,0,0,10.08,9.08,9.08,0,0,0,3.49,3.44,10.37,10.37,0,0,0,5.15,1.26,10.15,10.15,0,0,0,5.1-1.26,9.14,9.14,0,0,0,3.46-3.44,10.13,10.13,0,0,0,1.25-5A10,10,0,0,0,109.22,57Zm-3.85,8a4.94,4.94,0,0,1-1.89,2,5.33,5.33,0,0,1-2.8.73,5.57,5.57,0,0,1-2.83-.73,5,5,0,0,1-1.93-2,6.25,6.25,0,0,1-.71-3,6.15,6.15,0,0,1,.71-3,5.24,5.24,0,0,1,1.91-2,5.67,5.67,0,0,1,5.6,0,5.24,5.24,0,0,1,1.91,2,6.22,6.22,0,0,1,.7,3A6.43,6.43,0,0,1,105.37,65Z"/><polygon class="cls-1" points="132.64 52.62 132.64 71.44 128.32 71.44 128.32 59.35 122.89 67.3 117.43 59.38 117.43 71.44 113.1 71.44 113.1 52.62 117.86 52.62 122.86 60.05 127.89 52.62 132.64 52.62"/><path class="cls-2" d="M22.55,12V28.08l7.68,9.11V12Z"/><path class="cls-2" d="M53.87,45.07V33.77a36.8,36.8,0,0,0-23.33,7.84L5.64,12.05V49.74h7.68V32.83L25.24,46.55a35.81,35.81,0,0,0-9.73,24.91H53.87V52.62h-14l-4.39-5.21a28.79,28.79,0,0,1,10.77-5.2v2.87h7.67ZM37.06,60.15h9.15v3.77H24.11a28.67,28.67,0,0,1,6.15-11.59Z"/></svg>