<svg width="32" height="32" viewBox="0 0 32 32" fill="none" xmlns="http://www.w3.org/2000/svg">
<path d="M25.4251 23.4937H6.57373C5.89143 23.4931 5.23725 23.2091 4.75474 22.7041C4.27222 22.1991 4.00079 21.5143 4 20.8V7.69438C4.00079 6.98004 4.2722 6.29519 4.7547 5.79008C5.2372 5.28496 5.89138 5.00083 6.57373 5H25.4251C26.1074 5.00083 26.7615 5.28498 27.2439 5.79012C27.7263 6.29525 27.9976 6.98009 27.9982 7.69438V20.8C27.9976 21.5142 27.7263 22.199 27.2439 22.704C26.7614 23.2091 26.1073 23.4931 25.4251 23.4937ZM6.57373 6.875C6.3662 6.87517 6.16721 6.96155 6.02046 7.11517C5.87371 7.2688 5.7912 7.47711 5.79104 7.69438V20.8C5.79136 21.0172 5.87394 21.2253 6.02067 21.3788C6.1674 21.5323 6.3663 21.6186 6.57373 21.6187H25.4251C25.6324 21.6184 25.8311 21.5321 25.9777 21.3786C26.1243 21.2251 26.2068 21.017 26.2072 20.8V7.69438C26.207 7.47722 26.1246 7.269 25.978 7.11539C25.8313 6.96178 25.6325 6.87533 25.4251 6.875H6.57373Z" fill="#00EAFF"/>
<path d="M20.1196 26.775H11.8808C11.7358 26.7748 11.593 26.7378 11.4647 26.6671C11.3364 26.5964 11.2264 26.4941 11.1442 26.3691C11.062 26.244 11.01 26.0999 10.9927 25.9492C10.9754 25.7985 10.9934 25.6456 11.045 25.5038L12.239 22.2225C12.3036 22.0451 12.418 21.8924 12.5673 21.7846C12.7165 21.6768 12.8935 21.619 13.0748 21.6188H18.9256C19.1069 21.619 19.2839 21.6768 19.4332 21.7846C19.5824 21.8924 19.6969 22.0451 19.7614 22.2225L20.9554 25.5038C21.0071 25.6456 21.025 25.7985 21.0077 25.9492C20.9905 26.0999 20.9385 26.244 20.8563 26.3691C20.774 26.4941 20.6641 26.5964 20.5357 26.6671C20.4074 26.7378 20.2646 26.7748 20.1196 26.775ZM13.1805 24.9H18.8199L18.3083 23.4938H13.6928L13.1805 24.9Z" fill="#00EAFF"/>
<path d="M21.9402 26.775H10.0596C9.82208 26.775 9.5943 26.6763 9.42636 26.5004C9.25841 26.3246 9.16406 26.0862 9.16406 25.8375C9.16406 25.5889 9.25841 25.3504 9.42636 25.1746C9.5943 24.9988 9.82208 24.9 10.0596 24.9H21.9402C22.1777 24.9 22.4055 24.9988 22.5734 25.1746C22.7414 25.3504 22.8357 25.5889 22.8357 25.8375C22.8357 26.0862 22.7414 26.3246 22.5734 26.5004C22.4055 26.6763 22.1777 26.775 21.9402 26.775Z" fill="#00EAFF"/>
<path d="M27.1045 20.4006H4.89552C4.65801 20.4006 4.43024 20.3019 4.26229 20.126C4.09435 19.9502 4 19.7118 4 19.4631C4 19.2145 4.09435 18.976 4.26229 18.8002C4.43024 18.6244 4.65801 18.5256 4.89552 18.5256H27.1045C27.342 18.5256 27.5698 18.6244 27.7377 18.8002C27.9056 18.976 28 19.2145 28 19.4631C28 19.7118 27.9056 19.9502 27.7377 20.126C27.5698 20.3019 27.342 20.4006 27.1045 20.4006Z" fill="#00EAFF"/>
</svg>
