<svg width="32" height="32" viewBox="0 0 32 32" fill="none" xmlns="http://www.w3.org/2000/svg">
<path d="M10.0232 24.6667C9.64914 24.6667 9.30103 24.5424 8.97892 24.294C8.65681 24.0456 8.44303 23.7426 8.33758 23.3851C7.88619 21.7854 7.52653 20.4579 7.25858 19.4028C6.99064 18.3483 6.78119 17.4567 6.63025 16.728C6.47931 15.9993 6.37819 15.376 6.32692 14.8582C6.27564 14.3403 6.25 13.8182 6.25 13.2917C6.25 11.9324 6.72306 10.7805 7.66917 9.83583C8.61311 8.88972 9.76506 8.41667 11.125 8.41667H17.0833C17.5708 7.76667 18.1443 7.24306 18.8037 6.84583C19.4631 6.44861 20.1535 6.25 20.875 6.25C21.0252 6.25 21.1531 6.30308 21.2585 6.40925C21.3639 6.51542 21.4167 6.64433 21.4167 6.796C21.4167 6.83211 21.4102 6.86606 21.3972 6.89783C21.3834 6.92961 21.3726 6.97006 21.3647 7.01917C21.278 7.24522 21.1928 7.50631 21.109 7.80242C21.0252 8.09853 20.9375 8.50947 20.8458 9.03525L24.0188 12.2083H24.8747C25.1231 12.2083 25.3311 12.2921 25.4987 12.4597C25.6662 12.6272 25.75 12.8352 25.75 13.0837V17.2502C25.75 17.4466 25.6962 17.6203 25.5886 17.7713C25.481 17.9222 25.3308 18.0291 25.1379 18.0919L22.8976 18.8286L21.5228 23.4143C21.4058 23.7949 21.1939 24.099 20.8869 24.3265C20.58 24.554 20.2286 24.6674 19.8328 24.6667H18.8329C18.3519 24.6667 17.9403 24.4951 17.5979 24.1521C17.2549 23.8098 17.0833 23.3981 17.0833 22.9171V22.5H12.75V22.9171C12.75 23.3981 12.5785 23.8098 12.2354 24.1521C11.8931 24.4951 11.4814 24.6667 11.0004 24.6667H10.0232ZM20.3333 14.6675C20.5572 14.6675 20.7522 14.5844 20.9183 14.4183C21.0844 14.2522 21.1675 14.0572 21.1675 13.8333C21.1675 13.6094 21.0844 13.4144 20.9183 13.2483C20.7522 13.0822 20.5572 12.9992 20.3333 12.9992C20.1094 12.9992 19.9144 13.0822 19.7483 13.2483C19.5822 13.4144 19.4992 13.6094 19.4992 13.8333C19.4992 14.0572 19.5822 14.2522 19.7483 14.4183C19.9144 14.5844 20.1094 14.6675 20.3333 14.6675ZM16.5417 12.2083C16.6955 12.2083 16.8241 12.1563 16.9273 12.0523C17.0313 11.9483 17.0833 11.8194 17.0833 11.6656C17.0833 11.5118 17.0313 11.3832 16.9273 11.2799C16.8233 11.1766 16.6948 11.125 16.5417 11.125H12.2083C12.0545 11.125 11.9259 11.177 11.8227 11.281C11.7187 11.385 11.6667 11.5136 11.6667 11.6667C11.6667 11.8198 11.7187 11.9483 11.8227 12.0523C11.9267 12.1563 12.0552 12.208 12.2083 12.2072L16.5417 12.2083Z" fill="#00EAFF"/>
</svg>
