<svg width="116" height="116" viewBox="0 0 116 116" fill="none" xmlns="http://www.w3.org/2000/svg">
<path d="M99.6422 78.0283H83.6339C81.0008 78.0283 78.8591 80.17 78.8591 82.8024V94.4901C78.8591 97.1228 81.0008 99.2642 83.6339 99.2642H99.6422C102.274 99.2642 104.416 97.1226 104.416 94.4901V82.8024C104.416 80.1698 102.274 78.0283 99.6422 78.0283ZM102.019 94.4901C102.019 95.8008 100.953 96.8674 99.6422 96.8674H83.6339C82.3233 96.8674 81.2559 95.8008 81.2559 94.4901V82.8024C81.2559 81.4918 82.3233 80.4251 83.6339 80.4251H99.6422C100.953 80.4251 102.019 81.4918 102.019 82.8024V94.4901ZM71.0275 80.0141H34.9056C32.7428 80.0141 30.9828 81.7736 30.9828 83.9364C30.9828 86.0992 32.743 87.8586 34.9056 87.8586H71.0275C73.1903 87.8586 74.9503 86.0992 74.9503 83.9364C74.9505 81.7736 73.1903 80.0141 71.0275 80.0141ZM71.0275 85.4618H34.9056C34.0641 85.4618 33.3794 84.7778 33.3794 83.9364C33.3794 83.0949 34.0641 82.4109 34.9056 82.4109H71.0275C71.869 82.4109 72.5537 83.0949 72.5537 83.9364C72.5537 84.7778 71.869 85.4618 71.0275 85.4618ZM71.0275 89.4337H48.3579C46.1952 89.4337 44.4364 91.1932 44.4364 93.3559C44.4364 95.5187 46.1954 97.2782 48.3579 97.2782H71.0275C73.1903 97.2782 74.9503 95.5187 74.9503 93.3559C74.9503 91.1932 73.1903 89.4337 71.0275 89.4337ZM71.0275 94.8814H48.3579C47.5176 94.8814 46.8329 94.1974 46.8329 93.3559C46.8329 92.5145 47.5176 91.8305 48.3579 91.8305H71.0275C71.869 91.8305 72.5537 92.5145 72.5537 93.3559C72.5537 94.1974 71.869 94.8814 71.0275 94.8814Z" fill="white"/>
<path d="M105.105 33.3979H76.2342C77.5424 30.7161 78.2975 27.7171 78.2975 24.5377C78.2975 13.3487 69.1892 4.24609 57.993 4.24609C46.8051 4.24609 37.7025 13.3485 37.7025 24.5377C37.7025 27.7171 38.4572 30.7161 39.7644 33.3979H10.8949C5.15112 33.3979 0.478271 38.0707 0.478271 43.8146V101.338C0.478271 107.081 5.15112 111.754 10.8949 111.754H105.105C110.849 111.754 115.522 107.081 115.522 101.338V43.8146C115.522 38.0707 110.849 33.3979 105.105 33.3979ZM57.993 6.64267C67.8679 6.64267 75.9007 14.6702 75.9007 24.5375C75.9007 34.4118 67.8679 42.4452 57.993 42.4452C48.1264 42.4452 40.0993 34.4118 40.0993 24.5375C40.0993 14.6702 48.1264 6.64267 57.993 6.64267ZM10.8949 35.7945H41.1195C44.7619 41.244 50.9641 44.842 57.9932 44.842C65.0275 44.842 71.2337 41.244 74.8787 35.7945H105.105C109.528 35.7945 113.125 39.3918 113.125 43.8143V49.5955H2.87485V43.8143C2.87485 39.3921 6.47244 35.7945 10.8949 35.7945ZM113.125 65.5385H2.87485V51.9926H113.125V65.5385H113.125ZM105.105 109.357H10.8949C6.47244 109.357 2.87508 105.76 2.87508 101.338V67.9353H113.125V101.338C113.125 105.76 109.528 109.357 105.105 109.357Z" fill="#00EAFF"/>
<path d="M54.3802 30.1679C54.4914 30.2791 54.6235 30.3674 54.7689 30.4276C54.9143 30.4878 55.0701 30.5188 55.2274 30.5188C55.3848 30.5188 55.5406 30.4878 55.6859 30.4276C55.8313 30.3674 55.9634 30.2791 56.0746 30.1679L65.6277 20.6149C66.0957 20.1468 66.0957 19.3885 65.6277 18.9204C65.1596 18.4523 64.4013 18.4523 63.9332 18.9204L55.2275 27.6261L52.0665 24.4646C51.9553 24.3533 51.8232 24.265 51.6778 24.2048C51.5325 24.1445 51.3767 24.1135 51.2193 24.1135C51.0619 24.1135 50.9061 24.1445 50.7608 24.2048C50.6154 24.265 50.4833 24.3533 50.3721 24.4646C50.2608 24.5758 50.1725 24.7079 50.1122 24.8533C50.052 24.9987 50.021 25.1545 50.021 25.3118C50.021 25.4692 50.052 25.625 50.1122 25.7704C50.1725 25.9157 50.2608 26.0478 50.3721 26.1591L54.3802 30.1679Z" fill="white"/>
</svg>