<svg width="62" height="62" viewBox="0 0 62 62" fill="none" xmlns="http://www.w3.org/2000/svg">
<path d="M16.8177 22.7656L19.2795 23.0078V23.371C19.2795 23.6119 19.3752 23.8429 19.5455 24.0132C19.7158 24.1836 19.9468 24.2792 20.1877 24.2792H26.7268C26.9676 24.2792 27.1986 24.1836 27.369 24.0132C27.5393 23.8429 27.635 23.6119 27.635 23.371V23.0138L30.0956 22.7716C30.3199 22.7497 30.528 22.645 30.6793 22.478C30.8306 22.311 30.9143 22.0936 30.9142 21.8683V17.8007C30.9141 17.6391 30.871 17.4805 30.7893 17.341C30.7076 17.2016 30.5902 17.0865 30.4492 17.0076L27.635 15.4333V12.4605C27.6333 11.5584 27.4487 10.6659 27.0924 9.83714C26.736 9.00835 26.2154 8.26042 25.5618 7.63853L24.8631 6.97615C24.4842 6.61636 23.9816 6.41577 23.459 6.41577C22.9365 6.41577 22.4339 6.61636 22.055 6.97615L21.3562 7.63853C20.7027 8.26042 20.182 9.00835 19.8257 9.83714C19.4694 10.6659 19.2848 11.5584 19.2831 12.4605V15.4309L16.4689 17.0051C16.3279 17.0841 16.2105 17.1992 16.1288 17.3386C16.0471 17.478 16.004 17.6367 16.0039 17.7983V21.8646C16.0042 22.0888 16.0875 22.3049 16.2378 22.4713C16.3881 22.6377 16.5947 22.7425 16.8177 22.7656ZM27.6313 17.5101L29.0941 18.3275V21.0412L27.6313 21.1913V17.5101ZM21.0923 12.4581C21.0945 11.8033 21.2295 11.1559 21.4891 10.5548C21.7486 9.95371 22.1273 9.41149 22.6023 8.96088L23.301 8.29849C23.3427 8.25888 23.3979 8.23679 23.4554 8.23679C23.5129 8.23679 23.5682 8.25888 23.6098 8.29849L24.3085 8.96088C24.7836 9.4125 25.162 9.95585 25.421 10.558C25.6799 11.1602 25.8139 11.8086 25.8149 12.4641V22.4677H21.0923V12.4581ZM17.813 18.3275L19.2759 17.5101V21.1913L17.813 21.0448V18.3275ZM33.0018 44.6278H28.9985C28.7576 44.6278 28.5266 44.7235 28.3563 44.8938C28.186 45.0642 28.0903 45.2952 28.0903 45.536C28.0903 45.7769 28.186 46.0079 28.3563 46.1782C28.5266 46.3485 28.7576 46.4442 28.9985 46.4442H33.0018C33.2427 46.4442 33.4737 46.3485 33.644 46.1782C33.8144 46.0079 33.91 45.7769 33.91 45.536C33.91 45.2952 33.8144 45.0642 33.644 44.8938C33.4737 44.7235 33.2427 44.6278 33.0018 44.6278Z" fill="white"/>
<path d="M23.4546 12.5369C23.2137 12.5369 22.9827 12.6325 22.8124 12.8029C22.6421 12.9732 22.5464 13.2042 22.5464 13.4451V15.3474C22.5464 15.5883 22.6421 15.8193 22.8124 15.9896C22.9827 16.16 23.2137 16.2556 23.4546 16.2556C23.6955 16.2556 23.9265 16.16 24.0968 15.9896C24.2671 15.8193 24.3628 15.5883 24.3628 15.3474V13.4414C24.3618 13.2012 24.2657 12.9711 24.0955 12.8016C23.9253 12.632 23.6948 12.5369 23.4546 12.5369ZM35.3738 11.2944H41.9129C42.1538 11.2944 42.3848 11.1987 42.5551 11.0284C42.7254 10.8581 42.8211 10.6271 42.8211 10.3862C42.8211 10.1454 42.7254 9.91436 42.5551 9.74403C42.3848 9.57371 42.1538 9.47803 41.9129 9.47803H35.3738C35.133 9.47803 34.902 9.57371 34.7317 9.74403C34.5613 9.91436 34.4656 10.1454 34.4656 10.3862C34.4656 10.6271 34.5613 10.8581 34.7317 11.0284C34.902 11.1987 35.133 11.2944 35.3738 11.2944ZM35.3738 15.0847H45.5929C45.8338 15.0847 46.0648 14.989 46.2351 14.8187C46.4055 14.6483 46.5012 14.4173 46.5012 14.1765C46.5012 13.9356 46.4055 13.7046 46.2351 13.5343C46.0648 13.3639 45.8338 13.2683 45.5929 13.2683H35.3738C35.133 13.2683 34.902 13.3639 34.7317 13.5343C34.5613 13.7046 34.4656 13.9356 34.4656 14.1765C34.4656 14.4173 34.5613 14.6483 34.7317 14.8187C34.902 14.989 35.133 15.0847 35.3738 15.0847ZM35.3738 18.8761H45.5929C45.8338 18.8761 46.0648 18.7804 46.2351 18.6101C46.4055 18.4398 46.5012 18.2088 46.5012 17.9679C46.5012 17.727 46.4055 17.496 46.2351 17.3257C46.0648 17.1554 45.8338 17.0597 45.5929 17.0597H35.3738C35.133 17.0597 34.902 17.1554 34.7317 17.3257C34.5613 17.496 34.4656 17.727 34.4656 17.9679C34.4656 18.2088 34.5613 18.4398 34.7317 18.6101C34.902 18.7804 35.133 18.8761 35.3738 18.8761ZM35.3738 22.6663H45.5929C45.8338 22.6663 46.0648 22.5707 46.2351 22.4003C46.4055 22.23 46.5012 21.999 46.5012 21.7581C46.5012 21.5173 46.4055 21.2863 46.2351 21.1159C46.0648 20.9456 45.8338 20.8499 45.5929 20.8499H35.3738C35.133 20.8499 34.902 20.9456 34.7317 21.1159C34.5613 21.2863 34.4656 21.5173 34.4656 21.7581C34.4656 21.999 34.5613 22.23 34.7317 22.4003C34.902 22.5707 35.133 22.6663 35.3738 22.6663Z" fill="white"/>
<path d="M45.3763 0.78711H16.6238C15.5891 0.788391 14.5971 1.2 13.8655 1.93164C13.1338 2.66329 12.7222 3.65525 12.7209 4.68996V11.7982H11.0946C9.90361 11.7998 8.76184 12.2736 7.91967 13.1158C7.07749 13.958 6.60365 15.0997 6.60205 16.2907V45.1256C6.60365 46.3166 7.07749 47.4584 7.91967 48.3005C8.76184 49.1427 9.90361 49.6166 11.0946 49.6182H24.3278V55.0226H17.3273C16.5064 55.0226 15.7192 55.3487 15.1387 55.9291C14.5583 56.5096 14.2322 57.2968 14.2322 58.1177C14.2322 58.9386 14.5583 59.7259 15.1387 60.3063C15.7192 60.8868 16.5064 61.2129 17.3273 61.2129H44.6727C45.4936 61.2129 46.2809 60.8868 46.8613 60.3063C47.4418 59.7259 47.7679 58.9386 47.7679 58.1177C47.7679 57.2968 47.4418 56.5096 46.8613 55.9291C46.2809 55.3487 45.4936 55.0226 44.6727 55.0226H37.6723V49.6182H50.9054C52.0964 49.6166 53.2382 49.1427 54.0804 48.3005C54.9225 47.4584 55.3964 46.3166 55.398 45.1256V16.2907C55.3964 15.0997 54.9225 13.958 54.0804 13.1158C53.2382 12.2736 52.0964 11.7998 50.9054 11.7982H49.2852V4.68996C49.2839 3.65421 48.8715 2.66133 48.1385 1.92951C47.4055 1.19768 46.412 0.786788 45.3763 0.78711ZM49.2852 16.872H50.036C50.0958 16.8713 50.1551 16.8826 50.2105 16.9052C50.2659 16.9278 50.3162 16.9613 50.3585 17.0035C50.4008 17.0458 50.4342 17.0962 50.4568 17.1516C50.4794 17.2069 50.4907 17.2663 50.4901 17.3261V37.4604C50.4907 37.5202 50.4794 37.5795 50.4568 37.6349C50.4342 37.6903 50.4008 37.7406 50.3585 37.7829C50.3162 37.8252 50.2659 37.8586 50.2105 37.8812C50.1551 37.9038 50.0958 37.9151 50.036 37.9145H49.2852V16.872ZM16.6238 2.60352H45.3763C45.6507 2.60304 45.9225 2.65664 46.1762 2.76125C46.4299 2.86586 46.6605 3.01943 46.8548 3.21319C47.0491 3.40695 47.2034 3.6371 47.3087 3.89049C47.4141 4.14388 47.4685 4.41554 47.4688 4.68996V37.9145H14.5373V4.68996C14.538 4.1368 14.758 3.60648 15.1491 3.21533C15.5403 2.82418 16.0706 2.60416 16.6238 2.60352ZM12.7209 37.9145H11.9701C11.9103 37.9151 11.851 37.9038 11.7956 37.8812C11.7402 37.8586 11.6899 37.8252 11.6476 37.7829C11.6053 37.7406 11.5719 37.6903 11.5493 37.6349C11.5267 37.5795 11.5154 37.5202 11.516 37.4604V17.3261C11.5154 17.2663 11.5267 17.2069 11.5493 17.1516C11.5719 17.0962 11.6053 17.0458 11.6476 17.0035C11.6899 16.9613 11.7402 16.9278 11.7956 16.9052C11.851 16.8826 11.9103 16.8713 11.9701 16.872H12.7209V37.9145ZM45.9515 58.1177C45.9508 58.4567 45.8159 58.7816 45.5762 59.0212C45.3365 59.2609 45.0117 59.3958 44.6727 59.3965H17.3273C16.9882 59.3965 16.6629 59.2618 16.4231 59.0219C16.1833 58.7821 16.0486 58.4569 16.0486 58.1177C16.0486 57.7786 16.1833 57.4533 16.4231 57.2135C16.6629 56.9737 16.9882 56.839 17.3273 56.839H44.6727C45.0117 56.8396 45.3365 56.9746 45.5762 57.2142C45.8159 57.4539 45.9508 57.7788 45.9515 58.1177ZM35.8559 55.0226H26.1442V49.6182H28.0683V51.133C28.0683 51.9106 28.3772 52.6563 28.927 53.2061C29.4768 53.7559 30.2225 54.0647 31 54.0647C31.7775 54.0647 32.5232 53.7559 33.073 53.2061C33.6228 52.6563 33.9317 51.9106 33.9317 51.133V49.6182H35.8559V55.0226ZM29.8847 49.6182H32.1153V51.133C32.1153 51.4288 31.9978 51.7125 31.7886 51.9217C31.5795 52.1308 31.2958 52.2483 31 52.2483C30.7042 52.2483 30.4206 52.1308 30.2114 51.9217C30.0022 51.7125 29.8847 51.4288 29.8847 51.133V49.6182ZM50.9054 47.8018H11.0946C10.3852 47.8008 9.70502 47.5185 9.20335 47.0169C8.70168 46.5152 8.41942 45.8351 8.41846 45.1256V42.9459H53.5864V45.1256C53.5855 45.8359 53.3025 46.5168 52.7998 47.0186C52.2971 47.5204 51.6157 47.8021 50.9054 47.8018ZM50.9054 13.6146C51.6149 13.6155 52.295 13.8978 52.7967 14.3995C53.2984 14.9011 53.5806 15.5813 53.5816 16.2907V41.1307H8.41361V16.2907C8.41457 15.5813 8.69684 14.9011 9.19851 14.3995C9.70018 13.8978 10.3803 13.6155 11.0898 13.6146H12.7161V15.0556H11.9653C11.3642 15.0575 10.7883 15.2975 10.3636 15.723C9.93902 16.1485 9.70027 16.725 9.69963 17.3261V37.4604C9.70027 38.0623 9.93969 38.6395 10.3654 39.0651C10.791 39.4908 11.3682 39.7302 11.9701 39.7309H50.0299C50.6319 39.7302 51.209 39.4908 51.6347 39.0651C52.0603 38.6395 52.2998 38.0623 52.3004 37.4604V17.3261C52.2998 16.7241 52.0603 16.147 51.6347 15.7213C51.209 15.2956 50.6319 15.0562 50.0299 15.0556H49.2852V13.6146H50.9054Z" fill="#00EAFF"/>
<path d="M20.1187 35.6331C20.9443 35.6334 21.7514 35.3888 22.438 34.9302C23.1246 34.4717 23.6598 33.8199 23.9759 33.0572C24.292 32.2945 24.3749 31.4552 24.2139 30.6454C24.053 29.8357 23.6556 29.0918 23.0719 28.5079C22.4882 27.924 21.7444 27.5264 20.9347 27.3652C20.1249 27.204 19.2856 27.2866 18.5228 27.6025C17.76 27.9184 17.1081 28.4534 16.6493 29.1399C16.1906 29.8263 15.9458 30.6334 15.9458 31.459C15.9468 32.5656 16.3867 33.6265 17.169 34.4091C17.9513 35.1916 19.0122 35.6318 20.1187 35.6331ZM20.1187 29.1013C20.5851 29.1011 21.041 29.2392 21.4289 29.4981C21.8168 29.757 22.1191 30.1251 22.2978 30.5559C22.4764 30.9867 22.5233 31.4608 22.4324 31.9182C22.3416 32.3757 22.1172 32.7959 21.7875 33.1257C21.4578 33.4556 21.0377 33.6803 20.5803 33.7713C20.1229 33.8624 19.6488 33.8158 19.2179 33.6374C18.787 33.4589 18.4188 33.1568 18.1596 32.769C17.9005 32.3813 17.7622 31.9254 17.7622 31.459C17.7628 30.8341 18.0113 30.235 18.453 29.793C18.8948 29.351 19.4938 29.1023 20.1187 29.1013ZM26.8261 31.459C26.8261 32.2846 27.0709 33.0916 27.5295 33.778C27.9882 34.4644 28.6401 34.9995 29.4028 35.3154C30.1655 35.6313 31.0048 35.714 31.8145 35.5529C32.6242 35.3919 33.368 34.9943 33.9517 34.4106C34.5355 33.8268 34.933 33.083 35.0941 32.2733C35.2551 31.4636 35.1725 30.6244 34.8565 29.8617C34.5406 29.0989 34.0056 28.447 33.3192 27.9884C32.6328 27.5297 31.8257 27.2849 31.0002 27.2849C29.8935 27.2862 28.8326 27.7264 28.0501 28.5089C27.2675 29.2914 26.8274 30.3524 26.8261 31.459ZM31.0002 29.1013C31.4665 29.1013 31.9223 29.2396 32.31 29.4987C32.6978 29.7577 33 30.126 33.1784 30.5568C33.3569 30.9876 33.4035 31.4616 33.3126 31.919C33.2216 32.3763 32.997 32.7964 32.6673 33.1262C32.3376 33.4559 31.9175 33.6804 31.4601 33.7714C31.0028 33.8624 30.5287 33.8157 30.0979 33.6372C29.6671 33.4588 29.2989 33.1566 29.0398 32.7689C28.7808 32.3812 28.6425 31.9253 28.6425 31.459C28.6434 30.834 28.8921 30.2349 29.3341 29.7929C29.776 29.351 30.3752 29.1023 31.0002 29.1013ZM41.8817 27.2849C41.056 27.2847 40.2489 27.5293 39.5623 27.9878C38.8757 28.4463 38.3405 29.0981 38.0244 29.8608C37.7083 30.6235 37.6255 31.4628 37.7864 32.2726C37.9473 33.0824 38.3448 33.8262 38.9285 34.4101C39.5122 34.994 40.2559 35.3917 41.0657 35.5528C41.8754 35.714 42.7147 35.6314 43.4775 35.3155C44.2403 34.9996 44.8923 34.4646 45.351 33.7782C45.8097 33.0917 46.0546 32.2846 46.0546 31.459C46.0533 30.3526 45.6133 29.2918 44.831 28.5093C44.0487 27.7268 42.9881 27.2865 41.8817 27.2849ZM41.8817 33.8167C41.4153 33.817 40.9593 33.6789 40.5715 33.42C40.1836 33.161 39.8812 32.7929 39.7026 32.3621C39.5239 31.9313 39.4771 31.4572 39.5679 30.9998C39.6587 30.5424 39.8832 30.1222 40.2129 29.7923C40.5426 29.4625 40.9627 29.2378 41.42 29.1467C41.8774 29.0556 42.3515 29.1023 42.7824 29.2807C43.2133 29.4591 43.5816 29.7613 43.8407 30.149C44.0998 30.5368 44.2381 30.9927 44.2381 31.459C44.2375 32.0839 43.9891 32.683 43.5473 33.125C43.1056 33.567 42.5066 33.8158 41.8817 33.8167Z" fill="white"/>
</svg>
