<svg width="62" height="62" viewBox="0 0 62 62" fill="none" xmlns="http://www.w3.org/2000/svg">
<g clip-path="url(#clip0_824_56)">
<path d="M29.6076 17.469H22.7053C22.4644 17.469 22.2334 17.5647 22.0631 17.735C21.8928 17.9053 21.7971 18.1363 21.7971 18.3772C21.7971 18.6181 21.8928 18.8491 22.0631 19.0194C22.2334 19.1897 22.4644 19.2854 22.7053 19.2854H29.6076C29.8485 19.2854 30.0795 19.1897 30.2498 19.0194C30.4201 18.8491 30.5158 18.6181 30.5158 18.3772C30.5158 18.1363 30.4201 17.9053 30.2498 17.735C30.0795 17.5647 29.8485 17.469 29.6076 17.469ZM29.6076 13.8362H22.7053C22.4644 13.8362 22.2334 13.9319 22.0631 14.1022C21.8928 14.2725 21.7971 14.5035 21.7971 14.7444C21.7971 14.9852 21.8928 15.2163 22.0631 15.3866C22.2334 15.5569 22.4644 15.6526 22.7053 15.6526H29.6076C29.8485 15.6526 30.0795 15.5569 30.2498 15.3866C30.4201 15.2163 30.5158 14.9852 30.5158 14.7444C30.5158 14.5035 30.4201 14.2725 30.2498 14.1022C30.0795 13.9319 29.8485 13.8362 29.6076 13.8362ZM36.0256 4.84375H37.2365C37.4774 4.84375 37.7084 4.74806 37.8787 4.57774C38.049 4.40742 38.1447 4.17642 38.1447 3.93555C38.1447 3.69468 38.049 3.46367 37.8787 3.29335C37.7084 3.12303 37.4774 3.02734 37.2365 3.02734H36.0256C35.7847 3.02734 35.5537 3.12303 35.3834 3.29335C35.2131 3.46367 35.1174 3.69468 35.1174 3.93555C35.1174 4.17642 35.2131 4.40742 35.3834 4.57774C35.5537 4.74806 35.7847 4.84375 36.0256 4.84375ZM40.8693 4.84375H42.0803C42.3211 4.84375 42.5521 4.74806 42.7225 4.57774C42.8928 4.40742 42.9885 4.17642 42.9885 3.93555C42.9885 3.69468 42.8928 3.46367 42.7225 3.29335C42.5521 3.12303 42.3211 3.02734 42.0803 3.02734H40.8693C40.6285 3.02734 40.3975 3.12303 40.2271 3.29335C40.0568 3.46367 39.9611 3.69468 39.9611 3.93555C39.9611 4.17642 40.0568 4.40742 40.2271 4.57774C40.3975 4.74806 40.6285 4.84375 40.8693 4.84375ZM29.403 48.4605L18.909 50.8824C18.7224 50.9255 18.5542 51.0264 18.4285 51.1708C18.3027 51.3152 18.2258 51.4957 18.2087 51.6864C18.1917 51.8771 18.2353 52.0684 18.3335 52.2328C18.4316 52.3972 18.5792 52.5264 18.7552 52.6019L21.4774 53.7656L18.0674 57.1805C17.983 57.2647 17.9161 57.3647 17.8704 57.4749C17.8248 57.585 17.8013 57.703 17.8013 57.8223C17.8013 57.9415 17.8248 58.0595 17.8704 58.1697C17.9161 58.2798 17.983 58.3798 18.0674 58.4641L20.4893 60.8859C20.5734 60.9704 20.6734 61.0375 20.7836 61.0832C20.8937 61.129 21.0118 61.1525 21.1311 61.1525C21.2503 61.1525 21.3684 61.129 21.4785 61.0832C21.5887 61.0375 21.6887 60.9704 21.7728 60.8859L25.1877 57.4759L26.355 60.1981C26.4305 60.3741 26.5597 60.5217 26.7242 60.6198C26.8886 60.718 27.0798 60.7617 27.2706 60.7446C27.4613 60.7275 27.6417 60.6506 27.7861 60.5249C27.9305 60.3991 28.0315 60.2309 28.0746 60.0443L30.4964 49.5504C30.5309 49.4002 30.5267 49.2437 30.4841 49.0957C30.4416 48.9476 30.3621 48.8128 30.2531 48.7038C30.1442 48.5949 30.0094 48.5154 29.8613 48.4728C29.7132 48.4303 29.5568 48.426 29.4066 48.4605H29.403ZM26.9254 56.9286L26.3199 55.5275C26.2616 55.3911 26.1708 55.271 26.0553 55.1778C25.9398 55.0846 25.8032 55.0212 25.6575 54.9931C25.5117 54.965 25.3613 54.9731 25.2195 55.0166C25.0776 55.0602 24.9486 55.1379 24.8438 55.243L21.1262 58.9593L19.9891 57.8223L23.7055 54.1047C23.8105 53.9999 23.8883 53.8708 23.9318 53.729C23.9754 53.5871 23.9835 53.4367 23.9554 53.291C23.9273 53.1453 23.8639 53.0087 23.7707 52.8932C23.6775 52.7777 23.5574 52.6868 23.4209 52.6286L22.0199 52.0231L28.3906 50.553L26.9254 56.9286Z" fill="white"/>
<path d="M61.0918 11.7461H47.832V0.908203C47.832 0.667333 47.7363 0.436328 47.566 0.266007C47.3957 0.0956854 47.1647 0 46.9238 0L0.908203 0C0.667333 0 0.436328 0.0956854 0.266007 0.266007C0.0956854 0.436328 0 0.667333 0 0.908203L0 44.502C0 44.7428 0.0956854 44.9738 0.266007 45.1441C0.436328 45.3145 0.667333 45.4102 0.908203 45.4102H33.543V61.0918C33.543 61.3327 33.6387 61.5637 33.809 61.734C33.9793 61.9043 34.2103 62 34.4512 62H61.0918C61.3327 62 61.5637 61.9043 61.734 61.734C61.9043 61.5637 62 61.3327 62 61.0918V12.6543C62 12.4134 61.9043 12.1824 61.734 12.0121C61.5637 11.8418 61.3327 11.7461 61.0918 11.7461ZM60.1836 17.8008H35.3594V13.5625H60.1836V17.8008ZM46.0156 1.81641V6.05469H1.81641V1.81641H46.0156ZM1.81641 43.5938V7.87109H46.0156V11.7461H34.4512C34.2103 11.7461 33.9793 11.8418 33.809 12.0121C33.6387 12.1824 33.543 12.4134 33.543 12.6543V43.5938H1.81641ZM35.3594 60.1836V19.6172H60.1836V60.1836H35.3594Z" fill="#00EAFF"/>
<path fill-rule="evenodd" clip-rule="evenodd" d="M56.2481 55.3398H39.2949C39.0541 55.3398 38.8231 55.4354 38.6527 55.6058C38.4824 55.7761 38.3867 56.0071 38.3867 56.248C38.3867 56.4888 38.4824 56.7198 38.6527 56.8902C38.8231 57.0605 39.0541 57.1562 39.2949 57.1562H56.2481C56.4889 57.1562 56.7199 57.0605 56.8902 56.8902C57.0606 56.7198 57.1563 56.4888 57.1563 56.248C57.1563 56.0071 57.0606 55.7761 56.8902 55.6058C56.7199 55.4354 56.4889 55.3398 56.2481 55.3398ZM56.2481 49.2851H44.1387C43.8978 49.2851 43.6668 49.3808 43.4965 49.5511C43.3262 49.7214 43.2305 49.9524 43.2305 50.1933C43.2305 50.4341 43.3262 50.6652 43.4965 50.8355C43.6668 51.0058 43.8978 51.1015 44.1387 51.1015H56.2481C56.4889 51.1015 56.7199 51.0058 56.8902 50.8355C57.0606 50.6652 57.1563 50.4341 57.1563 50.1933C57.1563 49.9524 57.0606 49.7214 56.8902 49.5511C56.7199 49.3808 56.4889 49.2851 56.2481 49.2851ZM39.2949 51.1015H40.5059C40.7467 51.1015 40.9777 51.0058 41.1481 50.8355C41.3184 50.6652 41.4141 50.4341 41.4141 50.1933C41.4141 49.9524 41.3184 49.7214 41.1481 49.5511C40.9777 49.3808 40.7467 49.2851 40.5059 49.2851H39.2949C39.0541 49.2851 38.8231 49.3808 38.6527 49.5511C38.4824 49.7214 38.3867 49.9524 38.3867 50.1933C38.3867 50.4341 38.4824 50.6652 38.6527 50.8355C38.8231 51.0058 39.0541 51.1015 39.2949 51.1015ZM51.4043 16.5898H52.6152C52.8561 16.5898 53.0871 16.4941 53.2574 16.3238C53.4278 16.1534 53.5234 15.9224 53.5234 15.6816C53.5234 15.4407 53.4278 15.2097 53.2574 15.0394C53.0871 14.869 52.8561 14.7734 52.6152 14.7734H51.4043C51.1634 14.7734 50.9324 14.869 50.7621 15.0394C50.5918 15.2097 50.4961 15.4407 50.4961 15.6816C50.4961 15.9224 50.5918 16.1534 50.7621 16.3238C50.9324 16.4941 51.1634 16.5898 51.4043 16.5898ZM56.2481 16.5898H57.459C57.6999 16.5898 57.9309 16.4941 58.1012 16.3238C58.2715 16.1534 58.3672 15.9224 58.3672 15.6816C58.3672 15.4407 58.2715 15.2097 58.1012 15.0394C57.9309 14.869 57.6999 14.7734 57.459 14.7734H56.2481C56.0072 14.7734 55.7762 14.869 55.6059 15.0394C55.4355 15.2097 55.3398 15.4407 55.3398 15.6816C55.3398 15.9224 55.4355 16.1534 55.6059 16.3238C55.7762 16.4941 56.0072 16.5898 56.2481 16.5898ZM5.75196 35.9066H15.4395C15.5589 35.9066 15.6772 35.8831 15.7876 35.8373C15.8979 35.7915 15.9981 35.7244 16.0825 35.6398C16.1669 35.5552 16.2337 35.4548 16.2792 35.3443C16.3247 35.2338 16.348 35.1155 16.3477 34.996V25.3085C16.3477 25.0676 16.252 24.8366 16.0817 24.6663C15.9113 24.496 15.6803 24.4003 15.4395 24.4003H5.75196C5.51109 24.4003 5.28008 24.496 5.10976 24.6663C4.93944 24.8366 4.84375 25.0676 4.84375 25.3085V34.996C4.84343 35.1155 4.86669 35.2338 4.91219 35.3443C4.95769 35.4548 5.02454 35.5552 5.1089 35.6398C5.19327 35.7244 5.2935 35.7915 5.40384 35.8373C5.51419 35.8831 5.63249 35.9066 5.75196 35.9066ZM6.66016 26.2191H14.5313V34.0902H6.66016V26.2191ZM29.6074 24.4027H19.9199C19.6795 24.4027 19.4488 24.4981 19.2786 24.6679C19.1083 24.8377 19.0124 25.0681 19.0117 25.3085V34.996C19.0117 35.2369 19.1074 35.4679 19.2777 35.6382C19.448 35.8085 19.6791 35.9042 19.9199 35.9042H29.6074C29.8483 35.9042 30.0793 35.8085 30.2496 35.6382C30.4199 35.4679 30.5156 35.2369 30.5156 34.996V25.3085C30.515 25.0681 30.419 24.8377 30.2488 24.6679C30.0785 24.4981 29.8479 24.4027 29.6074 24.4027ZM28.6992 34.0902H20.8281V26.2191H28.6992V34.0902ZM39.2949 46.2577H48.9824C49.2233 46.2577 49.4543 46.162 49.6246 45.9917C49.7949 45.8214 49.8906 45.5904 49.8906 45.3495V35.662C49.8906 35.4212 49.7949 35.1901 49.6246 35.0198C49.4543 34.8495 49.2233 34.7538 48.9824 34.7538H39.2949C39.0541 34.7538 38.8231 34.8495 38.6527 35.0198C38.4824 35.1901 38.3867 35.4212 38.3867 35.662V45.3495C38.3867 45.5904 38.4824 45.8214 38.6527 45.9917C38.8231 46.162 39.0541 46.2577 39.2949 46.2577ZM40.2031 36.5702H48.0742V44.4413H40.2031V36.5702ZM29.6074 38.7499H5.75196C5.51109 38.7499 5.28008 38.8456 5.10976 39.0159C4.93944 39.1862 4.84375 39.4172 4.84375 39.6581C4.84375 39.899 4.93944 40.13 5.10976 40.3003C5.28008 40.4706 5.51109 40.5663 5.75196 40.5663H29.6074C29.8483 40.5663 30.0793 40.4706 30.2496 40.3003C30.4199 40.13 30.5156 39.899 30.5156 39.6581C30.5156 39.4172 30.4199 39.1862 30.2496 39.0159C30.0793 38.8456 29.8483 38.7499 29.6074 38.7499ZM56.2481 22.6444C56.0072 22.6444 55.7762 22.7401 55.6059 22.9105C55.4355 23.0808 55.3398 23.3118 55.3398 23.5527V45.3495C55.3398 45.5904 55.4355 45.8214 55.6059 45.9917C55.7762 46.162 56.0072 46.2577 56.2481 46.2577C56.4889 46.2577 56.7199 46.162 56.8902 45.9917C57.0606 45.8214 57.1563 45.5904 57.1563 45.3495V23.5527C57.1563 23.3118 57.0606 23.0808 56.8902 22.9105C56.7199 22.7401 56.4889 22.6444 56.2481 22.6444Z" fill="white"/>
<path d="M14.9997 14.9923C15.0101 15.5892 14.77 16.1259 14.3768 16.5038L11.0017 20L7.62664 16.5038C7.22997 16.1259 6.98989 15.5892 7.00033 14.9923C7.0212 13.9117 7.89108 13.0253 8.9558 13.0006C9.99617 12.9759 10.8591 13.7598 10.9843 14.7734C10.9878 14.791 11.0122 14.791 11.0157 14.7734C11.1409 13.7563 12.0038 12.9759 13.0442 13.0006C14.1124 13.0253 14.9823 13.9117 14.9997 14.9923Z" stroke="white" stroke-width="1.5" stroke-miterlimit="10" stroke-linejoin="round"/>
<path d="M47.9997 25.9923C48.0101 26.5892 47.77 27.1259 47.3768 27.5038L44.7212 30.2547C44.328 30.662 43.6755 30.662 43.2823 30.2547L40.6266 27.5038C40.23 27.1259 39.9899 26.5892 40.0003 25.9923C40.0212 24.9117 40.8911 24.0253 41.9558 24.0006C42.9962 23.9759 43.8591 24.7598 43.9843 25.7734C43.9878 25.791 44.0122 25.791 44.0157 25.7734C44.1409 24.7563 45.0038 23.9759 46.0442 24.0006C47.1124 24.0253 47.9823 24.9117 47.9997 25.9923Z" fill="white"/>
</g>
<defs>
<clipPath id="clip0_824_56">
<rect width="62" height="62" fill="white"/>
</clipPath>
</defs>
</svg>
