<svg width="49" height="39" viewBox="0 0 49 39" fill="none" xmlns="http://www.w3.org/2000/svg">
<path fill-rule="evenodd" clip-rule="evenodd" d="M44.5201 16.85C46.5101 16.85 48.1201 18.46 48.1201 20.45V27.65C48.1201 29.64 46.5101 31.25 44.5201 31.25H43.3201V16.85H44.5201ZM3.72012 16.85H4.92011V31.25H3.72012C1.73012 31.25 0.120117 29.64 0.120117 27.65V20.45C0.120117 18.46 1.73012 16.85 3.72012 16.85ZM31.3201 22.25C32.9801 22.25 34.3201 20.91 34.3201 19.25C34.3201 17.59 32.9801 16.25 31.3201 16.25C29.6601 16.25 28.3201 17.59 28.3201 19.25C28.3201 20.91 29.6601 22.25 31.3201 22.25ZM19.9201 19.25C19.9201 17.59 18.5801 16.25 16.9201 16.25C15.2601 16.25 13.9201 17.59 13.9201 19.25C13.9201 20.91 15.2601 22.25 16.9201 22.25C18.5801 22.25 19.9201 20.91 19.9201 19.25ZM30.1201 28.85C29.4601 28.85 28.9201 29.39 28.9201 30.05C28.9201 30.71 29.4601 31.25 30.1201 31.25H32.5201C33.1801 31.25 33.7201 30.71 33.7201 30.05C33.7201 29.39 33.1801 28.85 32.5201 28.85H30.1201ZM22.9201 28.85C22.2601 28.85 21.7201 29.39 21.7201 30.05C21.7201 30.71 22.2601 31.25 22.9201 31.25H25.3201C25.9801 31.25 26.5201 30.71 26.5201 30.05C26.5201 29.39 25.9801 28.85 25.3201 28.85H22.9201ZM15.7201 28.85C15.0601 28.85 14.5201 29.39 14.5201 30.05C14.5201 30.71 15.0601 31.25 15.7201 31.25H18.1201C18.7801 31.25 19.3201 30.71 19.3201 30.05C19.3201 29.39 18.7801 28.85 18.1201 28.85H15.7201ZM24.1201 0.0500031C25.4501 0.0500031 26.5201 1.12 26.5201 2.45V7.25H35.5201C38.5101 7.25 40.9201 9.67 40.9201 12.65V33.05C40.9201 36.03 38.5001 38.45 35.5201 38.45H12.7201C9.73012 38.45 7.32011 36.04 7.32011 33.05V12.65C7.32011 9.67 9.74012 7.25 12.7201 7.25H21.7201V2.45C21.7201 1.12 22.7901 0.0500031 24.1201 0.0500031Z" fill="#00EAFF"/>
</svg>
