<svg width="49" height="44" viewBox="0 0 49 44" fill="none" xmlns="http://www.w3.org/2000/svg">
<path fill-rule="evenodd" clip-rule="evenodd" d="M44.0701 26.91L36.1201 23.73V39.39C41.8001 36.64 43.7401 31.14 44.0701 26.92V26.91ZM35.3701 19.72C35.8401 19.53 36.3801 19.53 36.8501 19.72L46.8501 23.72C47.6101 24.03 48.1101 24.76 48.1101 25.58C48.1101 30.86 45.9501 39.65 36.8801 43.43C36.3901 43.64 35.8301 43.64 35.3401 43.43C26.2701 39.65 24.1201 30.86 24.1201 25.58C24.1201 24.76 24.6201 24.03 25.3801 23.72L35.3801 19.72H35.3701ZM32.1201 11.58H21.4501V0.910004L32.1201 11.58ZM0.120117 6.25C0.120117 3.31 2.51013 0.920013 5.45013 0.920013H18.7802V11.59C18.7802 13.07 19.9701 14.26 21.4501 14.26H32.1201V18.18L24.3901 21.27C22.6101 21.98 21.4601 23.69 21.4601 25.6C21.4601 30.32 23.0401 37.93 29.3101 42.96C28.5601 43.36 27.7001 43.59 26.7901 43.59H5.46014C2.52014 43.59 0.130127 41.2 0.130127 38.26V6.26001L0.120117 6.25Z" fill="#00EAFF"/>
</svg>
