<svg width="62" height="62" viewBox="0 0 62 62" fill="none" xmlns="http://www.w3.org/2000/svg">
<mask id="path-1-inside-1_824_26" fill="white">
<path d="M5.74971 46.9788H17.8889C18.3189 47.5342 18.7837 48.0618 19.2802 48.5586C22.1854 51.4567 26.069 53.1642 30.1686 53.3456C34.2682 53.5271 38.2875 52.1695 41.4374 49.5395L42.4265 50.5285L41.6052 51.3498C41.3327 51.6223 41.1796 51.9919 41.1796 52.3773C41.1796 52.7627 41.3327 53.1323 41.6052 53.4048L49.0121 60.8116C49.778 61.5593 50.8077 61.9749 51.878 61.9685C52.9483 61.9621 53.9729 61.534 54.7297 60.7772C55.4865 60.0204 55.9146 58.9958 55.921 57.9255C55.9274 56.8552 55.5118 55.8255 54.7641 55.0596L47.3573 47.6528C47.2223 47.5179 47.0621 47.4108 46.8858 47.3378C46.7095 47.2648 46.5206 47.2272 46.3297 47.2272C46.1389 47.2272 45.9499 47.2648 45.7736 47.3378C45.5973 47.4108 45.4371 47.5179 45.3022 47.6528L44.4811 48.4739L43.4924 47.4855C43.6324 47.3188 43.7687 47.1501 43.9016 46.9792H56.2499C57.3993 46.9778 58.5011 46.5206 59.3138 45.7079C60.1266 44.8952 60.5837 43.7934 60.5851 42.644V4.33516C60.5837 3.18581 60.1266 2.08393 59.3138 1.27122C58.5011 0.458517 57.3993 0.00134602 56.2499 0L5.74971 0C4.60037 0.00134602 3.49848 0.458517 2.68578 1.27122C1.87307 2.08393 1.4159 3.18581 1.41455 4.33516V42.6433C1.4158 43.7927 1.87293 44.8947 2.68565 45.7074C3.49837 46.5202 4.6003 46.9775 5.74971 46.9788ZM53.0465 57.9355C53.0459 58.1645 52.9776 58.3883 52.8501 58.5786C52.7227 58.7689 52.5418 58.9173 52.3303 59.0051C52.1187 59.0928 51.8859 59.1161 51.6612 59.0719C51.4365 59.0277 51.2298 58.9181 51.0672 58.7567L48.0628 55.7523L49.7052 54.1099L52.7095 57.1142C52.8172 57.222 52.9024 57.3501 52.9603 57.4911C53.0181 57.6321 53.0474 57.7831 53.0465 57.9355ZM47.6502 52.0549L46.0077 53.6973L44.6878 52.3774L46.3303 50.735L47.6502 52.0549ZM21.3352 46.5029C19.1179 44.2906 17.7365 41.3778 17.4265 38.2611C17.1164 35.1443 17.8969 32.0165 19.6348 29.4107C21.3727 26.8049 23.9606 24.8826 26.9572 23.9712C29.9539 23.0599 33.1738 23.216 36.0682 24.413C38.9627 25.61 41.3524 27.7738 42.83 30.5355C44.3077 33.2972 44.7818 36.4858 44.1716 39.558C43.5615 42.6301 41.9047 45.3956 39.4838 47.383C37.0629 49.3703 34.0277 50.4566 30.8955 50.4566C29.1198 50.4623 27.3605 50.1158 25.7195 49.4371C24.0784 48.7585 22.5883 47.7612 21.3352 46.5029ZM56.2499 44.0726H45.7026C47.1762 41.0019 47.6606 37.5497 47.0889 34.1922C46.5173 30.8346 44.9178 27.7372 42.5111 25.3272C36.1063 18.9226 25.6851 18.9226 19.2805 25.3272C16.8738 27.7372 15.2742 30.8346 14.7026 34.1922C14.1309 37.5497 14.6153 41.002 16.0889 44.0726H5.74971C5.3709 44.072 5.00774 43.9213 4.73988 43.6535C4.47202 43.3856 4.32131 43.0225 4.3208 42.6436V16.2331H57.6791V42.6436C57.6786 43.0225 57.5278 43.3857 57.2599 43.6536C56.992 43.9214 56.6288 44.0721 56.2499 44.0726ZM5.74971 2.90625H56.2499C56.6287 2.90676 56.9919 3.05747 57.2597 3.32533C57.5276 3.59319 57.6783 3.95634 57.6788 4.33516V13.3265H4.32056V4.33516C4.32107 3.9563 4.47181 3.59312 4.73973 3.32525C5.00764 3.05738 5.37085 2.9067 5.74971 2.90625ZM7.88992 8.11655C7.88992 7.73116 8.04301 7.36155 8.31553 7.08904C8.58804 6.81652 8.95765 6.66343 9.34304 6.66343H9.42781C9.8132 6.66343 10.1828 6.81652 10.4553 7.08904C10.7278 7.36155 10.8809 7.73116 10.8809 8.11655C10.8809 8.50194 10.7278 8.87155 10.4553 9.14406C10.1828 9.41658 9.8132 9.56968 9.42781 9.56968H9.34304C8.95765 9.56968 8.58804 9.41658 8.31553 9.14406C8.04301 8.87155 7.88992 8.50194 7.88992 8.11655ZM12.5337 8.11655C12.5337 7.73116 12.6868 7.36155 12.9594 7.08904C13.2319 6.81652 13.6015 6.66343 13.9869 6.66343H14.0716C14.457 6.66343 14.8266 6.81652 15.0991 7.08904C15.3717 7.36155 15.5248 7.73116 15.5248 8.11655C15.5248 8.50194 15.3717 8.87155 15.0991 9.14406C14.8266 9.41658 14.457 9.56968 14.0716 9.56968H13.9869C13.6015 9.56968 13.2319 9.41658 12.9594 9.14406C12.6868 8.87155 12.5337 8.50194 12.5337 8.11655ZM17.1776 8.11655C17.1776 7.73116 17.3307 7.36155 17.6032 7.08904C17.8757 6.81652 18.2453 6.66343 18.6307 6.66343H18.7155C19.1008 6.66343 19.4705 6.81652 19.743 7.08904C20.0155 7.36155 20.1686 7.73116 20.1686 8.11655C20.1686 8.50194 20.0155 8.87155 19.743 9.14406C19.4705 9.41658 19.1008 9.56968 18.7155 9.56968H18.6307C18.2453 9.56968 17.8757 9.41658 17.6032 9.14406C17.3307 8.87155 17.1776 8.50194 17.1776 8.11655ZM34.8645 8.11655C34.8645 7.73116 35.0176 7.36155 35.2901 7.08904C35.5626 6.81652 35.9323 6.66343 36.3176 6.66343H52.6566C53.042 6.66343 53.4116 6.81652 53.6841 7.08904C53.9566 7.36155 54.1097 7.73116 54.1097 8.11655C54.1097 8.50194 53.9566 8.87155 53.6841 9.14406C53.4116 9.41658 53.042 9.56968 52.6566 9.56968H36.3176C35.9323 9.56968 35.5626 9.41658 35.2901 9.14406C35.0176 8.87155 34.8645 8.50194 34.8645 8.11655ZM40.1274 35.1656C40.1497 35.3552 40.1344 35.5472 40.0825 35.7309C40.0306 35.9145 39.943 36.0861 39.8248 36.2359C39.7065 36.3857 39.5599 36.5107 39.3933 36.6039C39.2268 36.697 39.0435 36.7564 38.8539 36.7787C38.797 36.7854 38.7397 36.7887 38.6824 36.7888C38.3267 36.7882 37.9836 36.6573 37.718 36.4207C37.4524 36.1841 37.2828 35.8584 37.2413 35.5052L37.2279 35.3911L33.5389 39.7554C33.3302 40.0024 33.045 40.1727 32.7286 40.2393C32.4122 40.306 32.0826 40.2652 31.792 40.1234L28.165 38.3544L24.2324 43.165C23.9884 43.4633 23.6359 43.6526 23.2525 43.6911C22.869 43.7296 22.4859 43.6142 22.1875 43.3703C21.8891 43.1263 21.6999 42.7738 21.6614 42.3904C21.6229 42.0069 21.7383 41.6238 21.9822 41.3254L26.6431 35.6242C26.8504 35.3709 27.1371 35.1949 27.4568 35.1249C27.7766 35.0548 28.1106 35.0948 28.4048 35.2383L32.0497 37.0158L35.0377 33.4808L34.7236 33.5172C34.3408 33.5622 33.9558 33.4534 33.6533 33.2146C33.3508 32.9758 33.1556 32.6266 33.1105 32.2438C33.0655 31.8611 33.1743 31.4761 33.4131 31.1736C33.6519 30.8711 34.0011 30.6758 34.3839 30.6308L38.08 30.1959C38.4628 30.1509 38.8477 30.2598 39.1502 30.4985C39.4527 30.7373 39.648 31.0865 39.693 31.4692L40.1274 35.1656Z"/>
</mask>
<path d="M5.74971 46.9788H17.8889C18.3189 47.5342 18.7837 48.0618 19.2802 48.5586C22.1854 51.4567 26.069 53.1642 30.1686 53.3456C34.2682 53.5271 38.2875 52.1695 41.4374 49.5395L42.4265 50.5285L41.6052 51.3498C41.3327 51.6223 41.1796 51.9919 41.1796 52.3773C41.1796 52.7627 41.3327 53.1323 41.6052 53.4048L49.0121 60.8116C49.778 61.5593 50.8077 61.9749 51.878 61.9685C52.9483 61.9621 53.9729 61.534 54.7297 60.7772C55.4865 60.0204 55.9146 58.9958 55.921 57.9255C55.9274 56.8552 55.5118 55.8255 54.7641 55.0596L47.3573 47.6528C47.2223 47.5179 47.0621 47.4108 46.8858 47.3378C46.7095 47.2648 46.5206 47.2272 46.3297 47.2272C46.1389 47.2272 45.9499 47.2648 45.7736 47.3378C45.5973 47.4108 45.4371 47.5179 45.3022 47.6528L44.4811 48.4739L43.4924 47.4855C43.6324 47.3188 43.7687 47.1501 43.9016 46.9792H56.2499C57.3993 46.9778 58.5011 46.5206 59.3138 45.7079C60.1266 44.8952 60.5837 43.7934 60.5851 42.644V4.33516C60.5837 3.18581 60.1266 2.08393 59.3138 1.27122C58.5011 0.458517 57.3993 0.00134602 56.2499 0L5.74971 0C4.60037 0.00134602 3.49848 0.458517 2.68578 1.27122C1.87307 2.08393 1.4159 3.18581 1.41455 4.33516V42.6433C1.4158 43.7927 1.87293 44.8947 2.68565 45.7074C3.49837 46.5202 4.6003 46.9775 5.74971 46.9788ZM53.0465 57.9355C53.0459 58.1645 52.9776 58.3883 52.8501 58.5786C52.7227 58.7689 52.5418 58.9173 52.3303 59.0051C52.1187 59.0928 51.8859 59.1161 51.6612 59.0719C51.4365 59.0277 51.2298 58.9181 51.0672 58.7567L48.0628 55.7523L49.7052 54.1099L52.7095 57.1142C52.8172 57.222 52.9024 57.3501 52.9603 57.4911C53.0181 57.6321 53.0474 57.7831 53.0465 57.9355ZM47.6502 52.0549L46.0077 53.6973L44.6878 52.3774L46.3303 50.735L47.6502 52.0549ZM21.3352 46.5029C19.1179 44.2906 17.7365 41.3778 17.4265 38.2611C17.1164 35.1443 17.8969 32.0165 19.6348 29.4107C21.3727 26.8049 23.9606 24.8826 26.9572 23.9712C29.9539 23.0599 33.1738 23.216 36.0682 24.413C38.9627 25.61 41.3524 27.7738 42.83 30.5355C44.3077 33.2972 44.7818 36.4858 44.1716 39.558C43.5615 42.6301 41.9047 45.3956 39.4838 47.383C37.0629 49.3703 34.0277 50.4566 30.8955 50.4566C29.1198 50.4623 27.3605 50.1158 25.7195 49.4371C24.0784 48.7585 22.5883 47.7612 21.3352 46.5029ZM56.2499 44.0726H45.7026C47.1762 41.0019 47.6606 37.5497 47.0889 34.1922C46.5173 30.8346 44.9178 27.7372 42.5111 25.3272C36.1063 18.9226 25.6851 18.9226 19.2805 25.3272C16.8738 27.7372 15.2742 30.8346 14.7026 34.1922C14.1309 37.5497 14.6153 41.002 16.0889 44.0726H5.74971C5.3709 44.072 5.00774 43.9213 4.73988 43.6535C4.47202 43.3856 4.32131 43.0225 4.3208 42.6436V16.2331H57.6791V42.6436C57.6786 43.0225 57.5278 43.3857 57.2599 43.6536C56.992 43.9214 56.6288 44.0721 56.2499 44.0726ZM5.74971 2.90625H56.2499C56.6287 2.90676 56.9919 3.05747 57.2597 3.32533C57.5276 3.59319 57.6783 3.95634 57.6788 4.33516V13.3265H4.32056V4.33516C4.32107 3.9563 4.47181 3.59312 4.73973 3.32525C5.00764 3.05738 5.37085 2.9067 5.74971 2.90625ZM7.88992 8.11655C7.88992 7.73116 8.04301 7.36155 8.31553 7.08904C8.58804 6.81652 8.95765 6.66343 9.34304 6.66343H9.42781C9.8132 6.66343 10.1828 6.81652 10.4553 7.08904C10.7278 7.36155 10.8809 7.73116 10.8809 8.11655C10.8809 8.50194 10.7278 8.87155 10.4553 9.14406C10.1828 9.41658 9.8132 9.56968 9.42781 9.56968H9.34304C8.95765 9.56968 8.58804 9.41658 8.31553 9.14406C8.04301 8.87155 7.88992 8.50194 7.88992 8.11655ZM12.5337 8.11655C12.5337 7.73116 12.6868 7.36155 12.9594 7.08904C13.2319 6.81652 13.6015 6.66343 13.9869 6.66343H14.0716C14.457 6.66343 14.8266 6.81652 15.0991 7.08904C15.3717 7.36155 15.5248 7.73116 15.5248 8.11655C15.5248 8.50194 15.3717 8.87155 15.0991 9.14406C14.8266 9.41658 14.457 9.56968 14.0716 9.56968H13.9869C13.6015 9.56968 13.2319 9.41658 12.9594 9.14406C12.6868 8.87155 12.5337 8.50194 12.5337 8.11655ZM17.1776 8.11655C17.1776 7.73116 17.3307 7.36155 17.6032 7.08904C17.8757 6.81652 18.2453 6.66343 18.6307 6.66343H18.7155C19.1008 6.66343 19.4705 6.81652 19.743 7.08904C20.0155 7.36155 20.1686 7.73116 20.1686 8.11655C20.1686 8.50194 20.0155 8.87155 19.743 9.14406C19.4705 9.41658 19.1008 9.56968 18.7155 9.56968H18.6307C18.2453 9.56968 17.8757 9.41658 17.6032 9.14406C17.3307 8.87155 17.1776 8.50194 17.1776 8.11655ZM34.8645 8.11655C34.8645 7.73116 35.0176 7.36155 35.2901 7.08904C35.5626 6.81652 35.9323 6.66343 36.3176 6.66343H52.6566C53.042 6.66343 53.4116 6.81652 53.6841 7.08904C53.9566 7.36155 54.1097 7.73116 54.1097 8.11655C54.1097 8.50194 53.9566 8.87155 53.6841 9.14406C53.4116 9.41658 53.042 9.56968 52.6566 9.56968H36.3176C35.9323 9.56968 35.5626 9.41658 35.2901 9.14406C35.0176 8.87155 34.8645 8.50194 34.8645 8.11655ZM40.1274 35.1656C40.1497 35.3552 40.1344 35.5472 40.0825 35.7309C40.0306 35.9145 39.943 36.0861 39.8248 36.2359C39.7065 36.3857 39.5599 36.5107 39.3933 36.6039C39.2268 36.697 39.0435 36.7564 38.8539 36.7787C38.797 36.7854 38.7397 36.7887 38.6824 36.7888C38.3267 36.7882 37.9836 36.6573 37.718 36.4207C37.4524 36.1841 37.2828 35.8584 37.2413 35.5052L37.2279 35.3911L33.5389 39.7554C33.3302 40.0024 33.045 40.1727 32.7286 40.2393C32.4122 40.306 32.0826 40.2652 31.792 40.1234L28.165 38.3544L24.2324 43.165C23.9884 43.4633 23.6359 43.6526 23.2525 43.6911C22.869 43.7296 22.4859 43.6142 22.1875 43.3703C21.8891 43.1263 21.6999 42.7738 21.6614 42.3904C21.6229 42.0069 21.7383 41.6238 21.9822 41.3254L26.6431 35.6242C26.8504 35.3709 27.1371 35.1949 27.4568 35.1249C27.7766 35.0548 28.1106 35.0948 28.4048 35.2383L32.0497 37.0158L35.0377 33.4808L34.7236 33.5172C34.3408 33.5622 33.9558 33.4534 33.6533 33.2146C33.3508 32.9758 33.1556 32.6266 33.1105 32.2438C33.0655 31.8611 33.1743 31.4761 33.4131 31.1736C33.6519 30.8711 34.0011 30.6758 34.3839 30.6308L38.08 30.1959C38.4628 30.1509 38.8477 30.2598 39.1502 30.4985C39.4527 30.7373 39.648 31.0865 39.693 31.4692L40.1274 35.1656Z" fill="#00EAFF" stroke="#06474E" mask="url(#path-1-inside-1_824_26)"/>
<path d="M7.89014 8.11646C7.89014 7.73106 8.04323 7.36145 8.31575 7.08894C8.58826 6.81643 8.95787 6.66333 9.34326 6.66333H9.42803C9.81342 6.66333 10.183 6.81643 10.4555 7.08894C10.7281 7.36145 10.8812 7.73106 10.8812 8.11646C10.8812 8.50185 10.7281 8.87146 10.4555 9.14397C10.183 9.41648 9.81342 9.56958 9.42803 9.56958H9.34326C8.95787 9.56958 8.58826 9.41648 8.31575 9.14397C8.04323 8.87146 7.89014 8.50185 7.89014 8.11646ZM12.534 8.11646C12.534 7.73106 12.6871 7.36145 12.9596 7.08894C13.2321 6.81643 13.6017 6.66333 13.9871 6.66333H14.0719C14.4572 6.66333 14.8269 6.81643 15.0994 7.08894C15.3719 7.36145 15.525 7.73106 15.525 8.11646C15.525 8.50185 15.3719 8.87146 15.0994 9.14397C14.8269 9.41648 14.4572 9.56958 14.0719 9.56958H13.9871C13.6017 9.56958 13.2321 9.41648 12.9596 9.14397C12.6871 8.87146 12.534 8.50185 12.534 8.11646ZM17.1778 8.11646C17.1778 7.73106 17.3309 7.36145 17.6034 7.08894C17.8759 6.81643 18.2455 6.66333 18.6309 6.66333H18.7157C19.1011 6.66333 19.4707 6.81643 19.7432 7.08894C20.0157 7.36145 20.1688 7.73106 20.1688 8.11646C20.1688 8.50185 20.0157 8.87146 19.7432 9.14397C19.4707 9.41648 19.1011 9.56958 18.7157 9.56958H18.6309C18.2455 9.56958 17.8759 9.41648 17.6034 9.14397C17.3309 8.87146 17.1778 8.50185 17.1778 8.11646ZM34.8647 8.11646C34.8647 7.73106 35.0178 7.36145 35.2903 7.08894C35.5629 6.81643 35.9325 6.66333 36.3179 6.66333H52.6568C53.0422 6.66333 53.4118 6.81643 53.6843 7.08894C53.9568 7.36145 54.1099 7.73106 54.1099 8.11646C54.1099 8.50185 53.9568 8.87146 53.6843 9.14397C53.4118 9.41648 53.0422 9.56958 52.6568 9.56958H36.3179C35.9325 9.56958 35.5629 9.41648 35.2903 9.14397C35.0178 8.87146 34.8647 8.50185 34.8647 8.11646ZM40.1276 35.1655C40.1499 35.3551 40.1347 35.5471 40.0827 35.7308C40.0308 35.9144 39.9432 36.086 39.825 36.2358C39.7067 36.3856 39.5601 36.5107 39.3936 36.6038C39.227 36.6969 39.0437 36.7563 38.8542 36.7786C38.7972 36.7853 38.7399 36.7886 38.6826 36.7887C38.3269 36.7881 37.9838 36.6572 37.7182 36.4206C37.4527 36.1841 37.2831 35.8583 37.2416 35.5051L37.2281 35.391L33.5391 39.7553C33.3304 40.0023 33.0453 40.1726 32.7288 40.2392C32.4124 40.3059 32.0828 40.2651 31.7922 40.1233L28.1652 38.3543L24.2326 43.1649C23.9886 43.4632 23.6362 43.6525 23.2527 43.691C22.8692 43.7295 22.4861 43.6141 22.1877 43.3702C21.8893 43.1262 21.7001 42.7738 21.6616 42.3903C21.6231 42.0068 21.7385 41.6237 21.9824 41.3253L26.6433 35.6241C26.8506 35.3708 27.1373 35.1948 27.457 35.1248C27.7768 35.0547 28.1108 35.0947 28.405 35.2382L32.0499 37.0157L35.0379 33.4808L34.7238 33.5171C34.341 33.5621 33.956 33.4533 33.6535 33.2145C33.351 32.9757 33.1558 32.6265 33.1108 32.2437C33.0657 31.861 33.1746 31.476 33.4134 31.1735C33.6522 30.871 34.0014 30.6757 34.3841 30.6307L38.0803 30.1958C38.463 30.1508 38.848 30.2597 39.1504 30.4984C39.4529 30.7372 39.6482 31.0864 39.6932 31.4691L40.1276 35.1655Z" fill="white"/>
</svg>
