<svg width="62" height="62" viewBox="0 0 62 62" fill="none" xmlns="http://www.w3.org/2000/svg">
<mask id="path-1-inside-1_236_2" fill="white">
<path d="M5.7502 46.9788H17.8894C18.3194 47.5342 18.7841 48.0618 19.2807 48.5586C22.1859 51.4567 26.0695 53.1642 30.1691 53.3456C34.2686 53.5271 38.288 52.1695 41.4379 49.5395L42.4269 50.5285L41.6057 51.3498C41.3332 51.6223 41.1801 51.9919 41.1801 52.3773C41.1801 52.7627 41.3332 53.1323 41.6057 53.4048L49.0126 60.8116C49.7785 61.5593 50.8082 61.9749 51.8785 61.9685C52.9488 61.9621 53.9734 61.534 54.7302 60.7772C55.487 60.0204 55.9151 58.9958 55.9215 57.9255C55.9279 56.8552 55.5123 55.8255 54.7646 55.0596L47.3578 47.6528C47.2228 47.5179 47.0626 47.4108 46.8863 47.3378C46.71 47.2648 46.5211 47.2272 46.3302 47.2272C46.1394 47.2272 45.9504 47.2648 45.7741 47.3378C45.5978 47.4108 45.4376 47.5179 45.3027 47.6528L44.4815 48.4739L43.4929 47.4855C43.6328 47.3188 43.7692 47.1501 43.9021 46.9792H56.2504C57.3997 46.9778 58.5016 46.5206 59.3143 45.7079C60.127 44.8952 60.5842 43.7934 60.5856 42.644V4.33516C60.5842 3.18581 60.127 2.08393 59.3143 1.27122C58.5016 0.458517 57.3997 0.00134602 56.2504 0L5.7502 0C4.60085 0.00134602 3.49897 0.458517 2.68626 1.27122C1.87356 2.08393 1.41639 3.18581 1.41504 4.33516V42.6433C1.41629 43.7927 1.87342 44.8947 2.68614 45.7074C3.49885 46.5202 4.60079 46.9775 5.7502 46.9788ZM53.047 57.9355C53.0464 58.1645 52.9781 58.3883 52.8506 58.5786C52.7232 58.7689 52.5423 58.9173 52.3308 59.0051C52.1192 59.0928 51.8864 59.1161 51.6617 59.0719C51.4369 59.0277 51.2303 58.9181 51.0677 58.7567L48.0633 55.7523L49.7056 54.1099L52.71 57.1142C52.8177 57.222 52.9029 57.3501 52.9608 57.4911C53.0186 57.6321 53.0479 57.7831 53.047 57.9355ZM47.6507 52.0549L46.0082 53.6973L44.6883 52.3774L46.3308 50.735L47.6507 52.0549ZM21.3357 46.5029C19.1184 44.2906 17.737 41.3779 17.427 38.2611C17.1169 35.1443 17.8973 32.0165 19.6353 29.4107C21.3732 26.8049 23.9611 24.8826 26.9577 23.9712C29.9544 23.0599 33.1743 23.216 36.0687 24.413C38.9631 25.61 41.3528 27.7738 42.8305 30.5355C44.3082 33.2972 44.7823 36.4858 44.1721 39.558C43.562 42.6301 41.9052 45.3956 39.4843 47.383C37.0634 49.3703 34.0282 50.4566 30.896 50.4566C29.1202 50.4623 27.361 50.1158 25.7199 49.4371C24.0789 48.7585 22.5888 47.7612 21.3357 46.5029ZM56.2504 44.0726H45.7031C47.1767 41.0019 47.6611 37.5497 47.0894 34.1922C46.5177 30.8346 44.9183 27.7372 42.5116 25.3272C36.1068 18.9226 25.6856 18.9226 19.281 25.3272C16.8742 27.7372 15.2747 30.8346 14.703 34.1922C14.1314 37.5497 14.6158 41.002 16.0894 44.0726H5.7502C5.37138 44.072 5.00823 43.9213 4.74037 43.6535C4.47251 43.3856 4.3218 43.0225 4.32129 42.6436V16.2331H57.6796V42.6436C57.679 43.0225 57.5283 43.3857 57.2604 43.6536C56.9925 43.9214 56.6293 44.0721 56.2504 44.0726ZM5.7502 2.90625H56.2504C56.6292 2.90676 56.9924 3.05747 57.2602 3.32533C57.5281 3.59319 57.6788 3.95634 57.6793 4.33516V13.3265H4.32105V4.33516C4.32156 3.9563 4.4723 3.59312 4.74022 3.32525C5.00813 3.05738 5.37134 2.9067 5.7502 2.90625ZM7.89041 8.11655C7.89041 7.73116 8.0435 7.36155 8.31602 7.08904C8.58853 6.81652 8.95814 6.66343 9.34353 6.66343H9.4283C9.81369 6.66343 10.1833 6.81652 10.4558 7.08904C10.7283 7.36155 10.8814 7.73116 10.8814 8.11655C10.8814 8.50194 10.7283 8.87155 10.4558 9.14406C10.1833 9.41658 9.81369 9.56968 9.4283 9.56968H9.34353C8.95814 9.56968 8.58853 9.41658 8.31602 9.14406C8.0435 8.87155 7.89041 8.50194 7.89041 8.11655ZM12.5342 8.11655C12.5342 7.73116 12.6873 7.36155 12.9598 7.08904C13.2324 6.81652 13.602 6.66343 13.9874 6.66343H14.0721C14.4575 6.66343 14.8271 6.81652 15.0996 7.08904C15.3721 7.36155 15.5252 7.73116 15.5252 8.11655C15.5252 8.50194 15.3721 8.87155 15.0996 9.14406C14.8271 9.41658 14.4575 9.56968 14.0721 9.56968H13.9874C13.602 9.56968 13.2324 9.41658 12.9598 9.14406C12.6873 8.87155 12.5342 8.50194 12.5342 8.11655ZM17.1781 8.11655C17.1781 7.73116 17.3312 7.36155 17.6037 7.08904C17.8762 6.81652 18.2458 6.66343 18.6312 6.66343H18.7159C19.1013 6.66343 19.4709 6.81652 19.7435 7.08904C20.016 7.36155 20.1691 7.73116 20.1691 8.11655C20.1691 8.50194 20.016 8.87155 19.7435 9.14406C19.4709 9.41658 19.1013 9.56968 18.7159 9.56968H18.6312C18.2458 9.56968 17.8762 9.41658 17.6037 9.14406C17.3312 8.87155 17.1781 8.50194 17.1781 8.11655ZM34.865 8.11655C34.865 7.73116 35.0181 7.36155 35.2906 7.08904C35.5631 6.81652 35.9327 6.66343 36.3181 6.66343H52.6571C53.0425 6.66343 53.4121 6.81652 53.6846 7.08904C53.9571 7.36155 54.1102 7.73116 54.1102 8.11655C54.1102 8.50194 53.9571 8.87155 53.6846 9.14406C53.4121 9.41658 53.0425 9.56968 52.6571 9.56968H36.3181C35.9327 9.56968 35.5631 9.41658 35.2906 9.14406C35.0181 8.87155 34.865 8.50194 34.865 8.11655Z"/>
</mask>
<path d="M5.7502 46.9788H17.8894C18.3194 47.5342 18.7841 48.0618 19.2807 48.5586C22.1859 51.4567 26.0695 53.1642 30.1691 53.3456C34.2686 53.5271 38.288 52.1695 41.4379 49.5395L42.4269 50.5285L41.6057 51.3498C41.3332 51.6223 41.1801 51.9919 41.1801 52.3773C41.1801 52.7627 41.3332 53.1323 41.6057 53.4048L49.0126 60.8116C49.7785 61.5593 50.8082 61.9749 51.8785 61.9685C52.9488 61.9621 53.9734 61.534 54.7302 60.7772C55.487 60.0204 55.9151 58.9958 55.9215 57.9255C55.9279 56.8552 55.5123 55.8255 54.7646 55.0596L47.3578 47.6528C47.2228 47.5179 47.0626 47.4108 46.8863 47.3378C46.71 47.2648 46.5211 47.2272 46.3302 47.2272C46.1394 47.2272 45.9504 47.2648 45.7741 47.3378C45.5978 47.4108 45.4376 47.5179 45.3027 47.6528L44.4815 48.4739L43.4929 47.4855C43.6328 47.3188 43.7692 47.1501 43.9021 46.9792H56.2504C57.3997 46.9778 58.5016 46.5206 59.3143 45.7079C60.127 44.8952 60.5842 43.7934 60.5856 42.644V4.33516C60.5842 3.18581 60.127 2.08393 59.3143 1.27122C58.5016 0.458517 57.3997 0.00134602 56.2504 0L5.7502 0C4.60085 0.00134602 3.49897 0.458517 2.68626 1.27122C1.87356 2.08393 1.41639 3.18581 1.41504 4.33516V42.6433C1.41629 43.7927 1.87342 44.8947 2.68614 45.7074C3.49885 46.5202 4.60079 46.9775 5.7502 46.9788ZM53.047 57.9355C53.0464 58.1645 52.9781 58.3883 52.8506 58.5786C52.7232 58.7689 52.5423 58.9173 52.3308 59.0051C52.1192 59.0928 51.8864 59.1161 51.6617 59.0719C51.4369 59.0277 51.2303 58.9181 51.0677 58.7567L48.0633 55.7523L49.7056 54.1099L52.71 57.1142C52.8177 57.222 52.9029 57.3501 52.9608 57.4911C53.0186 57.6321 53.0479 57.7831 53.047 57.9355ZM47.6507 52.0549L46.0082 53.6973L44.6883 52.3774L46.3308 50.735L47.6507 52.0549ZM21.3357 46.5029C19.1184 44.2906 17.737 41.3779 17.427 38.2611C17.1169 35.1443 17.8973 32.0165 19.6353 29.4107C21.3732 26.8049 23.9611 24.8826 26.9577 23.9712C29.9544 23.0599 33.1743 23.216 36.0687 24.413C38.9631 25.61 41.3528 27.7738 42.8305 30.5355C44.3082 33.2972 44.7823 36.4858 44.1721 39.558C43.562 42.6301 41.9052 45.3956 39.4843 47.383C37.0634 49.3703 34.0282 50.4566 30.896 50.4566C29.1202 50.4623 27.361 50.1158 25.7199 49.4371C24.0789 48.7585 22.5888 47.7612 21.3357 46.5029ZM56.2504 44.0726H45.7031C47.1767 41.0019 47.6611 37.5497 47.0894 34.1922C46.5177 30.8346 44.9183 27.7372 42.5116 25.3272C36.1068 18.9226 25.6856 18.9226 19.281 25.3272C16.8742 27.7372 15.2747 30.8346 14.703 34.1922C14.1314 37.5497 14.6158 41.002 16.0894 44.0726H5.7502C5.37138 44.072 5.00823 43.9213 4.74037 43.6535C4.47251 43.3856 4.3218 43.0225 4.32129 42.6436V16.2331H57.6796V42.6436C57.679 43.0225 57.5283 43.3857 57.2604 43.6536C56.9925 43.9214 56.6293 44.0721 56.2504 44.0726ZM5.7502 2.90625H56.2504C56.6292 2.90676 56.9924 3.05747 57.2602 3.32533C57.5281 3.59319 57.6788 3.95634 57.6793 4.33516V13.3265H4.32105V4.33516C4.32156 3.9563 4.4723 3.59312 4.74022 3.32525C5.00813 3.05738 5.37134 2.9067 5.7502 2.90625ZM7.89041 8.11655C7.89041 7.73116 8.0435 7.36155 8.31602 7.08904C8.58853 6.81652 8.95814 6.66343 9.34353 6.66343H9.4283C9.81369 6.66343 10.1833 6.81652 10.4558 7.08904C10.7283 7.36155 10.8814 7.73116 10.8814 8.11655C10.8814 8.50194 10.7283 8.87155 10.4558 9.14406C10.1833 9.41658 9.81369 9.56968 9.4283 9.56968H9.34353C8.95814 9.56968 8.58853 9.41658 8.31602 9.14406C8.0435 8.87155 7.89041 8.50194 7.89041 8.11655ZM12.5342 8.11655C12.5342 7.73116 12.6873 7.36155 12.9598 7.08904C13.2324 6.81652 13.602 6.66343 13.9874 6.66343H14.0721C14.4575 6.66343 14.8271 6.81652 15.0996 7.08904C15.3721 7.36155 15.5252 7.73116 15.5252 8.11655C15.5252 8.50194 15.3721 8.87155 15.0996 9.14406C14.8271 9.41658 14.4575 9.56968 14.0721 9.56968H13.9874C13.602 9.56968 13.2324 9.41658 12.9598 9.14406C12.6873 8.87155 12.5342 8.50194 12.5342 8.11655ZM17.1781 8.11655C17.1781 7.73116 17.3312 7.36155 17.6037 7.08904C17.8762 6.81652 18.2458 6.66343 18.6312 6.66343H18.7159C19.1013 6.66343 19.4709 6.81652 19.7435 7.08904C20.016 7.36155 20.1691 7.73116 20.1691 8.11655C20.1691 8.50194 20.016 8.87155 19.7435 9.14406C19.4709 9.41658 19.1013 9.56968 18.7159 9.56968H18.6312C18.2458 9.56968 17.8762 9.41658 17.6037 9.14406C17.3312 8.87155 17.1781 8.50194 17.1781 8.11655ZM34.865 8.11655C34.865 7.73116 35.0181 7.36155 35.2906 7.08904C35.5631 6.81652 35.9327 6.66343 36.3181 6.66343H52.6571C53.0425 6.66343 53.4121 6.81652 53.6846 7.08904C53.9571 7.36155 54.1102 7.73116 54.1102 8.11655C54.1102 8.50194 53.9571 8.87155 53.6846 9.14406C53.4121 9.41658 53.0425 9.56968 52.6571 9.56968H36.3181C35.9327 9.56968 35.5631 9.41658 35.2906 9.14406C35.0181 8.87155 34.865 8.50194 34.865 8.11655Z" fill="#00EAFF" stroke="#06474E" mask="url(#path-1-inside-1_236_2)"/>
<path d="M7.89062 8.11658C7.89063 7.73118 8.04372 7.36158 8.31624 7.08906C8.58875 6.81655 8.95836 6.66345 9.34375 6.66345H9.42852C9.81391 6.66345 10.1835 6.81655 10.456 7.08906C10.7285 7.36158 10.8816 7.73118 10.8816 8.11658C10.8816 8.50197 10.7285 8.87158 10.456 9.14409C10.1835 9.41661 9.81391 9.5697 9.42852 9.5697H9.34375C8.95836 9.5697 8.58875 9.41661 8.31624 9.14409C8.04372 8.87158 7.89062 8.50197 7.89062 8.11658ZM12.5344 8.11658C12.5344 7.73118 12.6875 7.36158 12.9601 7.08906C13.2326 6.81655 13.6022 6.66345 13.9876 6.66345H14.0723C14.4577 6.66345 14.8273 6.81655 15.0999 7.08906C15.3724 7.36158 15.5255 7.73118 15.5255 8.11658C15.5255 8.50197 15.3724 8.87158 15.0999 9.14409C14.8273 9.41661 14.4577 9.5697 14.0723 9.5697H13.9876C13.6022 9.5697 13.2326 9.41661 12.9601 9.14409C12.6875 8.87158 12.5344 8.50197 12.5344 8.11658ZM17.1783 8.11658C17.1783 7.73118 17.3314 7.36158 17.6039 7.08906C17.8764 6.81655 18.246 6.66345 18.6314 6.66345H18.7162C19.1016 6.66345 19.4712 6.81655 19.7437 7.08906C20.0162 7.36158 20.1693 7.73118 20.1693 8.11658C20.1693 8.50197 20.0162 8.87158 19.7437 9.14409C19.4712 9.41661 19.1016 9.5697 18.7162 9.5697H18.6314C18.246 9.5697 17.8764 9.41661 17.6039 9.14409C17.3314 8.87158 17.1783 8.50197 17.1783 8.11658ZM34.8652 8.11658C34.8652 7.73118 35.0183 7.36158 35.2908 7.08906C35.5633 6.81655 35.933 6.66345 36.3183 6.66345H52.6573C53.0427 6.66345 53.4123 6.81655 53.6848 7.08906C53.9573 7.36158 54.1104 7.73118 54.1104 8.11658C54.1104 8.50197 53.9573 8.87158 53.6848 9.14409C53.4123 9.41661 53.0427 9.5697 52.6573 9.5697H36.3183C35.933 9.5697 35.5633 9.41661 35.2908 9.14409C35.0183 8.87158 34.8652 8.50197 34.8652 8.11658Z" fill="white"/>
<path d="M22.0002 38.1585L24.6296 38.5602C24.9111 39.4149 25.3678 40.1847 25.9508 40.8472L24.9501 43.2962L27.8214 45L29.5154 42.9592C29.9937 43.0666 30.4891 43.1277 31.0001 43.1277C31.5113 43.1277 32.0066 43.0666 32.4848 42.9592L34.1788 45L37.0501 43.2962L36.0493 40.8472C36.6324 40.1846 37.089 39.4149 37.3706 38.5602L40 38.1585V34.8415L37.3706 34.4398C37.0892 33.5851 36.6324 32.8153 36.0493 32.1528L37.0501 29.7039L34.1788 28L32.4848 30.0408C32.0065 29.9334 31.5111 29.8723 31.0001 29.8723C30.4889 29.8723 29.9936 29.9334 29.5154 30.0408L27.8211 28.0002L24.9499 29.704L25.9505 32.1529C25.3674 32.8155 24.9108 33.5853 24.6292 34.4399L22 34.8415V38.1585L22.0002 38.1585ZM27.2325 36.5C27.2325 34.4389 28.9193 32.7682 31 32.7682C33.0807 32.7682 34.7675 34.4389 34.7675 36.5C34.7675 38.561 33.0807 40.2318 31 40.2318C28.9193 40.2318 27.2325 38.561 27.2325 36.5Z" fill="white"/>
</svg>
