<svg width="190" height="190" viewBox="0 0 190 190" fill="none" xmlns="http://www.w3.org/2000/svg">
<path d="M94.9648 42.4883L97.3862 44.91L94.9648 47.3314" stroke="#00EAFF" stroke-width="3.71094" stroke-miterlimit="10" stroke-linecap="round" stroke-linejoin="round"/>
<path d="M89.9977 32.8884L83.1644 44.91H96.831M76.4698 32.8884H71.2096M76.4698 38.899H60.6895M76.4698 44.91H60.6895" stroke="#00EAFF" stroke-width="3.71094" stroke-miterlimit="10" stroke-linecap="round" stroke-linejoin="round"/>
<path d="M149.21 57.0125H67.5984L64.1914 97.7133L67.5984 139.694H152.921V60.7234C152.921 58.6742 151.259 57.0125 149.21 57.0125Z" fill="#11A2AA"/>
<path d="M91.0245 57.0123H32.9023C30.8528 57.0123 29.1914 58.6737 29.1914 60.7233V104.738M29.1914 115.271V139.695H152.922V60.7233" stroke="#00EAFF" stroke-width="3.71094" stroke-miterlimit="10" stroke-linecap="round" stroke-linejoin="round"/>
<path d="M157.854 150.836H24.2578C23.7657 150.836 23.2938 150.64 22.9458 150.292C22.5978 149.944 22.4023 149.472 22.4023 148.98V141.55C22.4023 141.058 22.5978 140.586 22.9458 140.238C23.2938 139.89 23.7657 139.695 24.2578 139.695H157.854C158.346 139.695 158.818 139.89 159.166 140.238C159.514 140.586 159.709 141.058 159.709 141.55V148.98C159.709 149.472 159.514 149.944 159.166 150.292C158.818 150.64 158.346 150.836 157.854 150.836Z" fill="#11A2AA"/>
<path d="M109.076 145.608H73.0312C70.9817 145.608 69.3203 143.947 69.3203 141.897V139.695H112.787V141.897C112.787 143.947 111.126 145.608 109.076 145.608Z" fill="white"/>
<path d="M157.854 150.836H24.2578C23.7657 150.836 23.2938 150.64 22.9458 150.292C22.5978 149.944 22.4023 149.472 22.4023 148.98V141.55C22.4023 141.058 22.5978 140.586 22.9458 140.238C23.2938 139.89 23.7657 139.695 24.2578 139.695H157.854C158.346 139.695 158.818 139.89 159.166 140.238C159.514 140.586 159.709 141.058 159.709 141.55V148.98C159.709 149.472 159.514 149.944 159.166 150.292C158.818 150.64 158.346 150.836 157.854 150.836Z" stroke="#00EAFF" stroke-width="3.71094" stroke-miterlimit="10" stroke-linecap="round" stroke-linejoin="round"/>
<path d="M167.595 83.2123V73.064C167.595 72.6123 167.443 72.1737 167.163 71.8189C166.884 71.4641 166.493 71.2137 166.054 71.1079L161.368 69.9802C160.664 67.3601 159.621 64.843 158.266 62.4922L160.783 58.3779C161.019 57.9927 161.118 57.5394 161.064 57.0909C161.011 56.6425 160.809 56.225 160.489 55.9057L153.313 48.7295C152.994 48.4102 152.576 48.2076 152.128 48.1543C151.679 48.1011 151.226 48.2003 150.841 48.4359L146.727 50.9527C144.376 49.598 141.859 48.5551 139.239 47.8504L138.111 43.1649C138.005 42.7257 137.755 42.3349 137.4 42.0553C137.045 41.7758 136.607 41.6237 136.155 41.6238H126.007C125.555 41.6239 125.116 41.7759 124.762 42.0555C124.407 42.335 124.156 42.7258 124.051 43.1649L122.923 47.8504C120.303 48.5551 117.786 49.598 115.435 50.9527L111.321 48.4359C110.935 48.2003 110.482 48.1011 110.034 48.1543C109.585 48.2076 109.168 48.4102 108.848 48.7295L101.672 55.9057C101.353 56.225 101.15 56.6425 101.097 57.0909C101.044 57.5394 101.143 57.9927 101.379 58.3779L103.895 62.4922C102.541 64.843 101.498 67.3601 100.793 69.9802L96.1076 71.1079C95.6684 71.2136 95.2775 71.464 94.9979 71.8188C94.7184 72.1736 94.5664 72.6122 94.5664 73.064V83.2123C94.5665 83.6639 94.7186 84.1025 94.9981 84.4573C95.2776 84.8121 95.6684 85.0625 96.1076 85.1683L100.793 86.2961C101.498 88.9161 102.541 91.4332 103.895 93.784L101.379 97.8983C101.143 98.2835 101.044 98.7368 101.097 99.1853C101.15 99.6337 101.353 100.051 101.672 100.371L108.848 107.547C109.168 107.866 109.585 108.069 110.034 108.122C110.482 108.175 110.935 108.076 111.321 107.84L115.435 105.324C117.786 106.678 120.303 107.721 122.923 108.426L124.051 113.111C124.156 113.55 124.407 113.941 124.761 114.221C125.116 114.5 125.555 114.652 126.007 114.652H136.155C136.607 114.652 137.045 114.5 137.4 114.221C137.755 113.941 138.005 113.55 138.111 113.111L139.239 108.426C141.859 107.721 144.376 106.678 146.727 105.324L150.841 107.84C151.226 108.076 151.679 108.175 152.128 108.122C152.576 108.069 152.994 107.866 153.313 107.547L160.489 100.371C160.809 100.051 161.011 99.6337 161.064 99.1853C161.118 98.7368 161.019 98.2835 160.783 97.8983L158.266 93.784C159.621 91.4332 160.664 88.9161 161.368 86.2961L166.054 85.1683C166.493 85.0626 166.884 84.8122 167.164 84.4574C167.443 84.1026 167.595 83.664 167.595 83.2123ZM131.08 96.808C121.129 96.808 113.059 88.7386 113.059 78.7873C113.059 68.8361 121.129 60.7663 131.08 60.7663C141.032 60.7663 149.101 68.8357 149.101 78.7873C149.101 88.739 141.032 96.808 131.08 96.808Z" fill="white"/>
<path d="M131.081 53.6372C117.193 53.6372 105.932 64.8988 105.932 78.7866C105.932 92.6744 117.193 103.936 131.081 103.936C144.969 103.936 156.23 92.6744 156.23 78.7866C156.23 64.8988 144.969 53.6372 131.081 53.6372ZM131.081 96.8077C121.129 96.8077 113.06 88.7382 113.06 78.787C113.06 68.8357 121.129 60.7659 131.081 60.7659C141.033 60.7659 149.102 68.8354 149.102 78.787C149.102 88.7386 141.033 96.8077 131.081 96.8077Z" fill="#11A2AA"/>
<path d="M167.596 83.2119V73.0636C167.596 72.612 167.444 72.1735 167.165 71.8187C166.885 71.4639 166.494 71.2134 166.055 71.1076L161.368 69.9791C160.664 67.3589 159.621 64.8418 158.266 62.4915L160.783 58.3783C161.019 57.9931 161.118 57.5397 161.065 57.0911C161.011 56.6426 160.809 56.225 160.489 55.9057L153.314 48.7295C152.994 48.4102 152.577 48.2077 152.128 48.1544C151.68 48.1012 151.226 48.2003 150.841 48.436L146.728 50.9527C144.377 49.5973 141.86 48.5544 139.24 47.8504L138.112 43.1631C138.006 42.7239 137.756 42.3331 137.401 42.0536C137.046 41.7741 136.607 41.6222 136.156 41.6223H126.007C125.556 41.6224 125.117 41.7744 124.762 42.0539C124.408 42.3333 124.157 42.724 124.051 43.1631L122.923 47.8504C120.303 48.5542 117.785 49.5971 115.435 50.9527L111.322 48.436C110.937 48.2002 110.483 48.1009 110.035 48.1541C109.586 48.2074 109.169 48.41 108.849 48.7295L101.673 55.9057C101.354 56.2251 101.151 56.6427 101.098 57.0912C101.045 57.5396 101.144 57.993 101.38 58.3783L103.896 62.4915C102.541 64.8417 101.498 67.3589 100.794 69.9791L96.1072 71.1076C95.668 71.2132 95.2772 71.4637 94.9977 71.8185C94.7182 72.1733 94.5663 72.6119 94.5664 73.0636V83.2119C94.5665 83.6635 94.7185 84.102 94.998 84.4568C95.2774 84.8116 95.6681 85.0621 96.1072 85.1679L100.794 86.2964C101.498 88.9167 102.541 91.4338 103.897 93.784L101.38 97.8972C101.144 98.2824 101.045 98.7358 101.098 99.1844C101.151 99.6329 101.354 100.05 101.674 100.37L108.85 107.546C109.169 107.865 109.587 108.068 110.035 108.121C110.484 108.174 110.937 108.075 111.322 107.839L115.436 105.322C117.786 106.678 120.303 107.721 122.923 108.424L124.052 113.112C124.157 113.551 124.408 113.942 124.763 114.221C125.117 114.501 125.556 114.653 126.008 114.652H136.156C136.608 114.652 137.046 114.5 137.401 114.221C137.756 113.941 138.006 113.551 138.112 113.112L139.241 108.424C141.861 107.721 144.378 106.678 146.728 105.322L150.841 107.839C151.227 108.075 151.68 108.174 152.128 108.121C152.577 108.068 152.995 107.865 153.314 107.546L160.49 100.37C160.809 100.05 161.012 99.6329 161.065 99.1844C161.118 98.7358 161.019 98.2825 160.783 97.8972L158.267 93.784C159.622 91.4338 160.665 88.9166 161.368 86.2964L166.056 85.1679C166.495 85.0622 166.886 84.8117 167.165 84.4569C167.444 84.1021 167.596 83.6635 167.596 83.2119Z" stroke="#00EAFF" stroke-width="3.71094" stroke-miterlimit="10" stroke-linecap="round" stroke-linejoin="round"/>
<path d="M42.0316 84.895C41.1089 83.9747 40.3772 82.8812 39.8785 81.6772C39.3799 80.4732 39.1241 79.1826 39.1259 77.8794C39.1259 72.4006 43.5683 67.9583 49.0471 67.9583L49.0467 67.959L47.3972 72.4322M50.6962 83.3483L49.0467 87.8214L49.0471 87.8006C54.5259 87.8006 58.9683 83.3583 58.9683 77.8794C58.9683 75.1385 57.8576 72.6593 56.0626 70.8639M38.7051 103.414H59.3891M38.7051 110.978H59.3891M38.7051 118.541H46.0757" stroke="#11A2AA" stroke-width="3.71094" stroke-miterlimit="10" stroke-linecap="round" stroke-linejoin="round"/>
<path d="M78.4883 70.3313H84.13M78.4883 78.22H84.13M78.4883 86.1083H84.13M78.4883 93.9967H84.13M78.4883 101.885H84.13M78.4883 109.774H84.13M78.4883 117.662H84.13" stroke="white" stroke-width="3.71094" stroke-miterlimit="10" stroke-linecap="round" stroke-linejoin="round"/>
<path d="M156.262 37.8203L152.922 34.4804L149.582 37.8203M35.8711 167.789L32.5313 164.449L29.1914 167.789" stroke="#11A2AA" stroke-width="3.71094" stroke-miterlimit="10" stroke-linecap="round" stroke-linejoin="round"/>
<path d="M44.0859 34.2837C46.1354 34.2837 47.7969 32.6222 47.7969 30.5728C47.7969 28.5233 46.1354 26.8618 44.0859 26.8618C42.0364 26.8618 40.375 28.5233 40.375 30.5728C40.375 32.6222 42.0364 34.2837 44.0859 34.2837Z" stroke="#11A2AA" stroke-width="3.71094" stroke-miterlimit="10" stroke-linecap="round" stroke-linejoin="round"/>
<path d="M57.7207 169.83C59.7702 169.83 61.4316 168.169 61.4316 166.119C61.4316 164.07 59.7702 162.408 57.7207 162.408C55.6712 162.408 54.0098 164.07 54.0098 166.119C54.0098 168.169 55.6712 169.83 57.7207 169.83Z" stroke="#11A2AA" stroke-width="3.71094" stroke-miterlimit="10" stroke-linecap="round" stroke-linejoin="round"/>
<path d="M172.326 128.536C174.376 128.536 176.037 126.874 176.037 124.825C176.037 122.775 174.376 121.114 172.326 121.114C170.277 121.114 168.615 122.775 168.615 124.825C168.615 126.874 170.277 128.536 172.326 128.536Z" stroke="#11A2AA" stroke-width="3.71094" stroke-miterlimit="10" stroke-linecap="round" stroke-linejoin="round"/>
<path d="M137.149 96L138.173 90.5769C138.588 88.3744 139.654 86.3605 141.184 84.73C143.55 82.2099 145 78.8124 145 75.0741C145 67.3011 138.732 61 131 61C123.268 61 117 67.3011 117 75.0741C117 78.8124 118.45 82.2101 120.816 84.73C122.346 86.3605 123.412 88.3744 123.827 90.5769L124.85 96H137.149Z" fill="white"/>
<path d="M129.155 96C129.155 96 129.155 86.5136 126.995 82.5806M133.632 96C133.632 96 133.632 86.5136 135.792 82.5806M128.075 85.2385H134.802M125 77V77.7767M129.333 77V77.7767M133.667 77V77.7767M138 77V77.7767" stroke="#11A2AA" stroke-width="2.38281" stroke-miterlimit="10" stroke-linecap="round" stroke-linejoin="round"/>
<path d="M137.149 96L138.173 90.5769C138.588 88.3744 139.654 86.3605 141.184 84.73C143.55 82.2099 145 78.8124 145 75.0741C145 67.3011 138.732 61 131 61C123.268 61 117 67.3011 117 75.0741C117 78.8124 118.45 82.2101 120.816 84.73C122.346 86.3605 123.412 88.3744 123.827 90.5769L124.85 96" stroke="#00EAFF" stroke-width="2.38281" stroke-miterlimit="10" stroke-linecap="round" stroke-linejoin="round"/>
<path d="M125 96H137" stroke="#00EAFF" stroke-width="2.38281" stroke-miterlimit="10" stroke-linecap="round" stroke-linejoin="round"/>
</svg>
