<svg width="116" height="116" viewBox="0 0 116 116" fill="none" xmlns="http://www.w3.org/2000/svg">
<g clip-path="url(#clip0_20_1639)">
<path d="M36.2307 39.0071H77.9463C78.6115 39.0071 79.1498 38.4688 79.1498 37.8036C79.1498 37.1384 78.6115 36.6001 77.9463 36.6001H36.2307C35.5655 36.6001 35.0272 37.1384 35.0272 37.8036C35.0272 38.4688 35.5655 39.0071 36.2307 39.0071ZM79.1498 49.9161C79.1499 49.758 79.1188 49.6015 79.0583 49.4555C78.9979 49.3094 78.9092 49.1767 78.7975 49.0649C78.6857 48.9532 78.553 48.8645 78.4069 48.8041C78.2609 48.7436 78.1044 48.7125 77.9463 48.7126H36.2307C35.5655 48.7126 35.0272 49.2509 35.0272 49.9161C35.0272 50.5813 35.5655 51.1196 36.2307 51.1196H77.9463C78.1044 51.1196 78.2609 51.0885 78.4069 51.0281C78.553 50.9676 78.6857 50.879 78.7975 50.7672C78.9092 50.6554 78.9979 50.5228 79.0583 50.3767C79.1188 50.2307 79.1499 50.0741 79.1498 49.9161ZM77.9463 60.8262H43.5668C42.9016 60.8262 42.3633 61.3645 42.3633 62.0297C42.3633 62.6949 42.9016 63.2332 43.5668 63.2332H77.9463C78.6115 63.2332 79.1498 62.6949 79.1498 62.0297C79.1498 61.3645 78.6115 60.8262 77.9463 60.8262ZM77.9463 72.9398H43.5668C42.9016 72.9398 42.3633 73.4781 42.3633 74.1433C42.3633 74.8085 42.9016 75.3468 43.5668 75.3468H77.9463C78.6115 75.3468 79.1498 74.8085 79.1498 74.1433C79.1498 73.4781 78.6115 72.9398 77.9463 72.9398ZM77.9463 85.0537H43.5668C42.9016 85.0537 42.3633 85.592 42.3633 86.2572C42.3633 86.9223 42.9016 87.4607 43.5668 87.4607H77.9463C78.6115 87.4607 79.1498 86.9223 79.1498 86.2572C79.1498 85.592 78.6115 85.0537 77.9463 85.0537Z" fill="white"/>
<path d="M19.3172 21.4221V56.7536H8.08378C4.01018 56.7536 0.695801 60.068 0.695801 64.1416V108.38C0.695801 112.453 4.01018 115.767 8.08378 115.767L86.7259 115.764C91.212 115.764 94.8613 112.114 94.8613 107.628V54.0841C102.368 53.9019 108.422 47.7519 108.422 40.2021C108.422 32.6524 102.368 26.5012 94.8613 26.319V21.4221C94.8613 16.936 91.212 13.2867 86.7259 13.2867H66.5702C66.889 12.2955 67.0514 11.2606 67.0514 10.2193C67.0514 4.51422 62.2134 -0.246762 56.1671 0.271613C51.7609 0.679426 48.1153 3.98905 47.3008 8.32228C46.9907 9.99862 47.101 11.7078 47.6094 13.2867H27.4537C22.9676 13.2869 19.3172 16.9362 19.3172 21.4221ZM37.9291 108.38C37.9291 111.114 35.7133 113.337 32.9844 113.357L8.08378 113.361C5.33716 113.361 3.1028 111.126 3.1028 108.38V64.1416C3.1028 61.395 5.33693 59.1606 8.08378 59.1606H32.9495C35.695 59.1606 37.9291 61.3948 37.9291 64.1416V108.38ZM32.9492 56.7536H29.1378V23.1075H35.1782C34.4228 26.1942 36.7537 29.152 39.914 29.152H74.2629C77.4287 29.152 79.753 26.1892 78.9987 23.1075H85.0403V30.0673C82.329 32.6057 80.6223 36.2044 80.6223 40.2021C80.6223 44.1998 82.329 47.7983 85.0403 50.3363V105.931H40.3361V64.1416C40.3361 60.068 37.0228 56.7536 32.9492 56.7536ZM92.4543 107.628C92.4543 110.788 89.8851 113.357 86.7259 113.357H38.3922C39.5952 112.042 40.3361 110.298 40.3361 108.38V108.338H86.244C86.402 108.338 86.5586 108.307 86.7046 108.247C86.8507 108.186 86.9833 108.098 87.0951 107.986C87.2069 107.874 87.2955 107.741 87.356 107.595C87.4165 107.449 87.4475 107.293 87.4475 107.135V52.1442C88.9847 53.0587 90.6853 53.6651 92.4543 53.9298V107.628ZM94.5228 28.7091C100.86 28.7091 106.015 33.8649 106.015 40.2021C106.015 46.5393 100.86 51.694 94.5228 51.694C88.1856 51.694 83.0297 46.5393 83.0297 40.2021C83.0297 33.8649 88.1856 28.7091 94.5228 28.7091ZM86.7259 15.6939C89.8851 15.6939 92.4543 18.2632 92.4543 21.4224V26.4733C90.6853 26.7381 88.9847 27.3446 87.4475 28.2591V21.904C87.4475 21.746 87.4165 21.5894 87.356 21.4434C87.2955 21.2974 87.2069 21.1647 87.0951 21.0529C86.9833 20.9411 86.8507 20.8525 86.7046 20.792C86.5586 20.7316 86.402 20.7005 86.244 20.7005H77.9824L76.1848 16.8913C75.9812 16.4566 75.7188 16.0626 75.4286 15.6937L86.7259 15.6939ZM43.655 15.6962H49.4398C50.3526 15.6962 50.9383 14.7045 50.4893 13.9039C49.6161 12.349 49.3315 10.5707 49.6666 8.76431C50.2731 5.53579 53.0997 2.97246 56.3846 2.66932C60.9308 2.25766 64.6446 5.86612 64.6446 10.2193C64.6446 11.5157 64.3143 12.7896 63.6879 13.9027C63.232 14.7154 63.8596 15.6962 64.7373 15.6962H70.5221C72.0077 15.6962 73.3745 16.566 74.0069 17.9152L76.5032 23.2074C77.2748 24.8514 76.0872 26.745 74.2631 26.745H39.914C38.0741 26.745 36.9114 24.8337 37.6715 23.2108L40.1714 17.9115C40.8026 16.566 42.1694 15.6962 43.655 15.6962ZM37.9936 16.8879L36.1943 20.7005H27.9343C27.7762 20.7005 27.6197 20.7316 27.4736 20.792C27.3276 20.8525 27.1949 20.9411 27.0831 21.0529C26.9714 21.1647 26.8827 21.2974 26.8223 21.4434C26.7618 21.5894 26.7307 21.746 26.7308 21.904V56.7536H21.7242V21.4221C21.7242 18.2629 24.2945 15.6937 27.4537 15.6937H38.7479C38.4586 16.0617 38.1967 16.4545 37.9936 16.8879ZM110.303 41.4056H114.101C114.766 41.4056 115.304 40.8673 115.304 40.2021C115.304 39.5369 114.766 38.9986 114.101 38.9986H110.303C109.638 38.9986 109.1 39.5369 109.1 40.2021C109.1 40.8673 109.638 41.4056 110.303 41.4056ZM111.256 36.9831L112.623 35.6163C113.093 35.1461 113.093 34.3847 112.623 33.9146C112.153 33.4444 111.392 33.4444 110.922 33.9146L109.555 35.2814C109.443 35.3931 109.354 35.5258 109.294 35.6718C109.233 35.8178 109.202 35.9742 109.202 36.1323C109.202 36.2903 109.233 36.4468 109.294 36.5928C109.354 36.7388 109.443 36.8714 109.555 36.9831C109.666 37.0949 109.799 37.1835 109.945 37.244C110.091 37.3045 110.248 37.3357 110.406 37.3357C110.564 37.3357 110.72 37.3045 110.866 37.244C111.012 37.1835 111.145 37.0949 111.256 36.9831ZM109.553 43.4213C109.442 43.5331 109.353 43.6657 109.292 43.8117C109.232 43.9577 109.201 44.1142 109.201 44.2722C109.201 44.4302 109.232 44.5867 109.292 44.7327C109.353 44.8787 109.442 45.0113 109.553 45.1231L110.919 46.4888C111.389 46.9589 112.151 46.9589 112.621 46.4888C113.091 46.0187 113.091 45.2572 112.621 44.7871L111.255 43.4213C111.143 43.3096 111.011 43.2209 110.865 43.1604C110.719 43.0999 110.562 43.0688 110.404 43.0688C110.246 43.0688 110.09 43.0999 109.944 43.1604C109.798 43.2209 109.665 43.3096 109.553 43.4213Z" fill="#00EAFF"/>
<path d="M91.8442 43.9797C91.9559 44.0914 92.0886 44.1801 92.2346 44.2406C92.3806 44.3011 92.537 44.3322 92.6951 44.3322C92.8531 44.3322 93.0096 44.3011 93.1556 44.2406C93.3016 44.1801 93.4342 44.0914 93.5459 43.9797L99.3989 38.1255C99.8691 37.6554 99.8691 36.8939 99.3989 36.4238C98.9288 35.9537 98.1674 35.9537 97.6972 36.4238L92.6952 41.427L91.3471 40.0789C90.877 39.6088 90.1155 39.6088 89.6454 40.0789C89.1753 40.549 89.1753 41.3105 89.6454 41.7806L91.8442 43.9797ZM57.0886 13.9205C59.1361 13.9205 60.8013 12.255 60.8013 10.2078C60.8013 8.16058 59.1358 6.49512 57.0886 6.49512C55.0414 6.49512 53.3759 8.16058 53.3759 10.2078C53.3759 12.255 55.0414 13.9205 57.0886 13.9205ZM57.0886 8.90189C57.8091 8.90189 58.3943 9.4871 58.3943 10.2076C58.3943 10.928 57.8091 11.5133 57.0886 11.5133C56.3681 11.5133 55.7829 10.928 55.7829 10.2076C55.7832 9.86136 55.9208 9.52939 56.1656 9.28458C56.4104 9.03977 56.7424 8.90213 57.0886 8.90189ZM31.3593 91.5505H29.2815C27.4774 91.5505 26.0095 93.0173 26.0095 94.8214V107.117C26.0095 108.921 27.4774 110.389 29.2815 110.389H31.3593C33.1634 110.389 34.6313 108.921 34.6313 107.117V94.8214C34.6313 93.0173 33.1634 91.5505 31.3593 91.5505ZM32.2243 107.117C32.2241 107.347 32.1329 107.566 31.9707 107.729C31.8086 107.891 31.5886 107.982 31.3593 107.982H29.2815C29.0521 107.982 28.8322 107.891 28.67 107.729C28.5078 107.566 28.4166 107.347 28.4165 107.117V94.8214C28.4165 94.3372 28.7962 93.9575 29.2815 93.9575H31.3593C31.8446 93.9575 32.2243 94.3372 32.2243 94.8214V107.117ZM11.8835 81.3326H9.79619C7.99207 81.3326 6.52417 82.8005 6.52417 84.6046V86.6908C6.52417 88.4949 7.99207 89.9628 9.79619 89.9628H11.8835C13.6876 89.9628 15.1544 88.4949 15.1544 86.6908V84.6046C15.1544 82.8005 13.6876 81.3326 11.8835 81.3326ZM12.7474 86.6908C12.7473 86.9199 12.6563 87.1397 12.4943 87.3019C12.3323 87.4641 12.1127 87.5554 11.8835 87.5558H9.79619C9.56682 87.5556 9.34691 87.4644 9.18473 87.3022C9.02254 87.14 8.93135 86.9201 8.93117 86.6908V84.6046C8.93135 84.3752 9.02254 84.1553 9.18473 83.9931C9.34691 83.8309 9.56682 83.7397 9.79619 83.7396H11.8835C12.1127 83.74 12.3323 83.8313 12.4943 83.9934C12.6563 84.1556 12.7473 84.3754 12.7474 84.6046V86.6908ZM10.4462 79.7496H30.5872C32.7486 79.7496 34.5078 77.9901 34.5078 75.8289V66.1633C34.5078 64.0008 32.7483 62.2413 30.5872 62.2413H10.4462C8.28365 62.2413 6.52417 64.0008 6.52417 66.1633V75.8289C6.52417 77.9901 8.28365 79.7496 10.4462 79.7496ZM8.93117 66.1631C8.93153 65.7614 9.09126 65.3762 9.37531 65.0922C9.65935 64.8081 10.0445 64.6484 10.4462 64.648H30.5872C31.4216 64.648 32.1008 65.3273 32.1008 66.1631V75.8287C32.1003 76.23 31.9406 76.6146 31.6569 76.8984C31.3731 77.1822 30.9884 77.3418 30.5872 77.3423H10.4462C9.61063 77.3423 8.93117 76.6631 8.93117 75.8287V66.1631ZM21.6221 81.3326H19.5347C17.7306 81.3326 16.2627 82.8005 16.2627 84.6046V86.6908C16.2627 88.4949 17.7306 89.9628 19.5347 89.9628H21.6221C23.4262 89.9628 24.893 88.4949 24.893 86.6908V84.6046C24.8927 82.8005 23.426 81.3326 21.6221 81.3326ZM22.4857 86.6908C22.4856 86.9199 22.3946 87.1397 22.2326 87.3019C22.0707 87.4641 21.851 87.5554 21.6218 87.5558H19.5345C19.3052 87.5556 19.0852 87.4644 18.9231 87.3022C18.7609 87.14 18.6697 86.9201 18.6695 86.6908V84.6046C18.6697 84.3752 18.7609 84.1553 18.9231 83.9931C19.0852 83.8309 19.3052 83.7397 19.5345 83.7396H21.6218C21.851 83.74 22.0707 83.8313 22.2326 83.9934C22.3946 84.1556 22.4856 84.3754 22.4857 84.6046V86.6908ZM31.3593 81.3326H29.2731C27.469 81.3326 26.0011 82.8005 26.0011 84.6046V86.6908C26.0011 88.4949 27.469 89.9628 29.2731 89.9628H31.3593C33.1634 89.9628 34.6313 88.4949 34.6313 86.6908V84.6046C34.6313 82.8005 33.1634 81.3326 31.3593 81.3326ZM32.2243 86.6908C32.2241 86.9201 32.1329 87.14 31.9707 87.3022C31.8086 87.4644 31.5886 87.5556 31.3593 87.5558H29.2731C29.0437 87.5556 28.8238 87.4644 28.6616 87.3022C28.4994 87.14 28.4083 86.9201 28.4081 86.6908V84.6046C28.4083 84.3752 28.4994 84.1553 28.6616 83.9931C28.8238 83.8309 29.0437 83.7397 29.2731 83.7396H31.3593C31.5886 83.7397 31.8086 83.8309 31.9707 83.9931C32.1329 84.1553 32.2241 84.3752 32.2243 84.6046V86.6908ZM11.8835 91.5458H9.79619C7.99207 91.5458 6.52417 93.0137 6.52417 94.8178V96.904C6.52417 98.7081 7.99207 100.176 9.79619 100.176H11.8835C13.6876 100.176 15.1544 98.7081 15.1544 96.904V94.8178C15.1544 93.0139 13.6876 91.5458 11.8835 91.5458ZM12.7474 96.904C12.7473 97.1332 12.6563 97.3529 12.4943 97.5151C12.3323 97.6773 12.1127 97.7686 11.8835 97.769H9.79619C9.56682 97.7688 9.34691 97.6776 9.18473 97.5154C9.02254 97.3532 8.93135 97.1333 8.93117 96.904V94.8178C8.93135 94.5884 9.02254 94.3685 9.18473 94.2063C9.34691 94.0441 9.56682 93.9529 9.79619 93.9528H11.8835C12.1127 93.9532 12.3323 94.0445 12.4943 94.2067C12.6563 94.3688 12.7473 94.5886 12.7474 94.8178V96.904ZM21.6221 91.5458H19.5347C17.7306 91.5458 16.2627 93.0137 16.2627 94.8178V96.904C16.2627 98.7081 17.7306 100.176 19.5347 100.176H21.6221C23.4262 100.176 24.893 98.7081 24.893 96.904V94.8178C24.8927 93.0139 23.426 91.5458 21.6221 91.5458ZM22.4857 96.904C22.4856 97.1332 22.3946 97.3529 22.2326 97.5151C22.0707 97.6773 21.851 97.7686 21.6218 97.769H19.5345C19.3052 97.7688 19.0852 97.6776 18.9231 97.5154C18.7609 97.3532 18.6697 97.1333 18.6695 96.904V94.8178C18.6697 94.5884 18.7609 94.3685 18.9231 94.2063C19.0852 94.0441 19.3052 93.9529 19.5345 93.9528H21.6218C21.851 93.9532 22.0707 94.0445 22.2326 94.2067C22.3946 94.3688 22.4856 94.5886 22.4857 94.8178V96.904ZM11.8835 101.759H9.79619C7.99207 101.759 6.52417 103.227 6.52417 105.031V107.117C6.52417 108.922 7.99207 110.389 9.79619 110.389H11.8835C13.6876 110.389 15.1544 108.922 15.1544 107.117V105.031C15.1544 103.227 13.6876 101.759 11.8835 101.759ZM12.7474 107.117C12.7473 107.346 12.6563 107.566 12.4943 107.728C12.3323 107.89 12.1127 107.982 11.8835 107.982H9.79619C9.56682 107.982 9.34691 107.891 9.18473 107.729C9.02254 107.566 8.93135 107.347 8.93117 107.117V105.031C8.93135 104.802 9.02254 104.582 9.18473 104.42C9.34691 104.257 9.56682 104.166 9.79619 104.166H11.8835C12.1127 104.166 12.3323 104.258 12.4943 104.42C12.6563 104.582 12.7473 104.802 12.7474 105.031V107.117ZM21.6221 101.759H19.5347C17.7306 101.759 16.2627 103.227 16.2627 105.031V107.117C16.2627 108.922 17.7306 110.389 19.5347 110.389H21.6221C23.4262 110.389 24.893 108.922 24.893 107.117V105.031C24.8927 103.227 23.426 101.759 21.6221 101.759ZM22.4857 107.117C22.4856 107.346 22.3946 107.566 22.2326 107.728C22.0707 107.89 21.851 107.982 21.6218 107.982H19.5345C19.3052 107.982 19.0852 107.891 18.9231 107.729C18.7609 107.566 18.6697 107.347 18.6695 107.117V105.031C18.6697 104.802 18.7609 104.582 18.9231 104.42C19.0852 104.257 19.3052 104.166 19.5345 104.166H21.6218C21.851 104.166 22.0707 104.258 22.2326 104.42C22.3946 104.582 22.4856 104.802 22.4857 105.031V107.117Z" fill="white"/>
</g>
<defs>
<clipPath id="clip0_20_1639">
<rect width="116" height="116" fill="white"/>
</clipPath>
</defs>
</svg>
