<svg width="62" height="62" viewBox="0 0 62 62" fill="none" xmlns="http://www.w3.org/2000/svg">
<path d="M40.9701 58.95H20.9633C20.8343 58.9547 20.7057 58.9333 20.5852 58.8872C20.4646 58.8411 20.3546 58.7711 20.2617 58.6815C20.1688 58.5919 20.0949 58.4845 20.0444 58.3657C19.994 58.2469 19.9679 58.1191 19.9679 57.99C19.9679 57.861 19.994 57.7332 20.0444 57.6144C20.0949 57.4956 20.1688 57.3882 20.2617 57.2986C20.3546 57.209 20.4646 57.139 20.5852 57.0929C20.7057 57.0468 20.8343 57.0254 20.9633 57.0301H40.9701C41.2186 57.0391 41.454 57.1441 41.6267 57.3232C41.7994 57.5022 41.8959 57.7413 41.8959 57.99C41.8959 58.2388 41.7994 58.4779 41.6267 58.6569C41.454 58.8359 41.2186 58.941 40.9701 58.95ZM56.3059 45.8476H5.69421C5.42708 45.8476 5.1709 45.7415 4.98201 45.5526C4.79313 45.3638 4.68701 45.1076 4.68701 44.8404C4.68701 44.5733 4.79313 44.3171 4.98201 44.1283C5.1709 43.9394 5.42708 43.8333 5.69421 43.8333H56.3059C56.573 43.8333 56.8292 43.9394 57.0181 44.1283C57.207 44.3171 57.3131 44.5733 57.3131 44.8404C57.3131 45.1076 57.207 45.3638 57.0181 45.5526C56.8292 45.7415 56.573 45.8476 56.3059 45.8476ZM41.2458 48.8516H39.8269C39.5598 48.8516 39.3036 48.7455 39.1147 48.5566C38.9258 48.3677 38.8197 48.1115 38.8197 47.8444C38.8197 47.5773 38.9258 47.3211 39.1147 47.1322C39.3036 46.9433 39.5598 46.8372 39.8269 46.8372H41.2458C41.5129 46.8372 41.7691 46.9433 41.958 47.1322C42.1469 47.3211 42.253 47.5773 42.253 47.8444C42.253 48.1115 42.1469 48.3677 41.958 48.5566C41.7691 48.7455 41.5129 48.8516 41.2458 48.8516ZM46.3951 48.8516H44.9749C44.7078 48.8516 44.4516 48.7455 44.2627 48.5566C44.0738 48.3677 43.9677 48.1115 43.9677 47.8444C43.9677 47.5773 44.0738 47.3211 44.2627 47.1322C44.4516 46.9433 44.7078 46.8372 44.9749 46.8372H46.3938C46.6609 46.8372 46.9171 46.9433 47.106 47.1322C47.2949 47.3211 47.401 47.5773 47.401 47.8444C47.401 48.1115 47.2949 48.3677 47.106 48.5566C46.9171 48.7455 46.6609 48.8516 46.3938 48.8516H46.3951ZM51.5444 48.8516H50.026C49.7589 48.8516 49.5027 48.7455 49.3138 48.5566C49.1249 48.3677 49.0188 48.1115 49.0188 47.8444C49.0188 47.5773 49.1249 47.3211 49.3138 47.1322C49.5027 46.9433 49.7589 46.8372 50.026 46.8372H51.5444C51.8115 46.8372 52.0677 46.9433 52.2566 47.1322C52.4454 47.3211 52.5516 47.5773 52.5516 47.8444C52.5516 48.1115 52.4454 48.3677 52.2566 48.5566C52.0677 48.7455 51.8115 48.8516 51.5444 48.8516Z" fill="#00EAFF"/>
<path d="M25.1011 59.0001C24.9489 59.0003 24.7985 58.966 24.6614 58.8996C24.5243 58.8333 24.4041 58.7368 24.3097 58.6173C24.2153 58.4978 24.1492 58.3585 24.1164 58.2098C24.0836 58.0611 24.085 57.9069 24.1204 57.7588L25.8301 50.6165C25.8609 50.4878 25.9168 50.3665 25.9945 50.2595C26.0722 50.1525 26.1703 50.0618 26.283 49.9926C26.3958 49.9235 26.521 49.8772 26.6517 49.8565C26.7823 49.8357 26.9158 49.8409 27.0444 49.8718C27.173 49.9026 27.2943 49.9585 27.4014 50.0362C27.5084 50.1139 27.5991 50.2119 27.6682 50.3247C27.7374 50.4375 27.7837 50.5627 27.8044 50.6934C27.8251 50.824 27.8199 50.9574 27.7891 51.0861L26.0794 58.2271C26.0268 58.4471 25.9017 58.643 25.7242 58.7832C25.5468 58.9234 25.3273 58.9998 25.1011 59.0001ZM36.8979 59.0001C36.6655 59.0005 36.4402 58.9204 36.26 58.7736C36.0799 58.6267 35.9561 58.4221 35.9096 58.1944L34.4555 51.0521C34.4291 50.9225 34.4285 50.7889 34.4538 50.6591C34.479 50.5292 34.5296 50.4056 34.6026 50.2953C34.75 50.0725 34.9799 49.9175 35.2417 49.8642C35.5035 49.811 35.7757 49.8639 35.9985 50.0113C36.2213 50.1588 36.3763 50.3887 36.4296 50.6505L37.8863 57.7915C37.9161 57.938 37.9131 58.0892 37.8772 58.2343C37.8414 58.3795 37.7737 58.5148 37.6791 58.6305C37.5845 58.7462 37.4653 58.8394 37.3302 58.9034C37.1951 58.9673 37.0474 59.0003 36.8979 59.0001Z" fill="#00EAFF"/>
<path d="M54.543 51.859H7.45654C7.09007 51.8663 6.72593 51.7993 6.38604 51.6621C6.04614 51.5249 5.73752 51.3203 5.47875 51.0608C5.21998 50.8012 5.01642 50.4919 4.8803 50.1516C4.74419 49.8112 4.67835 49.4469 4.68675 49.0804V20.267C4.68675 18.6794 5.90546 17.4355 7.46284 17.4355H12.9873C13.2544 17.4355 13.5106 17.5417 13.6995 17.7305C13.8884 17.9194 13.9945 18.1756 13.9945 18.4427C13.9945 18.7099 13.8884 18.9661 13.6995 19.1549C13.5106 19.3438 13.2544 19.4499 12.9873 19.4499H7.45654C6.85474 19.4499 6.69485 19.9636 6.69485 20.267V49.0804C6.69485 49.3096 6.76913 49.8447 7.45654 49.8447H54.543C54.6442 49.848 54.7449 49.8305 54.839 49.7933C54.9331 49.756 55.0186 49.6998 55.09 49.6281C55.1614 49.5564 55.2174 49.4708 55.2543 49.3766C55.2912 49.2824 55.3084 49.1816 55.3047 49.0804V20.267C55.3047 19.8717 54.9988 19.4499 54.543 19.4499H49.0173C48.7502 19.4499 48.494 19.3438 48.3051 19.1549C48.1162 18.9661 48.0101 18.7099 48.0101 18.4427C48.0101 18.1756 48.1162 17.9194 48.3051 17.7305C48.494 17.5417 48.7502 17.4355 49.0173 17.4355H54.543C55.2852 17.4455 55.9933 17.749 56.5124 18.2796C57.0314 18.8102 57.3192 19.5248 57.3128 20.267V49.0804C57.3169 49.4457 57.248 49.8081 57.1104 50.1465C56.9727 50.4848 56.769 50.7923 56.5111 51.0511C56.2532 51.3098 55.9463 51.5145 55.6084 51.6532C55.2705 51.7919 54.9083 51.8619 54.543 51.859Z" fill="#00EAFF"/>
<path d="M46.0196 38.3552H15.98C14.9179 38.3536 13.8998 37.9308 13.149 37.1795C12.3983 36.4283 11.9761 35.4099 11.9751 34.3479V11.662C11.9751 11.3949 12.0812 11.1387 12.2701 10.9498C12.459 10.7609 12.7152 10.6548 12.9823 10.6548H49.0173C49.2844 10.6548 49.5406 10.7609 49.7295 10.9498C49.9184 11.1387 50.0245 11.3949 50.0245 11.662V34.3479C50.0235 35.4099 49.6013 36.4283 48.8506 37.1795C48.0998 37.9308 47.0817 38.3536 46.0196 38.3552ZM13.9895 12.6717V34.3479C13.9898 34.8759 14.1996 35.3822 14.5727 35.7559C14.9458 36.1295 15.4519 36.3398 15.98 36.3408H46.0196C46.5477 36.3398 47.0538 36.1295 47.4269 35.7559C47.8 35.3822 48.0098 34.8759 48.0101 34.3479V12.6692L13.9895 12.6717Z" fill="#00EAFF"/>
<path d="M49.0173 12.6691C48.7502 12.6691 48.494 12.563 48.3051 12.3741C48.1162 12.1852 48.0101 11.929 48.0101 11.6619V7.00361C48.0088 6.47623 47.7986 5.97085 47.4256 5.59805C47.0525 5.22525 46.547 5.01539 46.0196 5.0144H15.98C15.4519 5.0154 14.9458 5.22577 14.5727 5.59939C14.1996 5.973 13.9898 6.47935 13.9895 7.00739V11.6657C13.9895 11.9328 13.8834 12.189 13.6945 12.3779C13.5056 12.5668 13.2494 12.6729 12.9823 12.6729C12.7152 12.6729 12.459 12.5668 12.2701 12.3779C12.0812 12.189 11.9751 11.9328 11.9751 11.6657V7.00739C11.9761 5.94531 12.3983 4.92697 13.149 4.17573C13.8998 3.42449 14.9179 3.00167 15.98 3H46.0196C47.0817 3.00167 48.0998 3.42449 48.8506 4.17573C49.6013 4.92697 50.0235 5.94531 50.0245 7.00739V11.6657C50.0235 11.9321 49.917 12.1874 49.7282 12.3754C49.5394 12.5635 49.2838 12.6691 49.0173 12.6691Z" fill="#00EAFF"/>
<path fill-rule="evenodd" clip-rule="evenodd" d="M42.9123 8.84154H45.4643C45.7314 8.84154 45.9876 8.73543 46.1765 8.54654C46.3653 8.35766 46.4715 8.10147 46.4715 7.83435C46.4715 7.56722 46.3653 7.31104 46.1765 7.12215C45.9876 6.93326 45.7314 6.82715 45.4643 6.82715H42.9123C42.6451 6.82715 42.389 6.93326 42.2001 7.12215C42.0112 7.31104 41.9051 7.56722 41.9051 7.83435C41.9051 8.10147 42.0112 8.35766 42.2001 8.54654C42.389 8.73543 42.6451 8.84154 42.9123 8.84154ZM37.1901 8.84154H39.7409C40.008 8.84154 40.2642 8.73543 40.4531 8.54654C40.6419 8.35766 40.7481 8.10147 40.7481 7.83435C40.7481 7.56722 40.6419 7.31104 40.4531 7.12215C40.2642 6.93326 40.008 6.82715 39.7409 6.82715H37.1901C36.923 6.82715 36.6668 6.93326 36.4779 7.12215C36.2891 7.31104 36.1829 7.56722 36.1829 7.83435C36.1829 8.10147 36.2891 8.35766 36.4779 8.54654C36.6668 8.73543 36.923 8.84154 37.1901 8.84154ZM16.535 8.84154H32.2448C32.5119 8.84154 32.7681 8.73543 32.957 8.54654C33.1459 8.35766 33.252 8.10147 33.252 7.83435C33.252 7.56722 33.1459 7.31104 32.957 7.12215C32.7681 6.93326 32.5119 6.82715 32.2448 6.82715H16.535C16.2679 6.82715 16.0117 6.93326 15.8228 7.12215C15.6339 7.31104 15.5278 7.56722 15.5278 7.83435C15.5278 8.10147 15.6339 8.35766 15.8228 8.54654C16.0117 8.73543 16.2679 8.84154 16.535 8.84154Z" fill="white"/>
<path fill-rule="evenodd" clip-rule="evenodd" d="M15.8322 18.0166H24.0503C24.2711 18.0166 24.4827 17.9104 24.6388 17.7213C24.7949 17.5322 24.8826 17.2757 24.8826 17.0083C24.8826 16.7409 24.7949 16.4844 24.6388 16.2953C24.4827 16.1062 24.2711 16 24.0503 16H15.8322C15.6115 16 15.3998 16.1062 15.2437 16.2953C15.0877 16.4844 15 16.7409 15 17.0083C15 17.2757 15.0877 17.5322 15.2437 17.7213C15.3998 17.9104 15.6115 18.0166 15.8322 18.0166ZM15.8322 21.7574H24.0503C24.2711 21.7574 24.4827 21.6512 24.6388 21.4621C24.7949 21.273 24.8826 21.0165 24.8826 20.7491C24.8826 20.4817 24.7949 20.2252 24.6388 20.0361C24.4827 19.847 24.2711 19.7408 24.0503 19.7408H15.8322C15.6115 19.7408 15.3998 19.847 15.2437 20.0361C15.0877 20.2252 15 20.4817 15 20.7491C15 21.0165 15.0877 21.273 15.2437 21.4621C15.3998 21.6512 15.6115 21.7574 15.8322 21.7574ZM15.8322 25.5045H24.0503C24.2711 25.5045 24.4827 25.3983 24.6388 25.2092C24.7949 25.0201 24.8826 24.7636 24.8826 24.4962C24.8826 24.2288 24.7949 23.9723 24.6388 23.7832C24.4827 23.5941 24.2711 23.4879 24.0503 23.4879H15.8322C15.6115 23.4879 15.3998 23.5941 15.2437 23.7832C15.0877 23.9723 15 24.2288 15 24.4962C15 24.7636 15.0877 25.0201 15.2437 25.2092C15.3998 25.3983 15.6115 25.5045 15.8322 25.5045ZM15.8322 29.2516H24.0503C24.2711 29.2516 24.4827 29.1454 24.6388 28.9563C24.7949 28.7672 24.8826 28.5107 24.8826 28.2433C24.8826 27.9759 24.7949 27.7194 24.6388 27.5303C24.4827 27.3413 24.2711 27.235 24.0503 27.235H15.8322C15.6115 27.235 15.3998 27.3413 15.2437 27.5303C15.0877 27.7194 15 27.9759 15 28.2433C15 28.5107 15.0877 28.7672 15.2437 28.9563C15.3998 29.1454 15.6115 29.2516 15.8322 29.2516ZM15.8322 33H24.0503C24.2711 33 24.4827 32.8938 24.6388 32.7047C24.7949 32.5156 24.8826 32.2591 24.8826 31.9917C24.8826 31.7243 24.7949 31.4678 24.6388 31.2787C24.4827 31.0896 24.2711 30.9834 24.0503 30.9834H15.8322C15.6115 30.9834 15.3998 31.0896 15.2437 31.2787C15.0877 31.4678 15 31.7243 15 31.9917C15 32.2591 15.0877 32.5156 15.2437 32.7047C15.3998 32.8938 15.6115 33 15.8322 33Z" fill="#00EAFF"/>
<path d="M35.7657 23.0291L34.7972 25.9708L34.0171 25.9708L35.3401 22.4222L35.8366 22.4222L35.7657 23.0291ZM36.5702 25.9708L35.5994 23.0291L35.5211 22.4222L36.0225 22.4222L37.3528 25.9708L36.5702 25.9708ZM36.5262 24.6498L36.5262 25.2226L34.6456 25.2226L34.6456 24.6498L36.5262 24.6498ZM38.4631 22.4222L38.4631 25.9708L37.7319 25.9708L37.7319 22.4222L38.4631 22.4222Z" fill="white"/>
<path d="M39.1665 16.5081L39.1665 18.3692" stroke="white" stroke-width="1.5" stroke-linecap="round"/>
<path d="M43.8608 26.583L41.9997 26.583" stroke="white" stroke-width="1.5" stroke-linecap="round"/>
<path d="M30.8613 26.583L29.0002 26.583" stroke="white" stroke-width="1.5" stroke-linecap="round"/>
<path d="M39.1665 29.5356L39.1665 31.3968" stroke="white" stroke-width="1.5" stroke-linecap="round"/>
<path d="M43.8608 23.7915L41.9997 23.7915" stroke="white" stroke-width="1.5" stroke-linecap="round"/>
<path d="M36.375 16.5081L36.375 18.3692" stroke="white" stroke-width="1.5" stroke-linecap="round"/>
<path d="M30.8613 23.7915L29.0002 23.7915" stroke="white" stroke-width="1.5" stroke-linecap="round"/>
<path d="M43.8608 21L41.9997 21" stroke="white" stroke-width="1.5" stroke-linecap="round"/>
<path d="M36.375 29.5356L36.375 31.3968" stroke="white" stroke-width="1.5" stroke-linecap="round"/>
<path d="M33.5835 16.5081L33.5835 18.3692" stroke="white" stroke-width="1.5" stroke-linecap="round"/>
<path d="M30.8613 21L29.0002 21" stroke="white" stroke-width="1.5" stroke-linecap="round"/>
<path d="M33.583 29.5356L33.583 31.3968" stroke="white" stroke-width="1.5" stroke-linecap="round"/>
<mask id="path-21-inside-1_946_3" fill="white">
<rect x="30.7915" y="18.3691" width="11.1667" height="11.1667" rx="1"/>
</mask>
<rect x="30.7915" y="18.3691" width="11.1667" height="11.1667" rx="1" stroke="white" stroke-width="3" mask="url(#path-21-inside-1_946_3)"/>
</svg>
