<svg width="62" height="62" viewBox="0 0 62 62" fill="none" xmlns="http://www.w3.org/2000/svg">
<path d="M54.5604 9.44101C55.791 9.44101 56.7867 8.44525 56.7867 7.21464C56.7867 5.98404 55.791 4.98828 54.5604 4.98828C53.3297 4.98828 52.334 5.98404 52.334 7.21464C52.334 8.44525 53.3391 9.44101 54.5604 9.44101ZM54.5604 6.57586C54.9173 6.57586 55.2085 6.86707 55.2085 7.22404C55.2085 7.58101 54.9173 7.87222 54.5604 7.87222C54.194 7.87222 53.9122 7.5904 53.9122 7.22404C53.9122 6.85768 54.2034 6.57586 54.5604 6.57586Z" fill="white" stroke="white" stroke-width="0.5"/>
<path d="M57.0311 1.39038H11.2638C9.5259 1.39038 8.10742 2.80887 8.10742 4.54674V9.36584H4.96984C3.23196 9.36584 1.81348 10.7843 1.81348 12.5222V52.0989C1.81348 53.8367 3.23196 55.2552 4.96984 55.2552H25.9465V59.8207C25.9465 60.2528 26.3035 60.6098 26.7356 60.6098H41.5592C41.9914 60.6098 42.3483 60.2528 42.3483 59.8207V55.2552H50.7371C52.475 55.2552 53.8935 53.8367 53.8935 52.0989V47.2798H57.0311C58.7689 47.2798 60.1874 45.8613 60.1874 44.1234V4.54674C60.1874 2.80887 58.7689 1.39038 57.0311 1.39038ZM9.6856 4.54674C9.6856 3.67311 10.3995 2.96856 11.2638 2.96856H57.0311C57.9047 2.96856 58.6092 3.6825 58.6092 4.54674V11.4701H28.6614L25.1386 7.81584C24.8662 7.53402 24.4904 7.37432 24.1053 7.37432H16.3459C15.5568 7.37432 14.9086 8.0225 14.9086 8.81159V11.4701H9.6856V4.54674ZM4.96984 53.6864C4.0962 53.6864 3.39166 52.9725 3.39166 52.1083V12.5222C3.39166 11.6486 4.1056 10.944 4.96984 10.944H8.10742V44.1328C8.10742 45.8707 9.5259 47.2892 11.2638 47.2892H28.3983C28.7083 47.8904 28.8492 48.5667 28.7929 49.2619H27.5717C26.6698 49.2619 25.9465 49.9946 25.9465 50.8871V53.6864H4.96984ZM33.3677 37.1625C33.5274 36.8807 33.8186 36.7022 34.1474 36.7022C34.6359 36.7022 35.0304 37.0967 35.0304 37.5852C35.0304 37.9046 34.8614 38.1958 34.5889 38.3555C34.2883 38.534 33.9314 38.5152 33.565 38.3086C33.5166 38.2837 33.4772 38.2442 33.4523 38.1958C33.1517 37.7167 33.2738 37.341 33.3677 37.1625ZM33.3583 35.2743C32.7794 35.4668 32.2935 35.8689 31.9962 36.4016C31.5453 37.2095 31.6017 38.1958 32.1277 39.0413C32.2968 39.3043 32.5223 39.5204 32.7947 39.6801C33.2268 39.9243 33.6965 40.0558 34.1568 40.0558C34.5889 40.0558 35.0117 39.9431 35.3874 39.7271C36.1389 39.2855 36.6086 38.4683 36.6086 37.5946C36.6086 36.5143 35.9041 35.6031 34.9365 35.2743V31.2161L41.9162 43.8134C41.9068 43.8228 41.8974 43.8416 41.8692 43.851C39.3986 44.4898 37.7829 46.8007 37.9144 49.2619H30.3898C30.5308 46.7913 28.9056 44.4804 26.388 43.7758L33.3583 31.2161V35.2743ZM40.7701 59.0316H27.5247L27.5717 50.8307H40.7232C40.7514 50.8307 40.7701 50.8495 40.7701 50.8777V59.0316ZM52.3153 52.0989C52.3153 52.9725 51.6014 53.6771 50.7371 53.6771H42.3483V50.8777C42.3483 49.9758 41.6156 49.2525 40.7232 49.2525H39.502C39.4456 48.5574 39.5959 47.881 39.8965 47.2798H52.3153V52.0989ZM57.0311 45.711H41.4277C41.6814 45.5701 41.9538 45.448 42.2544 45.3728C42.7523 45.2413 43.1562 44.8937 43.3629 44.424C43.5601 43.9637 43.532 43.447 43.2877 43.0055L35.2089 28.4543C35.0023 28.0692 34.5983 27.8249 34.1568 27.8249C33.7059 27.8343 33.302 28.0598 33.0859 28.4449L24.9977 43.0055C24.7535 43.447 24.7347 43.9731 24.932 44.4334C25.1292 44.9031 25.5332 45.2413 26.0311 45.3728C26.3317 45.448 26.5947 45.5701 26.8577 45.711H11.2638C10.3901 45.711 9.6856 44.9971 9.6856 44.1328V13.0483H15.0401C15.8292 13.0483 16.4774 12.4001 16.4774 11.611V8.9525H24.0395L27.5623 12.6067C27.8347 12.8886 28.2104 13.0483 28.5956 13.0483H58.6092V44.1234C58.6092 44.9971 57.9047 45.711 57.0311 45.711Z" fill="#00EAFF" stroke="#00EAFF" stroke-width="0.5"/>
<path d="M49.1869 9.44101C50.4175 9.44101 51.4133 8.44525 51.4133 7.21464C51.4133 5.98404 50.4175 4.98828 49.1869 4.98828C47.9563 4.98828 46.9606 5.98404 46.9606 7.21464C46.9606 8.44525 47.9563 9.44101 49.1869 9.44101ZM49.1869 6.57586C49.5439 6.57586 49.8351 6.86707 49.8351 7.22404C49.8351 7.58101 49.5439 7.87222 49.1869 7.87222C48.8206 7.87222 48.5387 7.5904 48.5387 7.22404C48.5387 6.85768 48.8299 6.57586 49.1869 6.57586ZM43.8042 9.44101C45.0348 9.44101 46.0306 8.44525 46.0306 7.21464C46.0306 5.98404 45.0348 4.98828 43.8042 4.98828C42.5736 4.98828 41.5778 5.98404 41.5778 7.21464C41.5778 8.44525 42.5736 9.44101 43.8042 9.44101ZM43.8042 6.57586C44.1612 6.57586 44.4524 6.86707 44.4524 7.22404C44.4524 7.58101 44.1612 7.87222 43.8042 7.87222C43.4378 7.87222 43.156 7.5904 43.156 7.22404C43.156 6.85768 43.4472 6.57586 43.8042 6.57586ZM49.356 19.9246C48.8957 20.3849 48.6045 20.9674 48.4918 21.5874H37.4539V20.3474C37.4539 19.5019 36.7681 18.8162 35.9227 18.8162H32.3624C31.5169 18.8162 30.8312 19.5019 30.8312 20.3474V21.5874H19.8027C19.6993 20.9768 19.4081 20.3943 18.9384 19.9153C17.7454 18.741 15.7069 18.7598 14.5421 19.9246C13.9503 20.5165 13.6309 21.2962 13.6309 22.1228C13.6309 22.9589 13.9596 23.748 14.5421 24.321C15.1339 24.9316 15.923 25.2416 16.7403 25.2416C17.2569 25.2416 17.783 25.1195 18.2809 24.8659C18.8235 24.588 19.2593 24.1389 19.5209 23.5883C19.5866 23.4474 19.643 23.3065 19.6899 23.1656H27.346C23.1845 25.1946 20.0469 29.0086 18.9572 33.6116H17.736C16.8906 33.6116 16.2048 34.2974 16.2048 35.1428V38.7031C16.2048 39.5486 16.8906 40.2343 17.736 40.2343H21.2963C22.1418 40.2343 22.8275 39.5486 22.8275 38.7031V35.1428C22.8275 34.2974 22.1418 33.6116 21.2963 33.6116H20.5824C21.8975 28.6516 25.8712 24.7625 30.8593 23.5601V23.8983C30.8593 24.7437 31.5451 25.4295 32.3906 25.4295H35.9509C36.7963 25.4295 37.4821 24.7437 37.4821 23.8983V23.5601C42.4609 24.7625 46.4345 28.6516 47.759 33.6116H47.1109C46.2654 33.6116 45.5796 34.2974 45.5796 35.1428V38.7031C45.5796 39.5486 46.2654 40.2343 47.1109 40.2343H50.6712C51.5166 40.2343 52.2024 39.5486 52.2024 38.7031V35.1428C52.2024 34.2974 51.5166 33.6116 50.6712 33.6116H49.3842C48.2851 29.0086 45.1475 25.1853 40.9954 23.1656H48.6703C48.8206 23.5977 49.0648 23.9922 49.3936 24.321C49.9854 24.9316 50.7745 25.2416 51.5918 25.2416C52.1084 25.2416 52.6345 25.1195 53.1324 24.8659C53.675 24.588 54.1108 24.1389 54.3724 23.5883C54.983 22.3013 54.7669 20.9016 53.7993 19.9153C52.5687 18.7504 50.5303 18.7598 49.356 19.9246ZM18.0836 22.9213C17.9709 23.1468 17.783 23.344 17.5575 23.4568C16.7403 23.8701 16.0357 23.6071 15.6506 23.2031C15.3593 22.9213 15.1996 22.5362 15.1996 22.1228C15.1996 21.7189 15.3593 21.3337 15.6506 21.0331C15.9418 20.7419 16.3269 20.5822 16.7403 20.5822C17.1442 20.5822 17.5387 20.7419 17.8206 21.0237C18.309 21.531 18.403 22.2356 18.0836 22.9213ZM21.2775 38.6562L17.7642 38.7031L17.7172 35.1898H21.2306L21.2775 38.6562ZM50.643 38.6562L47.1296 38.7031L47.0827 35.1898H50.596L50.643 38.6562ZM32.4187 23.9077L32.4 22.724C32.4187 22.6395 32.4187 22.5549 32.4093 22.461V22.4516C32.4093 22.4234 32.4281 22.4046 32.4281 22.3765C32.4281 22.3295 32.4093 22.2919 32.4 22.2543L32.3718 20.4037H35.8851L35.9133 22.2543C35.9039 22.3013 35.8851 22.3389 35.8851 22.3859C35.8851 22.414 35.8945 22.4328 35.9039 22.461V22.4704C35.8851 22.5925 35.8945 22.7053 35.9227 22.8086L35.9415 23.8701L32.4187 23.9077ZM52.9069 22.9213C52.7942 23.1468 52.6063 23.344 52.3809 23.4568C51.5636 23.8701 50.859 23.6071 50.4739 23.2031C50.1827 22.9213 50.023 22.5362 50.023 22.1228C50.023 21.7189 50.1827 21.3337 50.4739 21.0331C50.7651 20.7419 51.1502 20.5822 51.5636 20.5822C51.9675 20.5822 52.3621 20.7419 52.6439 21.0237C53.1324 21.531 53.2263 22.2356 52.9069 22.9213Z" fill="white" stroke="white" stroke-width="0.5"/>
</svg>
