<svg width="46" height="39" viewBox="0 0 46 39" fill="none" xmlns="http://www.w3.org/2000/svg">
<path fill-rule="evenodd" clip-rule="evenodd" d="M30.2397 11.52L35.0396 16.32C35.7396 17.03 36.8797 17.03 37.5797 16.32L42.3797 11.52C43.0897 10.81 43.0897 9.67 42.3797 8.98C41.6797 8.28 40.5397 8.27 39.8397 8.98L38.1197 10.7V1.84C38.1197 0.839996 37.3197 0.0400009 36.3197 0.0400009C35.3197 0.0400009 34.5197 0.839996 34.5197 1.84V10.7L32.7997 8.98C32.0897 8.27 30.9497 8.27 30.2597 8.98C29.5597 9.68 29.5597 10.82 30.2597 11.52H30.2397ZM14.1197 33.16L16.1397 36.9C16.6097 37.78 17.6997 38.1 18.5797 37.63C19.4597 37.16 19.7797 36.07 19.3097 35.19L16.5897 30.13C16.7197 30 16.8296 29.86 16.9096 29.69L18.9197 25.95V30.04C18.9197 31.37 19.9897 32.44 21.3197 32.44H24.9197C26.2497 32.44 27.3197 31.37 27.3197 30.04V25.95L29.3397 29.69C29.4297 29.86 29.5396 30 29.6596 30.13L26.9397 35.19C26.4697 36.07 26.7997 37.15 27.6797 37.63C28.5597 38.11 29.6397 37.77 30.1197 36.9L32.1297 33.16V36.05C32.1297 37.38 33.1997 38.45 34.5297 38.45H38.1297C39.4597 38.45 40.5297 37.38 40.5297 36.05V33.16L42.5497 36.9C43.0197 37.78 44.1097 38.1 44.9897 37.63C45.8697 37.16 46.1896 36.07 45.7196 35.19L42.8797 29.92C41.7297 27.78 39.4997 26.45 37.0697 26.45H35.5996C34.3796 26.45 33.2097 26.79 32.1997 27.39L29.6797 22.72C28.5297 20.58 26.2997 19.25 23.8697 19.25H22.4096C19.9796 19.25 17.7496 20.59 16.5996 22.72L14.0797 27.39C13.0697 26.78 11.8997 26.45 10.6697 26.45H9.20969C6.77969 26.45 4.5497 27.78 3.3997 29.92L0.56968 35.19C0.0996799 36.07 0.42966 37.16 1.29966 37.63C2.17966 38.1 3.26966 37.77 3.73966 36.9L5.74967 33.17V36.06C5.74967 37.39 6.8197 38.46 8.1497 38.46H11.7497C13.0797 38.46 14.1497 37.39 14.1497 36.06V33.17L14.1197 33.16ZM36.3197 25.25C37.9797 25.25 39.3197 23.91 39.3197 22.25C39.3197 20.59 37.9797 19.25 36.3197 19.25C34.6597 19.25 33.3197 20.59 33.3197 22.25C33.3197 23.91 34.6597 25.25 36.3197 25.25ZM12.9197 22.25C12.9197 20.59 11.5797 19.25 9.91966 19.25C8.25966 19.25 6.91966 20.59 6.91966 22.25C6.91966 23.91 8.25966 25.25 9.91966 25.25C11.5797 25.25 12.9197 23.91 12.9197 22.25ZM26.1197 15.05C26.1197 13.39 24.7797 12.05 23.1197 12.05C21.4597 12.05 20.1197 13.39 20.1197 15.05C20.1197 16.71 21.4597 18.05 23.1197 18.05C24.7797 18.05 26.1197 16.71 26.1197 15.05ZM9.91966 0.0500031C8.91966 0.0500031 8.11967 0.849998 8.11967 1.85V10.71L6.38969 8.98C5.67969 8.28 4.54965 8.28 3.84965 8.98C3.14965 9.68 3.13965 10.82 3.84965 11.52L8.6497 16.32C9.3597 17.02 10.4897 17.02 11.1897 16.32L15.9897 11.52C16.6897 10.82 16.6897 9.68 15.9897 8.98C15.2797 8.28 14.1397 8.28 13.4497 8.98L11.7297 10.7V1.85C11.7297 0.849998 10.9297 0.0500031 9.92967 0.0500031H9.91966Z" fill="#00EAFF"/>
</svg>
