<svg width="62" height="62" viewBox="0 0 62 62" fill="none" xmlns="http://www.w3.org/2000/svg">
<path d="M57.5762 61.9229H7.33398C4.91948 61.9229 2.95508 59.9585 2.95508 57.544V7.37891C2.95508 4.9644 4.91936 3 7.33398 3H57.5762C59.9907 3 61.9551 4.9644 61.9551 7.37891V57.544C61.9551 59.9586 59.9907 61.9229 57.5762 61.9229ZM7.33398 4.84375C5.93619 4.84375 4.79883 5.981 4.79883 7.37891V57.544C4.79883 58.9419 5.93608 60.0792 7.33398 60.0792H57.5762C58.9741 60.0792 60.1113 58.9419 60.1113 57.544V7.37891C60.1113 5.981 58.9741 4.84375 57.5762 4.84375H7.33398Z" fill="#00EAFF"/>
<path fill-rule="evenodd" clip-rule="evenodd" d="M8.54279 51.6039H56.3674C56.6119 51.6039 56.8463 51.5068 57.0192 51.3339C57.1921 51.161 57.2892 50.9265 57.2892 50.682V46.0225C57.2892 45.778 57.1921 45.5435 57.0192 45.3707C56.8463 45.1978 56.6119 45.1007 56.3674 45.1007H8.54279C8.2983 45.1007 8.06381 45.1978 7.89093 45.3707C7.71804 45.5435 7.62092 45.778 7.62092 46.0225V50.682C7.62092 50.9265 7.71804 51.161 7.89093 51.3339C8.06381 51.5068 8.2983 51.6039 8.54279 51.6039ZM55.4455 49.7602H9.46467V46.9444H55.4455V49.7602Z" fill="white"/>
<path fill-rule="evenodd" clip-rule="evenodd" d="M56.3658 24.6469H48.2007C47.9562 24.6469 47.7218 24.5498 47.5489 24.3769C47.376 24.204 47.2789 23.9695 47.2789 23.725V17.9006C47.2789 17.6561 47.376 17.4217 47.5489 17.2488C47.7218 17.0759 47.9562 16.9788 48.2007 16.9788H56.3658C56.6103 16.9788 56.8448 17.0759 57.0176 17.2488C57.1905 17.4217 57.2877 17.6561 57.2877 17.9006V23.725C57.2877 23.9695 57.1905 24.204 57.0176 24.3769C56.8448 24.5498 56.6103 24.6469 56.3658 24.6469ZM49.1225 22.8032H55.4438V18.8225H49.1225V22.8032ZM44.7013 38.6255H37.7025C37.458 38.6255 37.2236 38.5284 37.0507 38.3555C36.8778 38.1826 36.7807 37.9482 36.7807 37.7037V31.8793C36.7807 31.6348 36.8778 31.4003 37.0507 31.2274C37.2236 31.0545 37.458 30.9574 37.7025 30.9574H44.7013C44.9458 30.9574 45.1803 31.0545 45.3532 31.2274C45.526 31.4003 45.6232 31.6348 45.6232 31.8793V37.7037C45.6232 37.9482 45.526 38.1826 45.3532 38.3555C45.1803 38.5284 44.9458 38.6255 44.7013 38.6255ZM38.6244 36.7818H43.7794V32.8011H38.6244V36.7818ZM43.5348 18.8225H37.7025C37.458 18.8225 37.2236 18.7254 37.0507 18.5525C36.8778 18.3796 36.7807 18.1451 36.7807 17.9006C36.7807 17.6561 36.8778 17.4217 37.0507 17.2488C37.2236 17.0759 37.458 16.9788 37.7025 16.9788H43.5348C43.7793 16.9788 44.0138 17.0759 44.1866 17.2488C44.3595 17.4217 44.4567 17.6561 44.4567 17.9006C44.4567 18.1451 44.3595 18.3796 44.1866 18.5525C44.0138 18.7254 43.7793 18.8225 43.5348 18.8225ZM43.5348 23.482H37.7025C37.458 23.482 37.2236 23.3849 37.0507 23.212C36.8778 23.0391 36.7807 22.8046 36.7807 22.5601C36.7807 22.3156 36.8778 22.0812 37.0507 21.9083C37.2236 21.7354 37.458 21.6383 37.7025 21.6383H43.5348C43.7793 21.6383 44.0138 21.7354 44.1866 21.9083C44.3595 22.0812 44.4567 22.3156 44.4567 22.5601C44.4567 22.8046 44.3595 23.0391 44.1866 23.212C44.0138 23.3849 43.7793 23.482 43.5348 23.482ZM43.5348 28.1416H37.7025C37.458 28.1416 37.2236 28.0445 37.0507 27.8716C36.8778 27.6987 36.7807 27.4642 36.7807 27.2198C36.7807 26.9753 36.8778 26.7408 37.0507 26.5679C37.2236 26.395 37.458 26.2979 37.7025 26.2979H43.5348C43.7793 26.2979 44.0138 26.395 44.1866 26.5679C44.3595 26.7408 44.4567 26.9753 44.4567 27.2198C44.4567 27.4642 44.3595 27.6987 44.1866 27.8716C44.0138 28.0445 43.7793 28.1416 43.5348 28.1416ZM56.3658 29.3064H49.3671C49.1226 29.3064 48.8882 29.2093 48.7153 29.0364C48.5424 28.8635 48.4453 28.629 48.4453 28.3845C48.4453 28.14 48.5424 27.9056 48.7153 27.7327C48.8882 27.5598 49.1226 27.4627 49.3671 27.4627H56.3658C56.6103 27.4627 56.8448 27.5598 57.0176 27.7327C57.1905 27.9056 57.2877 28.14 57.2877 28.3845C57.2877 28.629 57.1905 28.8635 57.0176 29.0364C56.8448 29.2093 56.6103 29.3064 56.3658 29.3064ZM56.3658 33.966H49.3671C49.1226 33.966 48.8882 33.8689 48.7153 33.696C48.5424 33.5231 48.4453 33.2887 48.4453 33.0442C48.4453 32.7997 48.5424 32.5652 48.7153 32.3923C48.8882 32.2194 49.1226 32.1223 49.3671 32.1223H56.3658C56.6103 32.1223 56.8448 32.2194 57.0176 32.3923C57.1905 32.5652 57.2877 32.7997 57.2877 33.0442C57.2877 33.2887 57.1905 33.5231 57.0176 33.696C56.8448 33.8689 56.6103 33.966 56.3658 33.966ZM56.3658 38.6255H49.3671C49.1226 38.6255 48.8882 38.5284 48.7153 38.3555C48.5424 38.1826 48.4453 37.9482 48.4453 37.7037C48.4453 37.4592 48.5424 37.2247 48.7153 37.0518C48.8882 36.8789 49.1226 36.7818 49.3671 36.7818H56.3658C56.6103 36.7818 56.8448 36.8789 57.0176 37.0518C57.1905 37.2247 57.2877 37.4592 57.2877 37.7037C57.2877 37.9482 57.1905 38.1826 57.0176 38.3555C56.8448 38.5284 56.6103 38.6255 56.3658 38.6255Z" fill="#00EAFF"/>
<path d="M4.5 12H60.5" stroke="#00EAFF" stroke-width="1.5" stroke-linecap="round"/>
<circle cx="9" cy="8" r="1" fill="#00EAFF"/>
<circle cx="12" cy="8" r="1" fill="#00EAFF"/>
<circle cx="15" cy="8" r="1" fill="#00EAFF"/>
<path d="M36 8H56" stroke="#00EAFF" stroke-width="1.5" stroke-linecap="round"/>
<path d="M8.5 56H23.5" stroke="white" stroke-width="2" stroke-linecap="round"/>
<path d="M30 56H56" stroke="white" stroke-width="2" stroke-linecap="round"/>
<circle cx="14" cy="28" r="5.25" stroke="white" stroke-width="1.5"/>
<circle cx="29" cy="21" r="4.25" stroke="white" stroke-width="1.5"/>
<circle cx="28.7892" cy="36.7898" r="4.30703" transform="rotate(-1.76188 28.7892 36.7898)" stroke="white" stroke-width="1.5"/>
<path d="M19 25L25 23" stroke="white" stroke-width="1.5" stroke-linecap="round"/>
<path d="M19 31L25 34" stroke="white" stroke-width="1.5" stroke-linecap="round"/>
<circle cx="14" cy="27" r="2" stroke="white"/>
<path d="M10 31C11.2308 30.2454 14.5538 29.1889 18 31" stroke="white" stroke-width="1.5" stroke-linecap="round"/>
</svg>
