<svg viewBox="0 0 221.71 56.69" id="footer-logo" xmlns="http://www.w3.org/2000/svg">
<g data-name="Слой 2">
<g data-name="Слой 1" fill-rule="evenodd">
<path d="M35.1 16.75a1.48 1.48 0 0 1 1.42 1.51 2.17 2.17 0 0 1 0 .26l-.09 3.26h-2.94c0-1.14.07-2.27.1-3.42v-.2a1.47 1.47 0 0 1 1.51-1.41zm-4.27-.02a1.44 1.44 0 0 1 1.32 1.52 2.35 2.35 0 0 1 0 .26c0 .41 0 2.1-.09 3.3-.83 0-1.73.07-2.74.12 0-1.28.09-3.12.11-3.57v-.2a1.43 1.43 0 0 1 1.4-1.43zm-4.09.27A1.4 1.4 0 0 1 28 18.47a2.26 2.26 0 0 0 0 .26c0 .41-.07 2.11-.1 3.3-.82.06-1.67.13-2.56.23 0-1.29.09-3.19.1-3.66a1.34 1.34 0 0 1 0-.2 1.4 1.4 0 0 1 1.3-1.4zm-3.91.45A1.33 1.33 0 0 1 24 19v.26c0 .38-.07 2.09-.1 3.24-.78.09-1.57.2-2.38.35 0-1.28.09-3.22.11-3.68v-.19a1.4 1.4 0 0 1 1.2-1.53zm-3.72.83c.6 0 1.07.67 1 1.49a2.26 2.26 0 0 1 0 .26c0 .36-.05 2-.08 3.09-.72.16-1.47.33-2.2.51 0-1.26.1-3.19.11-3.65v-.2c.06-.78.57-1.51 1.17-1.5zM15.7 19.3c.54 0 1 .7.95 1.54a2.26 2.26 0 0 1 0 .26c0 .34-.06 1.9-.09 2.93-.67.17-1.34.35-2 .55 0-1.24.09-3.11.1-3.57a1.27 1.27 0 0 0 0-.2c.01-.81.48-1.52 1.04-1.51zm-2.87.99c.51 0 .9.71.87 1.55a2.72 2.72 0 0 1 0 .28c0 .29 0 1.77-.08 2.73-.61.19-1.22.38-1.83.59 0-1.19.08-3 .09-3.42a1.48 1.48 0 0 0 0-.21c.04-.81.46-1.53.95-1.52zm-2.66 1.16c.45 0 .79.71.76 1.55 0 .06 0 1.83-.07 2.77-.56.2-1.12.43-1.65.66v-.95c0-.06.08-2.43.08-2.5.04-.84.43-1.53.88-1.53zm-2.58 1.38c.39 0 .7.69.68 1.53v.27c0 .23 0 1.43-.07 2.26-.5.24-1 .49-1.46.76 0-1.13.07-2.68.08-3.1a.62.62 0 0 1 0-.19c.03-.84.37-1.52.77-1.53zm-2.13 1.36c.35 0 .61.67.59 1.5v.27H6c0 .21 0 1.34-.07 2.11-.43.28-.86.55-1.27.83 0-1.1.07-2.61.08-3v-.2c.08-.82.37-1.5.72-1.51zm-1.73 1.33c.3 0 .53.65.5 1.47v.26c0 .2-.05 1.26-.07 2-.37.28-.74.57-1.1.88 0-1.13.07-2.56.08-3v-.2c.04-.74.3-1.4.59-1.41zm-1.3 1.15c.26 0 .44.65.41 1.46v.26c0 .2 0 1.23-.07 2-.31.3-.62.59-.9.91 0-1.15.07-2.61.07-3a1.41 1.41 0 0 0 0-.2c.06-.75.25-1.42.49-1.43zm-1.06 1.17c.2 0 .33.65.31 1.45v.26c0 .17 0 1.19-.07 2-.25.28-.49.59-.73.88.05-1.16.08-2.62.09-3H1v-.19c0-.73.18-1.39.37-1.4zm-.78.9c.11 0 .18.64.16 1.44a2.09 2.09 0 0 0 0 .25c0 .78 0 1.55-.07 2.32-.14.21-.28.4-.41.61 0-1 .07-2 .09-3v-.19c.02-.78.12-1.42.23-1.43zM35.05 9.55a1.47 1.47 0 0 1 1.39 1.56v3.48h-2.89v-3.53a1.53 1.53 0 0 1 1.5-1.51zm-4.28.05a1.45 1.45 0 0 1 1.32 1.54v3.43h-2.68V11a1.42 1.42 0 0 1 1.36-1.4zm-4.07.25a1.37 1.37 0 0 1 1.21 1.51v3.26l-2.53.24v-3.37a1.34 1.34 0 0 0 0-.2 1.38 1.38 0 0 1 1.32-1.44zm-3.92.46a1.37 1.37 0 0 1 1.13 1.54v3.27c-.79.11-1.57.22-2.36.36v-3.42a1.62 1.62 0 0 1 0-.21 1.36 1.36 0 0 1 1.23-1.54zm-3.72.77c.59 0 1.06.74 1.05 1.59v3.1c-.72.15-1.44.33-2.17.51 0-1.32 0-2.91.06-3.4v-.22c0-.88.47-1.59 1.06-1.58zm-2.97 1.08c.55 0 1 .74.95 1.62v2.94c-.68.2-1.35.41-2 .62 0-1.32 0-2.85.06-3.34a1.62 1.62 0 0 1 0-.22c-.01-.9.46-1.63.99-1.62zm-2.81 1.08c.51 0 .89.75.87 1.66v.29c0 .34 0 1.42-.05 2.46-.62.22-1.22.44-1.81.67 0-1.29 0-2.75.05-3.23a1.77 1.77 0 0 1 0-.22c.03-.87.45-1.65.94-1.63zm-2.63 1.23c.44 0 .79.78.76 1.69 0 .07 0 1.52-.05 2.53-.56.23-1.1.47-1.64.72v-1.12c0-.07.06-2.09.06-2.17.04-.92.42-1.66.87-1.65zM8.1 15.93c.4 0 .7.77.68 1.69a2.81 2.81 0 0 0 0 .29v2c-.51.25-1 .52-1.46.8 0-1.24.07-2.44.07-2.9a1.62 1.62 0 0 0 0-.22c-.03-.93.32-1.67.71-1.66zM6 17.33c.33 0 .6.76.56 1.65v2.13c-.45.28-.87.55-1.28.83 0-1.19.07-2.37.09-2.8v-.22c-.02-.92.29-1.6.63-1.59zm-1.73 1.3c.29 0 .52.75.49 1.62v2.06c-.4.29-.77.56-1.12.86 0-1.18.09-2.38.1-2.81v-.2c-.03-.85.26-1.54.53-1.53zM3 19.73c.24 0 .42.72.39 1.56a2.53 2.53 0 0 0 0 .27c0 .22 0 1-.06 1.84a11 11 0 0 0-.93.86c0-1.19.1-2.47.11-2.88a1.27 1.27 0 0 1 0-.2c0-.82.22-1.48.49-1.45zm-1.09 1.04c.2 0 .33.71.29 1.52v.26c0 .21 0 1.08-.06 2a10 10 0 0 0-.76.86c0-1.2.11-2.62.12-3v-.2c.04-.83.21-1.47.41-1.44zm-.79.99c.11 0 .18.66.14 1.44a2.09 2.09 0 0 0 0 .25c0 .83-.06 1.42-.09 2.25a6.25 6.25 0 0 0-.43.7c0-1.1.09-2 .13-3.1v-.19c.03-.76.13-1.37.25-1.35zm33.96 2.14a1.43 1.43 0 0 1 1.43 1.47v.27c0 1 0 2-.06 3.06-.94 0-1.93 0-3 .08l.06-3.21v-.2a1.52 1.52 0 0 1 1.57-1.47zm-4.28.1a1.4 1.4 0 0 1 1.34 1.47v.27c0 .43 0 1.87-.07 3.07-.89.05-1.81.1-2.75.17 0-1.28.06-2.83.07-3.31v-.2A1.46 1.46 0 0 1 30.8 24zm-4.09.38A1.38 1.38 0 0 1 28 25.85v.27c0 .42 0 1.82-.06 3l-2.58.24c0-1.28.06-2.83.07-3.32v-.2a1.44 1.44 0 0 1 1.28-1.46zm-3.91.52a1.37 1.37 0 0 1 1.2 1.5v.26c0 .41-.05 1.75-.07 2.9-.8.09-1.59.17-2.39.28 0-1.26.05-2.82.06-3.3v-.19a1.35 1.35 0 0 1 1.2-1.45zm-3.73.71a1.39 1.39 0 0 1 1.07 1.53v.27c0 .37 0 1.61-.05 2.68-.73.12-1.48.24-2.21.38 0-1.25.06-2.74.07-3.21v-.19c.05-.82.52-1.48 1.12-1.46zm-3.39.89c.54 0 1 .72 1 1.54v.27c0 .34 0 1.46-.06 2.47-.69.14-1.35.3-2 .46 0-1.22.06-2.62.07-3.08V28c-.03-.88.43-1.53.99-1.5zm-3.09.9c.52 0 .91.72.89 1.56v.26c0 .31 0 1.31-.06 2.27-.62.17-1.23.35-1.83.55 0-1.19.05-2.51.06-2.95v-.21c.03-.88.45-1.51.94-1.48zm-2.67 1.09c.45 0 .81.71.78 1.56v2.31c-.57.2-1.11.42-1.65.65v-1H9v-2c.09-.86.47-1.53.92-1.52zm-2.58 1.33c.4 0 .72.7.7 1.55a2.62 2.62 0 0 1 0 .28H8v1.83c-.51.24-1 .51-1.47.79 0-1.15.05-2.28.05-2.7a.78.78 0 0 0 0-.21c.02-.85.42-1.54.76-1.54zm-2.12 1.37c.34 0 .61.68.6 1.54a2.17 2.17 0 0 0 0 .26v1.74a15.51 15.51 0 0 0-1.29.9V32.73c.03-.84.34-1.54.69-1.54zm-1.74 1.34c.31 0 .54.69.52 1.53v2c-.38.32-.75.65-1.1 1 0-1.16 0-2.36.06-2.78v-.2c-.02-.84.23-1.54.52-1.55zm-1.29 1.2c.24 0 .44.68.42 1.52v2.1c-.32.35-.63.72-.91 1.09 0-1.22.05-2.53.06-3v-.2c-.03-.8.24-1.5.43-1.51zM1.13 35c.2 0 .34.66.32 1.5v2.27a9.36 9.36 0 0 0-.74 1.15c0-1.28.06-2.8.07-3.23v-.19c-.02-.83.16-1.5.35-1.5zm-.78.92c.11 0 .18.66.17 1.49a2.72 2.72 0 0 0 0 .28v2.65a8.71 8.71 0 0 0-.42.94c0-1.22.06-2.43.08-3.66v-.2c-.04-.83.06-1.5.17-1.5z"/><path d="M1 19.19c12.49-12.8 30.89-10.61 36.4-11l-.09-.41C23.49 7.5 10.6 8.78 1 19.19zm.61-3.37l.12-.12.06 1h-.12c0-.29 0-.57-.06-.86zm1.6-1l.21-.08-.06-1.11-.18.11v1.08zM5.3 11.8v1l.45-.23V11.5l-.44.26zm3-.64l.58-.26c-.05-.37-.09-.76-.12-1.13l-.55.17c0 .4.05.82.09 1.22zM12.89 9L14 8.57c0-.46-.08-.91-.12-1.37l-.95.43v1.38zm6.41-1.68l1.15-.19c0-.49 0-1-.05-1.48l-1.11.2v1.47zm7.92-2.82c0 .6.06 1.2.09 1.8.38 0 .77-.08 1.16-.11V4.44z"/><path d="M6.26 7.32a1.5 1.5 0 0 1 1.11.84S8.9 7.11 9.07 7a3.88 3.88 0 0 1 1-.27v-.49h.06v-.11a1.22 1.22 0 0 0-.49.23s-.62.43-1.1.77a1.71 1.71 0 0 0-1.18-.57.74.74 0 0 0-.25 0 12.23 12.23 0 0 0-3 2.32 11 11 0 0 1 2.1-1.58zm51.89 14.47c.06.35.09.71.13 1.06.08.73.17 1.48.26 2.22.12 1 .24 2.08.35 3.13.14 1.25.28 2.51.43 3.76s.31 2.73.46 4.11.32 2.78.48 4.17.3 2.64.45 3.95l.39 3.46.3 2.67c.06.53.12 1.07.21 1.59 0 .23.16.67 0 .85a2.64 2.64 0 0 1-1.14.4c-.51.12-1 .26-1.5.41-1 .3-2 .61-3.06.87a79.69 79.69 0 0 1-10.3 1.75 98.41 98.41 0 0 1-10.45.5c-3.34 0-6.68-.23-10-.6a75.16 75.16 0 0 1-9-1.59 47 47 0 0 1-7.52-2.41A22 22 0 0 1 3.1 49a11.63 11.63 0 0 1-1.21-1.11 7.89 7.89 0 0 1-1.4-2.15 5.25 5.25 0 0 1-.31-3.51c4-11.65 33.46-12.56 45.52-11.28-.41-5.13-.56-7.69-.56-12.35a3.33 3.33 0 0 0-.68-.77 4.65 4.65 0 0 0-.85-.6 3.83 3.83 0 0 0-.58-.27 2.31 2.31 0 0 0-.51-.22h-.39c-.11 0-.22-.2-.22-.3v-.23a2.06 2.06 0 0 1 .17-.23c0-.12-.23-.12-.23-.12h-.91a4 4 0 0 0-.59 0 1.2 1.2 0 0 1-.42-.07l-.5-.13c-.09-.36-.18-.71-.26-1.07-.12-.51-.25-1-.37-1.55 0-.2-.08-.41-.14-.61a1.53 1.53 0 0 0-.25-.45 1.07 1.07 0 0 1-.14-.46c0-.22.17-.26.31-.37s.12-.48.14-.71 0-.24.12-.35.21-.18.15-.35-.37-.13-.46-.33a1.09 1.09 0 0 1-.07-.56c0-.13.26-.18.22-.32s-.47-.21-.61-.21h-.78l-1.91-5.6-.75-.45v-.6s-.05-.18.24-.18V.8A57.46 57.46 0 0 0 12.5 3.86a3.26 3.26 0 0 1-.22.36 8.15 8.15 0 0 0-1.91.78.66.66 0 0 1 .28-.43 9.61 9.61 0 0 1 2.2-.94.93.93 0 0 0 0-.1c.06-.2.17-.24.37-.32a53.58 53.58 0 0 1 7.88-2.12A61.72 61.72 0 0 1 28 .16C29.74 0 31.43 0 33.13 0c.86 0 1.71 0 2.55.11l.57.08a14.63 14.63 0 0 1-.13 2c0 .12.73.3.82.33a1.93 1.93 0 0 0 .2.85 4.79 4.79 0 0 1 .36 1c.3.85.67 2 1 2.84a6.24 6.24 0 0 0 .21.65h.53a.33.33 0 0 1 .22 0l.58.33a.71.71 0 0 1 .2.48 1 1 0 0 1-.15.47l.4.14c.19.07.26.17.26.3a1.66 1.66 0 0 1-.08.37l-.12.4a.6.6 0 0 1-.16.23l-.05.72a.67.67 0 0 1-.35.54l.09.12a1 1 0 0 1 .12.25c.1.42.11.55.21 1s.15.65.23 1 .07.65.23.79.73 0 1.06.06l.75.06a.88.88 0 0 1 .77.37 1.26 1.26 0 0 1 .13.23c0 .16-.11.25.07.36.36.2.75.35 1.12.55a6.21 6.21 0 0 1 1.54 1.26c.07.1.16.19.23.3a.68.68 0 0 1 .12.37v5.79a41.22 41.22 0 0 0 8.7-2.46l1.12-.4c.28-.1.54-.19.8-.3s.64-.28.78 0a1.78 1.78 0 0 1 .05.47.59.59 0 0 1 0 .13zM5 46.41a6.06 6.06 0 0 1 .15-1 1.24 1.24 0 0 0-.62-1l-.85-.54c-.34-.18-.63-.07-.7.27a3.23 3.23 0 0 1-.13.86 6 6 0 0 0-.14.92A1.26 1.26 0 0 0 3.35 47a7.11 7.11 0 0 1 .85.65c.34.24.64.13.7-.27a6.12 6.12 0 0 1 .13-1zm5.12 2.66v-1a1.07 1.07 0 0 0-.57-1c-.35-.12-.64-.3-.93-.41s-.63 0-.68.41-.07.68-.12 1a6.12 6.12 0 0 0-.11 1 1.12 1.12 0 0 0 .63 1c.28.17.57.28.92.46a.51.51 0 0 0 .7-.46 6.12 6.12 0 0 1 .11-1zm5.11 1.76c.05-.35.05-.69.11-1a1.12 1.12 0 0 0-.69-1 4.11 4.11 0 0 1-.86-.28.51.51 0 0 0-.7.52c-.06.34-.06.69-.11 1s-.06.69-.12 1a1.09 1.09 0 0 0 .63.92c.35 0 .65.17 1 .23a.53.53 0 0 0 .7-.46v-1zm5.48 1.32c0-.28.06-.63.06-.92a.86.86 0 0 0-.63-.86l-.93-.17a.49.49 0 0 0-.69.51c-.06.3-.06.63-.12 1s-.06.64-.06 1a.86.86 0 0 0 .69.81c.3 0 .58.17.93.22a.6.6 0 0 0 .69-.57 5.54 5.54 0 0 1 .06-1zm5.48.88a4.59 4.59 0 0 0 .06-.93.76.76 0 0 0-.63-.76c-.35-.05-.64-.05-.93-.11a.56.56 0 0 0-.69.58c-.06.29-.06.58-.12.92a5.8 5.8 0 0 1-.05.93.85.85 0 0 0 .69.74c.35.07.63.07.93.12a.65.65 0 0 0 .74-.58V53zm5.53.4c0-.29.06-.58.06-.93a.65.65 0 0 0-.7-.63 4.49 4.49 0 0 1-.9-.06.65.65 0 0 0-.7.58 4.45 4.45 0 0 1-.06.92c0 .28-.05.58-.05.93a.69.69 0 0 0 .69.63 5.27 5.27 0 0 0 1 .06.56.56 0 0 0 .63-.58c0-.35.06-.64.06-.92zm5.54 0c0-.29.06-.58.06-.87a.71.71 0 0 0-.7-.64h-.92a.66.66 0 0 0-.69.64c0 .35-.06.63-.06.93v.91a.56.56 0 0 0 .69.58h.93a.68.68 0 0 0 .69-.63v-.92zm5.54-.35v-.93c0-.34-.29-.57-.69-.57s-.64.06-.93.11a.74.74 0 0 0-.69.7v1.78a.56.56 0 0 0 .69.58 6.18 6.18 0 0 0 .93 0 .74.74 0 0 0 .69-.7v-.92zm5.48-.69v-.93a.58.58 0 0 0-.69-.58l-.93.18a.69.69 0 0 0-.63.75c0 .29-.06.58-.06.92v.93a.62.62 0 0 0 .69.58l1-.18a.79.79 0 0 0 .63-.75v-.92zM51 28.21a.74.74 0 0 0 .52-.69c0-.57-.06-1.1-.06-1.62a.46.46 0 0 0-.63-.41c-.23.07-.51.12-.75.18a.8.8 0 0 0-.57.75c.05.53.05 1 .11 1.57a.46.46 0 0 0 .58.45 3.24 3.24 0 0 1 .8-.23zm2.83 23.13v-1a.59.59 0 0 0-.69-.52 6.85 6.85 0 0 1-.92.23.81.81 0 0 0-.7.8v1.95a.58.58 0 0 0 .7.51c.35-.05.63-.12 1-.17a.87.87 0 0 0 .63-.81v-1zm1.89-24.47a.89.89 0 0 0 .55-.78v-1.61c0-.29-.31-.45-.65-.37s-.51.18-.8.31a.74.74 0 0 0-.55.77v1.62a.45.45 0 0 0 .66.31c.28-.06.51-.18.79-.25zM59.21 51v-1a6.44 6.44 0 0 1-.05-1 .54.54 0 0 0-.69-.51 4.88 4.88 0 0 1-.93.22 1 1 0 0 0-.63.87v1a6.37 6.37 0 0 1 .05 1 .58.58 0 0 0 .7.52 5.38 5.38 0 0 1 .92-.23 1 1 0 0 0 .63-.87z"/><path d="M35.54 2.7c-7.82-.51-20.12 1.17-24.92 4.13C16.86 3.69 28.7 2.42 35.59 3z"/><path d="M11.86 5.68v.53a.19.19 0 0 0 .14-.06v-.53l-.11.06zM13 5.17v.61c.06-.13.15 0 .23-.06v-.63l-.23.08zm1.26-.48v.64c.12 0 .17-.07.23-.07V4.6l-.23.09zm1.32-.45V5c.05-.06.17-.07.28-.14v-.7l-.28.08zm1.31-.39v.78a2.37 2.37 0 0 1 .34-.13v-.75l-.35.1zm1.44-.39v.85c.11 0 .23-.08.34-.08v-.85l-.34.08zm1.43-.33V4c.18 0 .3-.07.47-.08v-.85l-.46.11zm1.5-.32v.84c.17 0 .35-.07.52-.07v-.85l-.51.08zm1.55-.26v.91c.18-.07.41 0 .58 0v-1l-.58.1zm1.61-.24v1a2.28 2.28 0 0 1 .63-.09v-1l-.64.08zm1.67-.2v1c.23 0 .46-.09.63-.1v-1h-.63zM27.84 2v1c.23 0 .46-.07.68-.08v-.99h-.68zm1.72-.1v.9h.76v-.95h-.76zm1.84 0v.88h.81v-.95zm1.84 0v.84h.87v-.86zm6.12 15.24a1.39 1.39 0 0 1 1.35 1.47v.25c0 .45-.05 1.87-.07 3.08a14.23 14.23 0 0 0-2.76-.08c0-1.27 0-2.57.06-3.06a1.15 1.15 0 0 1 0-.19 1.45 1.45 0 0 1 1.42-1.47zm0 6.86a1.4 1.4 0 0 1 1.35 1.47v.27c0 .43-.05 1.83-.07 3-.92-.05-1.84-.08-2.76-.12 0-1.24 0-2.51.06-3v-.2A1.48 1.48 0 0 1 39.36 24zm4.09.23a1.37 1.37 0 0 1 1.32 1.44 2.18 2.18 0 0 0 0 .25c0 .4 0 2-.06 3.17-.88-.09-1.79-.17-2.69-.23 0-1.18.05-2.57.06-3v-.18a1.43 1.43 0 0 1 1.37-1.45zm46.39-9.92a3.52 3.52 0 0 1-1.59 2c-.19.12-.28 0-.41-.11a2 2 0 0 0-.42-.4 4.39 4.39 0 0 0-.76-.51A12.72 12.72 0 0 0 80.8 14a6.57 6.57 0 0 0-3.44.89 8.47 8.47 0 0 0-2.54 3.34c-2.06 3.93.11 8.57 3.3 11.12A11 11 0 0 0 81 31.08a11.34 11.34 0 0 0 9.48-.75A6.82 6.82 0 0 1 88.27 32c-3.59 2.07-9.17 1.82-12.44-.76a9.75 9.75 0 0 1-3.64-8.47 9.53 9.53 0 0 1 1.07-3.68 12.3 12.3 0 0 1 6.22-6 8.71 8.71 0 0 1 3.26-.89 12.25 12.25 0 0 1 7.1 2.13zm41.33 8.43c.12.3.19.8-.25.8-1 .08-2.07.07-3.1.07h-1.58a6.44 6.44 0 0 1-.76 0c-.18 0-.2-.11-.16-.28s.05-.25.07-.38.11-.52.16-.78q.15-.76.33-1.53c.24-1 .52-2 .85-3 .07-.21.15-.41.22-.62s.25-.63.67-.66.52.23.65.51c.95 2 1.89 4 2.9 5.85zm-1.39-8.43c-.18-.37-.39-.72-.59-1.09s-.34-.93-.66-1.09c-.16-.09-.38 0-.53.07a4.65 4.65 0 0 0-.63.21c-.4.14-.79.3-1.16.46-.2.09-.34.22-.06.26s.35 0 .49.09a1 1 0 0 1 .21.56 3.52 3.52 0 0 1-.27 1.42c-.37 1.16-.72 2.31-1.07 3.47s-.7 2.32-1.06 3.48-.73 2.3-1.11 3.45-.79 2.27-1.24 3.39c-.22.55-.46 1.1-.68 1.64-.11.27-.2.54-.32.8a3.73 3.73 0 0 1-.4.83 5.63 5.63 0 0 1-.65.51c-.11.09-.36.4-.28.56s.59.09.78.08a6.51 6.51 0 0 0 .76-.07 7.77 7.77 0 0 0 1.45-.3 2.8 2.8 0 0 0 1.14-.46c.34-.33-.33-.48-.57-.44a7.71 7.71 0 0 1-.84.08 1.14 1.14 0 0 1-.52 0c-.26-.12-.1-.52 0-.71a10.56 10.56 0 0 1 .72-1.65c.26-.56.45-1.15.65-1.72.12-.33.25-.65.4-1 .22-.5.35-1 .54-1.54a1.81 1.81 0 0 1 .42-.71.92.92 0 0 1 1-.33 9.42 9.42 0 0 0 1.48.21 19.4 19.4 0 0 0 3-.08l1.05-.1a3.09 3.09 0 0 1 .68-.09c.27 0 .3.22.42.44q.41.72.75 1.44c.48 1 .9 1.95 1.33 2.94.27.66.55 1.31.82 2 .25.47-.11 1-.34 1.35-.09.17-.48.78 0 .82.13 0 .23-.06.36-.09a1.2 1.2 0 0 1 .6 0 10.2 10.2 0 0 0 1.35.09 4.47 4.47 0 0 0 1.5-.17 6.23 6.23 0 0 0 .73-.24c.2-.08.37-.24.28-.47s-.69-.17-1-.18c-.57 0-.67-.58-.84-1l-.35-.93c-.24-.61-.49-1.22-.75-1.82-.52-1.21-1.09-2.41-1.68-3.6s-1.2-2.37-1.82-3.55-1.27-2.53-1.86-3.7-1-2.2-1.52-3.3c0-.08-.08-.14-.11-.22zm58.34-1.06c1.28 2.45 2.31 5 3.35 7.58.52 1.3 1.05 2.6 1.6 3.89s1.19 2.53 1.81 3.77c.35.74.61 1.49.88 2.24a2 2 0 0 0 1.42 1.49c.15 0 .46 0 .48.2s-.41.44-.6.5a12.14 12.14 0 0 1-2.69.4 10.2 10.2 0 0 1-1.24.11c-.38 0-1-.07-.66-.59a1.94 1.94 0 0 1 .41-.4.68.68 0 0 0 .32-.57 3.91 3.91 0 0 0-.38-1.83c-.28-.74-.57-1.48-.86-2.22s-.46-1.36-.77-2a2.79 2.79 0 0 0-.8-1.18c-.47-.34-1.1-.19-1.63-.21s-1.11-.08-1.65-.13a8 8 0 0 0-3.19.19c-.16.05-.38.61-.47.75s-.28.54-.4.83c-.24.57-.43 1.15-.63 1.74s-.39 1.18-.64 1.75c-.16.36-.25.71-.39 1.1s-.21.73.1.94a1.88 1.88 0 0 0 .56.16l.85.16c.14 0 .34 0 .43.17s-.31.41-.47.49a4.91 4.91 0 0 1-2.13.41h-1c-.15 0-.61.07-.72 0s.26-.46.36-.57a6.86 6.86 0 0 0 1.36-2.74 15.61 15.61 0 0 1 .65-1.89 13.62 13.62 0 0 0 .6-1.28c.17-.44.27-.91.4-1.36q.28-1 .63-2c.46-1.35 1-2.69 1.5-4a12.89 12.89 0 0 0 .74-1.9c.1-.41.19-.83.32-1.25.26-.84.44-1.75-.4-2.32-.14-.09-.34-.06-.35-.24s.13-.25.21-.32a4.61 4.61 0 0 1 .63-.46 2.16 2.16 0 0 1 1.4-.4c.51.11.86.67 1.07 1.1zm-.37 5.21l-.05-.09c-.19-.36-.36-.71-.55-1.06-.09-.18-.23-.55-.46-.59s-.54.41-.63.61c-.23.51-.36 1.08-.56 1.59s-.44 1.11-.63 1.66a12.68 12.68 0 0 0-.49 1.7 3.85 3.85 0 0 0-.11.83c0 .1 0 .3.06.37s.52 0 .66-.05c1.44-.14 2.88-.19 4.34-.19a.58.58 0 0 0 .37 0c.29-.21 0-.72-.12-1-.19-.43-.37-.87-.57-1.3-.39-.83-.83-1.65-1.26-2.46zm-30.2-2.06a3.72 3.72 0 0 1 .11 1.05 5.19 5.19 0 0 1-.13 1 6.6 6.6 0 0 1-.77 1.89 8.56 8.56 0 0 1-1.63 1.92 3.72 3.72 0 0 1-1 .79c-.65.26-1.1.88-1.73 1.2a7.55 7.55 0 0 1-1 .35 6.83 6.83 0 0 1-3.11.29c-.12 0-.35 0-.45-.06s0-.24 0-.34a1.86 1.86 0 0 1 .38-.3 1.52 1.52 0 0 1 .33-.18c1.51-.12 3.21.44 4.41-.88 1.56-1.5 2.63-3.7 1.81-6a5.39 5.39 0 0 0-.86-1.36 8.07 8.07 0 0 0-4-2.51 11.89 11.89 0 0 0-2.44-.43h-1.26c-.16 0-1 0-1 .3v6.31c0 2.11 0 4.25-.08 6.37 0 1-.07 2.06-.12 3.07 0 .5-.05 1-.08 1.5a3.71 3.71 0 0 0 0 .66 1 1 0 0 0 .5.8 2.43 2.43 0 0 0 .68.3c.25 0 .51.08.77.11s.42-.05.58.06-.1.36-.23.43a3.57 3.57 0 0 1-.86.26 5.12 5.12 0 0 1-1.41.14c-.53 0-1-.1-1.56-.14a2.42 2.42 0 0 0-.6 0c-.14 0-.32.13-.44 0s0-.33 0-.46c.06-.36.13-.7.16-1.06s.09-.91.13-1.36c.17-2.19.23-4.37.28-6.56v-1.74c0-1.13 0-2.26.09-3.39s0-2.08 0-3.13a3 3 0 0 0-.35-1.74 1.18 1.18 0 0 0-.69-.45c-.1 0-.42 0-.32-.18s.52-.16.65-.19a6.7 6.7 0 0 1 1.1-.07 12.1 12.1 0 0 0 2.41-.11 15.94 15.94 0 0 1 2.08-.22 20.57 20.57 0 0 1 2.22-.05 11.36 11.36 0 0 1 4.2.84 5.92 5.92 0 0 1 3 2.8 2.49 2.49 0 0 1 .14.41zm21-3.78c0 .11-.13.21-.18.29s-.28.45-.42.67a1.48 1.48 0 0 1-.78.7c-.12 0-.3.1-.41 0s-.23-.25-.37-.32a2.11 2.11 0 0 0-.38-.17 2.75 2.75 0 0 0-1.07-.09h-3.17l-.81.05a1.23 1.23 0 0 0-.61.09c-.46.33-.38 1.23-.35 1.71 0 .71.1 1.43.12 2.16.1 2.2.14 4.42.17 6.63v3.36c0 1.11.08 2.27 0 3.4 0 .25 0 .62.15.82s.78.2 1.09.21c.13 0 .39-.05.51 0s.06.13 0 .22a1.77 1.77 0 0 1-1 .42q-.35.08-.69.12c-.47.07-.94.11-1.42.14a9.43 9.43 0 0 1-1.4-.06c-.11 0-.41 0-.48-.11s.12-.38.18-.49.17-.45.25-.68a7.21 7.21 0 0 0 .29-1.38 14.29 14.29 0 0 0 .05-2.85 23.32 23.32 0 0 1-.08-6 10.65 10.65 0 0 0 .15-2.11c0-1.07-.11-2.13-.14-3.19v-1.63c0-.16.09-.43 0-.59a.49.49 0 0 0-.38-.22h-3.12a28.88 28.88 0 0 0-3.09.32l-.76.14c-.15 0-.38.16-.44 0s.23-.7.4-.92a3.69 3.69 0 0 1 .62-.69c.35-.26.73-.1 1.12 0 1.11.15 2.23.09 3.34.23l.4.06a39.72 39.72 0 0 0 6.17-.14l3.15-.27 1.54-.14a9.35 9.35 0 0 1 1.49-.07c.12 0 .27.06.29.21zm-79.48 1.44c0 2 .06 4 .1 5.92s.1 4.1.1 6.15c0 1 0 2-.06 3q0 .72-.06 1.44v.63a1.28 1.28 0 0 0 0 .55c.1.25.6.25.82.26s.48 0 .58.13-.36.43-.47.48a2.76 2.76 0 0 1-1 .23 11.26 11.26 0 0 1-1.15.07 5.7 5.7 0 0 1-1.31-.06c-.11 0-.36-.07-.35-.23s.24-.28.35-.35a.92.92 0 0 0 .51-.55c-.19-5.6.13-11.75-.19-17.46 0-.54-.33-.76-.75-1-.1-.06-.29-.14-.23-.27s.58-.26.73-.31a5 5 0 0 1 1.28-.17h1.33c.44 0 1-.07 1.47-.08 1.81 0 3.63-.08 5.43-.1h7.08a12.06 12.06 0 0 1 1.59.16c.16 0 .31.05.46.09a.25.25 0 0 1 .22.17c0 .13-.08.21-.15.32a7 7 0 0 0-.53.81 3.24 3.24 0 0 0-.4 1.86c.1 2.16.24 4.34.38 6.5s.21 4.28.24 6.41v1.75c0 .34-.06.68-.06 1a2.05 2.05 0 0 0 .06.49c.09.29.18.41.49.4s.42 0 .63 0 .53.09.3.35a1.69 1.69 0 0 1-1.15.41l-.76.07c-.51.06-1 .11-1.53.13a9.19 9.19 0 0 1-1.39 0h-.4c-.09 0 0-.34.15-.43s.41-.21.58-.35a2 2 0 0 0 .51-1.19 9.73 9.73 0 0 0 .1-1.43c0-.53.07-1.05.09-1.58s0-1.37 0-2.07c0-.43-.06-.85-.12-1.28s-.12-.87-.17-1.31c-.09-.7-.14-1.4-.17-2.1-.06-1.23-.09-2.48-.09-3.71V13.5c0-.22-.43-.26-.56-.28l-1-.11c-.7-.08-1.39-.14-2.09-.2a32.79 32.79 0 0 0-3.51-.21 9.78 9.78 0 0 0-1.52.15c-.42.09-.85.21-1.28.28a16.75 16.75 0 0 0-2.35.42 1.53 1.53 0 0 0-.78.51zm106.23-1.9c-.08-.11-.34-.08-.46-.07h-.61c-.37 0-.76-.06-1.14-.07a3.75 3.75 0 0 0-1.11.06 2.28 2.28 0 0 0-.58.17c-.17 0-.72.2-.51.48a.65.65 0 0 0 .26.17c.13.06.6.19.61.37.11 2.21.15 4.43.17 6.64s0 4.38 0 6.56v2.91c0 .66 0 1.32-.06 2a6.48 6.48 0 0 1-.17 1c-.08.27-.44.76 0 .89a5.93 5.93 0 0 0 1.24.25 6 6 0 0 0 1.34 0c.23 0 .45-.08.67-.13a1.78 1.78 0 0 0 .63-.2c.43-.29.07-.44-.27-.53s-.43-.09-.64-.17a.75.75 0 0 1-.28-.11c-.11-.09-.06-.3-.07-.43v-2.89c0-1 .06-2 .09-3v-.93c0-.31-.06-.49.08-.68a1.64 1.64 0 0 1 .67-.46 2.19 2.19 0 0 1 .92-.09 5.52 5.52 0 0 1 2.29 1.06 12.81 12.81 0 0 1 1.87 1.5 37 37 0 0 1 2.74 3.13 9.61 9.61 0 0 0 .8.88c.42.41.82.83 1.2 1.27a13.19 13.19 0 0 0 1.3 1.39 3.21 3.21 0 0 0 1.48.8 4.5 4.5 0 0 0 2.12-.16c.1 0 .51-.11.57-.22s-.11-.22-.18-.27c-.47-.42-1-.68-1.53-1.07a15.14 15.14 0 0 1-1.43-1.35c-.25-.26-.49-.53-.72-.82s-.45-.56-.67-.84c-.42-.58-.83-1.15-1.27-1.71a17.41 17.41 0 0 0-1.7-2c-1.31-1.25-2.38-1.32-4-2.26s-2.33-.57-3.52-.63c.84-.54 1.66-1.09 2.49-1.64.56-.36 1.13-.67 1.66-1.06s1-.85 1.51-1.28c.28-.25.56-.49.86-.72.84-.64 1.59-1.41 2.43-2.07a12.24 12.24 0 0 0 2.1-2 4.9 4.9 0 0 0 .51-.82 1.51 1.51 0 0 0 .2-.51c0-.21.11-.36-.12-.43a8.76 8.76 0 0 1-.95-.31 1.39 1.39 0 0 0-.78-.08c-.25.08-.28.5-.23.71s-.23.36-.3.44c-.31.39-.58.81-.88 1.2s-.87 1-1.32 1.53c-.92 1-1.91 1.89-2.9 2.8a12.9 12.9 0 0 1-2 1.49c-.93.58-1.82 1.22-2.72 1.85-.11.08-.46.43-.59.37s-.1-.23-.11-.31c0-.28.07-.53.08-.8s0-.55 0-.83v-1.64c0-1.11-.06-2.2-.11-3.3 0-.44 0-.89-.05-1.33 0-.27-.11-.57 0-.81a.52.52 0 0 1 .47-.24.79.79 0 0 0 .58-.44.24.24 0 0 0 0-.12zm-60.56 26.53l1.62-1.63 1.64 1.63-1.63 1.62-1.62-1.62zm-73.54 0v.21l67.43.63 3.63-.74-3.63-.67-67.43.57zm82.8-.55l-3.55.67 3.55.74 67.44-.63v-.21zm64.64 4.43h-1.77v3.73h1.77c.72 0 2.06-.16 2.06-1.87a1.79 1.79 0 0 0-2.06-1.86zm.05 4.54h-1.82v4.74h-1V41.76h2.8c1.08 0 3 .24 3 2.67s-2 2.68-3 2.68zM203 42.57v9.28h-1v-9.28h-2.7v-.81h6.37v.81zm-17.31 1l-1.78 4.13h3.55l-1.77-4.13zm3.51 8.23l-1.4-3.29h-4.23l-1.4 3.29h-1l4.53-10.38 4.52 10.38zm-17.82-.8v.81H166V41.76h5.4v.81H167v3.23h4.26v.8H167V51zm-18.32-8.47v9.28h-1v-9.24h-2.69v-.81h6.37v.81zm-18.88-.29a4.53 4.53 0 1 0 4.41 4.52 4.36 4.36 0 0 0-4.41-4.52zm0 9.86a5.34 5.34 0 1 1 5.45-5.34 5.26 5.26 0 0 1-5.45 5.34zm-17.29-.29V46.7h-5.81v5.15h-1V41.76h1v4.14h5.81v-4.14h1v10.09zm-19.1 0v-8l-6.89 8.44V41.76h1v8l6.89-8.38v10.47zm-17.11 0h-1.31L74.86 47v4.9h-1V41.76h1v4.68l4.51-4.68h1.21l-4.78 4.89z"/>
</g></g></svg>