<svg width="62" height="62" viewBox="0 0 62 62" fill="none" xmlns="http://www.w3.org/2000/svg">
<path d="M45.4478 35.9232L38.2905 33.1925V4.522C38.2905 2.0288 36.2585 0 33.7613 0H14.0134C11.8668 0 9.79226 0.696289 8.04509 2.07615C7.83334 2.24447 2.74476 7.08398 1.81708 8.4274C0.715612 10.0161 0.121094 11.8975 0.121094 13.8709V51.3272C0.121094 53.821 2.15303 55.8493 4.6502 55.8493H25.0438C26.9417 58.2651 29.3152 60.1841 32.1373 61.5776C33.2772 62.1405 34.6393 62.1405 35.7791 61.5776C46.5783 56.2456 48.0071 44.6453 48.1199 39.9056C48.162 38.1493 47.088 36.549 45.4478 35.9232ZM35.8648 28.633H2.72912V17.708H35.8648V28.633ZM33.7613 2.42188C34.9212 2.42188 35.8648 3.36411 35.8648 4.52213V15.2861H2.54671C2.55277 13.9385 2.53203 13.8439 2.56708 13.353H7.75184C10.4115 13.353 12.5752 11.1927 12.5752 8.53711V2.56561C13.0486 2.47001 13.5303 2.42186 14.0133 2.42188H33.7613ZM8.93287 4.52309C9.3018 4.15572 9.70973 3.82958 10.1494 3.55047V8.53711C10.1494 9.85679 9.07404 10.9311 7.75184 10.9311H3.17822C3.9059 9.31053 4.63832 8.81526 8.93287 4.52309ZM34.7037 59.4069C34.4716 59.5206 34.2165 59.5797 33.958 59.5797C33.6995 59.5797 33.4444 59.5206 33.2123 59.4069C29.5075 57.5772 26.7683 54.7585 24.9471 51.215C24.3748 50.1016 22.6845 50.4894 22.6552 51.7411C22.6462 52.1261 22.7864 52.3872 23.3971 53.4274H4.6502C3.4904 53.4274 2.54671 52.4857 2.54671 51.3272V31.0553H35.8648V32.4276C32.3244 31.7422 31.2007 32.6225 22.4685 35.9232C20.8378 36.5452 19.7543 38.1393 19.7965 39.9056C19.8108 40.5002 19.9182 42.6888 20.0675 43.1066C20.2537 43.6278 20.7795 43.9694 21.35 43.9027C22.0155 43.8246 22.4917 43.223 22.4136 42.5588C22.3079 41.6587 22.2437 40.7543 22.2212 39.8483C22.2041 39.1161 22.6494 38.4468 23.3346 38.1857C31.8204 34.9512 31.6522 34.9639 32.5817 34.7922C33.974 34.5355 35.4006 34.6844 36.6669 35.1659L44.5819 38.1857C45.2654 38.4463 45.7122 39.1143 45.6953 39.8478C45.5924 44.1476 44.3167 54.6606 34.7037 59.4069Z" fill="#00EAFF"/>
<path d="M33.9658 37.4927C29.279 37.4927 25.4658 41.306 25.4658 45.9927C25.4658 50.6799 29.2791 54.4927 33.9658 54.4927C38.6529 54.4927 42.4658 50.6799 42.4658 45.9927C42.4658 41.306 38.653 37.4927 33.9658 37.4927ZM33.9658 52.0649C30.6176 52.0649 27.8939 49.3409 27.8939 45.9927C27.8939 42.6446 30.6176 39.9204 33.9658 39.9204C37.3144 39.9204 40.0381 42.6446 40.0381 45.9927C40.0381 49.3413 37.3139 52.0649 33.9658 52.0649Z" fill="white"/>
<path d="M36.3467 42.1835C35.7132 41.9641 35.0225 42.2986 34.8031 42.9304L33.5008 46.6744C33.3952 46.9781 33.0379 47.1116 32.7585 46.9488L31.2623 46.0775C30.6838 45.7403 29.941 45.9361 29.6037 46.5136C29.2659 47.0912 29.4616 47.8329 30.0404 48.1697L31.5361 49.0409C33.1331 49.9709 35.1849 49.2146 35.7923 47.4692L37.0942 43.7247C37.314 43.0932 36.9792 42.4031 36.3467 42.1835ZM22.178 46.289C21.5082 46.289 20.9652 46.831 20.9652 47.4999C20.9652 48.1687 21.5082 48.7108 22.178 48.7108H22.181C22.8508 48.7108 23.3923 48.1687 23.3923 47.4999C23.3923 46.831 22.848 46.289 22.178 46.289ZM12.3103 26.0924C11.4082 26.0924 10.9648 25.5081 10.5982 25.2673C9.86053 24.7849 9.3252 25.6542 9.3252 26.1675C9.3252 26.5847 9.62597 26.9607 10.2281 27.2942C10.8303 27.6287 11.5367 27.7952 12.3478 27.7952C16.042 27.7952 16.1036 24.0549 14.4544 22.8554C13.8837 22.44 13.1426 22.0626 12.5357 21.8285C10.916 21.205 11.3562 20.1445 12.7618 20.1445C13.6879 20.1445 14.1422 20.6204 14.4796 20.6204C15.0756 20.6204 15.5995 19.5263 14.9752 18.9832C14.4839 18.5566 13.4127 18.4412 12.7618 18.4412C9.48965 18.4412 9.04419 21.1663 9.95852 22.4859C10.7943 23.6932 12.047 23.7162 13.119 24.5393C13.8519 25.1028 13.6145 26.0924 12.3103 26.0924ZM18.6496 25.6041C18.4464 25.4112 18.082 25.1155 17.8031 25.1155C17.3141 25.1155 16.9502 25.7428 16.9502 26.1675C16.9502 26.5847 17.2515 26.9607 17.8532 27.2942C18.4553 27.6287 19.1618 27.7952 19.9728 27.7952C23.6098 27.7952 23.7893 24.099 22.0801 22.8554C20.6412 21.8091 19.1328 21.6941 19.1328 20.8957C19.1328 20.6871 19.2371 20.5097 19.446 20.3635C19.9117 20.0385 20.8829 20.0991 21.465 20.3819C21.7915 20.5409 22.0047 20.6199 22.1047 20.6199C22.5926 20.6199 22.8826 20.0134 22.8826 19.5764C22.8826 18.6428 21.3102 18.4412 20.3869 18.4412C16.6821 18.4412 16.2917 22.1544 18.5804 23.3938C19.8894 24.1028 21.1515 24.4211 21.1515 25.2659C21.1519 26.2182 19.4474 26.3629 18.6495 25.6041H18.6496ZM25.8672 27.6703H29.8301C30.5849 27.6703 30.5821 25.967 29.8301 25.967H26.9711V19.1049C26.9711 18.3153 25.0144 18.3153 25.0144 19.1049V27.0692C25.0144 27.4877 25.4494 27.6703 25.8672 27.6703Z" fill="white"/>
</svg>
