<svg width="34" height="34" viewBox="0 0 34 34" fill="none" xmlns="http://www.w3.org/2000/svg">
<g clip-path="url(#clip0_515_416)">
<path d="M33.9523 18.9248L33.9521 18.9244L27.5328 2.80597C27.5004 2.72452 27.4523 2.65026 27.3912 2.58742C27.3301 2.52457 27.2572 2.47438 27.1767 2.43971C27.0962 2.40503 27.0096 2.38655 26.922 2.38532C26.8343 2.38409 26.7473 2.40014 26.6659 2.43254L26.6651 2.43288L0.622711 12.8027C0.516517 12.8486 0.424395 12.9218 0.35574 13.015C0.249457 13.0702 0.160198 13.1532 0.09753 13.2553C0.034862 13.3573 0.00114747 13.4745 0 13.5943L0 30.9474C0 31.1245 0.0703182 31.2942 0.195485 31.4194C0.320653 31.5446 0.490416 31.6149 0.667429 31.6149H28.6995C28.8765 31.6149 29.0462 31.5446 29.1714 31.4194C29.2966 31.2942 29.3669 31.1245 29.3669 30.9474V21.4699L33.5797 19.792C33.6611 19.7596 33.7353 19.7114 33.7981 19.6502C33.8609 19.589 33.911 19.5161 33.9456 19.4356C33.9802 19.3551 33.9986 19.2685 33.9997 19.1809C34.0009 19.0932 33.9848 19.0062 33.9523 18.9248ZM28.032 30.28H1.33486V14.2617H28.032V30.28ZM11.1361 12.9302L22.3115 8.47711C22.8051 8.99592 23.3985 9.40952 24.0561 9.69306C24.7136 9.9766 25.4218 10.1242 26.1379 10.127L27.2525 12.9302H11.1361ZM29.3669 20.0363V13.5943C29.3669 13.4173 29.2966 13.2475 29.1714 13.1223C29.0462 12.9972 28.8765 12.9269 28.6995 12.9269H28.6888L27.2745 9.3748C27.2588 9.34517 27.2405 9.31702 27.2198 9.29071C27.1852 9.13527 27.0955 8.9976 26.9673 8.90314C26.8391 8.80867 26.681 8.76379 26.5223 8.77679C25.8596 8.8372 25.1924 8.73098 24.5812 8.46777C23.97 8.20457 23.4344 7.79273 23.023 7.26973C22.9224 7.14559 22.7802 7.06207 22.6228 7.03458C22.4654 7.0071 22.3034 7.03752 22.1667 7.12023C22.1349 7.124 22.1035 7.1298 22.0725 7.13758L8.42896 12.5705C8.34724 12.6025 8.27273 12.6505 8.20981 12.7117C8.14689 12.7729 8.09682 12.8461 8.06254 12.9269H3.91914L26.5396 3.91991L32.4658 18.8002L29.3669 20.0363Z" fill="#00EAFF"/>
<path d="M3.14647 25.7742C3.78425 25.9627 4.3648 26.3076 4.83536 26.7776C5.30592 27.2476 5.65157 27.8277 5.84088 28.4653C5.88197 28.6029 5.96638 28.7237 6.08158 28.8095C6.19678 28.8954 6.3366 28.9418 6.48027 28.9418C6.51491 28.9396 6.54929 28.9345 6.58306 28.9265C6.61301 28.935 6.64363 28.9412 6.6745 28.9451H22.6928C22.7203 28.9416 22.7475 28.936 22.7742 28.9285C22.9343 28.9674 23.1034 28.9411 23.2442 28.8555C23.3849 28.7698 23.4859 28.6317 23.5249 28.4716L23.5257 28.4679C23.7145 27.8297 24.06 27.2489 24.5306 26.7783C25.0012 26.3077 25.582 25.9623 26.2202 25.7735C26.3722 25.727 26.5023 25.6271 26.5865 25.4921C26.6706 25.3572 26.7031 25.1964 26.678 25.0393C26.6869 25.0069 26.6934 24.9739 26.6974 24.9406V19.6011C26.6935 19.5677 26.6868 19.5347 26.6773 19.5024C26.7027 19.3453 26.6702 19.1844 26.5861 19.0494C26.5019 18.9145 26.3717 18.8145 26.2195 18.7682C25.5813 18.5794 25.0005 18.2339 24.5301 17.7632C24.0597 17.2924 23.7147 16.7114 23.5264 16.0731C23.4797 15.92 23.3789 15.7892 23.2428 15.705C23.1068 15.6207 22.9447 15.5888 22.7869 15.6152C22.756 15.6066 22.7246 15.6004 22.6928 15.5966H6.6745C6.64086 15.6006 6.60761 15.6072 6.57505 15.6166C6.41804 15.5916 6.25728 15.6241 6.12237 15.7083C5.98746 15.7924 5.8875 15.9224 5.84088 16.0744C5.65197 16.7125 5.3065 17.2932 4.83591 17.7636C4.36533 18.2341 3.78456 18.5794 3.14647 18.7682C2.9944 18.8147 2.86428 18.9146 2.78013 19.0496C2.69598 19.1845 2.66347 19.3453 2.68861 19.5024C2.67993 19.5348 2.67368 19.5678 2.66992 19.6011V24.9406C2.67376 24.9719 2.68002 25.003 2.68861 25.0333C2.66214 25.1913 2.69399 25.3536 2.77821 25.4899C2.86244 25.6261 2.99331 25.7272 3.14647 25.7742ZM4.00478 19.8721C4.66801 19.6057 5.27046 19.2079 5.77585 18.7025C6.28123 18.1971 6.67909 17.5946 6.94547 16.9314H22.4211C22.6877 17.5947 23.0857 18.1971 23.5912 18.7025C24.0967 19.2079 24.6992 19.6057 25.3625 19.8721V24.6696C24.6995 24.9363 24.0972 25.3342 23.5918 25.8396C23.0865 26.3449 22.6885 26.9472 22.4218 27.6103H6.94547C6.67879 26.9472 6.28082 26.3449 5.77547 25.8396C5.27012 25.3342 4.66783 24.9363 4.00478 24.6696V19.8721Z" fill="#00EAFF"/>
<path d="M14.6837 26.2754C16.8954 26.2754 18.6883 24.4825 18.6883 22.2708C18.6883 20.0591 16.8954 18.2662 14.6837 18.2662C12.472 18.2662 10.6791 20.0591 10.6791 22.2708C10.6813 24.4816 12.4729 26.2732 14.6837 26.2754ZM14.6837 19.6011C16.1581 19.6011 17.3534 20.7964 17.3534 22.2708C17.3534 23.7452 16.1581 24.9405 14.6837 24.9405C13.2092 24.9405 12.014 23.7452 12.014 22.2708C12.014 20.7964 13.2092 19.6011 14.6837 19.6011ZM7.34196 23.272C7.89485 23.272 8.34311 22.8237 8.34311 22.2708C8.34311 21.7179 7.89485 21.2697 7.34196 21.2697C6.78908 21.2697 6.34082 21.7179 6.34082 22.2708C6.34082 22.8238 6.78908 23.272 7.34196 23.272ZM7.34196 21.9371C7.43047 21.9371 7.51535 21.9723 7.57794 22.0348C7.64052 22.0974 7.67568 22.1823 7.67568 22.2708C7.67568 22.3593 7.64052 22.4442 7.57794 22.5068C7.51535 22.5694 7.43047 22.6045 7.34196 22.6045C7.25346 22.6045 7.16858 22.5694 7.10599 22.5068C7.04341 22.4442 7.00825 22.3593 7.00825 22.2708C7.00825 22.1823 7.04341 22.0974 7.10599 22.0348C7.16858 21.9723 7.25346 21.9371 7.34196 21.9371ZM22.0254 23.272C22.5783 23.272 23.0265 22.8237 23.0265 22.2708C23.0265 21.7179 22.5783 21.2697 22.0254 21.2697C21.4725 21.2697 21.0243 21.7179 21.0243 22.2708C21.0243 22.8238 21.4725 23.272 22.0254 23.272ZM22.0254 21.9371C22.1139 21.9371 22.1988 21.9723 22.2614 22.0348C22.324 22.0974 22.3591 22.1823 22.3591 22.2708C22.3591 22.3593 22.324 22.4442 22.2614 22.5068C22.1988 22.5694 22.1139 22.6045 22.0254 22.6045C21.9369 22.6045 21.852 22.5694 21.7894 22.5068C21.7268 22.4442 21.6917 22.3593 21.6917 22.2708C21.6917 22.1823 21.7268 22.0974 21.7894 22.0348C21.852 21.9723 21.9369 21.9371 22.0254 21.9371Z" fill="#00EAFF"/>
</g>
<defs>
<clipPath id="clip0_515_416">
<rect width="34" height="34" fill="#00EAFF"/>
</clipPath>
</defs>
</svg>
