<svg width="34" height="34" viewBox="0 0 34 34" fill="none" xmlns="http://www.w3.org/2000/svg">
<path d="M33.9385 26.6626C33.779 25.8948 33.3276 25.2388 32.6675 24.8152C32.0073 24.3919 31.2232 24.2552 30.4584 24.43L26.9145 25.2414V23.7927C27.6253 23.1232 28.3653 22.249 28.8916 21.4501C29.8146 20.0491 30.4678 18.5106 30.833 16.8782C31.2673 14.936 31.2766 12.88 30.8597 10.9317C30.7829 10.5732 30.4299 10.3444 30.0714 10.4215C29.7127 10.498 29.4844 10.851 29.5609 11.2097C29.9381 12.9719 29.9298 14.8318 29.5368 16.5882C29.2068 18.063 28.6164 19.4532 27.7824 20.7193C27.5352 21.0947 27.2354 21.4885 26.9145 21.8646V14.5038C26.9145 14.137 26.6172 13.8397 26.2505 13.8397H20.9973V6.74828C20.9973 6.38251 20.7014 6.08554 20.3356 6.08422L14.4185 6.06429H14.4164C14.3294 6.06422 14.2432 6.08128 14.1627 6.11452C14.0823 6.14776 14.0092 6.19651 13.9476 6.258C13.8857 6.31967 13.8366 6.39296 13.8031 6.47366C13.7696 6.55437 13.7523 6.6409 13.7523 6.72829V10.4172H8.49847C8.13191 10.4172 7.83441 10.7145 7.83441 11.0813V17.6573H6.35475V16.7554C6.35475 16.3888 6.05751 16.0916 5.69068 16.0916H5.00955C4.89331 15.4529 4.82677 14.8062 4.81054 14.1572C4.77162 12.5829 5.02118 11.0426 5.55189 9.57858C5.67632 9.23562 5.81569 8.89826 5.96959 8.56748C6.12445 8.23492 5.98022 7.83986 5.64792 7.68494C5.31536 7.53061 4.9203 7.67431 4.76571 8.00688C4.59523 8.37292 4.441 8.74631 4.30346 9.12595C3.71616 10.7459 3.44018 12.4499 3.48268 14.19C3.49892 14.8272 3.55889 15.4626 3.66217 16.0916H0.664062C0.297301 16.0916 0 16.3889 0 16.7556V28.4281C0 28.7949 0.297301 29.0922 0.664062 29.0922H5.69068C6.05751 29.0922 6.35475 28.7949 6.35475 28.4281V27.7967H8.85282L18.9717 31.7656C19.9164 32.1362 20.9061 32.3227 21.9008 32.3227C22.5641 32.3227 23.2303 32.2397 23.8863 32.0729L31.8174 30.0571C33.323 29.6745 34.2545 28.1835 33.9385 26.6626ZM25.5866 15.1679V25.5454L23.8113 25.9518C23.6202 25.9952 23.4274 26.0302 23.2334 26.057C22.4927 26.159 21.7402 26.1372 21.0067 25.9923C21.0036 25.9915 21.0004 25.991 20.9974 25.9903V24.9833C21.5037 24.2279 21.6715 23.2702 21.4062 22.396C21.3322 22.1515 21.2272 21.9175 21.0936 21.6998C21.0633 21.6506 21.0317 21.6023 20.9987 21.555C20.9984 21.5543 20.9979 21.5537 20.9973 21.553V15.1676H25.5867L25.5866 15.1679ZM15.0805 7.39468L19.6695 7.40995V20.4983L17.1049 19.4368L15.0805 18.5987V7.39468ZM9.16254 11.7453H13.7515V18.0485L12.928 17.7076C12.8474 17.6743 12.7611 17.6571 12.674 17.6571H9.16254V11.7453ZM5.02662 27.7641H1.32812V17.4194H4.46117C4.4625 17.4194 4.46403 17.4197 4.46555 17.4197C4.46688 17.4197 4.46788 17.4194 4.46921 17.4194H5.02662V27.7641ZM31.4903 28.77L23.5591 30.7858C22.19 31.1336 20.7714 31.0447 19.4566 30.5292L9.22084 26.5145C9.14357 26.4843 9.06131 26.4688 8.97832 26.4689H6.35475V18.9854H12.5417L16.8384 20.7639L19.1896 21.7372C20.0215 22.0821 20.4197 23.058 20.0785 23.8889C20.0101 24.0557 19.9253 24.2142 19.8126 24.3556C19.3969 24.8803 18.7123 25.1117 18.0721 24.9561L18.0565 24.9522C18.018 24.9425 17.9799 24.9314 17.9422 24.919L13.474 23.2012C13.4376 23.1872 13.4184 23.18 13.4184 23.18C13.0763 23.0482 12.6922 23.2192 12.5604 23.5615C12.4289 23.9037 12.5996 24.2881 12.942 24.4196C12.942 24.4196 15.4612 25.3882 17.3824 26.1291C17.421 26.1441 17.4594 26.1581 17.498 26.171L18.9733 26.7384C19.4192 26.9098 19.863 27.0805 20.3271 27.1991C21.1165 27.4007 21.9319 27.481 22.7455 27.4369C23.2043 27.4123 23.6601 27.3486 24.1081 27.2466L26.3988 26.7223C26.4011 26.7218 26.4035 26.7208 26.4058 26.7202L30.7549 25.7247C31.1686 25.63 31.5933 25.7039 31.9502 25.933C32.3077 26.1623 32.5517 26.5174 32.6382 26.9329C32.7212 27.3281 32.648 27.7401 32.434 28.0825C32.22 28.4249 31.8819 28.6713 31.4903 28.77ZM8.49196 4.72315C8.6564 4.72338 8.81502 4.66234 8.93689 4.55196C10.1218 3.48169 11.5368 2.62797 13.0296 2.08297C14.647 1.49262 16.42 1.24074 18.1572 1.35483C19.3966 1.4357 20.6169 1.7015 21.7777 2.1434C22.1201 2.27389 22.5039 2.10223 22.6344 1.75924C22.7651 1.41659 22.5932 1.03296 22.2503 0.90247C20.966 0.413371 19.6157 0.119145 18.2443 0.0295597C16.3243 -0.0964793 14.3635 0.182095 12.5742 0.835532C10.9225 1.43837 9.35704 2.3828 8.04684 3.56622C7.77445 3.81213 7.7532 4.23208 7.9991 4.50421C8.06126 4.57328 8.13728 4.62848 8.2222 4.6662C8.30712 4.70392 8.39904 4.72333 8.49196 4.72315Z" fill="#00EAFF"/>
<path d="M23.5672 9.4624C23.6878 9.56745 23.8424 9.62524 24.0024 9.62509C24.0975 9.62521 24.1915 9.60488 24.2781 9.56549C24.3646 9.5261 24.4417 9.46857 24.5041 9.39679L29.9676 3.10765C30.2083 2.83087 30.1788 2.41145 29.9019 2.17092C29.6249 1.93053 29.2057 1.95975 28.9653 2.2366L23.5015 8.52573C23.2608 8.80252 23.2903 9.22194 23.5672 9.4624ZM28.4633 6.62326C27.544 6.62326 26.7962 7.37113 26.7962 8.29046C26.7962 9.20979 27.544 9.95759 28.4633 9.95759C29.3826 9.95759 30.1305 9.20952 30.1305 8.29046C30.1305 7.37113 29.3826 6.62326 28.4633 6.62326ZM28.4633 8.62946C28.3734 8.62937 28.2873 8.59363 28.2237 8.53007C28.1601 8.46652 28.1244 8.38034 28.1243 8.29046C28.1244 8.20057 28.1602 8.1144 28.2237 8.05084C28.2873 7.98728 28.3734 7.95151 28.4633 7.95139C28.5532 7.95155 28.6393 7.98732 28.7029 8.05087C28.7665 8.11443 28.8022 8.20058 28.8024 8.29046C28.8023 8.38034 28.7665 8.46651 28.7029 8.53006C28.6394 8.59361 28.5532 8.62936 28.4633 8.62946ZM24.7757 5.14499C25.695 5.14499 26.4428 4.39713 26.4428 3.4778C26.4428 2.55847 25.695 1.81067 24.7757 1.81067C23.8564 1.81067 23.1085 2.55847 23.1085 3.47773C23.1085 4.39699 23.8564 5.14499 24.7757 5.14499ZM24.7757 3.13853C24.8656 3.13867 24.9518 3.17448 25.0154 3.23809C25.0789 3.30171 25.1147 3.38794 25.1147 3.47786C25.1146 3.56774 25.0788 3.65389 25.0153 3.71744C24.9517 3.78099 24.8656 3.81675 24.7757 3.81687C24.6858 3.81676 24.5996 3.78101 24.5361 3.71744C24.4725 3.65387 24.4367 3.56769 24.4366 3.4778C24.4366 3.2908 24.5887 3.13853 24.7757 3.13853ZM6.13163 6.28373C6.23801 6.53899 6.49971 6.7076 6.77703 6.69306C7.05122 6.67878 7.29141 6.49331 7.37621 6.23286C7.46187 5.97009 7.36844 5.6708 7.14877 5.50292C6.92485 5.33226 6.61048 5.32163 6.376 5.47749C6.11582 5.65054 6.01156 5.99552 6.13163 6.28373Z" fill="#00EAFF"/>
</svg>
