<svg width="34" height="34" viewBox="0 0 34 34" fill="none" xmlns="http://www.w3.org/2000/svg">
<path d="M31.0764 0.61201C30.8724 0.47601 30.6004 0.47601 30.3284 0.61201L7.27639 14.892C7.07239 15.028 6.93639 15.3 6.93639 15.572C6.93639 15.844 7.14039 16.048 7.41239 16.116L15.3004 18.632L16.8644 27.472C16.9324 27.744 17.1364 27.948 17.4084 28.016H17.4764C17.7484 28.016 17.9524 27.88 18.0884 27.676L21.4884 21.216L27.5404 24.208C27.6084 24.276 27.7444 24.276 27.8124 24.276C27.9484 24.276 28.0164 24.276 28.1524 24.208C28.3564 24.072 28.4924 23.936 28.4924 23.664L31.2804 1.36001C31.4164 1.02001 31.3484 0.74801 31.0764 0.61201ZM17.9524 25.228L16.7284 18.292L23.0524 11.968L19.1084 19.04C19.0404 19.176 18.9724 19.38 19.0404 19.584C19.1084 19.788 19.2444 19.924 19.3804 19.992L20.3324 20.468L17.9524 25.228ZM27.3364 22.508L21.5564 19.652L20.6044 19.176L26.5204 8.50001C26.6564 8.22801 26.5884 7.82001 26.3164 7.61601C26.0444 7.41201 25.6364 7.41201 25.4324 7.68401L15.7764 17.34L9.31639 15.3L29.8524 2.58401L27.3364 22.508ZM6.86839 17.612C6.59639 17.34 6.18839 17.272 5.91639 17.544L2.85639 20.264C2.58439 20.536 2.51639 20.944 2.78839 21.216C2.92439 21.352 3.12839 21.42 3.26439 21.42C3.40039 21.42 3.60439 21.352 3.74039 21.216L6.80039 18.496C7.07239 18.36 7.07239 17.952 6.86839 17.612Z" fill="#00EAFF"/>
<path d="M11.4246 19.992L4.55658 26.044C4.28458 26.316 4.21658 26.724 4.48858 26.996C4.62458 27.132 4.82858 27.2 4.96458 27.2C5.10058 27.2 5.30458 27.132 5.44058 26.996L12.3086 20.944C12.5806 20.672 12.6486 20.264 12.3766 19.992C12.1046 19.788 11.6966 19.72 11.4246 19.992ZM25.0246 24.888C24.6846 24.684 24.2766 24.82 24.0726 25.16L19.9246 32.504C19.7206 32.844 19.8566 33.252 20.1966 33.456C20.3326 33.524 20.4006 33.524 20.5366 33.524C20.7406 33.524 21.0126 33.388 21.1486 33.184L25.2966 25.84C25.5006 25.5 25.3646 25.024 25.0246 24.888Z" fill="#00EAFF"/>
</svg>
