<svg width="34" height="34" viewBox="0 0 34 34" fill="none" xmlns="http://www.w3.org/2000/svg">
<path d="M4.39609 22.2461H7.11211C7.39766 23.2156 7.82266 24.132 8.38047 24.9754C10.2664 27.8109 13.4273 29.5043 16.8273 29.5043C21.343 29.5043 25.2809 26.5359 26.5492 22.2461H29.2652C30.009 22.2461 30.6066 21.6418 30.6066 20.9047V17.8102C30.6066 17.0664 30.0023 16.4688 29.2652 16.4688H26.5492C25.2742 12.1789 21.343 9.21055 16.8273 9.21055C13.4273 9.21055 10.2664 10.9039 8.38047 13.7395C7.81602 14.5828 7.39766 15.4992 7.10547 16.4688H4.39609C3.65234 16.4688 3.05469 17.073 3.05469 17.8102V20.9047C3.05469 21.6418 3.65898 22.2461 4.39609 22.2461ZM9.11758 24.1586C8.73906 23.5543 8.43359 22.9168 8.20781 22.2461H8.75898C8.77891 22.2461 8.80547 22.2527 8.82539 22.2527C8.85195 22.2527 8.87187 22.2461 8.8918 22.2461H12.3648C12.4512 22.9102 12.5641 23.5477 12.7102 24.1586H9.11758ZM9.88125 25.2078H13.009C13.3941 26.4297 13.8789 27.4125 14.4434 28.1297C12.6703 27.6449 11.0766 26.6355 9.88125 25.2078ZM13.4273 22.2461H20.2473C20.1543 22.9168 20.0281 23.5543 19.8688 24.1586H13.8059C13.6531 23.5477 13.5203 22.9102 13.4273 22.2461ZM16.834 28.4551C15.8246 28.4551 14.8086 27.2266 14.118 25.2145H19.5566C18.8594 27.2266 17.85 28.4551 16.834 28.4551ZM19.2313 28.1297C19.7957 27.4125 20.2805 26.4297 20.6656 25.2078H23.8066C22.618 26.6156 21.0309 27.6383 19.2313 28.1297ZM24.5703 24.1586H20.9578C21.1039 23.5477 21.2168 22.9102 21.3031 22.2461H25.4668C25.241 22.9234 24.9355 23.5676 24.5703 24.1586ZM29.2785 17.518C29.4379 17.518 29.5707 17.6508 29.5707 17.8102V20.9047C29.5707 21.0641 29.4379 21.1969 29.2785 21.1969H9.35664V17.518H29.2785ZM13.4273 16.4621C13.5203 15.798 13.6465 15.1605 13.7992 14.5496H19.8621C20.0215 15.1539 20.1477 15.7914 20.2406 16.4621H13.4273ZM24.5703 14.5562C24.9355 15.1473 25.241 15.7848 25.4668 16.4688H21.3031C21.2168 15.8047 21.1039 15.1672 20.9578 14.5562H24.5703ZM23.8 13.5004H20.659C20.2738 12.2852 19.7891 11.2957 19.2246 10.5785C21.0309 11.0699 22.618 12.0992 23.8 13.5004ZM16.834 10.2598C17.8434 10.2598 18.8594 11.4883 19.55 13.507H14.1113C14.8152 11.4883 15.8246 10.2598 16.834 10.2598ZM14.4434 10.5852C13.8789 11.3023 13.3941 12.2852 13.009 13.507H9.87461C11.0766 12.0793 12.6703 11.0633 14.4434 10.5852ZM9.11758 14.5562H12.7168C12.5707 15.1672 12.4578 15.8047 12.3715 16.4688H8.20781C8.43359 15.798 8.73906 15.1605 9.11758 14.5562ZM4.10391 17.8102C4.10391 17.6508 4.23672 17.518 4.39609 17.518H8.30078V21.1969H4.39609C4.23672 21.1969 4.10391 21.0641 4.10391 20.9047V17.8102ZM5.9832 20.473C6.18242 20.473 6.375 20.4266 6.54102 20.3469L7.01914 20.7918C7.11875 20.8848 7.25156 20.9313 7.37773 20.9313C7.51719 20.9313 7.65664 20.8781 7.76289 20.7652C7.96211 20.5527 7.94883 20.2207 7.73633 20.0215L7.24492 19.5633C7.29141 19.4238 7.32461 19.2777 7.32461 19.125C7.32461 18.3813 6.72031 17.777 5.97656 17.777C5.23281 17.777 4.62852 18.3813 4.62852 19.125C4.62852 19.8687 5.23945 20.473 5.9832 20.473ZM5.9832 18.8328C6.14258 18.8328 6.27539 18.9656 6.27539 19.125C6.27539 19.2844 6.14258 19.4172 5.9832 19.4172C5.82383 19.4172 5.69102 19.2844 5.69102 19.125C5.69102 18.9656 5.82383 18.8328 5.9832 18.8328ZM32.1937 2.29102H1.80625C0.85 2.29102 0.0664062 3.09453 0.0664062 4.08398V29.9094C0.0664062 30.8988 0.85 31.709 1.80625 31.709H32.1937C33.1566 31.709 33.9336 30.9055 33.9336 29.9094V4.08398C33.9336 3.09453 33.15 2.29102 32.1937 2.29102ZM32.8844 29.916C32.8844 30.3277 32.5723 30.6598 32.1937 30.6598H1.80625C1.42773 30.6598 1.11562 30.3277 1.11562 29.916V7.54375H32.8777V29.916H32.8844ZM32.8844 6.49453H1.11562V4.08398C1.11562 3.67227 1.42773 3.34023 1.80625 3.34023H32.1937C32.5723 3.34023 32.8844 3.67227 32.8844 4.08398V6.49453ZM31.5563 4.90742C31.5563 5.39219 31.1645 5.78398 30.6797 5.78398C30.1949 5.78398 29.8031 5.39219 29.8031 4.90742C29.8031 4.42266 30.1949 4.03086 30.6797 4.03086C31.1645 4.03086 31.5563 4.42266 31.5563 4.90742ZM29.0992 4.90742C29.0992 5.39219 28.7074 5.78398 28.2227 5.78398C27.7379 5.78398 27.3461 5.39219 27.3461 4.90742C27.3461 4.42266 27.7379 4.03086 28.2227 4.03086C28.7074 4.03086 29.0992 4.42266 29.0992 4.90742ZM26.6488 4.90742C26.6488 5.39219 26.257 5.78398 25.7723 5.78398C25.2875 5.78398 24.8957 5.39219 24.8957 4.90742C24.8957 4.42266 25.2875 4.03086 25.7723 4.03086C26.257 4.03086 26.6488 4.42266 26.6488 4.90742Z" fill="#00EAFF"/>
</svg>
