<svg width="34" height="34" viewBox="0 0 34 34" fill="none" xmlns="http://www.w3.org/2000/svg">
<g clip-path="url(#clip0_515_444)">
<path d="M17 23.7979C21.0791 23.7979 24.3976 20.4793 24.3976 16.4002V7.39759C24.3976 3.31859 21.0791 0 17 0C12.9209 0 9.60241 3.31859 9.60241 7.39759V16.4002C9.60241 20.4794 12.9209 23.7979 17 23.7979ZM11.7274 7.39759C11.7274 4.49026 14.0927 2.125 17 2.125C19.9073 2.125 22.2726 4.49026 22.2726 7.39759V16.4002C22.2726 19.3075 19.9073 21.6728 17 21.6728C14.0927 21.6728 11.7274 19.3075 11.7274 16.4002V7.39759ZM29.1915 18.539C28.6939 21.3661 27.2034 23.9565 24.9946 25.8328C23.031 27.5008 20.6022 28.5105 18.0625 28.7318V31.875H24.9688C25.5556 31.875 26.0312 32.3507 26.0312 32.9375C26.0312 33.5243 25.5556 34 24.9688 34H9.03125C8.44442 34 7.96875 33.5243 7.96875 32.9375C7.96875 32.3507 8.44442 31.875 9.03125 31.875H15.9375V28.7318C13.3978 28.5105 10.9691 27.5008 9.00542 25.8328C6.79661 23.9565 5.30619 21.3661 4.80861 18.539C4.70694 17.961 5.09289 17.4101 5.67083 17.3084C6.2487 17.2067 6.79973 17.5927 6.9014 18.1706C7.76648 23.0859 12.0136 26.6533 17 26.6533C21.9864 26.6533 26.2335 23.0858 27.0986 18.1706C27.2003 17.5927 27.7512 17.2066 28.3292 17.3084C28.9072 17.4101 29.2931 17.961 29.1915 18.539ZM29.2075 7.15647V13.2947C29.2075 13.8816 28.7318 14.3572 28.145 14.3572C27.5581 14.3572 27.0825 13.8816 27.0825 13.2947V7.15647C27.0825 6.56964 27.5581 6.09397 28.145 6.09397C28.7318 6.09397 29.2075 6.56964 29.2075 7.15647ZM34 8.61834V11.8327C34 12.4195 33.5243 12.8952 32.9375 12.8952C32.3507 12.8952 31.875 12.4195 31.875 11.8327V8.61834C31.875 8.0315 32.3507 7.55584 32.9375 7.55584C33.5243 7.55584 34 8.0315 34 8.61834ZM4.79254 13.2947V7.1564C4.79254 6.56957 5.26821 6.0939 5.85504 6.0939C6.44187 6.0939 6.91754 6.56957 6.91754 7.1564V13.2947C6.91754 13.8815 6.44187 14.3572 5.85504 14.3572C5.26821 14.3572 4.79254 13.8815 4.79254 13.2947ZM2.125 8.61834V11.8327C2.125 12.4195 1.64933 12.8952 1.0625 12.8952C0.475668 12.8952 0 12.4195 0 11.8327V8.61834C0 8.0315 0.475668 7.55584 1.0625 7.55584C1.64933 7.55584 2.125 8.0315 2.125 8.61834Z" fill="#00EAFF"/>
</g>
<defs>
<clipPath id="clip0_515_444">
<rect width="34" height="34" fill="white"/>
</clipPath>
</defs>
</svg>
