<svg width="34" height="34" viewBox="0 0 34 34" fill="none" xmlns="http://www.w3.org/2000/svg">
<path d="M31.3438 1.0625H2.65625C1.77756 1.0625 1.0625 1.77756 1.0625 2.65625V31.3438C1.0625 32.2224 1.77756 32.9375 2.65625 32.9375H31.3438C32.2224 32.9375 32.9375 32.2224 32.9375 31.3438V2.65625C32.9375 1.77756 32.2224 1.0625 31.3438 1.0625ZM2.65625 2.125H31.3438C31.637 2.125 31.875 2.36353 31.875 2.65625V7.77962H2.125V2.65625C2.125 2.36353 2.36353 2.125 2.65625 2.125ZM31.3438 31.875H2.65625C2.36353 31.875 2.125 31.6365 2.125 31.3438V8.84212H31.875V31.3438C31.875 31.6365 31.637 31.875 31.3438 31.875Z" fill="#00EAFF"/>
<path d="M11.1562 6.81165C12.1816 6.81165 13.0156 5.97758 13.0156 4.95227C13.0156 3.92696 12.1816 3.0929 11.1562 3.0929C10.1309 3.0929 9.29688 3.92696 9.29688 4.95227C9.29688 5.97758 10.1309 6.81165 11.1562 6.81165ZM11.1562 4.1554C11.5956 4.1554 11.9531 4.51293 11.9531 4.95227C11.9531 5.39161 11.5956 5.74915 11.1562 5.74915C10.7169 5.74915 10.3594 5.39161 10.3594 4.95227C10.3594 4.51293 10.7169 4.1554 11.1562 4.1554ZM16.4688 6.81165C17.4941 6.81165 18.3281 5.97758 18.3281 4.95227C18.3281 3.92696 17.4941 3.0929 16.4688 3.0929C15.4434 3.0929 14.6094 3.92696 14.6094 4.95227C14.6094 5.97758 15.4434 6.81165 16.4688 6.81165ZM16.4688 4.1554C16.9081 4.1554 17.2656 4.51293 17.2656 4.95227C17.2656 5.39161 16.9081 5.74915 16.4688 5.74915C16.0294 5.74915 15.6719 5.39161 15.6719 4.95227C15.6719 4.51293 16.0294 4.1554 16.4688 4.1554ZM5.84375 6.81165C6.86906 6.81165 7.70312 5.97758 7.70312 4.95227C7.70312 3.92696 6.86906 3.0929 5.84375 3.0929C4.81844 3.0929 3.98438 3.92696 3.98438 4.95227C3.98438 5.97758 4.81844 6.81165 5.84375 6.81165ZM5.84375 4.1554C6.28309 4.1554 6.64062 4.51293 6.64062 4.95227C6.64062 5.39161 6.28309 5.74915 5.84375 5.74915C5.40441 5.74915 5.04688 5.39161 5.04688 4.95227C5.04688 4.51293 5.40441 4.1554 5.84375 4.1554ZM26.1534 15.7521C26.1079 15.6677 26.0404 15.5973 25.9581 15.5482C25.8758 15.4991 25.7818 15.4731 25.6859 15.4731C25.5898 15.4733 25.495 15.4996 25.4126 15.5492C25.3303 15.5988 25.263 15.6698 25.2179 15.7547L21.7095 22.3295C21.6698 22.4038 21.6484 22.4865 21.647 22.5707C21.6456 22.655 21.6643 22.7384 21.7016 22.814L22.9314 25.3146C22.8179 25.3419 22.7167 25.4064 22.644 25.4979C22.5714 25.5893 22.5313 25.7024 22.5303 25.8192V29.3223C22.5303 29.4632 22.5863 29.5983 22.6859 29.698C22.7855 29.7976 22.9207 29.8536 23.0616 29.8536H28.3108C28.4517 29.8536 28.5869 29.7976 28.6865 29.698C28.7861 29.5983 28.8421 29.4632 28.8421 29.3223V25.8198C28.8421 25.5701 28.6668 25.3703 28.4341 25.313L29.6735 22.7364C29.71 22.6607 29.7281 22.5774 29.7261 22.4933C29.7242 22.4093 29.7023 22.3269 29.6623 22.253L26.1534 15.7526V15.7521ZM27.7796 28.7911H23.5933V26.351H27.7796V28.7911ZM27.2669 25.2885H24.1028L22.7758 22.5892L25.1558 18.1289V21.8221C25.1558 21.963 25.2117 22.0981 25.3113 22.1978C25.411 22.2974 25.5461 22.3534 25.687 22.3534C25.8279 22.3534 25.963 22.2974 26.0626 22.1978C26.1623 22.0981 26.2183 21.963 26.2183 21.8221V18.1076L28.5993 22.5196L27.2669 25.2885ZM24.3578 14.5817H27.0141C27.155 14.5817 27.2901 14.5257 27.3897 14.4261C27.4893 14.3265 27.5453 14.1914 27.5453 14.0505V11.3942C27.5453 11.2533 27.4893 11.1182 27.3897 11.0186C27.2901 10.9189 27.155 10.863 27.0141 10.863H24.3578C24.2169 10.863 24.0818 10.9189 23.9822 11.0186C23.8825 11.1182 23.8266 11.2533 23.8266 11.3942V14.0505C23.8266 14.1914 23.8825 14.3265 23.9822 14.4261C24.0818 14.5257 24.2169 14.5817 24.3578 14.5817ZM24.8891 11.9255H26.4828V13.5192H24.8891V11.9255ZM4.80516 14.6869H15.4047C15.5456 14.6869 15.6807 14.6309 15.7803 14.5313C15.8799 14.4317 15.9359 14.2965 15.9359 14.1556V11.3942C15.9359 11.2533 15.8799 11.1182 15.7803 11.0186C15.6807 10.9189 15.5456 10.863 15.4047 10.863H4.80516C4.66426 10.863 4.52913 10.9189 4.42951 11.0186C4.32988 11.1182 4.27391 11.2533 4.27391 11.3942V14.1556C4.27391 14.2965 4.32988 14.4317 4.42951 14.5313C4.52913 14.6309 4.66426 14.6869 4.80516 14.6869ZM14.7751 11.9255V13.6244H5.43469V11.9255H14.7751ZM4.37219 16.4496V19.2115C4.37219 19.3524 4.42816 19.4876 4.52779 19.5872C4.62742 19.6868 4.76254 19.7428 4.90344 19.7428H18.5922C18.7331 19.7428 18.8682 19.6868 18.9678 19.5872C19.0674 19.4876 19.1234 19.3524 19.1234 19.2115V16.4496C19.1234 16.3087 19.0674 16.1736 18.9678 16.0739C18.8682 15.9743 18.7331 15.9183 18.5922 15.9183H4.90344C4.76254 15.9183 4.62742 15.9743 4.52779 16.0739C4.42816 16.1736 4.37219 16.3087 4.37219 16.4496ZM5.43469 16.9808H18.0609V18.6803H5.43469V16.9808ZM18.5922 20.9742H4.90344C4.76254 20.9742 4.62742 21.0302 4.52779 21.1298C4.42816 21.2295 4.37219 21.3646 4.37219 21.5055V24.2669C4.37219 24.4078 4.42816 24.5429 4.52779 24.6426C4.62742 24.7422 4.76254 24.7982 4.90344 24.7982H18.5927C18.7336 24.7982 18.8687 24.7422 18.9683 24.6426C19.068 24.5429 19.1239 24.4078 19.1239 24.2669V21.5055C19.1239 21.3646 19.068 21.2295 18.9683 21.1298C18.8687 21.0302 18.7331 20.9742 18.5922 20.9742ZM18.0609 23.7357H5.43469V22.0367H18.0614L18.0609 23.7357ZM19.6547 26.0296H4.90344C4.76254 26.0296 4.62742 26.0856 4.52779 26.1852C4.42816 26.2848 4.37219 26.42 4.37219 26.5609V29.3223C4.37219 29.4632 4.42816 29.5983 4.52779 29.698C4.62742 29.7976 4.76254 29.8536 4.90344 29.8536H19.6552C19.7961 29.8536 19.9312 29.7976 20.0308 29.698C20.1305 29.5983 20.1864 29.4632 20.1864 29.3223V26.5609C20.1864 26.42 20.1305 26.2848 20.0308 26.1852C19.9312 26.0856 19.7956 26.0296 19.6547 26.0296ZM19.1234 28.7911H5.43469V27.0921H19.1239L19.1234 28.7911Z" fill="#00EAFF"/>
</svg>
