<svg width="32" height="32" viewBox="0 0 32 32" fill="none" xmlns="http://www.w3.org/2000/svg">
<path d="M19.1127 3.00234C18.8483 3.01943 18.6054 3.1541 18.4514 3.36989L8.16543 17.7707C8.03874 17.9471 7.98155 18.1642 8.00524 18.3802C8.02871 18.5965 8.13125 18.7961 8.29304 18.9412C8.45482 19.0864 8.66446 19.1666 8.88186 19.1666H14.1535L11.5636 27.7259C11.4882 27.9918 11.5422 28.2776 11.7088 28.4979C11.8756 28.7185 12.136 28.8479 12.4124 28.8477C12.6888 28.8477 12.949 28.7178 13.1156 28.4974L23.6956 14.0966C23.8218 13.9209 23.879 13.7049 23.8562 13.4898C23.8337 13.2747 23.7327 13.0756 23.5728 12.93C23.4126 12.7843 23.2048 12.7028 22.9885 12.7005H17.6801L20.0221 4.1132H20.0219C20.0968 3.83817 20.034 3.54399 19.8535 3.32342C19.673 3.10285 19.3971 2.98322 19.1127 3.0019L19.1127 3.00234ZM17.0188 8.40252L15.6687 13.3435V13.3438C15.5937 13.6104 15.6484 13.8966 15.8163 14.1169C15.984 14.3373 16.2458 14.4658 16.5227 14.4642H21.2525L14.7413 23.3268L16.1923 18.5327C16.2705 18.2664 16.2185 17.979 16.0522 17.7566C15.8861 17.5344 15.6249 17.4034 15.3474 17.403H10.59L17.019 8.40266L17.0188 8.40252Z" fill="#00EAFF" stroke="#00EAFF" stroke-width="0.390625"/>
</svg>
