<svg width="32" height="32" viewBox="0 0 32 32" fill="none" xmlns="http://www.w3.org/2000/svg">
<path fill-rule="evenodd" clip-rule="evenodd" d="M17.7808 14.9996L18.2148 13.4596C18.3003 13.1557 18.5509 12.9242 18.8642 12.8586C19.9197 12.638 21.0106 12.638 22.0659 12.8586C22.3792 12.924 22.6298 13.1558 22.7153 13.4596L23.1498 14.9996C23.3594 15.1027 23.5633 15.2181 23.7593 15.3452L25.3324 14.9451C25.6427 14.8664 25.972 14.9637 26.1863 15.1977C26.9085 15.9862 27.4538 16.9151 27.7873 17.9237C27.8863 18.2234 27.8076 18.5526 27.5828 18.7774L26.4439 19.917C26.4576 20.1472 26.4576 20.3785 26.4439 20.6088L27.5828 21.7484C27.8076 21.9732 27.8863 22.302 27.7873 22.6021C27.4538 23.6107 26.9084 24.5396 26.1863 25.3276C25.9718 25.5616 25.6427 25.6593 25.3324 25.5803L23.7593 25.1802C23.5629 25.3075 23.3596 25.4232 23.1498 25.5262L22.7153 27.0662C22.6298 27.3696 22.3792 27.6015 22.0659 27.6672C21.0109 27.8873 19.9199 27.8873 18.8642 27.6672C18.551 27.6017 18.3004 27.3696 18.2148 27.0662L17.7808 25.5262C17.5707 25.4226 17.3673 25.3073 17.1713 25.1802L15.5978 25.5803C15.2875 25.6593 14.9582 25.5616 14.7438 25.3276C14.0217 24.5396 13.4763 23.6107 13.1432 22.6021C13.0439 22.302 13.123 21.9732 13.3473 21.7484L14.4866 20.6088C14.4723 20.3785 14.4723 20.1473 14.4866 19.917L13.3473 18.7774C13.123 18.5526 13.0439 18.2234 13.1432 17.9237C13.4764 16.9151 14.0217 15.9862 14.7438 15.1977C14.9584 14.9637 15.2875 14.8664 15.5978 14.9451L17.1713 15.3452C17.3673 15.2183 17.5705 15.1025 17.7808 14.9996ZM21.2049 14.429C20.7137 14.3686 20.2164 14.3686 19.7256 14.429L19.3306 15.8293C19.2596 16.0799 19.0758 16.2844 18.8312 16.3842C18.4865 16.5245 18.1619 16.7088 17.8659 16.9323C17.6562 17.0908 17.3837 17.1449 17.1276 17.0797L15.6967 16.7159C15.3975 17.1043 15.1493 17.5272 14.9571 17.9755L15.993 19.0121C16.1783 19.1976 16.2668 19.4566 16.2318 19.7147C16.1832 20.0781 16.1832 20.4466 16.2318 20.8106C16.2666 21.0683 16.1781 21.3279 15.993 21.5133L14.9571 22.5494C15.1493 22.9981 15.3977 23.421 15.6967 23.809L17.1276 23.4452C17.3837 23.3802 17.6563 23.4347 17.8659 23.593C18.1619 23.8161 18.4865 24.0004 18.8312 24.1412C19.0758 24.2406 19.2596 24.4454 19.3306 24.696L19.7256 26.0959C20.2168 26.1563 20.7137 26.1567 21.2049 26.0959L21.5999 24.696C21.6702 24.4454 21.8547 24.2406 22.0989 24.1412C22.444 24.0005 22.7686 23.8161 23.0642 23.593C23.2743 23.4345 23.5468 23.38 23.803 23.4452L25.2338 23.809C25.5326 23.4211 25.7809 22.9981 25.9734 22.5494L24.9375 21.5133C24.7518 21.3277 24.6637 21.0683 24.6983 20.8106C24.7473 20.4468 24.7473 20.0783 24.6983 19.7147C24.6639 19.4566 24.752 19.1974 24.9375 19.0121L25.9734 17.9755C25.7808 17.5272 25.5324 17.1039 25.2338 16.7159L23.803 17.0797C23.5468 17.1447 23.2743 17.0906 23.0642 16.9323C22.7686 16.7088 22.444 16.5245 22.0989 16.3842C21.8547 16.2844 21.6705 16.0799 21.5999 15.8293L21.2049 14.429ZM20.4653 17.1783C18.7337 17.1783 17.3282 18.5606 17.3282 20.2626C17.3282 21.9651 18.7337 23.347 20.4653 23.347C22.1964 23.347 23.6023 21.9651 23.6023 20.2626C23.6023 18.5606 22.1964 17.1783 20.4653 17.1783ZM20.4653 18.8686C21.2475 18.8686 21.8831 19.4937 21.8831 20.2626C21.8831 21.0322 21.2473 21.6567 20.4653 21.6567C19.6825 21.6567 19.0474 21.032 19.0474 20.2626C19.0474 19.4935 19.6828 18.8686 20.4653 18.8686Z" fill="#00EAFF"/>
<path d="M19.2347 12.6202C20.1856 12.4722 21.1572 12.4976 22.101 12.6948L22.2384 12.7334C22.5487 12.8441 22.7901 13.096 22.8799 13.4145L23.2945 14.8857C23.4624 14.9709 23.6264 15.0638 23.7859 15.1642L25.2899 14.7825L25.4298 14.7574C25.7578 14.7204 26.0878 14.84 26.3127 15.0853L26.5814 15.394C27.1874 16.1298 27.6515 16.9696 27.9498 17.8717L27.9839 18.0076C28.0335 18.2818 27.966 18.5647 27.7971 18.7885L27.7041 18.895L26.6156 19.9837C26.6242 20.1696 26.6242 20.3557 26.6156 20.5415L27.7041 21.6311L27.7971 21.7376C27.9939 21.9983 28.0534 22.3391 27.9498 22.6535C27.6515 23.5554 27.1872 24.3959 26.5814 25.1312L26.3127 25.4399C26.0878 25.6851 25.758 25.8059 25.4298 25.7687L25.2899 25.7427L23.7867 25.3602C23.6267 25.4611 23.4625 25.5548 23.2937 25.6404L22.8799 27.1107C22.7902 27.429 22.5489 27.6818 22.2384 27.7926L22.101 27.8312C21.1574 28.0281 20.1857 28.0528 19.2347 27.905L18.8286 27.8312C18.5 27.7625 18.2288 27.5411 18.0975 27.2432L18.0506 27.1107L17.6351 25.6395C17.4669 25.5539 17.3032 25.4607 17.1438 25.3602L15.6406 25.7427C15.315 25.8256 14.972 25.7463 14.7193 25.5372L14.6169 25.4399C13.8789 24.6345 13.3212 23.6852 12.9807 22.6544L12.9466 22.5176C12.8887 22.1976 12.9904 21.8666 13.2256 21.6311L14.3141 20.5415C14.3051 20.3557 14.3051 20.1695 14.3141 19.9837L13.2256 18.895C12.9568 18.6257 12.8616 18.231 12.9807 17.8717L13.1189 17.4892C13.4638 16.6058 13.9711 15.7905 14.6169 15.0853L14.7193 14.988C14.9721 14.779 15.3152 14.7001 15.6406 14.7825L17.1438 15.1642C17.3029 15.064 17.4667 14.971 17.6351 14.8857L18.0506 13.4145L18.0975 13.2828C18.2287 12.9845 18.5 12.7637 18.8286 12.6948L19.2347 12.6202ZM22.0302 13.0228C21.1274 12.8341 20.198 12.81 19.2884 12.9515L18.8994 13.0228C18.6796 13.069 18.4983 13.2168 18.4106 13.4162L18.379 13.5043L17.9448 15.0442L17.9252 15.1164L17.8569 15.1499C17.6531 15.2497 17.4555 15.3621 17.2649 15.4854L17.2018 15.5265L17.1284 15.5072L15.5553 15.1071C15.3377 15.052 15.1085 15.1051 14.9394 15.2447L14.8703 15.3101C14.2526 15.9846 13.767 16.7642 13.4371 17.6092L13.3057 17.9757C13.2262 18.2157 13.2896 18.4799 13.4695 18.6602L14.6084 19.7992L14.6613 19.8529L14.657 19.9275C14.6432 20.1509 14.6432 20.3752 14.657 20.5985L14.6613 20.6732L13.4687 21.8651L13.4695 21.8659C13.3122 22.0236 13.2432 22.245 13.2819 22.4589L13.3057 22.5504L13.4371 22.9161C13.767 23.7612 14.2525 24.5409 14.8703 25.2151L14.9394 25.2805C15.1084 25.4202 15.3379 25.4735 15.5553 25.4181L17.1284 25.018L17.2018 24.9995L17.2649 25.0398C17.36 25.1015 17.4571 25.1608 17.5558 25.2168L17.8569 25.3762L17.9252 25.4097L17.9448 25.481L18.379 27.021L18.4106 27.1099C18.4984 27.3091 18.6799 27.4574 18.8994 27.5033L19.2884 27.5737C20.1982 27.715 21.1277 27.6916 22.0302 27.5033L22.1224 27.4773C22.3297 27.4031 22.4906 27.2342 22.5506 27.0218L22.9857 25.481L23.0053 25.4097L23.0736 25.3762C23.2771 25.2763 23.4746 25.1635 23.6656 25.0398L23.7287 24.9995L23.8021 25.018L25.3752 25.4181L25.469 25.4349C25.6883 25.4597 25.9088 25.3793 26.0594 25.2151L26.3161 24.9199C26.8956 24.2164 27.3394 23.4132 27.6248 22.5504L27.6478 22.4589C27.6808 22.2754 27.6361 22.0866 27.5232 21.9372L27.461 21.8659L26.2692 20.6732L26.2735 20.5994C26.2867 20.3756 26.2867 20.1504 26.2735 19.9267L26.2692 19.8529L26.3221 19.7992L27.461 18.6602L27.5232 18.5889C27.6363 18.4392 27.681 18.2498 27.6478 18.0663L27.6248 17.9757C27.3394 17.1127 26.8957 16.3092 26.3161 15.6054L26.0594 15.3101C25.9092 15.1462 25.6885 15.0657 25.469 15.0904L25.3752 15.1071L23.8021 15.5072L23.7287 15.5265L23.6656 15.4854C23.4755 15.3622 23.2772 15.2501 23.0736 15.1499L23.0053 15.1164L22.9857 15.0442L22.5506 13.5043C22.4906 13.2914 22.3297 13.1229 22.1224 13.0488L22.0302 13.0228ZM20.8462 14.2273L21.2258 14.2625L21.3392 14.2768L21.3691 14.3841L21.7641 15.7849L21.7897 15.8578C21.8584 16.0248 21.9927 16.1593 22.1642 16.2294L22.4295 16.3468C22.6902 16.4732 22.9377 16.6246 23.1683 16.7989L23.2331 16.8425C23.3905 16.9353 23.5803 16.9629 23.7603 16.9172L25.1909 16.5532L25.301 16.5255L25.3701 16.6144C25.6772 17.0135 25.933 17.4492 26.131 17.9103L26.1745 18.0135L26.0952 18.0931L25.0595 19.1299C24.911 19.2782 24.8402 19.4857 24.8676 19.6927L24.8957 19.977C24.9085 20.1672 24.9085 20.358 24.8957 20.5482L24.8676 20.8326C24.8399 21.0391 24.9107 21.2467 25.0595 21.3954L26.0952 22.4321L26.1745 22.5118L26.131 22.6149C25.933 23.0763 25.6773 23.5111 25.3701 23.91L25.301 23.9997L25.1909 23.9712L23.7603 23.6072C23.5806 23.5614 23.3906 23.5897 23.2331 23.6827L23.1683 23.7263C22.9378 23.9003 22.6901 24.0511 22.4295 24.1776L22.1642 24.2958C21.9686 24.3754 21.8205 24.5398 21.7641 24.7404L21.3691 26.1411L21.3392 26.2485L21.2258 26.2627C20.7206 26.3252 20.2096 26.3248 19.7047 26.2627L19.5913 26.2485L19.5614 26.1411L19.1664 24.7412C19.1094 24.5401 18.9621 24.3754 18.7663 24.2958C18.4977 24.1861 18.24 24.0509 17.9986 23.8924L17.7623 23.7263C17.5944 23.5995 17.3756 23.5559 17.1702 23.608L15.7396 23.9712L15.6295 23.9997L15.5604 23.91C15.253 23.511 14.9971 23.0756 14.7995 22.6141L14.756 22.5118L14.8353 22.4321L15.871 21.3954L15.923 21.3375C16.0197 21.2155 16.0716 21.0643 16.0689 20.9097L16.0629 20.8326C16.0123 20.4541 16.0123 20.0706 16.0629 19.6927L16.0689 19.6155C16.0717 19.4608 16.0199 19.3098 15.923 19.1877L15.871 19.1299L14.8353 18.0931L14.756 18.0135L14.7995 17.9103L14.959 17.5698C15.1287 17.2341 15.3296 16.9141 15.5604 16.6144L15.6295 16.5255L15.7396 16.5532L17.1702 16.9172L17.2478 16.9323C17.4296 16.9573 17.6155 16.9099 17.7623 16.7989L17.9986 16.6329C18.24 16.4741 18.4968 16.3388 18.7655 16.2294L18.8371 16.195C18.9974 16.1073 19.1166 15.9598 19.1664 15.784L19.5614 14.3841L19.5913 14.2768L19.7047 14.2625C20.0833 14.2159 20.4656 14.204 20.8462 14.2273ZM21.0714 14.5846C20.668 14.5428 20.2614 14.5428 19.8583 14.5846L19.4949 15.8738C19.4098 16.1737 19.1897 16.4193 18.8969 16.5389C18.6489 16.6399 18.4109 16.7648 18.1879 16.9113L17.9696 17.0657C17.7496 17.2318 17.4722 17.3017 17.2009 17.2644L17.0849 17.2418L15.7669 16.9071C15.5281 17.23 15.3251 17.5761 15.1603 17.9405L16.1149 18.8942L16.1926 18.9822C16.3609 19.1948 16.4374 19.4663 16.4007 19.7371C16.3541 20.0858 16.3541 20.4396 16.4007 20.7889L16.4101 20.9047C16.414 21.1357 16.3369 21.3617 16.1926 21.5438L16.1149 21.6311L15.1603 22.5839C15.3251 22.9488 15.5289 23.2945 15.7677 23.6173L17.0849 23.2826L17.2009 23.2599C17.4723 23.2229 17.7497 23.2937 17.9696 23.4596L18.1879 23.6139C18.411 23.7603 18.6487 23.885 18.8969 23.9863C19.1902 24.1055 19.4098 24.3508 19.4949 24.6506L19.8583 25.9398C20.2618 25.9817 20.6681 25.9818 21.0714 25.9398L21.4356 24.6515L21.4732 24.5416C21.576 24.2915 21.7775 24.0906 22.0337 23.9863L22.2785 23.8773C22.5192 23.7605 22.7473 23.6202 22.9601 23.4596L23.0582 23.395C23.2935 23.2563 23.577 23.2142 23.8456 23.2826L25.1619 23.6173C25.4006 23.2945 25.6042 22.9489 25.7693 22.5839L24.8156 21.6311C24.593 21.4087 24.4876 21.0977 24.5289 20.7889L24.5554 20.5256C24.573 20.2627 24.5642 19.9986 24.5289 19.7371C24.4879 19.4281 24.5932 19.1164 24.8156 18.8942L25.7693 17.9405C25.6042 17.576 25.4012 17.2298 25.1628 16.9071L23.8456 17.2418C23.5773 17.3099 23.2936 17.2695 23.0582 17.1311L22.9601 17.0657C22.7474 16.9048 22.5191 16.7646 22.2785 16.648L22.0337 16.5389C21.7776 16.4343 21.5761 16.2337 21.4732 15.9837L21.4356 15.8738L21.0714 14.5846ZM23.4319 20.263C23.4319 18.6536 22.1017 17.3458 20.4648 17.3458C18.8277 17.346 17.4987 18.6537 17.4987 20.263C17.4989 21.8726 18.8278 23.1792 20.4648 23.1794C22.1016 23.1794 23.4316 21.8727 23.4319 20.263ZM21.7129 20.263C21.7129 19.5867 21.1529 19.0359 20.4648 19.0359C19.7768 19.0361 19.2176 19.5867 19.2176 20.263C19.2178 20.9394 19.7767 21.4891 20.4648 21.4893C21.1526 21.4893 21.7127 20.9397 21.7129 20.263ZM22.0541 20.263C22.0539 21.1251 21.3409 21.8248 20.4648 21.8248C19.5882 21.8246 18.8766 21.1247 18.8764 20.263C18.8764 19.4014 19.5883 18.7006 20.4648 18.7004C21.3413 18.7004 22.0541 19.4015 22.0541 20.263ZM23.7731 20.263C23.7729 22.058 22.29 23.5149 20.4648 23.5149C18.6394 23.5147 17.1576 22.0579 17.1574 20.263C17.1574 18.4685 18.6392 17.0105 20.4648 17.0103C22.2902 17.0103 23.7731 18.4683 23.7731 20.263Z" fill="#00EAFF"/>
<path fill-rule="evenodd" clip-rule="evenodd" d="M5.89276 9.05119C5.88978 10.8302 5.88978 15.7941 5.88978 18.5356C5.88978 18.8765 6.11883 19.2839 6.43085 19.7497C7.03825 20.6557 8.01079 21.6792 9.05644 22.6426C9.40236 22.9617 9.42007 23.4971 9.09547 23.8372C8.77151 24.1777 8.22682 24.1951 7.88046 23.876C6.72818 22.8141 5.66435 21.6786 4.99531 20.6797C4.45552 19.8742 4.17062 19.125 4.17062 18.5356C4.17062 15.793 4.17062 10.8259 4.1736 9.04854C4.1736 8.28316 4.69846 7.61343 5.44021 7.42072C7.49334 6.85792 9.29593 5.83605 10.7524 5.11431C11.9013 4.54502 12.8798 4.16775 13.626 4.16775C14.372 4.16775 15.3507 4.54519 16.4996 5.11431C17.9563 5.83568 19.7584 6.85664 21.8015 7.41481C22.5558 7.61087 23.081 8.28149 23.0813 9.04854V14.8719C23.0813 15.2944 22.7638 15.6523 22.3379 15.7094C21.9116 15.7664 21.5085 15.5049 21.3937 15.0979L21.2049 14.429C20.7137 14.3686 20.2164 14.3686 19.7256 14.429L19.3306 15.8293C19.2596 16.0799 19.0758 16.2844 18.8312 16.3842C18.4865 16.5245 18.1619 16.7088 17.8659 16.9323C17.6562 17.0908 17.3837 17.1449 17.1276 17.0797L15.6967 16.7159C15.3975 17.1043 15.1493 17.5272 14.9571 17.9755L15.993 19.0121C16.1783 19.1976 16.2668 19.4566 16.2318 19.7147C16.1832 20.0781 16.1832 20.4466 16.2318 20.8106C16.2666 21.0683 16.1781 21.3279 15.993 21.5133L14.9571 22.5494C15.1493 22.9981 15.3977 23.421 15.6967 23.809L17.1276 23.4452C17.3837 23.3802 17.6563 23.4347 17.8659 23.593C17.9102 23.6264 17.9549 23.658 18.0001 23.6899C18.2173 23.8402 18.3512 24.0816 18.3629 24.3424C18.3749 24.6035 18.2631 24.8549 18.0607 25.0245C16.7713 26.1013 15.5219 26.995 14.7409 27.4362C14.2282 27.7256 13.8251 27.8317 13.6259 27.8317C13.4553 27.8317 13.154 27.7684 12.7741 27.5769C12.2571 27.3171 11.4444 26.7828 10.5228 26.0847C10.1468 25.8004 10.0767 25.2693 10.3663 24.8994C10.6555 24.5301 11.1957 24.4611 11.5715 24.7454C12.3742 25.3535 13.2992 25.8996 13.6229 26.0854C13.8138 25.968 14.2393 25.7012 14.7643 25.3479L14.7436 25.3267C14.0215 24.5387 13.4762 23.6098 13.1431 22.6012C13.0437 22.3011 13.1228 21.9723 13.3472 21.7475L14.4864 20.6079C14.4721 20.3777 14.4721 20.1464 14.4864 19.9161L13.3472 18.7765C13.1228 18.5517 13.0437 18.2225 13.1431 17.9228C13.4762 16.9142 14.0215 15.9853 14.7436 15.1969C14.9582 14.9628 15.2873 14.8655 15.5976 14.9442L17.1711 15.3443C17.3671 15.2174 17.5703 15.1017 17.7806 14.9987L18.2146 13.4587C18.3001 13.1549 18.5507 12.9234 18.8641 12.8577C19.6866 12.6858 20.5304 12.648 21.3621 12.7441V9.04788L21.3519 9.04578C19.1793 8.45212 17.2662 7.38629 15.7262 6.62321C14.8773 6.20236 14.1776 5.8574 13.6263 5.8574C13.0747 5.8574 12.3757 6.20213 11.5264 6.62321C9.98681 7.3865 8.07497 8.4527 5.89276 9.05119Z" fill="#00EAFF"/>
<path d="M22.9052 8.9202C22.8505 8.28382 22.3948 7.7429 21.7578 7.57734L21.7561 7.5765C20.2081 7.15359 18.7954 6.46662 17.576 5.8478L16.4226 5.26402C15.2717 4.69389 14.3267 4.33558 13.6262 4.33551C13.0131 4.33551 12.2128 4.60956 11.2512 5.0602L10.8289 5.26402C9.38368 5.98023 7.55998 7.01388 5.48607 7.58237L5.48351 7.58321C4.81742 7.75643 4.34465 8.3588 4.34465 9.04853C4.34166 10.8257 4.34123 15.7932 4.34123 18.5358C4.34131 19.0781 4.60657 19.7945 5.13801 20.5874L5.40247 20.9624C6.06068 21.8506 6.9928 22.8279 7.99755 23.7538C8.27521 24.0096 8.71147 23.9954 8.97092 23.7227L9.01699 23.6699C9.2145 23.4156 9.20239 23.0569 8.98884 22.8152L8.93936 22.7649C8.02185 21.9195 7.15401 21.0222 6.53707 20.1932L6.28797 19.8418C6.13081 19.6072 5.99032 19.3805 5.88873 19.1666C5.78773 18.9539 5.71902 18.7412 5.71897 18.5358C5.71897 15.7945 5.71939 10.8304 5.72238 9.05105V9.01247L5.73859 8.97891L5.73944 8.97808L5.77271 8.9093L5.84693 8.88917C8.00852 8.29633 9.90073 7.2416 11.45 6.47352L12.0617 6.17492C12.2575 6.0823 12.4451 5.99758 12.6238 5.92665C12.9802 5.78525 13.3175 5.68929 13.6262 5.68927C13.9349 5.68927 14.2721 5.78523 14.6286 5.92665C14.9864 6.06863 15.3806 6.26394 15.8033 6.47352L17.0283 7.09169C18.3138 7.7391 19.7802 8.44137 21.3918 8.88246L21.397 8.8833L21.5326 8.91181V12.9329L21.3424 12.911C20.529 12.8171 19.7034 12.8528 18.8991 13.0209L18.9 13.0218C18.6802 13.0678 18.4989 13.2158 18.4112 13.4151L18.3787 13.5032L17.9454 15.0432L17.9249 15.1153L17.8567 15.1489C17.6528 15.2487 17.4552 15.361 17.2646 15.4844L17.2015 15.5255L17.1284 15.5072L15.5553 15.1071C15.3377 15.052 15.1082 15.1041 14.9391 15.2437L14.87 15.3091C14.2521 15.9837 13.767 16.764 13.4371 17.6092L13.3054 17.9747C13.2259 18.2146 13.2893 18.4788 13.4692 18.6591L14.6081 19.7982L14.661 19.8518L14.6567 19.9265C14.6429 20.1498 14.6429 20.3742 14.6567 20.5975L14.661 20.6722L14.6081 20.7258L13.4687 21.8651C13.2888 22.0453 13.2258 22.3089 13.3054 22.5493L13.4371 22.9161C13.767 23.7609 14.2524 24.54 14.87 25.2141L14.8871 25.2317L15.027 25.3743L14.8606 25.4867C14.3334 25.8415 13.9057 26.1089 13.7132 26.2273L13.6262 26.281L13.5366 26.2307C13.2518 26.0672 12.5025 25.6248 11.7759 25.105L11.4671 24.8786C11.1848 24.6651 10.787 24.7002 10.5474 24.949L10.5014 25.0019C10.2838 25.2799 10.3196 25.6714 10.573 25.9069L10.6268 25.9522L11.2913 26.4403C11.9285 26.8941 12.4744 27.238 12.8516 27.4276L12.9838 27.4905C13.2822 27.6236 13.5075 27.6641 13.6262 27.6641C13.7826 27.664 14.1549 27.5736 14.6559 27.2909L14.9656 27.1072C15.7351 26.6321 16.825 25.8362 17.9496 24.897L18.0077 24.8425C18.1153 24.7288 18.1799 24.5826 18.1911 24.4281L18.1928 24.3501C18.1834 24.141 18.0756 23.9471 17.9019 23.8267L17.901 23.8259C17.8549 23.7934 17.8084 23.761 17.7623 23.7263L17.762 23.7253C17.5941 23.5986 17.3752 23.5541 17.1699 23.6062L17.1708 23.607L15.7396 23.9712L15.6293 23.9987L15.5604 23.91C15.253 23.511 14.9971 23.0756 14.7995 22.6141L14.7557 22.5107L14.8359 22.431L15.871 21.3954L15.923 21.3375C16.0197 21.2155 16.0716 21.0643 16.0689 20.9097L16.0629 20.8326C16.0123 20.4541 16.0123 20.0706 16.0629 19.6927L16.0686 19.6145C16.0712 19.4601 16.0196 19.3096 15.923 19.1877L15.8715 19.1288L14.8353 18.0931L14.756 18.0135L14.7995 17.9103C14.9972 17.4491 15.2526 17.0139 15.5604 16.6144L15.6295 16.5255L15.7396 16.5532L17.1702 16.9172L17.2478 16.9323C17.4296 16.9573 17.6155 16.9099 17.7623 16.7989L17.9983 16.6318C18.2399 16.473 18.4972 16.3378 18.766 16.2284L18.8371 16.195C18.9974 16.1073 19.1166 15.9598 19.1664 15.784L19.5614 14.3841L19.5918 14.2757L19.7047 14.2625C20.0833 14.2159 20.4656 14.204 20.8462 14.2273L21.2258 14.2625L21.3389 14.2757L21.3691 14.3841L21.5582 15.0533L21.6034 15.1698C21.7316 15.4277 22.016 15.5831 22.3149 15.5431L22.4386 15.5154C22.7159 15.4253 22.9102 15.1683 22.9103 14.8721V9.04853L22.9052 8.9202ZM23.2516 14.8721C23.2515 15.3468 22.9173 15.7532 22.4548 15.8585L22.3609 15.8752C21.8818 15.9393 21.427 15.6682 21.2588 15.2319L21.2289 15.143L21.0714 14.5846C20.668 14.5428 20.2614 14.5428 19.8583 14.5846L19.4949 15.8738C19.4204 16.1364 19.2429 16.3573 19.0032 16.4884L18.8969 16.5389C18.6489 16.6399 18.4109 16.7648 18.1879 16.9113L17.9701 17.0646C17.75 17.2311 17.4725 17.3018 17.2009 17.2644L17.0849 17.2418L15.7683 16.9061C15.5293 17.2291 15.3257 17.5749 15.1609 17.9395L16.1149 18.8942L16.1923 18.9812C16.3368 19.1634 16.4139 19.3889 16.4098 19.6203L16.4013 19.7361C16.3546 20.0848 16.3547 20.4385 16.4013 20.7879L16.4098 20.9036C16.4138 21.1348 16.3366 21.3605 16.1923 21.5428L16.1147 21.63L15.1603 22.5839C15.3251 22.9488 15.5289 23.2945 15.7677 23.6173L17.0849 23.2826L17.2009 23.2599C17.4723 23.2229 17.7497 23.2937 17.9696 23.4596C18.0121 23.4915 18.0555 23.5221 18.0998 23.5533C18.3599 23.7337 18.5191 24.0227 18.5332 24.335L18.5314 24.4516C18.5148 24.6832 18.4177 24.9018 18.2568 25.0715L18.1714 25.152C17.0399 26.0969 15.935 26.9056 15.1447 27.3932L14.8256 27.5819C14.3019 27.8774 13.8684 27.9995 13.6262 27.9996C13.4463 27.9996 13.1722 27.9427 12.8414 27.795L12.6963 27.7262C12.1653 27.4593 11.3426 26.9172 10.4186 26.2172C9.96785 25.8764 9.88405 25.2404 10.2309 24.7972L10.2992 24.7184C10.6576 24.3456 11.2529 24.2932 11.6752 24.6127L11.978 24.8349C12.6236 25.2966 13.2908 25.6964 13.6194 25.8876C13.8097 25.7692 14.1258 25.5684 14.5083 25.3139C13.9149 24.6379 13.4436 23.8681 13.1186 23.0358L12.9804 22.6533C12.8613 22.2936 12.9565 21.8993 13.2253 21.63L14.3138 20.5405C14.3048 20.3546 14.3048 20.1685 14.3138 19.9827L13.2253 18.894C12.9565 18.6247 12.8612 18.23 12.9804 17.8707L13.1186 17.4882C13.4635 16.6048 13.9708 15.7894 14.6166 15.0843L14.7199 14.987C14.9727 14.7783 15.3151 14.6991 15.6403 14.7815L17.1435 15.1631C17.3026 15.0629 17.4664 14.97 17.6349 14.8847L18.0506 13.4145L18.0981 13.2818C18.2294 12.9837 18.4999 12.7627 18.8283 12.6938L19.1448 12.6343C19.8217 12.521 20.5096 12.4965 21.1914 12.5588V9.17351C19.5916 8.72243 18.1324 8.02422 16.8705 7.38861L15.6497 6.77296C15.2236 6.5617 14.8427 6.37353 14.5006 6.23783C14.1573 6.10162 13.8688 6.02478 13.6262 6.02478C13.3834 6.0248 13.0951 6.10161 12.7518 6.23783C12.5809 6.30565 12.4003 6.38652 12.2092 6.47688L11.6035 6.77296C10.1025 7.51716 8.21396 8.56607 6.06276 9.17602C6.05997 11.0521 6.0602 15.8558 6.0602 18.5358C6.06026 18.6712 6.10621 18.8325 6.19755 19.0248C6.28844 19.2162 6.41898 19.4262 6.57376 19.6572C7.17007 20.5468 8.1307 21.5596 9.17311 22.52L9.24647 22.5946C9.56615 22.9559 9.58388 23.4922 9.28827 23.8729L9.22003 23.9517C8.85584 24.3345 8.25914 24.3771 7.844 24.0658L7.76381 23.9987C6.7521 23.0664 5.80217 22.0725 5.12522 21.1586L4.85308 20.772C4.30509 19.9543 4.00007 19.1723 4 18.5358L4.00341 9.04853C4.00342 8.2602 4.5097 7.56373 5.24636 7.30474L5.3965 7.25861C7.42784 6.70143 9.20833 5.69159 10.6754 4.96458L11.0994 4.75992C12.072 4.30349 12.9335 4 13.6262 4C14.4176 4.00007 15.4297 4.39669 16.5762 4.96458L17.7347 5.55088C18.949 6.16703 20.329 6.83831 21.8448 7.25273L21.9975 7.29887C22.7442 7.5605 23.2512 8.25808 23.2516 9.04853V14.8721Z" fill="#00EAFF"/>
</svg>
