<svg width="32" height="32" viewBox="0 0 32 32" fill="none" xmlns="http://www.w3.org/2000/svg">
<path d="M24.3815 12.6088V8.56268C24.3815 8.22504 24.2014 7.91324 23.9091 7.74455C23.6169 7.57585 23.2567 7.57585 22.9646 7.74455C22.6723 7.91325 22.4921 8.22502 22.4921 8.56268V11.5917L21.2925 12.3916C21.154 10.5974 20.116 8.9953 18.5349 8.13593C16.9538 7.2763 15.0449 7.2763 13.4638 8.13593C11.8828 8.9953 10.8447 10.5974 10.7063 12.3916L9.50658 11.5917V8.56268C9.50658 8.22504 9.3264 7.91324 9.03416 7.74455C8.74193 7.57585 8.38179 7.57585 8.0896 7.74455C7.79736 7.91325 7.61719 8.22502 7.61719 8.56268V12.6088L10.6841 14.6554L10.6843 15.0553H8.56199C8.22435 15.0553 7.91256 15.2355 7.74387 15.5277C7.57517 15.82 7.57517 16.1801 7.74387 16.4723C7.91257 16.7645 8.22434 16.9447 8.56199 16.9447H10.6843V17.3446L7.61743 19.3912L7.61719 23.4376C7.61719 23.775 7.79736 24.0868 8.0896 24.2555C8.38184 24.4244 8.74198 24.4244 9.03416 24.2555C9.3264 24.0868 9.50658 23.775 9.50658 23.4376V20.4083L10.7063 19.6085C10.8447 21.4029 11.8828 23.0047 13.4638 23.8644C15.0449 24.7237 16.9538 24.7237 18.5349 23.8644C20.116 23.0047 21.154 21.4029 21.2924 19.6085L22.4921 20.4083V23.4437C22.4921 23.7813 22.6723 24.0931 22.9646 24.2618C23.2568 24.4305 23.6169 24.4305 23.9091 24.2618C24.2014 24.0931 24.3815 23.7813 24.3815 23.4437V19.3912L21.3147 17.3446V16.9447H23.437C23.7744 16.9447 24.0862 16.7645 24.2548 16.4722C24.4238 16.18 24.4238 15.8199 24.2548 15.5277C24.0861 15.2354 23.7744 15.0553 23.437 15.0553H21.3147V14.6554L24.3815 12.6088ZM15.9997 9.38762C16.9078 9.38835 17.7787 9.74968 18.421 10.392C19.0633 11.0341 19.4247 11.9052 19.4254 12.8134V13.4022H12.5735V12.8134C12.5745 11.9052 12.9356 11.0341 13.5779 10.392C14.2202 9.74968 15.0911 9.3883 15.9995 9.38762H15.9997ZM15.9997 22.6126V22.6124C15.0912 22.6116 14.2203 22.2503 13.578 21.6082C12.9357 20.9659 12.5746 20.0951 12.5737 19.1866V17.9051C12.5768 17.8663 12.5768 17.8272 12.5737 17.7884V14.3468H19.4255V17.7884C19.4224 17.8272 19.4224 17.8663 19.4255 17.9051V19.1866C19.4248 20.0951 19.0635 20.9659 18.4212 21.6082C17.7788 22.2503 16.908 22.6117 15.9998 22.6124L15.9997 22.6126Z" fill="black"/>
<path d="M27.6576 11.9166V6.44813C27.6576 5.99179 27.4141 5.57039 27.0191 5.3424C26.6241 5.1144 26.1374 5.1144 25.7425 5.3424C25.3475 5.5704 25.104 5.99177 25.104 6.44813V10.542L23.4826 11.623C23.2955 9.19808 21.8925 7.03284 19.7557 5.87136C17.6188 4.70955 15.0388 4.70955 12.9019 5.87136C10.7651 7.03284 9.3621 9.19808 9.17499 11.623L7.55358 10.542V6.44813C7.55358 5.99179 7.31006 5.57039 6.91509 5.3424C6.52012 5.1144 6.03339 5.1144 5.63848 5.3424C5.24351 5.5704 5 5.99177 5 6.44813V11.9166L9.14499 14.6827L9.14532 15.2232H6.27694C5.8206 15.2232 5.3992 15.4667 5.17122 15.8617C4.94321 16.2566 4.94321 16.7434 5.17122 17.1383C5.39922 17.5332 5.82059 17.7767 6.27694 17.7767H9.14532V18.3172L5.00033 21.0833L5 26.5521C5 27.0081 5.24351 27.4295 5.63848 27.6575C6.03345 27.8858 6.52019 27.8858 6.91509 27.6575C7.31006 27.4295 7.55358 27.0081 7.55358 26.5521V22.4579L9.17499 21.3769C9.36208 23.8022 10.7651 25.9671 12.9019 27.1289C15.0388 28.2904 17.6188 28.2904 19.7557 27.1289C21.8925 25.9671 23.2955 23.8022 23.4826 21.3769L25.104 22.4579V26.5603C25.104 27.0167 25.3475 27.4381 25.7425 27.666C26.1375 27.894 26.6242 27.894 27.0191 27.666C27.4141 27.438 27.6576 27.0167 27.6576 26.5603V21.0832L23.5126 18.3171V17.7767H26.381C26.837 17.7767 27.2584 17.5331 27.4864 17.1382C27.7147 16.7432 27.7147 16.2565 27.4864 15.8616C27.2584 15.4666 26.837 15.2231 26.381 15.2231H23.5126V14.6826L27.6576 11.9166ZM16.3292 7.56306C17.5566 7.56405 18.7337 8.0524 19.6018 8.92051C20.4699 9.78828 20.9583 10.9656 20.9592 12.1931V12.989H11.6987V12.1931C11.7 10.9656 12.188 9.78828 13.0561 8.92051C13.9242 8.0524 15.1012 7.56399 16.329 7.56306H16.3292ZM16.3292 25.4371V25.4368C15.1014 25.4358 13.9244 24.9474 13.0563 24.0797C12.1882 23.2116 11.7001 22.0345 11.6988 20.8068V19.0748C11.7031 19.0223 11.7031 18.9695 11.6988 18.917V14.2656H20.9594V18.917C20.9551 18.9695 20.9551 19.0223 20.9594 19.0748V20.8068C20.9584 22.0345 20.47 23.2116 19.6019 24.0797C18.7338 24.9474 17.5568 25.4359 16.3294 25.4368L16.3292 25.4371Z" fill="#00EAFF"/>
</svg>
