<svg width="32" height="32" viewBox="0 0 32 32" fill="none" xmlns="http://www.w3.org/2000/svg">
<path d="M27.0317 16.288C24.904 14.1276 21.6733 13.7166 19.1249 15.0586L9.81252 5.60356C9.01995 4.79881 7.73521 4.79881 6.94263 5.60356L3.59443 9.0032C2.80186 9.80795 2.80186 11.1124 3.59443 11.9172C4.387 12.7219 5.67174 12.7219 6.46433 11.9172L8.37752 9.97461L10.2907 11.9172L8.37752 13.8598C7.58495 14.6645 7.58495 15.969 8.37752 16.7738C9.17009 17.5785 10.4548 17.5785 11.2474 16.7738L13.1606 14.8312L16.2546 17.9727C14.9329 20.5607 15.3378 23.8411 17.4654 26.0014C20.0903 28.6662 24.4068 28.6662 27.0316 26.0014C29.6561 23.3366 29.6562 18.9531 27.0317 16.288ZM24.1618 19.202C25.2355 20.2922 25.2355 21.9971 24.1618 23.0873C23.0881 24.1775 21.409 24.1775 20.3353 23.0873C19.2616 21.9971 19.2616 20.2922 20.3353 19.202C21.409 18.1118 23.0881 18.1118 24.1618 19.202Z" fill="#00EAFF"/>
</svg>
