<svg width="32" height="32" viewBox="0 0 32 32" fill="none" xmlns="http://www.w3.org/2000/svg">
<path d="M6.38136 15.9951C6.06253 15.9951 5.7567 16.1196 5.53115 16.3412C5.30563 16.5627 5.17899 16.8633 5.17899 17.1769C5.17609 19.914 6.24691 22.5471 8.16897 24.5278C10.0909 26.5089 12.7159 27.6852 15.498 27.8123C18.2799 27.9392 21.0048 27.007 23.1054 25.2098C25.2061 23.4123 26.5205 20.8883 26.7758 18.1622C27.0308 15.4366 26.2071 12.719 24.4753 10.5754C22.7439 8.43134 20.2381 7.02616 17.4791 6.65214L17.9505 6.28579C18.2872 6.02322 18.4557 5.60389 18.3928 5.18606C18.3297 4.76803 18.0447 4.41488 17.6448 4.25962C17.245 4.10415 16.7913 4.17034 16.4546 4.4329L14.496 5.9608C13.9295 6.37554 13.5957 7.02866 13.5957 7.72289C13.5957 8.41689 13.9295 9.07025 14.496 9.48475L16.456 11.0129C16.7929 11.2754 17.2464 11.3416 17.646 11.1862C18.0458 11.0309 18.3309 10.6777 18.394 10.2597C18.4571 9.84167 18.2884 9.42255 17.9516 9.15999L17.9085 9.127C19.9749 9.59979 21.7831 10.822 22.9718 12.5491C24.1603 14.2765 24.6413 16.3813 24.3185 18.4421C23.9958 20.503 22.8928 22.3682 21.2309 23.6641C19.5688 24.96 17.47 25.5913 15.3544 25.4312C13.239 25.2714 11.2632 24.3322 9.82235 22.8014C8.38151 21.2709 7.58188 19.2619 7.58366 17.1768C7.58366 16.8632 7.45703 16.5626 7.2315 16.3411C7.00598 16.1195 6.70019 15.9951 6.38136 15.9951Z" fill="#00EAFF"/>
<path d="M13.4169 7.72329C13.4169 6.97355 13.7771 6.26774 14.3888 5.81982L16.3433 4.29546L16.4946 4.19254C16.8597 3.9785 17.309 3.93953 17.7108 4.09579L17.8764 4.17319C18.2478 4.37688 18.5065 4.73999 18.5699 5.16011L18.5843 5.34043C18.5881 5.61625 18.5041 5.88334 18.3507 6.11009H18.4652L18.0616 6.42411L17.9086 6.54198C20.5525 6.99966 22.9403 8.39198 24.6153 10.4659L24.9347 10.8811C26.3736 12.8497 27.0971 15.2376 26.9895 17.6593L26.9537 18.1783C26.7104 20.7763 25.5212 23.1941 23.6138 24.9917L23.2227 25.3427C21.2209 27.0553 18.6615 27.9954 16.0194 28L15.4896 27.9877C12.8384 27.8665 10.3275 26.8083 8.41419 25.0173L8.03921 24.6496C6.20749 22.762 5.13688 20.2912 5.01253 17.6972L5 17.1764C5.00012 16.8164 5.14548 16.4712 5.40451 16.2168L5.50564 16.1271C5.66819 15.9961 5.85851 15.9045 6.0614 15.857L6.03365 15.8192H6.38178C6.74791 15.8193 7.09918 15.9622 7.35816 16.2168L7.44945 16.3162C7.65095 16.5577 7.76259 16.8613 7.76267 17.1764C7.76103 19.217 8.54346 21.184 9.95348 22.6819L10.2238 22.9563C11.6057 24.2924 13.4269 25.1089 15.3679 25.2556L15.7563 25.2759C17.6939 25.3324 19.5945 24.7153 21.1196 23.5263L21.4185 23.2818C22.8783 22.0288 23.8458 20.3058 24.1418 18.4149L24.1919 18.0367C24.3826 16.2688 23.9754 14.4874 23.0339 12.9693L22.8236 12.6473C21.7678 11.1134 20.2116 9.98853 18.4214 9.44732C18.5306 9.6484 18.5896 9.87432 18.5861 10.1061L18.5708 10.2856C18.5074 10.7058 18.2488 11.0688 17.8773 11.2725L17.7117 11.3499C17.2526 11.5284 16.7311 11.4526 16.3442 11.1511L14.3888 9.625C13.7772 9.17737 13.417 8.47264 13.4169 7.72329ZM13.7749 7.72329C13.775 8.32168 14.0447 8.88717 14.5078 9.26964L14.6027 9.34353L14.6072 9.34704L16.5671 10.8749L16.6789 10.9506C16.9498 11.1094 17.2826 11.1385 17.5801 11.0227L17.7028 10.9655C17.9781 10.8146 18.1703 10.5452 18.2173 10.2337L18.2281 10.1009C18.2327 9.79153 18.0917 9.49429 17.8415 9.29867L17.7985 9.26612L17.7896 9.25908L17.3385 8.81576L17.9489 8.95562C20.0591 9.43845 21.9058 10.6866 23.1198 12.4503L23.3391 12.7854C24.3218 14.3697 24.7462 16.2286 24.5472 18.0736L24.4953 18.4686C24.1864 20.4418 23.1774 22.2399 21.6539 23.5474L21.3425 23.8016C19.7511 25.0424 17.7674 25.6867 15.7455 25.6277L15.341 25.6066C13.3156 25.4535 11.4152 24.6011 9.97317 23.207L9.69127 22.9211C8.31175 21.4557 7.50726 19.5606 7.41365 17.5749L7.4047 17.1764C7.40462 16.943 7.32193 16.7183 7.17291 16.5396L7.10489 16.4657C6.91295 16.277 6.65227 16.171 6.38089 16.171C6.14365 16.1711 5.91497 16.2523 5.73295 16.3989L5.65778 16.4657C5.46602 16.654 5.35809 16.9096 5.35798 17.1764C5.35518 19.8682 6.40854 22.4589 8.29874 24.4068L8.66119 24.7622C10.5122 26.495 12.9415 27.5195 15.5066 27.6367L16.0185 27.6482C18.5748 27.6438 21.0515 26.7341 22.9883 25.0771L23.3659 24.7375C25.2112 22.9984 26.3622 20.6592 26.5975 18.1458L26.6324 17.6435C26.7364 15.3009 26.0357 12.9913 24.6439 11.0869L24.3351 10.6849C22.6324 8.5764 20.1681 7.19396 17.4549 6.82609L17.0387 6.76979L17.8388 6.14791L17.9399 6.05819C18.1274 5.86709 18.2301 5.61027 18.2263 5.34483L18.2156 5.21201C18.1685 4.90052 17.9771 4.63109 17.7019 4.48018L17.5793 4.423C17.2815 4.30723 16.9486 4.33646 16.678 4.49513L16.5662 4.57078L14.6072 6.09865L14.6027 6.10217C14.0817 6.48374 13.7749 7.0848 13.7749 7.72329Z" fill="#00EAFF"/>
<path d="M12.1336 4.62396C11.9354 4.37811 11.6458 4.21978 11.3288 4.18372C11.0115 4.14788 10.6929 4.23738 10.443 4.43265L8.48333 5.96185C7.92467 6.38208 7.59309 7.03122 7.58392 7.72258C7.59354 8.41416 7.92489 9.06352 8.48333 9.48444L10.4433 11.0126C10.78 11.2751 11.2335 11.3413 11.6333 11.1858C12.0331 11.0306 12.3181 10.6774 12.3813 10.2594C12.4441 9.84137 12.2756 9.42224 11.9387 9.15968L10.0945 7.72264L11.9387 6.2856C12.1891 6.09077 12.3502 5.80622 12.3866 5.4946C12.4233 5.18278 12.3323 4.86958 12.1336 4.62396Z" fill="#00EAFF"/>
<path d="M11.3489 4.00885L11.4841 4.03084C11.7949 4.09722 12.075 4.26741 12.2743 4.51462C12.474 4.76146 12.5782 5.06755 12.5732 5.38016L12.5643 5.51474C12.5276 5.82797 12.3812 6.11713 12.1526 6.33453L12.0497 6.42337L10.3824 7.72255L12.0497 9.02173L12.1857 9.14312C12.4389 9.40097 12.5784 9.74715 12.5732 10.1054L12.558 10.2848C12.4946 10.7049 12.2366 11.0689 11.8653 11.2726L11.6988 11.3492C11.2396 11.5277 10.7181 11.452 10.3314 11.1504L9.92956 10.8364L8.37415 9.62338C7.80986 9.19803 7.46119 8.5569 7.4112 7.86417L7.40494 7.72519V7.71991L7.4112 7.58093C7.45756 6.93458 7.76435 6.33233 8.26408 5.90968L8.37415 5.82172L10.3314 4.29472L10.4433 4.21644C10.7105 4.04722 11.0303 3.97292 11.3489 4.00885ZM11.3087 4.35805C11.0723 4.33135 10.8346 4.38648 10.6366 4.51198L10.5542 4.57004L8.59431 6.09968L8.59252 6.10144C8.07746 6.48887 7.77136 7.08779 7.76291 7.72519C7.77266 8.32135 8.04178 8.88294 8.49855 9.26978L8.59252 9.34455L8.59431 9.34631L10.5542 10.8751L10.6661 10.9507C10.9367 11.1094 11.2695 11.1377 11.5673 11.022L11.6908 10.9648C11.9657 10.8139 12.1574 10.545 12.2045 10.2338L12.2152 10.1001C12.219 9.83472 12.1154 9.57859 11.928 9.38765L11.8277 9.29793L9.80606 7.72255L11.8277 6.14805L11.9038 6.08208C12.0733 5.921 12.1818 5.70635 12.209 5.47428L12.2152 5.37488C12.2185 5.17633 12.1618 4.98141 12.0524 4.81457L11.9933 4.73365C11.8456 4.55048 11.6384 4.42396 11.408 4.37477L11.3087 4.35805Z" fill="#00EAFF"/>
</svg>
