<svg width="32" height="32" viewBox="0 0 32 32" fill="none" xmlns="http://www.w3.org/2000/svg">
<path d="M28.9695 4.94095C28.9132 3.90817 28.0918 3.08688 27.059 3.03051C24.9751 2.91666 20.8971 3.02742 16.9978 5.04429C15.0099 6.07251 12.9076 7.81578 11.2298 9.82712C11.2092 9.85191 11.189 9.87684 11.1685 9.90167L7.36095 10.1958C6.73421 10.2442 6.17597 10.5727 5.82934 11.097L3.23168 15.0261C2.96878 15.4237 2.92699 15.9213 3.11981 16.3571C3.31267 16.793 3.70897 17.0968 4.17997 17.1698L7.38787 17.6666C7.37654 17.729 7.36517 17.7913 7.35476 17.8537C7.24796 18.4925 7.45962 19.1493 7.92102 19.6106L12.3894 24.079C12.7719 24.4616 13.2888 24.6725 13.8184 24.6725C13.9283 24.6724 14.038 24.6633 14.1464 24.6452C14.2088 24.6348 14.2711 24.6235 14.3334 24.6121L14.8303 27.8201C14.9032 28.2911 15.207 28.6874 15.6428 28.8802C15.8205 28.9591 16.0127 29 16.2071 29.0001C16.4799 28.9999 16.7466 28.9193 16.9739 28.7684L20.903 26.1707C21.4273 25.824 21.7558 25.2658 21.8041 24.6391L22.0982 20.8316C22.1231 20.8111 22.148 20.7909 22.1728 20.7703C24.1842 19.0925 25.9275 16.9902 26.9557 15.0023C28.9727 11.1027 29.0832 7.02476 28.9695 4.94095ZM20.0628 24.8999L16.3044 27.3847L15.8202 24.2584C17.4086 23.7914 18.98 23.0433 20.4769 22.0413L20.2853 24.5217C20.2797 24.5976 20.2567 24.6711 20.2181 24.7367C20.1796 24.8023 20.1264 24.8581 20.0628 24.8999ZM13.4666 23.0018L8.99819 18.5334C8.88419 18.4194 8.83148 18.2591 8.85732 18.1048C8.99017 17.3104 9.19659 16.5543 9.45212 15.8419L16.1567 22.5465C15.3011 22.8529 14.5348 23.0357 13.8952 23.1427C13.7406 23.1684 13.5806 23.1158 13.4666 23.0018ZM7.47831 11.7147L9.95867 11.5231C8.95655 13.0201 8.20854 14.5914 7.74151 16.1799L4.61521 15.6957L7.10014 11.9372C7.1419 11.8736 7.19772 11.8205 7.26329 11.7819C7.32887 11.7433 7.40243 11.7203 7.47831 11.7147ZM21.1971 19.6003C19.9665 20.6268 18.772 21.3692 17.671 21.9064L10.0933 14.3288C10.7971 12.8915 11.6559 11.6946 12.3997 10.803C13.9523 8.9416 15.8834 7.33585 17.6977 6.39741C21.2765 4.54628 25.047 4.4466 26.9761 4.55161C27.0993 4.55818 27.2156 4.61006 27.3028 4.69726C27.39 4.78447 27.4419 4.90084 27.4484 5.02398C27.5536 6.95306 27.4537 10.7236 25.6026 14.3024C24.6642 16.1167 23.0584 18.0477 21.1971 19.6003Z" fill="#00EAFF"/>
<path d="M20.81 14.9964C21.7851 14.9963 22.7606 14.6251 23.503 13.8827C24.2224 13.1634 24.6185 12.207 24.6185 11.1897C24.6185 10.1725 24.2223 9.21608 23.503 8.49676C22.0181 7.01177 19.6019 7.01187 18.117 8.49676C17.3977 9.21608 17.0015 10.1725 17.0015 11.1897C17.0015 12.207 17.3977 13.1634 18.117 13.8827C18.8596 14.6252 19.8346 14.9965 20.81 14.9964ZM19.1942 9.57394C19.6396 9.12843 20.2248 8.9057 20.8099 8.9057C21.3951 8.9057 21.9803 9.12843 22.4257 9.57394C22.8573 10.0055 23.095 10.5794 23.095 11.1897C23.095 11.8 22.8573 12.3739 22.4257 12.8055C21.5348 13.6965 20.0851 13.6964 19.1941 12.8055C18.7625 12.3739 18.5248 11.8001 18.5248 11.1897C18.5248 10.5794 18.7626 10.0055 19.1942 9.57394ZM3.77698 24.4262C3.97193 24.4262 4.16688 24.3519 4.31556 24.2031L6.80247 21.7162C7.09995 21.4187 7.09995 20.9364 6.80247 20.639C6.50505 20.3415 6.02273 20.3415 5.72525 20.639L3.23839 23.1259C2.94092 23.4233 2.94092 23.9056 3.23839 24.2031C3.30903 24.2739 3.39298 24.3301 3.48541 24.3684C3.57784 24.4067 3.67693 24.4264 3.77698 24.4262ZM9.08159 22.9181C8.78416 22.6206 8.30184 22.6206 8.00436 22.9181L3.22311 27.6994C2.92563 27.9969 2.92563 28.4791 3.22311 28.7766C3.37185 28.9253 3.56674 28.9997 3.76169 28.9997C3.95664 28.9997 4.15159 28.9253 4.30028 28.7766L9.08154 23.9953C9.37906 23.6978 9.37906 23.2156 9.08159 22.9181ZM10.2835 25.1972L7.79657 27.6841C7.49909 27.9816 7.49909 28.4638 7.79657 28.7613C7.94531 28.9101 8.14025 28.9845 8.33515 28.9845C8.53005 28.9845 8.72505 28.9101 8.87374 28.7613L11.3606 26.2744C11.6581 25.9769 11.6581 25.4947 11.3606 25.1972C11.0632 24.8997 10.5809 24.8997 10.2835 25.1972Z" fill="#00EAFF"/>
</svg>
