<svg width="32" height="32" viewBox="0 0 32 32" fill="none" xmlns="http://www.w3.org/2000/svg">
<path fill-rule="evenodd" clip-rule="evenodd" d="M5.62331 20.9456L23.299 3.26935C23.659 2.91029 24.2417 2.91029 24.6007 3.26935L28.5068 7.17538C28.8667 7.53444 28.8667 8.11802 28.5068 8.4771L25.7588 11.2251L27.2971 12.7643C27.6571 13.1234 27.6571 13.707 27.2971 14.066L24.5355 16.8277C24.1764 17.1868 23.5928 17.1868 23.2338 16.8277C22.8747 16.4686 22.8747 15.8851 23.2338 15.526L25.3447 13.415L24.4574 12.5276L10.8315 26.1535L10.8139 26.1702L10.8084 26.1748C10.6951 26.2807 10.5608 26.3534 10.4199 26.3911L4.16448 28.1117C3.82483 28.2055 3.46211 28.0971 3.22915 27.8328C2.99708 27.5676 2.93542 27.1939 3.07086 26.8689L5.41936 21.2551C5.46162 21.1491 5.5242 21.0488 5.60711 20.9613L5.62331 20.9456ZM5.49906 25.8349L8.40989 25.0339L6.59361 23.2177L5.49906 25.8349ZM7.57601 21.5966L10.1794 24.2L23.1545 11.2249L20.5511 8.62153L7.57601 21.5966ZM21.8527 7.31993L24.457 9.92331L26.554 7.8263L23.9497 5.22292L21.8527 7.31993Z" fill="#00EAFF"/>
<path d="M23.246 3.05475C23.6846 2.69789 24.331 2.72272 24.7392 3.13092L28.6445 7.03717L28.7216 7.12213C29.0555 7.53087 29.0555 8.12157 28.7216 8.53033L28.6445 8.61529L26.0341 11.2247L27.4355 12.626L27.5117 12.711C27.8457 13.1198 27.8457 13.7104 27.5117 14.1192L27.4355 14.2042L24.6738 16.9659C24.2384 17.4012 23.531 17.4012 23.0956 16.9659C22.6603 16.5305 22.6603 15.8231 23.0956 15.3878L25.0683 13.4141L24.457 12.8038L10.9697 26.2921L10.9658 26.295L10.9482 26.3116L10.9394 26.3204L10.9335 26.3253L10.9326 26.3243C10.7973 26.4483 10.6385 26.5352 10.4706 26.5801L10.4697 26.5792L4.21673 28.2999C3.85632 28.3995 3.47413 28.3114 3.19525 28.0733L3.08295 27.962L3.08197 27.961C2.80136 27.6401 2.72653 27.1878 2.89056 26.794L5.23529 21.1876L5.08685 21.2051L5.47259 20.8194L5.4892 20.8038L23.1611 3.13092L23.246 3.05475ZM24.4628 3.40729C24.2154 3.15992 23.8326 3.12874 23.5507 3.31451L23.4374 3.40729L6.15912 20.6856L6.18646 20.6827L5.75775 21.0879L5.74896 21.0958L5.66302 21.2061C5.63836 21.2449 5.61721 21.2854 5.60052 21.3272L5.59955 21.3301L3.25091 26.9444C3.14462 27.1998 3.19261 27.494 3.37494 27.7032C3.55854 27.9115 3.84493 27.9976 4.11224 27.9239L10.3681 26.2032L10.3691 26.2022L10.4511 26.1749C10.5315 26.1425 10.6077 26.095 10.6747 26.0323L10.6835 26.0245L10.6972 26.0118L24.3193 12.3897L24.457 12.251L25.4833 13.2764L25.621 13.4151L23.372 15.6641C23.0892 15.9469 23.0892 16.4067 23.372 16.6895C23.6548 16.9723 24.1146 16.9723 24.3974 16.6895L27.1591 13.9278L27.2519 13.8145C27.4116 13.5734 27.4113 13.2579 27.2519 13.0167L27.1591 12.9024L25.4824 11.2247L25.621 11.087L28.3691 8.33893L28.4619 8.22565C28.6216 7.9844 28.6216 7.66804 28.4619 7.42682L28.3691 7.31354L24.4628 3.40729ZM6.73138 23.0792L8.78509 25.1329L8.46185 25.2227L5.164 26.1299L5.31927 25.7598L6.52533 22.8741L6.73138 23.0792ZM5.83392 25.5391L8.03412 24.9346L6.66107 23.5606L5.83392 25.5391ZM20.6894 8.48346L23.4306 11.2247L23.2929 11.3633L10.3173 24.3379L10.1796 24.4766L7.29974 21.5967L7.43744 21.4581L20.5507 8.34576L20.6894 8.48346ZM7.8515 21.5958L10.1786 23.9229L22.8779 11.2247L20.5507 8.89752L7.8515 21.5958ZM24.0878 5.08502L26.83 7.82623L24.457 10.1993L21.7148 7.45807L21.5761 7.32037L23.9501 4.94635L24.0878 5.08502ZM22.1288 7.3194L24.457 9.64752L26.2773 7.82623L23.9492 5.49908L22.1288 7.3194Z" fill="#00EAFF"/>
</svg>
