<svg width="34" height="34" viewBox="0 0 34 34" fill="none" xmlns="http://www.w3.org/2000/svg">
<g clip-path="url(#clip0_96_896)">
<path d="M5.6496 30.2105C5.52615 30.0869 5.35482 30.0159 5.18018 30.0159C5.00553 30.0159 4.8342 30.0869 4.71068 30.2105C4.58717 30.334 4.51611 30.5053 4.51611 30.68C4.51611 30.8546 4.5871 31.0259 4.71068 31.1494C4.8342 31.2729 5.00553 31.344 5.18018 31.344C5.35482 31.344 5.52615 31.273 5.6496 31.1494C5.77312 31.0259 5.84424 30.8546 5.84424 30.68C5.84424 30.5053 5.77318 30.334 5.6496 30.2105ZM31.1796 12.1484C31.0549 12.0242 30.8862 11.9543 30.7101 11.9539C30.5355 11.9539 30.3641 12.0248 30.2406 12.1484C30.1172 12.2719 30.0461 12.4433 30.0461 12.6179C30.0461 12.7926 30.1171 12.9639 30.2406 13.0873C30.3654 13.2114 30.5341 13.2814 30.7101 13.282C30.8854 13.282 31.0561 13.2109 31.1796 13.0873C31.3037 12.9639 31.3748 12.7926 31.3748 12.6179C31.3748 12.4433 31.3037 12.2719 31.1796 12.1484Z" fill="#00EAFF"/>
<path d="M33.8056 0.194504C33.681 0.069972 33.5121 1.09243e-05 33.3359 0L17.0004 0.000863281C16.6337 0.000863281 16.3364 0.29823 16.3364 0.664926V2.56395L10.0418 4.2506C9.68752 4.34556 9.47728 4.70966 9.57224 5.06387L12.8346 17.2389L10.0124 20.0611C9.65319 19.5367 9.05009 19.1917 8.3679 19.1917H1.9931C0.894606 19.1917 0.000976562 20.0854 0.000976562 21.1839V32.0078C0.000976562 33.1063 0.894606 34 1.9931 34H8.36796C9.30117 34 10.0862 33.3548 10.3014 32.4873L11.091 33.1758C11.7003 33.7073 12.4816 34.0001 13.2902 34.0001H33.3361C33.7027 34.0001 34.0001 33.7027 34.0001 33.336V0.664062C34 0.487958 33.9301 0.319079 33.8056 0.194504ZM9.03189 32.0079C9.03189 32.374 8.734 32.6719 8.36783 32.6719H1.99303C1.62687 32.6719 1.32897 32.374 1.32897 32.0079V21.1839C1.32897 20.8178 1.62687 20.5199 1.99303 20.5199H4.5164V28.1695C4.5164 28.5362 4.81377 28.8336 5.18046 28.8336C5.54716 28.8336 5.84453 28.5362 5.84453 28.1695V20.5199H8.3679C8.73406 20.5199 9.03196 20.8178 9.03196 21.1839V32.0079H9.03189ZM11.0269 5.36157L16.3364 3.93889V6.39957L15.8913 6.51884C15.8071 6.54138 15.7281 6.58031 15.6589 6.63339C15.5897 6.68647 15.5317 6.75266 15.488 6.82819C15.4444 6.90371 15.4161 6.98709 15.4048 7.07356C15.3934 7.16002 15.3992 7.24788 15.4218 7.33211C15.677 8.28445 15.1098 9.26679 14.1575 9.52199C14.0731 9.54457 13.994 9.58358 13.9248 9.63676C13.8555 9.68995 13.7974 9.75628 13.7538 9.83195C13.7103 9.90762 13.682 9.99114 13.6708 10.0777C13.6595 10.1643 13.6654 10.2523 13.6882 10.3366L16.2767 19.9215H14.9439L14.2571 17.2345C14.2356 17.1503 14.1978 17.0712 14.1458 17.0016L11.0269 5.36157ZM16.3364 9.44489V15.0483L15.1252 10.5636C15.6311 10.3023 16.0452 9.91146 16.3364 9.44489ZM25.8766 32.6719H13.2901C12.8024 32.6719 12.3312 32.4953 11.9637 32.1748L10.36 30.7762V21.5918L13.2592 18.6926L13.785 20.7499C13.8215 20.8928 13.9046 21.0194 14.0211 21.1099C14.1376 21.2004 14.2808 21.2495 14.4283 21.2495L27.4841 21.2503C27.9967 21.2503 28.4138 21.6673 28.4138 22.18C28.4138 22.6926 27.9967 23.1096 27.4841 23.1096H20.7943C20.4276 23.1096 20.1302 23.407 20.1302 23.7737C20.1302 24.1404 20.4276 24.4378 20.7943 24.4378H29.5626C30.0752 24.4378 30.4923 24.8548 30.4923 25.3675C30.4923 25.8801 30.0752 26.2971 29.5626 26.2971H20.7943C20.4276 26.2971 20.1302 26.5945 20.1302 26.9612C20.1302 27.3279 20.4276 27.6253 20.7943 27.6253H28.1417C28.6543 27.6253 29.0714 28.0423 29.0714 28.555C29.0714 29.0676 28.6543 29.4846 28.1417 29.4846H20.7943C20.4276 29.4846 20.1302 29.782 20.1302 30.1487C20.1302 30.5154 20.4276 30.8128 20.7943 30.8128H25.8766C26.3892 30.8128 26.8063 31.2298 26.8063 31.7425C26.8062 32.2548 26.3892 32.6719 25.8766 32.6719ZM32.672 32.6719H27.9332C28.062 32.3881 28.1343 32.0736 28.1343 31.7422C28.1343 31.4108 28.062 31.0963 27.9332 30.8125H28.1417C29.3866 30.8125 30.3994 29.7997 30.3994 28.5548C30.3997 28.2038 30.3176 27.8577 30.1598 27.5443C31.1158 27.2817 31.8203 26.4055 31.8203 25.3673C31.8208 24.8826 31.6644 24.4108 31.3746 24.0223V15.6059C31.3746 15.2392 31.0772 14.9419 30.7105 14.9419C30.3439 14.9419 30.0465 15.2392 30.0465 15.6059V23.1624C29.8875 23.1274 29.7252 23.1097 29.5625 23.1096H29.5407C29.6734 22.8177 29.7419 22.5007 29.7417 22.18C29.7417 20.935 28.7289 19.9222 27.484 19.9222H26.4165C27.55 19.4361 28.3461 18.3095 28.3461 17C28.3461 15.2476 26.9205 13.8219 25.1681 13.8219C23.4158 13.8219 21.9901 15.2476 21.9901 17C21.9901 18.3095 22.7862 19.4361 23.9196 19.9222H20.2897V7.29559C21.476 7.03707 22.412 6.10107 22.6705 4.91473H27.6656C27.9241 6.10107 28.8601 7.03707 30.0464 7.29559V9.36016C30.0464 9.72686 30.3438 10.0242 30.7105 10.0242C31.0772 10.0242 31.3745 9.72686 31.3745 9.36016V6.70271C31.3745 6.33602 31.0772 6.03865 30.7105 6.03865C29.7245 6.03865 28.9226 5.23653 28.9226 4.25066C28.9226 3.88397 28.6252 3.5866 28.2585 3.5866H22.0777C21.711 3.5866 21.4136 3.88397 21.4136 4.25066C21.4136 5.2366 20.6116 6.03865 19.6257 6.03865C19.259 6.03865 18.9616 6.33602 18.9616 6.70271V19.9221H17.6646V1.32886L32.672 1.32812V32.6719ZM25.1682 18.8499C24.1481 18.8499 23.3183 18.0201 23.3183 17.0001C23.3183 15.9801 24.1482 15.1501 25.1682 15.1501C26.1882 15.1501 27.0181 15.98 27.0181 17C27.0181 18.02 26.1883 18.8499 25.1682 18.8499Z" fill="#00EAFF"/>
</g>
<defs>
<clipPath id="clip0_96_896">
<rect width="34" height="34" fill="white"/>
</clipPath>
</defs>
</svg>
