<svg width="34" height="34" viewBox="0 0 34 34" fill="none" xmlns="http://www.w3.org/2000/svg">
<g clip-path="url(#clip0_96_960)">
<path d="M22.624 15.9375L22.4684 16.0931C22.3688 16.1927 22.3128 16.3279 22.3128 16.4688C22.3128 16.6097 22.3688 16.7448 22.4684 16.8444C22.5681 16.9441 22.7032 17 22.8441 17C22.985 17 23.1201 16.9441 23.2198 16.8444L24.2823 15.7819C24.3316 15.7326 24.3707 15.674 24.3974 15.6096C24.4241 15.5451 24.4379 15.476 24.4379 15.4063C24.4379 15.3365 24.4241 15.2674 24.3974 15.203C24.3707 15.1385 24.3316 15.0799 24.2823 15.0306L23.2198 13.9681C23.1201 13.8685 22.985 13.8125 22.8441 13.8125C22.7032 13.8125 22.5681 13.8685 22.4684 13.9681C22.3688 14.0677 22.3128 14.2029 22.3128 14.3438C22.3128 14.4847 22.3688 14.6198 22.4684 14.7194L22.624 14.875H16.909C16.8292 14.6513 16.7007 14.448 16.5328 14.2801C16.3648 14.1121 16.1616 13.9836 15.9379 13.9039V10.3138L16.0934 10.4694C16.1931 10.5691 16.3282 10.625 16.4691 10.625C16.61 10.625 16.7451 10.5691 16.8448 10.4694C16.9444 10.3698 17.0004 10.2347 17.0004 10.0938C17.0004 9.95287 16.9444 9.81774 16.8448 9.71811L15.7823 8.65561C15.7329 8.60628 15.6744 8.56714 15.6099 8.54044C15.5455 8.51374 15.4764 8.5 15.4066 8.5C15.3368 8.5 15.2677 8.51374 15.2033 8.54044C15.1388 8.56714 15.0803 8.60628 15.0309 8.65561L13.9684 9.71811C13.8688 9.81774 13.8128 9.95287 13.8128 10.0938C13.8128 10.2347 13.8688 10.3698 13.9684 10.4694C14.0681 10.5691 14.2032 10.625 14.3441 10.625C14.485 10.625 14.6201 10.5691 14.7198 10.4694L14.8754 10.3138V13.9039C14.6215 13.9936 14.3945 14.1461 14.2155 14.3473C14.0365 14.5485 13.9114 14.7917 13.8519 15.0543C13.7924 15.3169 13.8004 15.5903 13.8751 15.849C13.9499 16.1077 14.0889 16.3432 14.2793 16.5336C14.4697 16.724 14.7052 16.863 14.9639 16.9377C15.2226 17.0125 15.496 17.0205 15.7586 16.9609C16.0212 16.9014 16.2644 16.7763 16.4656 16.5974C16.6667 16.4184 16.8193 16.1914 16.909 15.9375H22.624ZM15.4066 15.9375C15.3015 15.9375 15.1988 15.9064 15.1115 15.848C15.0241 15.7896 14.956 15.7066 14.9158 15.6096C14.8756 15.5125 14.8651 15.4057 14.8856 15.3026C14.9061 15.1996 14.9567 15.1049 15.0309 15.0306C15.1052 14.9563 15.1999 14.9057 15.303 14.8852C15.406 14.8647 15.5128 14.8752 15.6099 14.9155C15.707 14.9557 15.7899 15.0238 15.8483 15.1111C15.9067 15.1985 15.9379 15.3012 15.9379 15.4063C15.9377 15.5471 15.8817 15.6822 15.7821 15.7817C15.6825 15.8813 15.5474 15.9374 15.4066 15.9375Z" fill="#00EAFF" stroke="#00EAFF" stroke-width="0.5"/>
<path d="M29.0563 19.8237C30.0454 16.7622 29.9756 13.457 28.8583 10.44C27.7409 7.42296 25.641 4.86962 22.8964 3.19089C20.1518 1.51216 16.9223 0.805677 13.7274 1.18515C10.5326 1.56462 7.5584 3.00797 5.28342 5.28291C3.00845 7.55785 1.56506 10.5321 1.18554 13.7269C0.806022 16.9217 1.51246 20.1513 3.19115 22.8959C4.86984 25.6405 7.42315 27.7405 10.4402 28.8578C13.4572 29.9752 16.7624 30.045 19.8239 29.056C20.3057 30.0451 21.0169 30.9048 21.8982 31.5634C22.7795 32.222 23.8055 32.6605 24.8906 32.8424C25.9757 33.0243 27.0886 32.9442 28.1365 32.6089C29.1844 32.2736 30.137 31.6928 30.915 30.9148C31.693 30.1368 32.2738 29.1842 32.6091 28.1363C32.9444 27.0884 33.0245 25.9756 32.8426 24.8905C32.6608 23.8054 32.2223 22.7794 31.5637 21.8981C30.9051 21.0167 30.0454 20.3055 29.0563 19.8237ZM15.4064 28.6875C8.08316 28.6875 2.1252 22.7296 2.1252 15.4063C2.1252 8.08299 8.08316 2.12503 15.4064 2.12503C22.7297 2.12503 28.6877 8.08299 28.6877 15.4063C28.6893 16.7719 28.48 18.1296 28.067 19.4313C27.7263 19.3261 27.3779 19.2477 27.025 19.1968C27.4241 17.9729 27.6267 16.6936 27.6252 15.4063C27.6252 8.66883 22.1439 3.18753 15.4064 3.18753C8.669 3.18753 3.1877 8.66883 3.1877 15.4063C3.1877 22.1437 8.669 27.625 15.4064 27.625C16.6937 27.6268 17.9732 27.4244 19.197 27.0254C19.2479 27.378 19.3263 27.7261 19.4314 28.0666C18.1297 28.4796 16.7721 28.6891 15.4064 28.6875ZM19.1265 25.9271C18.1 26.2904 17.0255 26.5003 15.9377 26.5501V26.0313C15.9377 25.8904 15.8817 25.7553 15.7821 25.6556C15.6825 25.556 15.5473 25.5 15.4064 25.5C15.2655 25.5 15.1304 25.556 15.0308 25.6556C14.9312 25.7553 14.8752 25.8904 14.8752 26.0313V26.5496C12.286 26.4279 9.82076 25.4051 7.90599 23.658L8.2691 23.2949C8.31892 23.2456 8.35852 23.1871 8.38561 23.1225C8.4127 23.0579 8.42676 22.9886 8.42697 22.9186C8.42718 22.8485 8.41354 22.7791 8.38683 22.7144C8.36013 22.6496 8.32088 22.5908 8.27136 22.5413C8.22183 22.4918 8.163 22.4525 8.09826 22.4258C8.03351 22.3991 7.96412 22.3855 7.89409 22.3857C7.82405 22.3859 7.75475 22.4 7.69017 22.4271C7.62559 22.4542 7.567 22.4938 7.51778 22.5436L7.15474 22.9067C5.40763 20.992 4.38478 18.5267 4.26314 15.9375H4.78145C4.92234 15.9375 5.05747 15.8816 5.1571 15.7819C5.25672 15.6823 5.3127 15.5472 5.3127 15.4063C5.3127 15.2654 5.25672 15.1303 5.1571 15.0306C5.05747 14.931 4.92234 14.875 4.78145 14.875H4.26314C4.3848 12.2858 5.40765 9.82061 7.15474 7.90582L7.59302 8.3441C7.64214 8.39435 7.70074 8.43434 7.76543 8.46178C7.83011 8.48922 7.8996 8.50356 7.96986 8.50396C8.04013 8.50435 8.10977 8.49081 8.17477 8.46411C8.23976 8.43741 8.29881 8.39808 8.3485 8.3484C8.39819 8.29872 8.43753 8.23967 8.46424 8.17468C8.49096 8.1097 8.50451 8.04005 8.50413 7.96979C8.50374 7.89952 8.48942 7.83004 8.46199 7.76535C8.43456 7.70065 8.39457 7.64205 8.34434 7.59292L7.90606 7.15463C9.82079 5.4075 12.286 4.38462 14.8752 4.26297V4.78128C14.8752 4.92217 14.9312 5.0573 15.0308 5.15693C15.1304 5.25655 15.2655 5.31253 15.4064 5.31253C15.5473 5.31253 15.6825 5.25655 15.7821 5.15693C15.8817 5.0573 15.9377 4.92217 15.9377 4.78128V4.26297C18.5269 4.38461 20.9921 5.40746 22.9069 7.15457L22.5438 7.51768C22.4452 7.61752 22.3901 7.75232 22.3905 7.89266C22.3909 8.033 22.4469 8.16746 22.5461 8.26669C22.6453 8.36592 22.7798 8.42185 22.9201 8.42227C23.0605 8.42269 23.1953 8.36757 23.2951 8.26893L23.6582 7.90582C25.4053 9.82059 26.4281 12.2858 26.5497 14.875H26.0314C25.8905 14.875 25.7554 14.931 25.6558 15.0306C25.5562 15.1303 25.5002 15.2654 25.5002 15.4063C25.5002 15.5472 25.5562 15.6823 25.6558 15.7819C25.7554 15.8816 25.8905 15.9375 26.0314 15.9375H26.5502C26.5002 17.0253 26.2902 18.0998 25.9269 19.1264C24.1323 19.1556 22.4195 19.8815 21.1505 21.1506C19.8814 22.4197 19.1556 24.1326 19.1265 25.9271ZM26.0314 31.875C24.8757 31.875 23.7458 31.5323 22.7848 30.8902C21.8238 30.2481 21.0748 29.3354 20.6325 28.2676C20.1902 27.1998 20.0745 26.0248 20.3 24.8912C20.5255 23.7576 21.082 22.7164 21.8993 21.8991C22.7166 21.0819 23.7578 20.5253 24.8914 20.2998C26.025 20.0743 27.1999 20.1901 28.2678 20.6324C29.3356 21.0747 30.2482 21.8237 30.8903 22.7847C31.5325 23.7457 31.8752 24.8755 31.8752 26.0313C31.8734 27.5806 31.2572 29.066 30.1617 30.1615C29.0661 31.257 27.5808 31.8733 26.0314 31.875Z" fill="#00EAFF" stroke="#00EAFF" stroke-width="0.5"/>
<path d="M29.0137 23.487C28.9586 23.4442 28.8957 23.4126 28.8284 23.3941C28.7612 23.3755 28.6909 23.3704 28.6217 23.3791C28.5524 23.3877 28.4856 23.4099 28.4249 23.4444C28.3643 23.4788 28.311 23.5249 28.2682 23.58L24.9189 27.8862L23.7507 26.7179C23.651 26.6183 23.5159 26.5623 23.375 26.5623C23.2341 26.5623 23.099 26.6183 22.9994 26.7179C22.8997 26.8176 22.8438 26.9527 22.8438 27.0936C22.8438 27.2345 22.8997 27.3696 22.9994 27.4693L24.5931 29.063C24.6424 29.1124 24.701 29.1515 24.7654 29.1783C24.8299 29.205 24.899 29.2188 24.9688 29.2188C24.9797 29.2188 24.9907 29.2188 25.002 29.2177C25.0772 29.2131 25.1505 29.1924 25.2171 29.1573C25.2837 29.1221 25.3421 29.0731 25.3883 29.0137L29.1071 24.2324C29.1935 24.1212 29.2323 23.9802 29.2147 23.8404C29.1972 23.7006 29.1249 23.5735 29.0137 23.487Z" fill="#00EAFF" stroke="#00EAFF" stroke-width="0.5"/>
</g>
<defs>
<clipPath id="clip0_96_960">
<rect width="34" height="34" fill="#00EAFF"/>
</clipPath>
</defs>
</svg>
