<svg width="34" height="34" viewBox="0 0 34 34" fill="none" xmlns="http://www.w3.org/2000/svg">
<g clip-path="url(#clip0_96_924)">
<path d="M3.96329 5.66213C4.9014 5.66213 5.66188 4.90165 5.66188 3.96354C5.66188 3.02543 4.9014 2.26489 3.96329 2.26489C3.02518 2.26489 2.26465 3.02543 2.26465 3.96354C2.26465 4.90165 3.02518 5.66213 3.96329 5.66213ZM3.96329 3.39734C4.27602 3.39734 4.52949 3.65082 4.52949 3.96354C4.52949 4.27626 4.27602 4.52974 3.96329 4.52974C3.65057 4.52974 3.3971 4.27626 3.3971 3.96354C3.3971 3.65082 3.65057 3.39734 3.96329 3.39734ZM3.96329 14.7213C4.9014 14.7213 5.66188 13.9608 5.66188 13.0227C5.66188 12.0846 4.9014 11.3242 3.96329 11.3242C3.02518 11.3242 2.26471 12.0846 2.26471 13.0227C2.26471 13.9608 3.02518 14.7213 3.96329 14.7213ZM3.96329 12.4565C4.27602 12.4565 4.52949 12.71 4.52949 13.0227C4.52949 13.3355 4.27602 13.5889 3.96329 13.5889C3.65057 13.5889 3.3971 13.3355 3.3971 13.0227C3.3971 12.71 3.65057 12.4565 3.96329 12.4565ZM3.96329 20.3834C3.02518 20.3834 2.26471 21.1438 2.26471 22.0819C2.26471 23.0201 3.02518 23.7805 3.96329 23.7805C4.9014 23.7805 5.66188 23.0201 5.66188 22.0819C5.66188 21.1438 4.9014 20.3834 3.96329 20.3834ZM3.96329 22.6482C3.65057 22.6482 3.3971 22.3947 3.3971 22.082C3.3971 21.7693 3.65057 21.5158 3.96329 21.5158C4.27602 21.5158 4.52949 21.7693 4.52949 22.082C4.52949 22.3947 4.27596 22.6482 3.96329 22.6482Z" fill="#00EAFF" stroke="#00EAFF" stroke-width="0.5"/>
<path fill-rule="evenodd" clip-rule="evenodd" d="M10.1917 4.52961H18.6847C18.9974 4.52961 19.2509 4.27614 19.2509 3.96341C19.2509 3.65069 18.9974 3.39722 18.6847 3.39722H10.1917C9.87896 3.39722 9.62549 3.65069 9.62549 3.96341C9.62549 4.27614 9.87896 4.52961 10.1917 4.52961ZM20.9495 4.52961H22.6481C22.9608 4.52961 23.2143 4.27614 23.2143 3.96341C23.2143 3.65069 22.9608 3.39722 22.6481 3.39722H20.9495C20.6368 3.39722 20.3833 3.65069 20.3833 3.96341C20.3833 4.27614 20.6368 4.52961 20.9495 4.52961Z" fill="#00EAFF" stroke="#00EAFF" stroke-width="0.5"/>
<path d="M24.8563 13.6451C22.1824 10.9709 17.9918 10.558 14.8473 12.6588C11.7029 14.7596 10.4803 18.7891 11.9273 22.283C13.3743 25.7768 17.0878 27.7621 20.7968 27.0245C24.5059 26.287 27.1775 23.0322 27.1777 19.2505C27.1769 17.1483 26.342 15.1323 24.8563 13.6451ZM24.0551 24.0547C21.763 26.3467 18.171 26.7004 15.4759 24.8994C12.7808 23.0984 11.7332 19.6444 12.9738 16.6498C14.2144 13.6552 17.3976 11.9538 20.5767 12.5864C23.7558 13.2189 26.0455 16.009 26.0453 19.2505C26.0444 21.0523 25.3286 22.7801 24.0551 24.0547Z" fill="#00EAFF" stroke="#00EAFF" stroke-width="0.5"/>
<path fill-rule="evenodd" clip-rule="evenodd" d="M19.2512 13.5889C18.5074 13.5869 17.7707 13.7325 17.0836 14.0172C16.3964 14.3018 15.7726 14.7199 15.2482 15.2473C15.1758 15.3171 15.1234 15.4049 15.0962 15.5017C15.0691 15.5985 15.0682 15.7007 15.0936 15.798C15.1191 15.8952 15.17 15.9839 15.2411 16.055C15.3121 16.126 15.4009 16.1769 15.4981 16.2023C15.5953 16.2278 15.6976 16.2269 15.7944 16.1997C15.8911 16.1726 15.9789 16.1202 16.0487 16.0479C16.4683 15.6259 16.9673 15.2914 17.517 15.0637C18.0667 14.836 18.6562 14.7196 19.2512 14.7213C19.5639 14.7213 19.8174 14.4678 19.8174 14.1551C19.8174 13.8424 19.5639 13.5889 19.2512 13.5889Z" fill="#00EAFF" stroke="#00EAFF" stroke-width="0.5"/>
<path d="M29.8717 26.6681C29.7671 26.5624 29.6424 26.4785 29.5051 26.4215C29.3677 26.3644 29.2204 26.3353 29.0717 26.3357C28.9738 26.337 28.8765 26.3511 28.7823 26.3776L27.5531 25.1484C28.4028 23.9577 28.9857 22.5976 29.2618 21.1611C29.538 19.7245 29.501 18.2453 29.1533 16.8244C28.8056 15.4034 28.1554 14.0743 27.2472 12.9275C26.3389 11.7808 25.1939 10.8435 23.8904 10.1797C24.468 10.1234 24.9096 9.63956 24.9129 9.0592V7.82264C25.243 7.70597 25.5289 7.49016 25.7316 7.20475C25.9343 6.91935 26.0439 6.57828 26.0453 6.22822V1.69859C26.0453 0.76048 25.2848 0 24.3467 0H1.69859C0.76048 0 0 0.76048 0 1.69859V6.22822C0.00143986 6.57828 0.111006 6.91935 0.313708 7.20475C0.51641 7.49016 0.802345 7.70597 1.13239 7.82264V9.16342C0.802345 9.2801 0.51641 9.49591 0.313708 9.78131C0.111006 10.0667 0.00143986 10.4078 0 10.7578L0 15.2875C0.00143986 15.6375 0.111006 15.9786 0.313708 16.264C0.51641 16.5494 0.802345 16.7652 1.13239 16.8819V18.2227C0.802345 18.3393 0.516407 18.5551 0.313704 18.8405C0.111 19.1259 0.00143509 19.467 0 19.817L0 24.3467C0 25.2848 0.76048 26.0453 1.69859 26.0453H11.6705C11.7945 26.1834 11.9123 26.3255 12.0442 26.4575C15.5595 29.9714 21.0984 30.4333 25.1473 27.5502L26.3782 28.7817C26.3521 28.8758 26.3382 28.9728 26.3368 29.0704C26.3364 29.2192 26.3655 29.3665 26.4225 29.504C26.4794 29.6414 26.5631 29.7661 26.6686 29.871L30.106 33.3084C30.3853 33.5975 30.7365 33.8071 31.1236 33.9157C31.5106 34.0242 31.9196 34.0277 32.3085 33.926C32.6974 33.8242 33.0522 33.6207 33.3365 33.3365C33.6207 33.0522 33.8242 32.6974 33.926 32.3085C34.0278 31.9196 34.0243 31.5106 33.9157 31.1236C33.8072 30.7365 33.5976 30.3853 33.3084 30.106L29.8717 26.6681ZM9.12604 18.1185H2.26479V16.9861H9.32021C9.23432 17.3596 9.1695 17.7377 9.12604 18.1185ZM9.64919 15.8537H7.92681V10.1917H14.5887C12.2769 11.3755 10.5084 13.4026 9.64919 15.8537ZM2.26479 7.92681H23.7804V9.0592H2.26479V7.92681ZM24.9129 1.69859V6.22822C24.9129 6.54094 24.6594 6.79441 24.3467 6.79441H7.92681V1.13239H24.3467C24.6594 1.13239 24.9129 1.38592 24.9129 1.69859ZM1.13239 1.69859C1.13239 1.38587 1.38587 1.13239 1.69859 1.13239H6.79441V6.79441H1.69859C1.38587 6.79441 1.13239 6.54094 1.13239 6.22822V1.69859ZM1.13239 10.7578C1.13239 10.4451 1.38587 10.1917 1.69859 10.1917H6.79441V15.8537H1.69859C1.38587 15.8537 1.13239 15.6002 1.13239 15.2875V10.7578ZM1.13239 24.3467V19.817C1.13239 19.5043 1.38587 19.2509 1.69859 19.2509H6.79441V24.9129H1.69859C1.38592 24.9129 1.13239 24.6594 1.13239 24.3467ZM7.92681 24.9129V19.2509H9.0592C9.054 21.2668 9.651 23.2384 10.7737 24.9129H7.92681ZM12.8454 25.6569C10.2542 23.0661 9.47898 19.1694 10.8811 15.7841C12.2832 12.3987 15.5866 10.1914 19.2509 10.1914C22.9151 10.1914 26.2185 12.3987 27.6206 15.7841C29.0227 19.1694 28.2475 23.0661 25.6563 25.6569C24.8192 26.5053 23.8219 27.179 22.7223 27.6389C21.6227 28.0987 20.4427 28.3355 19.2509 28.3355C18.059 28.3355 16.879 28.0987 15.7794 27.6389C14.6798 27.179 13.6825 26.5053 12.8454 25.6569ZM26.4575 26.4575C26.5922 26.3227 26.7122 26.1778 26.8385 26.0373L27.8695 27.0684L27.0678 27.8701L26.0362 26.8379C26.1766 26.7117 26.3221 26.5928 26.4575 26.4575ZM32.5079 32.5079C32.0599 32.9359 31.3547 32.9359 30.9067 32.5079L27.4693 29.0705L29.0705 27.4693L32.5079 30.9067C32.95 31.3489 32.95 32.0657 32.5079 32.5079Z" fill="#00EAFF" stroke="#00EAFF" stroke-width="0.4"/>
</g>
<defs>
<clipPath id="clip0_96_924">
<rect width="34" height="34" fill="white"/>
</clipPath>
</defs>
</svg>
