<svg width="34" height="34" viewBox="0 0 34 34" fill="none" xmlns="http://www.w3.org/2000/svg">
<g clip-path="url(#clip0_96_945)">
<path d="M31.7333 0H2.26667C1.66551 0 1.08897 0.238809 0.663891 0.663891C0.238809 1.08897 0 1.66551 0 2.26667L0 26.0667C0 26.6678 0.238809 27.2444 0.663891 27.6694C1.08897 28.0945 1.66551 28.3333 2.26667 28.3333H14.6143C14.7646 28.3333 14.9088 28.2736 15.015 28.1674C15.1213 28.0611 15.181 27.917 15.181 27.7667C15.181 27.6164 15.1213 27.4722 15.015 27.366C14.9088 27.2597 14.7646 27.2 14.6143 27.2H2.26667C1.96609 27.2 1.67782 27.0806 1.46528 26.8681C1.25274 26.6555 1.13333 26.3672 1.13333 26.0667V5.66667H9.63333C9.78362 5.66667 9.92776 5.60696 10.034 5.50069C10.1403 5.39442 10.2 5.25029 10.2 5.1C10.2 4.94971 10.1403 4.80558 10.034 4.69931C9.92776 4.59304 9.78362 4.53333 9.63333 4.53333H1.13333V2.26667C1.13333 1.96609 1.25274 1.67782 1.46528 1.46528C1.67782 1.25274 1.96609 1.13333 2.26667 1.13333H31.7333C32.0339 1.13333 32.3222 1.25274 32.5347 1.46528C32.7473 1.67782 32.8667 1.96609 32.8667 2.26667V4.53333H13.6C13.4497 4.53333 13.3056 4.59304 13.1993 4.69931C13.093 4.80558 13.0333 4.94971 13.0333 5.1C13.0333 5.25029 13.093 5.39442 13.1993 5.50069C13.3056 5.60696 13.4497 5.66667 13.6 5.66667H32.8667V26.0667C32.8667 26.3672 32.7473 26.6555 32.5347 26.8681C32.3222 27.0806 32.0339 27.2 31.7333 27.2H30.0163C29.866 27.2 29.7219 27.2597 29.6156 27.366C29.5094 27.4722 29.4497 27.6164 29.4497 27.7667C29.4497 27.917 29.5094 28.0611 29.6156 28.1674C29.7219 28.2736 29.866 28.3333 30.0163 28.3333H31.7333C32.3345 28.3333 32.911 28.0945 33.3361 27.6694C33.7612 27.2444 34 26.6678 34 26.0667V2.26667C34 1.66551 33.7612 1.08897 33.3361 0.663891C32.911 0.238809 32.3345 0 31.7333 0Z" fill="#00EAFF" stroke="#00EAFF" stroke-width="0.5"/>
<path d="M2.83327 3.39993C3.14623 3.39993 3.39993 3.14623 3.39993 2.83327C3.39993 2.52031 3.14623 2.2666 2.83327 2.2666C2.52031 2.2666 2.2666 2.52031 2.2666 2.83327C2.2666 3.14623 2.52031 3.39993 2.83327 3.39993Z" fill="#00EAFF" stroke="#00EAFF" stroke-width="0.5"/>
<path d="M5.09987 3.39993C5.41283 3.39993 5.66654 3.14623 5.66654 2.83327C5.66654 2.52031 5.41283 2.2666 5.09987 2.2666C4.78691 2.2666 4.5332 2.52031 4.5332 2.83327C4.5332 3.14623 4.78691 3.39993 5.09987 3.39993Z" fill="#00EAFF" stroke="#00EAFF" stroke-width="0.5"/>
<path d="M7.36647 3.39993C7.67943 3.39993 7.93314 3.14623 7.93314 2.83327C7.93314 2.52031 7.67943 2.2666 7.36647 2.2666C7.05351 2.2666 6.7998 2.52031 6.7998 2.83327C6.7998 3.14623 7.05351 3.39993 7.36647 3.39993Z" fill="#00EAFF" stroke="#00EAFF" stroke-width="0.5"/>
<path d="M22.1002 16.9995C21.878 16.9979 21.6579 17.0409 21.4527 17.126C21.2475 17.2111 21.0614 17.3365 20.9056 17.4948C20.815 17.5855 20.7345 17.6852 20.6665 17.7934C20.4134 17.6463 20.1262 17.568 19.8335 17.5662C19.6114 17.5646 19.3912 17.6076 19.186 17.6927C18.9808 17.7778 18.7948 17.9032 18.639 18.0615C18.5483 18.1521 18.4678 18.2519 18.3998 18.3601C18.1468 18.213 17.8596 18.1346 17.5668 18.1329C17.1166 18.1351 16.6855 18.3149 16.3672 18.6333C16.0489 18.9516 15.8691 19.3827 15.8668 19.8329V24.9329C15.8687 26.295 16.2391 27.6312 16.939 28.7998C17.3587 29.5193 17.5757 30.339 17.5668 31.1719V32.8662C17.5668 33.1668 17.6862 33.4551 17.8988 33.6676C18.1113 33.8801 18.3996 33.9995 18.7002 33.9995H24.9505C25.2511 33.9995 25.5393 33.8801 25.7519 33.6676C25.9644 33.4551 26.0838 33.1668 26.0838 32.8662V30.9225C26.0838 30.7661 26.119 30.6109 26.1847 30.4692C26.2555 30.3032 26.3655 30.1564 26.5049 30.0414C27.2645 29.3421 27.8579 28.4816 28.2417 27.5231C28.3584 27.2828 28.474 27.0443 28.5942 26.8187L31.3045 21.8003C31.5456 21.3617 31.6174 20.8499 31.5061 20.3619C31.3949 19.8739 31.1084 19.4437 30.701 19.1529C30.4707 18.9972 30.2103 18.8915 29.9365 18.8426C29.6628 18.7937 29.3819 18.8027 29.1119 18.8691C28.8419 18.9355 28.5888 19.0577 28.3689 19.2279C28.1491 19.3981 27.9673 19.6125 27.8354 19.8572L26.0668 23.115V14.7329H27.4835C28.3099 14.7321 29.1022 14.4035 29.6865 13.8192C30.2708 13.2349 30.5994 12.4426 30.6002 11.6162C30.5993 10.7899 30.2706 9.99768 29.6863 9.41339C29.102 8.8291 28.3098 8.50044 27.4835 8.49954H21.2502C20.4238 8.50029 19.6315 8.8289 19.0472 9.41322C18.4628 9.99755 18.1342 10.7898 18.1335 11.6162C18.1344 12.4425 18.463 13.2347 19.0473 13.819C19.6316 14.4033 20.4238 14.732 21.2502 14.7329H22.6668V17.1038C22.4853 17.0367 22.2936 17.0014 22.1002 16.9995ZM27.0647 23.6522L28.8339 20.3933C28.9455 20.1814 29.1427 20.0278 29.3756 19.9711C29.4935 19.941 29.6165 19.9364 29.7363 19.9577C29.8562 19.979 29.97 20.0257 30.0703 20.0947C30.4273 20.3723 30.5276 20.8699 30.3055 21.2637L27.5968 26.2815C27.4693 26.5218 27.3469 26.7728 27.224 27.0261C26.9075 27.8315 26.4201 28.5586 25.7954 29.1574C25.5153 29.3847 25.2943 29.6763 25.1511 30.0074C25.02 30.2951 24.9522 30.6075 24.9522 30.9237V32.8662H18.7002V31.1719C18.7087 30.1346 18.4361 29.1143 17.9114 28.2195C17.3163 27.2264 17.0014 26.0906 17.0002 24.9329V19.8329C17.0002 19.6799 17.0625 19.5342 17.1736 19.4294C17.2247 19.3771 17.2859 19.3356 17.3535 19.3076C17.4211 19.2796 17.4937 19.2655 17.5668 19.2662C17.7171 19.2662 17.8613 19.3259 17.9675 19.4322C18.0738 19.5385 18.1335 19.6826 18.1335 19.8329V22.6662C18.1335 22.8165 18.1932 22.9606 18.2995 23.0669C18.4057 23.1732 18.5499 23.2329 18.7002 23.2329C18.8505 23.2329 18.9946 23.1732 19.1009 23.0669C19.2071 22.9606 19.2668 22.8165 19.2668 22.6662V19.2662C19.2668 19.1132 19.3292 18.9676 19.4402 18.8627C19.4914 18.8104 19.5526 18.769 19.6202 18.7409C19.6878 18.7129 19.7603 18.6988 19.8335 18.6995C19.9838 18.6995 20.1279 18.7592 20.2342 18.8655C20.3405 18.9718 20.4002 19.1159 20.4002 19.2662V22.6662C20.4002 22.8165 20.4599 22.9606 20.5661 23.0669C20.6724 23.1732 20.8165 23.2329 20.9668 23.2329C21.1171 23.2329 21.2613 23.1732 21.3675 23.0669C21.4738 22.9606 21.5335 22.8165 21.5335 22.6662V18.6995C21.5335 18.5465 21.5958 18.4009 21.7069 18.2961C21.758 18.2437 21.8193 18.2023 21.8868 18.1743C21.9544 18.1462 22.027 18.1321 22.1002 18.1329C22.2505 18.1329 22.3946 18.1926 22.5009 18.2989C22.6071 18.4051 22.6668 18.5493 22.6668 18.6995V22.6662C22.6668 22.8165 22.7265 22.9606 22.8328 23.0669C22.9391 23.1732 23.0832 23.2329 23.2335 23.2329C23.3838 23.2329 23.5279 23.1732 23.6342 23.0669C23.7405 22.9606 23.8002 22.8165 23.8002 22.6662V13.5372C23.8002 13.3842 23.8625 13.2386 23.9736 13.1337C24.0415 13.0639 24.1269 13.0137 24.221 12.9884C24.315 12.9631 24.4141 12.9636 24.5079 12.9898C24.7703 13.0748 24.9443 13.3241 24.9335 13.5995V23.115C24.9335 23.3674 25.0177 23.6125 25.1729 23.8116C25.328 24.0106 25.5451 24.1522 25.7898 24.2139C26.0345 24.2756 26.2928 24.2538 26.5238 24.1521C26.7547 24.0503 26.9451 23.8744 27.0647 23.6522ZM21.2502 13.5995C20.7241 13.5995 20.2197 13.3906 19.8477 13.0186C19.4758 12.6467 19.2668 12.1422 19.2668 11.6162C19.2668 11.0902 19.4758 10.5857 19.8477 10.2138C20.2197 9.84183 20.7241 9.63288 21.2502 9.63288H27.4835C28.0095 9.63288 28.514 9.84183 28.8859 10.2138C29.2579 10.5857 29.4668 11.0902 29.4668 11.6162C29.4668 12.1422 29.2579 12.6467 28.8859 13.0186C28.514 13.3906 28.0095 13.5995 27.4835 13.5995H26.0668C26.074 13.2127 25.9518 12.8345 25.7196 12.525C25.4874 12.2155 25.1585 11.9924 24.785 11.891C24.5343 11.8282 24.2726 11.8232 24.0197 11.8765C23.7667 11.9298 23.5293 12.0398 23.3252 12.1985C23.1211 12.3571 22.9558 12.56 22.8417 12.792C22.7276 13.0239 22.6678 13.2787 22.6668 13.5372V13.5995H21.2502ZM16.4335 14.1662V9.63288C16.4335 9.03172 16.1947 8.45518 15.7696 8.0301C15.3445 7.60502 14.768 7.36621 14.1668 7.36621H5.10016C4.49901 7.36621 3.92247 7.60502 3.49739 8.0301C3.0723 8.45518 2.8335 9.03172 2.8335 9.63288V14.1662C2.8335 14.7674 3.0723 15.3439 3.49739 15.769C3.92247 16.1941 4.49901 16.4329 5.10016 16.4329H9.50033L13.2273 19.6929C13.3138 19.7684 13.4211 19.8159 13.5352 19.829C13.6492 19.8421 13.7646 19.8203 13.8659 19.7664C13.9673 19.7125 14.0499 19.6291 14.1028 19.5273C14.1558 19.4254 14.1765 19.3099 14.1623 19.1959L13.8172 16.4329H14.1668C14.768 16.4329 15.3445 16.1941 15.7696 15.769C16.1947 15.3439 16.4335 14.7674 16.4335 14.1662ZM13.1752 15.2995C13.0948 15.2996 13.0154 15.3167 12.9422 15.3497C12.869 15.3828 12.8036 15.431 12.7505 15.4912C12.6973 15.5515 12.6576 15.6223 12.6339 15.6991C12.6102 15.7758 12.6031 15.8568 12.613 15.9365L12.8533 17.8603L10.0868 15.4395C9.98328 15.349 9.85035 15.2993 9.71283 15.2995H5.10016C4.79958 15.2995 4.51132 15.1801 4.29877 14.9676C4.08623 14.7551 3.96683 14.4668 3.96683 14.1662V9.63288C3.96683 9.3323 4.08623 9.04403 4.29877 8.83149C4.51132 8.61895 4.79958 8.49954 5.10016 8.49954H14.1668C14.4674 8.49954 14.7557 8.61895 14.9682 8.83149C15.1808 9.04403 15.3002 9.3323 15.3002 9.63288V14.1662C15.3002 14.4668 15.1808 14.7551 14.9682 14.9676C14.7557 15.1801 14.4674 15.2995 14.1668 15.2995H13.1752Z" fill="#00EAFF" stroke="#00EAFF" stroke-width="0.5"/>
<path d="M5.6666 11.3333H6.79994C6.95022 11.3333 7.09436 11.2736 7.20063 11.1673C7.3069 11.061 7.3666 10.9169 7.3666 10.7666C7.3666 10.6163 7.3069 10.4722 7.20063 10.3659C7.09436 10.2597 6.95022 10.2 6.79994 10.2H5.6666C5.51631 10.2 5.37218 10.2597 5.26591 10.3659C5.15964 10.4722 5.09994 10.6163 5.09994 10.7666C5.09994 10.9169 5.15964 11.061 5.26591 11.1673C5.37218 11.2736 5.51631 11.3333 5.6666 11.3333ZM9.0666 11.3333H13.5999C13.7502 11.3333 13.8944 11.2736 14.0006 11.1673C14.1069 11.061 14.1666 10.9169 14.1666 10.7666C14.1666 10.6163 14.1069 10.4722 14.0006 10.3659C13.8944 10.2597 13.7502 10.2 13.5999 10.2H9.0666C8.91631 10.2 8.77218 10.2597 8.66591 10.3659C8.55964 10.4722 8.49994 10.6163 8.49994 10.7666C8.49994 10.9169 8.55964 11.061 8.66591 11.1673C8.77218 11.2736 8.91631 11.3333 9.0666 11.3333ZM13.5999 12.4666H12.4666C12.3163 12.4666 12.1722 12.5263 12.0659 12.6326C11.9596 12.7389 11.8999 12.883 11.8999 13.0333C11.8999 13.1836 11.9596 13.3277 12.0659 13.434C12.1722 13.5402 12.3163 13.6 12.4666 13.6H13.5999C13.7502 13.6 13.8944 13.5402 14.0006 13.434C14.1069 13.3277 14.1666 13.1836 14.1666 13.0333C14.1666 12.883 14.1069 12.7389 14.0006 12.6326C13.8944 12.5263 13.7502 12.4666 13.5999 12.4666ZM10.1999 12.4666H5.6666C5.51631 12.4666 5.37218 12.5263 5.26591 12.6326C5.15964 12.7389 5.09994 12.883 5.09994 13.0333C5.09994 13.1836 5.15964 13.3277 5.26591 13.434C5.37218 13.5402 5.51631 13.6 5.6666 13.6H10.1999C10.3502 13.6 10.4944 13.5402 10.6006 13.434C10.7069 13.3277 10.7666 13.1836 10.7666 13.0333C10.7666 12.883 10.7069 12.7389 10.6006 12.6326C10.4944 12.5263 10.3502 12.4666 10.1999 12.4666ZM2.83327 22.6666C2.68298 22.6666 2.53885 22.7263 2.43257 22.8326C2.3263 22.9389 2.2666 23.083 2.2666 23.2333V25.5C2.2666 25.6502 2.3263 25.7944 2.43257 25.9006C2.53885 26.0069 2.68298 26.0666 2.83327 26.0666H5.09994C5.25022 26.0666 5.39436 26.0069 5.50063 25.9006C5.6069 25.7944 5.6666 25.6502 5.6666 25.5C5.6666 25.3497 5.6069 25.2055 5.50063 25.0993C5.39436 24.993 5.25022 24.9333 5.09994 24.9333H3.39994V23.2333C3.39994 23.083 3.34023 22.9389 3.23396 22.8326C3.12769 22.7263 2.98356 22.6666 2.83327 22.6666Z" fill="#00EAFF" stroke="#00EAFF" stroke-width="0.5"/>
</g>
<defs>
<clipPath id="clip0_96_945">
<rect width="34" height="34" fill="white"/>
</clipPath>
</defs>
</svg>
