<svg width="62" height="62" viewBox="0 0 62 62" fill="none" xmlns="http://www.w3.org/2000/svg">
<path d="M54.8811 59.0145H7.11882C4.82349 59.0145 2.95605 57.147 2.95605 54.8517V7.16276C2.95605 4.86744 4.82338 3 7.11882 3H54.8811C57.1764 3 59.0438 4.86744 59.0438 7.16276V54.8517C59.0438 57.1472 57.1764 59.0145 54.8811 59.0145ZM7.11882 4.75274C5.79002 4.75274 4.7088 5.83386 4.7088 7.16276V54.8517C4.7088 56.1806 5.78991 57.2617 7.11882 57.2617H54.8811C56.21 57.2617 57.2911 56.1806 57.2911 54.8517V7.16276C57.2911 5.83386 56.21 4.75274 54.8811 4.75274H7.11882Z" fill="#00EAFF"/>
<path d="M10.4857 13.6118C8.77965 13.6118 7.39159 12.2251 7.39159 10.5206C7.39159 8.81619 8.77965 7.42944 10.4857 7.42944C12.1918 7.42944 13.5799 8.81619 13.5799 10.5206C13.5799 12.2251 12.1918 13.6118 10.4857 13.6118ZM10.4857 9.18219C9.74607 9.18219 9.14433 9.78261 9.14433 10.5206C9.14433 11.2586 9.74607 11.8591 10.4857 11.8591C11.2254 11.8591 11.8271 11.2586 11.8271 10.5206C11.8271 9.78261 11.2254 9.18219 10.4857 9.18219ZM19.3567 13.6118C17.6506 13.6118 16.2625 12.2251 16.2625 10.5206C16.2625 8.81619 17.6506 7.42944 19.3567 7.42944C21.0628 7.42944 22.4508 8.81619 22.4508 10.5206C22.4508 12.2251 21.0629 13.6118 19.3567 13.6118ZM19.3567 9.18219C18.617 9.18219 18.0153 9.78261 18.0153 10.5206C18.0153 11.2586 18.617 11.8591 19.3567 11.8591C20.0963 11.8591 20.6981 11.2586 20.6981 10.5206C20.6981 9.78261 20.0963 9.18219 19.3567 9.18219ZM28.2278 13.6118C26.5217 13.6118 25.1336 12.2251 25.1336 10.5206C25.1336 8.81619 26.5216 7.42944 28.2278 7.42944C29.9339 7.42944 31.3219 8.81619 31.3219 10.5206C31.3219 12.2251 29.9338 13.6118 28.2278 13.6118ZM28.2278 9.18219C27.4881 9.18219 26.8864 9.78261 26.8864 10.5206C26.8864 11.2586 27.4881 11.8591 28.2278 11.8591C28.9674 11.8591 29.5692 11.2586 29.5692 10.5206C29.5692 9.78261 28.9674 9.18219 28.2278 9.18219ZM53.7319 13.6118H34.8811C34.6486 13.6118 34.4257 13.5195 34.2614 13.3551C34.097 13.1908 34.0047 12.9679 34.0047 12.7354V8.30581C34.0047 8.07339 34.097 7.85048 34.2614 7.68613C34.4257 7.52178 34.6486 7.42944 34.8811 7.42944H53.7319C53.9644 7.42944 54.1873 7.52178 54.3516 7.68613C54.516 7.85048 54.6083 8.07339 54.6083 8.30581V12.7354C54.6083 12.9679 54.516 13.1908 54.3516 13.3551C54.1873 13.5195 53.9644 13.6118 53.7319 13.6118ZM35.7574 11.8591H52.8555V9.18219H35.7574V11.8591ZM58.1675 18.0413H3.83243C3.6 18.0413 3.37709 17.949 3.21274 17.7846C3.04839 17.6203 2.95605 17.3974 2.95605 17.1649C2.95605 16.9325 3.04839 16.7096 3.21274 16.5453C3.37709 16.3809 3.6 16.2886 3.83243 16.2886H58.1675C58.3999 16.2886 58.6228 16.3809 58.7871 16.5453C58.9515 16.7096 59.0438 16.9325 59.0438 17.1649C59.0438 17.3974 58.9515 17.6203 58.7871 17.7846C58.6228 17.949 58.3999 18.0413 58.1675 18.0413ZM53.7319 54.5849H8.26796C8.03553 54.5849 7.81262 54.4926 7.64827 54.3282C7.48392 54.1639 7.39159 53.941 7.39159 53.7085V49.279C7.39159 49.0466 7.48392 48.8237 7.64827 48.6593C7.81262 48.495 8.03553 48.4027 8.26796 48.4027H53.7319C53.9644 48.4027 54.1873 48.495 54.3516 48.6593C54.516 48.8237 54.6083 49.0466 54.6083 49.279V53.7085C54.6083 53.941 54.516 54.1639 54.3516 54.3282C54.1873 54.4926 53.9644 54.5849 53.7319 54.5849ZM9.14433 52.8322H52.8555V50.1554H9.14433V52.8322ZM53.7319 45.726H8.26796C8.03553 45.726 7.81262 45.6337 7.64827 45.4693C7.48392 45.305 7.39159 45.0821 7.39159 44.8496C7.39159 44.6172 7.48392 44.3943 7.64827 44.2299C7.81262 44.0656 8.03553 43.9733 8.26796 43.9733H53.7319C53.9644 43.9733 54.1873 44.0656 54.3516 44.2299C54.516 44.3943 54.6083 44.6172 54.6083 44.8496C54.6083 45.0821 54.516 45.305 54.3516 45.4693C54.1873 45.6337 53.9644 45.726 53.7319 45.726ZM31.5545 41.2964H8.26796C8.03553 41.2964 7.81262 41.204 7.64827 41.0397C7.48392 40.8753 7.39159 40.6524 7.39159 40.42V21.5945C7.39159 21.362 7.48392 21.1391 7.64827 20.9748C7.81262 20.8104 8.03553 20.7181 8.26796 20.7181H31.5545C31.7869 20.7181 32.0098 20.8104 32.1742 20.9748C32.3385 21.1391 32.4308 21.362 32.4308 21.5945V40.42C32.4308 40.904 32.0383 41.2964 31.5545 41.2964ZM9.14433 39.5436H30.6781V22.4708H9.14433V39.5436Z" fill="white"/>
<path d="M10.4857 13.6118C8.77965 13.6118 7.39159 12.2251 7.39159 10.5206C7.39159 8.81619 8.77965 7.42944 10.4857 7.42944C12.1918 7.42944 13.5799 8.81619 13.5799 10.5206C13.5799 12.2251 12.1918 13.6118 10.4857 13.6118ZM10.4857 9.18219C9.74607 9.18219 9.14433 9.78261 9.14433 10.5206C9.14433 11.2586 9.74607 11.8591 10.4857 11.8591C11.2254 11.8591 11.8271 11.2586 11.8271 10.5206C11.8271 9.78261 11.2254 9.18219 10.4857 9.18219ZM19.3567 13.6118C17.6506 13.6118 16.2625 12.2251 16.2625 10.5206C16.2625 8.81619 17.6506 7.42944 19.3567 7.42944C21.0628 7.42944 22.4508 8.81619 22.4508 10.5206C22.4508 12.2251 21.0629 13.6118 19.3567 13.6118ZM19.3567 9.18219C18.617 9.18219 18.0153 9.78261 18.0153 10.5206C18.0153 11.2586 18.617 11.8591 19.3567 11.8591C20.0963 11.8591 20.6981 11.2586 20.6981 10.5206C20.6981 9.78261 20.0963 9.18219 19.3567 9.18219ZM28.2278 13.6118C26.5217 13.6118 25.1336 12.2251 25.1336 10.5206C25.1336 8.81619 26.5216 7.42944 28.2278 7.42944C29.9339 7.42944 31.3219 8.81619 31.3219 10.5206C31.3219 12.2251 29.9338 13.6118 28.2278 13.6118ZM28.2278 9.18219C27.4881 9.18219 26.8864 9.78261 26.8864 10.5206C26.8864 11.2586 27.4881 11.8591 28.2278 11.8591C28.9674 11.8591 29.5692 11.2586 29.5692 10.5206C29.5692 9.78261 28.9674 9.18219 28.2278 9.18219ZM53.7319 13.6118H34.8811C34.6486 13.6118 34.4257 13.5195 34.2614 13.3551C34.097 13.1908 34.0047 12.9679 34.0047 12.7354V8.30581C34.0047 8.07339 34.097 7.85048 34.2614 7.68613C34.4257 7.52178 34.6486 7.42944 34.8811 7.42944H53.7319C53.9644 7.42944 54.1873 7.52178 54.3516 7.68613C54.516 7.85048 54.6083 8.07339 54.6083 8.30581V12.7354C54.6083 12.9679 54.516 13.1908 54.3516 13.3551C54.1873 13.5195 53.9644 13.6118 53.7319 13.6118ZM35.7574 11.8591H52.8555V9.18219H35.7574V11.8591ZM58.1675 18.0413H3.83243C3.6 18.0413 3.37709 17.949 3.21274 17.7846C3.04839 17.6203 2.95605 17.3974 2.95605 17.1649C2.95605 16.9325 3.04839 16.7096 3.21274 16.5453C3.37709 16.3809 3.6 16.2886 3.83243 16.2886H58.1675C58.3999 16.2886 58.6228 16.3809 58.7871 16.5453C58.9515 16.7096 59.0438 16.9325 59.0438 17.1649C59.0438 17.3974 58.9515 17.6203 58.7871 17.7846C58.6228 17.949 58.3999 18.0413 58.1675 18.0413Z" fill="#00EAFF"/>
<path fill-rule="evenodd" clip-rule="evenodd" d="M53.7321 28.0079H45.9701C45.7377 28.0079 45.5148 27.9156 45.3504 27.7512C45.1861 27.5869 45.0937 27.364 45.0937 27.1315V21.5946C45.0937 21.3622 45.1861 21.1393 45.3504 20.9749C45.5148 20.8106 45.7377 20.7183 45.9701 20.7183H53.7321C53.9646 20.7183 54.1875 20.8106 54.3518 20.9749C54.5162 21.1393 54.6085 21.3622 54.6085 21.5946V27.1315C54.6085 27.364 54.5162 27.5869 54.3518 27.7512C54.1875 27.9156 53.9646 28.0079 53.7321 28.0079ZM46.8464 26.2552H52.8556V22.471H46.8464V26.2552ZM42.6434 41.2966H35.9901C35.7577 41.2966 35.5347 41.2042 35.3704 41.0399C35.206 40.8755 35.1137 40.6526 35.1137 40.4202V34.8833C35.1137 34.6508 35.206 34.4279 35.3704 34.2636C35.5347 34.0992 35.7577 34.0069 35.9901 34.0069H42.6434C42.8758 34.0069 43.0987 34.0992 43.2631 34.2636C43.4274 34.4279 43.5198 34.6508 43.5198 34.8833V40.4202C43.5198 40.6526 43.4274 40.8755 43.2631 41.0399C43.0987 41.2042 42.8758 41.2966 42.6434 41.2966ZM36.8665 39.5438H41.767V35.7596H36.8665V39.5438ZM41.5345 22.471H35.9901C35.7577 22.471 35.5347 22.3787 35.3704 22.2143C35.206 22.05 35.1137 21.8271 35.1137 21.5946C35.1137 21.3622 35.206 21.1393 35.3704 20.9749C35.5347 20.8106 35.7577 20.7183 35.9901 20.7183H41.5345C41.7669 20.7183 41.9898 20.8106 42.1541 20.9749C42.3185 21.1393 42.4108 21.3622 42.4108 21.5946C42.4108 21.8271 42.3185 22.05 42.1541 22.2143C41.9898 22.3787 41.7669 22.471 41.5345 22.471ZM41.5345 26.9005H35.9901C35.7577 26.9005 35.5347 26.8082 35.3704 26.6438C35.206 26.4795 35.1137 26.2566 35.1137 26.0241C35.1137 25.7917 35.206 25.5688 35.3704 25.4045C35.5347 25.2401 35.7577 25.1478 35.9901 25.1478H41.5345C41.7669 25.1478 41.9898 25.2401 42.1541 25.4045C42.3185 25.5688 42.4108 25.7917 42.4108 26.0241C42.4108 26.2566 42.3185 26.4795 42.1541 26.6438C41.9898 26.8082 41.7669 26.9005 41.5345 26.9005ZM41.5345 31.3301H35.9901C35.7577 31.3301 35.5347 31.2378 35.3704 31.0734C35.206 30.9091 35.1137 30.6862 35.1137 30.4538C35.1137 30.2213 35.206 29.9984 35.3704 29.8341C35.5347 29.6697 35.7577 29.5774 35.9901 29.5774H41.5345C41.7669 29.5774 41.9898 29.6697 42.1541 29.8341C42.3185 29.9984 42.4108 30.2213 42.4108 30.4538C42.4108 30.6862 42.3185 30.9091 42.1541 31.0734C41.9898 31.2378 41.7669 31.3301 41.5345 31.3301ZM53.7321 32.4374H47.0789C46.8465 32.4374 46.6236 32.3451 46.4592 32.1807C46.2949 32.0164 46.2026 31.7935 46.2026 31.5611C46.2026 31.3286 46.2949 31.1057 46.4592 30.9414C46.6236 30.777 46.8465 30.6847 47.0789 30.6847H53.7321C53.9646 30.6847 54.1875 30.777 54.3518 30.9414C54.5162 31.1057 54.6085 31.3286 54.6085 31.5611C54.6085 31.7935 54.5162 32.0164 54.3518 32.1807C54.1875 32.3451 53.9646 32.4374 53.7321 32.4374ZM53.7321 36.867H47.0789C46.8465 36.867 46.6236 36.7747 46.4592 36.6104C46.2949 36.446 46.2026 36.2231 46.2026 35.9907C46.2026 35.7582 46.2949 35.5353 46.4592 35.371C46.6236 35.2066 46.8465 35.1143 47.0789 35.1143H53.7321C53.9646 35.1143 54.1875 35.2066 54.3518 35.371C54.5162 35.5353 54.6085 35.7582 54.6085 35.9907C54.6085 36.2231 54.5162 36.446 54.3518 36.6104C54.1875 36.7747 53.9646 36.867 53.7321 36.867ZM53.7321 41.2966H47.0789C46.8465 41.2966 46.6236 41.2042 46.4592 41.0399C46.2949 40.8755 46.2026 40.6526 46.2026 40.4202C46.2026 40.1878 46.2949 39.9649 46.4592 39.8005C46.6236 39.6361 46.8465 39.5438 47.0789 39.5438H53.7321C53.9646 39.5438 54.1875 39.6361 54.3518 39.8005C54.5162 39.9649 54.6085 40.1878 54.6085 40.4202C54.6085 40.6526 54.5162 40.8755 54.3518 41.0399C54.1875 41.2042 53.9646 41.2966 53.7321 41.2966Z" fill="white"/>
<path fill-rule="evenodd" clip-rule="evenodd" d="M22.2917 25.9972C21.9174 25.8472 21.5432 25.6972 21.1285 25.6998C20.7503 25.7016 20.6656 25.7359 20.3533 26.0223C20.0306 26.3185 19.7082 26.6151 19.3859 26.9118C19.155 27.1244 18.924 27.3369 18.6929 27.5493C18.1992 28.0031 17.7059 28.4565 17.2115 28.9092C17.0921 29.0188 16.9979 29.1382 17 29.3126C17.0046 29.7279 17.3803 30.209 17.7899 30.2906C18.3144 30.3953 18.8113 30.3133 19.2503 29.9943C19.6782 29.6831 20.1012 29.3648 20.5185 29.0399C20.897 28.7454 21.3147 28.654 21.7815 28.7433C22.1614 28.8158 22.4425 29.0465 22.7037 29.3084C22.9394 29.5449 23.1754 29.7812 23.4114 30.0174L23.4115 30.0175L23.4116 30.0176L23.4117 30.0177L23.4118 30.0178C24.1982 30.8051 24.9846 31.5923 25.7604 32.3897C26.0489 32.6866 26.267 32.5956 26.5009 32.4079C26.5815 32.3433 26.661 32.2774 26.7404 32.2114C26.8759 32.0988 27.0115 31.9862 27.1525 31.8809C27.7156 31.4609 28.2804 31.043 28.8453 30.6252L28.8455 30.625L28.8458 30.6248L28.846 30.6246L28.8463 30.6244C29.1975 30.3646 29.5486 30.1048 29.8993 29.8445C29.9824 29.7828 30.16 29.6741 30.3818 29.5383L30.3818 29.5383L30.3819 29.5382L30.382 29.5382C31.1228 29.0846 32.3565 28.3293 32.21 28.0183C31.9134 27.3887 31.9365 26.2027 31.9596 25.017C31.9826 23.8322 32.0057 22.6476 31.71 22.0181C31.6133 21.8122 29.7287 23.4105 28.5697 24.3934L28.5696 24.3935L28.5696 24.3935C28.1129 24.7808 27.7689 25.0726 27.6914 25.1207C27.5941 25.181 27.497 25.2417 27.3998 25.3023L27.3997 25.3023L27.3997 25.3023L27.3997 25.3024L27.3996 25.3024C26.965 25.5735 26.5303 25.8447 26.0839 26.0951C25.5958 26.3686 25.0822 26.5727 24.4992 26.5451C23.7636 26.51 23.0728 26.3077 22.3956 26.0388L22.2917 25.9972ZM18.7744 26.5555L19.32 26.041C19.261 26.0208 19.2074 25.999 19.1575 25.9785L19.1575 25.9785C19.0572 25.9375 18.9714 25.9024 18.8844 25.8992C18.8255 25.8969 18.7663 25.8942 18.7071 25.8914L18.7069 25.8914C18.3929 25.8769 18.0755 25.8623 17.771 25.9135C17.1439 26.0193 16.5182 26.1576 15.9093 26.3407C15.0112 26.6107 14.1408 26.6205 13.3075 26.1681C12.8063 25.896 12.3205 25.5952 11.8351 25.2946L11.8347 25.2944C11.743 25.2376 11.6514 25.1808 11.5596 25.1243C11.5079 25.0924 11.4042 25.0237 11.2651 24.9316L11.2651 24.9316L11.2651 24.9316C10.4959 24.4222 8.64323 23.1953 8.50001 23.4999C7.90058 24.7751 8.50007 28 9.06982 29.1457C8.94307 29.4143 8.98439 29.5852 9.22913 29.7648C9.48071 29.9493 9.73266 30.1333 9.98461 30.3172C10.3761 30.6031 10.7676 30.8889 11.1577 31.1769C11.429 31.3773 11.6977 31.5814 11.9689 31.7873C12.0942 31.8825 12.2201 31.9781 12.3471 32.074C12.3649 32.0573 12.3818 32.0418 12.398 32.027L12.3982 32.0269L12.3983 32.0267L12.3984 32.0267L12.3984 32.0267C12.4275 32.0001 12.4544 31.9754 12.4801 31.9497C12.6048 31.8253 12.7293 31.7007 12.8538 31.5761L12.8539 31.5759L12.8541 31.5757L12.8542 31.5756L12.8544 31.5754C13.072 31.3576 13.2896 31.1399 13.5081 30.9231C13.9545 30.4798 14.6793 30.4612 15.1559 30.8744C15.4402 31.1209 15.5753 31.4353 15.5897 31.8061C16.3838 31.6468 16.993 32.0775 17.1716 32.8156C17.9527 32.5754 18.7423 33.0365 18.8263 33.9343C18.8779 33.932 18.9295 33.9281 18.9812 33.9242C19.0915 33.9159 19.2017 33.9077 19.3109 33.9144C19.9926 33.9557 20.4842 34.5723 20.4292 35.2425C20.3967 35.636 20.1729 35.9168 19.9044 36.1784C19.6916 36.3855 19.4833 36.5973 19.271 36.8132L19.2708 36.8134L19.2706 36.8136L19.2705 36.8137C19.1801 36.9056 19.089 36.9982 18.9965 37.0916C19.2948 37.2453 19.5861 37.2572 19.8802 37.1378C20.2857 36.9732 20.4842 36.6532 20.5301 36.2229C20.9149 36.3941 21.2846 36.3948 21.6298 36.1539C21.9712 35.9158 22.1015 35.5726 22.0647 35.1483C22.459 35.4091 22.8494 35.4679 23.2471 35.232C23.654 34.9911 23.8056 34.6157 23.765 34.1539C23.7707 34.1544 23.7759 34.1547 23.7807 34.1549C23.7899 34.1553 23.7975 34.1556 23.8042 34.1584C24.3301 34.3856 24.8399 34.2536 25.1455 33.8107C25.4295 33.3993 25.3675 32.8562 24.9785 32.4609C24.6167 32.0935 24.2515 31.7295 23.8864 31.3655L23.8862 31.3654L23.8861 31.3653L23.886 31.3652L23.8859 31.3651L23.8858 31.365L23.8858 31.365L23.8858 31.365L23.8858 31.3649C23.7305 31.2102 23.5753 31.0556 23.4204 30.9007L22.0097 29.4899C21.7345 29.2143 21.4068 29.1097 21.0224 29.1842C20.7782 29.2315 20.6004 29.3859 20.421 29.5417L20.421 29.5417L20.421 29.5417L20.421 29.5417L20.4173 29.5449C19.9632 29.9395 19.4758 30.2861 18.9398 30.5614C17.9286 31.0806 17.0081 30.8614 16.4069 29.9605C16.1156 29.5239 16.1632 29.026 16.542 28.6625C16.859 28.3583 17.1791 28.0576 17.4992 27.757C17.6338 27.6305 17.7683 27.5041 17.9027 27.3775L18.7744 26.5555ZM19.9587 35.1406C19.9667 35.3675 19.8652 35.5453 19.7125 35.6991L19.4797 35.9332L19.4795 35.9334L19.4794 35.9335L19.4793 35.9336C19.13 36.2849 18.7808 36.6362 18.4282 36.9844C18.1187 37.2905 17.6411 37.2929 17.3449 36.9981C17.0428 36.697 17.0389 36.2309 17.347 35.9176C17.7847 35.4725 18.2269 35.0317 18.6712 34.5933C18.9083 34.3594 19.2223 34.3016 19.5235 34.4438C19.8127 34.5803 19.9531 34.8212 19.9587 35.1406ZM12.4976 32.597C12.3488 32.7448 12.2795 32.9219 12.2788 33.1849C12.276 33.4647 12.4451 33.6923 12.7346 33.8306C13.0046 33.9598 13.3449 33.8845 13.568 33.6621C14.0056 33.2262 14.4429 32.7896 14.8785 32.3516C15.2003 32.028 15.2013 31.5795 14.8845 31.2654C14.5799 30.9632 14.1271 30.9706 13.8089 31.2871C13.5958 31.499 13.3835 31.7116 13.1711 31.9243L13.1711 31.9243L13.1711 31.9243C12.9469 32.1488 12.7227 32.3733 12.4976 32.597ZM13.859 34.3205C13.8471 34.1157 13.9304 33.9343 14.0795 33.7837C14.5106 33.3492 14.9419 32.9147 15.3782 32.4857C15.7021 32.1671 16.1719 32.1629 16.4696 32.4658C16.7857 32.7872 16.7745 33.2305 16.4395 33.567C16.0074 34.0005 15.5753 34.4339 15.1408 34.865C14.9104 35.0933 14.6331 35.1419 14.3369 35.0309C14.0221 34.9129 13.8614 34.6626 13.859 34.3205ZM15.7426 34.7539C15.5889 34.9083 15.4971 35.0907 15.5059 35.3166C15.5139 35.6317 15.6673 35.8593 15.9463 35.9909C16.2359 36.1271 16.5255 36.0932 16.7562 35.8719C17.2271 35.4202 17.6907 34.9601 18.1399 34.4867C18.4393 34.1712 18.4109 33.702 18.1084 33.4251C17.7996 33.1421 17.3493 33.152 17.0412 33.4559C16.6392 33.8527 16.2408 34.2531 15.8424 34.6536C15.8091 34.687 15.7758 34.7204 15.7426 34.7539Z" fill="white"/>
</svg>
