<svg width="34" height="34" viewBox="0 0 34 34" fill="none" xmlns="http://www.w3.org/2000/svg">
<path d="M21.6898 8.836C22.6052 8.836 23.3499 8.09126 23.3499 7.17585C23.3499 6.26044 22.6052 5.51562 21.6898 5.51562C20.7744 5.51562 20.0296 6.26044 20.0296 7.17585C20.0296 7.54971 20.1539 7.89503 20.3633 8.17287L17.6356 11.9847C17.4688 11.9298 17.2943 11.9018 17.1187 11.9018C16.6825 11.9018 16.2852 12.0712 15.9887 12.3474L14.1705 11.3157C14.1953 11.201 14.2078 11.0839 14.2078 10.9666C14.2078 10.0512 13.463 9.30643 12.5476 9.30643C11.6322 9.30643 10.8875 10.0512 10.8875 10.9666C10.8875 11.0863 10.9005 11.2031 10.9247 11.3157L9.1066 12.3474C8.81003 12.0712 8.41279 11.9019 7.97656 11.9019C7.06115 11.9019 6.31641 12.6467 6.31641 13.5621C6.31641 14.4775 7.06115 15.2224 7.97656 15.2224C8.89197 15.2224 9.63672 14.4775 9.63672 13.5621C9.63669 13.4448 9.62421 13.3278 9.59947 13.213L11.4176 12.1814C11.7142 12.4575 12.1114 12.6269 12.5476 12.6269C12.9839 12.6269 13.381 12.4575 13.6777 12.1814L15.4958 13.2131C15.4711 13.3278 15.4586 13.4448 15.4586 13.5622C15.4586 14.4776 16.2033 15.2224 17.1187 15.2224C18.0342 15.2224 18.7789 14.4776 18.7789 13.5622C18.7793 13.2023 18.6621 12.8522 18.4452 12.565L21.1729 8.75326C21.3397 8.80809 21.5142 8.83602 21.6898 8.836ZM21.6898 6.51172C22.0559 6.51172 22.3538 6.80962 22.3538 7.17585C22.3538 7.54201 22.0559 7.83991 21.6898 7.83991C21.3236 7.83991 21.0257 7.54201 21.0257 7.17585C21.0257 6.80962 21.3236 6.51172 21.6898 6.51172ZM7.97636 14.2261C7.6102 14.2261 7.3123 13.9282 7.3123 13.562C7.3123 13.1958 7.6102 12.8979 7.97636 12.8979C8.34253 12.8979 8.64043 13.1958 8.64043 13.562C8.64043 13.9282 8.34253 14.2261 7.97636 14.2261ZM12.5475 11.6306C12.1813 11.6306 11.8834 11.3327 11.8834 10.9665C11.8834 10.6004 12.1813 10.3025 12.5475 10.3025C12.9137 10.3025 13.2116 10.6004 13.2116 10.9665C13.2116 11.3327 12.9137 11.6306 12.5475 11.6306ZM17.1186 14.2261C16.7525 14.2261 16.4546 13.9282 16.4546 13.562C16.4546 13.1958 16.7525 12.8979 17.1186 12.8979C17.4849 12.8979 17.7828 13.1958 17.7828 13.562C17.7828 13.9282 17.4848 14.2261 17.1186 14.2261Z" fill="#00EAFF" stroke="#00EAFF" stroke-width="0.4"/>
<path d="M27.8107 25.0329H1.40881C1.29939 25.0328 1.19448 24.9892 1.11711 24.9119C1.03974 24.8345 0.996217 24.7296 0.996094 24.6202V4.07282C0.996217 3.9634 1.03974 3.85849 1.11711 3.78112C1.19448 3.70375 1.29939 3.66022 1.40881 3.6601H3.75667C4.03172 3.6601 4.25471 3.43718 4.25471 3.16205C4.25471 2.88693 4.03172 2.66401 3.75667 2.66401H1.40881C0.631988 2.66401 0 3.296 0 4.07282V24.6202C0 25.397 0.631988 26.029 1.40881 26.029H4.84288V27.1251C4.84288 27.7495 5.35088 28.2575 5.9753 28.2575H10.9607L8.61389 32.8394C8.55512 32.9568 8.54508 33.0927 8.58596 33.2174C8.62685 33.3422 8.71534 33.4458 8.8322 33.5056C8.94905 33.5655 9.08481 33.5768 9.20995 33.537C9.33509 33.4973 9.43948 33.4098 9.50041 33.2935L12.0798 28.2575H17.5864L20.1658 33.2935C20.1956 33.3517 20.2366 33.4035 20.2864 33.4459C20.3362 33.4883 20.3939 33.5204 20.4561 33.5405C20.5184 33.5606 20.584 33.5682 20.6492 33.5629C20.7144 33.5577 20.7779 33.5396 20.8361 33.5098C20.8943 33.48 20.9461 33.439 20.9885 33.3891C21.0308 33.3393 21.063 33.2816 21.083 33.2194C21.1031 33.1571 21.1107 33.0915 21.1055 33.0263C21.1002 32.9611 21.0821 32.8976 21.0523 32.8394L18.7055 28.2575H23.6909C24.3153 28.2575 24.8233 27.7496 24.8233 27.1251V26.029H27.8107C28.0857 26.029 28.3087 25.8061 28.3087 25.5309C28.3087 25.2558 28.0857 25.0329 27.8107 25.0329ZM23.8272 27.1251C23.8272 27.1612 23.8128 27.1959 23.7873 27.2214C23.7617 27.247 23.727 27.2614 23.6909 27.2614H5.9753C5.93915 27.2614 5.9045 27.247 5.87894 27.2214C5.85338 27.1959 5.839 27.1612 5.83897 27.1251V26.029H23.8272V27.1251ZM5.74886 3.6601H28.2573C28.3667 3.66022 28.4716 3.70375 28.549 3.78112C28.6264 3.85849 28.6699 3.9634 28.67 4.07282V8.80831C28.67 9.08343 28.893 9.30636 29.1681 9.30636C29.4431 9.30636 29.6661 9.08343 29.6661 8.80831V4.07282C29.6661 3.296 29.0341 2.66401 28.2573 2.66401H17.5973V1.68505C17.5973 0.996082 17.0368 0.435547 16.3478 0.435547H13.3184C12.6295 0.435547 12.0689 0.996082 12.0689 1.68505V2.66401H5.74886C5.4738 2.66401 5.25081 2.88693 5.25081 3.16205C5.25081 3.43718 5.4738 3.6601 5.74886 3.6601ZM13.065 1.68505C13.065 1.61785 13.0918 1.55343 13.1393 1.50592C13.1868 1.45841 13.2512 1.43169 13.3184 1.43164H16.3478C16.4149 1.43171 16.4794 1.45843 16.5269 1.50594C16.5744 1.55344 16.6011 1.61785 16.6012 1.68505V2.66401H13.065V1.68505H13.065Z" fill="#00EAFF" stroke="#00EAFF" stroke-width="0.4"/>
<path d="M6.96631 17.7695C6.83422 17.7695 6.70754 17.8219 6.61414 17.9153C6.52073 18.0087 6.46826 18.1354 6.46826 18.2675V22.6684C6.46826 22.8005 6.52073 22.9271 6.61414 23.0205C6.70754 23.114 6.83422 23.1664 6.96631 23.1664H8.98685C9.11894 23.1664 9.24562 23.114 9.33902 23.0205C9.43243 22.9271 9.4849 22.8005 9.4849 22.6684V18.2675C9.4849 18.1354 9.43243 18.0087 9.33902 17.9153C9.24562 17.8219 9.11894 17.7695 8.98685 17.7695H6.96631ZM8.4888 22.1704H7.46436V18.7656H8.4888V22.1704ZM11.5374 15.2242C11.4053 15.2242 11.2786 15.2767 11.1852 15.3701C11.0918 15.4635 11.0393 15.5902 11.0393 15.7223V22.6684C11.0393 22.8005 11.0918 22.9272 11.1852 23.0206C11.2786 23.114 11.4053 23.1665 11.5374 23.1665H13.5579C13.69 23.1665 13.8167 23.114 13.9101 23.0206C14.0035 22.9272 14.056 22.8005 14.056 22.6684V15.7223C14.056 15.5902 14.0035 15.4635 13.9101 15.3701C13.8167 15.2767 13.69 15.2242 13.5579 15.2242H11.5374ZM13.0599 22.1704H12.0355V16.2203H13.0599V22.1704ZM16.1085 17.7695C15.9764 17.7695 15.8498 17.8219 15.7564 17.9153C15.6629 18.0087 15.6105 18.1354 15.6105 18.2675V22.6684C15.6105 22.8005 15.6629 22.9271 15.7564 23.0205C15.8498 23.114 15.9764 23.1664 16.1085 23.1664H18.1291C18.2612 23.1664 18.3878 23.114 18.4812 23.0205C18.5746 22.9271 18.6271 22.8005 18.6271 22.6684V18.2675C18.6271 18.1354 18.5746 18.0087 18.4812 17.9153C18.3878 17.8219 18.2612 17.7695 18.1291 17.7695H16.1085ZM17.631 22.1704H16.6066V18.7656H17.631V22.1704ZM20.6797 20.7083C20.5476 20.7083 20.4209 20.7608 20.3275 20.8542C20.2341 20.9476 20.1816 21.0743 20.1816 21.2064V22.6684C20.1816 22.8005 20.2341 22.9272 20.3275 23.0206C20.4209 23.114 20.5476 23.1665 20.6797 23.1665H22.7002C22.9753 23.1665 23.1983 22.9436 23.1983 22.6684C23.1983 22.3933 22.9753 22.1704 22.7002 22.1704H21.1777V21.2064C21.1777 21.0743 21.1252 20.9476 21.0318 20.8542C20.9384 20.7608 20.8118 20.7083 20.6797 20.7083ZM33.7462 25.502L30.8889 20.553C31.6128 19.7814 32.1399 18.8387 32.4215 17.7878C32.8715 16.1084 32.6406 14.3541 31.7712 12.8483C29.9765 9.73961 25.9874 8.67093 22.8789 10.4656C19.7704 12.2602 18.7016 16.2493 20.4963 19.3578C21.3656 20.8637 22.7694 21.9408 24.4489 22.3909C25.0017 22.5395 25.5717 22.6151 26.1442 22.6154C26.6384 22.6154 27.1298 22.5586 27.6103 22.4461L30.4669 27.3952C30.8171 28.002 31.4547 28.3415 32.1096 28.3415C32.4306 28.3415 32.7557 28.2598 33.0531 28.0883C33.6373 27.7511 34.0002 27.1224 34.0002 26.4476C34.0002 26.117 33.9124 25.7901 33.7462 25.502ZM24.7067 21.4287C23.2842 21.0475 22.0952 20.1352 21.3588 18.8598C19.8388 16.2269 20.7441 12.8483 23.3769 11.3282C24.243 10.8281 25.1895 10.5907 26.1244 10.5907C28.0312 10.5907 29.8885 11.5797 30.9085 13.3463C31.6448 14.6217 31.8404 16.1075 31.4593 17.5301C31.0781 18.9526 30.1657 20.1415 28.8903 20.8779C27.615 21.6142 26.1292 21.8097 24.7067 21.4287ZM32.5553 27.2255C32.1268 27.4729 31.5769 27.3256 31.3297 26.8973L28.5813 22.1357C28.859 22.0225 29.1287 21.8904 29.3885 21.7405C29.6482 21.5902 29.8974 21.4224 30.1343 21.2381L32.8835 25.9999C32.9622 26.136 33.0037 26.2904 33.0041 26.4477C33.0039 26.6053 32.9623 26.76 32.8836 26.8965C32.8048 27.033 32.6916 27.1465 32.5553 27.2255Z" fill="#00EAFF" stroke="#00EAFF" stroke-width="0.4"/>
<path d="M30.6494 17.505C31.001 16.3724 30.9173 15.1598 30.4136 14.0907C30.3861 14.0308 30.3471 13.977 30.2987 13.9323C30.2504 13.8876 30.1936 13.853 30.1318 13.8304C30.0699 13.8078 30.0042 13.7977 29.9384 13.8006C29.8727 13.8036 29.8081 13.8196 29.7486 13.8476C29.689 13.8757 29.6356 13.9153 29.5914 13.9641C29.5473 14.0129 29.5132 14.07 29.4913 14.1321C29.4693 14.1942 29.4599 14.26 29.4635 14.3257C29.4672 14.3915 29.4838 14.4559 29.5125 14.5151C29.9098 15.3585 29.9757 16.3153 29.6981 17.2096C29.4189 18.1087 28.8158 18.8633 27.9999 19.3344C27.1365 19.8329 26.1305 19.9652 25.1675 19.7072C24.2045 19.4492 23.3995 18.8315 22.9011 17.9681C21.872 16.1857 22.4849 13.8984 24.2673 12.8693C24.903 12.5013 25.6332 12.3292 26.3663 12.3748C27.0994 12.4204 27.8027 12.6815 28.3879 13.1254C28.4401 13.1649 28.4995 13.1937 28.5628 13.2102C28.626 13.2268 28.692 13.2306 28.7568 13.2217C28.8215 13.2127 28.8839 13.191 28.9403 13.158C28.9968 13.1249 29.0461 13.081 29.0856 13.0288C29.1653 12.9235 29.1998 12.7908 29.1817 12.66C29.1636 12.5291 29.0942 12.4108 28.9889 12.3312C28.2476 11.7688 27.3567 11.4379 26.4281 11.3802C25.4994 11.3225 24.5744 11.5404 23.7692 12.0066C22.6754 12.6381 21.8929 13.6579 21.566 14.8779C21.2391 16.0979 21.4069 17.3723 22.0384 18.4661C22.6699 19.56 23.6897 20.3424 24.9097 20.6694C25.3113 20.7774 25.7254 20.8323 26.1412 20.8325C26.9606 20.8325 27.7693 20.6177 28.4979 20.197C29.5316 19.6002 30.2957 18.6443 30.6494 17.505Z" fill="#00EAFF" stroke="#00EAFF" stroke-width="0.4"/>
</svg>
