<svg width="34" height="34" viewBox="0 0 34 34" fill="none" xmlns="http://www.w3.org/2000/svg">
<g clip-path="url(#clip0_96_973)">
<path d="M33.8615 14.3008L28.1708 6.90843C28.0692 6.77652 27.922 6.68739 27.758 6.65857C27.594 6.62976 27.4252 6.66334 27.2847 6.75271L23.6106 9.08941H18.8187C18.7567 9.08941 18.6949 9.10263 18.6353 9.11996L14.9199 10.1895L11.0647 9.13504L7.31874 6.75271C7.18052 6.66471 7.01472 6.63071 6.85302 6.65722C6.69132 6.68373 6.54506 6.76888 6.44218 6.89641L0.147926 14.693C-0.0783205 14.9731 -0.0409338 15.3822 0.23193 15.6169L3.53099 18.4561L6.49072 22.4446C5.62511 23.3668 5.64198 24.8213 6.54258 25.7221C6.94182 26.121 7.44949 26.3465 7.97165 26.3989C7.95333 26.5181 7.94414 26.6386 7.94415 26.7592C7.94415 27.3885 8.18926 27.9801 8.63411 28.4251C9.0793 28.8702 9.67098 29.1153 10.3002 29.1153C10.3089 29.1153 10.3171 29.1148 10.3255 29.1145C10.3251 29.1306 10.3244 29.1464 10.3244 29.1625C10.3244 29.7918 10.5695 30.3835 11.0144 30.8286C11.4595 31.2736 12.0512 31.5186 12.6805 31.5186C12.8037 31.5184 12.9267 31.5088 13.0484 31.4898C13.1006 32.0322 13.3402 32.5395 13.7259 32.9243C14.185 33.3837 14.7884 33.6133 15.3917 33.6133C15.9951 33.6133 16.5985 33.3837 17.0579 32.9243L17.4182 32.564L17.5694 32.6859C18.025 33.1271 18.6164 33.3477 19.2078 33.3477C19.8111 33.3477 20.4145 33.1181 20.8736 32.6587C21.3424 32.19 21.572 31.5713 21.5623 30.9557C22.1777 30.965 22.7966 30.7358 23.2653 30.2673C23.7335 29.7988 23.9631 29.1807 23.954 28.5654C24.595 28.5755 25.2031 28.3293 25.6567 27.8756C26.1255 27.4069 26.355 26.7882 26.3454 26.1727C26.9612 26.182 27.5796 25.9527 28.0484 25.484C28.8484 24.684 28.9514 23.4474 28.3581 22.5346L30.5192 18.0086L33.7682 15.2128C34.0366 14.9817 34.0776 14.5811 33.8615 14.3007L33.8615 14.3008ZM7.10544 8.19738L9.79908 9.91013L3.93946 17.0488L1.59133 15.0279L7.10544 8.19738ZM7.48549 23.3328L8.29843 22.5198C8.46799 22.3502 8.69188 22.2457 8.93082 22.2246C8.93653 22.2241 8.9425 22.2241 8.94822 22.2238C8.9773 22.2215 9.00632 22.2199 9.03561 22.2202C9.31425 22.2241 9.5731 22.338 9.76508 22.5405C10.1417 22.9387 10.1215 23.5893 9.71992 23.9908L8.93161 24.7792C8.53291 25.1779 7.88419 25.1779 7.48549 24.7792C7.08678 24.3803 7.08678 23.7315 7.48549 23.3328V23.3328ZM9.57702 27.4821C9.38377 27.2891 9.27739 27.0323 9.27739 26.7592C9.27739 26.4861 9.38377 26.2293 9.57702 26.036L11.1534 24.4595C11.4553 24.1577 11.93 24.0749 12.316 24.2588C12.7139 24.4485 12.9378 24.8804 12.8794 25.3149C12.8477 25.5479 12.7408 25.7642 12.5749 25.9309L11.0234 27.4822C10.8302 27.6754 10.5734 27.7817 10.3002 27.7817C10.0271 27.7817 9.77026 27.6754 9.57702 27.4821ZM11.9573 29.8855C11.862 29.7908 11.7864 29.6781 11.735 29.554C11.6836 29.4299 11.6573 29.2968 11.6577 29.1625C11.6573 29.0281 11.6836 28.895 11.735 28.7709C11.7865 28.6468 11.862 28.5341 11.9573 28.4393L13.5334 26.8629C13.8563 26.5402 14.3743 26.4707 14.7697 26.7008C15.1308 26.9109 15.3198 27.3234 15.2579 27.7342C15.2232 27.9614 15.1171 28.1716 14.9549 28.3343L13.4036 29.8855C13.2104 30.0787 12.9536 30.1851 12.6804 30.1851C12.4073 30.1851 12.1505 30.0787 11.9573 29.8855ZM14.6685 31.9814C14.2698 31.5827 14.2698 30.934 14.6685 30.5352L15.4815 29.7223C15.5065 29.6973 15.5327 29.6736 15.56 29.6512C15.6913 29.5445 15.8472 29.4721 16.0135 29.4406L16.0251 29.439C16.0537 29.4338 16.0828 29.4297 16.1118 29.4271C16.1235 29.4261 16.1352 29.4261 16.1471 29.4253C16.171 29.4239 16.1945 29.4224 16.2186 29.4227C16.3727 29.4244 16.5244 29.4611 16.6622 29.53C16.7999 29.5989 16.9203 29.6983 17.014 29.8206C17.3206 30.2213 17.2793 30.8167 16.8988 31.1975L16.1146 31.9816C15.7159 32.3803 15.0672 32.3801 14.6685 31.9814ZM27.1054 24.541C26.7067 24.94 26.0579 24.9397 25.6592 24.541C25.6448 24.5267 25.6297 24.5131 25.6139 24.5003L21.327 20.1684C21.0679 19.9067 20.6458 19.9046 20.384 20.1638C20.1224 20.4226 20.1203 20.8446 20.3792 21.1064L24.7125 25.4848L24.714 25.4864C25.1127 25.8851 25.1127 26.5341 24.714 26.9328C24.6193 27.0281 24.5066 27.1036 24.3824 27.155C24.2583 27.2065 24.1252 27.2328 23.9908 27.2324C23.8564 27.2328 23.7233 27.2065 23.5992 27.1551C23.475 27.1037 23.3623 27.0281 23.2676 26.9328L20.3688 24.0039C20.1099 23.7422 19.6879 23.7401 19.4261 23.9989C19.1644 24.2581 19.1623 24.6801 19.4212 24.9419L22.2756 27.8259C22.2902 27.8441 22.3057 27.8614 22.3223 27.878C22.721 28.2767 22.721 28.9258 22.3223 29.3245C21.9234 29.7232 21.2744 29.7229 20.8756 29.3242L19.2936 27.7255C19.0345 27.4637 18.6124 27.4614 18.3507 27.7205C18.089 27.9794 18.0869 28.4014 18.3458 28.6632L19.8838 30.217C19.8983 30.2352 19.9139 30.2528 19.9307 30.2694C20.3295 30.6681 20.3295 31.317 19.9307 31.7158C19.532 32.1147 18.8833 32.1145 18.4846 31.7158C18.4387 31.6699 18.3847 31.6346 18.3333 31.5952C18.2898 31.562 18.2784 31.5388 18.3001 31.4859C18.3222 31.4323 18.3551 31.3837 18.3772 31.3298C18.4015 31.2696 18.4213 31.2076 18.4405 31.1454C18.543 30.8137 18.5725 30.4638 18.5269 30.1197C18.4387 29.4636 18.0778 28.8717 17.531 28.4972C17.2343 28.2946 16.895 28.163 16.5393 28.1127C16.711 27.3553 16.5049 26.534 15.9684 25.9672C15.5269 25.5009 14.9305 25.2391 14.289 25.2303C14.2656 25.23 14.2422 25.23 14.2187 25.2303C14.233 24.6181 14.0104 24.0098 13.5884 23.5639C13.1467 23.0975 12.5503 22.8358 11.909 22.8269C11.7184 22.8243 11.5259 22.8446 11.3402 22.8874C11.2608 22.3351 10.9825 21.8241 10.561 21.4586C10.1421 21.096 9.6152 20.8947 9.05413 20.8869C8.46345 20.8783 7.88319 21.0962 7.44451 21.4923L4.86742 18.0197L11.0328 10.5085L12.9978 11.0461L10.4315 15.5744C10.1213 16.122 10.0429 16.7575 10.2108 17.364C10.3786 17.9707 10.7724 18.4755 11.32 18.7858C11.3542 18.8052 11.3887 18.8236 11.4237 18.8412C11.4264 18.8426 11.4289 18.8439 11.4317 18.8452C11.5233 18.8907 11.6178 18.9303 11.7145 18.9637C12.1614 19.1186 12.6442 19.1354 13.1098 19.0068C13.7163 18.8389 14.2211 18.4449 14.5313 17.8975L16.199 14.9547L19.1766 15.1659L27.1057 23.0946C27.5041 23.4936 27.5041 24.1423 27.1054 24.541ZM27.3817 21.485L19.9434 14.0471C19.8299 13.9337 19.6793 13.865 19.5192 13.8536L15.8734 13.5949C15.6212 13.5776 15.3707 13.7117 15.2462 13.9314L13.3712 17.2403C13.3053 17.3574 13.2168 17.4602 13.1109 17.5428C13.005 17.6255 12.8837 17.6863 12.7542 17.7218C12.6247 17.7579 12.4894 17.7681 12.3561 17.7516C12.2227 17.7351 12.0939 17.6924 11.9772 17.6258C11.8601 17.5599 11.7573 17.4714 11.6747 17.3655C11.592 17.2595 11.5312 17.1383 11.4958 17.0087C11.4595 16.8793 11.4494 16.744 11.4658 16.6106C11.4823 16.4772 11.5251 16.3484 11.5918 16.2317L14.0947 11.8145L15.1089 11.5226C15.1157 11.5206 15.1222 11.518 15.1289 11.5159L18.9143 10.4228H23.4881L29.198 17.6813L27.3817 21.485ZM30.0714 16.6348L24.791 9.91863L27.4859 8.20475L32.42 14.6137L30.0714 16.6348Z" fill="#00EAFF"/>
<path d="M20.5979 7.83797C20.7686 7.83797 20.9393 7.77289 21.0695 7.64267L25.6235 3.08866C25.8839 2.82822 25.8839 2.40614 25.6235 2.1457C25.3631 1.88525 24.941 1.88532 24.6806 2.1457L20.1266 6.69977C20.0647 6.76168 20.0155 6.83517 19.982 6.91607C19.9485 6.99696 19.9313 7.08366 19.9313 7.17122C19.9313 7.25878 19.9485 7.34548 19.982 7.42637C20.0155 7.50727 20.0647 7.58076 20.1266 7.64267C20.1884 7.70466 20.2619 7.75383 20.3428 7.78735C20.4237 7.82086 20.5104 7.83807 20.5979 7.83797ZM12.9301 7.64267C12.9919 7.70468 13.0654 7.75386 13.1464 7.78737C13.2273 7.82089 13.314 7.83808 13.4016 7.83797C13.5721 7.83797 13.7428 7.77289 13.873 7.64267C13.9349 7.58076 13.984 7.50726 14.0176 7.42636C14.0511 7.34546 14.0683 7.25875 14.0683 7.17119C14.0683 7.08362 14.0511 6.99691 14.0176 6.91601C13.984 6.83511 13.9349 6.76161 13.873 6.6997L9.31897 2.1457C9.05852 1.88532 8.63651 1.88532 8.376 2.1457C8.11549 2.40607 8.11562 2.82822 8.376 3.08866L12.9301 7.64267ZM16.9998 7.83797C17.3679 7.83797 17.6665 7.53941 17.6665 7.17132V3.4025C17.6665 3.03441 17.3679 2.73585 16.9998 2.73585C16.6317 2.73585 16.3331 3.03441 16.3331 3.40257V7.17132C16.3331 7.53941 16.6317 7.83797 16.9998 7.83797ZM16.3845 0.986242C16.4903 1.24277 16.7541 1.41111 17.0325 1.39663C17.3074 1.38229 17.549 1.19662 17.634 0.934844C17.7194 0.671012 17.6265 0.370391 17.4055 0.202317C17.1801 0.0305902 16.8656 0.0210277 16.6298 0.176883C16.3669 0.350668 16.2649 0.696711 16.3845 0.986242Z" fill="#00EAFF"/>
</g>
<defs>
<clipPath id="clip0_96_973">
<rect width="34" height="34" fill="white"/>
</clipPath>
</defs>
</svg>
