<svg width="34" height="34" viewBox="0 0 34 34" fill="none" xmlns="http://www.w3.org/2000/svg">
<g clip-path="url(#clip0_96_916)">
<path d="M34 14.2581H32.7677L30.9311 15.2245C30.7244 15.1104 30.5094 15.0137 30.2775 14.9556L27.9672 14.3775V14.1148C28.9893 13.4015 29.6129 12.2231 29.6129 10.9677V10.0092C29.6129 7.87882 27.9436 6.09601 25.892 6.03383C25.7878 6.03116 25.6853 6.03493 25.5822 6.04L26.1812 4.63771L23.2773 1.73462L21.5655 2.8488C20.9178 2.48373 20.2286 2.19784 19.5127 1.99729L19.0899 0H14.9106L14.4878 1.99784C13.7719 2.19827 13.0827 2.48414 12.4351 2.84928L10.7233 1.7351L7.82171 4.63668L8.41054 6.04C8.38806 6.03898 8.36667 6.03493 8.34419 6.03438C7.29403 6.00388 6.30487 6.38706 5.55352 7.11642C4.80106 7.84536 4.3871 8.82355 4.3871 9.87097V10.9677C4.3871 12.2231 5.0102 13.4009 6.03226 14.1143V14.3775L4.52529 14.7542L1.79377 13.1613H0V24.5246L5.39496 26.3226H6.44567L6.57688 25.8631L8.23061 26.8557C8.25768 27.7549 8.97874 28.4784 9.87714 28.51C9.90867 29.4045 10.6277 30.1236 11.5223 30.1551C11.5538 31.0497 12.2729 31.7688 13.1675 31.8003C13.2001 32.7158 13.9499 33.4516 14.8729 33.4516C15.2156 33.4516 15.5516 33.3447 15.8341 33.1544L16.3199 33.5834C16.6248 33.8519 17.0171 34 17.4234 34H17.5248C18.4374 34 19.1799 33.2623 19.1914 32.3527C20.0941 32.3412 20.8251 31.6102 20.8366 30.7076C21.7398 30.696 22.4713 29.9639 22.4817 29.0607C23.3932 29.0394 24.129 28.2947 24.129 27.3781C24.129 27.323 24.1263 27.2686 24.1207 27.2137L34 22.2745V14.2581ZM28.5161 10.0092V10.9677C28.5161 11.9411 27.9902 12.8504 27.1436 13.3407L26.8694 13.4992L26.8714 15.2346L29.6113 15.919L23.5806 19.0931V17.6159C23.5806 16.8787 23.2829 16.2037 22.7953 15.7048L24.6774 15.2346V13.4979L24.4038 13.3397C23.5576 12.8504 23.0323 11.9411 23.0323 10.9677V9.87097C23.0323 9.12311 23.3279 8.42371 23.8653 7.90294C24.4021 7.38232 25.1144 7.10175 25.8591 7.13061C27.324 7.17455 28.5161 8.46593 28.5161 10.0092ZM17.8268 18.662L15.3444 17.8686C14.2131 17.506 12.9885 17.452 11.8305 17.7085L11.5161 17.7782V17.6158C11.5161 16.8598 12.0289 16.2031 12.7621 16.0194L15.9032 15.2346V13.4979L15.6296 13.3397C14.7834 12.8504 14.2581 11.9411 14.2581 10.9677V9.87097C14.2581 9.12311 14.5537 8.42371 15.0911 7.90294C15.6279 7.38232 16.3448 7.10175 17.0849 7.13061C18.5498 7.17455 19.7419 8.46593 19.7419 10.0092V10.9677C19.7419 11.9411 19.216 12.8504 18.3694 13.3407L18.0952 13.4992L18.0973 15.2346L21.2379 16.0195C21.594 16.1083 21.9101 16.3138 22.1358 16.603C22.3616 16.8923 22.4841 17.2488 22.4839 17.6158V19.6706L22.3484 19.7419H22.0123L18.6408 18.7785C18.3752 18.7033 18.1016 18.6724 17.8268 18.662ZM11.639 8.20757C12.6688 6.2122 14.7417 4.93548 17 4.93548C19.2369 4.93548 21.3009 6.19506 22.3385 8.16343C22.0733 8.69356 21.9353 9.2782 21.9355 9.87097V10.9677C21.9355 12.223 22.5586 13.4009 23.5806 14.1143V14.3775L21.3871 14.9267L19.193 14.3775V14.1148C20.2151 13.4015 20.8387 12.223 20.8387 10.9677V10.0092C20.8387 7.87875 19.1694 6.09601 17.1178 6.03383C16.0682 6.00306 15.0785 6.38652 14.3272 7.11594C13.5753 7.84529 13.1613 8.82348 13.1613 9.87097V10.9677C13.1613 12.223 13.7844 13.4009 14.8065 14.1143V14.3775L12.6129 14.9267L10.4188 14.3775V14.1148C11.4409 13.4015 12.0645 12.223 12.0645 10.9677V10.0092C12.0645 9.36385 11.9092 8.75116 11.639 8.20757ZM9.11694 4.89106L10.869 3.13904L12.411 4.14258L12.7061 3.96162C13.4454 3.50851 14.2444 3.17674 15.0806 2.97678L15.418 2.8959L15.7996 1.09677H18.201L18.5814 2.89535L18.9188 2.97596C19.7551 3.17626 20.5541 3.50803 21.2933 3.96107L21.5884 4.14204L23.1306 3.13849L24.8803 4.88887L24.2583 6.34525C23.835 6.52738 23.4424 6.78362 23.1007 7.11484C23.0783 7.13678 23.0589 7.16036 23.037 7.18284C21.7451 5.12913 19.461 3.83871 17 3.83871C14.5213 3.83871 12.2308 5.14113 10.942 7.21581C10.5972 6.85484 10.1869 6.56241 9.7323 6.35814L9.11694 4.89106ZM7.12903 15.2346V13.4979L6.85539 13.3397C6.00923 12.8504 5.48387 11.9411 5.48387 10.9677V9.87097C5.48387 9.12311 5.77952 8.42371 6.31687 7.90294C6.85374 7.38232 7.56761 7.10175 8.31067 7.13061C9.77562 7.17455 10.9677 8.46593 10.9677 10.0092V10.9677C10.9677 11.9411 10.4418 12.8504 9.5952 13.3407L9.321 13.4992L9.32306 15.2346L11.2047 15.7048C10.7171 16.2036 10.4194 16.8787 10.4194 17.6158V18.022L8.70887 18.4022L8.75329 18.2469L8.77419 17.2334L5.88207 15.5462L7.12903 15.2346ZM1.09677 14.2581H1.49655L5.44048 16.5585L3.45045 24.5183L1.09677 23.7335V14.2581ZM5.57278 25.2258L4.49342 24.8662L6.42669 17.1339L7.67742 17.8632V18.0199L5.61884 25.2258H5.57278ZM9.32258 26.8045C9.32297 26.6416 9.38762 26.4853 9.50252 26.3697L10.4665 25.4057C10.5821 25.2909 10.7383 25.2262 10.9012 25.2258C11.2403 25.2258 11.5161 25.5016 11.5161 25.8406C11.5157 26.0036 11.451 26.1599 11.3361 26.2755L10.3721 27.2394C10.2566 27.3543 10.1004 27.4189 9.93746 27.4194C9.59842 27.4194 9.32265 27.1436 9.32265 26.8045H9.32258ZM10.9677 28.4497C10.9681 28.2867 11.0328 28.1304 11.1477 28.0148L12.1117 27.0509C12.2273 26.936 12.3835 26.8714 12.5464 26.871C12.8855 26.871 13.1612 27.1467 13.1612 27.4858C13.1608 27.6488 13.0962 27.805 12.9813 27.9206L12.0173 28.8846C11.9017 28.9994 11.7455 29.0641 11.5826 29.0645C11.2436 29.0645 10.9678 28.7887 10.9678 28.4497H10.9677ZM12.6129 30.0949C12.6133 29.9319 12.6779 29.7756 12.7928 29.66L13.7568 28.6961C13.8724 28.5812 14.0286 28.5166 14.1916 28.5161C14.5306 28.5161 14.8064 28.7919 14.8064 29.1309C14.806 29.2939 14.7413 29.4502 14.6264 29.5658L13.6624 30.5297C13.5469 30.6446 13.3907 30.7092 13.2278 30.7097C12.8887 30.7097 12.613 30.4339 12.613 30.0949H12.6129ZM14.8729 32.3548C14.5338 32.3548 14.2581 32.0791 14.2581 31.74C14.2584 31.577 14.3231 31.4208 14.438 31.3052L15.402 30.3412C15.5176 30.2264 15.6738 30.1617 15.8367 30.1613C16.1758 30.1613 16.4515 30.4371 16.4515 30.7761C16.4512 30.9391 16.3865 31.0954 16.2716 31.211L15.3076 32.1749C15.192 32.2897 15.0359 32.3544 14.8729 32.3548H14.8729ZM17.5248 32.9032H17.4234C17.2841 32.9034 17.1497 32.8524 17.0455 32.76L16.6353 32.3982L17.0471 31.9864C17.1941 31.8394 17.3083 31.6646 17.3926 31.4768L17.8911 31.8919C17.9556 31.9455 18.0074 32.0127 18.043 32.0886C18.0785 32.1646 18.0969 32.2474 18.0968 32.3313C18.0968 32.6467 17.8403 32.9032 17.5248 32.9032ZM22.4426 27.9677H22.3479C22.2099 27.9677 22.0764 27.9192 21.9706 27.8306L18.9967 25.3525L18.2941 26.1954L21.182 28.6015C21.2463 28.6553 21.298 28.7225 21.3334 28.7984C21.3689 28.8744 21.3872 28.9571 21.3871 29.0409C21.3871 29.3564 21.1306 29.6129 20.8151 29.6129H20.6954C20.5617 29.6127 20.4323 29.5657 20.3297 29.4801L17.351 26.9981L16.6484 27.8411L19.5363 30.2475C19.6008 30.3009 19.6527 30.368 19.6882 30.4438C19.7238 30.5196 19.7421 30.6024 19.7419 30.6861C19.7419 31.0016 19.4854 31.2581 19.17 31.2581C18.9595 31.2581 18.7544 31.1833 18.5929 31.0492L17.369 30.029C17.0993 29.4779 16.5453 29.0937 15.8966 29.0707C15.8649 28.1761 15.146 27.4571 14.2514 27.4255C14.2197 26.531 13.5008 25.8119 12.6063 25.7804C12.574 24.8648 11.8243 24.129 10.9013 24.129C10.4507 24.129 10.0096 24.3116 9.69103 24.6303L8.7271 25.5943C8.66952 25.6518 8.62181 25.7172 8.57335 25.7819L6.88884 24.7711L8.36558 19.6027L12.0677 18.7796C13.0389 18.5624 14.0628 18.6096 15.01 18.9126L15.8178 19.1711L13.0791 20.5404C12.4533 20.854 12.0645 21.4835 12.0645 22.1835V22.2919C12.0645 23.3049 12.8887 24.129 13.9016 24.129C14.2345 24.129 14.562 24.0385 14.8466 23.8669L16.8886 22.6424C17.2988 22.3966 17.8494 22.4504 18.2036 22.769L22.837 26.939C22.8984 26.9945 22.9474 27.0623 22.9811 27.1379C23.0147 27.2135 23.0321 27.2953 23.0323 27.3781C23.0323 27.7035 22.768 27.9677 22.4426 27.9677ZM32.9032 21.5965L23.6645 26.2163C23.6344 26.1844 23.6029 26.1538 23.5702 26.1247L18.9376 21.9547C18.5325 21.5889 18.0058 21.3866 17.46 21.3871C17.0597 21.3872 16.667 21.496 16.3238 21.702L14.281 22.927C14.1665 22.996 14.0353 23.0324 13.9016 23.0323C13.4931 23.0323 13.1613 22.7005 13.1613 22.2919V22.1834C13.1613 21.901 13.3183 21.6476 13.5705 21.5215L16.6294 19.992C17.1529 19.7299 17.7744 19.6712 18.3385 19.8335L21.7847 20.8179L22.6194 20.8387L32.9032 15.4261V21.5965Z" fill="#00EAFF" stroke="#00EAFF" stroke-width="0.5"/>
</g>
<defs>
<clipPath id="clip0_96_916">
<rect width="34" height="34" fill="white"/>
</clipPath>
</defs>
</svg>
