<svg width="34" height="34" viewBox="0 0 34 34" fill="none" xmlns="http://www.w3.org/2000/svg">
<g clip-path="url(#clip0_96_936)">
<path d="M31.6813 29.2521C32.9598 29.2521 34 28.2119 34 26.9333V3.32031C34 1.48949 32.5105 0 30.6797 0H3.32031C1.48949 0 0 1.48949 0 3.32031V26.9333C0 28.2119 1.04019 29.2521 2.31871 29.2521H3.05469V32.6719H0.664062C0.297301 32.6719 0 32.9692 0 33.3359C0 33.7026 0.297301 34 0.664062 34H33.3359C33.7027 34 34 33.7026 34 33.3359C34 32.9692 33.7027 32.6719 33.3359 32.6719H30.9453V29.2521H31.6813ZM1.32812 3.32031C1.32812 2.22182 2.22182 1.32812 3.32031 1.32812H30.6797C31.7782 1.32812 32.6719 2.22182 32.6719 3.32031V4.78125H1.3948C1.37229 4.78125 1.35004 4.78245 1.32812 4.78464V3.32031ZM7.30469 32.6719H4.38281V26.6953H7.30469V32.6719ZM14.7422 32.6719H11.8203V19.3529H14.7422V32.6719ZM22.1797 32.6719H19.2578V24.9688H22.1797V32.6719ZM30.2812 17.0332H26.0312C25.6645 17.0332 25.3672 17.3306 25.3672 17.6973V21.0507C25.3672 21.4174 25.6645 21.7148 26.0312 21.7148C26.398 21.7148 26.6953 21.4174 26.6953 21.0507V18.3613H29.6172V32.6719H26.6953V25.5166C26.6953 25.1499 26.398 24.8525 26.0312 24.8525C25.6645 24.8525 25.3672 25.1499 25.3672 25.5166V32.6719H23.5078V24.3047C23.5078 23.938 23.2105 23.6406 22.8438 23.6406H18.5938C18.227 23.6406 17.9297 23.938 17.9297 24.3047V32.6719H16.0703V18.6888C16.0703 18.3221 15.773 18.0248 15.4062 18.0248H11.1562C10.7895 18.0248 10.4922 18.3221 10.4922 18.6888V32.6719H8.63281V26.0312C8.63281 25.6646 8.33551 25.3672 7.96875 25.3672H3.71875C3.35199 25.3672 3.05469 25.6646 3.05469 26.0312V27.924H2.31871C1.77245 27.924 1.32812 27.4796 1.32812 26.9333V6.10599C1.35004 6.10818 1.37229 6.10938 1.3948 6.10938H32.6719V26.9333C32.6719 27.4796 32.2275 27.924 31.6813 27.924H30.9453V17.6973C30.9453 17.3306 30.648 17.0332 30.2812 17.0332Z" fill="#00EAFF"/>
<path d="M29.75 2.39062H14.7465C14.3797 2.39062 14.0824 2.68799 14.0824 3.05469C14.0824 3.42138 14.3797 3.71875 14.7465 3.71875H29.75C30.1168 3.71875 30.4141 3.42138 30.4141 3.05469C30.4141 2.68799 30.1168 2.39062 29.75 2.39062ZM7.37574 2.5852C7.25223 2.46168 7.0809 2.39062 6.90625 2.39062C6.7316 2.39062 6.56027 2.46161 6.43676 2.5852C6.31324 2.70871 6.24219 2.88004 6.24219 3.05469C6.24219 3.22934 6.31324 3.40066 6.43676 3.52411C6.56027 3.6477 6.7316 3.71875 6.90625 3.71875C7.0809 3.71875 7.25223 3.6477 7.37574 3.52411C7.49926 3.40066 7.57031 3.22934 7.57031 3.05469C7.57031 2.88004 7.49926 2.70871 7.37574 2.5852ZM4.71949 2.5852C4.59598 2.46168 4.42465 2.39062 4.25 2.39062C4.07535 2.39062 3.90402 2.46161 3.78051 2.5852C3.65699 2.70871 3.58594 2.88004 3.58594 3.05469C3.58594 3.22934 3.65699 3.40066 3.78051 3.52411C3.90402 3.6477 4.07535 3.71875 4.25 3.71875C4.42465 3.71875 4.59598 3.6477 4.71949 3.52411C4.84301 3.40066 4.91406 3.22934 4.91406 3.05469C4.91406 2.88004 4.84301 2.70871 4.71949 2.5852ZM10.032 2.5852C9.90725 2.46101 9.73852 2.39108 9.5625 2.39062C9.38785 2.39062 9.21652 2.46161 9.09301 2.5852C8.96949 2.70871 8.89844 2.88004 8.89844 3.05469C8.89844 3.22934 8.96949 3.40066 9.09301 3.52411C9.21652 3.6477 9.38785 3.71875 9.5625 3.71875C9.73715 3.71875 9.90848 3.6477 10.032 3.52411C10.1555 3.40066 10.2266 3.22934 10.2266 3.05469C10.2266 2.88004 10.1555 2.70871 10.032 2.5852ZM26.5007 22.948C26.3772 22.8238 26.2059 22.7534 26.0312 22.7534C25.8566 22.7534 25.6853 22.8239 25.5618 22.948C25.4382 23.0715 25.3672 23.2429 25.3672 23.4175C25.3672 23.5921 25.4382 23.7635 25.5618 23.887C25.6853 24.0104 25.8566 24.0816 26.0312 24.0816C26.2059 24.0816 26.3772 24.0105 26.5007 23.887C26.6243 23.7635 26.6953 23.5921 26.6953 23.4175C26.6953 23.2422 26.6243 23.0715 26.5007 22.948ZM28.1562 9.0272C26.838 9.0272 25.7656 10.0996 25.7656 11.4178C25.7652 11.9218 25.925 12.4129 26.2219 12.8202L21.8109 17.2312C21.4578 17.0356 21.0607 16.9331 20.6571 16.9335C20.2927 16.9332 19.9332 17.0167 19.6062 17.1775L15.0004 12.5716C15.196 12.2186 15.2985 11.8215 15.2981 11.4178C15.2981 10.0996 14.2257 9.0272 12.9074 9.0272C11.5892 9.0272 10.5168 10.0996 10.5168 11.4178C10.5168 11.8786 10.6482 12.309 10.8749 12.6744L6.9534 16.5958C6.60035 16.4001 6.20328 16.2977 5.79966 16.2981C4.48143 16.2981 3.40903 17.3705 3.40903 18.6887C3.40903 20.0069 4.48143 21.0793 5.79966 21.0793C7.11789 21.0793 8.19028 20.0069 8.19028 18.6887C8.19028 18.2705 8.08204 17.8772 7.89258 17.5349L11.8609 13.5666C12.1867 13.726 12.5447 13.8087 12.9074 13.8084C13.3256 13.8084 13.7189 13.7001 14.0612 13.5107L18.622 18.0714C18.3891 18.4477 18.266 18.8815 18.2664 19.324C18.2664 20.6423 19.3388 21.7146 20.6571 21.7146C21.9753 21.7146 23.0477 20.6423 23.0477 19.324C23.0477 18.9058 22.9394 18.5125 22.75 18.1702L27.2792 13.641C27.5583 13.7517 27.8559 13.8086 28.1562 13.8084C29.4745 13.8084 30.5469 12.7361 30.5469 11.4178C30.5469 10.0996 29.4745 9.0272 28.1562 9.0272ZM5.79972 19.7513C5.21389 19.7513 4.73722 19.2747 4.73722 18.6888C4.73722 18.103 5.21389 17.6263 5.79972 17.6263C6.38556 17.6263 6.86222 18.103 6.86222 18.6888C6.86222 19.2747 6.38556 19.7513 5.79972 19.7513ZM12.9075 12.4803C12.3217 12.4803 11.845 12.0037 11.845 11.4178C11.845 10.832 12.3217 10.3553 12.9075 10.3553C13.4934 10.3553 13.97 10.832 13.97 11.4178C13.97 12.0037 13.4934 12.4803 12.9075 12.4803ZM20.6571 20.3867C20.0713 20.3867 19.5946 19.91 19.5946 19.3242C19.5946 18.7383 20.0713 18.2617 20.6571 18.2617C21.243 18.2617 21.7196 18.7383 21.7196 19.3242C21.7196 19.91 21.243 20.3867 20.6571 20.3867ZM28.1562 12.4803C27.5704 12.4803 27.0938 12.0037 27.0938 11.4178C27.0938 10.832 27.5704 10.3553 28.1562 10.3553C28.7421 10.3553 29.2188 10.832 29.2188 11.4178C29.2188 12.0037 28.7421 12.4803 28.1562 12.4803ZM9.85004 8.56315C9.72516 8.43916 9.55653 8.36925 9.38055 8.36852C9.20523 8.36852 9.03391 8.43957 8.91039 8.56315C8.78687 8.6866 8.71648 8.85793 8.71648 9.03258C8.71648 9.20723 8.78687 9.37855 8.91039 9.50207C9.03547 9.62616 9.20435 9.69606 9.38055 9.69664C9.55519 9.69664 9.72586 9.62565 9.85004 9.50207C9.97355 9.37855 10.0446 9.20723 10.0446 9.03258C10.0446 8.85793 9.97355 8.6866 9.85004 8.56315ZM6.90625 8.36858H3.71875C3.35199 8.36858 3.05469 8.66595 3.05469 9.03264C3.05469 9.39934 3.35199 9.69671 3.71875 9.69671H6.90625C7.27301 9.69671 7.57031 9.39934 7.57031 9.03264C7.57031 8.66595 7.27301 8.36858 6.90625 8.36858ZM6.90625 11.5561H3.71875C3.35199 11.5561 3.05469 11.8534 3.05469 12.2201C3.05469 12.5868 3.35199 12.8842 3.71875 12.8842H6.90625C7.27301 12.8842 7.57031 12.5868 7.57031 12.2201C7.57031 11.8534 7.27301 11.5561 6.90625 11.5561Z" fill="#00EAFF"/>
</g>
<defs>
<clipPath id="clip0_96_936">
<rect width="34" height="34" fill="white"/>
</clipPath>
</defs>
</svg>
