<svg width="62" height="62" viewBox="0 0 62 62" fill="none" xmlns="http://www.w3.org/2000/svg">
<g clip-path="url(#clip0_824_83)">
<path d="M27 52H19C17.8969 52 17 52.8969 17 54V56C17 57.103 17.8969 58 19 58H27C28.1031 58 29 57.103 29 56V54C29 52.8971 28.103 52 27 52ZM19 56.0001V54.0001H27L27.001 56.0001H19Z" fill="white"/>
<path d="M23 9.99998C23.5523 9.99998 24 9.55227 24 8.99999C24 8.44771 23.5523 8 23 8C22.4477 8 22 8.44771 22 8.99999C22 9.55227 22.4477 9.99998 23 9.99998Z" fill="white"/>
<path d="M59 0H33C31.346 0 30 1.34596 30 2.99998V3.99997H12C9.24309 3.99997 7.00007 6.24299 7.00007 8.99993V18H2.99998C1.34596 18 0 19.3461 0 21V29C0 30.654 1.34596 32 2.99998 32H6.99995V57C6.99995 59.757 9.24296 62 11.9999 62H33.9999C36.7568 62 38.9998 59.757 38.9998 57V52.0001H42.9998V53.764C42.9998 54.997 44.0028 56 45.2358 56C46.0888 56 46.8548 55.5261 47.2358 54.764L48.6178 52.0001H54.9998C56.6538 52.0001 57.9998 50.6541 57.9998 49.0001V41C57.9998 39.346 56.6538 38.0001 54.9998 38.0001H39.0001V30H43V31.764C43 32.997 44.003 34 45.236 34C46.089 34 46.855 33.526 47.236 32.764L48.618 30H59C60.654 30 62 28.6541 62 27V2.99998C62 1.34596 60.654 0 59 0ZM30 12H26.974C27.609 11.1621 28 10.13 28 9.00005V5.99995H30V12ZM20 9.00005V5.99995H25.9999V8.99993C25.9999 10.6539 24.654 11.9999 22.9999 11.9999C21.346 12 20 10.6539 20 9.00005ZM12 5.99995H18V8.99993C18 10.13 18.391 11.1619 19.026 11.9999H9.00005V9.00005C9.00005 7.34603 10.346 5.99995 12 5.99995ZM1.99998 29V21C1.99998 20.449 2.449 20 2.99998 20H24.9999C25.5509 20 25.9999 20.449 25.9999 21V29C25.9999 29.551 25.5509 30 24.9999 30H16.9999V33.764C16.9999 33.985 16.6509 34.0679 16.5529 33.8689L14.618 30H2.99998C2.449 30 1.99998 29.551 1.99998 29ZM37 57C37 58.6541 35.654 60 34 60H12C10.346 60 9.00005 58.6541 9.00005 57V50.0001H30.1841C30.5981 51.1611 31.6981 52.0001 33.0001 52.0001H37.0001V57H37ZM56 41V49.0001C56 49.552 55.551 50.0001 55.0001 50.0001H47.382L45.4471 53.869C45.3501 54.0661 45.0001 53.983 45.0001 53.764V50.0001H33.0001C32.4491 50.0001 32.0001 49.552 32.0001 49.0001V41C32.0001 40.4481 32.4491 40 33.0001 40H55.0001C55.551 40 56 40.448 56 41ZM37 37.9999H33C31.346 37.9999 30 39.3459 30 40.9999V47.9999H9.00005V32H13.3821L14.7641 34.764C15.1451 35.527 15.9121 36 16.7641 36C17.9971 36 19.0001 34.9969 19.0001 33.764V32H25C26.6541 32 28 30.654 28 29V21C28 19.3459 26.6541 18 25 18H9.00005V14H30V27C30 28.6541 31.346 30 33 30H37V37.9999ZM60 27C60 27.551 59.551 28 59 28H47.382L45.4471 31.869C45.3501 32.0639 45.0001 31.9829 45.0001 31.764V28H33.0001C32.4491 28 32.0001 27.551 32.0001 27V2.99998C32.0001 2.449 32.4491 1.99998 33.0001 1.99998H59.0001C59.5511 1.99998 60.0001 2.449 60.0001 2.99998L60 27Z" fill="#00EAFF"/>
<path d="M37 48C38.654 48 40 46.6541 40 45C40 43.346 38.654 42.0001 37 42.0001C35.346 42.0001 34 43.346 34 45C34 46.6541 35.3461 48 37 48ZM37 44C37.551 44 38 44.4481 38 45C38 45.552 37.551 46 37 46C36.449 46 36 45.552 36 45C36 44.4481 36.449 44 37 44ZM42.0001 42.0001H54.0001V44H42.0001V42.0001ZM42.0001 46H54.0001V48H42.0001V46ZM6.99998 22C5.34596 22 4 23.3459 4 25C4 26.654 5.34596 27.9999 6.99998 27.9999C8.654 27.9999 9.99995 26.654 9.99995 25C10.0001 23.3461 8.654 22 6.99998 22ZM6.99998 26.0001C6.449 26.0001 5.99998 25.5511 5.99998 25.0001C5.99998 24.4491 6.449 24.0001 6.99998 24.0001C7.55095 24.0001 7.99997 24.4491 7.99997 25.0001C8.00009 25.5511 7.55107 26.0001 6.99998 26.0001ZM12.0001 22H24.0001V24H12.0001V22ZM12.0001 26.0001H24.0001V28.0001H12.0001V26.0001ZM48.4521 5.39197L48.387 5.27802C47.854 4.47808 46.961 4 46 4C45.039 4 44.1461 4.47796 43.613 5.27705L36.2681 20.22C36.0924 20.5805 36.0007 20.9761 36.0001 21.3771C36.0001 22.8231 37.1771 24.0001 38.6231 24.0001H42.4021C43.171 25.2431 44.5171 26.0001 46.0002 26.0001C47.4832 26.0001 48.8291 25.2431 49.5981 24.0001H53.3771C54.823 24.0001 56.0001 22.8231 56.0001 21.3771C56.0001 20.9781 55.9071 20.5781 55.7311 20.2211L48.4521 5.39197ZM46 24.0001C45.1961 24.0001 44.4801 23.5681 44.0801 22.8801L46 16.48L47.92 22.8801C47.52 23.568 46.804 24.0001 46 24.0001ZM53.3771 22H49.744L46.958 12.7129C46.831 12.29 46.4411 11.9999 46 11.9999C45.559 11.9999 45.1691 12.29 45.0421 12.7129L42.2561 22H38.623C38.4578 21.9999 38.2993 21.9343 38.1825 21.8175C38.0657 21.7006 38 21.5422 38 21.377C38 21.2819 38.022 21.187 38.0629 21.1019L45.308 6.34292C45.6349 5.91098 46.364 5.91098 46.691 6.34292L53.936 21.1019C53.9827 21.1969 54.0044 21.3022 53.9991 21.4079C53.9938 21.5136 53.9617 21.6162 53.9057 21.7061C53.8498 21.7959 53.7719 21.87 53.6794 21.9215C53.587 21.9729 53.4829 21.9999 53.3771 22Z" fill="white"/>
</g>
<defs>
<clipPath id="clip0_824_83">
<rect width="62" height="62" fill="white"/>
</clipPath>
</defs>
</svg>
