<svg xmlns="http://www.w3.org/2000/svg" width="903" height="181" viewBox="0 0 903 181" version="1.1"><path d="M 151.600 2.456 L 150.984 4.913 101.213 5.206 L 51.443 5.500 46.471 8.054 C 43.032 9.821, 40.812 11.849, 39.267 14.637 C 38.016 16.894, 34.139 30.730, 30.454 46.083 C 23.677 74.317, 0 178.519, 0 180.108 C 0 180.629, 181.873 181, 437.481 181 L 874.962 181 875.495 178.750 C 879.357 162.435, 903 57.825, 903 57.050 C 903 56.318, 790.824 56, 532.918 56 L 162.837 56 164.824 52.750 C 166.494 50.020, 179 4.449, 179 1.096 C 179 0.356, 174.653 0, 165.608 0 C 152.222 0, 152.217 0.001, 151.600 2.456 M 610.667 5.667 C 608.305 8.028, 611.149 13.049, 615.618 14.407 C 619.799 15.678, 628 10.656, 628 6.826 C 628 4.516, 623.912 4.356, 620.586 6.536 C 618.478 7.917, 618.182 7.917, 617.652 6.536 C 617.063 5.001, 611.966 4.367, 610.667 5.667 M 159.300 12.354 C 157.251 15.823, 154.654 16, 105.816 16.006 C 75.049 16.009, 56.122 16.394, 53.706 17.065 C 48.913 18.396, 48.077 20.187, 43.466 39 C 41.511 46.975, 39.676 54.288, 39.388 55.250 C 38.568 57.993, 43.436 57.473, 46.409 54.500 C 48.727 52.183, 49.606 52, 58.455 52 C 64.106 52, 68 52.405, 68 52.993 C 68 53.539, 62.644 76.826, 56.098 104.743 C 49.551 132.659, 43.896 156.936, 43.531 158.691 C 42.872 161.859, 44.179 165.752, 46.400 167.235 C 48.032 168.325, 112 168.176, 112 167.082 C 112 166.577, 112.242 165.532, 112.539 164.760 C 112.866 163.907, 112.076 162.900, 110.524 162.193 C 105.240 159.785, 105.211 159.997, 118.367 104.500 L 130.694 52.500 140.349 51.864 C 150.204 51.214, 153.937 49.854, 155.892 46.202 C 156.938 44.247, 165 14.147, 165 12.195 C 165 10.551, 160.287 10.683, 159.300 12.354 M 410.578 17.432 C 404.235 19.778, 401.144 23.674, 398.963 32.074 C 396.297 42.340, 396.415 46.101, 399.492 48.993 C 405.226 54.379, 419.682 51.859, 424.026 44.717 C 426.495 40.657, 429.214 29.195, 428.820 24.505 C 428.244 17.653, 419.328 14.196, 410.578 17.432 M 184.503 19.250 C 184.208 20.488, 182.400 27.938, 180.484 35.807 C 178.568 43.675, 177 50.538, 177 51.057 C 177 51.575, 179.008 52, 181.461 52 C 186.532 52, 185.826 53.382, 190.025 35.250 L 192.167 26 198.536 26 L 204.906 26 205.947 22.250 C 206.520 20.188, 206.991 18.163, 206.994 17.750 C 206.997 17.337, 202.059 17, 196.019 17 C 185.457 17, 185.018 17.086, 184.503 19.250 M 209.502 18.250 C 207.881 22.906, 201.353 51.019, 201.791 51.457 C 202.945 52.611, 211 51.993, 211.006 50.750 C 211.009 50.063, 211.463 47.875, 212.014 45.888 C 212.959 42.488, 213.307 42.242, 217.955 41.692 C 227.566 40.553, 232.954 35.533, 233.779 26.947 C 234.178 22.791, 233.896 21.805, 231.666 19.575 C 229.258 17.167, 228.470 17, 219.514 17 C 212.751 17, 209.809 17.367, 209.502 18.250 M 236 17.978 C 236 18.574, 237.180 23.771, 238.623 29.529 L 241.246 39.996 237.623 45.257 C 235.630 48.150, 234 50.876, 234 51.313 C 234 51.751, 236.130 51.972, 238.734 51.805 L 243.468 51.500 255.179 35 C 261.620 25.925, 266.915 18.163, 266.945 17.750 C 266.975 17.337, 264.753 17, 262.006 17 L 257.013 17 252.756 23.420 L 248.500 29.841 247.500 23.670 L 246.500 17.500 241.250 17.198 C 237.963 17.009, 236 17.300, 236 17.978 M 268.503 18.250 C 268.264 18.938, 266.458 26.025, 264.490 34 C 262.521 41.975, 260.676 49.288, 260.388 50.250 C 259.940 51.749, 260.565 52, 264.736 52 L 269.606 52 271.955 42.250 C 276.185 24.687, 275.503 26, 280.399 26 L 284.705 26 281.875 37.750 C 280.319 44.213, 279.035 50.063, 279.023 50.750 C 279.008 51.567, 280.547 52, 283.461 52 C 287.771 52, 287.957 51.872, 288.930 48.250 C 290.848 41.109, 296 19.104, 296 18.054 C 296 16.436, 269.067 16.627, 268.503 18.250 M 297.124 33.479 C 294.856 42.543, 293 50.418, 293 50.979 C 293 51.541, 295.004 52, 297.453 52 C 302.523 52, 301.803 53.360, 306.045 35.750 L 308.394 26 312.697 26 C 315.064 26, 317 26.251, 317 26.558 C 317 26.866, 315.650 32.464, 314 39 C 312.350 45.536, 311 51.159, 311 51.496 C 311 51.834, 313.137 51.972, 315.750 51.805 L 320.500 51.500 324.068 37 C 326.030 29.025, 327.951 21.262, 328.337 19.750 L 329.038 17 315.143 17 L 301.248 17 297.124 33.479 M 335 29.686 C 330.875 36.640, 326.225 44.505, 324.667 47.165 L 321.835 52 326.819 52 C 331.454 52, 331.947 51.756, 333.867 48.500 C 335.745 45.318, 336.345 45, 340.466 45 C 344.981 45, 345 45.015, 345 48.500 L 345 52 350 52 C 352.750 52, 355 51.555, 355 51.011 C 355 49.074, 351.901 21.460, 351.436 19.250 C 351.034 17.341, 350.320 17.003, 346.731 17.021 L 342.500 17.043 335 29.686 M 373.530 18.250 C 372.496 21.421, 366 49.305, 366 50.572 C 366 51.593, 367.253 52, 370.392 52 L 374.784 52 376.230 46.250 L 377.677 40.500 380.547 46.250 L 383.417 52 389.218 52 L 395.020 52 390.441 42.884 L 385.863 33.767 394.681 25.432 L 403.500 17.098 397.531 17.049 C 391.661 17.001, 391.474 17.086, 386.157 22.250 C 380.333 27.907, 380.526 28.057, 382.608 19.500 C 383.191 17.105, 383.022 17, 378.577 17 C 375.749 17, 373.778 17.488, 373.530 18.250 M 435.503 18.250 C 435.264 18.938, 433.458 26.025, 431.490 34 C 429.521 41.975, 427.676 49.288, 427.388 50.250 C 426.939 51.752, 427.569 52, 431.824 52 L 436.783 52 438.078 45.486 C 439.395 38.857, 440.584 38.094, 441.173 43.500 C 441.451 46.055, 441.971 46.546, 444.674 46.808 C 447.509 47.082, 448.134 46.628, 450.519 42.558 C 451.988 40.051, 453.341 38, 453.524 38 C 453.708 38, 453.032 40.891, 452.021 44.425 C 451.011 47.959, 450.443 51.109, 450.759 51.425 C 451.075 51.741, 453.209 52, 455.502 52 L 459.671 52 463.362 36.750 C 465.392 28.363, 467.318 20.488, 467.643 19.250 C 468.196 17.143, 467.924 17.001, 463.367 17.013 L 458.500 17.026 453.581 24.586 C 448.249 32.780, 447.723 32.783, 446.544 24.622 C 446.156 21.939, 445.602 19.127, 445.313 18.372 C 444.630 16.595, 436.115 16.489, 435.503 18.250 M 472.092 20.750 C 468.609 34.010, 465 49.118, 465 50.442 C 465 51.616, 466.081 52, 469.384 52 L 473.768 52 477 39 L 480.232 26 484.684 26 C 488.454 26, 489.055 26.267, 488.614 27.750 C 487.353 31.993, 483 49.964, 483 50.931 C 483 51.530, 484.962 52, 487.461 52 C 492.576 52, 491.366 54.603, 497.336 30.750 L 500.777 17 486.927 17 L 473.077 17 472.092 20.750 M 504.113 34.005 C 498.551 43.357, 494 51.232, 494 51.505 C 494 51.777, 496.179 52, 498.843 52 C 503.351 52, 503.815 51.759, 505.570 48.500 C 507.259 45.363, 507.886 45, 511.616 45 C 515.580 45, 515.809 45.166, 516.434 48.500 C 517.080 51.946, 517.168 52, 522.091 52 L 527.091 52 526.562 48.750 C 526.272 46.962, 525.572 41, 525.006 35.500 C 524.441 30, 523.731 23.587, 523.428 21.250 L 522.877 17 518.552 17 L 514.226 17 504.113 34.005 M 536.503 18.250 C 536.264 18.938, 534.458 26.025, 532.490 34 C 530.521 41.975, 528.676 49.288, 528.388 50.250 C 527.940 51.750, 528.566 52, 532.759 52 L 537.652 52 539.091 45.750 L 540.530 39.500 545.265 39.195 C 547.869 39.028, 549.995 39.028, 549.988 39.195 C 549.982 39.363, 549.312 41.975, 548.500 45 C 547.688 48.025, 547.018 50.862, 547.012 51.305 C 547.005 51.747, 549.112 51.972, 551.692 51.805 L 556.385 51.500 560.016 37 C 562.014 29.025, 563.961 21.262, 564.343 19.750 C 565.031 17.029, 564.986 17, 560.127 17 C 555.598 17, 555.165 17.213, 554.553 19.750 C 551.948 30.542, 552.323 30, 547.461 30 C 545.008 30, 543.005 29.887, 543.012 29.750 C 543.018 29.613, 543.688 27.025, 544.500 24 C 545.312 20.975, 545.982 18.163, 545.988 17.750 C 546.009 16.435, 536.968 16.911, 536.503 18.250 M 565.554 32.750 C 563.420 41.413, 561.470 49.288, 561.220 50.250 C 560.839 51.720, 561.470 52, 565.164 52 C 569.884 52, 568.733 53.044, 583.824 35.077 C 584.552 34.209, 584.832 34.113, 584.445 34.863 C 583.714 36.281, 580.047 49.896, 580.017 51.305 C 580.008 51.747, 582.112 51.972, 584.692 51.805 L 589.385 51.500 593.016 37 C 595.014 29.025, 596.961 21.262, 597.343 19.750 C 598.023 17.060, 597.942 17, 593.614 17 C 589.313 17, 589.002 17.222, 582.434 25.006 C 578.718 29.409, 575.546 32.879, 575.384 32.718 C 575.223 32.556, 575.962 29.066, 577.028 24.962 C 578.094 20.858, 578.973 17.387, 578.983 17.250 C 578.992 17.113, 576.848 17, 574.217 17 L 569.435 17 565.554 32.750 M 602.503 18.250 C 602.264 18.938, 600.458 26.025, 598.490 34 C 596.521 41.975, 594.676 49.288, 594.388 50.250 C 593.946 51.731, 594.543 52, 598.276 52 C 602.582 52, 602.852 51.802, 609.532 43.750 C 613.296 39.212, 616.692 35.122, 617.079 34.659 C 617.465 34.197, 616.999 36.672, 616.043 40.159 C 615.087 43.647, 613.996 47.763, 613.619 49.306 L 612.934 52.112 617.717 51.806 L 622.500 51.500 626.219 37 C 631.959 14.621, 631.901 17, 626.707 17 C 622.341 17, 622.119 17.164, 615.128 25.553 C 611.207 30.257, 608.008 33.745, 608.017 33.303 C 608.027 32.861, 608.919 29.125, 610 25 C 611.081 20.875, 611.973 17.387, 611.983 17.250 C 612.050 16.268, 602.854 17.238, 602.503 18.250 M 410.799 26.750 C 409.112 28.703, 406.113 39.839, 406.755 41.764 C 407.290 43.371, 413.166 43.362, 415.179 41.750 C 416.896 40.376, 420.400 27.456, 419.466 25.945 C 418.465 24.326, 412.406 24.889, 410.799 26.750 M 216.207 29.250 C 215.402 32.325, 215.512 32.517, 218.244 32.818 C 221.803 33.211, 224 31.516, 224 28.378 C 224 26.331, 223.517 26, 220.529 26 C 217.453 26, 216.960 26.371, 216.207 29.250 M 513.701 32.500 C 512.087 35.885, 512.098 36, 514.016 36 C 515.617 36, 516 35.324, 516 32.500 C 516 30.575, 515.858 29, 515.685 29 C 515.512 29, 514.619 30.575, 513.701 32.500 M 342.161 32.547 C 340.677 35.803, 340.696 36, 342.500 36 C 343.500 36, 344 35, 344 33 C 344 29.337, 343.661 29.254, 342.161 32.547 M 147.725 74.609 C 146.482 75.851, 146.931 78, 148.433 78 C 149.221 78, 150.137 78.856, 150.469 79.903 C 150.801 80.949, 146.809 100.108, 141.597 122.478 C 136.385 144.848, 132.398 163.904, 132.737 164.825 C 133.077 165.746, 133.837 166.831, 134.427 167.235 C 135.017 167.639, 144.387 167.976, 155.250 167.985 C 171.369 167.997, 175 167.747, 175 166.622 C 175 165.864, 174.069 164.626, 172.932 163.871 L 170.863 162.497 173.682 150.250 L 176.500 138.003 190.500 137.996 C 215.218 137.983, 220.842 136.006, 226.039 125.500 C 230.472 116.539, 234.257 100.785, 233.669 93.743 C 232.948 85.106, 230.412 81.062, 223.483 77.500 L 217.648 74.500 183.048 74.192 C 164.019 74.023, 148.123 74.210, 147.725 74.609 M 250 75.893 C 250 76.934, 250.675 78.045, 251.500 78.362 C 252.325 78.678, 253 80.050, 253 81.410 C 253 82.771, 244 101.272, 233 122.525 C 222 143.778, 213 162.164, 213 163.383 C 213 167.628, 214.506 168, 231.700 168 C 245.671 168, 248 167.781, 248 166.469 C 248 165.626, 247.325 164.678, 246.500 164.362 C 244.311 163.522, 244.651 160.756, 247.708 154.522 L 250.417 149 258.208 149 C 262.494 149, 266.020 149.338, 266.044 149.750 C 266.543 158.273, 268.075 165.582, 269.597 166.694 C 271.877 168.362, 310 168.605, 310 166.952 C 310 166.376, 308.808 164.878, 307.350 163.625 L 304.701 161.346 301.433 120.423 C 299.636 97.915, 297.868 78.744, 297.503 77.820 C 296.281 74.724, 291.134 74, 270.351 74 C 251.050 74, 250 74.098, 250 75.893 M 328.644 75.485 C 328.309 76.357, 328.884 77.402, 330.037 78.020 C 331.117 78.598, 332 79.995, 332 81.124 C 332 82.254, 327.918 100.576, 322.930 121.839 C 313.887 160.380, 313.072 164.689, 314.411 166.856 C 314.904 167.654, 321.294 168, 335.559 168 C 357.089 168, 358.577 167.651, 353.945 163.685 C 352.745 162.657, 352.109 161.212, 352.417 160.212 C 352.707 159.271, 354.546 151.548, 356.503 143.052 C 358.461 134.555, 360.225 127.441, 360.424 127.243 C 360.623 127.044, 362.780 127.021, 365.217 127.191 L 369.649 127.500 365.837 143.500 C 361.627 161.171, 361.129 166.452, 363.582 167.393 C 364.452 167.727, 373.854 168, 384.475 168 C 399.560 168, 403.897 167.711, 404.293 166.678 C 404.572 165.951, 403.945 164.822, 402.900 164.170 C 401.855 163.517, 401 162.002, 401 160.803 C 401 159.605, 405.050 141.144, 410 119.781 C 414.950 98.417, 419 79.843, 419 78.504 C 419 77.121, 418.165 75.623, 417.066 75.035 C 415.926 74.425, 407.296 74, 396.066 74 C 378.026 74, 377 74.102, 377 75.893 C 377 76.934, 377.675 78.045, 378.500 78.362 C 380.570 79.156, 380.378 81.671, 377.192 95.500 L 374.427 107.500 369.713 107.805 C 366.735 107.997, 365 107.700, 365 106.996 C 365 106.384, 366.350 100.536, 368 94 C 371.551 79.933, 371.746 76.470, 369.066 75.035 C 367.928 74.426, 359.329 74, 348.173 74 C 332.330 74, 329.120 74.244, 328.644 75.485 M 448 75.955 C 443.914 77.359, 441.215 79.224, 437.500 83.208 C 431.304 89.854, 429.580 94.607, 423.430 122 C 416.655 152.174, 417.388 158.936, 428.089 165 C 432.373 167.428, 433.148 167.510, 454.991 167.836 C 479.081 168.196, 483.949 167.557, 486.434 163.709 C 487.867 161.491, 492 146.545, 492 143.583 C 492 141.567, 489.631 141.534, 487.977 143.527 C 486.036 145.867, 460.181 145.241, 458.655 142.817 C 457.360 140.761, 465.317 104.652, 468.058 100.145 C 470.146 96.711, 473.052 96, 484.990 96 C 496.461 96, 498.130 94.790, 500.481 84.765 C 501.417 80.769, 502.398 76.713, 502.659 75.750 C 503.103 74.117, 501.476 74.002, 478.317 74.033 C 456.644 74.061, 452.803 74.305, 448 75.955 M 515.361 75.502 C 515.031 76.363, 515.696 77.751, 516.919 78.752 L 519.054 80.500 509.527 121.245 C 504.287 143.654, 500 162.802, 500 163.795 C 500 167.687, 501.683 168, 522.641 168 C 535.032 168, 543.121 167.613, 543.499 167.002 C 543.838 166.453, 542.905 164.962, 541.424 163.689 L 538.733 161.373 546.204 128.937 L 553.675 96.500 565.429 96 C 576.121 95.545, 577.350 95.295, 579.015 93.234 C 580.673 91.182, 584 79.382, 584 75.553 C 584 74.180, 580.064 74, 549.969 74 C 520.617 74, 515.858 74.207, 515.361 75.502 M 594 75.824 C 594 76.903, 594.675 78.045, 595.500 78.362 C 596.325 78.678, 596.996 79.964, 596.990 81.219 C 596.985 82.473, 592.935 100.788, 587.990 121.919 C 583.046 143.049, 579 161.521, 579 162.969 C 579 167.773, 579.996 168, 601.093 168 C 617.366 168, 620.883 167.748, 621.342 166.551 C 621.678 165.675, 621.128 164.858, 619.949 164.484 C 617.089 163.576, 617.534 158.776, 622.043 141.874 L 623.010 138.248 640.802 137.828 C 657.218 137.440, 658.976 137.218, 663.542 134.954 C 669.716 131.892, 672.931 126.841, 676.563 114.500 C 681.589 97.421, 680.735 85.084, 674.171 79.920 C 667.494 74.667, 666.913 74.593, 629.250 74.216 C 594.777 73.871, 594 73.906, 594 75.824 M 681.361 75.502 C 681.029 76.368, 681.704 77.749, 682.954 78.762 C 684.541 80.047, 687.654 88.440, 694.542 110.009 C 699.722 126.229, 703.969 139.772, 703.980 140.104 C 703.991 140.436, 702.896 141.899, 701.548 143.354 C 699.614 145.441, 698.168 146, 694.707 146 L 690.318 146 689.218 151.250 C 686.825 162.677, 686.827 162.510, 689.034 165.316 C 691.109 167.955, 691.343 168, 702.823 167.998 C 711.951 167.997, 715.256 167.615, 717.961 166.248 C 720.984 164.722, 724.437 159.237, 745.187 123 C 758.258 100.175, 768.962 80.513, 768.976 79.307 C 769.025 74.898, 765.776 74, 749.777 74 C 736.340 74, 735 74.160, 735 75.759 C 735 76.727, 735.900 78.081, 737 78.768 C 738.100 79.455, 739 80.880, 739 81.935 C 739 83.981, 729.101 103, 728.036 103 C 727.687 103, 726.370 98.388, 725.109 92.750 C 722.344 80.394, 720.702 76.641, 717.405 75.139 C 715.859 74.434, 708.619 74, 698.422 74 C 684.680 74, 681.841 74.250, 681.361 75.502 M 783.505 81.332 C 781.368 90.940, 781.722 94.206, 785 95.111 C 786.375 95.490, 793.189 95.845, 800.143 95.900 C 814.074 96.010, 814.640 96.281, 812.989 102.040 C 811.319 107.862, 810.936 108, 796.397 108 C 781.325 108, 783.214 106.871, 781.017 117.191 C 779.278 125.359, 780.004 125.848, 794.489 126.250 C 803.147 126.491, 803.526 126.599, 804.760 129.180 C 806.322 132.446, 805.097 139.052, 802.212 142.920 C 800.326 145.449, 800.011 145.506, 786.394 145.795 L 772.500 146.090 769.771 142.858 C 768.270 141.080, 766.794 139.873, 766.492 140.175 C 765.448 141.219, 761.025 158.509, 761.012 161.595 C 761.005 163.383, 761.806 165.419, 762.908 166.416 C 764.637 167.981, 767.414 168.113, 792.658 167.821 C 820.062 167.505, 820.578 167.461, 825.449 165 C 828.171 163.625, 831.679 160.885, 833.244 158.910 C 839.925 150.484, 844.385 126.512, 840.624 119.240 C 839.719 117.491, 838.034 115.554, 836.880 114.936 C 834.833 113.840, 834.857 113.765, 837.855 111.942 C 843.321 108.618, 848 98.739, 848 90.520 C 848 85.325, 844.540 79.681, 839.632 76.868 C 835.634 74.577, 834.687 74.490, 810.332 74.188 L 785.164 73.876 783.505 81.332 M 184.659 103.750 C 183.734 108.013, 182.705 112.513, 182.372 113.750 C 181.838 115.737, 182.137 116, 184.929 116 C 186.899 116, 188.962 115.129, 190.400 113.691 C 193.055 111.036, 195.503 102.140, 194.585 98.482 C 194.058 96.382, 193.375 96, 190.151 96 L 186.341 96 184.659 103.750 M 632.582 97.189 C 632.361 97.910, 631.446 101.650, 630.547 105.500 C 629.648 109.350, 628.677 113.287, 628.389 114.250 C 627.987 115.592, 628.452 116, 630.386 116 C 635.504 116, 637.955 113.963, 639.586 108.350 C 640.435 105.431, 640.988 101.570, 640.815 99.771 C 640.527 96.779, 640.180 96.474, 636.742 96.189 C 634.290 95.986, 632.844 96.334, 632.582 97.189 M 261.749 123.188 C 260.237 126.660, 259 129.838, 259 130.250 C 259 130.662, 260.575 131, 262.500 131 L 266 131 265.900 126.250 C 265.845 123.638, 265.508 120.460, 265.150 119.188 C 264.589 117.196, 264.119 117.749, 261.749 123.188" stroke="none" fill="#143c6c" fill-rule="evenodd"/><path d="M 159.300 12.354 C 157.251 15.823, 154.654 16, 105.816 16.006 C 75.049 16.009, 56.122 16.394, 53.706 17.065 C 48.913 18.396, 48.077 20.187, 43.466 39 C 41.511 46.975, 39.676 54.288, 39.388 55.250 C 38.568 57.993, 43.436 57.473, 46.409 54.500 C 48.727 52.183, 49.606 52, 58.455 52 C 64.106 52, 68 52.405, 68 52.993 C 68 53.539, 62.644 76.826, 56.098 104.743 C 49.551 132.659, 43.896 156.936, 43.531 158.691 C 42.872 161.859, 44.179 165.752, 46.400 167.235 C 48.032 168.325, 112 168.176, 112 167.082 C 112 166.577, 112.242 165.532, 112.539 164.760 C 112.866 163.907, 112.076 162.900, 110.524 162.193 C 105.240 159.785, 105.211 159.997, 118.367 104.500 L 130.694 52.500 140.349 51.864 C 150.204 51.214, 153.937 49.854, 155.892 46.202 C 156.938 44.247, 165 14.147, 165 12.195 C 165 10.551, 160.287 10.683, 159.300 12.354 M 147.725 74.609 C 146.482 75.851, 146.931 78, 148.433 78 C 149.221 78, 150.137 78.856, 150.469 79.903 C 150.801 80.949, 146.809 100.108, 141.597 122.478 C 136.385 144.848, 132.398 163.904, 132.737 164.825 C 133.077 165.746, 133.837 166.831, 134.427 167.235 C 135.017 167.639, 144.387 167.976, 155.250 167.985 C 171.369 167.997, 175 167.747, 175 166.622 C 175 165.864, 174.069 164.626, 172.932 163.871 L 170.863 162.497 173.682 150.250 L 176.500 138.003 190.500 137.996 C 215.218 137.983, 220.842 136.006, 226.039 125.500 C 230.472 116.539, 234.257 100.785, 233.669 93.743 C 232.948 85.106, 230.412 81.062, 223.483 77.500 L 217.648 74.500 183.048 74.192 C 164.019 74.023, 148.123 74.210, 147.725 74.609 M 250 75.893 C 250 76.934, 250.675 78.045, 251.500 78.362 C 252.325 78.678, 253 80.050, 253 81.410 C 253 82.771, 244 101.272, 233 122.525 C 222 143.778, 213 162.164, 213 163.383 C 213 167.628, 214.506 168, 231.700 168 C 245.671 168, 248 167.781, 248 166.469 C 248 165.626, 247.325 164.678, 246.500 164.362 C 244.311 163.522, 244.651 160.756, 247.708 154.522 L 250.417 149 258.208 149 C 262.494 149, 266.020 149.338, 266.044 149.750 C 266.543 158.273, 268.075 165.582, 269.597 166.694 C 271.877 168.362, 310 168.605, 310 166.952 C 310 166.376, 308.808 164.878, 307.350 163.625 L 304.701 161.346 301.433 120.423 C 299.636 97.915, 297.868 78.744, 297.503 77.820 C 296.281 74.724, 291.134 74, 270.351 74 C 251.050 74, 250 74.098, 250 75.893 M 328.644 75.485 C 328.309 76.357, 328.884 77.402, 330.037 78.020 C 331.117 78.598, 332 79.995, 332 81.124 C 332 82.254, 327.918 100.576, 322.930 121.839 C 313.887 160.380, 313.072 164.689, 314.411 166.856 C 314.904 167.654, 321.294 168, 335.559 168 C 357.089 168, 358.577 167.651, 353.945 163.685 C 352.745 162.657, 352.109 161.212, 352.417 160.212 C 352.707 159.271, 354.546 151.548, 356.503 143.052 C 358.461 134.555, 360.225 127.441, 360.424 127.243 C 360.623 127.044, 362.780 127.021, 365.217 127.191 L 369.649 127.500 365.837 143.500 C 361.627 161.171, 361.129 166.452, 363.582 167.393 C 364.452 167.727, 373.854 168, 384.475 168 C 399.560 168, 403.897 167.711, 404.293 166.678 C 404.572 165.951, 403.945 164.822, 402.900 164.170 C 401.855 163.517, 401 162.002, 401 160.803 C 401 159.605, 405.050 141.144, 410 119.781 C 414.950 98.417, 419 79.843, 419 78.504 C 419 77.121, 418.165 75.623, 417.066 75.035 C 415.926 74.425, 407.296 74, 396.066 74 C 378.026 74, 377 74.102, 377 75.893 C 377 76.934, 377.675 78.045, 378.500 78.362 C 380.570 79.156, 380.378 81.671, 377.192 95.500 L 374.427 107.500 369.713 107.805 C 366.735 107.997, 365 107.700, 365 106.996 C 365 106.384, 366.350 100.536, 368 94 C 371.551 79.933, 371.746 76.470, 369.066 75.035 C 367.928 74.426, 359.329 74, 348.173 74 C 332.330 74, 329.120 74.244, 328.644 75.485 M 448 75.955 C 443.914 77.359, 441.215 79.224, 437.500 83.208 C 431.304 89.854, 429.580 94.607, 423.430 122 C 416.655 152.174, 417.388 158.936, 428.089 165 C 432.373 167.428, 433.148 167.510, 454.991 167.836 C 479.081 168.196, 483.949 167.557, 486.434 163.709 C 487.867 161.491, 492 146.545, 492 143.583 C 492 141.567, 489.631 141.534, 487.977 143.527 C 486.036 145.867, 460.181 145.241, 458.655 142.817 C 457.360 140.761, 465.317 104.652, 468.058 100.145 C 470.146 96.711, 473.052 96, 484.990 96 C 496.461 96, 498.130 94.790, 500.481 84.765 C 501.417 80.769, 502.398 76.713, 502.659 75.750 C 503.103 74.117, 501.476 74.002, 478.317 74.033 C 456.644 74.061, 452.803 74.305, 448 75.955 M 515.361 75.502 C 515.031 76.363, 515.696 77.751, 516.919 78.752 L 519.054 80.500 509.527 121.245 C 504.287 143.654, 500 162.802, 500 163.795 C 500 167.687, 501.683 168, 522.641 168 C 535.032 168, 543.121 167.613, 543.499 167.002 C 543.838 166.453, 542.905 164.962, 541.424 163.689 L 538.733 161.373 546.204 128.937 L 553.675 96.500 565.429 96 C 576.121 95.545, 577.350 95.295, 579.015 93.234 C 580.673 91.182, 584 79.382, 584 75.553 C 584 74.180, 580.064 74, 549.969 74 C 520.617 74, 515.858 74.207, 515.361 75.502 M 594 75.824 C 594 76.903, 594.675 78.045, 595.500 78.362 C 596.325 78.678, 596.996 79.964, 596.990 81.219 C 596.985 82.473, 592.935 100.788, 587.990 121.919 C 583.046 143.049, 579 161.521, 579 162.969 C 579 167.773, 579.996 168, 601.093 168 C 617.366 168, 620.883 167.748, 621.342 166.551 C 621.678 165.675, 621.128 164.858, 619.949 164.484 C 617.089 163.576, 617.534 158.776, 622.043 141.874 L 623.010 138.248 640.802 137.828 C 657.218 137.440, 658.976 137.218, 663.542 134.954 C 669.716 131.892, 672.931 126.841, 676.563 114.500 C 681.589 97.421, 680.735 85.084, 674.171 79.920 C 667.494 74.667, 666.913 74.593, 629.250 74.216 C 594.777 73.871, 594 73.906, 594 75.824 M 681.361 75.502 C 681.029 76.368, 681.704 77.749, 682.954 78.762 C 684.541 80.047, 687.654 88.440, 694.542 110.009 C 699.722 126.229, 703.969 139.772, 703.980 140.104 C 703.991 140.436, 702.896 141.899, 701.548 143.354 C 699.614 145.441, 698.168 146, 694.707 146 L 690.318 146 689.218 151.250 C 686.825 162.677, 686.827 162.510, 689.034 165.316 C 691.109 167.955, 691.343 168, 702.823 167.998 C 711.951 167.997, 715.256 167.615, 717.961 166.248 C 720.984 164.722, 724.437 159.237, 745.187 123 C 758.258 100.175, 768.962 80.513, 768.976 79.307 C 769.025 74.898, 765.776 74, 749.777 74 C 736.340 74, 735 74.160, 735 75.759 C 735 76.727, 735.900 78.081, 737 78.768 C 738.100 79.455, 739 80.880, 739 81.935 C 739 83.981, 729.101 103, 728.036 103 C 727.687 103, 726.370 98.388, 725.109 92.750 C 722.344 80.394, 720.702 76.641, 717.405 75.139 C 715.859 74.434, 708.619 74, 698.422 74 C 684.680 74, 681.841 74.250, 681.361 75.502 M 783.505 81.332 C 781.368 90.940, 781.722 94.206, 785 95.111 C 786.375 95.490, 793.189 95.845, 800.143 95.900 C 814.074 96.010, 814.640 96.281, 812.989 102.040 C 811.319 107.862, 810.936 108, 796.397 108 C 781.325 108, 783.214 106.871, 781.017 117.191 C 779.278 125.359, 780.004 125.848, 794.489 126.250 C 803.147 126.491, 803.526 126.599, 804.760 129.180 C 806.322 132.446, 805.097 139.052, 802.212 142.920 C 800.326 145.449, 800.011 145.506, 786.394 145.795 L 772.500 146.090 769.771 142.858 C 768.270 141.080, 766.794 139.873, 766.492 140.175 C 765.448 141.219, 761.025 158.509, 761.012 161.595 C 761.005 163.383, 761.806 165.419, 762.908 166.416 C 764.637 167.981, 767.414 168.113, 792.658 167.821 C 820.062 167.505, 820.578 167.461, 825.449 165 C 828.171 163.625, 831.679 160.885, 833.244 158.910 C 839.925 150.484, 844.385 126.512, 840.624 119.240 C 839.719 117.491, 838.034 115.554, 836.880 114.936 C 834.833 113.840, 834.857 113.765, 837.855 111.942 C 843.321 108.618, 848 98.739, 848 90.520 C 848 85.325, 844.540 79.681, 839.632 76.868 C 835.634 74.577, 834.687 74.490, 810.332 74.188 L 785.164 73.876 783.505 81.332 M 184.659 103.750 C 183.734 108.013, 182.705 112.513, 182.372 113.750 C 181.838 115.737, 182.137 116, 184.929 116 C 186.899 116, 188.962 115.129, 190.400 113.691 C 193.055 111.036, 195.503 102.140, 194.585 98.482 C 194.058 96.382, 193.375 96, 190.151 96 L 186.341 96 184.659 103.750 M 632.582 97.189 C 632.361 97.910, 631.446 101.650, 630.547 105.500 C 629.648 109.350, 628.677 113.287, 628.389 114.250 C 627.987 115.592, 628.452 116, 630.386 116 C 635.504 116, 637.955 113.963, 639.586 108.350 C 640.435 105.431, 640.988 101.570, 640.815 99.771 C 640.527 96.779, 640.180 96.474, 636.742 96.189 C 634.290 95.986, 632.844 96.334, 632.582 97.189 M 261.749 123.188 C 260.237 126.660, 259 129.838, 259 130.250 C 259 130.662, 260.575 131, 262.500 131 L 266 131 265.900 126.250 C 265.845 123.638, 265.508 120.460, 265.150 119.188 C 264.589 117.196, 264.119 117.749, 261.749 123.188" stroke="none" fill="#f9fafa" fill-rule="evenodd"/></svg>