<svg width="62" height="62" viewBox="0 0 62 62" fill="none" xmlns="http://www.w3.org/2000/svg">
<path d="M40.5894 57.9314H21.3464C21.0895 57.9314 20.8431 57.8294 20.6614 57.6477C20.4797 57.466 20.3777 57.2196 20.3777 56.9627C20.3777 56.7057 20.4797 56.4593 20.6614 56.2777C20.8431 56.096 21.0895 55.9939 21.3464 55.9939H40.5894C40.8463 55.9939 41.0928 56.096 41.2744 56.2777C41.4561 56.4593 41.5582 56.7057 41.5582 56.9627C41.5582 57.2196 41.4561 57.466 41.2744 57.6477C41.0928 57.8294 40.8463 57.9314 40.5894 57.9314ZM55.3398 45.2808H6.66016C6.40323 45.2808 6.15682 45.1787 5.97515 44.997C5.79347 44.8153 5.69141 44.5689 5.69141 44.312C5.69141 44.0551 5.79347 43.8087 5.97515 43.627C6.15682 43.4453 6.40323 43.3433 6.66016 43.3433H55.3398C55.5968 43.3433 55.8432 43.4453 56.0249 43.627C56.2065 43.8087 56.3086 44.0551 56.3086 44.312C56.3086 44.5689 56.2065 44.8153 56.0249 44.997C55.8432 45.1787 55.5968 45.2808 55.3398 45.2808ZM40.8546 48.1701H39.4899C39.233 48.1701 38.9865 48.068 38.8049 47.8863C38.6232 47.7046 38.5211 47.4582 38.5211 47.2013C38.5211 46.9444 38.6232 46.698 38.8049 46.5163C38.9865 46.3346 39.233 46.2326 39.4899 46.2326H40.8546C41.1115 46.2326 41.3579 46.3346 41.5396 46.5163C41.7213 46.698 41.8234 46.9444 41.8234 47.2013C41.8234 47.4582 41.7213 47.7046 41.5396 47.8863C41.3579 48.068 41.1115 48.1701 40.8546 48.1701ZM45.8073 48.1701H44.4414C44.1845 48.1701 43.9381 48.068 43.7564 47.8863C43.5747 47.7046 43.4727 47.4582 43.4727 47.2013C43.4727 46.9444 43.5747 46.698 43.7564 46.5163C43.9381 46.3346 44.1845 46.2326 44.4414 46.2326H45.8061C46.0631 46.2326 46.3095 46.3346 46.4911 46.5163C46.6728 46.698 46.7749 46.9444 46.7749 47.2013C46.7749 47.4582 46.6728 47.7046 46.4911 47.8863C46.3095 48.068 46.0631 48.1701 45.8061 48.1701H45.8073ZM50.7601 48.1701H49.2997C49.0428 48.1701 48.7964 48.068 48.6147 47.8863C48.433 47.7046 48.3309 47.4582 48.3309 47.2013C48.3309 46.9444 48.433 46.698 48.6147 46.5163C48.7964 46.3346 49.0428 46.2326 49.2997 46.2326H50.7601C51.017 46.2326 51.2634 46.3346 51.4451 46.5163C51.6268 46.698 51.7288 46.9444 51.7288 47.2013C51.7288 47.4582 51.6268 47.7046 51.4451 47.8863C51.2634 48.068 51.017 48.1701 50.7601 48.1701Z" fill="#00EAFF"/>
<path d="M25.3263 57.9314C25.1798 57.9315 25.0352 57.8985 24.9034 57.8347C24.7715 57.771 24.6559 57.6781 24.5651 57.5632C24.4743 57.4483 24.4107 57.3142 24.3792 57.1712C24.3476 57.0282 24.3489 56.8798 24.383 56.7374L26.0274 49.8677C26.0571 49.744 26.1108 49.6274 26.1856 49.5244C26.2603 49.4215 26.3546 49.3342 26.4631 49.2677C26.5715 49.2012 26.692 49.1567 26.8177 49.1368C26.9433 49.1168 27.0717 49.1218 27.1954 49.1515C27.3191 49.1811 27.4358 49.2349 27.5387 49.3096C27.6417 49.3844 27.7289 49.4787 27.7954 49.5871C27.8619 49.6956 27.9064 49.816 27.9264 49.9417C27.9463 50.0674 27.9413 50.1957 27.9117 50.3194L26.2672 57.1879C26.2166 57.3994 26.0963 57.5878 25.9256 57.7227C25.755 57.8576 25.5438 57.9311 25.3263 57.9314ZM35.7222 57.1564L34.3236 50.2867C34.2982 50.1621 34.2977 50.0336 34.3219 49.9087C34.3462 49.7838 34.3948 49.6649 34.4651 49.5588C34.6069 49.3446 34.828 49.1954 35.0798 49.1442C35.3316 49.093 35.5934 49.1439 35.8077 49.2857C36.022 49.4275 36.1711 49.6486 36.2223 49.9004L37.6234 56.7689C37.6748 57.021 37.6239 57.2832 37.482 57.4978C37.34 57.7124 37.1187 57.8618 36.8665 57.9132C36.6144 57.9646 36.3522 57.9137 36.1376 57.7718C35.923 57.6299 35.7736 57.4085 35.7222 57.1564Z" fill="#00EAFF"/>
<path d="M53.6442 51.0628H8.35518C8.0027 51.0698 7.65246 51.0053 7.32554 50.8734C6.99862 50.7414 6.70178 50.5447 6.45289 50.295C6.20399 50.0453 6.0082 49.7479 5.87728 49.4205C5.74637 49.0932 5.68304 48.7427 5.69112 48.3903V20.6768C5.69112 19.1498 6.8633 17.9534 8.36123 17.9534H13.6748C13.9318 17.9534 14.1782 18.0554 14.3598 18.2371C14.5415 18.4188 14.6436 18.6652 14.6436 18.9221C14.6436 19.179 14.5415 19.4255 14.3598 19.6071C14.1782 19.7888 13.9318 19.8909 13.6748 19.8909H8.35518C7.77635 19.8909 7.62256 20.3849 7.62256 20.6768V48.3903C7.62256 48.6107 7.69401 49.1253 8.35518 49.1253H53.6442C53.7415 49.1285 53.8384 49.1117 53.9289 49.0759C54.0194 49.0401 54.1016 48.986 54.1703 48.917C54.239 48.8481 54.2928 48.7658 54.3284 48.6751C54.3639 48.5845 54.3804 48.4876 54.3769 48.3903V20.6768C54.3769 20.2965 54.0826 19.8909 53.6442 19.8909H48.3294C48.0725 19.8909 47.8261 19.7888 47.6444 19.6071C47.4627 19.4255 47.3607 19.179 47.3607 18.9221C47.3607 18.6652 47.4627 18.4188 47.6444 18.2371C47.8261 18.0554 48.0725 17.9534 48.3294 17.9534H53.6442C54.3581 17.9629 55.0391 18.2548 55.5384 18.7652C56.0376 19.2756 56.3144 19.9629 56.3083 20.6768V48.3903C56.3122 48.7416 56.246 49.0902 56.1136 49.4156C55.9812 49.7411 55.7852 50.0368 55.5372 50.2857C55.2891 50.5345 54.994 50.7314 54.6689 50.8648C54.3439 50.9983 53.9956 51.0656 53.6442 51.0628Z" fill="#00EAFF"/>
<path d="M45.4461 38.0744H16.5532C15.5316 38.0728 14.5524 37.6662 13.8303 36.9436C13.1082 36.221 12.7021 35.2416 12.7012 34.22V12.4001C12.7012 12.1432 12.8032 11.8968 12.9849 11.7151C13.1666 11.5335 13.413 11.4314 13.6699 11.4314H48.3294C48.5863 11.4314 48.8327 11.5335 49.0144 11.7151C49.1961 11.8968 49.2981 12.1432 49.2981 12.4001V34.22C49.2972 35.2416 48.8911 36.221 48.169 36.9436C47.4469 37.6662 46.4677 38.0728 45.4461 38.0744ZM14.6387 13.3713V34.22C14.639 34.7279 14.8407 35.2149 15.1996 35.5743C15.5585 35.9336 16.0453 36.136 16.5532 36.1369H45.4461C45.954 36.136 46.4408 35.9336 46.7997 35.5743C47.1586 35.2149 47.3603 34.7279 47.3606 34.22V13.3689L14.6387 13.3713Z" fill="#00EAFF"/>
<path d="M48.3294 13.3688C48.0724 13.3688 47.826 13.2668 47.6444 13.0851C47.4627 12.9034 47.3606 12.657 47.3606 12.4001V7.91963C47.3593 7.41238 47.1572 6.92629 46.7984 6.56772C46.4396 6.20915 45.9534 6.00731 45.4461 6.00635H16.5532C16.0453 6.00731 15.5585 6.20966 15.1996 6.56901C14.8407 6.92836 14.639 7.41538 14.6387 7.92326V12.4037C14.6387 12.6607 14.5366 12.9071 14.3549 13.0887C14.1733 13.2704 13.9269 13.3725 13.6699 13.3725C13.413 13.3725 13.1666 13.2704 12.9849 13.0887C12.8032 12.9071 12.7012 12.6607 12.7012 12.4037V7.92326C12.7021 6.90172 13.1082 5.92226 13.8303 5.1997C14.5524 4.47713 15.5316 4.07045 16.5532 4.06885H45.4461C46.4677 4.07045 47.4469 4.47713 48.169 5.1997C48.8911 5.92226 49.2972 6.90172 49.2981 7.92326V12.4037C49.2972 12.66 49.1947 12.9055 49.0131 13.0864C48.8315 13.2673 48.5857 13.3688 48.3294 13.3688Z" fill="#00EAFF"/>
<path d="M44.9118 9.6875H42.4573C42.2003 9.6875 41.9539 9.58544 41.7723 9.40376C41.5906 9.22208 41.4885 8.97568 41.4885 8.71875C41.4885 8.46182 41.5906 8.21542 41.7723 8.03374C41.9539 7.85206 42.2003 7.75 42.4573 7.75H44.9118C45.1688 7.75 45.4152 7.85206 45.5968 8.03374C45.7785 8.21542 45.8806 8.46182 45.8806 8.71875C45.8806 8.97568 45.7785 9.22208 45.5968 9.40376C45.4152 9.58544 45.1688 9.6875 44.9118 9.6875ZM39.4069 9.6875H36.9536C36.6966 9.6875 36.4502 9.58544 36.2685 9.40376C36.0869 9.22208 35.9848 8.97568 35.9848 8.71875C35.9848 8.46182 36.0869 8.21542 36.2685 8.03374C36.4502 7.85206 36.6966 7.75 36.9536 7.75H39.4069C39.6638 7.75 39.9102 7.85206 40.0919 8.03374C40.2736 8.21542 40.3757 8.46182 40.3757 8.71875C40.3757 8.97568 40.2736 9.22208 40.0919 9.40376C39.9102 9.58544 39.6638 9.6875 39.4069 9.6875ZM32.1982 9.6875H17.0869C16.83 9.6875 16.5836 9.58544 16.4019 9.40376C16.2202 9.22208 16.1182 8.97568 16.1182 8.71875C16.1182 8.46182 16.2202 8.21542 16.4019 8.03374C16.5836 7.85206 16.83 7.75 17.0869 7.75H32.1982C32.4551 7.75 32.7015 7.85206 32.8832 8.03374C33.0649 8.21542 33.167 8.46182 33.167 8.71875C33.167 8.97568 33.0649 9.22208 32.8832 9.40376C32.7015 9.58544 32.4551 9.6875 32.1982 9.6875ZM44.8234 34.0879H17.1753C16.9184 34.0879 16.672 33.9858 16.4903 33.8042C16.3086 33.6225 16.2066 33.3761 16.2066 33.1191V26.987C16.2066 26.73 16.3086 26.4836 16.4903 26.3019C16.672 26.1203 16.9184 26.0182 17.1753 26.0182H44.8234C45.0804 26.0182 45.3268 26.1203 45.5084 26.3019C45.6901 26.4836 45.7922 26.73 45.7922 26.987V33.1191C45.7922 33.3761 45.6901 33.6225 45.5084 33.8042C45.3268 33.9858 45.0804 34.0879 44.8234 34.0879ZM18.1441 32.1504H43.8547V27.9557H18.1441V32.1504ZM26.5649 24.8109C25.3701 24.8087 24.2248 24.3327 23.3804 23.4873C22.5359 22.642 22.0612 21.4962 22.0602 20.3014V16.2544C22.0602 15.9975 22.1623 15.7511 22.344 15.5694C22.5257 15.3877 22.7721 15.2857 23.029 15.2857C23.2859 15.2857 23.5323 15.3877 23.714 15.5694C23.8957 15.7511 23.9977 15.9975 23.9977 16.2544V20.3014C23.9903 20.6433 24.0512 20.9832 24.1769 21.3012C24.3027 21.6193 24.4906 21.909 24.7298 22.1534C24.969 22.3979 25.2545 22.5921 25.5698 22.7247C25.885 22.8572 26.2235 22.9255 26.5655 22.9255C26.9075 22.9255 27.246 22.8572 27.5613 22.7247C27.8765 22.5921 28.1621 22.3979 28.4013 22.1534C28.6404 21.909 28.8284 21.6193 28.9541 21.3012C29.0798 20.9832 29.1407 20.6433 29.1333 20.3014V16.2544C29.1333 15.9975 29.2354 15.7511 29.4171 15.5694C29.5987 15.3877 29.8451 15.2857 30.1021 15.2857C30.359 15.2857 30.6054 15.3877 30.7871 15.5694C30.9688 15.7511 31.0708 15.9975 31.0708 16.2544V20.3014C31.0699 21.4964 30.5949 22.6424 29.7502 23.4877C28.9055 24.3331 27.76 24.809 26.5649 24.8109ZM38.202 24.2381L32.6656 17.0379C32.5782 16.9381 32.5122 16.8215 32.4718 16.6952C32.4313 16.5689 32.4172 16.4356 32.4303 16.3036C32.4434 16.1716 32.4835 16.0437 32.5481 15.9279C32.6127 15.812 32.7003 15.7107 32.8057 15.6301C32.911 15.5495 33.0318 15.4914 33.1605 15.4594C33.2892 15.4274 33.4232 15.4222 33.554 15.444C33.6848 15.4659 33.8097 15.5144 33.921 15.5865C34.0324 15.6586 34.1277 15.7528 34.2011 15.8633L39.7387 23.0635C39.8953 23.2673 39.9645 23.5249 39.9311 23.7797C39.8977 24.0345 39.7645 24.2656 39.5607 24.4222C39.3569 24.5788 39.0993 24.648 38.8445 24.6146C38.5897 24.5812 38.3586 24.448 38.202 24.2442V24.2381Z" fill="white"/>
<path d="M32.8428 24.4163C32.7419 24.3387 32.6574 24.242 32.5939 24.1317C32.5305 24.0215 32.4894 23.8998 32.4729 23.7736C32.4565 23.6474 32.4651 23.5193 32.4982 23.3964C32.5314 23.2736 32.5884 23.1585 32.666 23.0577L38.2024 15.8635C38.3589 15.6597 38.59 15.5265 38.8448 15.4931C39.0996 15.4597 39.3573 15.5289 39.561 15.6855C39.7648 15.842 39.8981 16.0731 39.9314 16.3279C39.9648 16.5827 39.8956 16.8404 39.7391 17.0441L34.2014 24.2444C34.044 24.4473 33.8125 24.5793 33.5577 24.6116C33.3029 24.6438 33.0458 24.5736 32.8428 24.4163Z" fill="white"/>
</svg>
