<svg width="62" height="62" viewBox="0 0 62 62" fill="none" xmlns="http://www.w3.org/2000/svg">
<path d="M42.903 29.4335C43.7281 29.4335 44.5195 29.1057 45.1029 28.5222C45.6864 27.9388 46.0142 27.1474 46.0142 26.3223C46.0142 25.4972 45.6864 24.7059 45.1029 24.1224C44.5195 23.539 43.7281 23.2112 42.903 23.2112C42.0779 23.2112 41.2866 23.539 40.7031 24.1224C40.1197 24.7059 39.7919 25.4972 39.7919 26.3223C39.7919 27.1474 40.1197 27.9388 40.7031 28.5222C41.2866 29.1057 42.0779 29.4335 42.903 29.4335ZM42.903 25.1487C43.2143 25.1487 43.5128 25.2723 43.7329 25.4924C43.953 25.7125 44.0767 26.0111 44.0767 26.3223C44.0767 26.6336 43.953 26.9321 43.7329 27.1522C43.5128 27.3723 43.2143 27.496 42.903 27.496C42.5918 27.496 42.2932 27.3723 42.0731 27.1522C41.853 26.9321 41.7294 26.6336 41.7294 26.3223C41.7294 26.0111 41.853 25.7125 42.0731 25.4924C42.2932 25.2723 42.5918 25.1487 42.903 25.1487ZM35.3816 29.4335C36.2068 29.4335 36.9981 29.1057 37.5816 28.5222C38.165 27.9388 38.4928 27.1474 38.4928 26.3223C38.4928 25.4972 38.165 24.7059 37.5816 24.1224C36.9981 23.539 36.2068 23.2112 35.3816 23.2112C34.5565 23.2112 33.7652 23.539 33.1817 24.1224C32.5983 24.7059 32.2705 25.4972 32.2705 26.3223C32.2705 27.1474 32.5983 27.9388 33.1817 28.5222C33.7652 29.1057 34.5565 29.4335 35.3816 29.4335ZM35.3816 25.1487C35.6929 25.1487 35.9914 25.2723 36.2115 25.4924C36.4316 25.7125 36.5553 26.0111 36.5553 26.3223C36.5553 26.6336 36.4316 26.9321 36.2115 27.1522C35.9914 27.3723 35.6929 27.496 35.3816 27.496C35.0704 27.496 34.7719 27.3723 34.5518 27.1522C34.3317 26.9321 34.208 26.6336 34.208 26.3223C34.208 26.0111 34.3317 25.7125 34.5518 25.4924C34.7719 25.2723 35.0704 25.1487 35.3816 25.1487ZM42.903 34.8701C42.078 34.8701 41.2868 35.1978 40.7035 35.7812C40.1201 36.3645 39.7924 37.1558 39.7924 37.9807C39.7924 38.8057 40.1201 39.597 40.7035 40.1803C41.2868 40.7637 42.078 41.0914 42.903 41.0914C43.728 41.0914 44.5192 40.7637 45.1026 40.1803C45.6859 39.597 46.0137 38.8057 46.0137 37.9807C46.0137 37.1558 45.6859 36.3645 45.1026 35.7812C44.5192 35.1978 43.728 34.8701 42.903 34.8701ZM42.903 39.1539C42.5919 39.1539 42.2935 39.0303 42.0735 38.8103C41.8535 38.5903 41.7299 38.2919 41.7299 37.9807C41.7299 37.6696 41.8535 37.3712 42.0735 37.1512C42.2935 36.9312 42.5919 36.8076 42.903 36.8076C43.2142 36.8076 43.5126 36.9312 43.7326 37.1512C43.9526 37.3712 44.0762 37.6696 44.0762 37.9807C44.0762 38.2919 43.9526 38.5903 43.7326 38.8103C43.5126 39.0303 43.2142 39.1539 42.903 39.1539ZM35.3816 34.8701C34.5566 34.8701 33.7654 35.1978 33.1821 35.7812C32.5987 36.3645 32.271 37.1558 32.271 37.9807C32.271 38.8057 32.5987 39.597 33.1821 40.1803C33.7654 40.7637 34.5566 41.0914 35.3816 41.0914C36.2066 41.0914 36.9979 40.7637 37.5812 40.1803C38.1646 39.597 38.4923 38.8057 38.4923 37.9807C38.4923 37.1558 38.1646 36.3645 37.5812 35.7812C36.9979 35.1978 36.2066 34.8701 35.3816 34.8701ZM35.3816 39.1539C35.0705 39.1539 34.7721 39.0303 34.5521 38.8103C34.3321 38.5903 34.2085 38.2919 34.2085 37.9807C34.2085 37.6696 34.3321 37.3712 34.5521 37.1512C34.7721 36.9312 35.0705 36.8076 35.3816 36.8076C35.6928 36.8076 35.9912 36.9312 36.2112 37.1512C36.4312 37.3712 36.5548 37.6696 36.5548 37.9807C36.5548 38.2919 36.4312 38.5903 36.2112 38.8103C35.9912 39.0303 35.6928 39.1539 35.3816 39.1539Z" fill="white"/>
<path d="M54.1146 47.6605V42.6733C54.1139 41.906 53.8088 41.1704 53.2663 40.6277C52.7238 40.0851 51.9883 39.7797 51.221 39.7787H50.3937V35.059C50.3918 34.5068 50.2711 33.9615 50.04 33.4601C49.8088 32.9586 49.4725 32.5128 49.0539 32.1527C49.4725 31.7927 49.8088 31.3468 50.04 30.8454C50.2711 30.3439 50.3918 29.7986 50.3937 29.2465V24.7563C55.1124 20.8784 53.5595 12.9724 47.716 11.0524C46.5851 10.6433 45.3735 10.5075 44.1801 10.6562C43.9233 9.08937 43.2111 7.63282 42.1322 6.46805C41.0532 5.30328 39.6554 4.48181 38.1128 4.10603C36.5702 3.73025 34.9512 3.81679 33.4575 4.35485C31.9637 4.89291 30.6614 5.8587 29.7128 7.13184C28.0307 5.89949 25.9396 5.35991 23.8712 5.62447C22.0253 5.89654 20.3259 6.78556 19.0496 8.14673C17.7734 9.5079 16.9957 11.261 16.8429 13.1207C15.9243 12.9748 14.9855 13.017 14.0836 13.2447C13.1817 13.4724 12.3355 13.8809 11.5961 14.4454C10.8568 15.0099 10.2398 15.7187 9.78256 16.5287C9.3253 17.3388 9.0373 18.2332 8.93601 19.1579C8.8211 20.3184 9.0069 21.489 9.47553 22.5569C9.94415 23.6248 10.6798 24.5541 11.6117 25.2552V29.2465C11.6136 29.7986 11.7342 30.3439 11.9654 30.8454C12.1966 31.3468 12.5329 31.7927 12.9515 32.1527C12.5329 32.5128 12.1966 32.9586 11.9654 33.4601C11.7342 33.9615 11.6136 34.5068 11.6117 35.059V39.7816H10.7795C10.0127 39.7826 9.27762 40.0876 8.73523 40.6296C8.19284 41.1716 7.88742 41.9065 7.88588 42.6733V47.6595C7.06097 47.8728 6.33001 48.3535 5.80733 49.0264C5.28464 49.6993 4.9997 50.5265 4.99707 51.3785C5.1356 56.4606 12.5727 56.4693 12.7122 51.3785C12.7098 50.5263 12.4249 49.6989 11.9022 49.0258C11.3795 48.3527 10.6485 47.8719 9.82338 47.6585V42.6733C9.82389 42.4198 9.92477 42.1768 10.1039 41.9975C10.2831 41.8181 10.526 41.717 10.7795 41.7162H11.7018C11.8886 42.5818 12.3659 43.3574 13.0544 43.9143C13.7429 44.4711 14.6012 44.7757 15.4867 44.7775H30.0315V50.5473C29.1252 50.783 28.3358 51.3409 27.8112 52.1166C27.2866 52.8924 27.0628 53.8327 27.1815 54.7616C27.3003 55.6905 27.7536 56.5442 28.4565 57.163C29.1594 57.7817 30.0638 58.1231 31.0003 58.1231C31.9367 58.1231 32.8411 57.7817 33.544 57.163C34.2469 56.5442 34.7002 55.6905 34.819 54.7616C34.9378 53.8327 34.7139 52.8924 34.1893 52.1166C33.6647 51.3409 32.8753 50.783 31.969 50.5473V44.7784H46.5187C47.4042 44.7767 48.2624 44.4721 48.9509 43.9152C49.6394 43.3584 50.1167 42.5828 50.3036 41.7172H51.221C51.4743 41.7179 51.7171 41.8189 51.8962 41.9981C52.0754 42.1772 52.1764 42.42 52.1771 42.6733V47.6595C51.2708 47.8951 50.4814 48.4531 49.9568 49.2288C49.4322 50.0045 49.2084 50.9449 49.3272 51.8737C49.4459 52.8026 49.8992 53.6564 50.6022 54.2752C51.3051 54.8939 52.2094 55.2352 53.1459 55.2352C54.0823 55.2352 54.9867 54.8939 55.6896 54.2752C56.3925 53.6564 56.8458 52.8026 56.9646 51.8737C57.0834 50.9449 56.8595 50.0045 56.3349 49.2288C55.8103 48.4531 55.021 47.8951 54.1146 47.6595V47.6605ZM10.7747 51.3795C10.7747 51.8887 10.5724 52.3771 10.2123 52.7372C9.85224 53.0973 9.36387 53.2996 8.85463 53.2996C8.3454 53.2996 7.85703 53.0973 7.49694 52.7372C7.13686 52.3771 6.93457 51.8887 6.93457 51.3795C6.93457 50.8703 7.13686 50.3819 7.49694 50.0218C7.85703 49.6617 8.3454 49.4594 8.85463 49.4594C9.36387 49.4594 9.85224 49.6617 10.2123 50.0218C10.5724 50.3819 10.7747 50.8703 10.7747 51.3795ZM32.9203 54.2673C32.9203 54.7766 32.718 55.2649 32.3579 55.625C31.9979 55.9851 31.5095 56.1874 31.0003 56.1874C30.491 56.1874 30.0026 55.9851 29.6426 55.625C29.2825 55.2649 29.0802 54.7766 29.0802 54.2673C29.0802 53.7581 29.2825 53.2697 29.6426 52.9096C30.0026 52.5496 30.491 52.3473 31.0003 52.3473C31.5095 52.3473 31.9979 52.5496 32.3579 52.9096C32.718 53.2697 32.9203 53.7581 32.9203 54.2673ZM10.8648 19.342C10.9717 18.3524 11.3761 17.4186 12.0247 16.6637C12.6733 15.9087 13.5355 15.3682 14.4976 15.1134C15.6882 14.6484 17.0338 15.5077 18.0762 14.6726C18.2795 14.5108 18.4464 14.308 18.5659 14.0773C18.6855 13.8465 18.7549 13.5932 18.7698 13.3338C18.872 11.9065 19.4562 10.5564 20.4266 9.5048C21.397 8.45324 22.696 7.7627 24.1105 7.54646C25.7049 7.34178 27.3165 7.76336 28.6065 8.72253C28.8034 8.8717 29.028 8.98015 29.2672 9.04157C29.5065 9.10299 29.7556 9.11614 30 9.08024C30.2444 9.04435 30.4792 8.96014 30.6907 8.83252C30.9022 8.70491 31.0861 8.53644 31.2318 8.33697C31.9494 7.35402 32.9424 6.60605 34.0853 6.18772C35.2281 5.76939 36.4694 5.6995 37.652 5.9869C38.8345 6.2743 39.9053 6.90607 40.7287 7.80225C41.552 8.69843 42.0911 9.81873 42.2775 11.0214C42.351 11.5053 42.6123 11.9407 43.0048 12.2332C43.3972 12.5257 43.8891 12.6517 44.3739 12.584C49.4685 11.8874 53.2476 18.0167 50.167 22.1455C49.9075 21.3831 49.4165 20.7207 48.7625 20.2507C48.1085 19.7808 47.324 19.5268 46.5187 19.5241H15.4867C14.5993 19.5256 13.7393 19.8313 13.0501 20.3901C12.3608 20.949 11.8839 21.7272 11.6989 22.595C11.0469 21.6425 10.7515 20.4907 10.8648 19.342ZM13.5492 25.3511V23.3991C13.5497 22.8854 13.754 22.3929 14.1172 22.0296C14.4805 21.6664 14.973 21.4621 15.4867 21.4616H17.6102V25.3511H13.5492ZM19.5477 21.4616H24.4641V24.6062C24.4638 24.8037 24.3853 24.993 24.2456 25.1326C24.106 25.2723 23.9166 25.3509 23.7191 25.3511H19.5477V21.4616ZM13.5492 29.2455V27.2886H23.7191C24.4305 27.2881 25.1126 27.0054 25.6157 26.5024C26.1188 25.9995 26.4018 25.3175 26.4026 24.6062V21.4616H46.5187C47.0324 21.4621 47.5249 21.6664 47.8881 22.0296C48.2514 22.3929 48.4557 22.8854 48.4562 23.3991V29.2455C48.4557 29.7592 48.2514 30.2517 47.8881 30.6149C47.5249 30.9782 47.0324 31.1825 46.5187 31.183H15.4867C14.973 31.1825 14.4805 30.9782 14.1172 30.6149C13.754 30.2517 13.5497 29.7592 13.5492 29.2455ZM24.4641 33.1205V36.2651C24.4638 36.4626 24.3853 36.6519 24.2456 36.7915C24.106 36.9312 23.9166 37.0098 23.7191 37.01H19.5477V33.1205H24.4641ZM17.6102 33.1205V37.01H13.5492V35.058C13.5497 34.5443 13.754 34.0518 14.1172 33.6885C14.4805 33.3253 14.973 33.121 15.4867 33.1205H17.6102ZM46.5177 42.8419H15.4877C14.974 42.8414 14.4815 42.6371 14.1182 42.2739C13.755 41.9106 13.5507 41.4181 13.5502 40.9044V38.9475H23.7201C24.4316 38.947 25.1139 38.6641 25.617 38.161C26.1201 37.6579 26.403 36.9756 26.4035 36.2641V33.1215H46.5196C47.0333 33.122 47.5258 33.3263 47.8891 33.6895C48.2523 34.0528 48.4566 34.5453 48.4571 35.059V40.7262C48.4791 40.9946 48.4455 41.2648 48.3583 41.5196C48.271 41.7745 48.1322 42.0086 47.9503 42.2073C47.7684 42.406 47.5475 42.565 47.3013 42.6744C47.0551 42.7837 46.789 42.8411 46.5196 42.8429L46.5177 42.8419ZM53.1459 53.2986C52.6442 53.2873 52.167 53.0801 51.8162 52.7214C51.4654 52.3626 51.2689 51.8808 51.2689 51.379C51.2689 50.8772 51.4654 50.3954 51.8162 50.0367C52.167 49.6779 52.6442 49.4707 53.1459 49.4594C53.6475 49.4707 54.1248 49.6779 54.4756 50.0367C54.8264 50.3954 55.0228 50.8772 55.0228 51.379C55.0228 51.8808 54.8264 52.3626 54.4756 52.7214C54.1248 53.0801 53.6475 53.2873 53.1459 53.2986Z" fill="#00EAFF"/>
</svg>
