<svg width="1150" height="629" viewBox="0 0 1150 629" fill="none" xmlns="http://www.w3.org/2000/svg">
<g clip-path="url(#clip0_2185_1250)">
<path d="M613.89 0L428.01 346.65C411.6 377.21 379.72 396.3 345.05 396.3H344.41C309.73 396.3 277.85 377.21 261.45 346.65L75.5596 0H198.72L344.73 275.93L490.73 0H613.88H613.89Z" fill="#B71918"/>
<path d="M1073.81 0L887.93 346.65C871.52 377.21 839.639 396.3 804.969 396.3H804.33C769.65 396.3 737.77 377.21 721.37 346.65L535.479 0H658.64L804.65 275.93L950.65 0H1073.8H1073.81Z" fill="#7F7E7E"/>
<path d="M843.849 0L657.97 346.65C641.56 377.21 609.68 396.3 575.01 396.3H574.37C539.69 396.3 507.81 377.21 491.41 346.65L305.52 0H428.68L574.69 275.93L720.69 0H843.84H843.849Z" fill="#0D0802"/>
<path d="M114.6 578.22L57.95 468.83H0L69.65 601.97C78.29 618.48 95.39 628.83 114.02 628.83C132.65 628.83 149.66 618.54 158.32 602.1L228.57 468.83H174.5L114.6 578.22Z" fill="#0D0802"/>
<path d="M291.06 468.82H237.65V628.83H291.06V468.82Z" fill="#0D0802"/>
<path d="M459.94 566.77L362.2 468.82H308.79V628.83H362.2V530.88L459.94 628.83H513.13V468.82H459.94V566.77Z" fill="#0D0802"/>
<path d="M584.49 468.82H531.08V628.83H685.26V587.75H584.49V468.82Z" fill="#0D0802"/>
<path d="M1089.9 468.82L1036.28 578.88L981.79 468.82H920.81V628.83H974.22V555.74L1011.84 628.83H1060.93L1096.18 556.61V628.83H1149.37V468.82H1089.9Z" fill="#0D0802"/>
<path d="M803.3 468.83C784.72 468.83 767.66 479.12 759 495.56L688.75 628.83H742.82L802.72 519.4L859.37 628.83H917.32L847.67 495.69C839.03 479.18 821.94 468.83 803.3 468.83Z" fill="#0D0802"/>
</g>
<defs>
<clipPath id="clip0_2185_1250">
<rect width="1149.37" height="628.83" fill="white"/>
</clipPath>
</defs>
</svg>
