<svg width="32" height="32" viewBox="0 0 32 32" fill="none" xmlns="http://www.w3.org/2000/svg">
<g clip-path="url(#clip0_363_23)">
<path d="M14.2822 6.83594C15.0579 5.53472 16.9421 5.53472 17.7178 6.83594L27.1602 22.6797C27.9543 24.0127 26.994 25.7029 25.4424 25.7031H6.55762C5.00595 25.7029 4.04573 24.0127 4.83984 22.6797L14.2822 6.83594Z" stroke="#00EAFF" stroke-width="2"/>
<path d="M15.9996 20.264C15.8196 20.264 15.6636 20.204 15.5316 20.084C15.3996 19.952 15.3276 19.79 15.3156 19.598L15.0996 10.49C15.0996 10.25 15.1836 10.04 15.3516 9.86C15.5316 9.68 15.7476 9.59 15.9996 9.59C16.2516 9.59 16.4616 9.68 16.6296 9.86C16.8096 10.04 16.8936 10.25 16.8816 10.49L16.6656 19.598C16.6656 19.778 16.5996 19.934 16.4676 20.066C16.3356 20.198 16.1796 20.264 15.9996 20.264ZM15.9996 23.45C15.6756 23.45 15.3996 23.33 15.1716 23.09C14.9436 22.862 14.8296 22.586 14.8296 22.262C14.8296 21.95 14.9436 21.68 15.1716 21.452C15.3996 21.212 15.6756 21.092 15.9996 21.092C16.3116 21.092 16.5816 21.212 16.8096 21.452C17.0496 21.68 17.1696 21.95 17.1696 22.262C17.1696 22.586 17.0556 22.862 16.8276 23.09C16.5996 23.33 16.3236 23.45 15.9996 23.45Z" fill="#00EAFF"/>
</g>
<defs>
<clipPath id="clip0_363_23">
<rect width="32" height="32" fill="white"/>
</clipPath>
</defs>
</svg>
