<svg width="60" height="60" viewBox="0 0 60 60" fill="none" xmlns="http://www.w3.org/2000/svg">
<g clip-path="url(#clip0_164_21)">
<path d="M56.0067 0H3.70121C1.65333 0 0 1.66273 0 3.70121V56.42C0 58.4585 1.66273 60.1212 3.70121 60.1212H56.0161C58.0545 60.1212 59.7173 58.4585 59.7173 56.42V3.70121C59.7133 2.71919 59.3208 1.77865 58.6255 1.08513C57.9302 0.391607 56.9887 0.00148141 56.0067 0ZM3.70121 1.81303H56.0161C57.0588 1.81303 57.9042 2.65848 57.9042 3.70121V7.56212H1.80364V3.70121C1.80364 2.65848 2.65848 1.81303 3.70121 1.81303ZM56.0067 58.3082H3.70121C2.65848 58.3082 1.81303 57.4627 1.81303 56.42V9.37515H57.9042V56.42C57.9042 57.4627 57.0494 58.3082 56.0067 58.3082Z" fill="#00EAFF"/>
<path fill-rule="evenodd" clip-rule="evenodd" d="M50.1027 6.02678H52.1976C52.4367 6.02678 52.6661 5.93177 52.8352 5.76264C53.0044 5.59352 53.0994 5.36414 53.0994 5.12496C53.0994 4.88579 53.0044 4.6564 52.8352 4.48728C52.6661 4.31816 52.4367 4.22314 52.1976 4.22314H50.1027C49.8635 4.22314 49.6342 4.31816 49.465 4.48728C49.2959 4.6564 49.2009 4.88579 49.2009 5.12496C49.2009 5.36414 49.2959 5.59352 49.465 5.76264C49.6342 5.93177 49.8635 6.02678 50.1027 6.02678ZM44.5697 6.02678H46.6645C46.9037 6.02678 47.1331 5.93177 47.3022 5.76264C47.4713 5.59352 47.5664 5.36414 47.5664 5.12496C47.5664 4.88579 47.4713 4.6564 47.3022 4.48728C47.1331 4.31816 46.9037 4.22314 46.6645 4.22314H44.5697C44.3305 4.22314 44.1011 4.31816 43.932 4.48728C43.7629 4.6564 43.6679 4.88579 43.6679 5.12496C43.6679 5.36414 43.7629 5.59352 43.932 5.76264C44.1011 5.93177 44.3305 6.02678 44.5697 6.02678ZM39.046 6.02678H41.1409C41.3801 6.02678 41.6095 5.93177 41.7786 5.76264C41.9477 5.59352 42.0427 5.36414 42.0427 5.12496C42.0427 4.88579 41.9477 4.6564 41.7786 4.48728C41.6095 4.31816 41.3801 4.22314 41.1409 4.22314H39.046C38.8069 4.22314 38.5775 4.31816 38.4084 4.48728C38.2392 4.6564 38.1442 4.88579 38.1442 5.12496C38.1442 5.36414 38.2392 5.59352 38.4084 5.76264C38.5775 5.93177 38.8069 6.02678 39.046 6.02678Z" fill="#00EAFF"/>
<path d="M50.103 6.02678H52.1979C52.437 6.02678 52.6664 5.93177 52.8355 5.76264C53.0047 5.59352 53.0997 5.36414 53.0997 5.12496C53.0997 4.88579 53.0047 4.6564 52.8355 4.48728C52.6664 4.31816 52.437 4.22314 52.1979 4.22314H50.103C49.8638 4.22314 49.6345 4.31816 49.4653 4.48728C49.2962 4.6564 49.2012 4.88579 49.2012 5.12496C49.2012 5.36414 49.2962 5.59352 49.4653 5.76264C49.6345 5.93177 49.8638 6.02678 50.103 6.02678ZM44.57 6.02678H46.6648C46.904 6.02678 47.1334 5.93177 47.3025 5.76264C47.4716 5.59352 47.5667 5.36414 47.5667 5.12496C47.5667 4.88579 47.4716 4.6564 47.3025 4.48728C47.1334 4.31816 46.904 4.22314 46.6648 4.22314H44.57C44.3308 4.22314 44.1014 4.31816 43.9323 4.48728C43.7632 4.6564 43.6682 4.88579 43.6682 5.12496C43.6682 5.36414 43.7632 5.59352 43.9323 5.76264C44.1014 5.93177 44.3308 6.02678 44.57 6.02678ZM39.0464 6.02678H41.1412C41.3804 6.02678 41.6098 5.93177 41.7789 5.76264C41.948 5.59352 42.043 5.36414 42.043 5.12496C42.043 4.88579 41.948 4.6564 41.7789 4.48728C41.6098 4.31816 41.3804 4.22314 41.1412 4.22314H39.0464C38.8072 4.22314 38.5778 4.31816 38.4087 4.48728C38.2395 4.6564 38.1445 4.88579 38.1445 5.12496C38.1445 5.36414 38.2395 5.59352 38.4087 5.76264C38.5778 5.93177 38.8072 6.02678 39.0464 6.02678Z" fill="white"/>
<path fill-rule="evenodd" clip-rule="evenodd" d="M18.4194 42H6.03226C5.75849 42 5.49593 42.1054 5.30234 42.2929C5.10876 42.4804 5 42.7348 5 43V51C5 51.2652 5.10876 51.5196 5.30234 51.7071C5.49593 51.8946 5.75849 52 6.03226 52H18.4194C18.6931 52 18.9557 51.8946 19.1493 51.7071C19.3429 51.5196 19.4516 51.2652 19.4516 51V43C19.4516 42.7348 19.3429 42.4804 19.1493 42.2929C18.9557 42.1054 18.6931 42 18.4194 42ZM17.3871 44V49.7194L12.871 46.2194C12.6879 46.0774 12.4603 46 12.2258 46C11.9913 46 11.7637 46.0774 11.5806 46.2194L7.06452 49.7194V44H17.3871ZM10.0072 50L12.2258 48.2806L14.4444 50H10.0072ZM35.9677 42H23.5806C23.3069 42 23.0443 42.1054 22.8507 42.2929C22.6571 42.4804 22.5484 42.7348 22.5484 43V51C22.5484 51.2652 22.6571 51.5196 22.8507 51.7071C23.0443 51.8946 23.3069 52 23.5806 52H35.9677C36.2415 52 36.5041 51.8946 36.6977 51.7071C36.8912 51.5196 37 51.2652 37 51V43C37 42.7348 36.8912 42.4804 36.6977 42.2929C36.5041 42.1054 36.2415 42 35.9677 42ZM34.9355 44V49.7194L30.4194 46.2194C30.2363 46.0774 30.0087 46 29.7742 46C29.5397 46 29.3121 46.0774 29.129 46.2194L24.6129 49.7194V44H34.9355ZM27.5556 50L29.7742 48.2806L31.9928 50H27.5556ZM8.09677 54C7.823 54 7.56044 54.1054 7.36686 54.2929C7.17327 54.4804 7.06452 54.7348 7.06452 55C7.06452 55.2652 7.17327 55.5196 7.36686 55.7071C7.56044 55.8946 7.823 56 8.09677 56H16.3548C16.6286 56 16.8912 55.8946 17.0848 55.7071C17.2783 55.5196 17.3871 55.2652 17.3871 55C17.3871 54.7348 17.2783 54.4804 17.0848 54.2929C16.8912 54.1054 16.6286 54 16.3548 54H8.09677ZM25.6452 54C25.3714 54 25.1088 54.1054 24.9152 54.2929C24.7217 54.4804 24.6129 54.7348 24.6129 55C24.6129 55.2652 24.7217 55.5196 24.9152 55.7071C25.1088 55.8946 25.3714 56 25.6452 56H33.9032C34.177 56 34.4396 55.8946 34.6331 55.7071C34.8267 55.5196 34.9355 55.2652 34.9355 55C34.9355 54.7348 34.8267 54.4804 34.6331 54.2929C34.4396 54.1054 34.177 54 33.9032 54H25.6452Z" fill="white"/>
<rect x="15" y="19.8569" width="31" height="3.32143" rx="1" fill="#00EAFF"/>
<path d="M20.699 33.6313L17.7676 22.3943H43.2319L40.8064 33.5513C40.6066 34.4707 39.7929 35.1264 38.8521 35.1264H22.6342C21.7241 35.1264 20.9287 34.5119 20.699 33.6313Z" stroke="#00EAFF" stroke-width="2"/>
<rect x="22.75" y="24.8335" width="1.79" height="8.92488" rx="0.895" transform="rotate(-5.82754 22.75 24.8335)" fill="#00EAFF"/>
<rect x="29.3926" y="24.6086" width="1.79" height="8.92488" rx="0.895" fill="#00EAFF"/>
<rect x="35.5107" y="24.4897" width="1.79396" height="8.92488" rx="0.896982" transform="rotate(7.3705 35.5107 24.4897)" fill="#00EAFF"/>
<rect x="29.2041" y="15.1265" width="2.43487" height="14.5555" rx="1" transform="rotate(-60.8581 29.2041 15.1265)" fill="#00EAFF"/>
<path fill-rule="evenodd" clip-rule="evenodd" d="M53.4194 42H41.0323C40.7585 42 40.4959 42.1054 40.3023 42.2929C40.1088 42.4804 40 42.7348 40 43V51C40 51.2652 40.1088 51.5196 40.3023 51.7071C40.4959 51.8946 40.7585 52 41.0323 52H53.4194C53.6931 52 53.9557 51.8946 54.1493 51.7071C54.3429 51.5196 54.4516 51.2652 54.4516 51V43C54.4516 42.7348 54.3429 42.4804 54.1493 42.2929C53.9557 42.1054 53.6931 42 53.4194 42ZM52.3871 44V49.7194L47.871 46.2194C47.6879 46.0774 47.4603 46 47.2258 46C46.9913 46 46.7637 46.0774 46.5806 46.2194L42.0645 49.7194V44H52.3871ZM45.0072 50L47.2258 48.2806L49.4444 50H45.0072ZM43.0968 54C42.823 54 42.5604 54.1054 42.3669 54.2929C42.1733 54.4804 42.0645 54.7348 42.0645 55C42.0645 55.2652 42.1733 55.5196 42.3669 55.7071C42.5604 55.8946 42.823 56 43.0968 56H51.3548C51.6286 56 51.8912 55.8946 52.0848 55.7071C52.2783 55.5196 52.3871 55.2652 52.3871 55C52.3871 54.7348 52.2783 54.4804 52.0848 54.2929C51.8912 54.1054 51.6286 54 51.3548 54H43.0968Z" fill="white"/>
</g>
<defs>
<clipPath id="clip0_164_21">
<rect width="60" height="60" fill="white"/>
</clipPath>
</defs>
</svg>
