<svg width="62" height="62" viewBox="0 0 62 62" fill="none" xmlns="http://www.w3.org/2000/svg">
<path d="M57.1527 0.939453H4.84721C2.79933 0.939453 1.146 2.60218 1.146 4.64067V57.3595C1.146 59.3979 2.80872 61.0607 4.84721 61.0607H57.1621C59.2005 61.0607 60.8633 59.3979 60.8633 57.3595V4.64067C60.8593 3.65864 60.4668 2.71811 59.7715 2.02458C59.0762 1.33106 58.1347 0.940935 57.1527 0.939453ZM4.84721 2.75248H57.1621C58.2048 2.75248 59.0502 3.59794 59.0502 4.64067V8.50157H2.94963V4.64067C2.94963 3.59794 3.80448 2.75248 4.84721 2.75248ZM57.1527 59.2476H4.84721C3.80448 59.2476 2.95903 58.4022 2.95903 57.3595V10.3146H59.0502V57.3595C59.0502 58.4022 58.1954 59.2476 57.1527 59.2476Z" fill="#00EAFF"/>
<path d="M51.103 7.02678H53.1978C53.437 7.02678 53.6664 6.93177 53.8355 6.76264C54.0046 6.59352 54.0996 6.36414 54.0996 6.12496C54.0996 5.88579 54.0046 5.6564 53.8355 5.48728C53.6664 5.31816 53.437 5.22314 53.1978 5.22314H51.103C50.8638 5.22314 50.6344 5.31816 50.4653 5.48728C50.2962 5.6564 50.2011 5.88579 50.2011 6.12496C50.2011 6.36414 50.2962 6.59352 50.4653 6.76264C50.6344 6.93177 50.8638 7.02678 51.103 7.02678ZM45.5699 7.02678H47.6648C47.904 7.02678 48.1333 6.93177 48.3025 6.76264C48.4716 6.59352 48.5666 6.36414 48.5666 6.12496C48.5666 5.88579 48.4716 5.6564 48.3025 5.48728C48.1333 5.31816 47.904 5.22314 47.6648 5.22314H45.5699C45.3307 5.22314 45.1014 5.31816 44.9322 5.48728C44.7631 5.6564 44.6681 5.88579 44.6681 6.12496C44.6681 6.36414 44.7631 6.59352 44.9322 6.76264C45.1014 6.93177 45.3307 7.02678 45.5699 7.02678ZM40.0463 7.02678H42.1411C42.3803 7.02678 42.6097 6.93177 42.7788 6.76264C42.9479 6.59352 43.043 6.36414 43.043 6.12496C43.043 5.88579 42.9479 5.6564 42.7788 5.48728C42.6097 5.31816 42.3803 5.22314 42.1411 5.22314H40.0463C39.8071 5.22314 39.5777 5.31816 39.4086 5.48728C39.2395 5.6564 39.1445 5.88579 39.1445 6.12496C39.1445 6.36414 39.2395 6.59352 39.4086 6.76264C39.5777 6.93177 39.8071 7.02678 40.0463 7.02678ZM13.0481 24.7813L19.6896 27.825L25.063 37.3504C25.0724 37.3598 25.0817 37.3692 25.0817 37.3786C25.1005 37.4162 25.1287 37.4444 25.1569 37.4819C25.1851 37.5101 25.2133 37.5477 25.2414 37.5759C25.2696 37.6041 25.2978 37.6228 25.326 37.6416C25.3636 37.6698 25.4105 37.698 25.4481 37.7168C25.4669 37.7262 25.4763 37.7356 25.4951 37.745C25.5045 37.7544 25.5233 37.745 25.5327 37.7544C25.636 37.7919 25.7393 37.8201 25.8427 37.8201C25.9272 37.8201 26.0024 37.8107 26.0869 37.7919L26.1433 37.7637C26.1714 37.7544 26.1996 37.7356 26.2278 37.7262C26.303 37.6886 26.3687 37.651 26.4251 37.604C26.4345 37.5947 26.4533 37.5947 26.4627 37.5759L31.0657 33.2359L35.5278 35.3871C35.6499 35.4434 35.7908 35.4716 35.9224 35.4716C36.2324 35.4716 36.5236 35.3119 36.6927 35.0395L48.4914 15.7068C48.5008 15.688 48.5008 15.6692 48.5196 15.6504C48.5384 15.6128 48.5572 15.5753 48.5666 15.5283C48.576 15.5001 48.5948 15.4719 48.6042 15.4438C48.6136 15.4156 48.6136 15.378 48.6136 15.3498C48.623 15.3028 48.623 15.2653 48.623 15.2183V15.1995C48.623 15.1807 48.6324 15.1525 48.623 15.1338C48.623 15.0962 48.6042 15.068 48.5948 15.0304C48.5854 15.0022 48.5948 14.9741 48.5854 14.9553C48.576 14.9365 48.5666 14.9271 48.5572 14.9083C48.5478 14.8801 48.5384 14.8613 48.529 14.8331V14.8144C48.5102 14.7862 48.4914 14.7674 48.4727 14.7392C48.4445 14.7016 48.4257 14.6641 48.3881 14.6265C48.3787 14.6171 48.3787 14.6077 48.3599 14.5983C48.3505 14.5889 48.3411 14.5889 48.3317 14.5795C48.3036 14.5513 48.266 14.5325 48.2378 14.5138C48.2025 14.4855 48.1648 14.4603 48.1251 14.4386C48.1063 14.4292 48.0781 14.4198 48.0593 14.4104C48.0217 14.3916 47.9842 14.3916 47.9466 14.3822C47.909 14.3728 47.8714 14.3541 47.8339 14.3541H47.7587C47.7117 14.3541 47.6742 14.3541 47.6272 14.3634C47.5896 14.3634 47.5521 14.3634 47.5145 14.3728H47.5051L13.1984 23.0998C12.8227 23.1938 12.5596 23.5131 12.522 23.8983C12.4845 24.2647 12.7005 24.6216 13.0481 24.7813ZM38.1957 20.3568L25.1569 28.8489C25.1569 28.8489 25.1475 28.8489 25.1475 28.8583C24.8845 29.0274 24.7248 29.328 24.7342 29.6474L24.8375 33.2828L21.6154 27.5713L38.1957 20.3568ZM26.6975 34.8704L26.5848 31.0941L29.2902 32.428L26.6975 34.8704ZM35.5842 33.3956L27.4866 29.4971L44.8842 18.168L35.5842 33.3956ZM37.0496 18.8819L20.3378 26.1341L16.1293 24.1989L37.0496 18.8819ZM42.6484 32.9916C42.9584 32.5971 42.8833 32.0241 42.4887 31.7234C42.0942 31.4228 41.5211 31.4886 41.2205 31.8831L39.4169 34.2128C39.3122 34.346 39.2472 34.5061 39.2295 34.6745C39.2117 34.843 39.2418 35.0131 39.3164 35.1652C39.391 35.3173 39.507 35.4453 39.6511 35.5344C39.7951 35.6235 39.9614 35.6701 40.1308 35.6689C40.4033 35.6689 40.6663 35.5468 40.8448 35.3213L42.6484 32.9916ZM16.8339 38.7971C17.1063 38.7971 17.3693 38.675 17.5478 38.4495L19.3514 36.1198C19.6614 35.7253 19.5863 35.1522 19.1917 34.8516C18.7972 34.551 18.2242 34.6168 17.9236 35.0113L16.1199 37.341C16.0466 37.4346 15.9926 37.5417 15.961 37.6563C15.9293 37.7708 15.9207 37.8905 15.9355 38.0084C15.9504 38.1263 15.9884 38.2401 16.0475 38.3432C16.1065 38.4463 16.1854 38.5367 16.2796 38.6092C16.4393 38.7407 16.6366 38.7971 16.8339 38.7971ZM29.4499 39.0507L29.0742 39.5392C28.9695 39.6724 28.9045 39.8324 28.8867 40.0009C28.8689 40.1694 28.8991 40.3394 28.9737 40.4915C29.0482 40.6437 29.1642 40.7716 29.3083 40.8607C29.4524 40.9498 29.6187 40.9965 29.7881 40.9953C30.0605 40.9953 30.3236 40.8731 30.5021 40.6477L30.8778 40.1592C31.1878 39.7647 31.1127 39.1916 30.7181 38.891C30.3236 38.5904 29.7505 38.6562 29.4499 39.0507Z" fill="#00EAFF"/>
<path d="M51.1033 7.02678H53.1981C53.4373 7.02678 53.6667 6.93177 53.8358 6.76264C54.0049 6.59352 54.0999 6.36414 54.0999 6.12496C54.0999 5.88579 54.0049 5.6564 53.8358 5.48728C53.6667 5.31816 53.4373 5.22314 53.1981 5.22314H51.1033C50.8641 5.22314 50.6347 5.31816 50.4656 5.48728C50.2965 5.6564 50.2014 5.88579 50.2014 6.12496C50.2014 6.36414 50.2965 6.59352 50.4656 6.76264C50.6347 6.93177 50.8641 7.02678 51.1033 7.02678ZM45.5702 7.02678H47.6651C47.9043 7.02678 48.1336 6.93177 48.3028 6.76264C48.4719 6.59352 48.5669 6.36414 48.5669 6.12496C48.5669 5.88579 48.4719 5.6564 48.3028 5.48728C48.1336 5.31816 47.9043 5.22314 47.6651 5.22314H45.5702C45.3311 5.22314 45.1017 5.31816 44.9326 5.48728C44.7634 5.6564 44.6684 5.88579 44.6684 6.12496C44.6684 6.36414 44.7634 6.59352 44.9326 6.76264C45.1017 6.93177 45.3311 7.02678 45.5702 7.02678ZM40.0466 7.02678H42.1414C42.3806 7.02678 42.61 6.93177 42.7791 6.76264C42.9482 6.59352 43.0433 6.36414 43.0433 6.12496C43.0433 5.88579 42.9482 5.6564 42.7791 5.48728C42.61 5.31816 42.3806 5.22314 42.1414 5.22314H40.0466C39.8074 5.22314 39.578 5.31816 39.4089 5.48728C39.2398 5.6564 39.1448 5.88579 39.1448 6.12496C39.1448 6.36414 39.2398 6.59352 39.4089 6.76264C39.578 6.93177 39.8074 7.02678 40.0466 7.02678Z" fill="white"/>
<path d="M32.2119 38.459L32.8788 37.6229C33.0272 37.4356 33.0957 37.1973 33.0693 36.9598C33.0429 36.7223 32.9238 36.5049 32.7379 36.3547C32.5506 36.2063 32.3123 36.1379 32.0748 36.1643C31.8374 36.1907 31.6199 36.3097 31.4697 36.4956L30.8028 37.3317C30.6544 37.519 30.5859 37.7573 30.6123 37.9948C30.6387 38.2323 30.7578 38.4497 30.9437 38.5999C31.1128 38.7314 31.31 38.7972 31.5073 38.7972C31.7703 38.7972 32.0334 38.6844 32.2119 38.459ZM13.64 31.2162L13.2643 31.7047C13.191 31.7983 13.137 31.9054 13.1053 32.02C13.0737 32.1345 13.065 32.2542 13.0799 32.3721C13.0947 32.49 13.1328 32.6038 13.1918 32.7069C13.2509 32.81 13.3298 32.9004 13.424 32.9729C13.5837 33.1044 13.781 33.1608 13.9782 33.1608C14.2507 33.1608 14.5137 33.0387 14.6922 32.8132L15.0679 32.3247C15.1412 32.2312 15.1952 32.124 15.2269 32.0095C15.2585 31.8949 15.2672 31.7753 15.2523 31.6574C15.2375 31.5395 15.1994 31.4257 15.1404 31.3225C15.0813 31.2194 15.0024 31.129 14.9082 31.0565C14.8146 30.9834 14.7075 30.9295 14.5929 30.8979C14.4784 30.8663 14.3588 30.8577 14.2409 30.8725C14.123 30.8874 14.0093 30.9254 13.9061 30.9844C13.803 31.0434 13.7126 31.1222 13.64 31.2162ZM16.4113 30.6244L17.0782 29.7884C17.3882 29.3938 17.3225 28.8302 16.9373 28.5202C16.5522 28.2102 15.9791 28.2759 15.6691 28.6611L15.0022 29.4972C14.8538 29.6844 14.7853 29.9227 14.8117 30.1602C14.8381 30.3977 14.9572 30.6152 15.1431 30.7653C15.3122 30.8968 15.5094 30.9626 15.7067 30.9626C15.9697 30.9626 16.2328 30.8499 16.4113 30.6244ZM20.9016 43.7196H10.6152C10.376 43.7196 10.1466 43.8146 9.97752 43.9837C9.80839 44.1528 9.71338 44.3822 9.71338 44.6214V54.222C9.71338 54.7199 10.1173 55.1238 10.6152 55.1238H20.9016C21.3994 55.1238 21.8034 54.7199 21.8034 54.222V44.6214C21.8034 44.3822 21.7084 44.1528 21.5392 43.9837C21.3701 43.8146 21.1407 43.7196 20.9016 43.7196ZM19.9997 53.3202H11.5264V45.5326H19.9997V53.3202ZM36.1385 43.7196H25.8616C25.6224 43.7196 25.393 43.8146 25.2239 43.9837C25.0548 44.1528 24.9597 44.3822 24.9597 44.6214V54.222C24.9597 54.7199 25.3637 55.1238 25.8616 55.1238H36.1479C36.6458 55.1238 37.0497 54.7199 37.0497 54.222V44.6214C37.0497 44.1235 36.6458 43.7196 36.1385 43.7196ZM35.2367 53.3202H26.7634V45.5326H35.2367V53.3202ZM51.3849 43.7196H41.0985C40.8594 43.7196 40.63 43.8146 40.4608 43.9837C40.2917 44.1528 40.1967 44.3822 40.1967 44.6214V54.222C40.1967 54.7199 40.6007 55.1238 41.0985 55.1238H51.3849C51.8828 55.1238 52.2867 54.7199 52.2867 54.222V44.6214C52.2867 44.3822 52.1917 44.1528 52.0226 43.9837C51.8535 43.8146 51.6241 43.7196 51.3849 43.7196ZM50.4831 53.3202H42.0097V45.5326H50.4831V53.3202Z" fill="white"/>
<path d="M32.2118 38.459L32.8788 37.6229C33.0272 37.4356 33.0956 37.1973 33.0692 36.9598C33.0428 36.7223 32.9237 36.5049 32.7378 36.3547C32.5506 36.2063 32.3123 36.1379 32.0748 36.1643C31.8373 36.1907 31.6198 36.3097 31.4697 36.4956L30.8027 37.3317C30.6543 37.519 30.5859 37.7573 30.6122 37.9948C30.6386 38.2323 30.7577 38.4497 30.9436 38.5999C31.1127 38.7314 31.31 38.7972 31.5072 38.7972C31.7703 38.7972 32.0333 38.6844 32.2118 38.459ZM13.64 31.2162L13.2642 31.7047C13.1909 31.7983 13.1369 31.9054 13.1053 32.02C13.0736 32.1345 13.065 32.2542 13.0798 32.3721C13.0947 32.49 13.1327 32.6038 13.1918 32.7069C13.2508 32.81 13.3297 32.9004 13.4239 32.9729C13.5836 33.1044 13.7809 33.1608 13.9782 33.1608C14.2506 33.1608 14.5136 33.0387 14.6921 32.8132L15.0679 32.3247C15.1411 32.2312 15.1952 32.124 15.2268 32.0095C15.2585 31.8949 15.2671 31.7753 15.2523 31.6574C15.2374 31.5395 15.1994 31.4257 15.1403 31.3225C15.0812 31.2194 15.0023 31.129 14.9082 31.0565C14.8145 30.9834 14.7074 30.9295 14.5929 30.8979C14.4783 30.8663 14.3587 30.8577 14.2408 30.8725C14.123 30.8874 14.0092 30.9254 13.9061 30.9844C13.803 31.0434 13.7125 31.1222 13.64 31.2162ZM16.4112 30.6244L17.0782 29.7884C17.3882 29.3938 17.3224 28.8302 16.9372 28.5202C16.5521 28.2102 15.9791 28.2759 15.6691 28.6611L15.0021 29.4972C14.8537 29.6844 14.7852 29.9227 14.8116 30.1602C14.838 30.3977 14.9571 30.6152 15.143 30.7653C15.3121 30.8968 15.5094 30.9626 15.7066 30.9626C15.9697 30.9626 16.2327 30.8499 16.4112 30.6244Z" fill="#00EAFF"/>
</svg>
