<svg width="140" height="140" viewBox="0 0 140 140" fill="none" xmlns="http://www.w3.org/2000/svg">
<path d="M124.542 123.226H15.4573C13.1921 123.226 11.3557 121.39 11.3557 119.125V33.1921C11.3557 30.927 13.1921 29.0906 15.4573 29.0906H124.542C126.808 29.0906 128.644 30.927 128.644 33.1921V119.124C128.644 121.39 126.808 123.226 124.542 123.226Z" fill="#2626BC" fill-opacity="0.0627451"/>
<path d="M48.0209 116.663H17.9297C17.5671 116.663 17.2193 116.519 16.9629 116.263C16.7065 116.007 16.5625 115.659 16.5625 115.296V95.6826C16.5625 95.32 16.7065 94.9723 16.9629 94.7159C17.2193 94.4595 17.5671 94.3154 17.9297 94.3154H48.0209C48.3835 94.3154 48.7313 94.4595 48.9877 94.7159C49.2441 94.9723 49.3881 95.32 49.3881 95.6826V115.296C49.3881 115.659 49.2441 116.007 48.9877 116.263C48.7313 116.519 48.3835 116.663 48.0209 116.663Z" fill="#11A2AA"/>
<path d="M22.424 110.17L26.6508 105.943L30.9243 110.216C31.0512 110.343 31.2019 110.444 31.3678 110.513C31.5336 110.581 31.7114 110.617 31.8909 110.617C33.1088 110.617 33.7188 109.144 32.8575 108.283L32.1939 107.619L37.0127 102.799L44.3654 110.152C44.4923 110.279 44.643 110.379 44.8089 110.448C44.9747 110.517 45.1525 110.552 45.332 110.552C46.5499 110.552 47.1599 109.08 46.2986 108.218L37.979 99.8986C37.8521 99.7716 37.7014 99.6709 37.5355 99.6021C37.3696 99.5334 37.1918 99.498 37.0123 99.498C36.8327 99.498 36.6549 99.5334 36.4891 99.6021C36.3232 99.6709 36.1725 99.7716 36.0455 99.8986L30.2601 105.685L27.6171 103.042C27.3607 102.786 27.013 102.642 26.6504 102.642C26.2879 102.642 25.9402 102.786 25.6839 103.043L20.4905 108.236C19.6292 109.097 20.2392 110.57 21.4571 110.57C21.6366 110.57 21.8144 110.535 21.9804 110.466C22.1463 110.397 22.297 110.297 22.424 110.17Z" fill="#00EAFF"/>
<path d="M85.0455 116.663H54.9542C54.5916 116.663 54.2439 116.519 53.9875 116.263C53.7311 116.007 53.587 115.659 53.587 115.296V95.6826C53.587 95.32 53.7311 94.9723 53.9875 94.7159C54.2439 94.4595 54.5916 94.3154 54.9542 94.3154H85.0455C85.4081 94.3154 85.7558 94.4595 86.0122 94.7159C86.2686 94.9723 86.4127 95.32 86.4127 95.6826V115.296C86.4127 115.659 86.2686 116.007 86.0122 116.263C85.7558 116.519 85.4081 116.663 85.0455 116.663Z" fill="#11A2AA"/>
<path d="M59.4482 110.17L63.675 105.943L67.9486 110.216C68.0755 110.343 68.2262 110.444 68.392 110.512C68.5579 110.581 68.7356 110.617 68.9152 110.616C70.133 110.616 70.7431 109.144 69.8818 108.283L69.2181 107.619L74.0369 102.799L81.3899 110.152C81.5168 110.279 81.6675 110.379 81.8334 110.448C81.9992 110.517 82.177 110.552 82.3565 110.552C83.5744 110.552 84.1845 109.08 83.3231 108.218L75.0038 99.8988C74.8768 99.7718 74.7261 99.6711 74.5603 99.6024C74.3944 99.5337 74.2166 99.4983 74.037 99.4983C73.8575 99.4983 73.6797 99.5337 73.5138 99.6024C73.348 99.6711 73.1972 99.7718 73.0703 99.8988L67.2849 105.686L64.6419 103.043C64.3854 102.786 64.0377 102.642 63.6752 102.642C63.3127 102.642 62.965 102.786 62.7087 103.043L57.5153 108.236C56.6539 109.098 57.264 110.57 58.4819 110.57C58.6613 110.57 58.8391 110.535 59.0049 110.466C59.1707 110.397 59.3213 110.297 59.4482 110.17Z" fill="#00EAFF"/>
<path d="M122.07 116.663H91.9785C91.6159 116.663 91.2682 116.519 91.0118 116.263C90.7554 116.007 90.6113 115.659 90.6113 115.296V95.6826C90.6113 95.32 90.7554 94.9723 91.0118 94.7159C91.2682 94.4595 91.6159 94.3154 91.9785 94.3154H122.07C122.432 94.3154 122.78 94.4595 123.037 94.7159C123.293 94.9723 123.437 95.32 123.437 95.6826V115.296C123.437 115.476 123.402 115.654 123.333 115.819C123.264 115.985 123.164 116.136 123.037 116.263C122.91 116.39 122.759 116.491 122.593 116.559C122.427 116.628 122.25 116.663 122.07 116.663Z" fill="#11A2AA"/>
<path d="M96.4728 110.17L100.7 105.943L104.973 110.216C105.1 110.343 105.251 110.444 105.417 110.512C105.582 110.581 105.76 110.616 105.94 110.616C107.158 110.616 107.768 109.144 106.906 108.283L106.243 107.619L111.061 102.799L118.414 110.151C118.541 110.278 118.692 110.379 118.858 110.448C119.024 110.516 119.201 110.552 119.381 110.552C120.599 110.552 121.209 109.079 120.347 108.218L112.028 99.8984C111.901 99.7714 111.75 99.6707 111.584 99.6019C111.418 99.5332 111.241 99.4978 111.061 99.4978C110.882 99.4978 110.704 99.5332 110.538 99.6019C110.372 99.6707 110.221 99.7714 110.094 99.8984L104.309 105.685L101.666 103.042C101.409 102.786 101.062 102.642 100.699 102.642C100.337 102.642 99.9891 102.786 99.7327 103.042L94.5393 108.236C93.678 109.097 94.288 110.57 95.5059 110.57C95.6854 110.57 95.8633 110.534 96.0292 110.466C96.1951 110.397 96.3458 110.296 96.4728 110.17ZM33.1551 46.8474H20.1176C19.755 46.8474 19.4072 46.9915 19.1508 47.2479C18.8944 47.5042 18.7504 47.852 18.7504 48.2146C18.7504 48.5772 18.8944 48.925 19.1508 49.1813C19.4072 49.4377 19.755 49.5818 20.1176 49.5818H33.1553C33.5179 49.5818 33.8657 49.4377 34.122 49.1812C34.3784 48.9248 34.5224 48.5771 34.5224 48.2145C34.5223 47.8519 34.3783 47.5041 34.1218 47.2478C33.8654 46.9914 33.5177 46.8474 33.1551 46.8474Z" fill="#00EAFF"/>
<path d="M11.3557 54.3789H128.644V77.4762H11.3557V54.3789Z" fill="#11A2AA"/>
<path d="M128.644 54.3789V77.4762H73.6584C74.126 60.3207 107.417 54.3789 107.417 54.3789H128.644ZM44.1627 77.4762H11.3557V54.3789H19.9444C20.4967 57.9801 22.8975 62.3852 31.1963 62.9895C42.8284 63.8344 47.4166 71.6164 44.1627 77.4762Z" fill="#11A2AA"/>
<path d="M128.644 54.3789V77.4762H104.59C101.412 70.643 108.226 62.5711 94.9812 62.9895C82.9691 63.3695 76.5378 58.0457 73.5519 54.3789H128.644Z" fill="white"/>
<path d="M128.644 41.4809V26.6296C128.644 24.3645 126.808 22.5281 124.542 22.5281H15.4573C13.1921 22.5281 11.3557 24.3645 11.3557 26.6296V41.4809H128.644Z" fill="#11A2AA"/>
<path d="M124.543 118.03H15.457C12.4416 118.03 9.98828 115.577 9.98828 112.562V26.6299C9.98828 23.6144 12.4416 21.1611 15.457 21.1611H124.542C127.558 21.1611 130.011 23.6144 130.011 26.6299V112.562C130.011 115.577 127.558 118.03 124.543 118.03ZM15.457 23.8955C13.9493 23.8955 12.7227 25.1221 12.7227 26.6299V112.562C12.7227 114.07 13.9493 115.296 15.457 115.296H124.542C126.05 115.296 127.277 114.07 127.277 112.562V26.6299C127.277 25.1221 126.05 23.8955 124.542 23.8955H15.457Z" fill="#00EAFF"/>
<path d="M23.4124 35.5989C25.0586 35.5989 26.3931 34.2644 26.3931 32.6182C26.3931 30.972 25.0586 29.6375 23.4124 29.6375C21.7662 29.6375 20.4316 30.972 20.4316 32.6182C20.4316 34.2644 21.7662 35.5989 23.4124 35.5989Z" fill="white"/>
<path d="M32.9283 35.5989C34.5745 35.5989 35.909 34.2644 35.909 32.6182C35.909 30.972 34.5745 29.6375 32.9283 29.6375C31.282 29.6375 29.9475 30.972 29.9475 32.6182C29.9475 34.2644 31.282 35.5989 32.9283 35.5989Z" fill="white"/>
<path d="M42.4439 35.5989C44.0901 35.5989 45.4246 34.2644 45.4246 32.6182C45.4246 30.972 44.0901 29.6375 42.4439 29.6375C40.7977 29.6375 39.4631 30.972 39.4631 32.6182C39.4631 34.2644 40.7977 35.5989 42.4439 35.5989Z" fill="white"/>
<path d="M118.201 35.9672H80.97V29.269H118.201C118.563 29.269 118.911 29.4131 119.167 29.6695C119.424 29.9259 119.568 30.2736 119.568 30.6362V34.6C119.568 34.9626 119.424 35.3103 119.167 35.5667C118.911 35.8231 118.563 35.9672 118.201 35.9672Z" fill="white"/>
<path d="M81.1531 29.3543C79.7077 27.9089 77.3558 27.9089 75.9105 29.3543C74.4651 30.7997 74.4651 33.1515 75.9105 34.5969C77.0143 35.7008 78.6457 35.9586 79.9992 35.3768L81.1881 36.5657C81.4462 36.8135 81.7912 36.9502 82.149 36.9465C82.5068 36.9429 82.8489 36.7991 83.102 36.5461C83.355 36.2931 83.4988 35.9509 83.5024 35.5931C83.5061 35.2353 83.3693 34.8903 83.1216 34.6322L81.9327 33.4433C82.5148 32.0895 82.2569 30.4582 81.1531 29.3543ZM77.8439 31.2878C78.2232 30.9085 78.8403 30.9085 79.2196 31.2878C79.5989 31.667 79.5989 32.2842 79.2196 32.6634C78.8403 33.0427 78.2232 33.0427 77.8439 32.6634C77.6618 32.4809 77.5595 32.2335 77.5595 31.9756C77.5595 31.7177 77.6618 31.4704 77.8439 31.2878Z" fill="#00EAFF"/>
<path d="M97.9912 51.8588H42.0087C41.6461 51.8588 41.2983 51.7147 41.0419 51.4583C40.7855 51.2019 40.6415 50.8542 40.6415 50.4916V45.9377C40.6415 45.5751 40.7855 45.2274 41.0419 44.971C41.2983 44.7146 41.6461 44.5706 42.0087 44.5706H97.9912C98.3538 44.5706 98.7015 44.7146 98.9579 44.971C99.2143 45.2274 99.3584 45.5751 99.3584 45.9377V50.4916C99.3584 50.8542 99.2143 51.2019 98.9579 51.4583C98.7015 51.7147 98.3538 51.8588 97.9912 51.8588Z" fill="#11A2AA"/>
<path d="M97.9912 44.5706H90.6064V51.8588H97.9912C98.3538 51.8588 98.7015 51.7147 98.9579 51.4583C99.2143 51.2019 99.3584 50.8542 99.3584 50.4916V45.9377C99.3584 45.5751 99.2143 45.2274 98.9579 44.971C98.7015 44.7146 98.3538 44.5706 97.9912 44.5706Z" fill="#00EAFF"/>
<path d="M121.935 51.0378H105.987C105.624 51.0378 105.276 50.8937 105.02 50.6373C104.764 50.3809 104.62 50.0332 104.62 49.6706V46.759C104.62 46.3964 104.764 46.0487 105.02 45.7923C105.276 45.5359 105.624 45.3918 105.987 45.3918H121.935C122.298 45.3918 122.645 45.5359 122.902 45.7923C123.158 46.0487 123.302 46.3964 123.302 46.759V49.6706C123.302 50.0332 123.158 50.3809 122.902 50.6373C122.645 50.8937 122.298 51.0378 121.935 51.0378Z" fill="#11A2AA"/>
<path d="M90.6064 73.4486C92.0105 73.4486 93.1488 72.3103 93.1488 70.9062C93.1488 69.502 92.0105 68.3638 90.6064 68.3638C89.2022 68.3638 88.064 69.502 88.064 70.9062C88.064 72.3103 89.2022 73.4486 90.6064 73.4486Z" fill="white"/>
<path d="M51.6577 77.476H20.4885C21.0655 75.5948 34.5222 60.8188 45.4247 61.0296C57.9629 61.2724 45.9264 72.844 51.6577 77.476Z" fill="white"/>
<path d="M52.105 84.002H45.6298C45.2672 84.002 44.9194 84.146 44.663 84.4024C44.4066 84.6588 44.2626 85.0065 44.2626 85.3691C44.2626 85.7317 44.4066 86.0795 44.663 86.3359C44.9194 86.5923 45.2672 86.7363 45.6298 86.7363H52.105C52.4676 86.7363 52.8154 86.5923 53.0718 86.3359C53.3282 86.0795 53.4722 85.7317 53.4722 85.3691C53.4722 85.0065 53.3282 84.6588 53.0718 84.4024C52.8154 84.146 52.4676 84.002 52.105 84.002ZM66.1934 84.002H59.7181C59.3555 84.002 59.0077 84.146 58.7513 84.4024C58.4949 84.6588 58.3509 85.0065 58.3509 85.3691C58.3509 85.7317 58.4949 86.0795 58.7513 86.3359C59.0077 86.5923 59.3555 86.7363 59.7181 86.7363H66.1934C66.556 86.7363 66.9037 86.5923 67.1601 86.3359C67.4165 86.0795 67.5605 85.7317 67.5605 85.3691C67.5605 85.0065 67.4165 84.6588 67.1601 84.4024C66.9037 84.146 66.556 84.002 66.1934 84.002ZM80.2817 84.002H73.8064C73.4438 84.002 73.0961 84.146 72.8397 84.4024C72.5833 84.6588 72.4392 85.0065 72.4392 85.3691C72.4392 85.7317 72.5833 86.0795 72.8397 86.3359C73.0961 86.5923 73.4438 86.7363 73.8064 86.7363H80.2817C80.6443 86.7363 80.992 86.5923 81.2484 86.3359C81.5048 86.0795 81.6489 85.7317 81.6489 85.3691C81.6489 85.0065 81.5048 84.6588 81.2484 84.4024C80.992 84.146 80.6443 84.002 80.2817 84.002ZM94.37 84.002H87.8947C87.5321 84.002 87.1844 84.146 86.928 84.4024C86.6716 84.6588 86.5275 85.0065 86.5275 85.3691C86.5275 85.7317 86.6716 86.0795 86.928 86.3359C87.1844 86.5923 87.5321 86.7363 87.8947 86.7363H94.37C94.7326 86.7363 95.0803 86.5923 95.3367 86.3359C95.5931 86.0795 95.7372 85.7317 95.7372 85.3691C95.7372 85.0065 95.5931 84.6588 95.3367 84.4024C95.0803 84.146 94.7326 84.002 94.37 84.002Z" fill="#00EAFF"/>
<path d="M78.1948 72.0849H61.8049C61.4423 72.0849 61.0946 71.9409 60.8382 71.6845C60.5818 71.4281 60.4377 71.0804 60.4377 70.7178V68.4734C60.4377 68.1108 60.5818 67.763 60.8382 67.5066C61.0946 67.2502 61.4423 67.1062 61.8049 67.1062H78.1951C78.5577 67.1062 78.9054 67.2502 79.1618 67.5066C79.4182 67.763 79.5622 68.1108 79.5622 68.4734V70.7178C79.5622 70.8973 79.5269 71.0751 79.4581 71.241C79.3894 71.4069 79.2887 71.5576 79.1617 71.6846C79.0347 71.8116 78.884 71.9123 78.7181 71.981C78.5522 72.0496 78.3743 72.085 78.1948 72.0849Z" fill="white"/>
<path d="M48.8676 131.041C46.7126 131.041 44.9596 129.288 44.9596 127.133C44.9596 124.978 46.7126 123.225 48.8676 123.225C51.0223 123.225 52.7753 124.978 52.7753 127.133C52.7753 129.288 51.0223 131.041 48.8676 131.041ZM48.8676 125.959C48.2206 125.959 47.694 126.486 47.694 127.133C47.694 127.78 48.2206 128.306 48.8676 128.306C49.5145 128.306 50.0409 127.78 50.0409 127.133C50.0409 126.486 49.5145 125.959 48.8676 125.959ZM120.751 133.581C118.596 133.581 116.843 131.828 116.843 129.673C116.843 127.518 118.596 125.765 120.751 125.765C122.905 125.765 124.658 127.518 124.658 129.673C124.658 131.828 122.905 133.581 120.751 133.581ZM120.751 128.5C120.104 128.5 119.577 129.026 119.577 129.673C119.577 130.32 120.104 130.847 120.751 130.847C121.398 130.847 121.924 130.32 121.924 129.673C121.924 129.026 121.398 128.5 120.751 128.5ZM63.9247 16.4339C63.5621 16.4339 63.2143 16.2898 62.9579 16.0334C62.7015 15.777 62.5575 15.4293 62.5575 15.0667C62.5575 14.1619 61.8214 13.4261 60.9166 13.4261C60.1614 13.4261 59.5494 12.8141 59.5494 12.0589C59.5494 11.3036 60.1614 10.6917 60.9166 10.6917C61.3516 10.6913 61.7687 10.5183 62.0763 10.2107C62.3839 9.90312 62.557 9.48608 62.5575 9.05106C62.5575 8.29583 63.1694 7.68388 63.9247 7.68388C64.6799 7.68388 65.2919 8.29583 65.2919 9.05106C65.2919 9.95587 66.0277 10.6917 66.9322 10.6917C67.6874 10.6917 68.2994 11.3036 68.2994 12.0589C68.2994 12.8141 67.6874 13.4261 66.9322 13.4261C66.4973 13.4266 66.0803 13.5996 65.7728 13.9072C65.4652 14.2147 65.2923 14.6317 65.2919 15.0667C65.2919 15.4293 65.1478 15.777 64.8914 16.0334C64.635 16.2898 64.2873 16.4339 63.9247 16.4339ZM77.0442 14.2346C76.6816 14.2346 76.3339 14.0906 76.0775 13.8342C75.8211 13.5778 75.677 13.23 75.677 12.8674C75.677 11.9626 74.9412 11.2268 74.0364 11.2268C73.2812 11.2268 72.6692 10.6149 72.6692 9.85962C72.6692 9.10438 73.2812 8.49243 74.0364 8.49243C74.9412 8.49243 75.677 7.75661 75.677 6.85181C75.677 6.09657 76.289 5.48462 77.0442 5.48462C77.7994 5.48462 78.4114 6.09657 78.4114 6.85181C78.4114 7.75661 79.1472 8.49243 80.052 8.49243C80.8072 8.49243 81.4192 9.10438 81.4192 9.85962C81.4192 10.6149 80.8072 11.2268 80.052 11.2268C79.1472 11.2268 78.4114 11.9626 78.4114 12.8674C78.4114 13.23 78.2673 13.5778 78.011 13.8342C77.7546 14.0906 77.4068 14.2346 77.0442 14.2346ZM32.9283 134.515C32.5657 134.515 32.218 134.371 31.9616 134.115C31.7052 133.859 31.5612 133.511 31.5612 133.148C31.5612 132.243 30.8253 131.508 29.9205 131.508C29.1653 131.508 28.5533 130.896 28.5533 130.14C28.5533 129.385 29.1653 128.773 29.9205 128.773C30.8253 128.773 31.5612 128.037 31.5612 127.133C31.5612 126.377 32.1731 125.765 32.9283 125.765C33.6836 125.765 34.2955 126.377 34.2955 127.133C34.2955 128.037 35.0314 128.773 35.9362 128.773C36.6914 128.773 37.3033 129.385 37.3033 130.14C37.3033 130.896 36.6914 131.508 35.9362 131.508C35.0314 131.508 34.2955 132.243 34.2955 133.148C34.2955 133.511 34.1515 133.859 33.8951 134.115C33.6387 134.371 33.2909 134.515 32.9283 134.515Z" fill="#11A2AA"/>
<path d="M128.644 78.8436H11.3557C10.9931 78.8436 10.6454 78.6996 10.389 78.4432C10.1326 78.1868 9.98853 77.8391 9.98853 77.4764V54.3789C9.98853 54.0163 10.1326 53.6686 10.389 53.4122C10.6454 53.1558 10.9931 53.0117 11.3557 53.0117H128.644C129.007 53.0117 129.354 53.1558 129.611 53.4122C129.867 53.6686 130.011 54.0163 130.011 54.3789V77.4764C130.011 77.8391 129.867 78.1868 129.611 78.4432C129.354 78.6996 129.007 78.8436 128.644 78.8436ZM12.7229 76.1093H127.277V55.7461H12.7229V76.1093Z" fill="#00EAFF"/>
</svg>
