<svg xmlns="http://www.w3.org/2000/svg" width="512" height="538" viewBox="0 0 512 538" version="1.1"><path d="M 250.042 3.845 C 246.348 7.359, 246 8.131, 246 12.800 C 246 20.987, 253.443 38.622, 256.500 37.676 C 258.330 37.110, 265.064 22.575, 265.850 17.494 C 266.276 14.741, 266.253 11.057, 265.800 9.307 C 264.904 5.852, 258.626 -0, 255.814 -0 C 254.863 -0, 252.265 1.730, 250.042 3.845 M 232.500 24.929 C 227.878 26.044, 225.479 27.623, 221.706 32.030 C 217.265 37.219, 215.674 43.009, 216.169 52.187 C 216.668 61.436, 220.004 68.935, 226.714 75.897 L 231.632 81 256.216 81 L 280.799 81 285.751 75.582 C 291.531 69.257, 294.418 63.599, 295.869 55.749 C 298.828 39.742, 290.617 26.280, 276.733 24.377 L 272.432 23.787 270.712 29.245 C 268.632 35.843, 262.090 46.240, 258.564 48.550 C 256.208 50.094, 255.803 50.101, 253.567 48.636 C 248.854 45.548, 242.642 35.038, 240.630 26.750 C 239.919 23.824, 238.445 23.494, 232.500 24.929 M 186.073 59.635 C 183.074 63.447, 183.343 70.130, 186.767 76.919 C 188.270 79.899, 189.994 82.501, 190.599 82.702 C 192.426 83.307, 197.344 71.035, 197.426 65.663 C 197.486 61.734, 197.057 60.467, 195.139 58.913 C 191.850 56.247, 188.529 56.512, 186.073 59.635 M 316.861 58.914 C 314.886 60.515, 314.525 61.667, 314.653 65.971 C 314.811 71.283, 319.510 82.574, 321.500 82.425 C 323.573 82.269, 328 71.733, 328 66.956 C 328 58.570, 322.333 54.478, 316.861 58.914 M 37.895 64.851 C 26.433 72.121, 18.909 95.248, 21.701 114.630 C 24.058 130.989, 36.238 146.962, 57 160.920 C 62.225 164.433, 67.513 168.216, 68.750 169.328 C 71.075 171.416, 71.764 175.410, 69.989 176.507 C 68.708 177.299, 59.701 171.922, 45 161.588 C 29.897 150.973, 21.021 143.256, 14.787 135.324 L 9.698 128.848 7.284 131.262 C 3.266 135.280, 0 145.905, -0 154.960 C -0 161.325, 0.585 164.361, 3.060 170.842 C 9.783 188.448, 24.107 198.092, 56 206.482 C 66.063 209.130, 67.540 209.789, 67.820 211.754 C 68.103 213.746, 67.707 214, 64.320 213.999 C 59.549 213.997, 46.186 211.671, 35.009 208.897 C 25.597 206.560, 13.444 201.339, 8.316 197.427 C 6.486 196.031, 4.586 195.138, 4.095 195.442 C 2.237 196.589, 0.741 206.303, 1.373 213.107 C 3.022 230.846, 12.551 242.336, 28.500 245.818 C 39.918 248.310, 49.561 248.227, 71.574 245.445 C 75.245 244.981, 75.767 245.193, 76.861 247.594 C 77.529 249.060, 77.946 250.380, 77.787 250.528 C 77.629 250.676, 73.675 251.558, 69 252.489 C 56.341 255.008, 30.277 255.622, 21.688 253.602 C 17.941 252.721, 14.618 252, 14.304 252 C 13.989 252, 13.955 255.133, 14.229 258.961 C 15.536 277.226, 26.604 286.611, 46.500 286.325 C 58.106 286.159, 68.623 283.368, 81.714 276.982 C 87.331 274.242, 92.339 272, 92.841 272 C 93.344 272, 94.301 272.658, 94.969 273.463 C 95.981 274.681, 95.125 275.612, 89.841 279.040 C 75.949 288.055, 58.678 294.827, 45.251 296.524 C 42.364 296.889, 39.758 297.582, 39.461 298.064 C 38.364 299.838, 43.351 309.069, 47.442 312.840 C 53.327 318.265, 60.175 320.363, 70.119 319.787 C 82.237 319.085, 91.482 314.092, 105.687 300.576 C 115.136 291.585, 116.959 290.250, 118.373 291.288 C 119.864 292.382, 119.667 293.030, 116.346 297.957 C 110.912 306.019, 96.424 320.616, 89.794 324.708 C 86.607 326.675, 84 328.880, 84 329.607 C 84 332.106, 90.097 337.871, 94.529 339.564 C 103.942 343.159, 117.113 338.637, 127.476 328.252 C 131.984 323.736, 134.429 319.970, 138.857 310.724 C 142.746 302.603, 144.962 299.038, 145.998 299.235 C 148.432 299.698, 148.318 303.550, 145.588 313.067 C 142.476 323.917, 138.167 332.702, 133.335 338.051 C 129.841 341.919, 129.784 342.104, 131.514 344.016 C 133.408 346.108, 138.845 347.989, 143 347.989 C 151.389 347.989, 160.200 341.611, 163.994 332.792 C 165.358 329.621, 166.421 324.617, 166.750 319.815 C 167.045 315.517, 167.526 312, 167.820 312 C 168.114 312, 169.606 313.463, 171.137 315.250 L 173.919 318.500 173.959 286.893 L 174 255.286 166.250 254.740 C 151.348 253.689, 141.030 247.407, 137.582 237.285 C 135.606 231.488, 135.578 219.223, 137.515 208.500 C 140.617 191.333, 139.463 187.776, 127.665 178.134 C 123.724 174.913, 116.265 167.847, 111.088 162.432 C 103.496 154.490, 100.924 150.981, 97.790 144.293 C 95.653 139.732, 93.320 136, 92.607 136 C 91.894 136, 90.495 136.900, 89.500 138 C 88.505 139.100, 87.197 139.998, 86.595 139.995 C 84.185 139.983, 65.423 110.518, 56.448 92.652 C 52.520 84.832, 48.285 72.896, 46.548 64.750 C 45.790 61.192, 43.625 61.218, 37.895 64.851 M 463.687 71.750 C 462.195 77.112, 458.516 86.470, 455.511 92.544 C 446.628 110.504, 428.086 140, 425.680 140 C 425.091 140, 423.390 138.831, 421.899 137.403 L 419.188 134.806 414.129 144.653 C 408.635 155.349, 403.964 160.746, 386.620 176.440 C 381.186 181.357, 375.900 186.757, 374.874 188.440 C 372.408 192.483, 372.471 199.179, 375.093 211.591 C 377.592 223.421, 377.233 230.627, 373.767 238.197 C 368.843 248.954, 361.151 253.735, 347 254.838 L 338.500 255.500 338.245 287 L 337.990 318.500 341.245 315.025 L 344.500 311.551 344.749 315.525 C 345.181 322.447, 347.126 331.327, 349.007 334.975 C 352.946 342.614, 361.549 348, 369.810 348 C 373.699 348, 382 344.447, 382 342.782 C 382 342.210, 380.364 339.931, 378.364 337.718 C 376.364 335.504, 373.222 330.433, 371.380 326.447 C 367.575 318.212, 363.417 302.962, 364.329 300.586 C 365.560 297.377, 367.698 299.177, 371.056 306.250 C 379.527 324.093, 386.281 332.318, 396.388 337.103 C 407.648 342.434, 418.370 341.830, 424.690 335.510 C 429.465 330.735, 429.018 329.094, 421.616 324.227 C 414.371 319.464, 397.652 302.363, 394.216 296.202 C 391.936 292.115, 391.936 292.105, 393.964 291.019 C 395.766 290.055, 397.196 291.125, 406.568 300.452 C 415.398 309.239, 418.558 311.675, 425.745 315.236 C 434.154 319.403, 434.578 319.500, 444.425 319.500 C 455.721 319.500, 459.751 318.048, 465.693 311.838 C 468.650 308.748, 472.927 300.887, 472.978 298.450 C 472.990 297.873, 469.232 296.856, 464.626 296.190 C 460.021 295.524, 453.762 294.122, 450.719 293.075 C 444.356 290.886, 422.715 279.951, 419 277.049 C 416.693 275.247, 416.625 274.969, 418.121 273.463 C 419.619 271.953, 420.451 272.172, 429.121 276.355 C 467.519 294.879, 495.915 287.806, 497.788 259.250 C 498.296 251.503, 498.112 251.246, 493.365 253.051 C 485.148 256.176, 462.089 255.904, 443.341 252.461 L 434.181 250.779 435.215 247.813 C 436.206 244.971, 436.444 244.871, 440.875 245.415 C 443.419 245.728, 450.900 246.446, 457.500 247.010 C 489.245 249.725, 505.660 240.726, 510.052 218.200 C 511.370 211.438, 510.808 200.379, 508.973 196.949 L 507.869 194.887 504.684 196.984 C 498.107 201.316, 488.253 205.832, 481 207.837 C 469.598 210.990, 453.737 214, 448.523 214 C 444.266 214, 443.889 213.805, 444.180 211.761 C 444.463 209.783, 446.080 209.101, 458 205.930 C 480.491 199.946, 493.372 193.201, 502.834 182.451 C 508.323 176.215, 512 165.214, 512 155.025 C 512 145.667, 508.892 135.229, 504.994 131.494 L 502.217 128.834 496.720 135.725 C 489.742 144.470, 484.140 149.474, 469.907 159.677 C 454.050 171.043, 443.104 177.504, 441.843 176.243 C 439.119 173.519, 441.580 170.513, 453 162.617 C 473.961 148.124, 486.882 132.567, 489.890 118.201 C 493.243 102.192, 488.515 79.827, 479.534 69.206 C 476.774 65.943, 470.321 62, 467.740 62 C 466.898 62, 465.393 65.620, 463.687 71.750 M 133.500 66.519 C 131.850 67.394, 128.925 69.349, 127 70.866 C 119.574 76.715, 114.285 79.813, 108.750 81.555 C 103.261 83.283, 103 83.517, 103 86.701 C 103 88.536, 104.125 93.258, 105.500 97.193 C 108.571 105.983, 108.735 113.782, 105.978 119.859 C 104.890 122.257, 104 124.444, 104 124.720 C 104 124.997, 105.558 124.930, 107.462 124.573 C 111.566 123.803, 115 126.476, 115 130.441 C 115 134.173, 116.547 134.327, 119.445 130.883 C 127.593 121.199, 127.726 108.552, 119.818 95.440 C 117.627 91.806, 116.039 88.628, 116.290 88.377 C 116.541 88.126, 120.966 87.106, 126.123 86.111 L 135.500 84.301 136.169 86.900 C 136.538 88.330, 137.573 92.387, 138.470 95.917 C 139.367 99.446, 141.016 103.618, 142.135 105.189 C 144.604 108.657, 149.978 111.507, 155.911 112.495 L 160.323 113.230 156.793 108.865 C 150.431 100.995, 149.999 98.876, 152.172 86.205 C 153.227 80.049, 153.153 78.990, 151.422 75.501 C 149.123 70.870, 143.635 66.262, 139.496 65.489 C 137.681 65.151, 135.318 65.557, 133.500 66.519 M 369.459 66.856 C 361.374 70.575, 357.942 77.459, 359.913 86 C 362.348 96.554, 360.883 103.178, 354.638 109.855 L 351.500 113.211 356 112.509 C 366.777 110.830, 373.003 103.919, 375.082 91.333 L 376.265 84.169 379.478 84.690 C 381.245 84.977, 385.917 85.951, 389.860 86.856 L 397.029 88.500 393.450 93.805 C 391.482 96.724, 389.209 100.990, 388.399 103.286 C 386.418 108.902, 386.412 120.963, 388.389 124.786 C 390.241 128.366, 394.870 134, 395.961 134 C 396.392 134, 397.030 132.214, 397.379 130.032 C 398.119 125.403, 400.693 123.554, 405.059 124.513 C 408.550 125.280, 408.529 125.383, 406.022 119.859 C 403.359 113.992, 403.488 106.854, 406.412 98.258 C 407.739 94.357, 408.977 89.508, 409.162 87.482 L 409.500 83.799 403.198 81.507 C 397.299 79.361, 392.108 76.244, 382.500 69.081 C 377.160 65.099, 374.328 64.616, 369.459 66.856 M 170.500 76.426 C 164.963 79.758, 162.800 83.839, 162.800 90.953 C 162.800 97.748, 165.205 103.886, 170.013 109.362 L 173.315 113.123 191.254 112.811 L 209.194 112.500 211.609 109.500 C 221.111 97.700, 220.830 82.845, 210.978 76.206 C 205.798 72.715, 202.148 73.500, 200.123 78.539 C 197.644 84.710, 194.124 89.826, 191.865 90.543 C 188.933 91.473, 185.635 87.956, 182.334 80.379 C 179.112 72.984, 177.253 72.363, 170.500 76.426 M 300.952 76.253 C 295.942 79.630, 293.667 84.240, 293.667 91.018 C 293.667 99.539, 298.407 109.497, 303.585 111.857 C 305.138 112.564, 312.282 113, 322.335 113 L 338.576 113 342.140 108.737 C 347.671 102.120, 349.147 98.525, 349.187 91.570 C 349.243 81.795, 344.725 75.641, 336.514 74.309 C 333.051 73.747, 332.977 73.811, 330.369 79.620 C 327.615 85.755, 323.489 91, 321.417 91 C 319.309 91, 314.163 84.229, 312.314 79.020 C 310.690 74.448, 310.252 74, 307.413 74 C 305.699 74, 302.791 75.014, 300.952 76.253 M 232.713 87.706 C 232.461 88.143, 231.935 90.750, 231.545 93.500 C 230.634 99.917, 227.974 105.854, 224.636 108.924 C 220.989 112.278, 221.308 113.352, 225.703 112.528 C 236.771 110.451, 244.929 101.494, 246.219 90 C 246.491 87.580, 246.286 87.491, 239.836 87.206 C 236.171 87.045, 232.966 87.270, 232.713 87.706 M 266.022 90.114 C 266.087 100.148, 275.443 110.492, 286.297 112.528 C 290.680 113.350, 291.006 112.289, 287.405 108.924 C 283.759 105.518, 282.290 102.305, 280.880 94.652 C 279.811 88.850, 279.375 88, 277.467 88 C 276.264 88, 273.191 87.714, 270.640 87.364 L 266 86.728 266.022 90.114 M 234.401 115.094 C 227.252 119.120, 220.341 119.791, 191.848 119.228 C 178.289 118.960, 165.591 119.042, 163.630 119.410 C 159.133 120.253, 157 122.360, 157 125.958 C 157 128.632, 156.672 128.835, 150.472 130.005 C 139.255 132.122, 135.041 136.373, 135.015 145.601 C 134.997 151.728, 136.432 156.364, 139.716 160.785 L 142.156 164.071 145.689 160.968 C 149.858 157.308, 152.937 156, 157.384 156 C 161.173 156, 170.666 158.650, 171.456 159.928 C 171.753 160.410, 166.978 163.323, 160.843 166.402 C 149.164 172.263, 145.203 173.066, 138.060 171.017 C 133.829 169.804, 133.407 170.165, 135.434 173.259 C 138.599 178.089, 145.517 179.264, 154.591 176.511 C 161.518 174.410, 162 174.528, 162 178.333 C 162 182.943, 162.748 183.294, 166.486 180.443 C 171.096 176.927, 178.356 174.657, 182.503 175.435 C 191.403 177.104, 197.152 187.187, 199.504 205.250 L 200.123 210 256 210 L 311.877 210 312.519 205.250 C 315.316 184.536, 321.303 176, 333.036 176 C 337.947 176, 339.502 176.499, 343.807 179.461 L 348.837 182.921 349.523 178.864 C 350.160 175.096, 350.397 174.851, 352.854 175.425 C 367.184 178.771, 371.494 178.597, 375.586 174.505 C 378.844 171.247, 378.712 169.763, 375.250 170.731 C 373.738 171.154, 370.025 171.494, 367 171.486 C 362.373 171.474, 359.784 170.619, 350.687 166.098 C 344.740 163.143, 340.240 160.381, 340.687 159.960 C 342.194 158.543, 351.043 156, 354.470 156 C 359.173 156, 362.952 157.595, 366.610 161.122 L 369.720 164.121 372.334 161.015 C 373.771 159.307, 375.456 156.022, 376.077 153.716 C 377.680 147.760, 376.838 138.593, 374.439 135.892 C 371.918 133.055, 365.719 130.344, 359.750 129.469 C 355.430 128.836, 355 128.529, 355 126.078 C 355 124.595, 354.362 122.509, 353.582 121.441 C 352.238 119.601, 350.346 119.474, 317.332 119 C 280.924 118.477, 281.105 118.499, 275.115 113.851 C 271.698 111.199, 270.999 111.522, 271.006 115.750 C 271.019 124.509, 274.747 131.044, 282.085 135.168 C 284.259 136.390, 285.877 137.864, 285.682 138.445 C 285.485 139.030, 282.249 139.562, 278.414 139.640 C 271.510 139.779, 271.500 139.784, 271.709 142.542 C 271.966 145.935, 276.310 150.659, 281 152.647 L 284.500 154.130 281.500 156.242 C 270.245 164.167, 260.923 180.033, 257.553 197 C 256.165 203.991, 256.131 203.962, 253.636 193.597 C 250.262 179.579, 242.546 165.947, 234.268 159.382 C 231.646 157.302, 229.129 155.296, 228.675 154.925 C 228.222 154.554, 229.872 153.272, 232.343 152.076 C 237.134 149.757, 239.712 146.688, 240.601 142.246 L 241.151 139.500 233.918 139.500 C 229.940 139.500, 226.530 139.049, 226.342 138.499 C 226.153 137.948, 228.050 136.409, 230.557 135.079 C 236.452 131.952, 239.784 126.363, 240.640 118.165 C 241.001 114.715, 240.892 112.049, 240.392 112.111 C 239.902 112.172, 237.205 113.515, 234.401 115.094 M 167 134.550 C 167 134.852, 167.698 136.450, 168.552 138.101 C 170.335 141.548, 170.957 141.490, 180.500 136.991 L 186.500 134.163 176.750 134.082 C 171.387 134.037, 167 134.247, 167 134.550 M 331.500 136.957 C 341.335 141.523, 341.490 141.530, 343.850 137.530 L 345.933 134 335.716 134.086 L 325.500 134.172 331.500 136.957 M 180.744 221.250 C 179.730 229.407, 180.878 375.100, 181.982 378.446 C 184.617 386.431, 194.170 390.976, 208.432 391.031 C 225.358 391.096, 239.059 394.253, 249.371 400.464 C 252.600 402.409, 255.723 404, 256.311 404 C 256.899 404, 260.349 402.206, 263.978 400.013 C 272.606 394.800, 283.052 392.198, 298.314 391.460 C 319.223 390.448, 325.241 388.264, 329.103 380.287 L 331.348 375.650 331.716 299.575 C 331.919 257.734, 331.820 222.037, 331.497 220.250 L 330.909 217 256.091 217 L 181.272 217 180.744 221.250 M 233.534 228.250 C 233.964 230.037, 234.583 236.675, 234.909 243 L 235.500 254.500 239.679 256.500 C 243.626 258.389, 243.897 258.797, 244.557 263.850 C 244.941 266.792, 244.860 272.832, 244.378 277.273 C 243.412 286.153, 243.566 285.990, 234.779 287.458 C 229.753 288.298, 225.270 292.284, 223.985 297.055 C 223.190 300.007, 223.303 303.112, 224.446 309.732 C 226.059 319.079, 225.761 322.306, 222.987 325.500 C 219.721 329.261, 218.847 332.158, 218.518 340.327 C 218.336 344.822, 218.033 349.400, 217.844 350.500 C 217.563 352.132, 218.052 352.500, 220.500 352.500 C 222.933 352.500, 223.443 352.122, 223.200 350.500 C 223.035 349.400, 222.641 345.279, 222.325 341.342 C 221.680 333.328, 221.670 333.345, 230.989 326.644 C 234.886 323.841, 239.170 318.882, 240.183 316.001 C 240.584 314.860, 264.668 317.250, 265.904 318.553 C 267.113 319.828, 277.362 348.972, 276.798 349.535 C 275.789 350.544, 271.005 344.151, 269.290 339.500 C 267.889 335.702, 266.885 334.420, 265.112 334.166 C 263.629 333.954, 263.022 334.227, 263.448 334.916 C 263.817 335.512, 263.551 336, 262.859 336 C 261.880 336, 261.867 336.267, 262.800 337.200 C 264.177 338.577, 264.443 345, 263.123 345 C 262.640 345, 258.950 344.256, 254.922 343.346 C 246.714 341.492, 241.207 342.292, 235.833 346.119 C 227.329 352.174, 226.867 364.904, 234.876 372.436 C 237.419 374.827, 239.082 375.451, 243.839 375.795 C 253.482 376.492, 259 372.012, 259 363.484 C 259 358.735, 257.641 356.378, 254.441 355.575 C 248.632 354.116, 244.698 358.084, 247.585 362.490 C 249.039 364.709, 249.051 365, 247.686 365 C 246.837 365, 245.436 364.293, 244.571 363.429 C 240.548 359.405, 244.978 352, 251.407 352 C 256.527 352, 259.683 353.812, 261.601 357.855 C 263.092 360.997, 263.138 361.985, 261.977 365.966 C 261.249 368.460, 260.464 372.750, 260.232 375.500 C 259.960 378.726, 259.072 381.298, 257.731 382.750 L 255.651 385 262.076 384.984 C 265.609 384.976, 271.097 384.358, 274.271 383.611 C 279.425 382.398, 280.138 382.424, 280.939 383.856 C 281.748 385.301, 282.038 385.275, 283.897 383.593 C 286.380 381.346, 290 372.075, 290 367.962 C 290 364.766, 290.835 364.278, 292.925 366.250 C 293.855 367.127, 294.373 367.169, 294.661 366.392 C 294.887 365.782, 295.682 364.449, 296.428 363.430 C 297.545 361.902, 298.052 361.798, 299.308 362.840 C 300.578 363.895, 300.940 363.764, 301.483 362.053 C 301.842 360.924, 302.827 360, 303.673 360 C 306.214 360, 312.940 354.037, 315.038 349.926 C 317.588 344.927, 317.599 340.391, 315.066 339.035 C 312.277 337.543, 310.245 337.645, 311.800 339.200 C 313.453 340.853, 313.302 342, 311.433 342 C 310.343 342, 310.051 342.584, 310.473 343.915 C 311.149 346.045, 307.840 349, 304.777 349 C 302.526 349, 302.364 343.426, 304.532 340.559 C 306.681 337.718, 306.343 336.828, 303.250 337.184 C 300.870 337.457, 300.428 338.038, 299.965 341.500 C 299.275 346.660, 298.648 347.578, 294.938 348.872 C 292.011 349.892, 291.808 349.784, 290.422 346.469 C 285.889 335.618, 283.627 311.493, 286.360 303.137 C 288.402 296.895, 288.451 290.530, 286.500 285 C 284.542 279.451, 284.595 274.547, 286.636 272.507 C 289.188 269.955, 290.499 272.260, 290.500 279.300 C 290.500 285.227, 290.614 285.513, 293.090 285.801 C 295.450 286.075, 295.964 285.425, 298.879 278.481 C 303.091 268.446, 303.477 266.078, 301.625 261.645 C 297.684 252.213, 276.651 252.669, 269.758 262.336 C 268.517 264.076, 266.376 268.802, 265.001 272.838 C 263.625 276.874, 262.050 280.150, 261.500 280.119 C 259.267 279.992, 259.969 274.471, 262.970 268.559 C 265.650 263.278, 265.946 261.988, 265.028 259.573 C 264.138 257.233, 264.257 256.524, 265.728 255.408 C 266.703 254.669, 267.826 254.049, 268.224 254.032 C 269.739 253.965, 272 247.928, 272 243.950 C 272 240.564, 271.374 239.174, 268.600 236.400 C 266.730 234.530, 264.143 232.950, 262.850 232.889 C 252.329 232.394, 248.055 236.823, 248.179 248.095 C 248.239 253.647, 249.580 258.095, 258.244 281.500 C 263.741 296.350, 268.766 310.300, 269.409 312.500 C 270.260 315.408, 271.183 316.587, 272.790 316.820 C 274.005 316.995, 275 317.678, 275 318.337 C 275 318.996, 276.122 321.187, 277.494 323.206 C 279.870 326.703, 289 347.830, 289 349.831 C 289 350.355, 287.887 351.062, 286.527 351.404 C 284.396 351.939, 284.137 352.436, 284.652 355.012 C 285.527 359.384, 283.784 358.640, 281.674 353.740 C 274.900 338.017, 240 240.119, 240 236.843 C 240 235.044, 238.972 232.567, 237.500 230.818 C 236.125 229.184, 235 227.206, 235 226.423 C 235 225.640, 234.494 225, 233.875 225 C 233.112 225, 233.002 226.045, 233.534 228.250 M 253.528 237.272 C 250.673 240.127, 250 241.559, 250 244.778 C 250 249.022, 252.280 252.120, 254.080 250.320 C 254.739 249.661, 254.708 248.363, 253.988 246.468 C 251.663 240.353, 260.241 235.241, 264.941 239.941 C 268.102 243.102, 267.618 247.365, 263.750 250.434 C 261.175 252.477, 260.792 253.200, 261.908 253.913 C 265.753 256.372, 271.809 247.961, 270.497 241.984 C 269.632 238.050, 265.820 234.920, 261.126 234.290 C 257.462 233.799, 256.704 234.096, 253.528 237.272 M 225.453 254.914 C 222.677 256.506, 218.699 259.698, 216.613 262.006 L 212.821 266.204 215.661 269.336 C 219.506 273.578, 220.112 273.964, 223 274.006 C 224.375 274.026, 228.650 275.156, 232.500 276.517 C 236.350 277.878, 239.817 278.993, 240.205 278.996 C 241.498 279.004, 242.236 272.041, 241.535 266.434 C 240.907 261.405, 240.531 260.744, 237.477 259.288 C 235.618 258.401, 233.584 256.411, 232.934 254.841 C 232.287 253.279, 231.474 252.004, 231.129 252.009 C 230.783 252.015, 228.229 253.322, 225.453 254.914 M 207.500 283.369 C 203.230 285.301, 201.189 287.960, 200.468 292.526 C 199.948 295.815, 200.283 297.103, 202.412 300 C 207.635 307.107, 208.380 309.816, 206.738 315.717 C 205.069 321.713, 205.899 322.440, 210.385 318.912 C 215.819 314.638, 217.311 308.381, 214.500 301.654 C 211.238 293.847, 213.438 289.567, 220.160 290.642 C 223.948 291.247, 224.157 291.151, 223.838 288.943 C 223.171 284.322, 213.034 280.864, 207.500 283.369 M 293.359 298.691 C 291.685 299.019, 290.892 300.405, 289.721 305.055 C 288.897 308.325, 288.555 311, 288.961 311 C 289.367 311, 291.679 309.658, 294.100 308.018 C 296.520 306.378, 299.016 305.028, 299.646 305.018 C 300.986 304.997, 307 311.594, 307 313.084 C 307 313.643, 306.320 315.414, 305.490 317.020 C 304.045 319.813, 304.090 320.013, 306.521 321.606 C 307.919 322.522, 309.314 323.019, 309.621 322.712 C 309.929 322.405, 309.722 319.209, 309.162 315.611 C 307.927 307.681, 303.612 300.758, 298.876 299.107 C 297.130 298.498, 295.656 298.061, 295.601 298.136 C 295.545 298.211, 294.537 298.461, 293.359 298.691 M 238.607 325.750 C 235.286 331.704, 234.940 332.949, 235.671 336.310 C 236.790 341.453, 238.431 341.451, 238.805 336.307 C 239.077 332.565, 239.587 331.813, 243.550 329.307 C 245.992 327.763, 248.645 325.150, 249.446 323.500 C 250.761 320.789, 250.738 320.435, 249.201 319.820 C 244.206 317.824, 242.493 318.783, 238.607 325.750 M 36.042 333.091 C 32.918 335.017, 32.749 335.344, 34.292 336.472 C 35.854 337.614, 36.760 342, 35.434 342 C 33.829 342, 31 339.745, 31 338.465 C 31 336.235, 28.498 336.710, 25.077 339.589 C 21.831 342.320, 21.429 343.554, 22.985 346 C 23.758 347.216, 24.308 347.271, 25.888 346.292 C 27.504 345.291, 28.279 345.432, 30.419 347.115 C 33.699 349.695, 33.773 352.589, 30.579 353.391 C 27.623 354.133, 25.215 353.346, 22.237 350.664 C 19.414 348.123, 18.045 349.249, 17.311 354.716 C 15.917 365.108, 29.184 373.873, 36.254 367.231 C 39.742 363.954, 40.332 364.442, 39.594 370 L 38.931 375 43.260 375 L 47.589 375 60.740 398.250 C 67.974 411.038, 74.178 422.257, 74.527 423.182 C 74.980 424.382, 74.313 425.304, 72.202 426.395 C 70.574 427.237, 68.963 428.654, 68.621 429.545 C 66.633 434.726, 69.608 441.183, 74.556 442.425 C 76.831 442.996, 77.063 443.436, 76.483 446.078 C 75.656 449.845, 77.727 453.230, 81.923 454.968 C 84.033 455.842, 85 456.930, 85 458.430 C 85 462.258, 87.410 464.244, 93.544 465.469 L 99.395 466.637 104.447 475.827 C 110.935 487.628, 112.173 489, 116.335 489 C 120.330 489, 123 486.453, 123 482.643 C 123 479.562, 119.123 471.670, 112.631 461.536 L 108.169 454.571 111.085 451.251 C 112.688 449.425, 114 446.801, 114 445.420 C 114 440.199, 121.472 435.654, 138.608 430.451 C 147.686 427.695, 155.299 424.297, 160.303 420.766 C 162.760 419.032, 163.646 418.925, 167.495 419.895 C 169.910 420.503, 173.486 421, 175.443 421 L 179 421 179 411.696 C 179 403.052, 179.215 402.052, 182.035 397.606 L 185.070 392.820 181.438 388.800 C 176.469 383.299, 175.020 379.319, 174.882 370.782 C 174.817 366.777, 174.479 362.205, 174.132 360.622 L 173.500 357.745 169.609 363.400 C 163.710 371.974, 154.958 378.061, 146.453 379.504 C 138.246 380.896, 137.498 381.778, 140.559 386.449 C 142.016 388.674, 141.984 388.870, 140.059 389.481 C 138.926 389.841, 137.100 389.849, 136 389.500 C 134.230 388.938, 134 389.320, 134 392.819 C 134 396.050, 134.663 397.416, 137.634 400.301 L 141.268 403.831 139.089 407.356 C 136.101 412.191, 126.987 420.344, 121.720 422.893 C 113.409 426.917, 106.646 425.649, 96.956 418.250 C 94.615 416.462, 91.530 414.968, 90.100 414.930 C 88.670 414.891, 86.730 414.554, 85.788 414.180 C 84.846 413.806, 78.149 403.649, 70.905 391.609 C 57.751 369.744, 57.737 369.715, 59.368 366.955 C 61.826 362.793, 61.387 361.456, 57 359.732 C 54.800 358.868, 53 357.765, 53 357.281 C 53 356.798, 54.586 355.828, 56.525 355.127 C 61.559 353.307, 63.359 350.085, 62.769 343.951 C 62.121 337.204, 58.556 333.248, 51.629 331.589 C 48.806 330.913, 48.770 330.958, 49.414 334.391 C 50.283 339.023, 49.238 342.802, 46.714 344.153 C 45.054 345.041, 44.402 344.903, 43.329 343.435 C 41.517 340.958, 41.656 337.292, 43.603 336.202 C 44.484 335.709, 45.043 334.449, 44.844 333.403 C 44.330 330.693, 40.171 330.545, 36.042 333.091 M 205.965 339.934 C 207.775 343.316, 207.097 346.511, 203.499 351.573 C 199.200 357.619, 198.359 361.531, 200.340 366.272 C 202.055 370.377, 205.917 372.753, 212.294 373.627 C 216.542 374.209, 227.596 372.526, 228.347 371.183 C 228.556 370.807, 228.072 368.194, 227.271 365.376 L 225.814 360.253 222.157 361.102 C 216.523 362.412, 211.378 362.161, 210.008 360.509 C 209.245 359.591, 209.013 357.767, 209.403 355.759 C 211.302 345.982, 211.241 343.556, 209.026 340.750 C 206.510 337.563, 204.394 336.999, 205.965 339.934 M 266.638 349.500 C 266.969 350.362, 266.658 351, 265.907 351 C 264.890 351, 264.867 351.267, 265.800 352.200 C 266.460 352.860, 267 354.644, 267 356.165 C 267 359.091, 269.319 361, 272.875 361 C 276.042 361, 276.161 359.612, 273.505 353.608 C 271.454 348.970, 270.596 348, 268.544 348 C 266.749 348, 266.222 348.415, 266.638 349.500 M 426.029 350.961 C 424.801 351.738, 424.760 352.446, 425.779 355.266 C 426.451 357.123, 427 359.800, 427 361.216 C 427 363.694, 426.862 363.754, 423.250 362.825 C 414.748 360.639, 415.252 360.576, 414.517 363.924 C 413.643 367.901, 414.816 375.011, 416.338 374.965 C 416.977 374.945, 418.625 374.286, 420 373.500 C 423.937 371.250, 427.003 371.579, 426.986 374.250 C 426.955 379.435, 425.885 380.799, 420.156 382.956 C 408.960 387.172, 400.502 395.708, 397.883 405.433 C 397.296 407.614, 396.970 413.358, 397.158 418.199 C 397.380 423.919, 397.131 427.001, 396.446 427.001 C 392.790 426.999, 378.362 415.016, 373.408 407.867 L 370.582 403.790 373.809 401.145 C 378.524 397.280, 380.659 388.042, 376.466 389.652 C 375.657 389.962, 373.855 389.929, 372.461 389.580 C 370.071 388.980, 370.014 388.818, 371.463 386.749 C 374.311 382.683, 372.975 380, 368.100 380 C 360.119 380, 350.008 373.230, 342.300 362.726 L 338.500 357.547 337.824 362.023 C 337.452 364.486, 337.115 369.102, 337.074 372.282 C 336.984 379.299, 335.142 383.994, 330.432 389.207 L 326.874 393.146 329.454 396.529 C 332.616 400.675, 334.202 408.428, 333.358 415.613 L 332.725 421 335.786 421 C 337.470 421, 341.019 420.503, 343.674 419.897 C 348.384 418.820, 348.660 418.891, 355.154 422.849 C 358.813 425.080, 368.488 429.216, 376.654 432.041 C 395.567 438.584, 400.032 441.051, 406.778 448.687 C 414.988 457.980, 422.549 460.503, 428.400 455.900 C 430.938 453.904, 432.778 453.826, 437.217 455.530 C 437.989 455.826, 440.393 454.852, 442.560 453.366 C 445.146 451.593, 447.613 450.732, 449.739 450.863 C 454.255 451.139, 461.689 444.344, 462.557 439.147 C 462.892 437.141, 464.005 432.800, 465.030 429.500 C 469.297 415.775, 468.456 406.876, 461.985 397.261 C 457.132 390.050, 452.311 386.221, 444.559 383.421 C 438.802 381.342, 438.455 381.026, 437.604 377.096 C 437.111 374.821, 437.021 372.646, 437.404 372.263 C 437.787 371.880, 440.370 372.372, 443.143 373.357 C 445.916 374.342, 448.458 374.876, 448.790 374.543 C 449.623 373.710, 449.654 363.873, 448.830 361.877 C 448.217 360.391, 447.708 360.407, 442.830 362.067 L 437.500 363.881 437.153 361.734 C 436.963 360.554, 437.337 357.818, 437.986 355.654 C 438.936 352.482, 438.906 351.556, 437.832 350.875 C 436.041 349.740, 427.866 349.799, 426.029 350.961 M 211.667 397.667 C 211.300 398.033, 211 399.328, 211 400.545 C 211 406.985, 203.430 417.379, 195.018 422.489 C 191.708 424.500, 189 426.425, 189 426.768 C 189 427.110, 190.145 428.586, 191.544 430.046 L 194.089 432.702 187.906 438.427 C 171.988 453.164, 155.839 463.705, 142 468.391 C 134.526 470.922, 134.500 470.943, 134.612 474.440 C 134.969 485.664, 153.459 493.886, 168.572 489.541 C 176.698 487.206, 182.588 483.218, 191.007 474.355 C 197.912 467.087, 208.913 451.485, 212.589 443.750 C 214.383 439.972, 218 438.484, 218 441.522 C 218 444.289, 210.217 458.586, 202.100 470.728 C 193.174 484.082, 185.871 491.446, 174.560 498.495 C 170.402 501.087, 167 503.403, 167 503.643 C 167 503.883, 167.896 505.836, 168.991 507.982 C 174.449 518.682, 192.077 524.327, 203.637 519.078 C 218.996 512.103, 227.830 494.587, 240.114 446.750 C 240.675 444.567, 241.688 443, 242.539 443 C 245.737 443, 243.699 459.471, 236.940 488.242 C 234.710 497.734, 232.635 508.200, 232.329 511.500 C 231.168 524.015, 235.222 530.001, 248.221 534.964 L 256.113 537.978 261.639 536.036 C 269.202 533.377, 275.346 529.628, 277.608 526.291 C 280.005 522.755, 280.026 508.918, 277.650 498.500 C 276.772 494.650, 274.463 484.525, 272.518 476 C 270.574 467.475, 268.692 456.516, 268.335 451.646 C 267.738 443.504, 267.829 442.821, 269.465 443.146 C 270.860 443.424, 272.059 446.753, 275.024 458.574 C 284.537 496.513, 297.338 516.783, 314.514 521.108 C 323.944 523.482, 335.967 518.295, 341.943 509.272 C 343.624 506.734, 345 504.331, 345 503.932 C 345 503.533, 341.512 501.035, 337.250 498.381 C 326.977 491.985, 318.023 482.806, 309.564 470 C 301.467 457.744, 294.041 444.249, 294.017 441.750 C 294.007 440.741, 294.741 440.003, 295.750 440.007 C 296.898 440.011, 299.157 442.936, 302.321 448.515 C 316.440 473.418, 333.652 489.180, 348.385 490.700 C 362.729 492.181, 378.675 482.964, 377.772 473.714 C 377.525 471.182, 376.744 470.668, 369.164 468.049 C 364.579 466.466, 357.223 462.994, 352.819 460.335 C 340.434 452.857, 319 435.134, 319 432.370 C 319 431.696, 320.194 430.206, 321.653 429.059 C 323.112 427.911, 324.124 426.839, 323.903 426.676 C 323.681 426.513, 321.191 424.931, 318.368 423.161 C 308.215 416.794, 301.029 407.092, 301.006 399.719 C 300.997 397.063, 298.849 396.689, 290.267 397.850 C 277.906 399.521, 269.775 402.493, 262.500 408 L 256 412.920 249.500 408 C 242.504 402.704, 234.365 399.625, 223.031 397.985 C 215.203 396.852, 212.556 396.778, 211.667 397.667" stroke="none" fill="#fffcfc" fill-rule="evenodd"/><path d="" stroke="none" fill="#fcfcfc" fill-rule="evenodd"/></svg>