<svg width="140" height="140" viewBox="0 0 140 140" fill="none" xmlns="http://www.w3.org/2000/svg">
<path opacity="0.1" d="M108.397 24.7827H32.6972C31.187 24.7827 29.9628 26.0069 29.9628 27.5171V96.4824H20.5347C20.1721 96.4824 19.8243 96.6264 19.5679 96.8828C19.3115 97.1392 19.1675 97.487 19.1675 97.8496V125.193C19.1675 125.556 19.3115 125.904 19.5679 126.16C19.8243 126.416 20.1721 126.561 20.5347 126.561H47.8784C48.241 126.561 48.5888 126.416 48.8452 126.16C49.1016 125.904 49.2456 125.556 49.2456 125.193V122.12H108.397C109.907 122.12 111.132 120.896 111.132 119.386V27.5171C111.132 26.0069 109.907 24.7827 108.397 24.7827Z" fill="#00EAFF"/>
<path d="M29.9626 82.6785V112.823C29.9626 114.333 31.1868 115.557 32.697 115.557H108.397C109.907 115.557 111.131 114.333 111.131 112.823V82.6785H29.9626ZM111.131 32.5224V20.9546C111.131 19.4444 109.907 18.2202 108.397 18.2202H32.697C31.1868 18.2202 29.9626 19.4444 29.9626 20.9546V32.5224H111.131Z" fill="#11A2AA"/>
<path d="M42.9815 28.3626H39.5723C39.3547 28.3626 39.1461 28.2761 38.9922 28.1223C38.8384 27.9685 38.752 27.7598 38.752 27.5422V24.1333C38.752 23.9157 38.8384 23.7071 38.9922 23.5533C39.1461 23.3994 39.3547 23.313 39.5723 23.313H42.9812C43.1988 23.313 43.4074 23.3994 43.5613 23.5533C43.7151 23.7071 43.8015 23.9157 43.8015 24.1333V27.5422C43.8016 27.65 43.7804 27.7566 43.7392 27.8561C43.698 27.9557 43.6376 28.0461 43.5614 28.1223C43.4853 28.1985 43.3949 28.2589 43.2954 28.3001C43.1959 28.3413 43.0892 28.3626 42.9815 28.3626ZM50.2557 28.3626H46.8468C46.6292 28.3626 46.4206 28.2761 46.2667 28.1223C46.1129 27.9685 46.0265 27.7598 46.0265 27.5422V24.1333C46.0265 23.9157 46.1129 23.7071 46.2667 23.5533C46.4206 23.3994 46.6292 23.313 46.8468 23.313H50.2557C50.4733 23.313 50.682 23.3994 50.8358 23.5533C50.9896 23.7071 51.0761 23.9157 51.0761 24.1333V27.5422C51.0761 27.7598 50.9896 27.9685 50.8358 28.1223C50.682 28.2761 50.4733 28.3626 50.2557 28.3626ZM57.5303 28.3626H54.1213C53.9038 28.3626 53.6951 28.2761 53.5413 28.1223C53.3874 27.9685 53.301 27.7598 53.301 27.5422V24.1333C53.301 23.9157 53.3874 23.7071 53.5413 23.5533C53.6951 23.3994 53.9038 23.313 54.1213 23.313H57.5303C57.7478 23.313 57.9565 23.3994 58.1103 23.5533C58.2642 23.7071 58.3506 23.9157 58.3506 24.1333V27.5422C58.3506 27.7598 58.2642 27.9685 58.1103 28.1223C57.9565 28.2761 57.7478 28.3626 57.5303 28.3626Z" fill="white"/>
<path d="M68.3428 25.8379H102.342" stroke="white" stroke-width="2.38281" stroke-miterlimit="10" stroke-linecap="round" stroke-linejoin="round"/>
<path d="M29.9626 52.529V112.823C29.9626 114.333 31.1868 115.557 32.697 115.557M56.8552 115.557H108.397C109.907 115.557 111.131 114.333 111.131 112.823V20.9546C111.131 19.4444 109.907 18.2202 108.397 18.2202H32.697C31.1868 18.2202 29.9626 19.4444 29.9626 20.9546V44.768" stroke="#00EAFF" stroke-width="2.38281" stroke-miterlimit="10" stroke-linecap="round" stroke-linejoin="round"/>
<path d="M88.8557 43.9972V42.4302H99.9767V43.9972M95.7466 56.8324H93.0855M94.4161 42.4302V56.8324" stroke="#11A2AA" stroke-width="2.38281" stroke-miterlimit="10" stroke-linecap="round" stroke-linejoin="round"/>
<path d="M54.0147 43.9004V65.8793L50.0956 66.6996L46.1753 65.8793V43.9004C46.1753 43.4465 46.5417 43.0801 46.9956 43.0801H53.1944C53.6483 43.0801 54.0147 43.4465 54.0147 43.9004ZM65.0261 59.202V65.8793L61.0741 66.6996L57.1866 65.8793V59.202C57.1866 58.748 57.553 58.3816 58.0069 58.3816H64.2058C64.6597 58.3816 65.0261 58.748 65.0261 59.202ZM76.0374 50.452V65.8793L72.1177 66.6996L68.198 65.8793V50.452C68.198 49.998 68.5644 49.6316 69.0183 49.6316H75.2171C75.671 49.6316 76.0374 49.998 76.0374 50.452Z" fill="#11A2AA"/>
<path d="M46.1758 65.8794V69.9443C46.1758 70.1619 46.2622 70.3705 46.416 70.5244C46.5699 70.6782 46.7785 70.7646 46.9961 70.7646H53.1952C53.4128 70.7646 53.6214 70.6782 53.7752 70.5244C53.9291 70.3705 54.0155 70.1619 54.0155 69.9443V65.8794H46.1758ZM57.1868 65.8794V69.9443C57.1868 70.1619 57.2733 70.3705 57.4271 70.5244C57.5809 70.6782 57.7896 70.7646 58.0071 70.7646H64.2063C64.4238 70.7646 64.6325 70.6782 64.7863 70.5244C64.9401 70.3705 65.0266 70.1619 65.0266 69.9443V65.8794H57.1868ZM68.1976 65.8794V69.9443C68.1976 70.1619 68.284 70.3705 68.4379 70.5244C68.5917 70.6782 68.8004 70.7646 69.0179 70.7646H75.217C75.4346 70.7646 75.6432 70.6782 75.7971 70.5244C75.9509 70.3705 76.0373 70.1619 76.0373 69.9443V65.8794H68.1976Z" fill="#00EAFF"/>
<path d="M81.6382 75.8712H40.511V40.9609M95.5023 64.7251H100.584M90.0335 70.298H100.584M90.0335 75.8712H100.584" stroke="#11A2AA" stroke-width="2.38281" stroke-miterlimit="10" stroke-linecap="round" stroke-linejoin="round"/>
<path d="M58.146 89.9199H100.583M90.0332 95.4928H100.583M58.146 95.4928H84.3079M58.146 101.066H100.583M58.146 106.639H100.583" stroke="white" stroke-width="2.38281" stroke-miterlimit="10" stroke-linecap="round" stroke-linejoin="round"/>
<path d="M40.5104 43.4907H37.877M40.5104 50.6258H37.877M40.5104 57.7606H37.877M40.5104 64.8957H37.877M40.5104 72.0308H37.877" stroke="#11A2AA" stroke-width="2.38281" stroke-miterlimit="10" stroke-linecap="round" stroke-linejoin="round"/>
<path d="M47.8784 119.998H20.5347C20.1721 119.998 19.8243 119.854 19.5679 119.598C19.3115 119.341 19.1675 118.993 19.1675 118.631V91.2871C19.1675 90.9245 19.3115 90.5768 19.5679 90.3204C19.8243 90.064 20.1721 89.9199 20.5347 89.9199H47.8784C48.241 89.9199 48.5888 90.064 48.8452 90.3204C49.1016 90.5768 49.2456 90.9245 49.2456 91.2871V118.631C49.2456 118.993 49.1016 119.341 48.8452 119.598C48.5888 119.854 48.241 119.998 47.8784 119.998Z" fill="white"/>
<path d="M47.1372 117.318C47.0579 117.048 46.7271 116.925 46.4812 117.077C46.0279 117.359 45.6265 117.5 45.277 117.5C44.8699 117.5 44.5964 117.35 44.4556 117.051C44.3148 116.752 44.2445 116.243 44.2445 115.525V104.157C44.2445 102.512 44.1269 101.21 43.8926 100.252C43.658 99.2953 43.1959 98.4876 42.5079 97.8292C41.7571 97.1111 40.8181 96.6028 39.6915 96.3034C37.2453 95.6532 34.6329 95.6676 32.1556 96.1511C30.0985 96.5525 27.8219 97.2927 26.5725 99.0184C24.9776 101.221 26.4435 104.605 29.3651 104.605C32.9956 104.605 34.4218 100.134 31.2888 98.279C32.1411 97.9522 33.7634 97.5005 35.3723 97.9823C36.6238 98.3569 37.4824 99.4736 37.4854 100.727V104.246C37.4854 105.054 37.0865 105.69 36.2886 106.153C32.9882 108.07 28.3638 108.218 25.8217 111.269C24.5578 112.786 24.3637 115.013 25.088 116.807C26.0139 119.099 28.2257 119.998 30.6796 119.998C33.7142 119.998 36.0143 118.786 37.5792 116.363C37.6098 117.47 37.9699 118.353 38.6587 119.01C39.3467 119.669 40.5517 119.998 42.273 119.998C44.1939 119.998 45.8359 119.504 47.1987 118.517C47.2685 118.468 47.3212 118.398 47.3496 118.318C47.378 118.237 47.3807 118.15 47.3573 118.068L47.1372 117.318ZM37.4854 113.611C36.5773 114.838 35.771 115.546 34.4344 115.818C33.4787 116.013 31.3834 115.693 31.3834 113.536C31.3834 111.464 33.8711 110.484 35.0912 109.735C36.3116 109.017 37.1094 108.36 37.4851 107.761L37.4854 113.611Z" fill="#11A2AA"/>
<path d="M23.959 94.6357V94.6716" stroke="#11A2AA" stroke-width="2.38281" stroke-miterlimit="10" stroke-linecap="round" stroke-linejoin="round"/>
<path d="M47.8784 119.998H20.5347C20.1721 119.998 19.8243 119.854 19.5679 119.598C19.3115 119.341 19.1675 118.993 19.1675 118.631V91.2871C19.1675 90.9245 19.3115 90.5768 19.5679 90.3204C19.8243 90.064 20.1721 89.9199 20.5347 89.9199H47.8784C48.241 89.9199 48.5888 90.064 48.8452 90.3204C49.1016 90.5768 49.2456 90.9245 49.2456 91.2871V118.631C49.2456 118.993 49.1016 119.341 48.8452 119.598C48.5888 119.854 48.241 119.998 47.8784 119.998Z" stroke="#00EAFF" stroke-width="2.38281" stroke-miterlimit="10" stroke-linecap="round" stroke-linejoin="round"/>
<path d="M10.0027 92.7039C11.5128 92.7039 12.7371 91.4796 12.7371 89.9695C12.7371 88.4593 11.5128 87.2351 10.0027 87.2351C8.49253 87.2351 7.26831 88.4593 7.26831 89.9695C7.26831 91.4796 8.49253 92.7039 10.0027 92.7039Z" stroke="#11A2AA" stroke-width="2.38281" stroke-miterlimit="10" stroke-linecap="round" stroke-linejoin="round"/>
<path d="M58.8823 132.426C60.3925 132.426 61.6167 131.202 61.6167 129.692C61.6167 128.182 60.3925 126.958 58.8823 126.958C57.3722 126.958 56.1479 128.182 56.1479 129.692C56.1479 131.202 57.3722 132.426 58.8823 132.426Z" stroke="#11A2AA" stroke-width="2.38281" stroke-miterlimit="10" stroke-linecap="round" stroke-linejoin="round"/>
<path d="M120.635 128.598C122.145 128.598 123.369 127.374 123.369 125.864C123.369 124.354 122.145 123.129 120.635 123.129C119.125 123.129 117.901 124.354 117.901 125.864C117.901 127.374 119.125 128.598 120.635 128.598Z" stroke="#11A2AA" stroke-width="2.38281" stroke-miterlimit="10" stroke-linecap="round" stroke-linejoin="round"/>
<path d="M18.5881 75.1953L15.8538 77.9297M80.7323 7.9729L77.9979 10.7073" stroke="#11A2AA" stroke-width="2.38281" stroke-miterlimit="10" stroke-linecap="round" stroke-linejoin="round"/>
</svg>
