<svg width="140" height="140" viewBox="0 0 140 140" fill="none" xmlns="http://www.w3.org/2000/svg">
<g opacity="0.1">
<path d="M125.976 90.1743C125.614 90.1743 125.266 90.3183 125.009 90.5747C124.753 90.8311 124.609 91.1789 124.609 91.5415V96.2148H109.313C108.95 96.2148 108.603 96.3588 108.346 96.6152C108.09 96.8716 107.946 97.2194 107.946 97.582C107.946 97.9446 108.09 98.2923 108.346 98.5487C108.603 98.8051 108.95 98.9492 109.313 98.9492H124.609V104.436H109.312C108.949 104.436 108.602 104.58 108.345 104.836C108.089 105.093 107.945 105.441 107.945 105.803C107.945 106.166 108.089 106.513 108.345 106.77C108.602 107.026 108.949 107.17 109.312 107.17H125.976C126.339 107.17 126.687 107.026 126.943 106.77C127.199 106.513 127.343 106.166 127.343 105.803V91.5415C127.343 91.1789 127.199 90.8311 126.943 90.5747C126.687 90.3183 126.339 90.1743 125.976 90.1743ZM120.709 64.9136H124.609V65.8835C124.609 66.2461 124.753 66.5938 125.009 66.8502C125.266 67.1066 125.614 67.2506 125.976 67.2506C126.339 67.2506 126.687 67.1066 126.943 66.8502C127.199 66.5938 127.343 66.2461 127.343 65.8835V63.5464C127.343 63.1838 127.199 62.836 126.943 62.5796C126.687 62.3232 126.339 62.1792 125.976 62.1792H120.709C120.346 62.1792 119.998 62.3232 119.742 62.5796C119.486 62.836 119.341 63.1838 119.341 63.5464C119.341 63.909 119.486 64.2567 119.742 64.5131C119.998 64.7695 120.346 64.9136 120.709 64.9136ZM128.443 85.9899L124.36 84.6528C124.019 84.5503 123.65 84.5854 123.334 84.7506C123.018 84.9158 122.779 85.198 122.668 85.5371C122.557 85.8762 122.582 86.2452 122.74 86.5655C122.897 86.8858 123.173 87.132 123.509 87.2515L127.592 88.5886C127.936 88.7014 128.311 88.6727 128.635 88.5089C128.958 88.3451 129.203 88.0595 129.316 87.715C129.372 87.5444 129.394 87.3644 129.381 87.1853C129.367 87.0062 129.318 86.8316 129.237 86.6714C129.156 86.5112 129.044 86.3685 128.908 86.2516C128.772 86.1346 128.614 86.0457 128.443 85.9899ZM128.443 80.8706L124.36 79.5335C124.016 79.4206 123.64 79.4492 123.317 79.6131C122.993 79.777 122.748 80.0626 122.635 80.4072C122.523 80.7518 122.551 81.1272 122.715 81.4507C122.879 81.7742 123.165 82.0193 123.509 82.1322L127.592 83.4693C127.936 83.5821 128.311 83.5534 128.635 83.3896C128.958 83.2258 129.203 82.9402 129.316 82.5957C129.372 82.4251 129.394 82.2451 129.381 82.066C129.367 81.8869 129.318 81.7123 129.237 81.5521C129.156 81.3919 129.044 81.2492 128.908 81.1323C128.772 81.0153 128.614 80.9264 128.443 80.8706ZM128.443 75.7513L124.36 74.4142C124.016 74.3013 123.64 74.3299 123.317 74.4938C122.993 74.6577 122.748 74.9433 122.635 75.2879C122.523 75.6325 122.551 76.0079 122.715 76.3314C122.879 76.6549 123.165 76.9 123.509 77.0129L127.592 78.35C127.936 78.4628 128.311 78.4341 128.635 78.2703C128.958 78.1065 129.203 77.8209 129.316 77.4764C129.372 77.3058 129.394 77.1258 129.38 76.9467C129.367 76.7677 129.318 76.593 129.237 76.4328C129.156 76.2726 129.044 76.13 128.908 76.013C128.771 75.8961 128.614 75.8071 128.443 75.7513ZM122.636 70.1688C122.58 70.3394 122.558 70.5194 122.572 70.6984C122.585 70.8775 122.634 71.0521 122.715 71.2123C122.796 71.3725 122.908 71.5151 123.045 71.6321C123.181 71.749 123.339 71.838 123.509 71.8939L127.592 73.231C127.937 73.3438 128.312 73.3152 128.635 73.1513C128.959 72.9874 129.204 72.7017 129.317 72.3571C129.43 72.0125 129.401 71.6371 129.237 71.3137C129.073 70.9902 128.787 70.7451 128.443 70.6323L124.36 69.2951C124.016 69.1823 123.641 69.211 123.317 69.3749C122.994 69.5387 122.749 69.8243 122.636 70.1688ZM30.7004 104.436H15.4035V98.9494H30.6999C31.0625 98.9494 31.4102 98.8054 31.6666 98.549C31.923 98.2926 32.0671 97.9449 32.0671 97.5822C32.0671 97.2197 31.923 96.8719 31.6666 96.6155C31.4102 96.3591 31.0625 96.2151 30.6999 96.2151H15.4035V91.5415C15.4035 91.1789 15.2595 90.8311 15.0031 90.5747C14.7467 90.3183 14.3989 90.1743 14.0363 90.1743C13.6737 90.1743 13.326 90.3183 13.0696 90.5747C12.8132 90.8311 12.6691 91.1789 12.6691 91.5415V105.803C12.6691 106.166 12.8132 106.513 13.0696 106.77C13.326 107.026 13.6737 107.17 14.0363 107.17H30.7004C30.8816 107.173 31.0614 107.139 31.2295 107.072C31.3976 107.004 31.5506 106.904 31.6797 106.777C31.8087 106.65 31.9111 106.498 31.981 106.331C32.0509 106.164 32.087 105.984 32.087 105.803C32.087 105.622 32.0509 105.443 31.981 105.276C31.9111 105.108 31.8087 104.957 31.6797 104.83C31.5506 104.703 31.3976 104.602 31.2295 104.535C31.0614 104.467 30.8816 104.434 30.7004 104.436ZM14.0363 67.2506C14.3989 67.2506 14.7467 67.1066 15.0031 66.8502C15.2595 66.5938 15.4035 66.2461 15.4035 65.8835V64.9136H19.3038C19.6664 64.9136 20.0142 64.7695 20.2706 64.5131C20.527 64.2567 20.671 63.909 20.671 63.5464C20.671 63.1838 20.527 62.836 20.2706 62.5796C20.0142 62.3232 19.6664 62.1792 19.3038 62.1792H14.0363C13.6737 62.1792 13.326 62.3232 13.0696 62.5796C12.8132 62.836 12.6691 63.1838 12.6691 63.5464V65.8835C12.6691 66.2461 12.8132 66.5938 13.0696 66.8502C13.326 67.1066 13.6737 67.2506 14.0363 67.2506ZM17.3766 85.5264C17.2638 85.1818 17.0186 84.8962 16.6952 84.7323C16.3717 84.5685 15.9964 84.5399 15.6518 84.6528L11.5694 85.9899C11.3987 86.0457 11.2408 86.1347 11.1045 86.2516C10.9682 86.3685 10.8563 86.5111 10.7752 86.6713C10.694 86.8315 10.6452 87.006 10.6316 87.1851C10.6179 87.3641 10.6396 87.5441 10.6955 87.7147C10.7513 87.8853 10.8403 88.0433 10.9572 88.1796C11.0741 88.3158 11.2167 88.4277 11.3769 88.5089C11.5371 88.59 11.7117 88.6388 11.8907 88.6525C12.0697 88.6662 12.2497 88.6445 12.4203 88.5886L16.5027 87.2515C16.6734 87.1956 16.8314 87.1067 16.9677 86.9898C17.104 86.8728 17.2159 86.7302 17.2971 86.57C17.3782 86.4098 17.427 86.2352 17.4407 86.0561C17.4543 85.877 17.4326 85.697 17.3766 85.5264ZM11.9948 83.5374C12.1359 83.5374 12.2795 83.5155 12.4206 83.4693L16.503 82.1322C16.8476 82.0193 17.1333 81.7742 17.2972 81.4507C17.461 81.1272 17.4897 80.7518 17.3768 80.4072C17.2639 80.0626 17.0188 79.777 16.6953 79.6131C16.3718 79.4492 15.9964 79.4206 15.6518 79.5335L11.5694 80.8706C11.26 80.9716 10.9968 81.1797 10.8271 81.4574C10.6574 81.7351 10.5924 82.0642 10.6437 82.3856C10.6949 82.707 10.8592 82.9996 11.1069 83.2107C11.3545 83.4218 11.6694 83.5377 11.9948 83.5374ZM11.9948 78.4181C12.1359 78.4181 12.2795 78.3962 12.4206 78.35L16.503 77.0129C16.6736 76.957 16.8316 76.8681 16.9679 76.7511C17.1041 76.6342 17.216 76.4916 17.2972 76.3314C17.3783 76.1712 17.4271 75.9966 17.4407 75.8176C17.4544 75.6385 17.4327 75.4586 17.3768 75.2879C17.3209 75.1173 17.2319 74.9593 17.115 74.8231C16.9981 74.6868 16.8554 74.5749 16.6953 74.4938C16.5351 74.4127 16.3605 74.3639 16.1814 74.3502C16.0024 74.3365 15.8224 74.3583 15.6518 74.4142L11.5694 75.7513C11.26 75.8523 10.9968 76.0604 10.8271 76.3381C10.6574 76.6158 10.5924 76.9449 10.6437 77.2663C10.6949 77.5877 10.8592 77.8803 11.1069 78.0914C11.3545 78.3025 11.6694 78.4184 11.9948 78.4181ZM11.9948 73.2988C12.1359 73.2988 12.2795 73.2769 12.4206 73.2307L16.503 71.8936C16.6737 71.8377 16.8316 71.7488 16.9679 71.6318C17.1042 71.5149 17.216 71.3722 17.2972 71.212C17.3783 71.0518 17.4271 70.8772 17.4407 70.6982C17.4543 70.5191 17.4326 70.3391 17.3766 70.1685C17.2638 69.8239 17.0186 69.5383 16.6952 69.3745C16.3717 69.2106 15.9964 69.182 15.6518 69.2949L11.5694 70.632C11.26 70.733 10.9968 70.9411 10.8271 71.2188C10.6574 71.4965 10.5924 71.8256 10.6437 72.147C10.6949 72.4684 10.8592 72.761 11.1069 72.9721C11.3545 73.1832 11.6694 73.2991 11.9948 73.2988Z" fill="#2626BB"/>
</g>
<path d="M36.8443 28.2079L31.0769 33.9755C30.9399 34.1125 30.8312 34.2751 30.7571 34.4541C30.683 34.6331 30.6448 34.8249 30.6448 35.0187C30.6448 35.2124 30.683 35.4042 30.7571 35.5832C30.8312 35.7622 30.9399 35.9248 31.0769 36.0618L35.2881 40.2728C33.7546 43.0024 32.5508 45.9046 31.702 48.9183H25.7514C25.5577 48.9183 25.3658 48.9565 25.1868 49.0306C25.0078 49.1048 24.8452 49.2135 24.7082 49.3505C24.5712 49.4875 24.4626 49.6502 24.3885 49.8292C24.3143 50.0082 24.2762 50.2 24.2762 50.3938V69.043C24.2762 69.4343 24.4317 69.8095 24.7083 70.0862C24.985 70.3628 25.3602 70.5182 25.7514 70.5182H31.7017C32.5506 73.5319 33.7544 76.4341 35.2878 79.1638L31.0766 83.375C30.9396 83.512 30.831 83.6746 30.7568 83.8536C30.6827 84.0326 30.6445 84.2244 30.6445 84.4182C30.6445 84.6119 30.6827 84.8037 30.7568 84.9827C30.831 85.1617 30.9396 85.3243 31.0766 85.4613L44.2637 98.6484C44.4007 98.7854 44.5633 98.8941 44.7423 98.9682C44.9213 99.0423 45.1131 99.0805 45.3069 99.0805C45.5006 99.0805 45.6924 99.0423 45.8714 98.9682C46.0504 98.8941 46.213 98.7854 46.35 98.6484L50.5612 94.4375C53.291 95.9709 56.1931 97.1747 59.2068 98.0236V103.974C59.2068 104.365 59.3622 104.74 59.6388 105.017C59.9155 105.294 60.2907 105.449 60.682 105.449H79.3312C79.525 105.449 79.7168 105.411 79.8958 105.337C80.0748 105.263 80.2375 105.154 80.3745 105.017C80.5115 104.88 80.6201 104.717 80.6942 104.538C80.7683 104.359 80.8065 104.168 80.8064 103.974V98.0236C83.8201 97.1746 86.7222 95.9708 89.452 94.4375L93.6629 98.6484C93.7999 98.7854 93.9625 98.8941 94.1415 98.9682C94.3205 99.0423 94.5124 99.0805 94.7061 99.0805C94.8998 99.0805 95.0917 99.0423 95.2707 98.9682C95.4496 98.8941 95.6123 98.7854 95.7493 98.6484L108.936 85.4613C109.073 85.3243 109.182 85.1617 109.256 84.9827C109.33 84.8037 109.368 84.6119 109.368 84.4182C109.368 84.2244 109.33 84.0326 109.256 83.8536C109.182 83.6746 109.073 83.512 108.936 83.375L104.725 79.1638C106.259 76.4341 107.462 73.5319 108.311 70.5182H114.262C114.653 70.5182 115.028 70.3628 115.305 70.0862C115.581 69.8095 115.737 69.4343 115.737 69.043V50.3938C115.737 50.0025 115.581 49.6273 115.305 49.3506C115.028 49.0739 114.653 48.9184 114.262 48.9183H108.311C107.462 45.9047 106.258 43.0025 104.725 40.2728L108.936 36.0618C109.073 35.9248 109.182 35.7622 109.256 35.5832C109.33 35.4042 109.368 35.2124 109.368 35.0187C109.368 34.8249 109.33 34.6331 109.256 34.4541C109.182 34.2751 109.073 34.1125 108.936 33.9755L95.7493 20.7884C95.6123 20.6514 95.4496 20.5428 95.2707 20.4686C95.0917 20.3945 94.8998 20.3563 94.7061 20.3563C94.5124 20.3563 94.3205 20.3945 94.1415 20.4686C93.9625 20.5428 93.7999 20.6514 93.6629 20.7884L89.452 24.9994C86.7223 23.4659 83.8201 22.2621 80.8064 21.4132V15.4632C80.8064 15.072 80.651 14.6968 80.3744 14.4201C80.0977 14.1435 79.7225 13.988 79.3312 13.988H60.682C60.2907 13.988 59.9155 14.1435 59.6389 14.4201C59.3622 14.6968 59.2068 15.072 59.2068 15.4632V21.4135C56.1932 22.2625 53.291 23.4663 50.5612 24.9996L46.35 20.7887C46.213 20.6517 46.0504 20.543 45.8714 20.4689C45.6924 20.3947 45.5006 20.3566 45.3069 20.3566C45.1131 20.3566 44.9213 20.3947 44.7423 20.4689C44.5633 20.543 44.4007 20.6517 44.2637 20.7887L41.3218 23.7303" stroke="#00EAFF" stroke-width="2.38281" stroke-miterlimit="10" stroke-linecap="round" stroke-linejoin="round"/>
<path d="M70.0065 90.1171C86.7954 90.1171 100.405 76.507 100.405 59.7182C100.405 42.9294 86.7954 29.3193 70.0065 29.3193C53.2177 29.3193 39.6077 42.9294 39.6077 59.7182C39.6077 76.507 53.2177 90.1171 70.0065 90.1171Z" fill="white"/>
<path d="M70.0065 86.4542C84.7724 86.4542 96.7424 74.4841 96.7424 59.7183C96.7424 44.9525 84.7724 32.9824 70.0065 32.9824C55.2407 32.9824 43.2706 44.9525 43.2706 59.7183C43.2706 74.4841 55.2407 86.4542 70.0065 86.4542Z" fill="#11A2AA"/>
<path d="M57.8047 82.5039H82.2084" stroke="#00EAFF" stroke-width="2.38281" stroke-miterlimit="10" stroke-linecap="round" stroke-linejoin="round"/>
<path d="M77.2223 84.1228L78.423 77.7927C78.9105 75.2218 80.1615 72.8711 81.9572 70.968C84.7328 68.0263 86.4344 64.0607 86.4344 59.6971C86.4344 50.6242 79.0795 43.2693 70.0066 43.2693C60.9339 43.2693 53.5787 50.6242 53.5787 59.6971C53.5787 64.0607 55.2803 68.0266 58.056 70.968C59.8517 72.8711 61.1026 75.2218 61.5902 77.7927L62.7906 84.1228H77.2223Z" fill="white"/>
<path d="M67.419 84.1229C67.419 84.1229 67.419 72.932 64.832 68.2923M72.7811 84.1229C72.7811 84.1229 72.7811 72.932 75.3681 68.2923M66.1254 71.4278H74.1817M62.4427 61.709V62.6253M67.6326 61.709V62.6253M72.8224 61.709V62.6253M78.0123 61.709V62.6253" stroke="#11A2AA" stroke-width="2.38281" stroke-miterlimit="10" stroke-linecap="round" stroke-linejoin="round"/>
<path d="M77.2223 84.1228L78.423 77.7927C78.9105 75.2218 80.1615 72.8711 81.9572 70.968C84.7328 68.0263 86.4344 64.0607 86.4344 59.6971C86.4344 50.6242 79.0795 43.2693 70.0066 43.2693C60.9339 43.2693 53.5787 50.6242 53.5787 59.6971C53.5787 64.0607 55.2803 68.0266 58.056 70.968C59.8517 72.8711 61.1026 75.2218 61.5902 77.7927L62.7906 84.1228" stroke="#00EAFF" stroke-width="2.38281" stroke-miterlimit="10" stroke-linecap="round" stroke-linejoin="round"/>
<path d="M106.023 121.447H94.4097L93.0289 119.777L91.6699 121.447H48.3437L47.8433 120.129L45.6039 121.447H33.991L36.966 95.2247C37.5484 90.1196 41.3328 85.9606 46.3613 84.9052L57.8046 82.5044C58.7699 88.3751 63.864 91.7001 70.0082 91.7001C76.1523 91.7001 81.2464 88.3751 82.2089 82.5044L93.6523 84.9052C98.6808 85.9606 102.468 90.1196 103.045 95.2247L106.023 121.447Z" fill="#11A2AA"/>
<path d="M64.312 103.31L60.8191 107.171L64.312 111.031M75.6881 103.31L79.181 107.171L75.6881 111.031M68.5749 111.031L71.4252 103.31" stroke="white" stroke-width="2.38281" stroke-miterlimit="10" stroke-linecap="round" stroke-linejoin="round"/>
<path d="M70.0087 97.6395C79.2712 97.6395 86.9561 92.6418 88.448 83.8134L82.2081 82.5042C81.2459 88.3765 76.1512 91.7012 70.0079 91.7012C63.8646 91.7012 58.7699 88.3762 57.8047 82.5042L51.5648 83.8134C53.0613 92.6416 60.7463 97.6395 70.0087 97.6395Z" fill="#11A2AA"/>
<path d="M94.4097 121.447H91.6699L89.9336 99.4382C89.8761 98.6863 90.4367 98.0273 91.1886 97.9699C91.3677 97.9556 91.5477 97.9768 91.7186 98.0322C91.8894 98.0876 92.0476 98.176 92.1842 98.2926C92.3209 98.4092 92.4332 98.5515 92.5148 98.7115C92.5963 98.8714 92.6456 99.0459 92.6597 99.225L94.4043 121.338C94.407 121.373 94.4097 121.412 94.4097 121.447ZM50.0801 99.4382L48.3437 121.447H45.6039C45.6039 121.412 45.6066 121.373 45.6094 121.338L47.3539 99.225C47.414 98.4703 48.0703 97.9125 48.825 97.9699C49.0039 97.9837 49.1783 98.0327 49.3382 98.114C49.4982 98.1953 49.6405 98.3074 49.7571 98.4437C49.8737 98.5801 49.9622 98.7382 50.0176 98.9088C50.073 99.0795 50.0942 99.2594 50.0801 99.4382Z" fill="#00EAFF"/>
<path d="M106.022 121.447L104.984 112.298M104.285 106.139L103.046 95.2255C102.468 90.119 98.6811 85.9598 93.652 84.9051L82.2084 82.5038C81.2461 88.3762 76.1515 91.7009 70.0081 91.7009C63.8648 91.7009 58.7701 88.3759 57.8049 82.5038L46.3613 84.9051C41.3322 85.9598 37.5484 90.119 36.9673 95.2255L33.9909 121.447M125.976 88.8071V101.975H109.312M120.709 59.7183H125.976V63.1494M125.976 93.7538H109.313M123.935 83.2178L128.018 84.5546M123.935 78.0985L128.018 79.4356M123.935 72.9794L128.018 74.3163M123.935 67.8601L128.018 69.1972M14.0366 88.8071V101.975H30.7007M19.3041 59.7183H14.0366V63.1494M14.0366 93.7538H30.7001M16.0778 83.2178L11.9954 84.5546M16.0778 78.0985L11.9954 79.4356M16.0778 72.9794L11.9954 74.3163M16.0778 67.8601L11.9954 69.1972" stroke="#00EAFF" stroke-width="2.38281" stroke-miterlimit="10" stroke-linecap="round" stroke-linejoin="round"/>
<path d="M86.5745 46.6572L87.167 44.8936M92.0512 54.7195L90.2878 54.1273M89.6681 49.9256L91.4961 49.017M53.4257 46.6572L52.8331 44.8936M47.949 54.7195L49.7124 54.1273M50.332 49.9256L48.5041 49.017" stroke="white" stroke-width="2.38281" stroke-miterlimit="10" stroke-linecap="round" stroke-linejoin="round"/>
<path d="M22.3361 111.434C22.3361 113.019 21.0506 114.305 19.465 114.305C21.0506 114.305 22.3361 115.59 22.3361 117.176C22.3361 115.59 23.6215 114.305 25.2072 114.305C23.6215 114.305 22.3361 113.019 22.3361 111.434ZM122.568 36.189C122.568 37.7746 121.282 39.0601 119.697 39.0601C121.282 39.0601 122.568 40.3455 122.568 41.9312C122.568 40.3455 123.853 39.0601 125.439 39.0601C123.853 39.0601 122.568 37.7746 122.568 36.189Z" stroke="#11A2AA" stroke-width="2.38281" stroke-miterlimit="10" stroke-linecap="round" stroke-linejoin="round"/>
<path d="M115.737 22.2883L118.608 25.1594L115.736 28.0304L112.865 25.1593L115.737 22.2883Z" stroke="#11A2AA" stroke-width="2.38281" stroke-miterlimit="10" stroke-linecap="round" stroke-linejoin="round"/>
<path d="M119.342 114.364L122.213 117.235L119.342 120.106L116.471 117.235L119.342 114.364Z" stroke="#11A2AA" stroke-width="2.38281" stroke-miterlimit="10" stroke-linecap="round" stroke-linejoin="round"/>
<path d="M22.2039 28.7712L25.0749 31.6423L22.2038 34.5133L19.3328 31.6422L22.2039 28.7712Z" stroke="#11A2AA" stroke-width="2.38281" stroke-miterlimit="10" stroke-linecap="round" stroke-linejoin="round"/>
</svg>
