<svg width="140" height="140" viewBox="0 0 140 140" fill="none" xmlns="http://www.w3.org/2000/svg">
<path d="M124.543 124.452H15.4574C13.1922 124.452 11.3558 122.616 11.3558 120.351V34.4185C11.3558 32.1533 13.1922 30.3169 15.4574 30.3169H124.543C126.808 30.3169 128.644 32.1533 128.644 34.4185V120.351C128.644 122.616 126.808 124.452 124.543 124.452Z" fill="#2626BC" fill-opacity="0.0627451"/>
<path d="M11.3558 65.5222H128.644V84.9235H11.3558V65.5222ZM128.644 42.7072V27.856C128.644 25.5908 126.808 23.7544 124.543 23.7544H15.4574C13.1922 23.7544 11.3558 25.5908 11.3558 27.856V42.7072H128.644Z" fill="#11A2AA"/>
<path d="M124.543 119.257H15.4572C12.4417 119.257 9.9884 116.804 9.9884 113.788V27.856C9.9884 24.8405 12.4417 22.3872 15.4572 22.3872H124.543C127.558 22.3872 130.011 24.8405 130.011 27.856V113.788C130.012 116.804 127.558 119.257 124.543 119.257ZM15.4572 25.1216C13.9494 25.1216 12.7228 26.3482 12.7228 27.856V113.788C12.7228 115.296 13.9494 116.522 15.4572 116.522H124.543C126.05 116.522 127.277 115.296 127.277 113.788V27.856C127.277 26.3482 126.05 25.1216 124.543 25.1216H15.4572Z" fill="#00EAFF"/>
<path d="M23.4125 36.8253C25.0587 36.8253 26.3932 35.4907 26.3932 33.8445C26.3932 32.1983 25.0587 30.8638 23.4125 30.8638C21.7663 30.8638 20.4318 32.1983 20.4318 33.8445C20.4318 35.4907 21.7663 36.8253 23.4125 36.8253Z" fill="white"/>
<path d="M32.9284 36.8253C34.5746 36.8253 35.9091 35.4907 35.9091 33.8445C35.9091 32.1983 34.5746 30.8638 32.9284 30.8638C31.2822 30.8638 29.9476 32.1983 29.9476 33.8445C29.9476 35.4907 31.2822 36.8253 32.9284 36.8253Z" fill="white"/>
<path d="M42.444 36.8253C44.0902 36.8253 45.4247 35.4907 45.4247 33.8445C45.4247 32.1983 44.0902 30.8638 42.444 30.8638C40.7978 30.8638 39.4633 32.1983 39.4633 33.8445C39.4633 35.4907 40.7978 36.8253 42.444 36.8253Z" fill="white"/>
<path d="M118.201 37.1937H80.9701V30.4956H118.201C118.564 30.4956 118.911 30.6396 119.168 30.896C119.424 31.1524 119.568 31.5002 119.568 31.8628V35.8265C119.568 36.1891 119.424 36.5369 119.168 36.7933C118.911 37.0497 118.564 37.1937 118.201 37.1937Z" fill="white"/>
<path d="M81.1532 30.5809C79.7078 29.1355 77.356 29.1355 75.9106 30.5809C74.4652 32.0263 74.4652 34.3781 75.9106 35.8235C77.0144 36.9274 78.6458 37.1852 79.9993 36.6033L81.1882 37.7922C81.4463 38.04 81.7913 38.1768 82.1491 38.1731C82.5069 38.1694 82.8491 38.0257 83.1021 37.7726C83.3551 37.5196 83.4989 37.1775 83.5025 36.8197C83.5062 36.4619 83.3695 36.1169 83.1217 35.8588L81.9328 34.6699C82.5149 33.3161 82.2571 31.6845 81.1532 30.5809ZM77.8441 32.5143C78.2233 32.1351 78.8405 32.1351 79.2197 32.5143C79.599 32.8936 79.599 33.5108 79.2197 33.89C78.8405 34.2693 78.2233 34.2693 77.8441 33.89C77.6619 33.7074 77.5597 33.4601 77.5597 33.2022C77.5597 32.9443 77.6619 32.6969 77.8441 32.5143ZM52.3482 93.0359H36.0292C35.6666 93.0359 35.3188 92.8919 35.0624 92.6355C34.806 92.3791 34.662 92.0313 34.662 91.6687C34.662 91.3061 34.806 90.9584 35.0624 90.702C35.3188 90.4456 35.6666 90.3015 36.0292 90.3015H52.3482C52.7108 90.3015 53.0585 90.4456 53.3149 90.702C53.5713 90.9584 53.7154 91.3061 53.7154 91.6687C53.7154 92.0313 53.5713 92.3791 53.3149 92.6355C53.0585 92.8919 52.7108 93.0359 52.3482 93.0359ZM41.6841 97.8093H36.0292C35.6666 97.8093 35.3188 97.6653 35.0624 97.4089C34.806 97.1525 34.662 96.8047 34.662 96.4421C34.662 96.0795 34.806 95.7318 35.0624 95.4754C35.3188 95.219 35.6666 95.0749 36.0292 95.0749H41.6841C42.0467 95.0749 42.3945 95.219 42.6509 95.4754C42.9073 95.7318 43.0513 96.0795 43.0513 96.4421C43.0513 96.8047 42.9073 97.1525 42.6509 97.4089C42.3945 97.6653 42.0467 97.8093 41.6841 97.8093Z" fill="#00EAFF"/>
<path d="M102.604 84.9237H37.3964C35.8862 84.9237 34.662 83.6995 34.662 82.1893V68.2568C34.662 66.7466 35.8862 65.5225 37.3964 65.5225H102.604C104.114 65.5225 105.338 66.7466 105.338 68.2568V82.1893C105.338 83.6995 104.114 84.9237 102.604 84.9237Z" fill="white"/>
<path d="M102.604 86.2908H37.3964C35.1348 86.2908 33.2948 84.4509 33.2948 82.1893V68.2571C33.2948 65.9955 35.1345 64.1555 37.3964 64.1555H102.604C104.865 64.1555 106.705 65.9955 106.705 68.2571V82.1893C106.705 84.4509 104.865 86.2908 102.604 86.2908ZM37.3964 66.8896C36.6425 66.8896 36.0292 67.5029 36.0292 68.2568V82.189C36.0292 82.9429 36.6425 83.5562 37.3964 83.5562H102.604C103.358 83.5562 103.971 82.9429 103.971 82.189V68.2568C103.971 67.5029 103.358 66.8896 102.604 66.8896H37.3964Z" fill="#00EAFF"/>
<path d="M53.6802 76.671L52.2323 75.2231L53.6802 73.7753C53.928 73.5171 54.0647 73.1722 54.061 72.8144C54.0574 72.4565 53.9136 72.1144 53.6606 71.8614C53.4076 71.6084 53.0655 71.4646 52.7076 71.461C52.3498 71.4573 52.0048 71.594 51.7467 71.8418L50.2988 73.2897L48.851 71.8418C48.7242 71.7139 48.5735 71.6124 48.4074 71.5429C48.2413 71.4735 48.0631 71.4375 47.883 71.4371C47.703 71.4367 47.5246 71.4719 47.3582 71.5406C47.1918 71.6094 47.0406 71.7103 46.9133 71.8376C46.786 71.9649 46.6851 72.1161 46.6163 72.2825C46.5476 72.4489 46.5124 72.6273 46.5128 72.8073C46.5132 72.9874 46.5492 73.1656 46.6186 73.3317C46.6881 73.4978 46.7897 73.6485 46.9175 73.7753L48.3654 75.2231L46.9175 76.671C46.6697 76.9291 46.533 77.2741 46.5367 77.6319C46.5403 77.9897 46.6841 78.3319 46.9371 78.5849C47.1901 78.8379 47.5323 78.9817 47.8901 78.9853C48.2479 78.989 48.5928 78.8523 48.851 78.6045L50.2988 77.1566L51.7467 78.6045C52.0031 78.8609 52.3508 79.0049 52.7134 79.0049C53.076 79.0049 53.4238 78.8609 53.6802 78.6045C53.9366 78.3481 54.0806 78.0003 54.0806 77.6377C54.0806 77.2751 53.9366 76.9274 53.6802 76.671ZM66.8145 76.671L65.3666 75.2231L66.8145 73.7753C67.0623 73.5171 67.199 73.1722 67.1953 72.8144C67.1917 72.4565 67.0479 72.1144 66.7949 71.8614C66.5419 71.6084 66.1997 71.4646 65.8419 71.461C65.4841 71.4573 65.1391 71.594 64.881 71.8418L63.4331 73.2897L61.9853 71.8418C61.8585 71.7139 61.7078 71.6124 61.5417 71.5429C61.3756 71.4735 61.1974 71.4375 61.0173 71.4371C60.8373 71.4367 60.6589 71.4719 60.4925 71.5406C60.3261 71.6094 60.1749 71.7103 60.0476 71.8376C59.9203 71.9649 59.8194 72.1161 59.7506 72.2825C59.6819 72.4489 59.6467 72.6273 59.6471 72.8073C59.6475 72.9874 59.6835 73.1656 59.7529 73.3317C59.8224 73.4978 59.924 73.6485 60.0518 73.7753L61.4997 75.2231L60.0518 76.671C59.804 76.9291 59.6673 77.2741 59.671 77.6319C59.6746 77.9897 59.8184 78.3319 60.0714 78.5849C60.3244 78.8379 60.6665 78.9817 61.0244 78.9853C61.3822 78.989 61.7271 78.8523 61.9853 78.6045L63.4331 77.1566L64.881 78.6045C65.0078 78.7323 65.1585 78.8339 65.3246 78.9034C65.4907 78.9728 65.6689 79.0088 65.849 79.0092C66.029 79.0095 66.2074 78.9744 66.3738 78.9057C66.5402 78.8369 66.6914 78.736 66.8187 78.6087C66.946 78.4814 67.0469 78.3302 67.1157 78.1638C67.1844 77.9974 67.2195 77.819 67.2192 77.639C67.2188 77.4589 67.1828 77.2807 67.1134 77.1146C67.0439 76.9485 66.9423 76.7978 66.8145 76.671ZM79.9485 76.671L78.5006 75.2231L79.9485 73.7753C80.1963 73.5171 80.333 73.1722 80.3294 72.8144C80.3257 72.4565 80.1819 72.1144 79.9289 71.8614C79.6759 71.6084 79.3338 71.4646 78.976 71.461C78.6182 71.4573 78.2732 71.594 78.015 71.8418L76.5672 73.2897L75.1193 71.8418C74.9926 71.7139 74.8418 71.6124 74.6757 71.5429C74.5096 71.4735 74.3314 71.4375 74.1513 71.4371C73.9713 71.4367 73.7929 71.4719 73.6265 71.5406C73.4601 71.6094 73.3089 71.7103 73.1816 71.8376C73.0543 71.9649 72.9534 72.1161 72.8847 72.2825C72.8159 72.4489 72.7808 72.6273 72.7812 72.8073C72.7816 72.9874 72.8175 73.1656 72.887 73.3317C72.9564 73.4978 73.058 73.6485 73.1858 73.7753L74.6337 75.2231L73.1858 76.671C72.9381 76.9291 72.8013 77.2741 72.805 77.6319C72.8086 77.9897 72.9524 78.3319 73.2054 78.5849C73.4585 78.8379 73.8006 78.9817 74.1584 78.9853C74.5162 78.989 74.8612 78.8523 75.1193 78.6045L76.5672 77.1566L78.015 78.6045C78.1418 78.7323 78.2925 78.8339 78.4587 78.9034C78.6248 78.9728 78.803 79.0088 78.983 79.0092C79.163 79.0095 79.3414 78.9744 79.5078 78.9057C79.6742 78.8369 79.8254 78.736 79.9527 78.6087C80.0801 78.4814 80.181 78.3302 80.2497 78.1638C80.3184 77.9974 80.3536 77.819 80.3532 77.639C80.3528 77.4589 80.3168 77.2807 80.2474 77.1146C80.1779 76.9485 80.0764 76.7978 79.9485 76.671ZM93.0825 76.671L91.6347 75.2231L93.0825 73.7753C93.3389 73.5189 93.483 73.1712 93.483 72.8086C93.483 72.446 93.3389 72.0982 93.0825 71.8418C92.8261 71.5854 92.4784 71.4414 92.1158 71.4414C91.7532 71.4414 91.4054 71.5854 91.149 71.8418L89.7012 73.2897L88.2533 71.8418C88.1266 71.7139 87.9758 71.6124 87.8097 71.5429C87.6436 71.4735 87.4654 71.4375 87.2854 71.4371C87.1053 71.4367 86.927 71.4719 86.7606 71.5406C86.5941 71.6094 86.4429 71.7103 86.3156 71.8376C86.1883 71.9649 86.0874 72.1161 86.0187 72.2825C85.95 72.4489 85.9148 72.6273 85.9152 72.8073C85.9156 72.9874 85.9515 73.1656 86.021 73.3317C86.0904 73.4978 86.192 73.6485 86.3199 73.7753L87.7677 75.2231L86.3199 76.671C86.0721 76.9291 85.9353 77.2741 85.939 77.6319C85.9427 77.9897 86.0864 78.3319 86.3395 78.5849C86.5925 78.8379 86.9346 78.9817 87.2924 78.9853C87.6502 78.989 87.9952 78.8523 88.2533 78.6045L89.7012 77.1566L91.149 78.6045C91.4054 78.8609 91.7532 79.0049 92.1158 79.0049C92.4784 79.0049 92.8261 78.8609 93.0825 78.6045C93.3389 78.3481 93.483 78.0003 93.483 77.6377C93.483 77.2751 93.3389 76.9274 93.0825 76.671ZM53.6375 56.9526H86.3625C86.7251 56.9526 87.0729 57.0966 87.3293 57.353C87.5857 57.6094 87.7297 57.9572 87.7297 58.3198C87.7297 58.6824 87.5857 59.0301 87.3293 59.2865C87.0729 59.5429 86.7251 59.687 86.3625 59.687H53.6375C53.2749 59.687 52.9272 59.5429 52.6708 59.2865C52.4144 59.0301 52.2703 58.6824 52.2703 58.3198C52.2703 57.9572 52.4144 57.6094 52.6708 57.353C52.9272 57.0966 53.2749 56.9526 53.6375 56.9526ZM58.9696 51.3589H81.0308C81.3934 51.3589 81.7411 51.5029 81.9975 51.7593C82.2539 52.0157 82.398 52.3635 82.398 52.7261C82.398 53.0887 82.2539 53.4364 81.9975 53.6928C81.7411 53.9492 81.3934 54.0933 81.0308 54.0933H58.9696C58.607 54.0933 58.2592 53.9492 58.0028 53.6928C57.7464 53.4364 57.6024 53.0887 57.6024 52.7261C57.6024 52.3635 57.7464 52.0157 58.0028 51.7593C58.2592 51.5029 58.607 51.3589 58.9696 51.3589ZM46.4152 108.899H40.7603C40.3977 108.899 40.0499 108.755 39.7935 108.499C39.5371 108.242 39.3931 107.895 39.3931 107.532C39.3931 107.169 39.5371 106.822 39.7935 106.565C40.0499 106.309 40.3977 106.165 40.7603 106.165H46.4152C46.7778 106.165 47.1256 106.309 47.382 106.565C47.6384 106.822 47.7824 107.169 47.7824 107.532C47.7824 107.895 47.6384 108.242 47.382 108.499C47.1256 108.755 46.7778 108.899 46.4152 108.899ZM64.0235 108.899H58.3685C58.0059 108.899 57.6582 108.755 57.4018 108.499C57.1454 108.242 57.0014 107.895 57.0014 107.532C57.0014 107.169 57.1454 106.822 57.4018 106.565C57.6582 106.309 58.0059 106.165 58.3685 106.165H64.0235C64.3861 106.165 64.7338 106.309 64.9902 106.565C65.2466 106.822 65.3907 107.169 65.3907 107.532C65.3907 107.895 65.2466 108.242 64.9902 108.499C64.7338 108.755 64.3861 108.899 64.0235 108.899ZM81.6315 108.899H75.9765C75.6139 108.899 75.2662 108.755 75.0098 108.499C74.7534 108.242 74.6094 107.895 74.6094 107.532C74.6094 107.169 74.7534 106.822 75.0098 106.565C75.2662 106.309 75.6139 106.165 75.9765 106.165H81.6315C81.9941 106.165 82.3419 106.309 82.5983 106.565C82.8547 106.822 82.9987 107.169 82.9987 107.532C82.9987 107.895 82.8547 108.242 82.5983 108.499C82.3419 108.755 81.9941 108.899 81.6315 108.899ZM99.2398 108.899H93.5848C93.2222 108.899 92.8745 108.755 92.6181 108.499C92.3617 108.242 92.2176 107.895 92.2176 107.532C92.2176 107.169 92.3617 106.822 92.6181 106.565C92.8745 106.309 93.2222 106.165 93.5848 106.165H99.2398C99.6024 106.165 99.9501 106.309 100.207 106.565C100.463 106.822 100.607 107.169 100.607 107.532C100.607 107.895 100.463 108.242 100.207 108.499C99.9501 108.755 99.6024 108.899 99.2398 108.899Z" fill="#00EAFF"/>
<path d="M57.9455 17.8518C55.7908 17.8518 54.0378 16.0988 54.0378 13.9441C54.0378 11.7891 55.7908 10.0361 57.9455 10.0361C60.1005 10.0361 61.8535 11.7891 61.8535 13.9441C61.8535 16.0985 60.1005 17.8518 57.9455 17.8518ZM57.9455 12.7705C57.2986 12.7705 56.7722 13.2971 56.7722 13.9441C56.7722 14.5911 57.2986 15.1174 57.9455 15.1174C58.5925 15.1174 59.1191 14.5911 59.1191 13.9441C59.1191 13.2971 58.5925 12.7705 57.9455 12.7705ZM32.9284 133.335C30.7738 133.335 29.0208 131.582 29.0208 129.427C29.0208 127.272 30.7738 125.519 32.9284 125.519C35.0831 125.519 36.8361 127.272 36.8361 129.427C36.8361 131.582 35.0831 133.335 32.9284 133.335ZM32.9284 128.254C32.2815 128.254 31.7551 128.78 31.7551 129.427C31.7551 130.074 32.2815 130.601 32.9284 130.601C33.5754 130.601 34.1018 130.074 34.1018 129.427C34.1018 128.78 33.5754 128.254 32.9284 128.254ZM44.893 14.9102C44.5304 14.9102 44.1826 14.7661 43.9262 14.5097C43.6698 14.2533 43.5258 13.9056 43.5258 13.543C43.5258 12.6382 42.79 11.9023 41.8852 11.9023C41.1299 11.9023 40.518 11.2904 40.518 10.5352C40.518 9.77992 41.1299 9.16797 41.8852 9.16797C42.79 9.16797 43.5258 8.43215 43.5258 7.52734C43.5258 6.77211 44.1377 6.16016 44.893 6.16016C45.6482 6.16016 46.2602 6.77211 46.2602 7.52734C46.2602 8.43215 46.996 9.16797 47.9008 9.16797C48.656 9.16797 49.268 9.77992 49.268 10.5352C49.268 11.2904 48.656 11.9023 47.9008 11.9023C46.996 11.9023 46.2602 12.6382 46.2602 13.543C46.2602 13.9056 46.1161 14.2533 45.8597 14.5097C45.6033 14.7661 45.2556 14.9102 44.893 14.9102ZM87.5757 133.802C87.2132 133.802 86.8654 133.658 86.609 133.402C86.3526 133.145 86.2086 132.798 86.2086 132.435C86.2086 131.53 85.4727 130.794 84.5679 130.794C83.8127 130.794 83.2007 130.182 83.2007 129.427C83.2007 128.672 83.8127 128.06 84.5679 128.06C85.4727 128.06 86.2086 127.324 86.2086 126.419C86.2086 125.664 86.8205 125.052 87.5757 125.052C88.331 125.052 88.9429 125.664 88.9429 126.419C88.9429 127.324 89.6788 128.06 90.5836 128.06C91.3388 128.06 91.9507 128.672 91.9507 129.427C91.9507 130.182 91.3388 130.794 90.5836 130.794C89.6788 130.794 88.9429 131.53 88.9429 132.435C88.9429 132.798 88.7989 133.145 88.5425 133.402C88.2861 133.658 87.9384 133.802 87.5757 133.802ZM100.607 131.835C100.244 131.835 99.8966 131.691 99.6402 131.435C99.3838 131.178 99.2398 130.831 99.2398 130.468C99.2398 129.563 98.5039 128.827 97.5991 128.827C96.8439 128.827 96.232 128.216 96.232 127.46C96.232 126.705 96.8439 126.093 97.5991 126.093C98.5039 126.093 99.2398 125.357 99.2398 124.452C99.2398 123.697 99.8517 123.085 100.607 123.085C101.362 123.085 101.974 123.697 101.974 124.452C101.975 124.887 102.148 125.304 102.455 125.612C102.763 125.92 103.18 126.093 103.615 126.093C104.37 126.093 104.982 126.705 104.982 127.46C104.982 128.216 104.37 128.827 103.615 128.827C102.71 128.827 101.974 129.563 101.974 130.468C101.974 130.831 101.83 131.178 101.574 131.435C101.317 131.691 100.97 131.835 100.607 131.835Z" fill="#11A2AA"/>
</svg>
