<svg width="32" height="32" viewBox="0 0 32 32" fill="none" xmlns="http://www.w3.org/2000/svg">
<path d="M16.8324 27H15.1659C14.7239 27 14.3 26.8298 13.9875 26.5269C13.675 26.2239 13.4994 25.813 13.4994 25.3846L13.502 21.0524C13.5021 21.0169 13.4925 20.982 13.4742 20.9513C13.456 20.9206 13.4297 20.895 13.398 20.8773C13.3663 20.8595 13.3304 20.8501 13.2938 20.8501C13.2572 20.8501 13.2212 20.8595 13.1895 20.8772L9.31812 23.0509C8.94161 23.2616 8.49417 23.3187 8.07422 23.2096C7.65428 23.1006 7.29622 22.8343 7.0788 22.4694L6.21952 21.0236L6.2164 21.0185C6.00484 20.6537 5.94938 20.223 6.06196 19.819C6.17453 19.415 6.44614 19.0699 6.81841 18.858L10.7039 16.6747C10.7355 16.6569 10.7617 16.6314 10.7799 16.6008C10.7981 16.5701 10.8077 16.5354 10.8077 16.5C10.8077 16.4646 10.7981 16.4299 10.7799 16.3992C10.7617 16.3686 10.7355 16.3431 10.7039 16.3253L6.82206 14.1441C6.63515 14.0402 6.47126 13.9015 6.3398 13.736C6.20833 13.5706 6.11189 13.3816 6.056 13.1799C6.00011 12.9782 5.98587 12.7678 6.01411 12.5607C6.04235 12.3537 6.11251 12.1541 6.22056 11.9734L7.07671 10.5322C7.1849 10.35 7.3293 10.1904 7.50156 10.0626C7.67382 9.93492 7.87051 9.84159 8.08024 9.78808C8.28759 9.73414 8.50391 9.72064 8.71667 9.74837C8.92944 9.7761 9.1344 9.84451 9.31968 9.94962L13.1895 12.1203C13.2212 12.138 13.2572 12.1474 13.2938 12.1473C13.3304 12.1473 13.3663 12.138 13.398 12.1202C13.4297 12.1025 13.456 12.0769 13.4742 12.0462C13.4925 12.0154 13.5021 11.9806 13.502 11.9451L13.4994 7.61538C13.4994 7.18696 13.675 6.77608 13.9875 6.47314C14.3 6.17019 14.7239 6 15.1659 6H16.8324C17.2743 6 17.6982 6.17019 18.0107 6.47314C18.3233 6.77608 18.4988 7.18696 18.4988 7.61538V11.9426C18.4988 11.9781 18.5084 12.0129 18.5266 12.0437C18.5449 12.0744 18.5712 12.0999 18.6029 12.1177C18.6345 12.1354 18.6705 12.1448 18.7071 12.1448C18.7437 12.1448 18.7796 12.1355 18.8113 12.1178L22.6827 9.94406C23.0593 9.73377 23.5066 9.67689 23.9265 9.78592C24.3463 9.89494 24.7043 10.161 24.922 10.5256L25.7808 11.9714L25.7839 11.9759C25.9979 12.3411 26.0543 12.7735 25.9407 13.1788C25.8272 13.5841 25.5529 13.9294 25.1777 14.1395L21.2964 16.3203C21.2649 16.338 21.2387 16.3635 21.2204 16.3942C21.2022 16.4248 21.1926 16.4596 21.1926 16.495C21.1926 16.5303 21.2022 16.5651 21.2204 16.5957C21.2387 16.6264 21.2649 16.6519 21.2964 16.6696L25.1777 18.8504C25.3646 18.9543 25.5285 19.0929 25.66 19.2584C25.7915 19.4238 25.888 19.6128 25.9439 19.8145C25.9998 20.0162 26.0141 20.2266 25.986 20.4336C25.9578 20.6407 25.8877 20.8403 25.7798 21.0211L24.9236 22.4623C24.8154 22.6445 24.671 22.8041 24.4988 22.9318C24.3265 23.0595 24.1298 23.1529 23.9201 23.2064C23.7127 23.2603 23.4964 23.2738 23.2836 23.2461C23.0709 23.2183 22.8659 23.1499 22.6806 23.0448L18.8108 20.8742C18.7791 20.8564 18.7432 20.8471 18.7067 20.8471C18.6701 20.8471 18.6342 20.8564 18.6026 20.8741C18.5709 20.8918 18.5446 20.9173 18.5263 20.9479C18.508 20.9786 18.4983 21.0134 18.4983 21.0488L18.4988 25.3846C18.4988 25.813 18.3233 26.2239 18.0107 26.5269C17.6982 26.8298 17.2743 27 16.8324 27Z" fill="#00EAFF"/>
</svg>
