<svg width="32" height="32" viewBox="0 0 32 32" fill="none" xmlns="http://www.w3.org/2000/svg">
<path d="M17.6087 27H15.3913C14.6475 26.9994 13.9344 26.7036 13.4085 26.1776C12.8825 25.6516 12.5868 24.9384 12.5862 24.1945V20.3802L8.80635 20.4143C8.06255 20.4133 7.34946 20.1175 6.82341 19.5916C6.29735 19.0657 6.00124 18.3527 6 17.6088V15.3912C6.00093 14.6471 6.2969 13.9338 6.82299 13.4076C7.34908 12.8815 8.06235 12.5855 8.80635 12.5845H12.6203L12.5862 8.80549C12.5868 8.06162 12.8825 7.34839 13.4085 6.8224C13.9344 6.2964 14.6475 6.00062 15.3913 6H17.6087C18.3525 6.00062 19.0656 6.2964 19.5915 6.8224C20.1175 7.34839 20.4132 8.06162 20.4138 8.80549V12.6198L24.1937 12.5845C24.9377 12.5855 25.6509 12.8815 26.177 13.4076C26.7031 13.9338 26.9991 14.6471 27 15.3912V17.6088C26.9988 18.3527 26.7027 19.0657 26.1766 19.5916C25.6505 20.1175 24.9375 20.4133 24.1937 20.4143H20.3797L20.4127 24.1945C20.412 24.9382 20.1165 25.6512 19.5908 26.1772C19.0651 26.7032 18.3522 26.9991 17.6087 27ZM8.80635 13.7604C8.37396 13.7607 7.95938 13.9326 7.65364 14.2384C7.34789 14.5441 7.17599 14.9588 7.17568 15.3912V17.6088C7.1763 18.041 7.34834 18.4554 7.65405 18.7609C7.95976 19.0664 8.37417 19.2382 8.80635 19.2385H12.6203C12.9231 19.2385 13.2136 19.3587 13.4279 19.5728C13.6422 19.7869 13.7627 20.0773 13.763 20.3802V24.1945C13.7636 24.6265 13.9355 25.0407 14.241 25.3462C14.5464 25.6517 14.9605 25.8236 15.3925 25.8242H17.6098C18.0418 25.8236 18.4559 25.6517 18.7614 25.3462C19.0668 25.0407 19.2387 24.6265 19.2393 24.1945V20.3802C19.2396 20.0773 19.3602 19.7869 19.5745 19.5728C19.7887 19.3587 20.0792 19.2385 20.3821 19.2385H24.1948C24.627 19.2382 25.0414 19.0664 25.3471 18.7609C25.6528 18.4554 25.8249 18.041 25.8255 17.6088V15.3912C25.8252 14.9586 25.6531 14.5438 25.3471 14.238C25.0411 13.9321 24.6262 13.7604 24.1937 13.7604H20.3797C20.0771 13.7604 19.7868 13.6403 19.5725 13.4264C19.3583 13.2126 19.2376 12.9225 19.237 12.6198V8.80549C19.2364 8.37366 19.0646 7.95969 18.7594 7.65423C18.4542 7.34878 18.0404 7.17675 17.6087 7.17581H15.3913C14.9594 7.17643 14.5453 7.34833 14.2398 7.65382C13.9343 7.95931 13.7625 8.37346 13.7618 8.80549V12.6198C13.7612 12.9225 13.6405 13.2126 13.4263 13.4264C13.2121 13.6403 12.9218 13.7604 12.6191 13.7604H8.80635Z" fill="#00EAFF"/>
</svg>
