<svg width="32" height="32" viewBox="0 0 32 32" fill="none" xmlns="http://www.w3.org/2000/svg">
<path d="M14.3414 6.17865C13.1426 6.19885 12.0598 6.91385 11.57 8.01943L17.4352 9.79103C17.693 8.25318 16.7692 6.76217 15.2825 6.3097C15.016 6.22892 14.7368 6.18467 14.4575 6.17865H14.3414ZM11.3465 8.76021C11.0844 10.3024 12.0082 11.7977 13.4993 12.2488C14.9946 12.7 16.5887 11.961 17.216 10.5301L11.3465 8.76021ZM22.7547 10.6633C21.6676 10.6676 20.5118 11.1918 19.6395 12.425L14.277 20.0262C12.8375 22.0629 13.4649 24.1942 14.8828 25.1996C16.3051 26.2094 18.518 26.0934 19.9575 24.0567L25.3157 16.4598C26.7551 14.4188 26.1278 12.2918 24.7098 11.282C24.177 10.9039 23.5368 10.6848 22.8621 10.6633H22.7547ZM22.6774 11.4067C22.7332 11.4067 22.7891 11.4067 22.8407 11.411C23.3606 11.4324 23.8504 11.6172 24.2629 11.9137C25.3672 12.6957 25.9215 14.2555 24.6797 16.0129L21.9082 19.9445C20.37 19.532 18.3934 18.127 17.4953 16.8078L20.2754 12.8719C21.0016 11.8449 21.8653 11.4238 22.6774 11.4067ZM8.92093 14.6809C8.50757 14.6852 8.0998 14.7711 7.72081 14.9387C6.29812 15.5617 5.55777 17.1516 5.99175 18.6469L11.6086 16.1934C11.0457 15.2438 10.0231 14.668 8.92093 14.6809ZM11.9137 16.8981L6.29769 19.3559C7.09046 20.7051 8.7598 21.2465 10.1907 20.6235C11.6172 19.9961 12.3563 18.3977 11.9137 16.8981Z" fill="#00EAFF"/>
</svg>
