<svg width="32" height="32" viewBox="0 0 32 32" fill="none" xmlns="http://www.w3.org/2000/svg">
<g clip-path="url(#clip0_2562_105)">
<path d="M15.983 29C15.4843 29 15.0853 28.6161 15.0678 28.125L15.0012 26.3214H13.2074C13.1529 26.3211 13.099 26.3097 13.0488 26.2881C12.9986 26.2664 12.9531 26.2349 12.9149 26.1952C12.8767 26.1556 12.8465 26.1086 12.8261 26.057C12.8058 26.0054 12.7956 25.9503 12.7961 25.8946V25.6964C12.7961 24.5437 13.6974 23.6 14.8166 23.6H14.9024L14.8551 22.3107H14.0028C11.7557 22.3107 10.0424 19.9241 11.0741 17.4643C11.5641 16.2946 12.7445 15.5857 13.9775 15.5857H14.6092L14.5629 14.2973H12.237C9.98989 14.2973 8.27568 11.9107 9.30736 9.45089C9.79738 8.27946 10.9778 7.57143 12.2116 7.57143H14.3178L14.2505 5.78571C14.2146 4.8125 15.003 4 16.0005 4C16.9876 4 17.7769 4.8125 17.7489 5.78571L17.6841 7.57143H22.5887C22.8162 7.57143 23 7.76161 23 7.99821C23 9.26875 22.0112 10.2937 20.7879 10.2937H17.5852L17.5371 11.583H18.8899C21.1379 11.583 22.8512 13.9696 21.8196 16.4295C21.3295 17.5991 20.1491 18.308 18.9162 18.308H17.2921L17.2449 19.5964H17.9545C20.2016 19.5964 21.9158 21.983 20.8842 24.4429C20.3941 25.6134 19.2137 26.3214 17.9808 26.3214H16.999L16.9333 28.125C16.9158 28.6161 16.5072 29 16.018 29H15.983ZM14.7562 19.5964L14.709 18.308H14.0037C13.6624 18.308 13.3824 18.5982 13.3824 18.9518C13.3824 19.3063 13.6712 19.5964 14.0037 19.5964H14.7562ZM14.4631 11.583L14.4167 10.2937H12.237C11.8957 10.2937 11.6157 10.5937 11.6157 10.9384C11.6157 11.283 11.8957 11.5741 12.237 11.583H14.4631ZM17.4391 14.2964L17.3919 15.5848H18.8908C19.2321 15.5848 19.5121 15.2946 19.5121 14.9411C19.5114 14.7722 19.4461 14.6102 19.33 14.4897C19.2139 14.3693 19.0563 14.2999 18.8908 14.2964H17.4391ZM17.1468 22.3098L17.0996 23.5991H17.9554C18.2879 23.5991 18.5767 23.308 18.5767 22.9545C18.576 22.7855 18.5107 22.6236 18.3946 22.5031C18.2785 22.3827 18.1209 22.3133 17.9554 22.3098H17.1468ZM21.2525 9.16964C21.4888 9.16964 21.6901 8.96429 21.6901 8.72321C21.6901 8.47321 21.4888 8.27679 21.2525 8.27679C21.0163 8.27679 20.815 8.47321 20.815 8.72321C20.815 8.97321 21.0075 9.16964 21.2525 9.16964Z" fill="#00EAFF"/>
</g>
<defs>
<clipPath id="clip0_2562_105">
<rect width="32" height="32" fill="white"/>
</clipPath>
</defs>
</svg>
