<svg width="32" height="32" viewBox="0 0 32 32" fill="none" xmlns="http://www.w3.org/2000/svg">
<g clip-path="url(#clip0_2562_121)">
<path d="M13.525 20.35C12.7609 21.0543 11.754 21.4358 10.7151 21.4146C9.67617 21.3935 8.68566 20.9714 7.95087 20.2366C7.21608 19.5018 6.79394 18.5113 6.77281 17.4723C6.75167 16.4334 7.13317 15.4265 7.83747 14.6625L14.6625 7.83747C15.4265 7.13317 16.4334 6.75167 17.4723 6.77281C18.5113 6.79394 19.5018 7.21608 20.2366 7.95087C20.9714 8.68566 21.3935 9.67617 21.4146 10.7151C21.4358 11.754 21.0543 12.7609 20.35 13.525M11.2491 11.2491L14.9678 14.9678" stroke="#00EAFF" stroke-width="1.5" stroke-linecap="round" stroke-linejoin="round"/>
<path d="M21.0937 19.125V23.0625M19.125 21.0938H23.0625M26.3437 19.7812C26.3467 21.3094 25.8279 22.7928 24.8733 23.9861C23.9186 25.1795 22.5853 26.0112 21.0937 26.3438C19.6021 26.0112 18.2688 25.1795 17.3141 23.9861C16.3595 22.7928 15.8408 21.3094 15.8437 19.7812V17.8125C15.8437 17.4644 15.982 17.1306 16.2281 16.8844C16.4743 16.6383 16.8081 16.5 17.1562 16.5H25.0312C25.3793 16.5 25.7131 16.6383 25.9593 16.8844C26.2054 17.1306 26.3437 17.4644 26.3437 17.8125V19.7812Z" stroke="#00EAFF" stroke-width="1.5" stroke-linecap="round" stroke-linejoin="round"/>
</g>
<defs>
<clipPath id="clip0_2562_121">
<rect width="21" height="21" fill="white" transform="translate(6 6)"/>
</clipPath>
</defs>
</svg>
