<svg width="32" height="32" viewBox="0 0 32 32" fill="none" xmlns="http://www.w3.org/2000/svg">
<path d="M13.875 7.75H19.125C19.3571 7.75 19.5796 7.84219 19.7437 8.00628C19.9078 8.17038 20 8.39294 20 8.625V11.25H13V8.625C13 8.39294 13.0922 8.17038 13.2563 8.00628C13.4204 7.84219 13.6429 7.75 13.875 7.75ZM11.25 8.625V11.25H9.5C8.57174 11.25 7.6815 11.6187 7.02513 12.2751C6.36875 12.9315 6 13.8217 6 14.75V23.5C6 24.4283 6.36875 25.3185 7.02513 25.9749C7.6815 26.6313 8.57174 27 9.5 27H23.5C24.4283 27 25.3185 26.6313 25.9749 25.9749C26.6313 25.3185 27 24.4283 27 23.5V14.75C27 13.8217 26.6313 12.9315 25.9749 12.2751C25.3185 11.6187 24.4283 11.25 23.5 11.25H21.75V8.625C21.75 7.92881 21.4734 7.26113 20.9812 6.76884C20.4889 6.27656 19.8212 6 19.125 6H13.875C13.1788 6 12.5111 6.27656 12.0188 6.76884C11.5266 7.26113 11.25 7.92881 11.25 8.625ZM23.5 13C23.9641 13 24.4092 13.1844 24.7374 13.5126C25.0656 13.8408 25.25 14.2859 25.25 14.75V23.5C25.25 23.9641 25.0656 24.4092 24.7374 24.7374C24.4092 25.0656 23.9641 25.25 23.5 25.25H9.5C9.03587 25.25 8.59075 25.0656 8.26256 24.7374C7.93437 24.4092 7.75 23.9641 7.75 23.5V14.75C7.75 14.2859 7.93437 13.8408 8.26256 13.5126C8.59075 13.1844 9.03587 13 9.5 13H23.5ZM17.375 16.5C17.375 16.2679 17.2828 16.0454 17.1187 15.8813C16.9546 15.7172 16.7321 15.625 16.5 15.625C16.2679 15.625 16.0454 15.7172 15.8813 15.8813C15.7172 16.0454 15.625 16.2679 15.625 16.5V18.25H13.875C13.6429 18.25 13.4204 18.3422 13.2563 18.5063C13.0922 18.6704 13 18.8929 13 19.125C13 19.3571 13.0922 19.5796 13.2563 19.7437C13.4204 19.9078 13.6429 20 13.875 20H15.625V21.75C15.625 21.9821 15.7172 22.2046 15.8813 22.3687C16.0454 22.5328 16.2679 22.625 16.5 22.625C16.7321 22.625 16.9546 22.5328 17.1187 22.3687C17.2828 22.2046 17.375 21.9821 17.375 21.75V20H19.125C19.3571 20 19.5796 19.9078 19.7437 19.7437C19.9078 19.5796 20 19.3571 20 19.125C20 18.8929 19.9078 18.6704 19.7437 18.5063C19.5796 18.3422 19.3571 18.25 19.125 18.25H17.375V16.5Z" fill="#00EAFF"/>
</svg>
