<svg width="32" height="32" viewBox="0 0 32 32" fill="none" xmlns="http://www.w3.org/2000/svg">
<path d="M19.9525 17.1307C21.1932 16.212 22.1096 14.9313 22.5721 13.4699C23.0345 12.0085 23.0194 10.4405 22.529 8.98799C22.0386 7.5355 21.0976 6.27217 19.8395 5.37695C18.5814 4.48173 17.0698 4 15.5189 4C13.9681 4 12.4565 4.48173 11.1984 5.37695C9.94026 6.27217 8.99934 7.5355 8.50891 8.98799C8.01848 10.4405 8.00341 12.0085 8.46583 13.4699C8.92825 14.9313 9.84471 16.212 11.0854 17.1307C8.5905 18.1306 6.50899 19.9302 5.17597 22.2399C5.09337 22.371 5.03832 22.5172 5.01409 22.6697C4.98986 22.8223 4.99694 22.9781 5.03491 23.1279C5.07289 23.2776 5.14099 23.4184 5.23515 23.5416C5.32931 23.6649 5.44763 23.7683 5.58305 23.8455C5.71848 23.9228 5.86825 23.9723 6.02348 23.9913C6.1787 24.0102 6.33619 23.9982 6.4866 23.9559C6.63702 23.9135 6.77727 23.8418 6.89903 23.7449C7.02079 23.6479 7.12156 23.5278 7.19537 23.3917C8.95712 20.3855 12.0684 18.5925 15.5189 18.5925C17.0751 18.5925 18 18.5 19.9525 17.1307ZM10.4632 11.2977C10.4632 10.3105 10.7597 9.34553 11.3152 8.52474C11.8708 7.70394 12.6604 7.06421 13.5842 6.68643C14.508 6.30866 15.5246 6.20982 16.5053 6.40241C17.486 6.59499 18.3869 7.07036 19.0939 7.76839C19.801 8.46642 20.2825 9.35576 20.4776 10.324C20.6727 11.2922 20.5725 12.2957 20.1899 13.2077C19.8072 14.1198 19.1592 14.8993 18.3278 15.4477C17.4964 15.9961 16.5189 16.2889 15.5189 16.2889C14.1785 16.2874 12.8935 15.761 11.9457 14.8253C10.9979 13.8896 10.4647 12.621 10.4632 11.2977Z" fill="#00EAFF"/>
<g clip-path="url(#clip0_2560_89)">
<path d="M23.875 24.25C25.6016 24.25 27 22.8516 27 21.125C27 20.8262 26.957 20.5371 26.8789 20.2617C26.8184 20.0508 26.5586 20.0039 26.4043 20.1582L24.9043 21.6582C24.8457 21.7168 24.7656 21.75 24.6836 21.75H23.5625C23.3906 21.75 23.25 21.6094 23.25 21.4375V20.3164C23.25 20.2344 23.2832 20.1543 23.3418 20.0957L24.8418 18.5957C24.9961 18.4414 24.9473 18.1816 24.7383 18.1211C24.4629 18.043 24.1738 18 23.875 18C22.1484 18 20.75 19.3984 20.75 21.125C20.75 21.498 20.8164 21.8574 20.9355 22.1895L17.3887 25.7363C17.1406 25.9844 17 26.3223 17 26.6738C17 27.4063 17.5938 28 18.3262 28C18.6777 28 19.0156 27.8594 19.2637 27.6113L22.8105 24.0645C23.1426 24.1855 23.502 24.25 23.875 24.25ZM18.5625 25.9688C18.6868 25.9688 18.806 26.0181 18.894 26.106C18.9819 26.194 19.0312 26.3132 19.0312 26.4375C19.0312 26.5618 18.9819 26.681 18.894 26.769C18.806 26.8569 18.6868 26.9062 18.5625 26.9062C18.4382 26.9062 18.319 26.8569 18.231 26.769C18.1431 26.681 18.0938 26.5618 18.0938 26.4375C18.0938 26.3132 18.1431 26.194 18.231 26.106C18.319 26.0181 18.4382 25.9688 18.5625 25.9688Z" fill="#00EAFF"/>
</g>
<defs>
<clipPath id="clip0_2560_89">
<rect width="10" height="10" fill="white" transform="translate(17 18)"/>
</clipPath>
</defs>
</svg>
