<svg width="32" height="32" viewBox="0 0 32 32" fill="none" xmlns="http://www.w3.org/2000/svg">
<path d="M19.9525 17.1307C21.1932 16.212 22.1096 14.9313 22.5721 13.4699C23.0345 12.0085 23.0194 10.4405 22.529 8.98799C22.0386 7.5355 21.0976 6.27217 19.8395 5.37695C18.5814 4.48173 17.0698 4 15.5189 4C13.9681 4 12.4565 4.48173 11.1984 5.37695C9.94026 6.27217 8.99934 7.5355 8.50891 8.98799C8.01848 10.4405 8.00341 12.0085 8.46583 13.4699C8.92825 14.9313 9.84471 16.212 11.0854 17.1307C8.5905 18.1306 6.50899 19.9302 5.17597 22.2399C5.09337 22.371 5.03832 22.5172 5.01409 22.6697C4.98986 22.8223 4.99694 22.9781 5.03491 23.1279C5.07289 23.2776 5.14099 23.4184 5.23515 23.5416C5.32931 23.6649 5.44763 23.7683 5.58305 23.8455C5.71848 23.9228 5.86825 23.9723 6.02348 23.9913C6.1787 24.0102 6.33619 23.9982 6.4866 23.9559C6.63702 23.9135 6.77727 23.8418 6.89903 23.7449C7.02079 23.6479 7.12156 23.5278 7.19537 23.3917C8.95712 20.3855 12.0684 18.5925 15.5189 18.5925C17.0751 18.5925 18 18.5 19.9525 17.1307ZM10.4632 11.2977C10.4632 10.3105 10.7597 9.34553 11.3152 8.52474C11.8708 7.70394 12.6604 7.06421 13.5842 6.68643C14.508 6.30866 15.5246 6.20982 16.5053 6.40241C17.486 6.59499 18.3869 7.07036 19.0939 7.76839C19.801 8.46642 20.2825 9.35576 20.4776 10.324C20.6727 11.2922 20.5725 12.2957 20.1899 13.2077C19.8072 14.1198 19.1592 14.8993 18.3278 15.4477C17.4964 15.9961 16.5189 16.2889 15.5189 16.2889C14.1785 16.2874 12.8935 15.761 11.9457 14.8253C10.9979 13.8896 10.4647 12.621 10.4632 11.2977Z" fill="#00EAFF"/>
<path d="M20.5312 23.2188H21.0938V23.7812H20.5312V23.2188ZM22.2188 23.2188H22.7812V23.7812H22.2188V23.2188ZM23.9062 23.2188H24.4688V23.7812H23.9062V23.2188Z" fill="#00EAFF" stroke="#00EAFF" stroke-width="0.25"/>
<path d="M26.1562 19.5625H18.8438C18.6946 19.5627 18.5516 19.622 18.4462 19.7274C18.3407 19.8329 18.2814 19.9759 18.2812 20.125V25.1875C18.2814 25.3366 18.3407 25.4796 18.4462 25.5851C18.5516 25.6905 18.6946 25.7498 18.8438 25.75H19.9688V27.7188H20.5071L22.4759 25.75H26.1562C26.3054 25.7498 26.4484 25.6905 26.5538 25.5851C26.6593 25.4796 26.7186 25.3366 26.7188 25.1875V20.125C26.7186 19.9759 26.6593 19.8329 26.5538 19.7274C26.4484 19.622 26.3054 19.5627 26.1562 19.5625ZM26.1562 25.1875H22.2429L20.5312 26.8991V25.1875H18.8438V20.125H26.1562V25.1875Z" fill="#00EAFF" stroke="#00EAFF" stroke-width="0.5"/>
</svg>
