<svg width="32" height="32" viewBox="0 0 32 32" fill="none" xmlns="http://www.w3.org/2000/svg">
<path d="M19.9525 17.1307C21.1932 16.212 22.1096 14.9313 22.5721 13.4699C23.0345 12.0085 23.0194 10.4405 22.529 8.98799C22.0386 7.5355 21.0976 6.27217 19.8395 5.37695C18.5814 4.48173 17.0698 4 15.5189 4C13.9681 4 12.4565 4.48173 11.1984 5.37695C9.94026 6.27217 8.99934 7.5355 8.50891 8.98799C8.01848 10.4405 8.00341 12.0085 8.46583 13.4699C8.92825 14.9313 9.84471 16.212 11.0854 17.1307C8.5905 18.1306 6.50899 19.9302 5.17597 22.2399C5.09337 22.371 5.03832 22.5172 5.01409 22.6697C4.98986 22.8223 4.99694 22.9781 5.03491 23.1279C5.07289 23.2776 5.14099 23.4184 5.23515 23.5416C5.32931 23.6649 5.44763 23.7683 5.58305 23.8455C5.71848 23.9228 5.86825 23.9723 6.02348 23.9913C6.1787 24.0102 6.33619 23.9982 6.4866 23.9559C6.63702 23.9135 6.77727 23.8418 6.89903 23.7449C7.02079 23.6479 7.12156 23.5278 7.19537 23.3917C8.95712 20.3855 12.0684 18.5925 15.5189 18.5925C17.0751 18.5925 18 18.5 19.9525 17.1307ZM10.4632 11.2977C10.4632 10.3105 10.7597 9.34553 11.3152 8.52474C11.8708 7.70394 12.6604 7.06421 13.5842 6.68643C14.508 6.30866 15.5246 6.20982 16.5053 6.40241C17.486 6.59499 18.3869 7.07036 19.0939 7.76839C19.801 8.46642 20.2825 9.35576 20.4776 10.324C20.6727 11.2922 20.5725 12.2957 20.1899 13.2077C19.8072 14.1198 19.1592 14.8993 18.3278 15.4477C17.4964 15.9961 16.5189 16.2889 15.5189 16.2889C14.1785 16.2874 12.8935 15.761 11.9457 14.8253C10.9979 13.8896 10.4647 12.621 10.4632 11.2977Z" fill="#00EAFF"/>
<g clip-path="url(#clip0_2560_77)">
<path d="M18.8331 20.6669C18.8331 19.7462 20.6988 19 23 19C25.3013 19 27.1669 19.7462 27.1669 20.6669V21.5C27.1669 22.4206 25.3013 23.1669 23 23.1669C20.6988 23.1669 18.8331 22.4206 18.8331 21.5V20.6669Z" fill="#00EAFF"/>
<path d="M18.8331 22.9587V24.8337C18.8331 25.7531 20.6988 26.5 23 26.5C25.3013 26.5 27.1669 25.7537 27.1669 24.8331V22.9587C26.8855 23.1616 26.5792 23.3275 26.2556 23.4525C25.3813 23.8025 24.2294 24 23 24C21.7706 24 20.6194 23.8019 19.745 23.4525C19.4214 23.3275 19.1152 23.1616 18.8338 22.9587H18.8331Z" fill="#00EAFF"/>
<path d="M27.1669 26.2925C26.8854 26.4951 26.5792 26.6608 26.2556 26.7856C25.3806 27.1356 24.2294 27.3331 22.9994 27.3331C21.7706 27.3331 20.6188 27.1356 19.7444 26.7856C19.4208 26.6606 19.1146 26.4947 18.8331 26.2919V27.3331C18.8331 28.2537 20.6988 29 23 29C25.3013 29 27.1669 28.2537 27.1669 27.3331V26.2925Z" fill="#00EAFF"/>
</g>
<defs>
<clipPath id="clip0_2560_77">
<rect width="10" height="10" fill="white" transform="translate(18 19)"/>
</clipPath>
</defs>
</svg>
