<svg width="32" height="32" viewBox="0 0 32 32" fill="none" xmlns="http://www.w3.org/2000/svg">
<path d="M19.9525 16.1307C21.1932 15.212 22.1096 13.9313 22.5721 12.4699C23.0345 11.0085 23.0194 9.44047 22.529 7.98799C22.0386 6.5355 21.0976 5.27217 19.8395 4.37695C18.5814 3.48173 17.0698 3 15.5189 3C13.9681 3 12.4565 3.48173 11.1984 4.37695C9.94026 5.27217 8.99934 6.5355 8.50891 7.98799C8.01848 9.44047 8.00341 11.0085 8.46583 12.4699C8.92825 13.9313 9.84471 15.212 11.0854 16.1307C8.5905 17.1306 6.50899 18.9302 5.17597 21.2399C5.09337 21.371 5.03832 21.5172 5.01409 21.6697C4.98986 21.8223 4.99694 21.9781 5.03491 22.1279C5.07289 22.2776 5.14099 22.4184 5.23515 22.5416C5.32931 22.6649 5.44763 22.7683 5.58305 22.8455C5.71848 22.9228 5.86825 22.9723 6.02348 22.9913C6.1787 23.0102 6.33619 22.9982 6.4866 22.9559C6.63702 22.9135 6.77727 22.8418 6.89903 22.7449C7.02079 22.6479 7.12156 22.5278 7.19537 22.3917C8.95712 19.3855 12.0684 17.5925 15.5189 17.5925C17.0751 17.5925 18 17.5 19.9525 16.1307ZM10.4632 10.2977C10.4632 9.31053 10.7597 8.34553 11.3152 7.52474C11.8708 6.70394 12.6604 6.06421 13.5842 5.68643C14.508 5.30866 15.5246 5.20982 16.5053 5.40241C17.486 5.59499 18.3869 6.07036 19.0939 6.76839C19.801 7.46642 20.2825 8.35576 20.4776 9.32396C20.6727 10.2922 20.5725 11.2957 20.1899 12.2077C19.8072 13.1198 19.1592 13.8993 18.3278 14.4477C17.4964 14.9961 16.5189 15.2889 15.5189 15.2889C14.1785 15.2874 12.8935 14.761 11.9457 13.8253C10.9979 12.8896 10.4647 11.621 10.4632 10.2977Z" fill="#00EAFF"/>
<path d="M18.4455 25.3361L24.3361 19.4455L25.3357 20.4451L19.4451 26.3357L18.4455 25.3361ZM18.4455 20.4451L19.4451 19.4455L25.3357 25.3361L24.3361 26.3357L18.4455 20.4451Z" fill="#00EAFF" stroke="#00EAFF" stroke-linejoin="round"/>
</svg>
