<svg width="30" height="30" viewBox="0 0 30 30" fill="none" xmlns="http://www.w3.org/2000/svg">
<path d="M29.1471 10.0081L3.17847 5.76608C5.92507 2.25725 10.1978 0 14.9999 0C21.532 0 27.0894 4.1778 29.1471 10.0081Z" fill="#FFB919"/>
<path d="M29.9977 15.0007C29.9977 17.9535 29.145 20.7069 27.672 23.0262L5.5973 26.6901C2.18399 23.9411 0 19.7256 0 15.0007C0 11.5184 1.18724 8.31307 3.17852 5.76562L29.1472 10.0055C29.6987 11.5694 29.9977 13.2507 29.9977 15.0007Z" fill="#19AA1F"/>
<path d="M27.672 23.0264C25.0118 27.2175 20.3293 29.9997 14.9977 29.9997C11.4382 29.9997 8.1689 28.7592 5.59729 26.688L27.672 23.0264Z" fill="#81D714"/>
<path d="M2.8396 5.76562L29.4927 10.063" stroke="white" stroke-miterlimit="10"/>
<path d="M5.07007 26.6909L28.4383 22.8564" stroke="white" stroke-miterlimit="10"/>
<path d="M13.1418 24.6297C13.144 24.5987 13.4541 21.5285 11.9988 19.9092C11.3985 19.2424 10.5923 18.9168 9.53352 18.9168C9.25664 18.9168 8.95762 18.9412 8.64752 18.9855L8.25546 19.0431L8.06497 18.6953C8.02289 18.6177 7.03278 16.7814 6.75148 14.4333C6.58314 13.0289 6.70275 11.733 7.10809 10.5833C7.61976 9.13018 8.58107 7.91849 9.96544 6.97926C11.4517 5.97136 13.1927 5.4375 14.9979 5.4375C16.8031 5.4375 18.5441 5.97136 20.0304 6.97926C21.4148 7.91849 22.3783 9.13018 22.8878 10.5833C23.2931 11.7352 23.4127 13.0311 23.2444 14.4333C22.9608 16.7814 21.973 18.6177 21.9309 18.6953L21.7404 19.0431L21.3483 18.9855C21.0183 18.9367 20.7015 18.9101 20.4092 18.9101C19.326 18.9101 18.5176 19.2313 17.9328 19.8959C16.6082 21.4 16.9383 24.1468 16.9405 24.1734L17.0091 24.7139L16.4709 24.8047L13.0576 25.3696L13.1418 24.6297Z" fill="#2788FB"/>
<path d="M15 6.00721C16.6479 6.00721 18.2959 6.4879 19.7157 7.4515C25.3396 11.2638 21.4367 18.4299 21.4367 18.4299C21.0713 18.3745 20.7302 18.3501 20.4134 18.3501C15.6201 18.3501 16.3821 24.2513 16.3821 24.2513L13.7064 24.6944C13.7064 24.6944 14.3975 18.3545 9.53554 18.3545C9.2343 18.3545 8.91313 18.3789 8.56759 18.4299C8.56759 18.4299 4.66476 11.266 10.2864 7.4515C11.704 6.4879 13.352 6.00721 15 6.00721ZM15 4.87305C14.0586 4.87305 13.1261 5.01039 12.229 5.28285C11.3098 5.55975 10.4437 5.97398 9.64851 6.51227C8.16003 7.52017 7.12562 8.82933 6.57409 10.3977C6.13995 11.6315 6.01148 13.0138 6.1909 14.5046C6.48549 16.959 7.52654 18.8906 7.56863 18.9704L7.94739 19.6659L8.7315 19.5485C9.01281 19.5064 9.28303 19.4843 9.53111 19.4843C10.4193 19.4843 11.0883 19.7457 11.5733 20.2862C12.2157 20.9972 12.4571 22.0871 12.5457 22.8735C12.6498 23.7884 12.579 24.5304 12.5745 24.5681L12.4062 26.0589L13.888 25.8086L16.5637 25.3656L17.6491 25.1861L17.5029 24.1029C17.4985 24.0652 17.4232 23.4073 17.5073 22.5899C17.5782 21.89 17.7842 20.9197 18.3601 20.2685C18.8297 19.7368 19.5008 19.4776 20.409 19.4776C20.6748 19.4776 20.9627 19.4998 21.264 19.5463L22.0481 19.6637L22.4268 18.9682C22.4711 18.8862 23.51 16.9568 23.8046 14.5024C23.984 13.0116 23.8555 11.6293 23.4214 10.3955C22.8698 8.8249 21.8354 7.51796 20.347 6.51005C19.554 5.97177 18.6857 5.55753 17.7665 5.28064C16.8716 5.01039 15.9391 4.87305 15 4.87305Z" fill="white"/>
</svg>
