<svg width="30" height="30" viewBox="0 0 30 30" fill="none" xmlns="http://www.w3.org/2000/svg">
<path d="M25.205 3.79427L20.8679 8.05213C19.3022 6.79865 17.3107 6.04855 15.1401 6.04855C11.1591 6.04855 7.77297 8.5774 6.52953 12.1011L1.63733 8.2113C4.13814 3.33864 9.2452 2.06698e-06 15.1401 2.06698e-06C19.0037 -0.00198759 22.5311 1.43255 25.205 3.79427Z" fill="#EA4335"/>
<path d="M6.02025 15.0832C6.02025 16.1158 6.19532 17.1067 6.51563 18.0299L1.67517 21.8659C0.604811 19.8086 0 17.4748 0 14.9996C0 12.5563 0.588895 10.2483 1.63538 8.21094L6.52956 12.0987C6.1993 13.0339 6.02025 14.0366 6.02025 15.0832Z" fill="#FBBC05"/>
<path d="M24.8151 26.2495C22.2785 28.5675 18.9162 29.9722 15.2535 30C15.2157 30 15.1779 30 15.1401 30C9.27505 30 4.18987 26.6972 1.67712 21.8663L6.51759 18.0303C7.75109 21.5738 11.1452 24.1186 15.1401 24.1186C16.9864 24.1186 18.7053 23.5754 20.1417 22.6403L24.8151 26.2495Z" fill="#34A853"/>
<path d="M29.3412 17.6904C28.8498 21.0927 27.1965 24.0732 24.8151 26.2499L20.1417 22.6406C20.3944 22.4755 20.6391 22.2984 20.8758 22.1094C20.8758 22.1094 22.7798 20.2491 23.12 18.0187H15.0685V12.2148H29.182C29.182 12.2148 29.7948 14.5447 29.3412 17.6904Z" fill="#4285F4"/>
</svg>
