<svg width="30" height="30" viewBox="0 0 30 30" fill="none" xmlns="http://www.w3.org/2000/svg">
<path d="M14.9989 30C23.2825 30 29.9977 23.2843 29.9977 15C29.9977 6.71573 23.2825 0 14.9989 0C6.71523 0 0 6.71573 0 15C0 23.2843 6.71523 30 14.9989 30Z" fill="#FC3F1D"/>
<path d="M20.0842 23.9039C20.0402 23.9039 20.0015 23.9039 19.9645 23.9039C19.0143 23.9039 18.0641 23.9039 17.1139 23.9039C16.9679 23.9039 16.9714 23.9338 16.9714 23.7631C16.9714 20.0677 16.9714 16.3722 16.9714 12.6768C16.9714 11.3253 16.9714 9.97205 16.9714 8.62057C16.9714 8.49035 16.9714 8.48859 16.8377 8.49035C16.2869 8.49563 15.7344 8.48331 15.1837 8.5097C14.4077 8.5449 13.6634 8.71559 13.0035 9.15025C12.2997 9.61306 11.8844 10.2694 11.7683 11.0983C11.6469 11.9729 11.7348 12.8281 12.0956 13.6429C12.3472 14.2113 12.7413 14.6723 13.1988 15.0858C13.7267 15.5645 14.3162 15.9604 14.9039 16.3564C15.284 16.6115 15.6623 16.8667 16.0406 17.1219C16.0617 17.1359 16.0828 17.1535 16.1092 17.1729C16.0916 17.2028 16.0758 17.2292 16.0582 17.2556C14.5889 19.45 13.1214 21.6444 11.6539 23.8405C11.6152 23.8986 11.5747 23.9197 11.5043 23.9197C10.445 23.918 9.38752 23.918 8.32824 23.918C8.30009 23.918 8.27017 23.918 8.21387 23.918C9.57052 21.8978 10.9149 19.8952 12.2627 17.8856C12.2346 17.8645 12.2099 17.8451 12.1853 17.8275C11.4938 17.326 10.8322 16.7875 10.2568 16.1522C9.55645 15.378 9.04968 14.4998 8.81213 13.4757C8.64321 12.7507 8.60098 12.0169 8.65904 11.276C8.71711 10.551 8.88955 9.8559 9.21508 9.20304C9.70073 8.22639 10.445 7.49962 11.3988 6.98225C12.1378 6.58103 12.9296 6.34347 13.7566 6.20797C14.376 6.1059 15.0007 6.06543 15.6288 6.06543C17.0752 6.06719 18.5199 6.06543 19.9663 6.06543C20.0032 6.06543 20.0419 6.06543 20.0842 6.06543C20.0842 12.0151 20.0842 17.9525 20.0842 23.9039Z" fill="white"/>
</svg>
