<svg width="33" height="30" viewBox="0 0 33 30" fill="none" xmlns="http://www.w3.org/2000/svg">
<path d="M4.72062 0.0681813C10.3238 -0.160961 19.5304 0.0568188 29.059 2.79895C30.6894 3.2686 31.835 4.72678 31.9089 6.42167C32.1039 10.9345 32.4788 19.6854 30.4925 23.6585C30.4925 23.6585 31.4203 26.3703 31.2669 29.6275C31.2537 29.8927 30.9867 30.0688 30.7386 29.9741C29.7862 29.6162 27.5953 28.5481 25.4498 25.7776L13.6679 28.6163C10.8597 29.2924 7.94731 27.9686 6.61801 25.4045C4.58808 21.4902 1.81206 14.9397 0.0888859 5.91036C-0.475406 2.95424 1.71549 0.189381 4.72062 0.0681813Z" fill="#FF3B3B"/>
<path d="M24.8893 5.81543L19.502 16.2196V22.344H13.6754V16.2196L8.29004 5.81543H13.2001L16.5897 12.7863L19.9773 5.81543H24.8893Z" fill="white"/>
</svg>
