<svg width="849" height="810" viewBox="0 0 849 810" fill="none" xmlns="http://www.w3.org/2000/svg">
<path d="M779.5 645H840V597.25M840 549.5V597.25M840 597.25H695.5L667 568L716 518.5V481.5" stroke="#00EAFF" stroke-width="4" stroke-linecap="round" stroke-linejoin="round"/>
<path d="M70.5 645H10V597.25M10 549.5V597.25M10 597.25H154.5L183 568L134 518.5V481.5" stroke="#00EAFF" stroke-width="4" stroke-linecap="round" stroke-linejoin="round"/>
<path d="M152 405.709H653.975H667M667 405.709L653.975 391.5M667 405.709L653.975 425.5" stroke="#00EAFF" stroke-width="4" stroke-linecap="round" stroke-linejoin="round"/>
<path d="M491 662.5L483.494 649.5V674.5L491 662.5Z" fill="#00EAFF"/>
<path d="M576 635.694V620.649L568.584 628.559L576 635.694Z" fill="#00EAFF"/>
<path d="M576 620.649H560.363L568.584 628.559L576 620.649Z" fill="#00EAFF"/>
<path d="M277.192 618.5L260 613.5L269.392 625.403L277.192 618.5Z" fill="#00EAFF"/>
<path d="M260 613.5L261.5 633L269.392 625.403L260 613.5Z" fill="#00EAFF"/>
<path d="M576 620.649V635.694L568.584 628.559M576 620.649H560.363L568.584 628.559M576 620.649L568.584 628.559M437.006 662.649H536.618L568.584 628.559M437.006 662.649V696.5H433.531L410.365 670.799H311.331L269.392 625.403M437.006 662.649V629.425M260 613.5L277.192 618.5L269.392 625.403M260 613.5L261.5 633L269.392 625.403M260 613.5L269.392 625.403M491 662.5L483.494 649.5V674.5L491 662.5Z" stroke="#00EAFF" stroke-width="4" stroke-linecap="round" stroke-linejoin="round"/>
<path d="M295.5 204.5L301.903 198.191L295.5 192.5V204.5Z" fill="#00EAFF"/>
<path d="M295.5 204.5H309L301.903 198.191L295.5 204.5Z" fill="#00EAFF"/>
<path d="M566 195.5L560.208 200.708L553.5 206L569 211L566 195.5Z" fill="#00EAFF"/>
<path d="M295.5 204.5V192.5L301.903 198.191M295.5 204.5H309L301.903 198.191M295.5 204.5L301.903 198.191M415.5 171H329.5L301.903 198.191M415.5 171V144H418.5L438.5 164.5H524L560.208 200.708M415.5 171V197.5M560.208 200.708L566 195.5L569 211L553.5 206L560.208 200.708Z" stroke="#00EAFF" stroke-width="4" stroke-linecap="round" stroke-linejoin="round"/>
<path d="M814.153 172.96C815.446 176.148 817.388 180.189 819.86 182.868C822.571 185.807 826.147 188.174 828.963 189.781C829.303 189.975 829.634 190.158 829.952 190.331C829.668 190.463 829.374 190.602 829.074 190.749C826.245 192.137 822.634 194.254 819.892 197.093C817.239 199.84 815.313 204.084 814.062 207.478C812.876 204.09 811.031 199.856 808.421 197.107C805.661 194.199 802.047 192.077 799.216 190.7C798.946 190.57 798.681 190.447 798.425 190.328C798.717 190.17 799.02 190.006 799.329 189.83C802.146 188.234 805.727 185.863 808.453 182.855C810.89 180.166 812.755 176.114 813.982 172.926C814.008 172.858 814.032 172.788 814.058 172.72C814.09 172.8 814.12 172.88 814.153 172.96Z" stroke="#00EAFF" stroke-width="4"/>
<rect x="776.042" y="71.0355" width="29" height="29" transform="rotate(45 776.042 71.0355)" stroke="#00EAFF" stroke-width="5"/>
<rect x="74.084" y="713.119" width="19.0421" height="19.0421" transform="rotate(45 74.084 713.119)" stroke="#00EAFF" stroke-width="5"/>
<circle cx="792" cy="756.5" r="13" stroke="#00EAFF" stroke-width="4"/>
<circle cx="74" cy="121.5" r="11" stroke="#00EAFF" stroke-width="4"/>
<g filter="url(#filter0_ii_3034_954)">
<rect x="680" y="322.5" width="169" height="169" rx="20" fill="#00EAFF"/>
</g>
<rect x="700" y="345.5" width="36" height="36" rx="5" fill="white"/>
<rect x="746" y="345.5" width="36" height="36" rx="5" fill="white"/>
<rect x="792" y="345.5" width="36" height="36" rx="5" fill="white"/>
<rect x="700" y="389.5" width="36" height="36" rx="5" fill="white"/>
<rect x="746" y="389.5" width="36" height="36" rx="5" fill="white"/>
<rect x="792" y="389.5" width="36" height="36" rx="5" fill="white"/>
<rect x="700" y="433.5" width="36" height="36" rx="5" fill="white"/>
<rect x="746" y="433.5" width="36" height="36" rx="5" fill="white"/>
<rect x="792" y="433.5" width="36" height="36" rx="5" fill="white"/>
<g filter="url(#filter1_ii_3034_954)">
<rect y="322.5" width="169" height="169" rx="20" fill="#00EAFF"/>
</g>
<path fill-rule="evenodd" clip-rule="evenodd" d="M29 417.5V400.5L42 398L46 390.5L38.5 379L51.5 365L63 370.5L70 367.5L74 355H93L96.5 367.5L104 372L116.5 365L130 379L122 390.5L124 396.5L138 401.5V418.5L125.5 421.5L122 429L130 439.5L116.5 455L104 447L96.5 450.5L93 463.5H74L70 450.5L63 447L51.5 455L38.5 441L46 429L43 421.5L29 417.5ZM108 409.5C108 422.755 97.2548 433.5 84 433.5C70.7452 433.5 60 422.755 60 409.5C60 396.245 70.7452 385.5 84 385.5C97.2548 385.5 108 396.245 108 409.5Z" fill="white"/>
<path d="M623.5 574.5H238C238 574.5 235.542 574.314 234 574C231.58 573.507 230.87 572.963 229 572C227.362 571.157 226.161 570.488 225 569.5C223.419 568.155 222.468 567.468 221 566C219.532 564.532 218.638 563.736 217.5 562C216.543 560.539 216.135 559.627 215.5 558C214.622 555.75 214.357 554.389 214 552C213.451 548.331 213.208 546.125 214 542.5C214.395 540.69 214.73 539.685 215.5 538C216.154 536.568 216.511 535.725 217.5 534.5C218.631 533.099 219.484 532.199 221 531C222.445 529.857 223.321 529.497 225 528.5C226.126 527.831 228 527 228 527H382C382 527 382.883 528.543 383.5 529.5C384.41 530.912 384.929 531.706 386 533C387.409 534.702 388.385 535.992 390 537.5C391.517 538.916 392.293 539.319 394 540.5C395.295 541.396 396.045 541.898 397.5 542.5C398.813 543.044 401 543.5 401 543.5H463C463 543.5 465.165 543.351 466.5 543C468.36 542.511 469.311 541.921 471 541C472.854 539.989 473.887 539.2 475.5 538C477.272 536.681 478.143 535.743 479.5 534C480.632 532.547 481.254 531.684 482 530C482.5 528.871 483 527 483 527H629.5C629.5 527 632.622 527.337 634.5 528C636.147 528.581 637.084 528.977 638.5 530C640.406 531.377 641.49 532.198 643 534C644.742 536.079 645.211 537.178 646.5 539.5C647.433 541.182 647.995 542.644 648.5 544.5C649.371 547.703 649.237 549.764 648.5 553C647.936 555.475 647.24 556.785 646 559C644.57 561.556 643.424 562.791 641.5 565C639.686 567.082 638.634 568.247 636.5 570C634.324 571.787 633.06 572.604 630.5 573.5C627.894 574.412 623.5 574.5 623.5 574.5Z" fill="#00EAFF"/>
<path d="M276 272.5H588C601.255 272.5 612 283.245 612 296.5V508.5H252V296.5C252 283.245 262.745 272.5 276 272.5Z" fill="white" stroke="#00EAFF" stroke-width="22"/>
<path d="M393.5 356.5L354.5 395.5L393.5 434.5" stroke="#00EAFF" stroke-width="12" stroke-linecap="round" stroke-linejoin="round"/>
<path d="M471 356.5L510 395.5L471 434.5" stroke="#00EAFF" stroke-width="12" stroke-linecap="round" stroke-linejoin="round"/>
<path d="M417 450.5L446.474 340.5" stroke="#00EAFF" stroke-width="12" stroke-linecap="round"/>
<path d="M95 257H151L191.5 198.5H129" stroke="#00EAFF" stroke-width="6"/>
<path d="M748.5 257H692.5L652 198.5H714.5" stroke="#00EAFF" stroke-width="6"/>
<path d="M344.5 56V9C344.5 5.68629 347.186 3 350.5 3H496C499.314 3 502 5.68629 502 9V56" stroke="#00EAFF" stroke-width="6" stroke-linecap="round" stroke-linejoin="round"/>
<path d="M345 797.5V750.45C345 747.156 347.656 744.475 350.95 744.479C352.18 744.48 353.427 744.486 354.5 744.5C381.603 744.853 396.395 751.979 423.5 752C450.799 752.021 465.703 744.851 493 744.5C494.073 744.486 495.319 744.48 496.549 744.479C499.844 744.476 502.5 747.156 502.5 750.451V797.5" stroke="#00EAFF" stroke-width="6" stroke-linecap="round" stroke-linejoin="round"/>
<path d="M770.641 310C728.129 158.549 589.033 47.5 424 47.5C258.967 47.5 119.871 158.549 77.3589 310M771.5 501.885C730.032 654.926 590.162 767.5 424 767.5C258.06 767.5 118.343 655.227 76.667 502.5" stroke="#00EAFF" stroke-width="20"/>
<path d="M801.148 301.333C754.894 136.42 603.553 15.5 423.992 15.5C244.431 15.5 93.0898 136.42 46.8359 301.333M802.083 510.275C756.964 676.919 604.782 799.5 423.992 799.5C243.444 799.5 91.4277 677.247 46.083 510.944" stroke="#00EAFF" stroke-width="20"/>
<defs>
<filter id="filter0_ii_3034_954" x="680" y="321.5" width="169" height="172" filterUnits="userSpaceOnUse" color-interpolation-filters="sRGB">
<feFlood flood-opacity="0" result="BackgroundImageFix"/>
<feBlend mode="normal" in="SourceGraphic" in2="BackgroundImageFix" result="shape"/>
<feColorMatrix in="SourceAlpha" type="matrix" values="0 0 0 0 0 0 0 0 0 0 0 0 0 0 0 0 0 0 127 0" result="hardAlpha"/>
<feOffset dy="2"/>
<feGaussianBlur stdDeviation="2"/>
<feComposite in2="hardAlpha" operator="arithmetic" k2="-1" k3="1"/>
<feColorMatrix type="matrix" values="0 0 0 0 1 0 0 0 0 1 0 0 0 0 1 0 0 0 0.55 0"/>
<feBlend mode="normal" in2="shape" result="effect1_innerShadow_3034_954"/>
<feColorMatrix in="SourceAlpha" type="matrix" values="0 0 0 0 0 0 0 0 0 0 0 0 0 0 0 0 0 0 127 0" result="hardAlpha"/>
<feOffset dy="-1"/>
<feGaussianBlur stdDeviation="2"/>
<feComposite in2="hardAlpha" operator="arithmetic" k2="-1" k3="1"/>
<feColorMatrix type="matrix" values="0 0 0 0 0 0 0 0 0 0 0 0 0 0 0 0 0 0 0.25 0"/>
<feBlend mode="normal" in2="effect1_innerShadow_3034_954" result="effect2_innerShadow_3034_954"/>
</filter>
<filter id="filter1_ii_3034_954" x="0" y="321.5" width="169" height="172" filterUnits="userSpaceOnUse" color-interpolation-filters="sRGB">
<feFlood flood-opacity="0" result="BackgroundImageFix"/>
<feBlend mode="normal" in="SourceGraphic" in2="BackgroundImageFix" result="shape"/>
<feColorMatrix in="SourceAlpha" type="matrix" values="0 0 0 0 0 0 0 0 0 0 0 0 0 0 0 0 0 0 127 0" result="hardAlpha"/>
<feOffset dy="2"/>
<feGaussianBlur stdDeviation="2"/>
<feComposite in2="hardAlpha" operator="arithmetic" k2="-1" k3="1"/>
<feColorMatrix type="matrix" values="0 0 0 0 1 0 0 0 0 1 0 0 0 0 1 0 0 0 0.55 0"/>
<feBlend mode="normal" in2="shape" result="effect1_innerShadow_3034_954"/>
<feColorMatrix in="SourceAlpha" type="matrix" values="0 0 0 0 0 0 0 0 0 0 0 0 0 0 0 0 0 0 127 0" result="hardAlpha"/>
<feOffset dy="-1"/>
<feGaussianBlur stdDeviation="2"/>
<feComposite in2="hardAlpha" operator="arithmetic" k2="-1" k3="1"/>
<feColorMatrix type="matrix" values="0 0 0 0 0 0 0 0 0 0 0 0 0 0 0 0 0 0 0.25 0"/>
<feBlend mode="normal" in2="effect1_innerShadow_3034_954" result="effect2_innerShadow_3034_954"/>
</filter>
</defs>
</svg>
