<svg width="191" height="181" viewBox="0 0 191 181" fill="none" xmlns="http://www.w3.org/2000/svg">
<g clip-path="url(#clip0_3026_106)">
<path fill-rule="evenodd" clip-rule="evenodd" d="M42.6039 149.76L40.7926 149.243L39.1224 147.82L37.3112 146.008L36.0174 144.327L35.2412 142.257L34.9824 140.575V52.212L35.2412 50.4008L36.0174 48.5895L36.7937 47.0371L37.8287 45.8727L38.993 44.9671L40.5455 44.0614L42.2274 43.5439H149.479L151.161 43.9321L152.325 44.5789L153.36 45.2258L154.266 46.2608L155.042 47.2958L155.689 48.5895L156.206 49.7539L156.465 51.6945V140.575L156.336 142.386L155.689 143.938L154.912 145.362L153.877 146.655L152.713 147.69L151.29 148.596L149.737 149.372L148.056 149.631H108.855V151.054L113.513 167.743L117.265 167.873L119.335 168.261L121.405 169.037L122.957 169.813L124.509 170.848L125.933 172.013L127.226 173.177L128.261 174.341L129.167 175.635L129.555 176.541V176.929L129.167 177.705L128.261 178.223L127.614 178.481H65.256L63.5742 178.352L62.9273 177.835L62.4098 177.188L62.151 176.541L62.4098 175.765L62.9273 174.988L63.5742 174.212L64.6092 173.048L65.7735 172.013L67.0673 171.107L68.2316 170.331L69.6548 169.684L71.5954 168.908L73.4066 168.39L75.2179 168.131H77.8053L82.5922 149.76H42.6039ZM40.028 51.9533V132.295L40.4161 133.071L41.063 133.718L41.7099 134.235L42.4861 134.623L43.2624 134.753H148.573L149.22 134.365L149.996 133.847L150.514 133.459L151.031 132.812L151.29 132.295V51.5652L150.772 50.6595L150.384 50.0127L149.867 49.4952L149.349 49.2364L148.573 48.9777H42.098L41.7099 49.107L41.1924 49.4952L40.8043 49.8833L40.4161 50.5302L40.1574 51.177L40.028 51.9533Z" fill="#00EAFF"/>
<path fill-rule="evenodd" clip-rule="evenodd" d="M146.62 62.562H44.6729V128.802H146.62V62.562ZM49.3303 66.702H141.704V123.627H49.3303V66.702Z" fill="white"/>
<path d="M85.9436 81.9683L65.6318 102.798V103.703H125.662V102.798L110.395 87.5314L101.08 97.1051L85.9436 81.9683Z" fill="#00EAFF"/>
<path d="M108.326 81.1921C108.326 84.0501 106.009 86.367 103.151 86.367C100.293 86.367 97.9756 84.0501 97.9756 81.1921C97.9756 78.334 100.293 76.0171 103.151 76.0171C106.009 76.0171 108.326 78.334 108.326 81.1921Z" fill="#00EAFF"/>
<path fill-rule="evenodd" clip-rule="evenodd" d="M129.284 70.5833C129.284 69.8688 128.705 69.2896 127.991 69.2896H63.3035C62.589 69.2896 62.0098 69.8688 62.0098 70.5833V104.997C62.0098 105.711 62.589 106.291 63.3035 106.291H127.991C128.705 106.291 129.284 105.711 129.284 104.997V70.5833ZM65.632 74.0764C65.632 73.3619 66.2112 72.7827 66.9257 72.7827H124.746C125.461 72.7827 126.04 73.3619 126.04 74.0764V102.106C126.04 102.821 125.461 103.4 124.746 103.4H66.9257C66.2112 103.4 65.632 102.821 65.632 102.106V74.0764Z" fill="white"/>
<path d="M48.2953 55.5759C48.2953 56.5762 47.4844 57.3871 46.4841 57.3871C45.4838 57.3871 44.6729 56.5762 44.6729 55.5759C44.6729 54.5756 45.4838 53.7646 46.4841 53.7646C47.4844 53.7646 48.2953 54.5756 48.2953 55.5759Z" fill="white"/>
<path d="M55.7992 55.5759C55.7992 56.5762 54.9883 57.3871 53.988 57.3871C52.9877 57.3871 52.1768 56.5762 52.1768 55.5759C52.1768 54.5756 52.9877 53.7646 53.988 53.7646C54.9883 53.7646 55.7992 54.5756 55.7992 55.5759Z" fill="white"/>
<path d="M63.3031 55.5759C63.3031 56.5762 62.4922 57.3871 61.4919 57.3871C60.4916 57.3871 59.6807 56.5762 59.6807 55.5759C59.6807 54.5756 60.4916 53.7646 61.4919 53.7646C62.4922 53.7646 63.3031 54.5756 63.3031 55.5759Z" fill="white"/>
<path d="M73.6533 55.7051C73.6533 54.9191 74.2905 54.282 75.0764 54.282H145.197C145.983 54.282 146.62 54.9191 146.62 55.7051V55.7051C146.62 56.4911 145.983 57.1282 145.197 57.1282H75.0764C74.2905 57.1282 73.6533 56.4911 73.6533 55.7051V55.7051Z" fill="white"/>
<path d="M54.5059 120.667V112.355H56.5251V119.035H60.0005V120.667H54.5059Z" fill="white"/>
<path d="M62.7353 120.667H60.5652L63.3839 112.355H66.0721L68.8908 120.667H66.7207L64.7586 114.449H64.6933L62.7353 120.667ZM62.4457 117.396H66.9817V118.922H62.4457V117.396Z" fill="white"/>
<path d="M76.6705 112.355V120.667H74.9573L71.6327 115.87H71.5797V120.667H69.5605V112.355H71.2983L74.5861 117.144H74.6554V112.355H76.6705Z" fill="white"/>
<path d="M80.7984 120.667H77.7104V112.355H80.7943C81.6455 112.355 82.3784 112.522 82.993 112.855C83.6103 113.185 84.0862 113.661 84.4207 114.283C84.7552 114.903 84.9224 115.644 84.9224 116.507C84.9224 117.373 84.7552 118.117 84.4207 118.739C84.0889 119.361 83.6144 119.839 82.9971 120.172C82.3797 120.502 81.6469 120.667 80.7984 120.667ZM79.7296 118.954H80.7209C81.1886 118.954 81.5843 118.876 81.9079 118.719C82.2343 118.559 82.4804 118.301 82.6463 117.944C82.8149 117.584 82.8992 117.105 82.8992 116.507C82.8992 115.909 82.8149 115.433 82.6463 115.078C82.4776 114.721 82.2288 114.464 81.8998 114.307C81.5734 114.148 81.171 114.068 80.6923 114.068H79.7296V118.954Z" fill="white"/>
<path d="M87.8908 112.355V120.667H85.8716V112.355H87.8908Z" fill="white"/>
<path d="M96.0387 112.355V120.667H94.3254L91.0009 115.87H90.9478V120.667H88.9286V112.355H90.6664L93.9542 117.144H94.0235V112.355H96.0387Z" fill="white"/>
<path d="M102.561 115.07C102.515 114.9 102.447 114.75 102.357 114.62C102.267 114.487 102.157 114.375 102.027 114.283C101.896 114.191 101.747 114.122 101.578 114.076C101.409 114.027 101.224 114.003 101.023 114.003C100.618 114.003 100.267 114.1 99.9707 114.295C99.677 114.49 99.4499 114.774 99.2895 115.147C99.129 115.518 99.0488 115.969 99.0488 116.499C99.0488 117.032 99.1263 117.486 99.2813 117.862C99.4363 118.239 99.6607 118.525 99.9544 118.723C100.248 118.92 100.604 119.019 101.023 119.019C101.393 119.019 101.706 118.96 101.961 118.841C102.22 118.719 102.415 118.547 102.549 118.325C102.682 118.103 102.749 117.842 102.749 117.542L103.124 117.587H101.092V116.121H104.694V117.221C104.694 117.965 104.535 118.602 104.217 119.133C103.902 119.663 103.467 120.07 102.912 120.354C102.36 120.638 101.725 120.78 101.007 120.78C100.21 120.78 99.5098 120.609 98.906 120.265C98.3023 119.921 97.8318 119.432 97.4946 118.796C97.1574 118.157 96.9888 117.4 96.9888 116.523C96.9888 115.841 97.0908 115.237 97.2948 114.709C97.4987 114.179 97.7829 113.73 98.1473 113.362C98.5144 112.994 98.9387 112.715 99.42 112.526C99.9041 112.336 100.425 112.242 100.982 112.242C101.466 112.242 101.916 112.311 102.333 112.449C102.751 112.587 103.121 112.781 103.442 113.033C103.766 113.285 104.028 113.584 104.229 113.93C104.431 114.276 104.556 114.656 104.605 115.07H102.561Z" fill="white"/>
<path d="M107.893 120.667V112.355H111.344C111.969 112.355 112.509 112.477 112.963 112.721C113.42 112.961 113.772 113.298 114.02 113.731C114.267 114.161 114.391 114.662 114.391 115.233C114.391 115.806 114.265 116.308 114.012 116.738C113.761 117.166 113.404 117.497 112.939 117.733C112.474 117.968 111.922 118.086 111.283 118.086H109.153V116.503H110.907C111.212 116.503 111.466 116.45 111.67 116.345C111.877 116.239 112.033 116.092 112.139 115.902C112.245 115.71 112.298 115.487 112.298 115.233C112.298 114.976 112.245 114.754 112.139 114.567C112.033 114.378 111.877 114.232 111.67 114.129C111.464 114.026 111.209 113.975 110.907 113.975H109.912V120.667H107.893Z" fill="white"/>
<path d="M115.954 120.667H113.784L116.603 112.355H119.291L122.11 120.667H119.939L117.977 114.449H117.912L115.954 120.667ZM115.664 117.396H120.201V118.922H115.664V117.396Z" fill="white"/>
<path d="M127.869 115.07C127.823 114.9 127.755 114.75 127.665 114.62C127.575 114.487 127.465 114.375 127.335 114.283C127.204 114.191 127.055 114.122 126.886 114.076C126.717 114.027 126.533 114.003 126.331 114.003C125.926 114.003 125.575 114.1 125.279 114.295C124.985 114.49 124.758 114.774 124.598 115.147C124.437 115.518 124.357 115.969 124.357 116.499C124.357 117.032 124.434 117.486 124.589 117.862C124.744 118.239 124.969 118.525 125.263 118.723C125.556 118.92 125.912 119.019 126.331 119.019C126.701 119.019 127.014 118.96 127.269 118.841C127.528 118.719 127.724 118.547 127.857 118.325C127.99 118.103 128.057 117.842 128.057 117.542L128.432 117.587H126.401V116.121H130.003V117.221C130.003 117.965 129.843 118.602 129.525 119.133C129.21 119.663 128.775 120.07 128.22 120.354C127.668 120.638 127.033 120.78 126.315 120.78C125.518 120.78 124.818 120.609 124.214 120.265C123.61 119.921 123.14 119.432 122.803 118.796C122.466 118.157 122.297 117.4 122.297 116.523C122.297 115.841 122.399 115.237 122.603 114.709C122.807 114.179 123.091 113.73 123.455 113.362C123.823 112.994 124.247 112.715 124.728 112.526C125.212 112.336 125.733 112.242 126.29 112.242C126.775 112.242 127.225 112.311 127.641 112.449C128.059 112.587 128.429 112.781 128.75 113.033C129.074 113.285 129.336 113.584 129.538 113.93C129.739 114.276 129.864 114.656 129.913 115.07H127.869Z" fill="white"/>
<path d="M130.963 120.667V112.355H136.788V113.987H132.982V115.691H136.49V117.327H132.982V119.035H136.788V120.667H130.963Z" fill="white"/>
<path d="M176.387 24.0086L170.166 30.2293L163.945 24.0086L170.166 17.7878L176.387 24.0086ZM165.775 24.0086L170.166 28.3997L174.557 24.0086L170.166 19.6175L165.775 24.0086Z" fill="#00EAFF"/>
<path d="M25.5588 33.334L20.1035 38.7893L14.6482 33.334L20.1035 27.8787L25.5588 33.334ZM16.4778 33.334L20.1035 36.9596L23.7292 33.334L20.1035 29.7083L16.4778 33.334Z" fill="#00EAFF"/>
<path d="M173.854 170.999L168.636 176.218L163.417 170.999L168.636 165.781L173.854 170.999ZM165.247 170.999L168.636 174.388L172.024 170.999L168.636 167.611L165.247 170.999Z" fill="#00EAFF"/>
<path d="M179.123 38.4983C179.123 38.4983 179.769 40.7692 180.752 41.835C181.867 43.0432 183.751 43.8326 183.751 43.8326C183.751 43.8326 181.867 44.453 180.752 45.607C179.695 46.7017 179.128 49.144 179.123 49.167C179.118 49.1446 178.633 46.8539 177.657 45.7141L177.561 45.607C176.44 44.4263 174.565 43.8326 174.565 43.8326C174.573 43.8292 176.328 43.1144 177.454 41.9496L177.561 41.835C178.527 40.7689 179.123 38.4983 179.123 38.4983ZM179.147 41.309C178.92 41.7445 178.647 42.1778 178.327 42.5301C177.884 43.019 177.357 43.4315 176.862 43.7613C177.352 44.0554 177.871 44.431 178.311 44.8947C178.644 45.2451 178.92 45.6783 179.148 46.1195C179.384 45.6754 179.669 45.2394 180.008 44.8881C180.45 44.4302 180.975 44.0558 181.467 43.7617C180.97 43.4313 180.437 43.0196 179.992 42.5369C179.666 42.1835 179.384 41.7473 179.147 41.309Z" fill="#00EAFF"/>
<path d="M25.4268 163.991C25.4268 163.991 26.0728 166.262 27.0561 167.328C28.1708 168.536 30.0543 169.326 30.0543 169.326C30.0543 169.326 28.1704 169.946 27.0559 171.1C25.9988 172.195 25.4321 174.637 25.4268 174.66C25.422 174.638 24.9366 172.347 23.9607 171.207L23.8644 171.1C22.7438 169.919 20.8686 169.326 20.8686 169.326C20.877 169.322 22.6322 168.608 23.7572 167.443L23.8642 167.328C24.8305 166.262 25.4268 163.991 25.4268 163.991ZM25.4509 166.802C25.2232 167.238 24.9504 167.671 24.6311 168.023C24.188 168.512 23.6605 168.925 23.1662 169.254C23.6555 169.549 24.175 169.924 24.615 170.388C24.9476 170.738 25.2241 171.171 25.4514 171.613C25.6872 171.169 25.9722 170.733 26.3116 170.381C26.7537 169.923 27.2783 169.549 27.771 169.255C27.2733 168.924 26.7407 168.513 26.2953 168.03C25.9693 167.677 25.6875 167.24 25.4509 166.802Z" fill="#00EAFF"/>
<path d="M6.12012 127.767H8.19011V152.348H6.12012V127.767Z" fill="#00EAFF"/>
<path d="M21.3863 134.494V136.564H6.12012L6.12012 134.494H21.3863Z" fill="#00EAFF"/>
<path d="M32.6419 150.278V152.477L6.12012 152.348V150.278H32.6419Z" fill="#00EAFF"/>
<path d="M185.045 127.767H182.975V152.348H185.045V127.767Z" fill="#00EAFF"/>
<path d="M169.779 134.494V136.564H185.045L185.045 134.494H169.779Z" fill="#00EAFF"/>
<path d="M165.121 150.278V152.477L185.045 152.348V150.278H165.121Z" fill="#00EAFF"/>
<path d="M153.991 152.466C169.848 136.466 177.826 115.625 177.947 94.7447C178.072 73.2926 169.904 51.8169 153.466 35.526C136.939 19.1465 115.245 11.1738 93.6797 11.5835C72.9196 11.978 52.2941 20.1404 36.5255 36.0513C20.4226 52.2996 12.4452 73.5405 12.5695 94.7445C12.6935 115.872 20.861 136.946 37.051 152.992C42.3445 158.238 48.1653 162.619 54.3395 166.139L51.7762 170.635C45.2113 166.892 39.027 162.236 33.4082 156.667C16.2061 139.619 7.52649 117.217 7.39485 94.7749C7.26275 72.2522 15.7401 49.6727 32.8499 32.4085C49.6039 15.5033 71.5293 6.82872 93.5812 6.40967C116.487 5.97441 139.548 14.4464 157.109 31.8503C174.575 49.16 183.254 71.989 183.122 94.7747C182.993 116.954 174.515 139.109 157.667 156.109C152.901 160.918 147.715 165.062 142.224 168.54L139.455 164.169C144.62 160.897 149.501 156.997 153.991 152.466Z" fill="#00EAFF"/>
<path d="M29.4073 57.7751H26.4317L25.5261 59.457L24.2324 62.1739L22.6799 66.1845L21.3861 69.5482L20.3511 73.0413L19.1867 77.8282L18.5399 81.1919L18.1518 83.7794V86.755L18.5399 87.9194L20.3511 91.2831L20.998 92.0594V92.7062L20.3511 93.3531L17.893 97.2343L17.5049 97.8812V98.9162L17.6343 99.9512L17.893 103.444L18.928 109.396L20.3511 115.217L23.068 122.592L25.2673 127.379L27.9842 132.295L29.6661 134.753H30.1836V131.001L28.3723 128.025L25.7848 122.98L23.068 116.123L20.7392 107.326L19.963 101.504V98.6574L20.3511 98.0106L21.5155 96.1993L23.8442 92.7062V92.0594L21.5155 87.9194L20.3511 86.3669V84.8144L20.4805 83.0031L20.8686 80.1569L21.5155 77.8282L22.9386 72.5238L23.9736 69.5482L25.0086 66.5726L26.173 63.7264L27.4667 60.8801L28.5017 59.0689L29.4073 57.7751Z" fill="#00EAFF"/>
<path d="M161.888 57.7751H164.863L165.769 59.457L167.063 62.1739L168.615 66.1845L169.909 69.5482L170.944 73.0413L172.108 77.8282L172.755 81.1919L173.143 83.7794V86.755L172.755 87.9194L170.944 91.2831L170.297 92.0594V92.7062L170.944 93.3531L173.402 97.2343L173.79 97.8812V98.9162L173.661 99.9512L173.402 103.444L172.367 109.396L170.944 115.217L168.227 122.592L166.028 127.379L163.311 132.295L161.629 134.753H161.111V131.001L162.923 128.025L165.51 122.98L168.227 116.123L170.556 107.326L171.332 101.504V98.6574L170.944 98.0106L169.779 96.1993L167.451 92.7062V92.0594L169.779 87.9194L170.944 86.3669V84.8144L170.814 83.0031L170.426 80.1569L169.779 77.8282L168.356 72.5238L167.321 69.5482L166.286 66.5726L165.122 63.7264L163.828 60.8801L162.793 59.0689L161.888 57.7751Z" fill="#00EAFF"/>
<path d="M140.928 31.5123L139.375 33.9704C139.375 33.9704 127.677 27.1529 118.287 24.3967C109.525 21.8248 104.26 21.0246 95.1292 21.1623C86.06 21.2992 80.9296 22.4772 72.2299 25.0436C62.8567 27.8086 51.6594 34.876 51.6594 34.876L46.4844 34.7466C46.4844 34.7466 53.4453 30.1299 57.74 27.7604C63.0796 24.8145 66.3969 23.7176 72.2299 21.9386C80.9057 19.2926 86.0604 18.2184 95.1292 18.0574C104.252 17.8953 109.509 18.673 118.287 21.1623C127.64 23.8146 140.928 31.5123 140.928 31.5123Z" fill="#00EAFF"/>
<path d="M3.53211 85.332H5.21397C5.21397 85.332 4.92693 88.2461 4.82585 90.1189C4.72506 91.9862 4.69647 93.0357 4.69647 94.9057C4.69647 96.7758 4.72506 97.8252 4.82585 99.6926C4.92693 101.565 5.21397 104.479 5.21397 104.479H3.53211C3.53211 104.479 3.16635 101.567 3.01461 99.6926C2.86353 97.8266 2.75586 96.7778 2.75586 94.9057C2.75586 93.0336 2.86353 91.9849 3.01461 90.1189C3.16635 88.2447 3.53211 85.332 3.53211 85.332Z" fill="#00EAFF"/>
<path d="M187.632 85.332H185.95C185.95 85.332 186.237 88.2461 186.338 90.1189C186.439 91.9862 186.468 93.0357 186.468 94.9057C186.468 96.7758 186.439 97.8252 186.338 99.6926C186.237 101.565 185.95 104.479 185.95 104.479H187.632C187.632 104.479 187.998 101.567 188.149 99.6926C188.301 97.8266 188.408 96.7778 188.408 94.9057C188.408 93.0336 188.301 91.9849 188.149 90.1189C187.998 88.2447 187.632 85.332 187.632 85.332Z" fill="#00EAFF"/>
<path d="M75.335 4.21428L75.335 7.70739C75.335 7.70739 81.7004 6.57221 85.8145 6.11404C89.7416 5.67671 91.9544 5.37865 95.9057 5.37865C99.857 5.37865 102.08 5.59076 105.997 6.11404C109.978 6.64591 116.088 8.09551 116.088 8.09551L116.088 4.99053C116.088 4.99053 109.992 3.34803 105.997 2.79116C102.086 2.24596 99.8545 2.14428 95.9055 2.14429C91.9566 2.1443 89.7442 2.40205 85.8145 2.79116C81.7045 3.19814 75.335 4.21428 75.335 4.21428Z" fill="#00EAFF"/>
</g>
<defs>
<clipPath id="clip0_3026_106">
<rect width="191" height="181" fill="white"/>
</clipPath>
</defs>
</svg>
